solid rect
  facet normal 0e+0 -1e+0 0e+0
    outer loop
      vertex 0e+0 0e+0 0e+0
      vertex 1e+1 0e+0 0e+0
      vertex 1e+1 0e+0 2e+1
    endloop
  endfacet
  facet normal 0e+0 -1e+0 0e+0
    outer loop
      vertex 0e+0 0e+0 0e+0
      vertex 1e+1 0e+0 2e+1
      vertex 0e+0 0e+0 2e+1
    endloop
  endfacet
  facet normal 1e+0 0e+0 0e+0
    outer loop
      vertex 1e+1 0e+0 0e+0
      vertex 1e+1 1e+1 0e+0
      vertex 1e+1 1e+1 2e+1
    endloop
  endfacet
  facet normal 1e+0 0e+0 0e+0
    outer loop
      vertex 1e+1 0e+0 0e+0
      vertex 1e+1 1e+1 2e+1
      vertex 1e+1 0e+0 2e+1
    endloop
  endfacet
  facet normal 0e+0 1e+0 0e+0
    outer loop
      vertex 1e+1 1e+1 0e+0
      vertex 0e+0 1e+1 0e+0
      vertex 0e+0 1e+1 2e+1
    endloop
  endfacet
  facet normal 0e+0 1e+0 0e+0
    outer loop
      vertex 1e+1 1e+1 0e+0
      vertex 0e+0 1e+1 2e+1
      vertex 1e+1 1e+1 2e+1
    endloop
  endfacet
  facet normal 9.320859182994519e-1 -3.6223727156087593e-1 0e+0
    outer loop
      vertex 9.220362646416448e-15 -7.528997465094444e+1 0e+0
      vertex 2.9260022236090915e+1 5.4389608930479266e-5 0e+0
      vertex 2.9260022236090915e+1 5.4389608930479266e-5 2e+1
    endloop
  endfacet
  facet normal 9.320859182994519e-1 -3.6223727156087593e-1 0e+0
    outer loop
      vertex 9.220362646416448e-15 -7.528997465094444e+1 0e+0
      vertex 2.9260022236090915e+1 5.4389608930479266e-5 2e+1
      vertex 9.220362646416448e-15 -7.528997465094444e+1 2e+1
    endloop
  endfacet
  facet normal 0e+0 0e+0 -1e+0
    outer loop
      vertex 1e+1 1e+1 0e+0
      vertex 1e+1 0e+0 0e+0
      vertex 0e+0 1e+1 0e+0
    endloop
  endfacet
  facet normal 0e+0 0e+0 -1e+0
    outer loop
      vertex 1e+1 0e+0 0e+0
      vertex 0e+0 0e+0 0e+0
      vertex 0e+0 1e+1 0e+0
    endloop
  endfacet
  facet normal 0e+0 0e+0 1e+0
    outer loop
      vertex 0e+0 1e+1 2e+1
      vertex 1e+1 0e+0 2e+1
      vertex 1e+1 1e+1 2e+1
    endloop
  endfacet
  facet normal 0e+0 0e+0 1e+0
    outer loop
      vertex 0e+0 1e+1 2e+1
      vertex 0e+0 0e+0 2e+1
      vertex 1e+1 0e+0 2e+1
    endloop
  endfacet
endsolid