solid rect
  facet normal -9.999999998894267e-1 -1.4871004602854399e-5 0e+0
    outer loop
      vertex 1.1703794335411723e+2 8.702443527342479e-4 0e+0
      vertex 1.1704018262923651e+2 -1.505790790485325e+2 0e+0
      vertex 1.1704018262923651e+2 -1.505790790485325e+2 2e+1
    endloop
  endfacet
  facet normal -9.999999998894267e-1 -1.4871004602854399e-5 0e+0
    outer loop
      vertex 1.1703794335411723e+2 8.702443527342479e-4 0e+0
      vertex 1.1704018262923651e+2 -1.505790790485325e+2 2e+1
      vertex 1.1703794335411723e+2 8.702443527342479e-4 2e+1
    endloop
  endfacet
  facet normal -7.435503170717933e-6 9.999999999723566e-1 0e+0
    outer loop
      vertex 1.1704018262923651e+2 -1.505790790485325e+2 0e+0
      vertex 1.8440725292746273e-14 -1.5057994930118156e+2 0e+0
      vertex 1.8440725292746273e-14 -1.5057994930118156e+2 2e+1
    endloop
  endfacet
  facet normal -7.435503170717933e-6 9.999999999723566e-1 0e+0
    outer loop
      vertex 1.1704018262923651e+2 -1.505790790485325e+2 0e+0
      vertex 1.8440725292746273e-14 -1.5057994930118156e+2 2e+1
      vertex 1.1704018262923651e+2 -1.505790790485325e+2 2e+1
    endloop
  endfacet
  facet normal 9.320859182994519e-1 -3.6223727156087593e-1 0e+0
    outer loop
      vertex 9.220362646416448e-15 -7.528997465094444e+1 0e+0
      vertex 2.9260022236090915e+1 5.4389608930479266e-5 0e+0
      vertex 2.9260022236090915e+1 5.4389608930479266e-5 2e+1
    endloop
  endfacet
  facet normal 9.320859182994519e-1 -3.6223727156087593e-1 0e+0
    outer loop
      vertex 9.220362646416448e-15 -7.528997465094444e+1 0e+0
      vertex 2.9260022236090915e+1 5.4389608930479266e-5 2e+1
      vertex 9.220362646416448e-15 -7.528997465094444e+1 2e+1
    endloop
  endfacet
  facet normal 0e+0 0e+0 -1e+0
    outer loop
      vertex 1.1704018262923651e+2 -1.505790790485325e+2 0e+0
      vertex 1.8440725292746273e-14 -1.5057994930118156e+2 0e+0
      vertex 1.1703794335411723e+2 8.702443527342479e-4 0e+0
    endloop
  endfacet
  facet normal 0e+0 0e+0 1e+0
    outer loop
      vertex 1.1703794335411723e+2 8.702443527342479e-4 2e+1
      vertex 1.8440725292746273e-14 -1.5057994930118156e+2 2e+1
      vertex 1.1704018262923651e+2 -1.505790790485325e+2 2e+1
    endloop
  endfacet
endsolid