solid Cell_Aux_Patux_:grass:ground::inner:0:0
  facet normal 0 0 1
    outer loop
      vertex -60 60 0
      vertex -45 45 0
      vertex -45 60 0
    endloop
  endfacet
endsolid
solid Cell_Aux_Patux_:grass:ground::inner:0:0
  facet normal 0 0 1
    outer loop
      vertex -60 60 0
      vertex -60 45 0
      vertex -45 45 0
    endloop
  endfacet
endsolid
solid Cell_Aux_Patux_:grass:ground::inner:0:1
  facet normal 0 0 1
    outer loop
      vertex -60 45 0
      vertex -45 30 0
      vertex -45 45 0
    endloop
  endfacet
endsolid
solid Cell_Aux_Patux_:grass:ground::inner:0:1
  facet normal 0 0 1
    outer loop
      vertex -60 45 0
      vertex -60 30 0
      vertex -45 30 0
    endloop
  endfacet
endsolid
solid Cell_Aux_Patux_:grass:ground::inner:0:2
  facet normal 0 0 1
    outer loop
      vertex -60 30 0
      vertex -45 15 0
      vertex -45 30 0
    endloop
  endfacet
endsolid
solid Cell_Aux_Patux_:grass:ground::inner:0:2
  facet normal 0 0 1
    outer loop
      vertex -60 30 0
      vertex -60 15 0
      vertex -45 15 0
    endloop
  endfacet
endsolid
solid Cell_Aux_Patux_:grass:ground::inner:0:3
  facet normal 0 0 1
    outer loop
      vertex -60 15 0
      vertex -45 0 0
      vertex -45 15 0
    endloop
  endfacet
endsolid
solid Cell_Aux_Patux_:grass:ground::inner:0:3
  facet normal 0 0 1
    outer loop
      vertex -60 15 0
      vertex -60 0 0
      vertex -45 0 0
    endloop
  endfacet
endsolid
solid Cell_Aux_Patux_:grass:ground::inner:0:4
  facet normal 0 0 1
    outer loop
      vertex -60 0 0
      vertex -45 -15 0
      vertex -45 0 0
    endloop
  endfacet
endsolid
solid Cell_Aux_Patux_:grass:ground::inner:0:4
  facet normal 0 0 1
    outer loop
      vertex -60 0 0
      vertex -60 -15 0
      vertex -45 -15 0
    endloop
  endfacet
endsolid
solid Cell_Aux_Patux_:grass:ground::inner:0:5
  facet normal 0 0 1
    outer loop
      vertex -60 -15 0
      vertex -45 -30 0
      vertex -45 -15 0
    endloop
  endfacet
endsolid
solid Cell_Aux_Patux_:grass:ground::inner:0:5
  facet normal 0 0 1
    outer loop
      vertex -60 -15 0
      vertex -60 -30 0
      vertex -45 -30 0
    endloop
  endfacet
endsolid
solid Cell_Aux_Patux_:grass:ground::inner:0:6
  facet normal 0 0 1
    outer loop
      vertex -60 -30 0
      vertex -45 -45 0
      vertex -45 -30 0
    endloop
  endfacet
endsolid
solid Cell_Aux_Patux_:grass:ground::inner:0:6
  facet normal 0 0 1
    outer loop
      vertex -60 -30 0
      vertex -60 -45 0
      vertex -45 -45 0
    endloop
  endfacet
endsolid
solid Cell_Aux_Patux_:grass:ground::inner:0:7
  facet normal 0 0 1
    outer loop
      vertex -60 -45 0
      vertex -45 -60 0
      vertex -45 -45 0
    endloop
  endfacet
endsolid
solid Cell_Aux_Patux_:grass:ground::inner:0:7
  facet normal 0 0 1
    outer loop
      vertex -60 -45 0
      vertex -60 -60 0
      vertex -45 -60 0
    endloop
  endfacet
endsolid
solid Cell_Aux_Patux_:grass:ground::inner:1:0
  facet normal 0 0 1
    outer loop
      vertex -45 60 0
      vertex -30 45 0
      vertex -30 60 0
    endloop
  endfacet
endsolid
solid Cell_Aux_Patux_:grass:ground::inner:1:0
  facet normal 0 0 1
    outer loop
      vertex -45 60 0
      vertex -45 45 0
      vertex -30 45 0
    endloop
  endfacet
endsolid
solid Cell_Aux_Patux_:grass:ground::inner:1:1
  facet normal 0 0 1
    outer loop
      vertex -45 45 0
      vertex -30 30 0
      vertex -30 45 0
    endloop
  endfacet
endsolid
solid Cell_Aux_Patux_:grass:ground::inner:1:1
  facet normal 0 0 1
    outer loop
      vertex -45 45 0
      vertex -45 30 0
      vertex -30 30 0
    endloop
  endfacet
endsolid
solid Cell_Aux_Patux_:grass:ground::inner:1:2
  facet normal 0 0 1
    outer loop
      vertex -45 30 0
      vertex -30 15 0
      vertex -30 30 0
    endloop
  endfacet
endsolid
solid Cell_Aux_Patux_:grass:ground::inner:1:2
  facet normal 0 0 1
    outer loop
      vertex -45 30 0
      vertex -45 15 0
      vertex -30 15 0
    endloop
  endfacet
endsolid
solid Cell_Aux_Patux_:grass:ground::inner:1:3
  facet normal 0 0 1
    outer loop
      vertex -45 15 0
      vertex -30 0 0
      vertex -30 15 0
    endloop
  endfacet
endsolid
solid Cell_Aux_Patux_:grass:ground::inner:1:3
  facet normal 0 0 1
    outer loop
      vertex -45 15 0
      vertex -45 0 0
      vertex -30 0 0
    endloop
  endfacet
endsolid
solid Cell_Aux_Patux_:grass:ground::inner:1:4
  facet normal 0 0 1
    outer loop
      vertex -45 0 0
      vertex -30 -15 0
      vertex -30 0 0
    endloop
  endfacet
endsolid
solid Cell_Aux_Patux_:grass:ground::inner:1:4
  facet normal 0 0 1
    outer loop
      vertex -45 0 0
      vertex -45 -15 0
      vertex -30 -15 0
    endloop
  endfacet
endsolid
solid Cell_Aux_Patux_:grass:ground::inner:1:5
  facet normal 0 0 1
    outer loop
      vertex -45 -15 0
      vertex -30 -30 0
      vertex -30 -15 0
    endloop
  endfacet
endsolid
solid Cell_Aux_Patux_:grass:ground::inner:1:5
  facet normal 0 0 1
    outer loop
      vertex -45 -15 0
      vertex -45 -30 0
      vertex -30 -30 0
    endloop
  endfacet
endsolid
solid Cell_Aux_Patux_:grass:ground::inner:1:6
  facet normal 0 0 1
    outer loop
      vertex -45 -30 0
      vertex -30 -45 0
      vertex -30 -30 0
    endloop
  endfacet
endsolid
solid Cell_Aux_Patux_:grass:ground::inner:1:6
  facet normal 0 0 1
    outer loop
      vertex -45 -30 0
      vertex -45 -45 0
      vertex -30 -45 0
    endloop
  endfacet
endsolid
solid Cell_Aux_Patux_:grass:ground::inner:1:7
  facet normal 0 0 1
    outer loop
      vertex -45 -45 0
      vertex -30 -60 0
      vertex -30 -45 0
    endloop
  endfacet
endsolid
solid Cell_Aux_Patux_:grass:ground::inner:1:7
  facet normal 0 0 1
    outer loop
      vertex -45 -45 0
      vertex -45 -60 0
      vertex -30 -60 0
    endloop
  endfacet
endsolid
solid Cell_Aux_Patux_:grass:ground::inner:2:0
  facet normal 0 0 1
    outer loop
      vertex -30 60 0
      vertex -15 45 0
      vertex -15 60 0
    endloop
  endfacet
endsolid
solid Cell_Aux_Patux_:grass:ground::inner:2:0
  facet normal 0 0 1
    outer loop
      vertex -30 60 0
      vertex -30 45 0
      vertex -15 45 0
    endloop
  endfacet
endsolid
solid Cell_Aux_Patux_:grass:ground::inner:2:1
  facet normal 0 0 1
    outer loop
      vertex -30 45 0
      vertex -15 30 0
      vertex -15 45 0
    endloop
  endfacet
endsolid
solid Cell_Aux_Patux_:grass:ground::inner:2:1
  facet normal 0 0 1
    outer loop
      vertex -30 45 0
      vertex -30 30 0
      vertex -15 30 0
    endloop
  endfacet
endsolid
solid Cell_Aux_Patux_:grass:ground::inner:2:2
  facet normal 0 0 1
    outer loop
      vertex -30 30 0
      vertex -15 15 0
      vertex -15 30 0
    endloop
  endfacet
endsolid
solid Cell_Aux_Patux_:grass:ground::inner:2:2
  facet normal 0 0 1
    outer loop
      vertex -30 30 0
      vertex -30 15 0
      vertex -15 15 0
    endloop
  endfacet
endsolid
solid Cell_Aux_Patux_:grass:ground::inner:2:3
  facet normal 0 0 1
    outer loop
      vertex -30 15 0
      vertex -15 0 0
      vertex -15 15 0
    endloop
  endfacet
endsolid
solid Cell_Aux_Patux_:grass:ground::inner:2:3
  facet normal 0 0 1
    outer loop
      vertex -30 15 0
      vertex -30 0 0
      vertex -15 0 0
    endloop
  endfacet
endsolid
solid Cell_Aux_Patux_:grass:ground::inner:2:4
  facet normal 0 0 1
    outer loop
      vertex -30 0 0
      vertex -15 -15 0
      vertex -15 0 0
    endloop
  endfacet
endsolid
solid Cell_Aux_Patux_:grass:ground::inner:2:4
  facet normal 0 0 1
    outer loop
      vertex -30 0 0
      vertex -30 -15 0
      vertex -15 -15 0
    endloop
  endfacet
endsolid
solid Cell_Aux_Patux_:grass:ground::inner:2:5
  facet normal 0 0 1
    outer loop
      vertex -30 -15 0
      vertex -15 -30 0
      vertex -15 -15 0
    endloop
  endfacet
endsolid
solid Cell_Aux_Patux_:grass:ground::inner:2:5
  facet normal 0 0 1
    outer loop
      vertex -30 -15 0
      vertex -30 -30 0
      vertex -15 -30 0
    endloop
  endfacet
endsolid
solid Cell_Aux_Patux_:grass:ground::inner:2:6
  facet normal 0 0 1
    outer loop
      vertex -30 -30 0
      vertex -15 -45 0
      vertex -15 -30 0
    endloop
  endfacet
endsolid
solid Cell_Aux_Patux_:grass:ground::inner:2:6
  facet normal 0 0 1
    outer loop
      vertex -30 -30 0
      vertex -30 -45 0
      vertex -15 -45 0
    endloop
  endfacet
endsolid
solid Cell_Aux_Patux_:grass:ground::inner:2:7
  facet normal 0 0 1
    outer loop
      vertex -30 -45 0
      vertex -15 -60 0
      vertex -15 -45 0
    endloop
  endfacet
endsolid
solid Cell_Aux_Patux_:grass:ground::inner:2:7
  facet normal 0 0 1
    outer loop
      vertex -30 -45 0
      vertex -30 -60 0
      vertex -15 -60 0
    endloop
  endfacet
endsolid
solid Cell_Aux_Patux_:grass:ground::inner:3:0
  facet normal 0 0 1
    outer loop
      vertex -15 60 0
      vertex 0 45 0
      vertex 0 60 0
    endloop
  endfacet
endsolid
solid Cell_Aux_Patux_:grass:ground::inner:3:0
  facet normal 0 0 1
    outer loop
      vertex -15 60 0
      vertex -15 45 0
      vertex 0 45 0
    endloop
  endfacet
endsolid
solid Cell_Aux_Patux_:grass:ground::inner:3:1
  facet normal 0 0 1
    outer loop
      vertex -15 45 0
      vertex 0 30 0
      vertex 0 45 0
    endloop
  endfacet
endsolid
solid Cell_Aux_Patux_:grass:ground::inner:3:1
  facet normal 0 0 1
    outer loop
      vertex -15 45 0
      vertex -15 30 0
      vertex 0 30 0
    endloop
  endfacet
endsolid
solid Cell_Aux_Patux_:grass:ground::inner:3:2
  facet normal 0 0 1
    outer loop
      vertex -15 30 0
      vertex 0 15 0
      vertex 0 30 0
    endloop
  endfacet
endsolid
solid Cell_Aux_Patux_:grass:ground::inner:3:2
  facet normal 0 0 1
    outer loop
      vertex -15 30 0
      vertex -15 15 0
      vertex 0 15 0
    endloop
  endfacet
endsolid
solid Cell_Aux_Patux_:grass:ground::inner:3:3
  facet normal 0 0 1
    outer loop
      vertex -15 15 0
      vertex 0 0 0
      vertex 0 15 0
    endloop
  endfacet
endsolid
solid Cell_Aux_Patux_:grass:ground::inner:3:3
  facet normal 0 0 1
    outer loop
      vertex -15 15 0
      vertex -15 0 0
      vertex 0 0 0
    endloop
  endfacet
endsolid
solid Cell_Aux_Patux_:grass:ground::inner:3:4
  facet normal 0 0 1
    outer loop
      vertex -15 0 0
      vertex 0 -15 0
      vertex 0 0 0
    endloop
  endfacet
endsolid
solid Cell_Aux_Patux_:grass:ground::inner:3:4
  facet normal 0 0 1
    outer loop
      vertex -15 0 0
      vertex -15 -15 0
      vertex 0 -15 0
    endloop
  endfacet
endsolid
solid Cell_Aux_Patux_:grass:ground::inner:3:5
  facet normal 0 0 1
    outer loop
      vertex -15 -15 0
      vertex 0 -30 0
      vertex 0 -15 0
    endloop
  endfacet
endsolid
solid Cell_Aux_Patux_:grass:ground::inner:3:5
  facet normal 0 0 1
    outer loop
      vertex -15 -15 0
      vertex -15 -30 0
      vertex 0 -30 0
    endloop
  endfacet
endsolid
solid Cell_Aux_Patux_:grass:ground::inner:3:6
  facet normal 0 0 1
    outer loop
      vertex -15 -30 0
      vertex 0 -45 0
      vertex 0 -30 0
    endloop
  endfacet
endsolid
solid Cell_Aux_Patux_:grass:ground::inner:3:6
  facet normal 0 0 1
    outer loop
      vertex -15 -30 0
      vertex -15 -45 0
      vertex 0 -45 0
    endloop
  endfacet
endsolid
solid Cell_Aux_Patux_:grass:ground::inner:3:7
  facet normal 0 0 1
    outer loop
      vertex -15 -45 0
      vertex 0 -60 0
      vertex 0 -45 0
    endloop
  endfacet
endsolid
solid Cell_Aux_Patux_:grass:ground::inner:3:7
  facet normal 0 0 1
    outer loop
      vertex -15 -45 0
      vertex -15 -60 0
      vertex 0 -60 0
    endloop
  endfacet
endsolid
solid Cell_Aux_Patux_:grass:ground::inner:4:0
  facet normal 0 0 1
    outer loop
      vertex 0 60 0
      vertex 15 45 0
      vertex 15 60 0
    endloop
  endfacet
endsolid
solid Cell_Aux_Patux_:grass:ground::inner:4:0
  facet normal 0 0 1
    outer loop
      vertex 0 60 0
      vertex 0 45 0
      vertex 15 45 0
    endloop
  endfacet
endsolid
solid Cell_Aux_Patux_:grass:ground::inner:4:1
  facet normal 0 0 1
    outer loop
      vertex 0 45 0
      vertex 15 30 0
      vertex 15 45 0
    endloop
  endfacet
endsolid
solid Cell_Aux_Patux_:grass:ground::inner:4:1
  facet normal 0 0 1
    outer loop
      vertex 0 45 0
      vertex 0 30 0
      vertex 15 30 0
    endloop
  endfacet
endsolid
solid Cell_Aux_Patux_:grass:ground::inner:4:2
  facet normal 0 0 1
    outer loop
      vertex 0 30 0
      vertex 15 15 0
      vertex 15 30 0
    endloop
  endfacet
endsolid
solid Cell_Aux_Patux_:grass:ground::inner:4:2
  facet normal 0 0 1
    outer loop
      vertex 0 30 0
      vertex 0 15 0
      vertex 15 15 0
    endloop
  endfacet
endsolid
solid Cell_Aux_Patux_:grass:ground::inner:4:3
  facet normal 0 0 1
    outer loop
      vertex 0 15 0
      vertex 15 0 0
      vertex 15 15 0
    endloop
  endfacet
endsolid
solid Cell_Aux_Patux_:grass:ground::inner:4:3
  facet normal 0 0 1
    outer loop
      vertex 0 15 0
      vertex 0 0 0
      vertex 15 0 0
    endloop
  endfacet
endsolid
solid Cell_Aux_Patux_:grass:ground::inner:4:4
  facet normal 0 0 1
    outer loop
      vertex 0 0 0
      vertex 15 -15 0
      vertex 15 0 0
    endloop
  endfacet
endsolid
solid Cell_Aux_Patux_:grass:ground::inner:4:4
  facet normal 0 0 1
    outer loop
      vertex 0 0 0
      vertex 0 -15 0
      vertex 15 -15 0
    endloop
  endfacet
endsolid
solid Cell_Aux_Patux_:grass:ground::inner:4:5
  facet normal 0 0 1
    outer loop
      vertex 0 -15 0
      vertex 15 -30 0
      vertex 15 -15 0
    endloop
  endfacet
endsolid
solid Cell_Aux_Patux_:grass:ground::inner:4:5
  facet normal 0 0 1
    outer loop
      vertex 0 -15 0
      vertex 0 -30 0
      vertex 15 -30 0
    endloop
  endfacet
endsolid
solid Cell_Aux_Patux_:grass:ground::inner:4:6
  facet normal 0 0 1
    outer loop
      vertex 0 -30 0
      vertex 15 -45 0
      vertex 15 -30 0
    endloop
  endfacet
endsolid
solid Cell_Aux_Patux_:grass:ground::inner:4:6
  facet normal 0 0 1
    outer loop
      vertex 0 -30 0
      vertex 0 -45 0
      vertex 15 -45 0
    endloop
  endfacet
endsolid
solid Cell_Aux_Patux_:grass:ground::inner:4:7
  facet normal 0 0 1
    outer loop
      vertex 0 -45 0
      vertex 15 -60 0
      vertex 15 -45 0
    endloop
  endfacet
endsolid
solid Cell_Aux_Patux_:grass:ground::inner:4:7
  facet normal 0 0 1
    outer loop
      vertex 0 -45 0
      vertex 0 -60 0
      vertex 15 -60 0
    endloop
  endfacet
endsolid
solid Cell_Aux_Patux_:grass:ground::inner:5:0
  facet normal 0 0 1
    outer loop
      vertex 15 60 0
      vertex 30 45 0
      vertex 30 60 0
    endloop
  endfacet
endsolid
solid Cell_Aux_Patux_:grass:ground::inner:5:0
  facet normal 0 0 1
    outer loop
      vertex 15 60 0
      vertex 15 45 0
      vertex 30 45 0
    endloop
  endfacet
endsolid
solid Cell_Aux_Patux_:grass:ground::inner:5:1
  facet normal 0 0 1
    outer loop
      vertex 15 45 0
      vertex 30 30 0
      vertex 30 45 0
    endloop
  endfacet
endsolid
solid Cell_Aux_Patux_:grass:ground::inner:5:1
  facet normal 0 0 1
    outer loop
      vertex 15 45 0
      vertex 15 30 0
      vertex 30 30 0
    endloop
  endfacet
endsolid
solid Cell_Aux_Patux_:grass:ground::inner:5:2
  facet normal 0 0 1
    outer loop
      vertex 15 30 0
      vertex 30 15 0
      vertex 30 30 0
    endloop
  endfacet
endsolid
solid Cell_Aux_Patux_:grass:ground::inner:5:2
  facet normal 0 0 1
    outer loop
      vertex 15 30 0
      vertex 15 15 0
      vertex 30 15 0
    endloop
  endfacet
endsolid
solid Cell_Aux_Patux_:grass:ground::inner:5:3
  facet normal 0 0 1
    outer loop
      vertex 15 15 0
      vertex 30 0 0
      vertex 30 15 0
    endloop
  endfacet
endsolid
solid Cell_Aux_Patux_:grass:ground::inner:5:3
  facet normal 0 0 1
    outer loop
      vertex 15 15 0
      vertex 15 0 0
      vertex 30 0 0
    endloop
  endfacet
endsolid
solid Cell_Aux_Patux_:grass:ground::inner:5:4
  facet normal 0 0 1
    outer loop
      vertex 15 0 0
      vertex 30 -15 0
      vertex 30 0 0
    endloop
  endfacet
endsolid
solid Cell_Aux_Patux_:grass:ground::inner:5:4
  facet normal 0 0 1
    outer loop
      vertex 15 0 0
      vertex 15 -15 0
      vertex 30 -15 0
    endloop
  endfacet
endsolid
solid Cell_Aux_Patux_:grass:ground::inner:5:5
  facet normal 0 0 1
    outer loop
      vertex 15 -15 0
      vertex 30 -30 0
      vertex 30 -15 0
    endloop
  endfacet
endsolid
solid Cell_Aux_Patux_:grass:ground::inner:5:5
  facet normal 0 0 1
    outer loop
      vertex 15 -15 0
      vertex 15 -30 0
      vertex 30 -30 0
    endloop
  endfacet
endsolid
solid Cell_Aux_Patux_:grass:ground::inner:5:6
  facet normal 0 0 1
    outer loop
      vertex 15 -30 0
      vertex 30 -45 0
      vertex 30 -30 0
    endloop
  endfacet
endsolid
solid Cell_Aux_Patux_:grass:ground::inner:5:6
  facet normal 0 0 1
    outer loop
      vertex 15 -30 0
      vertex 15 -45 0
      vertex 30 -45 0
    endloop
  endfacet
endsolid
solid Cell_Aux_Patux_:grass:ground::inner:5:7
  facet normal 0 0 1
    outer loop
      vertex 15 -45 0
      vertex 30 -60 0
      vertex 30 -45 0
    endloop
  endfacet
endsolid
solid Cell_Aux_Patux_:grass:ground::inner:5:7
  facet normal 0 0 1
    outer loop
      vertex 15 -45 0
      vertex 15 -60 0
      vertex 30 -60 0
    endloop
  endfacet
endsolid
solid Cell_Aux_Patux_:grass:ground::inner:6:0
  facet normal 0 0 1
    outer loop
      vertex 30 60 0
      vertex 45 45 0
      vertex 45 60 0
    endloop
  endfacet
endsolid
solid Cell_Aux_Patux_:grass:ground::inner:6:0
  facet normal 0 0 1
    outer loop
      vertex 30 60 0
      vertex 30 45 0
      vertex 45 45 0
    endloop
  endfacet
endsolid
solid Cell_Aux_Patux_:grass:ground::inner:6:1
  facet normal 0 0 1
    outer loop
      vertex 30 45 0
      vertex 45 30 0
      vertex 45 45 0
    endloop
  endfacet
endsolid
solid Cell_Aux_Patux_:grass:ground::inner:6:1
  facet normal 0 0 1
    outer loop
      vertex 30 45 0
      vertex 30 30 0
      vertex 45 30 0
    endloop
  endfacet
endsolid
solid Cell_Aux_Patux_:grass:ground::inner:6:2
  facet normal 0 0 1
    outer loop
      vertex 30 30 0
      vertex 45 15 0
      vertex 45 30 0
    endloop
  endfacet
endsolid
solid Cell_Aux_Patux_:grass:ground::inner:6:2
  facet normal 0 0 1
    outer loop
      vertex 30 30 0
      vertex 30 15 0
      vertex 45 15 0
    endloop
  endfacet
endsolid
solid Cell_Aux_Patux_:grass:ground::inner:6:3
  facet normal 0 0 1
    outer loop
      vertex 30 15 0
      vertex 45 0 0
      vertex 45 15 0
    endloop
  endfacet
endsolid
solid Cell_Aux_Patux_:grass:ground::inner:6:3
  facet normal 0 0 1
    outer loop
      vertex 30 15 0
      vertex 30 0 0
      vertex 45 0 0
    endloop
  endfacet
endsolid
solid Cell_Aux_Patux_:grass:ground::inner:6:4
  facet normal 0 0 1
    outer loop
      vertex 30 0 0
      vertex 45 -15 0
      vertex 45 0 0
    endloop
  endfacet
endsolid
solid Cell_Aux_Patux_:grass:ground::inner:6:4
  facet normal 0 0 1
    outer loop
      vertex 30 0 0
      vertex 30 -15 0
      vertex 45 -15 0
    endloop
  endfacet
endsolid
solid Cell_Aux_Patux_:grass:ground::inner:6:5
  facet normal 0 0 1
    outer loop
      vertex 30 -15 0
      vertex 45 -30 0
      vertex 45 -15 0
    endloop
  endfacet
endsolid
solid Cell_Aux_Patux_:grass:ground::inner:6:5
  facet normal 0 0 1
    outer loop
      vertex 30 -15 0
      vertex 30 -30 0
      vertex 45 -30 0
    endloop
  endfacet
endsolid
solid Cell_Aux_Patux_:grass:ground::inner:6:6
  facet normal 0 0 1
    outer loop
      vertex 30 -30 0
      vertex 45 -45 0
      vertex 45 -30 0
    endloop
  endfacet
endsolid
solid Cell_Aux_Patux_:grass:ground::inner:6:6
  facet normal 0 0 1
    outer loop
      vertex 30 -30 0
      vertex 30 -45 0
      vertex 45 -45 0
    endloop
  endfacet
endsolid
solid Cell_Aux_Patux_:grass:ground::inner:6:7
  facet normal 0 0 1
    outer loop
      vertex 30 -45 0
      vertex 45 -60 0
      vertex 45 -45 0
    endloop
  endfacet
endsolid
solid Cell_Aux_Patux_:grass:ground::inner:6:7
  facet normal 0 0 1
    outer loop
      vertex 30 -45 0
      vertex 30 -60 0
      vertex 45 -60 0
    endloop
  endfacet
endsolid
solid Cell_Aux_Patux_:grass:ground::inner:7:0
  facet normal 0 0 1
    outer loop
      vertex 45 60 0
      vertex 60 45 0
      vertex 60 60 0
    endloop
  endfacet
endsolid
solid Cell_Aux_Patux_:grass:ground::inner:7:0
  facet normal 0 0 1
    outer loop
      vertex 45 60 0
      vertex 45 45 0
      vertex 60 45 0
    endloop
  endfacet
endsolid
solid Cell_Aux_Patux_:grass:ground::inner:7:1
  facet normal 0 0 1
    outer loop
      vertex 45 45 0
      vertex 60 30 0
      vertex 60 45 0
    endloop
  endfacet
endsolid
solid Cell_Aux_Patux_:grass:ground::inner:7:1
  facet normal 0 0 1
    outer loop
      vertex 45 45 0
      vertex 45 30 0
      vertex 60 30 0
    endloop
  endfacet
endsolid
solid Cell_Aux_Patux_:grass:ground::inner:7:2
  facet normal 0 0 1
    outer loop
      vertex 45 30 0
      vertex 60 15 0
      vertex 60 30 0
    endloop
  endfacet
endsolid
solid Cell_Aux_Patux_:grass:ground::inner:7:2
  facet normal 0 0 1
    outer loop
      vertex 45 30 0
      vertex 45 15 0
      vertex 60 15 0
    endloop
  endfacet
endsolid
solid Cell_Aux_Patux_:grass:ground::inner:7:3
  facet normal 0 0 1
    outer loop
      vertex 45 15 0
      vertex 60 0 0
      vertex 60 15 0
    endloop
  endfacet
endsolid
solid Cell_Aux_Patux_:grass:ground::inner:7:3
  facet normal 0 0 1
    outer loop
      vertex 45 15 0
      vertex 45 0 0
      vertex 60 0 0
    endloop
  endfacet
endsolid
solid Cell_Aux_Patux_:grass:ground::inner:7:4
  facet normal 0 0 1
    outer loop
      vertex 45 0 0
      vertex 60 -15 0
      vertex 60 0 0
    endloop
  endfacet
endsolid
solid Cell_Aux_Patux_:grass:ground::inner:7:4
  facet normal 0 0 1
    outer loop
      vertex 45 0 0
      vertex 45 -15 0
      vertex 60 -15 0
    endloop
  endfacet
endsolid
solid Cell_Aux_Patux_:grass:ground::inner:7:5
  facet normal 0 0 1
    outer loop
      vertex 45 -15 0
      vertex 60 -30 0
      vertex 60 -15 0
    endloop
  endfacet
endsolid
solid Cell_Aux_Patux_:grass:ground::inner:7:5
  facet normal 0 0 1
    outer loop
      vertex 45 -15 0
      vertex 45 -30 0
      vertex 60 -30 0
    endloop
  endfacet
endsolid
solid Cell_Aux_Patux_:grass:ground::inner:7:6
  facet normal 0 0 1
    outer loop
      vertex 45 -30 0
      vertex 60 -45 0
      vertex 60 -30 0
    endloop
  endfacet
endsolid
solid Cell_Aux_Patux_:grass:ground::inner:7:6
  facet normal 0 0 1
    outer loop
      vertex 45 -30 0
      vertex 45 -45 0
      vertex 60 -45 0
    endloop
  endfacet
endsolid
solid Cell_Aux_Patux_:grass:ground::inner:7:7
  facet normal 0 0 1
    outer loop
      vertex 45 -45 0
      vertex 60 -60 0
      vertex 60 -45 0
    endloop
  endfacet
endsolid
solid Cell_Aux_Patux_:grass:ground::inner:7:7
  facet normal 0 0 1
    outer loop
      vertex 45 -45 0
      vertex 45 -60 0
      vertex 60 -60 0
    endloop
  endfacet
endsolid
solid Cell_Aux_Patux_:grass:ground::top:0:0
  facet normal 0 0 1
    outer loop
      vertex -60 210 0
      vertex -30 180 0
      vertex -30 210 0
    endloop
  endfacet
endsolid
solid Cell_Aux_Patux_:grass:ground::top:0:0
  facet normal 0 0 1
    outer loop
      vertex -60 210 0
      vertex -60 180 0
      vertex -30 180 0
    endloop
  endfacet
endsolid
solid Cell_Aux_Patux_:grass:ground::top:0:1
  facet normal 0 0 1
    outer loop
      vertex -60 180 0
      vertex -30 150 0
      vertex -30 180 0
    endloop
  endfacet
endsolid
solid Cell_Aux_Patux_:grass:ground::top:0:1
  facet normal 0 0 1
    outer loop
      vertex -60 180 0
      vertex -60 150 0
      vertex -30 150 0
    endloop
  endfacet
endsolid
solid Cell_Aux_Patux_:grass:ground::top:0:2
  facet normal 0 0 1
    outer loop
      vertex -60 150 0
      vertex -30 120 0
      vertex -30 150 0
    endloop
  endfacet
endsolid
solid Cell_Aux_Patux_:grass:ground::top:0:2
  facet normal 0 0 1
    outer loop
      vertex -60 150 0
      vertex -60 120 0
      vertex -30 120 0
    endloop
  endfacet
endsolid
solid Cell_Aux_Patux_:grass:ground::top:0:3
  facet normal 0 0 1
    outer loop
      vertex -60 120 0
      vertex -30 90 0
      vertex -30 120 0
    endloop
  endfacet
endsolid
solid Cell_Aux_Patux_:grass:ground::top:0:3
  facet normal 0 0 1
    outer loop
      vertex -60 120 0
      vertex -60 90 0
      vertex -30 90 0
    endloop
  endfacet
endsolid
solid Cell_Aux_Patux_:grass:ground::top:0:4
  facet normal 0 0 1
    outer loop
      vertex -60 90 0
      vertex -30 60 0
      vertex -30 90 0
    endloop
  endfacet
endsolid
solid Cell_Aux_Patux_:grass:ground::top:0:4
  facet normal 0 0 1
    outer loop
      vertex -60 90 0
      vertex -60 60 0
      vertex -30 60 0
    endloop
  endfacet
endsolid
solid Cell_Aux_Patux_:grass:ground::top:1:0
  facet normal 0 0 1
    outer loop
      vertex -30 210 0
      vertex 0 180 0
      vertex 0 210 0
    endloop
  endfacet
endsolid
solid Cell_Aux_Patux_:grass:ground::top:1:0
  facet normal 0 0 1
    outer loop
      vertex -30 210 0
      vertex -30 180 0
      vertex 0 180 0
    endloop
  endfacet
endsolid
solid Cell_Aux_Patux_:grass:ground::top:1:1
  facet normal 0 0 1
    outer loop
      vertex -30 180 0
      vertex 0 150 0
      vertex 0 180 0
    endloop
  endfacet
endsolid
solid Cell_Aux_Patux_:grass:ground::top:1:1
  facet normal 0 0 1
    outer loop
      vertex -30 180 0
      vertex -30 150 0
      vertex 0 150 0
    endloop
  endfacet
endsolid
solid Cell_Aux_Patux_:grass:ground::top:1:2
  facet normal 0 0 1
    outer loop
      vertex -30 150 0
      vertex 0 120 0
      vertex 0 150 0
    endloop
  endfacet
endsolid
solid Cell_Aux_Patux_:grass:ground::top:1:2
  facet normal 0 0 1
    outer loop
      vertex -30 150 0
      vertex -30 120 0
      vertex 0 120 0
    endloop
  endfacet
endsolid
solid Cell_Aux_Patux_:grass:ground::top:1:3
  facet normal 0 0 1
    outer loop
      vertex -30 120 0
      vertex 0 90 0
      vertex 0 120 0
    endloop
  endfacet
endsolid
solid Cell_Aux_Patux_:grass:ground::top:1:3
  facet normal 0 0 1
    outer loop
      vertex -30 120 0
      vertex -30 90 0
      vertex 0 90 0
    endloop
  endfacet
endsolid
solid Cell_Aux_Patux_:grass:ground::top:1:4
  facet normal 0 0 1
    outer loop
      vertex -30 90 0
      vertex 0 60 0
      vertex 0 90 0
    endloop
  endfacet
endsolid
solid Cell_Aux_Patux_:grass:ground::top:1:4
  facet normal 0 0 1
    outer loop
      vertex -30 90 0
      vertex -30 60 0
      vertex 0 60 0
    endloop
  endfacet
endsolid
solid Cell_Aux_Patux_:grass:ground::top:2:0
  facet normal 0 0 1
    outer loop
      vertex 0 210 0
      vertex 30 180 0
      vertex 30 210 0
    endloop
  endfacet
endsolid
solid Cell_Aux_Patux_:grass:ground::top:2:0
  facet normal 0 0 1
    outer loop
      vertex 0 210 0
      vertex 0 180 0
      vertex 30 180 0
    endloop
  endfacet
endsolid
solid Cell_Aux_Patux_:grass:ground::top:2:1
  facet normal 0 0 1
    outer loop
      vertex 0 180 0
      vertex 30 150 0
      vertex 30 180 0
    endloop
  endfacet
endsolid
solid Cell_Aux_Patux_:grass:ground::top:2:1
  facet normal 0 0 1
    outer loop
      vertex 0 180 0
      vertex 0 150 0
      vertex 30 150 0
    endloop
  endfacet
endsolid
solid Cell_Aux_Patux_:grass:ground::top:2:2
  facet normal 0 0 1
    outer loop
      vertex 0 150 0
      vertex 30 120 0
      vertex 30 150 0
    endloop
  endfacet
endsolid
solid Cell_Aux_Patux_:grass:ground::top:2:2
  facet normal 0 0 1
    outer loop
      vertex 0 150 0
      vertex 0 120 0
      vertex 30 120 0
    endloop
  endfacet
endsolid
solid Cell_Aux_Patux_:grass:ground::top:2:3
  facet normal 0 0 1
    outer loop
      vertex 0 120 0
      vertex 30 90 0
      vertex 30 120 0
    endloop
  endfacet
endsolid
solid Cell_Aux_Patux_:grass:ground::top:2:3
  facet normal 0 0 1
    outer loop
      vertex 0 120 0
      vertex 0 90 0
      vertex 30 90 0
    endloop
  endfacet
endsolid
solid Cell_Aux_Patux_:grass:ground::top:2:4
  facet normal 0 0 1
    outer loop
      vertex 0 90 0
      vertex 30 60 0
      vertex 30 90 0
    endloop
  endfacet
endsolid
solid Cell_Aux_Patux_:grass:ground::top:2:4
  facet normal 0 0 1
    outer loop
      vertex 0 90 0
      vertex 0 60 0
      vertex 30 60 0
    endloop
  endfacet
endsolid
solid Cell_Aux_Patux_:grass:ground::top:3:0
  facet normal 0 0 1
    outer loop
      vertex 30 210 0
      vertex 60 180 0
      vertex 60 210 0
    endloop
  endfacet
endsolid
solid Cell_Aux_Patux_:grass:ground::top:3:0
  facet normal 0 0 1
    outer loop
      vertex 30 210 0
      vertex 30 180 0
      vertex 60 180 0
    endloop
  endfacet
endsolid
solid Cell_Aux_Patux_:grass:ground::top:3:1
  facet normal 0 0 1
    outer loop
      vertex 30 180 0
      vertex 60 150 0
      vertex 60 180 0
    endloop
  endfacet
endsolid
solid Cell_Aux_Patux_:grass:ground::top:3:1
  facet normal 0 0 1
    outer loop
      vertex 30 180 0
      vertex 30 150 0
      vertex 60 150 0
    endloop
  endfacet
endsolid
solid Cell_Aux_Patux_:grass:ground::top:3:2
  facet normal 0 0 1
    outer loop
      vertex 30 150 0
      vertex 60 120 0
      vertex 60 150 0
    endloop
  endfacet
endsolid
solid Cell_Aux_Patux_:grass:ground::top:3:2
  facet normal 0 0 1
    outer loop
      vertex 30 150 0
      vertex 30 120 0
      vertex 60 120 0
    endloop
  endfacet
endsolid
solid Cell_Aux_Patux_:grass:ground::top:3:3
  facet normal 0 0 1
    outer loop
      vertex 30 120 0
      vertex 60 90 0
      vertex 60 120 0
    endloop
  endfacet
endsolid
solid Cell_Aux_Patux_:grass:ground::top:3:3
  facet normal 0 0 1
    outer loop
      vertex 30 120 0
      vertex 30 90 0
      vertex 60 90 0
    endloop
  endfacet
endsolid
solid Cell_Aux_Patux_:grass:ground::top:3:4
  facet normal 0 0 1
    outer loop
      vertex 30 90 0
      vertex 60 60 0
      vertex 60 90 0
    endloop
  endfacet
endsolid
solid Cell_Aux_Patux_:grass:ground::top:3:4
  facet normal 0 0 1
    outer loop
      vertex 30 90 0
      vertex 30 60 0
      vertex 60 60 0
    endloop
  endfacet
endsolid
solid Cell_Aux_Patux_:grass:ground::left:0:0
  facet normal 0 0 1
    outer loop
      vertex -210 210 0
      vertex -180 180 0
      vertex -180 210 0
    endloop
  endfacet
endsolid
solid Cell_Aux_Patux_:grass:ground::left:0:0
  facet normal 0 0 1
    outer loop
      vertex -210 210 0
      vertex -210 180 0
      vertex -180 180 0
    endloop
  endfacet
endsolid
solid Cell_Aux_Patux_:grass:ground::left:0:1
  facet normal 0 0 1
    outer loop
      vertex -210 180 0
      vertex -180 150 0
      vertex -180 180 0
    endloop
  endfacet
endsolid
solid Cell_Aux_Patux_:grass:ground::left:0:1
  facet normal 0 0 1
    outer loop
      vertex -210 180 0
      vertex -210 150 0
      vertex -180 150 0
    endloop
  endfacet
endsolid
solid Cell_Aux_Patux_:grass:ground::left:0:2
  facet normal 0 0 1
    outer loop
      vertex -210 150 0
      vertex -180 120 0
      vertex -180 150 0
    endloop
  endfacet
endsolid
solid Cell_Aux_Patux_:grass:ground::left:0:2
  facet normal 0 0 1
    outer loop
      vertex -210 150 0
      vertex -210 120 0
      vertex -180 120 0
    endloop
  endfacet
endsolid
solid Cell_Aux_Patux_:grass:ground::left:0:3
  facet normal 0 0 1
    outer loop
      vertex -210 120 0
      vertex -180 90 0
      vertex -180 120 0
    endloop
  endfacet
endsolid
solid Cell_Aux_Patux_:grass:ground::left:0:3
  facet normal 0 0 1
    outer loop
      vertex -210 120 0
      vertex -210 90 0
      vertex -180 90 0
    endloop
  endfacet
endsolid
solid Cell_Aux_Patux_:grass:ground::left:0:4
  facet normal 0 0 1
    outer loop
      vertex -210 90 0
      vertex -180 60 0
      vertex -180 90 0
    endloop
  endfacet
endsolid
solid Cell_Aux_Patux_:grass:ground::left:0:4
  facet normal 0 0 1
    outer loop
      vertex -210 90 0
      vertex -210 60 0
      vertex -180 60 0
    endloop
  endfacet
endsolid
solid Cell_Aux_Patux_:grass:ground::left:0:5
  facet normal 0 0 1
    outer loop
      vertex -210 60 0
      vertex -180 30 0
      vertex -180 60 0
    endloop
  endfacet
endsolid
solid Cell_Aux_Patux_:grass:ground::left:0:5
  facet normal 0 0 1
    outer loop
      vertex -210 60 0
      vertex -210 30 0
      vertex -180 30 0
    endloop
  endfacet
endsolid
solid Cell_Aux_Patux_:grass:ground::left:0:6
  facet normal 0 0 1
    outer loop
      vertex -210 30 0
      vertex -180 0 0
      vertex -180 30 0
    endloop
  endfacet
endsolid
solid Cell_Aux_Patux_:grass:ground::left:0:6
  facet normal 0 0 1
    outer loop
      vertex -210 30 0
      vertex -210 0 0
      vertex -180 0 0
    endloop
  endfacet
endsolid
solid Cell_Aux_Patux_:grass:ground::left:0:7
  facet normal 0 0 1
    outer loop
      vertex -210 0 0
      vertex -180 -30 0
      vertex -180 0 0
    endloop
  endfacet
endsolid
solid Cell_Aux_Patux_:grass:ground::left:0:7
  facet normal 0 0 1
    outer loop
      vertex -210 0 0
      vertex -210 -30 0
      vertex -180 -30 0
    endloop
  endfacet
endsolid
solid Cell_Aux_Patux_:grass:ground::left:0:8
  facet normal 0 0 1
    outer loop
      vertex -210 -30 0
      vertex -180 -60 0
      vertex -180 -30 0
    endloop
  endfacet
endsolid
solid Cell_Aux_Patux_:grass:ground::left:0:8
  facet normal 0 0 1
    outer loop
      vertex -210 -30 0
      vertex -210 -60 0
      vertex -180 -60 0
    endloop
  endfacet
endsolid
solid Cell_Aux_Patux_:grass:ground::left:1:0
  facet normal 0 0 1
    outer loop
      vertex -180 210 0
      vertex -150 180 0
      vertex -150 210 0
    endloop
  endfacet
endsolid
solid Cell_Aux_Patux_:grass:ground::left:1:0
  facet normal 0 0 1
    outer loop
      vertex -180 210 0
      vertex -180 180 0
      vertex -150 180 0
    endloop
  endfacet
endsolid
solid Cell_Aux_Patux_:grass:ground::left:1:1
  facet normal 0 0 1
    outer loop
      vertex -180 180 0
      vertex -150 150 0
      vertex -150 180 0
    endloop
  endfacet
endsolid
solid Cell_Aux_Patux_:grass:ground::left:1:1
  facet normal 0 0 1
    outer loop
      vertex -180 180 0
      vertex -180 150 0
      vertex -150 150 0
    endloop
  endfacet
endsolid
solid Cell_Aux_Patux_:grass:ground::left:1:2
  facet normal 0 0 1
    outer loop
      vertex -180 150 0
      vertex -150 120 0
      vertex -150 150 0
    endloop
  endfacet
endsolid
solid Cell_Aux_Patux_:grass:ground::left:1:2
  facet normal 0 0 1
    outer loop
      vertex -180 150 0
      vertex -180 120 0
      vertex -150 120 0
    endloop
  endfacet
endsolid
solid Cell_Aux_Patux_:grass:ground::left:1:3
  facet normal 0 0 1
    outer loop
      vertex -180 120 0
      vertex -150 90 0
      vertex -150 120 0
    endloop
  endfacet
endsolid
solid Cell_Aux_Patux_:grass:ground::left:1:3
  facet normal 0 0 1
    outer loop
      vertex -180 120 0
      vertex -180 90 0
      vertex -150 90 0
    endloop
  endfacet
endsolid
solid Cell_Aux_Patux_:grass:ground::left:1:4
  facet normal 0 0 1
    outer loop
      vertex -180 90 0
      vertex -150 60 0
      vertex -150 90 0
    endloop
  endfacet
endsolid
solid Cell_Aux_Patux_:grass:ground::left:1:4
  facet normal 0 0 1
    outer loop
      vertex -180 90 0
      vertex -180 60 0
      vertex -150 60 0
    endloop
  endfacet
endsolid
solid Cell_Aux_Patux_:grass:ground::left:1:5
  facet normal 0 0 1
    outer loop
      vertex -180 60 0
      vertex -150 30 0
      vertex -150 60 0
    endloop
  endfacet
endsolid
solid Cell_Aux_Patux_:grass:ground::left:1:5
  facet normal 0 0 1
    outer loop
      vertex -180 60 0
      vertex -180 30 0
      vertex -150 30 0
    endloop
  endfacet
endsolid
solid Cell_Aux_Patux_:grass:ground::left:1:6
  facet normal 0 0 1
    outer loop
      vertex -180 30 0
      vertex -150 0 0
      vertex -150 30 0
    endloop
  endfacet
endsolid
solid Cell_Aux_Patux_:grass:ground::left:1:6
  facet normal 0 0 1
    outer loop
      vertex -180 30 0
      vertex -180 0 0
      vertex -150 0 0
    endloop
  endfacet
endsolid
solid Cell_Aux_Patux_:grass:ground::left:1:7
  facet normal 0 0 1
    outer loop
      vertex -180 0 0
      vertex -150 -30 0
      vertex -150 0 0
    endloop
  endfacet
endsolid
solid Cell_Aux_Patux_:grass:ground::left:1:7
  facet normal 0 0 1
    outer loop
      vertex -180 0 0
      vertex -180 -30 0
      vertex -150 -30 0
    endloop
  endfacet
endsolid
solid Cell_Aux_Patux_:grass:ground::left:1:8
  facet normal 0 0 1
    outer loop
      vertex -180 -30 0
      vertex -150 -60 0
      vertex -150 -30 0
    endloop
  endfacet
endsolid
solid Cell_Aux_Patux_:grass:ground::left:1:8
  facet normal 0 0 1
    outer loop
      vertex -180 -30 0
      vertex -180 -60 0
      vertex -150 -60 0
    endloop
  endfacet
endsolid
solid Cell_Aux_Patux_:grass:ground::left:2:0
  facet normal 0 0 1
    outer loop
      vertex -150 210 0
      vertex -120 180 0
      vertex -120 210 0
    endloop
  endfacet
endsolid
solid Cell_Aux_Patux_:grass:ground::left:2:0
  facet normal 0 0 1
    outer loop
      vertex -150 210 0
      vertex -150 180 0
      vertex -120 180 0
    endloop
  endfacet
endsolid
solid Cell_Aux_Patux_:grass:ground::left:2:1
  facet normal 0 0 1
    outer loop
      vertex -150 180 0
      vertex -120 150 0
      vertex -120 180 0
    endloop
  endfacet
endsolid
solid Cell_Aux_Patux_:grass:ground::left:2:1
  facet normal 0 0 1
    outer loop
      vertex -150 180 0
      vertex -150 150 0
      vertex -120 150 0
    endloop
  endfacet
endsolid
solid Cell_Aux_Patux_:grass:ground::left:2:2
  facet normal 0 0 1
    outer loop
      vertex -150 150 0
      vertex -120 120 0
      vertex -120 150 0
    endloop
  endfacet
endsolid
solid Cell_Aux_Patux_:grass:ground::left:2:2
  facet normal 0 0 1
    outer loop
      vertex -150 150 0
      vertex -150 120 0
      vertex -120 120 0
    endloop
  endfacet
endsolid
solid Cell_Aux_Patux_:grass:ground::left:2:3
  facet normal 0 0 1
    outer loop
      vertex -150 120 0
      vertex -120 90 0
      vertex -120 120 0
    endloop
  endfacet
endsolid
solid Cell_Aux_Patux_:grass:ground::left:2:3
  facet normal 0 0 1
    outer loop
      vertex -150 120 0
      vertex -150 90 0
      vertex -120 90 0
    endloop
  endfacet
endsolid
solid Cell_Aux_Patux_:grass:ground::left:2:4
  facet normal 0 0 1
    outer loop
      vertex -150 90 0
      vertex -120 60 0
      vertex -120 90 0
    endloop
  endfacet
endsolid
solid Cell_Aux_Patux_:grass:ground::left:2:4
  facet normal 0 0 1
    outer loop
      vertex -150 90 0
      vertex -150 60 0
      vertex -120 60 0
    endloop
  endfacet
endsolid
solid Cell_Aux_Patux_:grass:ground::left:2:5
  facet normal 0 0 1
    outer loop
      vertex -150 60 0
      vertex -120 30 0
      vertex -120 60 0
    endloop
  endfacet
endsolid
solid Cell_Aux_Patux_:grass:ground::left:2:5
  facet normal 0 0 1
    outer loop
      vertex -150 60 0
      vertex -150 30 0
      vertex -120 30 0
    endloop
  endfacet
endsolid
solid Cell_Aux_Patux_:grass:ground::left:2:6
  facet normal 0 0 1
    outer loop
      vertex -150 30 0
      vertex -120 0 0
      vertex -120 30 0
    endloop
  endfacet
endsolid
solid Cell_Aux_Patux_:grass:ground::left:2:6
  facet normal 0 0 1
    outer loop
      vertex -150 30 0
      vertex -150 0 0
      vertex -120 0 0
    endloop
  endfacet
endsolid
solid Cell_Aux_Patux_:grass:ground::left:2:7
  facet normal 0 0 1
    outer loop
      vertex -150 0 0
      vertex -120 -30 0
      vertex -120 0 0
    endloop
  endfacet
endsolid
solid Cell_Aux_Patux_:grass:ground::left:2:7
  facet normal 0 0 1
    outer loop
      vertex -150 0 0
      vertex -150 -30 0
      vertex -120 -30 0
    endloop
  endfacet
endsolid
solid Cell_Aux_Patux_:grass:ground::left:2:8
  facet normal 0 0 1
    outer loop
      vertex -150 -30 0
      vertex -120 -60 0
      vertex -120 -30 0
    endloop
  endfacet
endsolid
solid Cell_Aux_Patux_:grass:ground::left:2:8
  facet normal 0 0 1
    outer loop
      vertex -150 -30 0
      vertex -150 -60 0
      vertex -120 -60 0
    endloop
  endfacet
endsolid
solid Cell_Aux_Patux_:grass:ground::left:3:0
  facet normal 0 0 1
    outer loop
      vertex -120 210 0
      vertex -90 180 0
      vertex -90 210 0
    endloop
  endfacet
endsolid
solid Cell_Aux_Patux_:grass:ground::left:3:0
  facet normal 0 0 1
    outer loop
      vertex -120 210 0
      vertex -120 180 0
      vertex -90 180 0
    endloop
  endfacet
endsolid
solid Cell_Aux_Patux_:grass:ground::left:3:1
  facet normal 0 0 1
    outer loop
      vertex -120 180 0
      vertex -90 150 0
      vertex -90 180 0
    endloop
  endfacet
endsolid
solid Cell_Aux_Patux_:grass:ground::left:3:1
  facet normal 0 0 1
    outer loop
      vertex -120 180 0
      vertex -120 150 0
      vertex -90 150 0
    endloop
  endfacet
endsolid
solid Cell_Aux_Patux_:grass:ground::left:3:2
  facet normal 0 0 1
    outer loop
      vertex -120 150 0
      vertex -90 120 0
      vertex -90 150 0
    endloop
  endfacet
endsolid
solid Cell_Aux_Patux_:grass:ground::left:3:2
  facet normal 0 0 1
    outer loop
      vertex -120 150 0
      vertex -120 120 0
      vertex -90 120 0
    endloop
  endfacet
endsolid
solid Cell_Aux_Patux_:grass:ground::left:3:3
  facet normal 0 0 1
    outer loop
      vertex -120 120 0
      vertex -90 90 0
      vertex -90 120 0
    endloop
  endfacet
endsolid
solid Cell_Aux_Patux_:grass:ground::left:3:3
  facet normal 0 0 1
    outer loop
      vertex -120 120 0
      vertex -120 90 0
      vertex -90 90 0
    endloop
  endfacet
endsolid
solid Cell_Aux_Patux_:grass:ground::left:3:4
  facet normal 0 0 1
    outer loop
      vertex -120 90 0
      vertex -90 60 0
      vertex -90 90 0
    endloop
  endfacet
endsolid
solid Cell_Aux_Patux_:grass:ground::left:3:4
  facet normal 0 0 1
    outer loop
      vertex -120 90 0
      vertex -120 60 0
      vertex -90 60 0
    endloop
  endfacet
endsolid
solid Cell_Aux_Patux_:grass:ground::left:3:5
  facet normal 0 0 1
    outer loop
      vertex -120 60 0
      vertex -90 30 0
      vertex -90 60 0
    endloop
  endfacet
endsolid
solid Cell_Aux_Patux_:grass:ground::left:3:5
  facet normal 0 0 1
    outer loop
      vertex -120 60 0
      vertex -120 30 0
      vertex -90 30 0
    endloop
  endfacet
endsolid
solid Cell_Aux_Patux_:grass:ground::left:3:6
  facet normal 0 0 1
    outer loop
      vertex -120 30 0
      vertex -90 0 0
      vertex -90 30 0
    endloop
  endfacet
endsolid
solid Cell_Aux_Patux_:grass:ground::left:3:6
  facet normal 0 0 1
    outer loop
      vertex -120 30 0
      vertex -120 0 0
      vertex -90 0 0
    endloop
  endfacet
endsolid
solid Cell_Aux_Patux_:grass:ground::left:3:7
  facet normal 0 0 1
    outer loop
      vertex -120 0 0
      vertex -90 -30 0
      vertex -90 0 0
    endloop
  endfacet
endsolid
solid Cell_Aux_Patux_:grass:ground::left:3:7
  facet normal 0 0 1
    outer loop
      vertex -120 0 0
      vertex -120 -30 0
      vertex -90 -30 0
    endloop
  endfacet
endsolid
solid Cell_Aux_Patux_:grass:ground::left:3:8
  facet normal 0 0 1
    outer loop
      vertex -120 -30 0
      vertex -90 -60 0
      vertex -90 -30 0
    endloop
  endfacet
endsolid
solid Cell_Aux_Patux_:grass:ground::left:3:8
  facet normal 0 0 1
    outer loop
      vertex -120 -30 0
      vertex -120 -60 0
      vertex -90 -60 0
    endloop
  endfacet
endsolid
solid Cell_Aux_Patux_:grass:ground::left:4:0
  facet normal 0 0 1
    outer loop
      vertex -90 210 0
      vertex -60 180 0
      vertex -60 210 0
    endloop
  endfacet
endsolid
solid Cell_Aux_Patux_:grass:ground::left:4:0
  facet normal 0 0 1
    outer loop
      vertex -90 210 0
      vertex -90 180 0
      vertex -60 180 0
    endloop
  endfacet
endsolid
solid Cell_Aux_Patux_:grass:ground::left:4:1
  facet normal 0 0 1
    outer loop
      vertex -90 180 0
      vertex -60 150 0
      vertex -60 180 0
    endloop
  endfacet
endsolid
solid Cell_Aux_Patux_:grass:ground::left:4:1
  facet normal 0 0 1
    outer loop
      vertex -90 180 0
      vertex -90 150 0
      vertex -60 150 0
    endloop
  endfacet
endsolid
solid Cell_Aux_Patux_:grass:ground::left:4:2
  facet normal 0 0 1
    outer loop
      vertex -90 150 0
      vertex -60 120 0
      vertex -60 150 0
    endloop
  endfacet
endsolid
solid Cell_Aux_Patux_:grass:ground::left:4:2
  facet normal 0 0 1
    outer loop
      vertex -90 150 0
      vertex -90 120 0
      vertex -60 120 0
    endloop
  endfacet
endsolid
solid Cell_Aux_Patux_:grass:ground::left:4:3
  facet normal 0 0 1
    outer loop
      vertex -90 120 0
      vertex -60 90 0
      vertex -60 120 0
    endloop
  endfacet
endsolid
solid Cell_Aux_Patux_:grass:ground::left:4:3
  facet normal 0 0 1
    outer loop
      vertex -90 120 0
      vertex -90 90 0
      vertex -60 90 0
    endloop
  endfacet
endsolid
solid Cell_Aux_Patux_:grass:ground::left:4:4
  facet normal 0 0 1
    outer loop
      vertex -90 90 0
      vertex -60 60 0
      vertex -60 90 0
    endloop
  endfacet
endsolid
solid Cell_Aux_Patux_:grass:ground::left:4:4
  facet normal 0 0 1
    outer loop
      vertex -90 90 0
      vertex -90 60 0
      vertex -60 60 0
    endloop
  endfacet
endsolid
solid Cell_Aux_Patux_:grass:ground::left:4:5
  facet normal 0 0 1
    outer loop
      vertex -90 60 0
      vertex -60 30 0
      vertex -60 60 0
    endloop
  endfacet
endsolid
solid Cell_Aux_Patux_:grass:ground::left:4:5
  facet normal 0 0 1
    outer loop
      vertex -90 60 0
      vertex -90 30 0
      vertex -60 30 0
    endloop
  endfacet
endsolid
solid Cell_Aux_Patux_:grass:ground::left:4:6
  facet normal 0 0 1
    outer loop
      vertex -90 30 0
      vertex -60 0 0
      vertex -60 30 0
    endloop
  endfacet
endsolid
solid Cell_Aux_Patux_:grass:ground::left:4:6
  facet normal 0 0 1
    outer loop
      vertex -90 30 0
      vertex -90 0 0
      vertex -60 0 0
    endloop
  endfacet
endsolid
solid Cell_Aux_Patux_:grass:ground::left:4:7
  facet normal 0 0 1
    outer loop
      vertex -90 0 0
      vertex -60 -30 0
      vertex -60 0 0
    endloop
  endfacet
endsolid
solid Cell_Aux_Patux_:grass:ground::left:4:7
  facet normal 0 0 1
    outer loop
      vertex -90 0 0
      vertex -90 -30 0
      vertex -60 -30 0
    endloop
  endfacet
endsolid
solid Cell_Aux_Patux_:grass:ground::left:4:8
  facet normal 0 0 1
    outer loop
      vertex -90 -30 0
      vertex -60 -60 0
      vertex -60 -30 0
    endloop
  endfacet
endsolid
solid Cell_Aux_Patux_:grass:ground::left:4:8
  facet normal 0 0 1
    outer loop
      vertex -90 -30 0
      vertex -90 -60 0
      vertex -60 -60 0
    endloop
  endfacet
endsolid
solid Cell_Aux_Patux_:grass:ground::right:0:0
  facet normal 0 0 1
    outer loop
      vertex 60 210 0
      vertex 90 180 0
      vertex 90 210 0
    endloop
  endfacet
endsolid
solid Cell_Aux_Patux_:grass:ground::right:0:0
  facet normal 0 0 1
    outer loop
      vertex 60 210 0
      vertex 60 180 0
      vertex 90 180 0
    endloop
  endfacet
endsolid
solid Cell_Aux_Patux_:grass:ground::right:0:1
  facet normal 0 0 1
    outer loop
      vertex 60 180 0
      vertex 90 150 0
      vertex 90 180 0
    endloop
  endfacet
endsolid
solid Cell_Aux_Patux_:grass:ground::right:0:1
  facet normal 0 0 1
    outer loop
      vertex 60 180 0
      vertex 60 150 0
      vertex 90 150 0
    endloop
  endfacet
endsolid
solid Cell_Aux_Patux_:grass:ground::right:0:2
  facet normal 0 0 1
    outer loop
      vertex 60 150 0
      vertex 90 120 0
      vertex 90 150 0
    endloop
  endfacet
endsolid
solid Cell_Aux_Patux_:grass:ground::right:0:2
  facet normal 0 0 1
    outer loop
      vertex 60 150 0
      vertex 60 120 0
      vertex 90 120 0
    endloop
  endfacet
endsolid
solid Cell_Aux_Patux_:grass:ground::right:0:3
  facet normal 0 0 1
    outer loop
      vertex 60 120 0
      vertex 90 90 0
      vertex 90 120 0
    endloop
  endfacet
endsolid
solid Cell_Aux_Patux_:grass:ground::right:0:3
  facet normal 0 0 1
    outer loop
      vertex 60 120 0
      vertex 60 90 0
      vertex 90 90 0
    endloop
  endfacet
endsolid
solid Cell_Aux_Patux_:grass:ground::right:0:4
  facet normal 0 0 1
    outer loop
      vertex 60 90 0
      vertex 90 60 0
      vertex 90 90 0
    endloop
  endfacet
endsolid
solid Cell_Aux_Patux_:grass:ground::right:0:4
  facet normal 0 0 1
    outer loop
      vertex 60 90 0
      vertex 60 60 0
      vertex 90 60 0
    endloop
  endfacet
endsolid
solid Cell_Aux_Patux_:grass:ground::right:0:5
  facet normal 0 0 1
    outer loop
      vertex 60 60 0
      vertex 90 30 0
      vertex 90 60 0
    endloop
  endfacet
endsolid
solid Cell_Aux_Patux_:grass:ground::right:0:5
  facet normal 0 0 1
    outer loop
      vertex 60 60 0
      vertex 60 30 0
      vertex 90 30 0
    endloop
  endfacet
endsolid
solid Cell_Aux_Patux_:grass:ground::right:0:6
  facet normal 0 0 1
    outer loop
      vertex 60 30 0
      vertex 90 0 0
      vertex 90 30 0
    endloop
  endfacet
endsolid
solid Cell_Aux_Patux_:grass:ground::right:0:6
  facet normal 0 0 1
    outer loop
      vertex 60 30 0
      vertex 60 0 0
      vertex 90 0 0
    endloop
  endfacet
endsolid
solid Cell_Aux_Patux_:grass:ground::right:0:7
  facet normal 0 0 1
    outer loop
      vertex 60 0 0
      vertex 90 -30 0
      vertex 90 0 0
    endloop
  endfacet
endsolid
solid Cell_Aux_Patux_:grass:ground::right:0:7
  facet normal 0 0 1
    outer loop
      vertex 60 0 0
      vertex 60 -30 0
      vertex 90 -30 0
    endloop
  endfacet
endsolid
solid Cell_Aux_Patux_:grass:ground::right:0:8
  facet normal 0 0 1
    outer loop
      vertex 60 -30 0
      vertex 90 -60 0
      vertex 90 -30 0
    endloop
  endfacet
endsolid
solid Cell_Aux_Patux_:grass:ground::right:0:8
  facet normal 0 0 1
    outer loop
      vertex 60 -30 0
      vertex 60 -60 0
      vertex 90 -60 0
    endloop
  endfacet
endsolid
solid Cell_Aux_Patux_:grass:ground::right:1:0
  facet normal 0 0 1
    outer loop
      vertex 90 210 0
      vertex 120 180 0
      vertex 120 210 0
    endloop
  endfacet
endsolid
solid Cell_Aux_Patux_:grass:ground::right:1:0
  facet normal 0 0 1
    outer loop
      vertex 90 210 0
      vertex 90 180 0
      vertex 120 180 0
    endloop
  endfacet
endsolid
solid Cell_Aux_Patux_:grass:ground::right:1:1
  facet normal 0 0 1
    outer loop
      vertex 90 180 0
      vertex 120 150 0
      vertex 120 180 0
    endloop
  endfacet
endsolid
solid Cell_Aux_Patux_:grass:ground::right:1:1
  facet normal 0 0 1
    outer loop
      vertex 90 180 0
      vertex 90 150 0
      vertex 120 150 0
    endloop
  endfacet
endsolid
solid Cell_Aux_Patux_:grass:ground::right:1:2
  facet normal 0 0 1
    outer loop
      vertex 90 150 0
      vertex 120 120 0
      vertex 120 150 0
    endloop
  endfacet
endsolid
solid Cell_Aux_Patux_:grass:ground::right:1:2
  facet normal 0 0 1
    outer loop
      vertex 90 150 0
      vertex 90 120 0
      vertex 120 120 0
    endloop
  endfacet
endsolid
solid Cell_Aux_Patux_:grass:ground::right:1:3
  facet normal 0 0 1
    outer loop
      vertex 90 120 0
      vertex 120 90 0
      vertex 120 120 0
    endloop
  endfacet
endsolid
solid Cell_Aux_Patux_:grass:ground::right:1:3
  facet normal 0 0 1
    outer loop
      vertex 90 120 0
      vertex 90 90 0
      vertex 120 90 0
    endloop
  endfacet
endsolid
solid Cell_Aux_Patux_:grass:ground::right:1:4
  facet normal 0 0 1
    outer loop
      vertex 90 90 0
      vertex 120 60 0
      vertex 120 90 0
    endloop
  endfacet
endsolid
solid Cell_Aux_Patux_:grass:ground::right:1:4
  facet normal 0 0 1
    outer loop
      vertex 90 90 0
      vertex 90 60 0
      vertex 120 60 0
    endloop
  endfacet
endsolid
solid Cell_Aux_Patux_:grass:ground::right:1:5
  facet normal 0 0 1
    outer loop
      vertex 90 60 0
      vertex 120 30 0
      vertex 120 60 0
    endloop
  endfacet
endsolid
solid Cell_Aux_Patux_:grass:ground::right:1:5
  facet normal 0 0 1
    outer loop
      vertex 90 60 0
      vertex 90 30 0
      vertex 120 30 0
    endloop
  endfacet
endsolid
solid Cell_Aux_Patux_:grass:ground::right:1:6
  facet normal 0 0 1
    outer loop
      vertex 90 30 0
      vertex 120 0 0
      vertex 120 30 0
    endloop
  endfacet
endsolid
solid Cell_Aux_Patux_:grass:ground::right:1:6
  facet normal 0 0 1
    outer loop
      vertex 90 30 0
      vertex 90 0 0
      vertex 120 0 0
    endloop
  endfacet
endsolid
solid Cell_Aux_Patux_:grass:ground::right:1:7
  facet normal 0 0 1
    outer loop
      vertex 90 0 0
      vertex 120 -30 0
      vertex 120 0 0
    endloop
  endfacet
endsolid
solid Cell_Aux_Patux_:grass:ground::right:1:7
  facet normal 0 0 1
    outer loop
      vertex 90 0 0
      vertex 90 -30 0
      vertex 120 -30 0
    endloop
  endfacet
endsolid
solid Cell_Aux_Patux_:grass:ground::right:1:8
  facet normal 0 0 1
    outer loop
      vertex 90 -30 0
      vertex 120 -60 0
      vertex 120 -30 0
    endloop
  endfacet
endsolid
solid Cell_Aux_Patux_:grass:ground::right:1:8
  facet normal 0 0 1
    outer loop
      vertex 90 -30 0
      vertex 90 -60 0
      vertex 120 -60 0
    endloop
  endfacet
endsolid
solid Cell_Aux_Patux_:grass:ground::right:2:0
  facet normal 0 0 1
    outer loop
      vertex 120 210 0
      vertex 150 180 0
      vertex 150 210 0
    endloop
  endfacet
endsolid
solid Cell_Aux_Patux_:grass:ground::right:2:0
  facet normal 0 0 1
    outer loop
      vertex 120 210 0
      vertex 120 180 0
      vertex 150 180 0
    endloop
  endfacet
endsolid
solid Cell_Aux_Patux_:grass:ground::right:2:1
  facet normal 0 0 1
    outer loop
      vertex 120 180 0
      vertex 150 150 0
      vertex 150 180 0
    endloop
  endfacet
endsolid
solid Cell_Aux_Patux_:grass:ground::right:2:1
  facet normal 0 0 1
    outer loop
      vertex 120 180 0
      vertex 120 150 0
      vertex 150 150 0
    endloop
  endfacet
endsolid
solid Cell_Aux_Patux_:grass:ground::right:2:2
  facet normal 0 0 1
    outer loop
      vertex 120 150 0
      vertex 150 120 0
      vertex 150 150 0
    endloop
  endfacet
endsolid
solid Cell_Aux_Patux_:grass:ground::right:2:2
  facet normal 0 0 1
    outer loop
      vertex 120 150 0
      vertex 120 120 0
      vertex 150 120 0
    endloop
  endfacet
endsolid
solid Cell_Aux_Patux_:grass:ground::right:2:3
  facet normal 0 0 1
    outer loop
      vertex 120 120 0
      vertex 150 90 0
      vertex 150 120 0
    endloop
  endfacet
endsolid
solid Cell_Aux_Patux_:grass:ground::right:2:3
  facet normal 0 0 1
    outer loop
      vertex 120 120 0
      vertex 120 90 0
      vertex 150 90 0
    endloop
  endfacet
endsolid
solid Cell_Aux_Patux_:grass:ground::right:2:4
  facet normal 0 0 1
    outer loop
      vertex 120 90 0
      vertex 150 60 0
      vertex 150 90 0
    endloop
  endfacet
endsolid
solid Cell_Aux_Patux_:grass:ground::right:2:4
  facet normal 0 0 1
    outer loop
      vertex 120 90 0
      vertex 120 60 0
      vertex 150 60 0
    endloop
  endfacet
endsolid
solid Cell_Aux_Patux_:grass:ground::right:2:5
  facet normal 0 0 1
    outer loop
      vertex 120 60 0
      vertex 150 30 0
      vertex 150 60 0
    endloop
  endfacet
endsolid
solid Cell_Aux_Patux_:grass:ground::right:2:5
  facet normal 0 0 1
    outer loop
      vertex 120 60 0
      vertex 120 30 0
      vertex 150 30 0
    endloop
  endfacet
endsolid
solid Cell_Aux_Patux_:grass:ground::right:2:6
  facet normal 0 0 1
    outer loop
      vertex 120 30 0
      vertex 150 0 0
      vertex 150 30 0
    endloop
  endfacet
endsolid
solid Cell_Aux_Patux_:grass:ground::right:2:6
  facet normal 0 0 1
    outer loop
      vertex 120 30 0
      vertex 120 0 0
      vertex 150 0 0
    endloop
  endfacet
endsolid
solid Cell_Aux_Patux_:grass:ground::right:2:7
  facet normal 0 0 1
    outer loop
      vertex 120 0 0
      vertex 150 -30 0
      vertex 150 0 0
    endloop
  endfacet
endsolid
solid Cell_Aux_Patux_:grass:ground::right:2:7
  facet normal 0 0 1
    outer loop
      vertex 120 0 0
      vertex 120 -30 0
      vertex 150 -30 0
    endloop
  endfacet
endsolid
solid Cell_Aux_Patux_:grass:ground::right:2:8
  facet normal 0 0 1
    outer loop
      vertex 120 -30 0
      vertex 150 -60 0
      vertex 150 -30 0
    endloop
  endfacet
endsolid
solid Cell_Aux_Patux_:grass:ground::right:2:8
  facet normal 0 0 1
    outer loop
      vertex 120 -30 0
      vertex 120 -60 0
      vertex 150 -60 0
    endloop
  endfacet
endsolid
solid Cell_Aux_Patux_:grass:ground::right:3:0
  facet normal 0 0 1
    outer loop
      vertex 150 210 0
      vertex 180 180 0
      vertex 180 210 0
    endloop
  endfacet
endsolid
solid Cell_Aux_Patux_:grass:ground::right:3:0
  facet normal 0 0 1
    outer loop
      vertex 150 210 0
      vertex 150 180 0
      vertex 180 180 0
    endloop
  endfacet
endsolid
solid Cell_Aux_Patux_:grass:ground::right:3:1
  facet normal 0 0 1
    outer loop
      vertex 150 180 0
      vertex 180 150 0
      vertex 180 180 0
    endloop
  endfacet
endsolid
solid Cell_Aux_Patux_:grass:ground::right:3:1
  facet normal 0 0 1
    outer loop
      vertex 150 180 0
      vertex 150 150 0
      vertex 180 150 0
    endloop
  endfacet
endsolid
solid Cell_Aux_Patux_:grass:ground::right:3:2
  facet normal 0 0 1
    outer loop
      vertex 150 150 0
      vertex 180 120 0
      vertex 180 150 0
    endloop
  endfacet
endsolid
solid Cell_Aux_Patux_:grass:ground::right:3:2
  facet normal 0 0 1
    outer loop
      vertex 150 150 0
      vertex 150 120 0
      vertex 180 120 0
    endloop
  endfacet
endsolid
solid Cell_Aux_Patux_:grass:ground::right:3:3
  facet normal 0 0 1
    outer loop
      vertex 150 120 0
      vertex 180 90 0
      vertex 180 120 0
    endloop
  endfacet
endsolid
solid Cell_Aux_Patux_:grass:ground::right:3:3
  facet normal 0 0 1
    outer loop
      vertex 150 120 0
      vertex 150 90 0
      vertex 180 90 0
    endloop
  endfacet
endsolid
solid Cell_Aux_Patux_:grass:ground::right:3:4
  facet normal 0 0 1
    outer loop
      vertex 150 90 0
      vertex 180 60 0
      vertex 180 90 0
    endloop
  endfacet
endsolid
solid Cell_Aux_Patux_:grass:ground::right:3:4
  facet normal 0 0 1
    outer loop
      vertex 150 90 0
      vertex 150 60 0
      vertex 180 60 0
    endloop
  endfacet
endsolid
solid Cell_Aux_Patux_:grass:ground::right:3:5
  facet normal 0 0 1
    outer loop
      vertex 150 60 0
      vertex 180 30 0
      vertex 180 60 0
    endloop
  endfacet
endsolid
solid Cell_Aux_Patux_:grass:ground::right:3:5
  facet normal 0 0 1
    outer loop
      vertex 150 60 0
      vertex 150 30 0
      vertex 180 30 0
    endloop
  endfacet
endsolid
solid Cell_Aux_Patux_:grass:ground::right:3:6
  facet normal 0 0 1
    outer loop
      vertex 150 30 0
      vertex 180 0 0
      vertex 180 30 0
    endloop
  endfacet
endsolid
solid Cell_Aux_Patux_:grass:ground::right:3:6
  facet normal 0 0 1
    outer loop
      vertex 150 30 0
      vertex 150 0 0
      vertex 180 0 0
    endloop
  endfacet
endsolid
solid Cell_Aux_Patux_:grass:ground::right:3:7
  facet normal 0 0 1
    outer loop
      vertex 150 0 0
      vertex 180 -30 0
      vertex 180 0 0
    endloop
  endfacet
endsolid
solid Cell_Aux_Patux_:grass:ground::right:3:7
  facet normal 0 0 1
    outer loop
      vertex 150 0 0
      vertex 150 -30 0
      vertex 180 -30 0
    endloop
  endfacet
endsolid
solid Cell_Aux_Patux_:grass:ground::right:3:8
  facet normal 0 0 1
    outer loop
      vertex 150 -30 0
      vertex 180 -60 0
      vertex 180 -30 0
    endloop
  endfacet
endsolid
solid Cell_Aux_Patux_:grass:ground::right:3:8
  facet normal 0 0 1
    outer loop
      vertex 150 -30 0
      vertex 150 -60 0
      vertex 180 -60 0
    endloop
  endfacet
endsolid
solid Cell_Aux_Patux_:grass:ground::right:4:0
  facet normal 0 0 1
    outer loop
      vertex 180 210 0
      vertex 210 180 0
      vertex 210 210 0
    endloop
  endfacet
endsolid
solid Cell_Aux_Patux_:grass:ground::right:4:0
  facet normal 0 0 1
    outer loop
      vertex 180 210 0
      vertex 180 180 0
      vertex 210 180 0
    endloop
  endfacet
endsolid
solid Cell_Aux_Patux_:grass:ground::right:4:1
  facet normal 0 0 1
    outer loop
      vertex 180 180 0
      vertex 210 150 0
      vertex 210 180 0
    endloop
  endfacet
endsolid
solid Cell_Aux_Patux_:grass:ground::right:4:1
  facet normal 0 0 1
    outer loop
      vertex 180 180 0
      vertex 180 150 0
      vertex 210 150 0
    endloop
  endfacet
endsolid
solid Cell_Aux_Patux_:grass:ground::right:4:2
  facet normal 0 0 1
    outer loop
      vertex 180 150 0
      vertex 210 120 0
      vertex 210 150 0
    endloop
  endfacet
endsolid
solid Cell_Aux_Patux_:grass:ground::right:4:2
  facet normal 0 0 1
    outer loop
      vertex 180 150 0
      vertex 180 120 0
      vertex 210 120 0
    endloop
  endfacet
endsolid
solid Cell_Aux_Patux_:grass:ground::right:4:3
  facet normal 0 0 1
    outer loop
      vertex 180 120 0
      vertex 210 90 0
      vertex 210 120 0
    endloop
  endfacet
endsolid
solid Cell_Aux_Patux_:grass:ground::right:4:3
  facet normal 0 0 1
    outer loop
      vertex 180 120 0
      vertex 180 90 0
      vertex 210 90 0
    endloop
  endfacet
endsolid
solid Cell_Aux_Patux_:grass:ground::right:4:4
  facet normal 0 0 1
    outer loop
      vertex 180 90 0
      vertex 210 60 0
      vertex 210 90 0
    endloop
  endfacet
endsolid
solid Cell_Aux_Patux_:grass:ground::right:4:4
  facet normal 0 0 1
    outer loop
      vertex 180 90 0
      vertex 180 60 0
      vertex 210 60 0
    endloop
  endfacet
endsolid
solid Cell_Aux_Patux_:grass:ground::right:4:5
  facet normal 0 0 1
    outer loop
      vertex 180 60 0
      vertex 210 30 0
      vertex 210 60 0
    endloop
  endfacet
endsolid
solid Cell_Aux_Patux_:grass:ground::right:4:5
  facet normal 0 0 1
    outer loop
      vertex 180 60 0
      vertex 180 30 0
      vertex 210 30 0
    endloop
  endfacet
endsolid
solid Cell_Aux_Patux_:grass:ground::right:4:6
  facet normal 0 0 1
    outer loop
      vertex 180 30 0
      vertex 210 0 0
      vertex 210 30 0
    endloop
  endfacet
endsolid
solid Cell_Aux_Patux_:grass:ground::right:4:6
  facet normal 0 0 1
    outer loop
      vertex 180 30 0
      vertex 180 0 0
      vertex 210 0 0
    endloop
  endfacet
endsolid
solid Cell_Aux_Patux_:grass:ground::right:4:7
  facet normal 0 0 1
    outer loop
      vertex 180 0 0
      vertex 210 -30 0
      vertex 210 0 0
    endloop
  endfacet
endsolid
solid Cell_Aux_Patux_:grass:ground::right:4:7
  facet normal 0 0 1
    outer loop
      vertex 180 0 0
      vertex 180 -30 0
      vertex 210 -30 0
    endloop
  endfacet
endsolid
solid Cell_Aux_Patux_:grass:ground::right:4:8
  facet normal 0 0 1
    outer loop
      vertex 180 -30 0
      vertex 210 -60 0
      vertex 210 -30 0
    endloop
  endfacet
endsolid
solid Cell_Aux_Patux_:grass:ground::right:4:8
  facet normal 0 0 1
    outer loop
      vertex 180 -30 0
      vertex 180 -60 0
      vertex 210 -60 0
    endloop
  endfacet
endsolid
solid Cell_Aux_Patux_:grass:ground::bottom:0:0
  facet normal 0 0 1
    outer loop
      vertex -210 -60 0
      vertex -180 -90 0
      vertex -180 -60 0
    endloop
  endfacet
endsolid
solid Cell_Aux_Patux_:grass:ground::bottom:0:0
  facet normal 0 0 1
    outer loop
      vertex -210 -60 0
      vertex -210 -90 0
      vertex -180 -90 0
    endloop
  endfacet
endsolid
solid Cell_Aux_Patux_:grass:ground::bottom:0:1
  facet normal 0 0 1
    outer loop
      vertex -210 -90 0
      vertex -180 -120 0
      vertex -180 -90 0
    endloop
  endfacet
endsolid
solid Cell_Aux_Patux_:grass:ground::bottom:0:1
  facet normal 0 0 1
    outer loop
      vertex -210 -90 0
      vertex -210 -120 0
      vertex -180 -120 0
    endloop
  endfacet
endsolid
solid Cell_Aux_Patux_:grass:ground::bottom:0:2
  facet normal 0 0 1
    outer loop
      vertex -210 -120 0
      vertex -180 -150 0
      vertex -180 -120 0
    endloop
  endfacet
endsolid
solid Cell_Aux_Patux_:grass:ground::bottom:0:2
  facet normal 0 0 1
    outer loop
      vertex -210 -120 0
      vertex -210 -150 0
      vertex -180 -150 0
    endloop
  endfacet
endsolid
solid Cell_Aux_Patux_:grass:ground::bottom:0:3
  facet normal 0 0 1
    outer loop
      vertex -210 -150 0
      vertex -180 -180 0
      vertex -180 -150 0
    endloop
  endfacet
endsolid
solid Cell_Aux_Patux_:grass:ground::bottom:0:3
  facet normal 0 0 1
    outer loop
      vertex -210 -150 0
      vertex -210 -180 0
      vertex -180 -180 0
    endloop
  endfacet
endsolid
solid Cell_Aux_Patux_:grass:ground::bottom:0:4
  facet normal 0 0 1
    outer loop
      vertex -210 -180 0
      vertex -180 -210 0
      vertex -180 -180 0
    endloop
  endfacet
endsolid
solid Cell_Aux_Patux_:grass:ground::bottom:0:4
  facet normal 0 0 1
    outer loop
      vertex -210 -180 0
      vertex -210 -210 0
      vertex -180 -210 0
    endloop
  endfacet
endsolid
solid Cell_Aux_Patux_:grass:ground::bottom:1:0
  facet normal 0 0 1
    outer loop
      vertex -180 -60 0
      vertex -150 -90 0
      vertex -150 -60 0
    endloop
  endfacet
endsolid
solid Cell_Aux_Patux_:grass:ground::bottom:1:0
  facet normal 0 0 1
    outer loop
      vertex -180 -60 0
      vertex -180 -90 0
      vertex -150 -90 0
    endloop
  endfacet
endsolid
solid Cell_Aux_Patux_:grass:ground::bottom:1:1
  facet normal 0 0 1
    outer loop
      vertex -180 -90 0
      vertex -150 -120 0
      vertex -150 -90 0
    endloop
  endfacet
endsolid
solid Cell_Aux_Patux_:grass:ground::bottom:1:1
  facet normal 0 0 1
    outer loop
      vertex -180 -90 0
      vertex -180 -120 0
      vertex -150 -120 0
    endloop
  endfacet
endsolid
solid Cell_Aux_Patux_:grass:ground::bottom:1:2
  facet normal 0 0 1
    outer loop
      vertex -180 -120 0
      vertex -150 -150 0
      vertex -150 -120 0
    endloop
  endfacet
endsolid
solid Cell_Aux_Patux_:grass:ground::bottom:1:2
  facet normal 0 0 1
    outer loop
      vertex -180 -120 0
      vertex -180 -150 0
      vertex -150 -150 0
    endloop
  endfacet
endsolid
solid Cell_Aux_Patux_:grass:ground::bottom:1:3
  facet normal 0 0 1
    outer loop
      vertex -180 -150 0
      vertex -150 -180 0
      vertex -150 -150 0
    endloop
  endfacet
endsolid
solid Cell_Aux_Patux_:grass:ground::bottom:1:3
  facet normal 0 0 1
    outer loop
      vertex -180 -150 0
      vertex -180 -180 0
      vertex -150 -180 0
    endloop
  endfacet
endsolid
solid Cell_Aux_Patux_:grass:ground::bottom:1:4
  facet normal 0 0 1
    outer loop
      vertex -180 -180 0
      vertex -150 -210 0
      vertex -150 -180 0
    endloop
  endfacet
endsolid
solid Cell_Aux_Patux_:grass:ground::bottom:1:4
  facet normal 0 0 1
    outer loop
      vertex -180 -180 0
      vertex -180 -210 0
      vertex -150 -210 0
    endloop
  endfacet
endsolid
solid Cell_Aux_Patux_:grass:ground::bottom:2:0
  facet normal 0 0 1
    outer loop
      vertex -150 -60 0
      vertex -120 -90 0
      vertex -120 -60 0
    endloop
  endfacet
endsolid
solid Cell_Aux_Patux_:grass:ground::bottom:2:0
  facet normal 0 0 1
    outer loop
      vertex -150 -60 0
      vertex -150 -90 0
      vertex -120 -90 0
    endloop
  endfacet
endsolid
solid Cell_Aux_Patux_:grass:ground::bottom:2:1
  facet normal 0 0 1
    outer loop
      vertex -150 -90 0
      vertex -120 -120 0
      vertex -120 -90 0
    endloop
  endfacet
endsolid
solid Cell_Aux_Patux_:grass:ground::bottom:2:1
  facet normal 0 0 1
    outer loop
      vertex -150 -90 0
      vertex -150 -120 0
      vertex -120 -120 0
    endloop
  endfacet
endsolid
solid Cell_Aux_Patux_:grass:ground::bottom:2:2
  facet normal 0 0 1
    outer loop
      vertex -150 -120 0
      vertex -120 -150 0
      vertex -120 -120 0
    endloop
  endfacet
endsolid
solid Cell_Aux_Patux_:grass:ground::bottom:2:2
  facet normal 0 0 1
    outer loop
      vertex -150 -120 0
      vertex -150 -150 0
      vertex -120 -150 0
    endloop
  endfacet
endsolid
solid Cell_Aux_Patux_:grass:ground::bottom:2:3
  facet normal 0 0 1
    outer loop
      vertex -150 -150 0
      vertex -120 -180 0
      vertex -120 -150 0
    endloop
  endfacet
endsolid
solid Cell_Aux_Patux_:grass:ground::bottom:2:3
  facet normal 0 0 1
    outer loop
      vertex -150 -150 0
      vertex -150 -180 0
      vertex -120 -180 0
    endloop
  endfacet
endsolid
solid Cell_Aux_Patux_:grass:ground::bottom:2:4
  facet normal 0 0 1
    outer loop
      vertex -150 -180 0
      vertex -120 -210 0
      vertex -120 -180 0
    endloop
  endfacet
endsolid
solid Cell_Aux_Patux_:grass:ground::bottom:2:4
  facet normal 0 0 1
    outer loop
      vertex -150 -180 0
      vertex -150 -210 0
      vertex -120 -210 0
    endloop
  endfacet
endsolid
solid Cell_Aux_Patux_:grass:ground::bottom:3:0
  facet normal 0 0 1
    outer loop
      vertex -120 -60 0
      vertex -90 -90 0
      vertex -90 -60 0
    endloop
  endfacet
endsolid
solid Cell_Aux_Patux_:grass:ground::bottom:3:0
  facet normal 0 0 1
    outer loop
      vertex -120 -60 0
      vertex -120 -90 0
      vertex -90 -90 0
    endloop
  endfacet
endsolid
solid Cell_Aux_Patux_:grass:ground::bottom:3:1
  facet normal 0 0 1
    outer loop
      vertex -120 -90 0
      vertex -90 -120 0
      vertex -90 -90 0
    endloop
  endfacet
endsolid
solid Cell_Aux_Patux_:grass:ground::bottom:3:1
  facet normal 0 0 1
    outer loop
      vertex -120 -90 0
      vertex -120 -120 0
      vertex -90 -120 0
    endloop
  endfacet
endsolid
solid Cell_Aux_Patux_:grass:ground::bottom:3:2
  facet normal 0 0 1
    outer loop
      vertex -120 -120 0
      vertex -90 -150 0
      vertex -90 -120 0
    endloop
  endfacet
endsolid
solid Cell_Aux_Patux_:grass:ground::bottom:3:2
  facet normal 0 0 1
    outer loop
      vertex -120 -120 0
      vertex -120 -150 0
      vertex -90 -150 0
    endloop
  endfacet
endsolid
solid Cell_Aux_Patux_:grass:ground::bottom:3:3
  facet normal 0 0 1
    outer loop
      vertex -120 -150 0
      vertex -90 -180 0
      vertex -90 -150 0
    endloop
  endfacet
endsolid
solid Cell_Aux_Patux_:grass:ground::bottom:3:3
  facet normal 0 0 1
    outer loop
      vertex -120 -150 0
      vertex -120 -180 0
      vertex -90 -180 0
    endloop
  endfacet
endsolid
solid Cell_Aux_Patux_:grass:ground::bottom:3:4
  facet normal 0 0 1
    outer loop
      vertex -120 -180 0
      vertex -90 -210 0
      vertex -90 -180 0
    endloop
  endfacet
endsolid
solid Cell_Aux_Patux_:grass:ground::bottom:3:4
  facet normal 0 0 1
    outer loop
      vertex -120 -180 0
      vertex -120 -210 0
      vertex -90 -210 0
    endloop
  endfacet
endsolid
solid Cell_Aux_Patux_:grass:ground::bottom:4:0
  facet normal 0 0 1
    outer loop
      vertex -90 -60 0
      vertex -60 -90 0
      vertex -60 -60 0
    endloop
  endfacet
endsolid
solid Cell_Aux_Patux_:grass:ground::bottom:4:0
  facet normal 0 0 1
    outer loop
      vertex -90 -60 0
      vertex -90 -90 0
      vertex -60 -90 0
    endloop
  endfacet
endsolid
solid Cell_Aux_Patux_:grass:ground::bottom:4:1
  facet normal 0 0 1
    outer loop
      vertex -90 -90 0
      vertex -60 -120 0
      vertex -60 -90 0
    endloop
  endfacet
endsolid
solid Cell_Aux_Patux_:grass:ground::bottom:4:1
  facet normal 0 0 1
    outer loop
      vertex -90 -90 0
      vertex -90 -120 0
      vertex -60 -120 0
    endloop
  endfacet
endsolid
solid Cell_Aux_Patux_:grass:ground::bottom:4:2
  facet normal 0 0 1
    outer loop
      vertex -90 -120 0
      vertex -60 -150 0
      vertex -60 -120 0
    endloop
  endfacet
endsolid
solid Cell_Aux_Patux_:grass:ground::bottom:4:2
  facet normal 0 0 1
    outer loop
      vertex -90 -120 0
      vertex -90 -150 0
      vertex -60 -150 0
    endloop
  endfacet
endsolid
solid Cell_Aux_Patux_:grass:ground::bottom:4:3
  facet normal 0 0 1
    outer loop
      vertex -90 -150 0
      vertex -60 -180 0
      vertex -60 -150 0
    endloop
  endfacet
endsolid
solid Cell_Aux_Patux_:grass:ground::bottom:4:3
  facet normal 0 0 1
    outer loop
      vertex -90 -150 0
      vertex -90 -180 0
      vertex -60 -180 0
    endloop
  endfacet
endsolid
solid Cell_Aux_Patux_:grass:ground::bottom:4:4
  facet normal 0 0 1
    outer loop
      vertex -90 -180 0
      vertex -60 -210 0
      vertex -60 -180 0
    endloop
  endfacet
endsolid
solid Cell_Aux_Patux_:grass:ground::bottom:4:4
  facet normal 0 0 1
    outer loop
      vertex -90 -180 0
      vertex -90 -210 0
      vertex -60 -210 0
    endloop
  endfacet
endsolid
solid Cell_Aux_Patux_:grass:ground::bottom:5:0
  facet normal 0 0 1
    outer loop
      vertex -60 -60 0
      vertex -30 -90 0
      vertex -30 -60 0
    endloop
  endfacet
endsolid
solid Cell_Aux_Patux_:grass:ground::bottom:5:0
  facet normal 0 0 1
    outer loop
      vertex -60 -60 0
      vertex -60 -90 0
      vertex -30 -90 0
    endloop
  endfacet
endsolid
solid Cell_Aux_Patux_:grass:ground::bottom:5:1
  facet normal 0 0 1
    outer loop
      vertex -60 -90 0
      vertex -30 -120 0
      vertex -30 -90 0
    endloop
  endfacet
endsolid
solid Cell_Aux_Patux_:grass:ground::bottom:5:1
  facet normal 0 0 1
    outer loop
      vertex -60 -90 0
      vertex -60 -120 0
      vertex -30 -120 0
    endloop
  endfacet
endsolid
solid Cell_Aux_Patux_:grass:ground::bottom:5:2
  facet normal 0 0 1
    outer loop
      vertex -60 -120 0
      vertex -30 -150 0
      vertex -30 -120 0
    endloop
  endfacet
endsolid
solid Cell_Aux_Patux_:grass:ground::bottom:5:2
  facet normal 0 0 1
    outer loop
      vertex -60 -120 0
      vertex -60 -150 0
      vertex -30 -150 0
    endloop
  endfacet
endsolid
solid Cell_Aux_Patux_:grass:ground::bottom:5:3
  facet normal 0 0 1
    outer loop
      vertex -60 -150 0
      vertex -30 -180 0
      vertex -30 -150 0
    endloop
  endfacet
endsolid
solid Cell_Aux_Patux_:grass:ground::bottom:5:3
  facet normal 0 0 1
    outer loop
      vertex -60 -150 0
      vertex -60 -180 0
      vertex -30 -180 0
    endloop
  endfacet
endsolid
solid Cell_Aux_Patux_:grass:ground::bottom:5:4
  facet normal 0 0 1
    outer loop
      vertex -60 -180 0
      vertex -30 -210 0
      vertex -30 -180 0
    endloop
  endfacet
endsolid
solid Cell_Aux_Patux_:grass:ground::bottom:5:4
  facet normal 0 0 1
    outer loop
      vertex -60 -180 0
      vertex -60 -210 0
      vertex -30 -210 0
    endloop
  endfacet
endsolid
solid Cell_Aux_Patux_:grass:ground::bottom:6:0
  facet normal 0 0 1
    outer loop
      vertex -30 -60 0
      vertex 0 -90 0
      vertex 0 -60 0
    endloop
  endfacet
endsolid
solid Cell_Aux_Patux_:grass:ground::bottom:6:0
  facet normal 0 0 1
    outer loop
      vertex -30 -60 0
      vertex -30 -90 0
      vertex 0 -90 0
    endloop
  endfacet
endsolid
solid Cell_Aux_Patux_:grass:ground::bottom:6:1
  facet normal 0 0 1
    outer loop
      vertex -30 -90 0
      vertex 0 -120 0
      vertex 0 -90 0
    endloop
  endfacet
endsolid
solid Cell_Aux_Patux_:grass:ground::bottom:6:1
  facet normal 0 0 1
    outer loop
      vertex -30 -90 0
      vertex -30 -120 0
      vertex 0 -120 0
    endloop
  endfacet
endsolid
solid Cell_Aux_Patux_:grass:ground::bottom:6:2
  facet normal 0 0 1
    outer loop
      vertex -30 -120 0
      vertex 0 -150 0
      vertex 0 -120 0
    endloop
  endfacet
endsolid
solid Cell_Aux_Patux_:grass:ground::bottom:6:2
  facet normal 0 0 1
    outer loop
      vertex -30 -120 0
      vertex -30 -150 0
      vertex 0 -150 0
    endloop
  endfacet
endsolid
solid Cell_Aux_Patux_:grass:ground::bottom:6:3
  facet normal 0 0 1
    outer loop
      vertex -30 -150 0
      vertex 0 -180 0
      vertex 0 -150 0
    endloop
  endfacet
endsolid
solid Cell_Aux_Patux_:grass:ground::bottom:6:3
  facet normal 0 0 1
    outer loop
      vertex -30 -150 0
      vertex -30 -180 0
      vertex 0 -180 0
    endloop
  endfacet
endsolid
solid Cell_Aux_Patux_:grass:ground::bottom:6:4
  facet normal 0 0 1
    outer loop
      vertex -30 -180 0
      vertex 0 -210 0
      vertex 0 -180 0
    endloop
  endfacet
endsolid
solid Cell_Aux_Patux_:grass:ground::bottom:6:4
  facet normal 0 0 1
    outer loop
      vertex -30 -180 0
      vertex -30 -210 0
      vertex 0 -210 0
    endloop
  endfacet
endsolid
solid Cell_Aux_Patux_:grass:ground::bottom:7:0
  facet normal 0 0 1
    outer loop
      vertex 0 -60 0
      vertex 30 -90 0
      vertex 30 -60 0
    endloop
  endfacet
endsolid
solid Cell_Aux_Patux_:grass:ground::bottom:7:0
  facet normal 0 0 1
    outer loop
      vertex 0 -60 0
      vertex 0 -90 0
      vertex 30 -90 0
    endloop
  endfacet
endsolid
solid Cell_Aux_Patux_:grass:ground::bottom:7:1
  facet normal 0 0 1
    outer loop
      vertex 0 -90 0
      vertex 30 -120 0
      vertex 30 -90 0
    endloop
  endfacet
endsolid
solid Cell_Aux_Patux_:grass:ground::bottom:7:1
  facet normal 0 0 1
    outer loop
      vertex 0 -90 0
      vertex 0 -120 0
      vertex 30 -120 0
    endloop
  endfacet
endsolid
solid Cell_Aux_Patux_:grass:ground::bottom:7:2
  facet normal 0 0 1
    outer loop
      vertex 0 -120 0
      vertex 30 -150 0
      vertex 30 -120 0
    endloop
  endfacet
endsolid
solid Cell_Aux_Patux_:grass:ground::bottom:7:2
  facet normal 0 0 1
    outer loop
      vertex 0 -120 0
      vertex 0 -150 0
      vertex 30 -150 0
    endloop
  endfacet
endsolid
solid Cell_Aux_Patux_:grass:ground::bottom:7:3
  facet normal 0 0 1
    outer loop
      vertex 0 -150 0
      vertex 30 -180 0
      vertex 30 -150 0
    endloop
  endfacet
endsolid
solid Cell_Aux_Patux_:grass:ground::bottom:7:3
  facet normal 0 0 1
    outer loop
      vertex 0 -150 0
      vertex 0 -180 0
      vertex 30 -180 0
    endloop
  endfacet
endsolid
solid Cell_Aux_Patux_:grass:ground::bottom:7:4
  facet normal 0 0 1
    outer loop
      vertex 0 -180 0
      vertex 30 -210 0
      vertex 30 -180 0
    endloop
  endfacet
endsolid
solid Cell_Aux_Patux_:grass:ground::bottom:7:4
  facet normal 0 0 1
    outer loop
      vertex 0 -180 0
      vertex 0 -210 0
      vertex 30 -210 0
    endloop
  endfacet
endsolid
solid Cell_Aux_Patux_:grass:ground::bottom:8:0
  facet normal 0 0 1
    outer loop
      vertex 30 -60 0
      vertex 60 -90 0
      vertex 60 -60 0
    endloop
  endfacet
endsolid
solid Cell_Aux_Patux_:grass:ground::bottom:8:0
  facet normal 0 0 1
    outer loop
      vertex 30 -60 0
      vertex 30 -90 0
      vertex 60 -90 0
    endloop
  endfacet
endsolid
solid Cell_Aux_Patux_:grass:ground::bottom:8:1
  facet normal 0 0 1
    outer loop
      vertex 30 -90 0
      vertex 60 -120 0
      vertex 60 -90 0
    endloop
  endfacet
endsolid
solid Cell_Aux_Patux_:grass:ground::bottom:8:1
  facet normal 0 0 1
    outer loop
      vertex 30 -90 0
      vertex 30 -120 0
      vertex 60 -120 0
    endloop
  endfacet
endsolid
solid Cell_Aux_Patux_:grass:ground::bottom:8:2
  facet normal 0 0 1
    outer loop
      vertex 30 -120 0
      vertex 60 -150 0
      vertex 60 -120 0
    endloop
  endfacet
endsolid
solid Cell_Aux_Patux_:grass:ground::bottom:8:2
  facet normal 0 0 1
    outer loop
      vertex 30 -120 0
      vertex 30 -150 0
      vertex 60 -150 0
    endloop
  endfacet
endsolid
solid Cell_Aux_Patux_:grass:ground::bottom:8:3
  facet normal 0 0 1
    outer loop
      vertex 30 -150 0
      vertex 60 -180 0
      vertex 60 -150 0
    endloop
  endfacet
endsolid
solid Cell_Aux_Patux_:grass:ground::bottom:8:3
  facet normal 0 0 1
    outer loop
      vertex 30 -150 0
      vertex 30 -180 0
      vertex 60 -180 0
    endloop
  endfacet
endsolid
solid Cell_Aux_Patux_:grass:ground::bottom:8:4
  facet normal 0 0 1
    outer loop
      vertex 30 -180 0
      vertex 60 -210 0
      vertex 60 -180 0
    endloop
  endfacet
endsolid
solid Cell_Aux_Patux_:grass:ground::bottom:8:4
  facet normal 0 0 1
    outer loop
      vertex 30 -180 0
      vertex 30 -210 0
      vertex 60 -210 0
    endloop
  endfacet
endsolid
solid Cell_Aux_Patux_:grass:ground::bottom:9:0
  facet normal 0 0 1
    outer loop
      vertex 60 -60 0
      vertex 90 -90 0
      vertex 90 -60 0
    endloop
  endfacet
endsolid
solid Cell_Aux_Patux_:grass:ground::bottom:9:0
  facet normal 0 0 1
    outer loop
      vertex 60 -60 0
      vertex 60 -90 0
      vertex 90 -90 0
    endloop
  endfacet
endsolid
solid Cell_Aux_Patux_:grass:ground::bottom:9:1
  facet normal 0 0 1
    outer loop
      vertex 60 -90 0
      vertex 90 -120 0
      vertex 90 -90 0
    endloop
  endfacet
endsolid
solid Cell_Aux_Patux_:grass:ground::bottom:9:1
  facet normal 0 0 1
    outer loop
      vertex 60 -90 0
      vertex 60 -120 0
      vertex 90 -120 0
    endloop
  endfacet
endsolid
solid Cell_Aux_Patux_:grass:ground::bottom:9:2
  facet normal 0 0 1
    outer loop
      vertex 60 -120 0
      vertex 90 -150 0
      vertex 90 -120 0
    endloop
  endfacet
endsolid
solid Cell_Aux_Patux_:grass:ground::bottom:9:2
  facet normal 0 0 1
    outer loop
      vertex 60 -120 0
      vertex 60 -150 0
      vertex 90 -150 0
    endloop
  endfacet
endsolid
solid Cell_Aux_Patux_:grass:ground::bottom:9:3
  facet normal 0 0 1
    outer loop
      vertex 60 -150 0
      vertex 90 -180 0
      vertex 90 -150 0
    endloop
  endfacet
endsolid
solid Cell_Aux_Patux_:grass:ground::bottom:9:3
  facet normal 0 0 1
    outer loop
      vertex 60 -150 0
      vertex 60 -180 0
      vertex 90 -180 0
    endloop
  endfacet
endsolid
solid Cell_Aux_Patux_:grass:ground::bottom:9:4
  facet normal 0 0 1
    outer loop
      vertex 60 -180 0
      vertex 90 -210 0
      vertex 90 -180 0
    endloop
  endfacet
endsolid
solid Cell_Aux_Patux_:grass:ground::bottom:9:4
  facet normal 0 0 1
    outer loop
      vertex 60 -180 0
      vertex 60 -210 0
      vertex 90 -210 0
    endloop
  endfacet
endsolid
solid Cell_Aux_Patux_:grass:ground::bottom:10:0
  facet normal 0 0 1
    outer loop
      vertex 90 -60 0
      vertex 120 -90 0
      vertex 120 -60 0
    endloop
  endfacet
endsolid
solid Cell_Aux_Patux_:grass:ground::bottom:10:0
  facet normal 0 0 1
    outer loop
      vertex 90 -60 0
      vertex 90 -90 0
      vertex 120 -90 0
    endloop
  endfacet
endsolid
solid Cell_Aux_Patux_:grass:ground::bottom:10:1
  facet normal 0 0 1
    outer loop
      vertex 90 -90 0
      vertex 120 -120 0
      vertex 120 -90 0
    endloop
  endfacet
endsolid
solid Cell_Aux_Patux_:grass:ground::bottom:10:1
  facet normal 0 0 1
    outer loop
      vertex 90 -90 0
      vertex 90 -120 0
      vertex 120 -120 0
    endloop
  endfacet
endsolid
solid Cell_Aux_Patux_:grass:ground::bottom:10:2
  facet normal 0 0 1
    outer loop
      vertex 90 -120 0
      vertex 120 -150 0
      vertex 120 -120 0
    endloop
  endfacet
endsolid
solid Cell_Aux_Patux_:grass:ground::bottom:10:2
  facet normal 0 0 1
    outer loop
      vertex 90 -120 0
      vertex 90 -150 0
      vertex 120 -150 0
    endloop
  endfacet
endsolid
solid Cell_Aux_Patux_:grass:ground::bottom:10:3
  facet normal 0 0 1
    outer loop
      vertex 90 -150 0
      vertex 120 -180 0
      vertex 120 -150 0
    endloop
  endfacet
endsolid
solid Cell_Aux_Patux_:grass:ground::bottom:10:3
  facet normal 0 0 1
    outer loop
      vertex 90 -150 0
      vertex 90 -180 0
      vertex 120 -180 0
    endloop
  endfacet
endsolid
solid Cell_Aux_Patux_:grass:ground::bottom:10:4
  facet normal 0 0 1
    outer loop
      vertex 90 -180 0
      vertex 120 -210 0
      vertex 120 -180 0
    endloop
  endfacet
endsolid
solid Cell_Aux_Patux_:grass:ground::bottom:10:4
  facet normal 0 0 1
    outer loop
      vertex 90 -180 0
      vertex 90 -210 0
      vertex 120 -210 0
    endloop
  endfacet
endsolid
solid Cell_Aux_Patux_:grass:ground::bottom:11:0
  facet normal 0 0 1
    outer loop
      vertex 120 -60 0
      vertex 150 -90 0
      vertex 150 -60 0
    endloop
  endfacet
endsolid
solid Cell_Aux_Patux_:grass:ground::bottom:11:0
  facet normal 0 0 1
    outer loop
      vertex 120 -60 0
      vertex 120 -90 0
      vertex 150 -90 0
    endloop
  endfacet
endsolid
solid Cell_Aux_Patux_:grass:ground::bottom:11:1
  facet normal 0 0 1
    outer loop
      vertex 120 -90 0
      vertex 150 -120 0
      vertex 150 -90 0
    endloop
  endfacet
endsolid
solid Cell_Aux_Patux_:grass:ground::bottom:11:1
  facet normal 0 0 1
    outer loop
      vertex 120 -90 0
      vertex 120 -120 0
      vertex 150 -120 0
    endloop
  endfacet
endsolid
solid Cell_Aux_Patux_:grass:ground::bottom:11:2
  facet normal 0 0 1
    outer loop
      vertex 120 -120 0
      vertex 150 -150 0
      vertex 150 -120 0
    endloop
  endfacet
endsolid
solid Cell_Aux_Patux_:grass:ground::bottom:11:2
  facet normal 0 0 1
    outer loop
      vertex 120 -120 0
      vertex 120 -150 0
      vertex 150 -150 0
    endloop
  endfacet
endsolid
solid Cell_Aux_Patux_:grass:ground::bottom:11:3
  facet normal 0 0 1
    outer loop
      vertex 120 -150 0
      vertex 150 -180 0
      vertex 150 -150 0
    endloop
  endfacet
endsolid
solid Cell_Aux_Patux_:grass:ground::bottom:11:3
  facet normal 0 0 1
    outer loop
      vertex 120 -150 0
      vertex 120 -180 0
      vertex 150 -180 0
    endloop
  endfacet
endsolid
solid Cell_Aux_Patux_:grass:ground::bottom:11:4
  facet normal 0 0 1
    outer loop
      vertex 120 -180 0
      vertex 150 -210 0
      vertex 150 -180 0
    endloop
  endfacet
endsolid
solid Cell_Aux_Patux_:grass:ground::bottom:11:4
  facet normal 0 0 1
    outer loop
      vertex 120 -180 0
      vertex 120 -210 0
      vertex 150 -210 0
    endloop
  endfacet
endsolid
solid Cell_Aux_Patux_:grass:ground::bottom:12:0
  facet normal 0 0 1
    outer loop
      vertex 150 -60 0
      vertex 180 -90 0
      vertex 180 -60 0
    endloop
  endfacet
endsolid
solid Cell_Aux_Patux_:grass:ground::bottom:12:0
  facet normal 0 0 1
    outer loop
      vertex 150 -60 0
      vertex 150 -90 0
      vertex 180 -90 0
    endloop
  endfacet
endsolid
solid Cell_Aux_Patux_:grass:ground::bottom:12:1
  facet normal 0 0 1
    outer loop
      vertex 150 -90 0
      vertex 180 -120 0
      vertex 180 -90 0
    endloop
  endfacet
endsolid
solid Cell_Aux_Patux_:grass:ground::bottom:12:1
  facet normal 0 0 1
    outer loop
      vertex 150 -90 0
      vertex 150 -120 0
      vertex 180 -120 0
    endloop
  endfacet
endsolid
solid Cell_Aux_Patux_:grass:ground::bottom:12:2
  facet normal 0 0 1
    outer loop
      vertex 150 -120 0
      vertex 180 -150 0
      vertex 180 -120 0
    endloop
  endfacet
endsolid
solid Cell_Aux_Patux_:grass:ground::bottom:12:2
  facet normal 0 0 1
    outer loop
      vertex 150 -120 0
      vertex 150 -150 0
      vertex 180 -150 0
    endloop
  endfacet
endsolid
solid Cell_Aux_Patux_:grass:ground::bottom:12:3
  facet normal 0 0 1
    outer loop
      vertex 150 -150 0
      vertex 180 -180 0
      vertex 180 -150 0
    endloop
  endfacet
endsolid
solid Cell_Aux_Patux_:grass:ground::bottom:12:3
  facet normal 0 0 1
    outer loop
      vertex 150 -150 0
      vertex 150 -180 0
      vertex 180 -180 0
    endloop
  endfacet
endsolid
solid Cell_Aux_Patux_:grass:ground::bottom:12:4
  facet normal 0 0 1
    outer loop
      vertex 150 -180 0
      vertex 180 -210 0
      vertex 180 -180 0
    endloop
  endfacet
endsolid
solid Cell_Aux_Patux_:grass:ground::bottom:12:4
  facet normal 0 0 1
    outer loop
      vertex 150 -180 0
      vertex 150 -210 0
      vertex 180 -210 0
    endloop
  endfacet
endsolid
solid Cell_Aux_Patux_:grass:ground::bottom:13:0
  facet normal 0 0 1
    outer loop
      vertex 180 -60 0
      vertex 210 -90 0
      vertex 210 -60 0
    endloop
  endfacet
endsolid
solid Cell_Aux_Patux_:grass:ground::bottom:13:0
  facet normal 0 0 1
    outer loop
      vertex 180 -60 0
      vertex 180 -90 0
      vertex 210 -90 0
    endloop
  endfacet
endsolid
solid Cell_Aux_Patux_:grass:ground::bottom:13:1
  facet normal 0 0 1
    outer loop
      vertex 180 -90 0
      vertex 210 -120 0
      vertex 210 -90 0
    endloop
  endfacet
endsolid
solid Cell_Aux_Patux_:grass:ground::bottom:13:1
  facet normal 0 0 1
    outer loop
      vertex 180 -90 0
      vertex 180 -120 0
      vertex 210 -120 0
    endloop
  endfacet
endsolid
solid Cell_Aux_Patux_:grass:ground::bottom:13:2
  facet normal 0 0 1
    outer loop
      vertex 180 -120 0
      vertex 210 -150 0
      vertex 210 -120 0
    endloop
  endfacet
endsolid
solid Cell_Aux_Patux_:grass:ground::bottom:13:2
  facet normal 0 0 1
    outer loop
      vertex 180 -120 0
      vertex 180 -150 0
      vertex 210 -150 0
    endloop
  endfacet
endsolid
solid Cell_Aux_Patux_:grass:ground::bottom:13:3
  facet normal 0 0 1
    outer loop
      vertex 180 -150 0
      vertex 210 -180 0
      vertex 210 -150 0
    endloop
  endfacet
endsolid
solid Cell_Aux_Patux_:grass:ground::bottom:13:3
  facet normal 0 0 1
    outer loop
      vertex 180 -150 0
      vertex 180 -180 0
      vertex 210 -180 0
    endloop
  endfacet
endsolid
solid Cell_Aux_Patux_:grass:ground::bottom:13:4
  facet normal 0 0 1
    outer loop
      vertex 180 -180 0
      vertex 210 -210 0
      vertex 210 -180 0
    endloop
  endfacet
endsolid
solid Cell_Aux_Patux_:grass:ground::bottom:13:4
  facet normal 0 0 1
    outer loop
      vertex 180 -180 0
      vertex 180 -210 0
      vertex 210 -210 0
    endloop
  endfacet
endsolid
