solid model
facet normal 0.0 0.0 -1.0
outer loop
vertex 8.24127496166811 19.8086222398423 0.0
vertex -18.0318500383319 -1.22734026015771 0.0
vertex -18.0318500383319 19.8086222398423 0.0
endloop
endfacet
facet normal 0.0 0.0 -1.0
outer loop
vertex -18.0318500383319 -1.22734026015771 0.0
vertex 8.24127496166811 19.8086222398423 0.0
vertex 8.24127496166811 -1.22734026015771 0.0
endloop
endfacet
facet normal 0.0 0.0 1.0
outer loop
vertex 8.24127496166811 -1.22734026015771 20.9343625
vertex -18.0318500383319 19.8086222398423 20.9343625
vertex -18.0318500383319 -1.22734026015771 20.9343625
endloop
endfacet
facet normal 0.0 0.0 1.0
outer loop
vertex -18.0318500383319 19.8086222398423 20.9343625
vertex 8.24127496166811 -1.22734026015771 20.9343625
vertex 8.24127496166811 19.8086222398423 20.9343625
endloop
endfacet
facet normal -0.0 -1.0 -0.0
outer loop
vertex 8.24127496166811 -1.22734026015771 20.9343625
vertex -18.0318500383319 -1.22734026015771 0.0
vertex 8.24127496166811 -1.22734026015771 0.0
endloop
endfacet
facet normal -0.0 -1.0 -0.0
outer loop
vertex -18.0318500383319 -1.22734026015771 0.0
vertex 8.24127496166811 -1.22734026015771 20.9343625
vertex -18.0318500383319 -1.22734026015771 20.9343625
endloop
endfacet
facet normal -1.0 0.0 0.0
outer loop
vertex -18.0318500383319 19.8086222398423 20.9343625
vertex -18.0318500383319 -1.22734026015771 0.0
vertex -18.0318500383319 -1.22734026015771 20.9343625
endloop
endfacet
facet normal -1.0 0.0 0.0
outer loop
vertex -18.0318500383319 -1.22734026015771 0.0
vertex -18.0318500383319 19.8086222398423 20.9343625
vertex -18.0318500383319 19.8086222398423 0.0
endloop
endfacet
facet normal -0.0 1.0 0.0
outer loop
vertex -18.0318500383319 19.8086222398423 20.9343625
vertex 8.24127496166811 19.8086222398423 0.0
vertex -18.0318500383319 19.8086222398423 0.0
endloop
endfacet
facet normal -0.0 1.0 0.0
outer loop
vertex 8.24127496166811 19.8086222398423 0.0
vertex -18.0318500383319 19.8086222398423 20.9343625
vertex 8.24127496166811 19.8086222398423 20.9343625
endloop
endfacet
facet normal 1.0 0.0 0.0
outer loop
vertex 8.24127496166811 19.8086222398423 0.0
vertex 8.24127496166811 -1.22734026015771 20.9343625
vertex 8.24127496166811 -1.22734026015771 0.0
endloop
endfacet
facet normal 1.0 0.0 0.0
outer loop
vertex 8.24127496166811 -1.22734026015771 20.9343625
vertex 8.24127496166811 19.8086222398423 0.0
vertex 8.24127496166811 19.8086222398423 20.9343625
endloop
endfacet
endsolid model