solid cross
  facet normal 4.647180969542953e-7 9.99999999999892e-1 0e+0
    outer loop
      vertex 0e+0 0e+0 0e+0
      vertex -7.314961023575753e+0 3.3993947661713356e-6 0e+0
      vertex -7.314961023575753e+0 3.3993947661713356e-6 2e+1
    endloop
  endfacet
  facet normal 4.647180969542953e-7 9.99999999999892e-1 0e+0
    outer loop
      vertex 0e+0 0e+0 0e+0
      vertex -7.314961023575753e+0 3.3993947661713356e-6 2e+1
      vertex 0e+0 0e+0 2e+1
    endloop
  endfacet
  facet normal -9.999999999995681e-1 9.294280396145313e-7 0e+0
    outer loop
      vertex -7.314961023575753e+0 3.3993947661713356e-6 0e+0
      vertex -7.314978517729139e+0 -1.88224902631869e+1 0e+0
      vertex -7.314978517729139e+0 -1.88224902631869e+1 2e+1
    endloop
  endfacet
  facet normal -9.999999999995681e-1 9.294280396145313e-7 0e+0
    outer loop
      vertex -7.314961023575753e+0 3.3993947661713356e-6 0e+0
      vertex -7.314978517729139e+0 -1.88224902631869e+1 2e+1
      vertex -7.314961023575753e+0 3.3993947661713356e-6 2e+1
    endloop
  endfacet
  facet normal -4.6471392548423093e-7 -9.99999999999892e-1 0e+0
    outer loop
      vertex -7.314978517729139e+0 -1.88224902631869e+1 0e+0
      vertex 2.3050906615824566e-15 -1.8822493662559282e+1 0e+0
      vertex 2.3050906615824566e-15 -1.8822493662559282e+1 2e+1
    endloop
  endfacet
  facet normal -4.6471392548423093e-7 -9.99999999999892e-1 0e+0
    outer loop
      vertex -7.314978517729139e+0 -1.88224902631869e+1 0e+0
      vertex 2.3050906615824566e-15 -1.8822493662559282e+1 2e+1
      vertex -7.314978517729139e+0 -1.88224902631869e+1 2e+1
    endloop
  endfacet
  facet normal -1e+0 -1.2246467991473532e-16 0e+0
    outer loop
      vertex 2.3050906615824566e-15 -1.8822493662559282e+1 0e+0
      vertex 3.457635992330374e-15 -2.823374049348526e+1 0e+0
      vertex 3.457635992330374e-15 -2.823374049348526e+1 2e+1
    endloop
  endfacet
  facet normal -1e+0 -1.2246467991473532e-16 0e+0
    outer loop
      vertex 2.3050906615824566e-15 -1.8822493662559282e+1 0e+0
      vertex 3.457635992330374e-15 -2.823374049348526e+1 2e+1
      vertex 2.3050906615824566e-15 -1.8822493662559282e+1 2e+1
    endloop
  endfacet
  facet normal 9.294373002447459e-7 -9.999999999995681e-1 0e+0
    outer loop
      vertex 3.457635992330374e-15 -2.823374049348526e+1 0e+0
      vertex 1.4629974527657067e+1 -2.8233726895841233e+1 0e+0
      vertex 1.4629974527657067e+1 -2.8233726895841233e+1 2e+1
    endloop
  endfacet
  facet normal 9.294373002447459e-7 -9.999999999995681e-1 0e+0
    outer loop
      vertex 3.457635992330374e-15 -2.823374049348526e+1 0e+0
      vertex 1.4629974527657067e+1 -2.8233726895841233e+1 2e+1
      vertex 3.457635992330374e-15 -2.823374049348526e+1 2e+1
    endloop
  endfacet
  facet normal 9.999999999982724e-1 1.8588799122898704e-6 0e+0
    outer loop
      vertex 1.4629974527657067e+1 -2.8233726895841233e+1 0e+0
      vertex 1.4629957033279384e+1 -1.882248006504914e+1 0e+0
      vertex 1.4629957033279384e+1 -1.882248006504914e+1 2e+1
    endloop
  endfacet
  facet normal 9.999999999982724e-1 1.8588799122898704e-6 0e+0
    outer loop
      vertex 1.4629974527657067e+1 -2.8233726895841233e+1 0e+0
      vertex 1.4629957033279384e+1 -1.882248006504914e+1 2e+1
      vertex 1.4629974527657067e+1 -2.8233726895841233e+1 2e+1
    endloop
  endfacet
  facet normal 2.323578307281921e-6 -9.999999999973006e-1 0e+0
    outer loop
      vertex 1.4629957033279384e+1 -1.882248006504914e+1 0e+0
      vertex 2.194493554993564e+1 -1.8822463068123742e+1 0e+0
      vertex 2.194493554993564e+1 -1.8822463068123742e+1 2e+1
    endloop
  endfacet
  facet normal 2.323578307281921e-6 -9.999999999973006e-1 0e+0
    outer loop
      vertex 1.4629957033279384e+1 -1.882248006504914e+1 0e+0
      vertex 2.194493554993564e+1 -1.8822463068123742e+1 2e+1
      vertex 1.4629957033279384e+1 -1.882248006504914e+1 2e+1
    endloop
  endfacet
  facet normal 9.999999999961129e-1 2.788287950740689e-6 0e+0
    outer loop
      vertex 2.194493554993564e+1 -1.8822463068123742e+1 0e+0
      vertex 2.1944883067403357e+1 3.059455289311088e-5 0e+0
      vertex 2.1944883067403357e+1 3.059455289311088e-5 2e+1
    endloop
  endfacet
  facet normal 9.999999999961129e-1 2.788287950740689e-6 0e+0
    outer loop
      vertex 2.194493554993564e+1 -1.8822463068123742e+1 0e+0
      vertex 2.1944883067403357e+1 3.059455289311088e-5 2e+1
      vertex 2.194493554993564e+1 -1.8822463068123742e+1 2e+1
    endloop
  endfacet
  facet normal -2.3235904851906737e-6 9.999999999973004e-1 0e+0
    outer loop
      vertex 2.1944883067403357e+1 3.059455289311088e-5 0e+0
      vertex 1.46299220449461e+1 1.359757906174267e-5 0e+0
      vertex 1.46299220449461e+1 1.359757906174267e-5 2e+1
    endloop
  endfacet
  facet normal -2.3235904851906737e-6 9.999999999973004e-1 0e+0
    outer loop
      vertex 2.1944883067403357e+1 3.059455289311088e-5 0e+0
      vertex 1.46299220449461e+1 1.359757906174267e-5 2e+1
      vertex 2.1944883067403357e+1 3.059455289311088e-5 2e+1
    endloop
  endfacet
  facet normal 9.999999999982723e-1 1.8588998310150942e-6 0e+0
    outer loop
      vertex 1.46299220449461e+1 1.359757906174267e-5 0e+0
      vertex 1.4629904550380955e+1 9.41126042968932e+0 0e+0
      vertex 1.4629904550380955e+1 9.41126042968932e+0 2e+1
    endloop
  endfacet
  facet normal 9.999999999982723e-1 1.8588998310150942e-6 0e+0
    outer loop
      vertex 1.46299220449461e+1 1.359757906174267e-5 0e+0
      vertex 1.4629904550380955e+1 9.41126042968932e+0 2e+1
      vertex 1.46299220449461e+1 1.359757906174267e-5 2e+1
    endloop
  endfacet
  facet normal -9.294699066198828e-7 9.999999999995679e-1 0e+0
    outer loop
      vertex 1.4629904550380955e+1 9.41126042968932e+0 0e+0
      vertex 0e+0 9.411246831633303e+0 0e+0
      vertex 0e+0 9.411246831633303e+0 2e+1
    endloop
  endfacet
  facet normal -9.294699066198828e-7 9.999999999995679e-1 0e+0
    outer loop
      vertex 1.4629904550380955e+1 9.41126042968932e+0 0e+0
      vertex 0e+0 9.411246831633303e+0 2e+1
      vertex 1.4629904550380955e+1 9.41126042968932e+0 2e+1
    endloop
  endfacet
  facet normal -1e+0 0e+0 0e+0
    outer loop
      vertex 0e+0 9.411246831633303e+0 0e+0
      vertex 0e+0 0e+0 0e+0
      vertex 0e+0 0e+0 2e+1
    endloop
  endfacet
  facet normal -1e+0 0e+0 0e+0
    outer loop
      vertex 0e+0 9.411246831633303e+0 0e+0
      vertex 0e+0 0e+0 2e+1
      vertex 0e+0 9.411246831633303e+0 2e+1
    endloop
  endfacet
  facet normal 0e+0 0e+0 -1e+0
    outer loop
      vertex 0e+0 0e+0 0e+0
      vertex -7.314978517729139e+0 -1.88224902631869e+1 0e+0
      vertex -7.314961023575753e+0 3.3993947661713356e-6 0e+0
    endloop
  endfacet
  facet normal 0e+0 0e+0 -1e+0
    outer loop
      vertex 2.3050906615824566e-15 -1.8822493662559282e+1 0e+0
      vertex -7.314978517729139e+0 -1.88224902631869e+1 0e+0
      vertex 0e+0 0e+0 0e+0
    endloop
  endfacet
  facet normal 0e+0 0e+0 -1e+0
    outer loop
      vertex 1.4629957033279384e+1 -1.882248006504914e+1 0e+0
      vertex 2.3050906615824566e-15 -1.8822493662559282e+1 0e+0
      vertex 0e+0 0e+0 0e+0
    endloop
  endfacet
  facet normal 0e+0 0e+0 -1e+0
    outer loop
      vertex 1.4629957033279384e+1 -1.882248006504914e+1 0e+0
      vertex 0e+0 0e+0 0e+0
      vertex 1.46299220449461e+1 1.359757906174267e-5 0e+0
    endloop
  endfacet
  facet normal 0e+0 0e+0 -1e+0
    outer loop
      vertex 1.46299220449461e+1 1.359757906174267e-5 0e+0
      vertex 0e+0 0e+0 0e+0
      vertex 0e+0 9.411246831633303e+0 0e+0
    endloop
  endfacet
  facet normal 0e+0 0e+0 -1e+0
    outer loop
      vertex 1.46299220449461e+1 1.359757906174267e-5 0e+0
      vertex 0e+0 9.411246831633303e+0 0e+0
      vertex 1.4629904550380955e+1 9.41126042968932e+0 0e+0
    endloop
  endfacet
  facet normal 0e+0 0e+0 -1e+0
    outer loop
      vertex 2.194493554993564e+1 -1.8822463068123742e+1 0e+0
      vertex 1.4629957033279384e+1 -1.882248006504914e+1 0e+0
      vertex 1.46299220449461e+1 1.359757906174267e-5 0e+0
    endloop
  endfacet
  facet normal 0e+0 0e+0 -1e+0
    outer loop
      vertex 2.194493554993564e+1 -1.8822463068123742e+1 0e+0
      vertex 1.46299220449461e+1 1.359757906174267e-5 0e+0
      vertex 2.1944883067403357e+1 3.059455289311088e-5 0e+0
    endloop
  endfacet
  facet normal 0e+0 0e+0 -1e+0
    outer loop
      vertex 3.457635992330374e-15 -2.823374049348526e+1 0e+0
      vertex 2.3050906615824566e-15 -1.8822493662559282e+1 0e+0
      vertex 1.4629957033279384e+1 -1.882248006504914e+1 0e+0
    endloop
  endfacet
  facet normal 0e+0 0e+0 -1e+0
    outer loop
      vertex 3.457635992330374e-15 -2.823374049348526e+1 0e+0
      vertex 1.4629957033279384e+1 -1.882248006504914e+1 0e+0
      vertex 1.4629974527657067e+1 -2.8233726895841233e+1 0e+0
    endloop
  endfacet
  facet normal 0e+0 0e+0 1e+0
    outer loop
      vertex -7.314961023575753e+0 3.3993947661713356e-6 2e+1
      vertex -7.314978517729139e+0 -1.88224902631869e+1 2e+1
      vertex 0e+0 0e+0 2e+1
    endloop
  endfacet
  facet normal 0e+0 0e+0 1e+0
    outer loop
      vertex 0e+0 0e+0 2e+1
      vertex -7.314978517729139e+0 -1.88224902631869e+1 2e+1
      vertex 2.3050906615824566e-15 -1.8822493662559282e+1 2e+1
    endloop
  endfacet
  facet normal 0e+0 0e+0 1e+0
    outer loop
      vertex 0e+0 0e+0 2e+1
      vertex 2.3050906615824566e-15 -1.8822493662559282e+1 2e+1
      vertex 1.4629957033279384e+1 -1.882248006504914e+1 2e+1
    endloop
  endfacet
  facet normal 0e+0 0e+0 1e+0
    outer loop
      vertex 1.46299220449461e+1 1.359757906174267e-5 2e+1
      vertex 0e+0 0e+0 2e+1
      vertex 1.4629957033279384e+1 -1.882248006504914e+1 2e+1
    endloop
  endfacet
  facet normal 0e+0 0e+0 1e+0
    outer loop
      vertex 0e+0 9.411246831633303e+0 2e+1
      vertex 0e+0 0e+0 2e+1
      vertex 1.46299220449461e+1 1.359757906174267e-5 2e+1
    endloop
  endfacet
  facet normal 0e+0 0e+0 1e+0
    outer loop
      vertex 1.4629904550380955e+1 9.41126042968932e+0 2e+1
      vertex 0e+0 9.411246831633303e+0 2e+1
      vertex 1.46299220449461e+1 1.359757906174267e-5 2e+1
    endloop
  endfacet
  facet normal 0e+0 0e+0 1e+0
    outer loop
      vertex 1.46299220449461e+1 1.359757906174267e-5 2e+1
      vertex 1.4629957033279384e+1 -1.882248006504914e+1 2e+1
      vertex 2.194493554993564e+1 -1.8822463068123742e+1 2e+1
    endloop
  endfacet
  facet normal 0e+0 0e+0 1e+0
    outer loop
      vertex 2.1944883067403357e+1 3.059455289311088e-5 2e+1
      vertex 1.46299220449461e+1 1.359757906174267e-5 2e+1
      vertex 2.194493554993564e+1 -1.8822463068123742e+1 2e+1
    endloop
  endfacet
  facet normal 0e+0 0e+0 1e+0
    outer loop
      vertex 1.4629957033279384e+1 -1.882248006504914e+1 2e+1
      vertex 2.3050906615824566e-15 -1.8822493662559282e+1 2e+1
      vertex 3.457635992330374e-15 -2.823374049348526e+1 2e+1
    endloop
  endfacet
  facet normal 0e+0 0e+0 1e+0
    outer loop
      vertex 1.4629974527657067e+1 -2.8233726895841233e+1 2e+1
      vertex 1.4629957033279384e+1 -1.882248006504914e+1 2e+1
      vertex 3.457635992330374e-15 -2.823374049348526e+1 2e+1
    endloop
  endfacet
endsolid