solid cross
  facet normal 1.8588698985124596e-6 -9.999999999982724e-1 0e+0
    outer loop
      vertex 0e+0 0e+0 0e+0
      vertex 2.9259693017648782e+1 5.438996259031648e-5 0e+0
      vertex 2.9259693017648782e+1 5.438996259031648e-5 2e+1
    endloop
  endfacet
  facet normal 1.8588698985124596e-6 -9.999999999982724e-1 0e+0
    outer loop
      vertex 0e+0 0e+0 0e+0
      vertex 2.9259693017648782e+1 5.438996259031648e-5 2e+1
      vertex 0e+0 0e+0 2e+1
    endloop
  endfacet
  facet normal -9.999999999930892e-1 -3.7177359471872198e-6 0e+0
    outer loop
      vertex 2.9259693017648782e+1 5.438996259031648e-5 0e+0
      vertex 2.925976299471009e+1 -1.8822439273321795e+1 0e+0
      vertex 2.925976299471009e+1 -1.8822439273321795e+1 2e+1
    endloop
  endfacet
  facet normal -9.999999999930892e-1 -3.7177359471872198e-6 0e+0
    outer loop
      vertex 2.9259693017648782e+1 5.438996259031648e-5 0e+0
      vertex 2.925976299471009e+1 -1.8822439273321795e+1 2e+1
      vertex 2.9259693017648782e+1 5.438996259031648e-5 2e+1
    endloop
  endfacet
  facet normal 4.647204562215068e-6 -9.999999999892017e-1 0e+0
    outer loop
      vertex 2.925976299471009e+1 -1.8822439273321795e+1 0e+0
      vertex 4.3889644491655325e+1 -1.8822371285269757e+1 0e+0
      vertex 4.3889644491655325e+1 -1.8822371285269757e+1 2e+1
    endloop
  endfacet
  facet normal 4.647204562215068e-6 -9.999999999892017e-1 0e+0
    outer loop
      vertex 2.925976299471009e+1 -1.8822439273321795e+1 0e+0
      vertex 4.3889644491655325e+1 -1.8822371285269757e+1 2e+1
      vertex 2.925976299471009e+1 -1.8822439273321795e+1 2e+1
    endloop
  endfacet
  facet normal -9.999999999844508e-1 -5.576595268568654e-6 0e+0
    outer loop
      vertex 4.3889644491655325e+1 -1.8822371285269757e+1 0e+0
      vertex 4.388985442251353e+1 -5.64673586101724e+1 0e+0
      vertex 4.388985442251353e+1 -5.64673586101724e+1 2e+1
    endloop
  endfacet
  facet normal -9.999999999844508e-1 -5.576595268568654e-6 0e+0
    outer loop
      vertex 4.3889644491655325e+1 -1.8822371285269757e+1 0e+0
      vertex 4.388985442251353e+1 -5.64673586101724e+1 2e+1
      vertex 4.3889644491655325e+1 -1.8822371285269757e+1 2e+1
    endloop
  endfacet
  facet normal -4.64717318441216e-6 9.999999999892021e-1 0e+0
    outer loop
      vertex 4.388985442251353e+1 -5.64673586101724e+1 0e+0
      vertex 2.925990294875028e+1 -5.6467426598090576e+1 0e+0
      vertex 2.925990294875028e+1 -5.6467426598090576e+1 2e+1
    endloop
  endfacet
  facet normal -4.64717318441216e-6 9.999999999892021e-1 0e+0
    outer loop
      vertex 4.388985442251353e+1 -5.64673586101724e+1 0e+0
      vertex 2.925990294875028e+1 -5.6467426598090576e+1 2e+1
      vertex 4.388985442251353e+1 -5.64673586101724e+1 2e+1
    endloop
  endfacet
  facet normal -9.999999999930892e-1 -3.717700213114047e-6 0e+0
    outer loop
      vertex 2.925990294875028e+1 -5.6467426598090576e+1 0e+0
      vertex 2.925997292513898e+1 -7.528992026070432e+1 0e+0
      vertex 2.925997292513898e+1 -7.528992026070432e+1 2e+1
    endloop
  endfacet
  facet normal -9.999999999930892e-1 -3.717700213114047e-6 0e+0
    outer loop
      vertex 2.925990294875028e+1 -5.6467426598090576e+1 0e+0
      vertex 2.925997292513898e+1 -7.528992026070432e+1 2e+1
      vertex 2.925990294875028e+1 -5.6467426598090576e+1 2e+1
    endloop
  endfacet
  facet normal -1.8588616012184191e-6 9.999999999982724e-1 0e+0
    outer loop
      vertex 2.925997292513898e+1 -7.528992026070432e+1 0e+0
      vertex 9.220362646416448e-15 -7.528997465094444e+1 0e+0
      vertex 9.220362646416448e-15 -7.528997465094444e+1 2e+1
    endloop
  endfacet
  facet normal -1.8588616012184191e-6 9.999999999982724e-1 0e+0
    outer loop
      vertex 2.925997292513898e+1 -7.528992026070432e+1 0e+0
      vertex 9.220362646416448e-15 -7.528997465094444e+1 2e+1
      vertex 2.925997292513898e+1 -7.528992026070432e+1 2e+1
    endloop
  endfacet
  facet normal 1e+0 1.2246467991473535e-16 0e+0
    outer loop
      vertex 9.220362646416448e-15 -7.528997465094444e+1 0e+0
      vertex 6.915271984833991e-15 -5.646748098838516e+1 0e+0
      vertex 6.915271984833991e-15 -5.646748098838516e+1 2e+1
    endloop
  endfacet
  facet normal 1e+0 1.2246467991473535e-16 0e+0
    outer loop
      vertex 9.220362646416448e-15 -7.528997465094444e+1 0e+0
      vertex 6.915271984833991e-15 -5.646748098838516e+1 2e+1
      vertex 9.220362646416448e-15 -7.528997465094444e+1 2e+1
    endloop
  endfacet
  facet normal 9.294345243318777e-7 9.999999999995681e-1 0e+0
    outer loop
      vertex 6.915271984833991e-15 -5.646748098838516e+1 0e+0
      vertex -1.4629951474982395e+1 -5.646746739080317e+1 0e+0
      vertex -1.4629951474982395e+1 -5.646746739080317e+1 2e+1
    endloop
  endfacet
  facet normal 9.294345243318777e-7 9.999999999995681e-1 0e+0
    outer loop
      vertex 6.915271984833991e-15 -5.646748098838516e+1 0e+0
      vertex -1.4629951474982395e+1 -5.646746739080317e+1 2e+1
      vertex 6.915271984833991e-15 -5.646748098838516e+1 2e+1
    endloop
  endfacet
  facet normal 9.999999999982724e-1 -1.8588661292288784e-6 0e+0
    outer loop
      vertex -1.4629951474982395e+1 -5.646746739080317e+1 0e+0
      vertex -1.4629881497990521e+1 -1.882248006573344e+1 0e+0
      vertex -1.4629881497990521e+1 -1.882248006573344e+1 2e+1
    endloop
  endfacet
  facet normal 9.999999999982724e-1 -1.8588661292288784e-6 0e+0
    outer loop
      vertex -1.4629951474982395e+1 -5.646746739080317e+1 0e+0
      vertex -1.4629881497990521e+1 -1.882248006573344e+1 2e+1
      vertex -1.4629951474982395e+1 -5.646746739080317e+1 2e+1
    endloop
  endfacet
  facet normal -9.294356326175516e-7 -9.999999999995681e-1 0e+0
    outer loop
      vertex -1.4629881497990521e+1 -1.882248006573344e+1 0e+0
      vertex 2.3050906616690786e-15 -1.8822493663266606e+1 0e+0
      vertex 2.3050906616690786e-15 -1.8822493663266606e+1 2e+1
    endloop
  endfacet
  facet normal -9.294356326175516e-7 -9.999999999995681e-1 0e+0
    outer loop
      vertex -1.4629881497990521e+1 -1.882248006573344e+1 0e+0
      vertex 2.3050906616690786e-15 -1.8822493663266606e+1 2e+1
      vertex -1.4629881497990521e+1 -1.882248006573344e+1 2e+1
    endloop
  endfacet
  facet normal 1e+0 1.224646799147353e-16 0e+0
    outer loop
      vertex 2.3050906616690786e-15 -1.8822493663266606e+1 0e+0
      vertex 0e+0 0e+0 0e+0
      vertex 0e+0 0e+0 2e+1
    endloop
  endfacet
  facet normal 1e+0 1.224646799147353e-16 0e+0
    outer loop
      vertex 2.3050906616690786e-15 -1.8822493663266606e+1 0e+0
      vertex 0e+0 0e+0 2e+1
      vertex 2.3050906616690786e-15 -1.8822493663266606e+1 2e+1
    endloop
  endfacet
  facet normal 0e+0 0e+0 -1e+0
    outer loop
      vertex 2.3050906616690786e-15 -1.8822493663266606e+1 0e+0
      vertex -1.4629951474982395e+1 -5.646746739080317e+1 0e+0
      vertex -1.4629881497990521e+1 -1.882248006573344e+1 0e+0
    endloop
  endfacet
  facet normal 0e+0 0e+0 -1e+0
    outer loop
      vertex 6.915271984833991e-15 -5.646748098838516e+1 0e+0
      vertex -1.4629951474982395e+1 -5.646746739080317e+1 0e+0
      vertex 2.3050906616690786e-15 -1.8822493663266606e+1 0e+0
    endloop
  endfacet
  facet normal 0e+0 0e+0 -1e+0
    outer loop
      vertex 6.915271984833991e-15 -5.646748098838516e+1 0e+0
      vertex 2.3050906616690786e-15 -1.8822493663266606e+1 0e+0
      vertex 2.925976299471009e+1 -1.8822439273321795e+1 0e+0
    endloop
  endfacet
  facet normal 0e+0 0e+0 -1e+0
    outer loop
      vertex 2.3050906616690786e-15 -1.8822493663266606e+1 0e+0
      vertex 2.9259693017648782e+1 5.438996259031648e-5 0e+0
      vertex 2.925976299471009e+1 -1.8822439273321795e+1 0e+0
    endloop
  endfacet
  facet normal 0e+0 0e+0 -1e+0
    outer loop
      vertex 2.3050906616690786e-15 -1.8822493663266606e+1 0e+0
      vertex 0e+0 0e+0 0e+0
      vertex 2.9259693017648782e+1 5.438996259031648e-5 0e+0
    endloop
  endfacet
  facet normal 0e+0 0e+0 -1e+0
    outer loop
      vertex 6.915271984833991e-15 -5.646748098838516e+1 0e+0
      vertex 2.925976299471009e+1 -1.8822439273321795e+1 0e+0
      vertex 2.925990294875028e+1 -5.6467426598090576e+1 0e+0
    endloop
  endfacet
  facet normal 0e+0 0e+0 -1e+0
    outer loop
      vertex 4.388985442251353e+1 -5.64673586101724e+1 0e+0
      vertex 2.925990294875028e+1 -5.6467426598090576e+1 0e+0
      vertex 2.925976299471009e+1 -1.8822439273321795e+1 0e+0
    endloop
  endfacet
  facet normal 0e+0 0e+0 -1e+0
    outer loop
      vertex 4.388985442251353e+1 -5.64673586101724e+1 0e+0
      vertex 2.925976299471009e+1 -1.8822439273321795e+1 0e+0
      vertex 4.3889644491655325e+1 -1.8822371285269757e+1 0e+0
    endloop
  endfacet
  facet normal 0e+0 0e+0 -1e+0
    outer loop
      vertex 2.925997292513898e+1 -7.528992026070432e+1 0e+0
      vertex 6.915271984833991e-15 -5.646748098838516e+1 0e+0
      vertex 2.925990294875028e+1 -5.6467426598090576e+1 0e+0
    endloop
  endfacet
  facet normal 0e+0 0e+0 -1e+0
    outer loop
      vertex 2.925997292513898e+1 -7.528992026070432e+1 0e+0
      vertex 9.220362646416448e-15 -7.528997465094444e+1 0e+0
      vertex 6.915271984833991e-15 -5.646748098838516e+1 0e+0
    endloop
  endfacet
  facet normal 0e+0 0e+0 1e+0
    outer loop
      vertex -1.4629881497990521e+1 -1.882248006573344e+1 2e+1
      vertex -1.4629951474982395e+1 -5.646746739080317e+1 2e+1
      vertex 2.3050906616690786e-15 -1.8822493663266606e+1 2e+1
    endloop
  endfacet
  facet normal 0e+0 0e+0 1e+0
    outer loop
      vertex 2.3050906616690786e-15 -1.8822493663266606e+1 2e+1
      vertex -1.4629951474982395e+1 -5.646746739080317e+1 2e+1
      vertex 6.915271984833991e-15 -5.646748098838516e+1 2e+1
    endloop
  endfacet
  facet normal 0e+0 0e+0 1e+0
    outer loop
      vertex 2.925976299471009e+1 -1.8822439273321795e+1 2e+1
      vertex 2.3050906616690786e-15 -1.8822493663266606e+1 2e+1
      vertex 6.915271984833991e-15 -5.646748098838516e+1 2e+1
    endloop
  endfacet
  facet normal 0e+0 0e+0 1e+0
    outer loop
      vertex 2.925976299471009e+1 -1.8822439273321795e+1 2e+1
      vertex 2.9259693017648782e+1 5.438996259031648e-5 2e+1
      vertex 2.3050906616690786e-15 -1.8822493663266606e+1 2e+1
    endloop
  endfacet
  facet normal 0e+0 0e+0 1e+0
    outer loop
      vertex 2.9259693017648782e+1 5.438996259031648e-5 2e+1
      vertex 0e+0 0e+0 2e+1
      vertex 2.3050906616690786e-15 -1.8822493663266606e+1 2e+1
    endloop
  endfacet
  facet normal 0e+0 0e+0 1e+0
    outer loop
      vertex 2.925990294875028e+1 -5.6467426598090576e+1 2e+1
      vertex 2.925976299471009e+1 -1.8822439273321795e+1 2e+1
      vertex 6.915271984833991e-15 -5.646748098838516e+1 2e+1
    endloop
  endfacet
  facet normal 0e+0 0e+0 1e+0
    outer loop
      vertex 2.925976299471009e+1 -1.8822439273321795e+1 2e+1
      vertex 2.925990294875028e+1 -5.6467426598090576e+1 2e+1
      vertex 4.388985442251353e+1 -5.64673586101724e+1 2e+1
    endloop
  endfacet
  facet normal 0e+0 0e+0 1e+0
    outer loop
      vertex 4.3889644491655325e+1 -1.8822371285269757e+1 2e+1
      vertex 2.925976299471009e+1 -1.8822439273321795e+1 2e+1
      vertex 4.388985442251353e+1 -5.64673586101724e+1 2e+1
    endloop
  endfacet
  facet normal 0e+0 0e+0 1e+0
    outer loop
      vertex 2.925990294875028e+1 -5.6467426598090576e+1 2e+1
      vertex 6.915271984833991e-15 -5.646748098838516e+1 2e+1
      vertex 2.925997292513898e+1 -7.528992026070432e+1 2e+1
    endloop
  endfacet
  facet normal 0e+0 0e+0 1e+0
    outer loop
      vertex 6.915271984833991e-15 -5.646748098838516e+1 2e+1
      vertex 9.220362646416448e-15 -7.528997465094444e+1 2e+1
      vertex 2.925997292513898e+1 -7.528992026070432e+1 2e+1
    endloop
  endfacet
endsolid