solid DeptofLing
  facet normal 2.480786953941637e-2 -9.996922374455627e-1 0e+0
    outer loop
      vertex 0e+0 0e+0 0e+0
      vertex 7.474804573047327e+1 1.854910638844373e+0 0e+0
      vertex 7.474804573047327e+1 1.854910638844373e+0 1.3799999999999999e+1
    endloop
  endfacet
  facet normal 2.480786953941637e-2 -9.996922374455627e-1 0e+0
    outer loop
      vertex 0e+0 0e+0 0e+0
      vertex 7.474804573047327e+1 1.854910638844373e+0 1.3799999999999999e+1
      vertex 0e+0 0e+0 1.3799999999999999e+1
    endloop
  endfacet
  facet normal 9.998448726465703e-1 1.761336544683528e-2 0e+0
    outer loop
      vertex 7.474804573047327e+1 1.854910638844373e+0 0e+0
      vertex 7.33563928279039e+1 8.08538403628457e+1 0e+0
      vertex 7.33563928279039e+1 8.08538403628457e+1 1.3799999999999999e+1
    endloop
  endfacet
  facet normal 9.998448726465703e-1 1.761336544683528e-2 0e+0
    outer loop
      vertex 7.474804573047327e+1 1.854910638844373e+0 0e+0
      vertex 7.33563928279039e+1 8.08538403628457e+1 1.3799999999999999e+1
      vertex 7.474804573047327e+1 1.854910638844373e+0 1.3799999999999999e+1
    endloop
  endfacet
  facet normal -2.4807692849674497e-2 9.996922418301927e-1 0e+0
    outer loop
      vertex 7.33563928279039e+1 8.08538403628457e+1 0e+0
      vertex -1.3909029762848992e+0 7.899896155308392e+1 0e+0
      vertex -1.3909029762848992e+0 7.899896155308392e+1 1.3799999999999999e+1
    endloop
  endfacet
  facet normal -2.4807692849674497e-2 9.996922418301927e-1 0e+0
    outer loop
      vertex 7.33563928279039e+1 8.08538403628457e+1 0e+0
      vertex -1.3909029762848992e+0 7.899896155308392e+1 1.3799999999999999e+1
      vertex 7.33563928279039e+1 8.08538403628457e+1 1.3799999999999999e+1
    endloop
  endfacet
  facet normal -9.998450398758691e-1 -1.760386990470195e-2 0e+0
    outer loop
      vertex -1.3909029762848992e+0 7.899896155308392e+1 0e+0
      vertex 0e+0 0e+0 0e+0
      vertex 0e+0 0e+0 1.3799999999999999e+1
    endloop
  endfacet
  facet normal -9.998450398758691e-1 -1.760386990470195e-2 0e+0
    outer loop
      vertex -1.3909029762848992e+0 7.899896155308392e+1 0e+0
      vertex 0e+0 0e+0 1.3799999999999999e+1
      vertex -1.3909029762848992e+0 7.899896155308392e+1 1.3799999999999999e+1
    endloop
  endfacet
  facet normal 0e+0 0e+0 -1e+0
    outer loop
      vertex 7.474804573047327e+1 1.854910638844373e+0 0e+0
      vertex -1.3909029762848992e+0 7.899896155308392e+1 0e+0
      vertex 7.33563928279039e+1 8.08538403628457e+1 0e+0
    endloop
  endfacet
  facet normal 0e+0 0e+0 -1e+0
    outer loop
      vertex 7.474804573047327e+1 1.854910638844373e+0 0e+0
      vertex 0e+0 0e+0 0e+0
      vertex -1.3909029762848992e+0 7.899896155308392e+1 0e+0
    endloop
  endfacet
  facet normal 0e+0 0e+0 1e+0
    outer loop
      vertex 7.33563928279039e+1 8.08538403628457e+1 1.3799999999999999e+1
      vertex -1.3909029762848992e+0 7.899896155308392e+1 1.3799999999999999e+1
      vertex 7.474804573047327e+1 1.854910638844373e+0 1.3799999999999999e+1
    endloop
  endfacet
  facet normal 0e+0 0e+0 1e+0
    outer loop
      vertex -1.3909029762848992e+0 7.899896155308392e+1 1.3799999999999999e+1
      vertex 0e+0 0e+0 1.3799999999999999e+1
      vertex 7.474804573047327e+1 1.854910638844373e+0 1.3799999999999999e+1
    endloop
  endfacet
endsolid