solid ground
  facet normal 0e+0 0e+0 1e+0
    outer loop
      vertex -1e+1 -1e+1 0e+0
      vertex 1e+1 -1e+1 0e+0
      vertex 1e+1 1e+1 0e+0
    endloop
  endfacet
  facet normal 0e+0 0e+0 1e+0
    outer loop
      vertex -1e+1 -1e+1 0e+0
      vertex 1e+1 1e+1 0e+0
      vertex -1e+1 1e+1 0e+0
    endloop
  endfacet
endsolidsolid ground
  facet normal 0e+0 0e+0 1e+0
    outer loop
      vertex -1e+2 -1e+2 0e+0
      vertex -9e+1 -1e+2 0e+0
      vertex -9e+1 -9e+1 0e+0
    endloop
  endfacet
  facet normal 0e+0 0e+0 1e+0
    outer loop
      vertex -1e+2 -1e+2 0e+0
      vertex -9e+1 -9e+1 0e+0
      vertex -1e+2 -9e+1 0e+0
    endloop
  endfacet
endsolidsolid ground
  facet normal 0e+0 0e+0 1e+0
    outer loop
      vertex -9e+1 -9e+1 0e+0
      vertex -8e+1 -9e+1 0e+0
      vertex -8e+1 -8e+1 0e+0
    endloop
  endfacet
  facet normal 0e+0 0e+0 1e+0
    outer loop
      vertex -9e+1 -9e+1 0e+0
      vertex -8e+1 -8e+1 0e+0
      vertex -9e+1 -8e+1 0e+0
    endloop
  endfacet
endsolidsolid ground
  facet normal 0e+0 0e+0 1e+0
    outer loop
      vertex -8e+1 -8e+1 0e+0
      vertex -7e+1 -8e+1 0e+0
      vertex -7e+1 -7e+1 0e+0
    endloop
  endfacet
  facet normal 0e+0 0e+0 1e+0
    outer loop
      vertex -8e+1 -8e+1 0e+0
      vertex -7e+1 -7e+1 0e+0
      vertex -8e+1 -7e+1 0e+0
    endloop
  endfacet
endsolidsolid ground
  facet normal 0e+0 0e+0 1e+0
    outer loop
      vertex -7e+1 -7e+1 0e+0
      vertex -6e+1 -7e+1 0e+0
      vertex -6e+1 -6e+1 0e+0
    endloop
  endfacet
  facet normal 0e+0 0e+0 1e+0
    outer loop
      vertex -7e+1 -7e+1 0e+0
      vertex -6e+1 -6e+1 0e+0
      vertex -7e+1 -6e+1 0e+0
    endloop
  endfacet
endsolidsolid ground
  facet normal 0e+0 0e+0 1e+0
    outer loop
      vertex -6e+1 -6e+1 0e+0
      vertex -5e+1 -6e+1 0e+0
      vertex -5e+1 -5e+1 0e+0
    endloop
  endfacet
  facet normal 0e+0 0e+0 1e+0
    outer loop
      vertex -6e+1 -6e+1 0e+0
      vertex -5e+1 -5e+1 0e+0
      vertex -6e+1 -5e+1 0e+0
    endloop
  endfacet
endsolidsolid ground
  facet normal 0e+0 0e+0 1e+0
    outer loop
      vertex -5e+1 -5e+1 0e+0
      vertex -4e+1 -5e+1 0e+0
      vertex -4e+1 -4e+1 0e+0
    endloop
  endfacet
  facet normal 0e+0 0e+0 1e+0
    outer loop
      vertex -5e+1 -5e+1 0e+0
      vertex -4e+1 -4e+1 0e+0
      vertex -5e+1 -4e+1 0e+0
    endloop
  endfacet
endsolid