solid ground
  facet normal 0e+0 0e+0 -1e+0
    outer loop
      vertex 3e+2 3e+2 0e+0
      vertex 1.5e+2 1.5e+2 0e+0
      vertex 1e+2 3e+2 0e+0
    endloop
  endfacet
  facet normal 0e+0 0e+0 -1e+0
    outer loop
      vertex 1.5e+2 1.5e+2 0e+0
      vertex 1e+2 1e+2 0e+0
      vertex 1e+2 3e+2 0e+0
    endloop
  endfacet
  facet normal 0e+0 0e+0 -1e+0
    outer loop
      vertex 3e+2 1e+2 0e+0
      vertex 1e+2 1e+2 0e+0
      vertex 1.5e+2 1.5e+2 0e+0
    endloop
  endfacet
  facet normal 0e+0 0e+0 -1e+0
    outer loop
      vertex 3e+2 3e+2 0e+0
      vertex 3e+2 1e+2 0e+0
      vertex 1.5e+2 1.5e+2 0e+0
    endloop
  endfacet
endsolid