solid hShape
  facet normal -9.999999999995681e-1 -9.294337417127525e-7 0e+0
    outer loop
      vertex 7.314938702695629e+0 3.3993947656681205e-6 0e+0
      vertex 7.314947449825986e+0 -9.411243432251544e+0 0e+0
      vertex 7.314947449825986e+0 -9.411243432251544e+0 2e+1
    endloop
  endfacet
  facet normal -9.999999999995681e-1 -9.294337417127525e-7 0e+0
    outer loop
      vertex 7.314938702695629e+0 3.3993947656681205e-6 0e+0
      vertex 7.314947449825986e+0 -9.411243432251544e+0 2e+1
      vertex 7.314938702695629e+0 3.3993947656681205e-6 2e+1
    endloop
  endfacet
  facet normal 1.858873777418281e-6 -9.999999999982724e-1 0e+0
    outer loop
      vertex 7.314947449825986e+0 -9.411243432251544e+0 0e+0
      vertex 2.1944842347285306e+1 -9.411216237123552e+0 0e+0
      vertex 2.1944842347285306e+1 -9.411216237123552e+0 2e+1
    endloop
  endfacet
  facet normal 1.858873777418281e-6 -9.999999999982724e-1 0e+0
    outer loop
      vertex 7.314947449825986e+0 -9.411243432251544e+0 0e+0
      vertex 2.1944842347285306e+1 -9.411216237123552e+0 2e+1
      vertex 7.314947449825986e+0 -9.411243432251544e+0 2e+1
    endloop
  endfacet
  facet normal 9.999999999961127e-1 2.7883045940881003e-6 0e+0
    outer loop
      vertex 2.1944842347285306e+1 -9.411216237123552e+0 0e+0
      vertex 2.194481610586253e+1 3.0594552890114854e-5 0e+0
      vertex 2.194481610586253e+1 3.0594552890114854e-5 2e+1
    endloop
  endfacet
  facet normal 9.999999999961127e-1 2.7883045940881003e-6 0e+0
    outer loop
      vertex 2.1944842347285306e+1 -9.411216237123552e+0 0e+0
      vertex 2.194481610586253e+1 3.0594552890114854e-5 2e+1
      vertex 2.1944842347285306e+1 -9.411216237123552e+0 2e+1
    endloop
  endfacet
  facet normal 3.2529882571232226e-6 -9.99999999994709e-1 0e+0
    outer loop
      vertex 2.194481610586253e+1 3.0594552890114854e-5 0e+0
      vertex 2.9259754808520253e+1 5.4389962591562513e-5 0e+0
      vertex 2.9259754808520253e+1 5.4389962591562513e-5 2e+1
    endloop
  endfacet
  facet normal 3.2529882571232226e-6 -9.99999999994709e-1 0e+0
    outer loop
      vertex 2.194481610586253e+1 3.0594552890114854e-5 0e+0
      vertex 2.9259754808520253e+1 5.4389962591562513e-5 2e+1
      vertex 2.194481610586253e+1 3.0594552890114854e-5 2e+1
    endloop
  endfacet
  facet normal -9.999999999930894e-1 -3.717714453318833e-6 0e+0
    outer loop
      vertex 2.9259754808520253e+1 5.4389962591562513e-5 0e+0
      vertex 2.9259894761833728e+1 -3.7644932935316284e+1 0e+0
      vertex 2.9259894761833728e+1 -3.7644932935316284e+1 2e+1
    endloop
  endfacet
  facet normal -9.999999999930894e-1 -3.717714453318833e-6 0e+0
    outer loop
      vertex 2.9259754808520253e+1 5.4389962591562513e-5 0e+0
      vertex 2.9259894761833728e+1 -3.7644932935316284e+1 2e+1
      vertex 2.9259754808520253e+1 5.4389962591562513e-5 2e+1
    endloop
  endfacet
  facet normal -3.2529838326106547e-6 9.99999999994709e-1 0e+0
    outer loop
      vertex 2.9259894761833728e+1 -3.7644932935316284e+1 0e+0
      vertex 2.1944921070928867e+1 -3.7644956730807436e+1 0e+0
      vertex 2.1944921070928867e+1 -3.7644956730807436e+1 2e+1
    endloop
  endfacet
  facet normal -3.2529838326106547e-6 9.99999999994709e-1 0e+0
    outer loop
      vertex 2.9259894761833728e+1 -3.7644932935316284e+1 0e+0
      vertex 2.1944921070928867e+1 -3.7644956730807436e+1 2e+1
      vertex 2.9259894761833728e+1 -3.7644932935316284e+1 2e+1
    endloop
  endfacet
  facet normal 9.999999999961129e-1 2.788247221172691e-6 0e+0
    outer loop
      vertex 2.1944921070928867e+1 -3.7644956730807436e+1 0e+0
      vertex 2.1944894830046042e+1 -2.8233709899638363e+1 0e+0
      vertex 2.1944894830046042e+1 -2.8233709899638363e+1 2e+1
    endloop
  endfacet
  facet normal 9.999999999961129e-1 2.788247221172691e-6 0e+0
    outer loop
      vertex 2.1944921070928867e+1 -3.7644956730807436e+1 0e+0
      vertex 2.1944894830046042e+1 -2.8233709899638363e+1 2e+1
      vertex 2.1944921070928867e+1 -3.7644956730807436e+1 2e+1
    endloop
  endfacet
  facet normal -1.858871254105135e-6 9.999999999982724e-1 0e+0
    outer loop
      vertex 2.1944894830046042e+1 -2.8233709899638363e+1 0e+0
      vertex 7.3149649441024716e+0 -2.8233737094794478e+1 0e+0
      vertex 7.3149649441024716e+0 -2.8233737094794478e+1 2e+1
    endloop
  endfacet
  facet normal -1.858871254105135e-6 9.999999999982724e-1 0e+0
    outer loop
      vertex 2.1944894830046042e+1 -2.8233709899638363e+1 0e+0
      vertex 7.3149649441024716e+0 -2.8233737094794478e+1 2e+1
      vertex 2.1944894830046042e+1 -2.8233709899638363e+1 2e+1
    endloop
  endfacet
  facet normal -9.999999999995681e-1 -9.294114700472287e-7 0e+0
    outer loop
      vertex 7.3149649441024716e+0 -2.8233737094794478e+1 0e+0
      vertex 7.314973691023224e+0 -3.764498392575607e+1 0e+0
      vertex 7.314973691023224e+0 -3.764498392575607e+1 2e+1
    endloop
  endfacet
  facet normal -9.999999999995681e-1 -9.294114700472287e-7 0e+0
    outer loop
      vertex 7.3149649441024716e+0 -2.8233737094794478e+1 0e+0
      vertex 7.314973691023224e+0 -3.764498392575607e+1 2e+1
      vertex 7.3149649441024716e+0 -2.8233737094794478e+1 2e+1
    endloop
  endfacet
  facet normal -4.6471287999620206e-7 9.99999999999892e-1 0e+0
    outer loop
      vertex 7.314973691023224e+0 -3.764498392575607e+1 0e+0
      vertex 4.610181323164913e-15 -3.7644987325118564e+1 0e+0
      vertex 4.610181323164913e-15 -3.7644987325118564e+1 2e+1
    endloop
  endfacet
  facet normal -4.6471287999620206e-7 9.99999999999892e-1 0e+0
    outer loop
      vertex 7.314973691023224e+0 -3.764498392575607e+1 0e+0
      vertex 4.610181323164913e-15 -3.7644987325118564e+1 2e+1
      vertex 7.314973691023224e+0 -3.764498392575607e+1 2e+1
    endloop
  endfacet
  facet normal 9.816394222743818e-1 -1.907460212869924e-1 0e+0
    outer loop
      vertex 4.610181323164913e-15 -3.7644987325118564e+1 0e+0
      vertex 7.314938702695629e+0 3.3993947656681205e-6 0e+0
      vertex 7.314938702695629e+0 3.3993947656681205e-6 2e+1
    endloop
  endfacet
  facet normal 9.816394222743818e-1 -1.907460212869924e-1 0e+0
    outer loop
      vertex 4.610181323164913e-15 -3.7644987325118564e+1 0e+0
      vertex 7.314938702695629e+0 3.3993947656681205e-6 2e+1
      vertex 4.610181323164913e-15 -3.7644987325118564e+1 2e+1
    endloop
  endfacet
  facet normal 0e+0 0e+0 -1e+0
    outer loop
      vertex 7.314947449825986e+0 -9.411243432251544e+0 0e+0
      vertex 4.610181323164913e-15 -3.7644987325118564e+1 0e+0
      vertex 7.314938702695629e+0 3.3993947656681205e-6 0e+0
    endloop
  endfacet
  facet normal 0e+0 0e+0 -1e+0
    outer loop
      vertex 7.3149649441024716e+0 -2.8233737094794478e+1 0e+0
      vertex 4.610181323164913e-15 -3.7644987325118564e+1 0e+0
      vertex 7.314947449825986e+0 -9.411243432251544e+0 0e+0
    endloop
  endfacet
  facet normal 0e+0 0e+0 -1e+0
    outer loop
      vertex 2.1944894830046042e+1 -2.8233709899638363e+1 0e+0
      vertex 7.3149649441024716e+0 -2.8233737094794478e+1 0e+0
      vertex 7.314947449825986e+0 -9.411243432251544e+0 0e+0
    endloop
  endfacet
  facet normal 0e+0 0e+0 -1e+0
    outer loop
      vertex 2.1944894830046042e+1 -2.8233709899638363e+1 0e+0
      vertex 7.314947449825986e+0 -9.411243432251544e+0 0e+0
      vertex 2.1944842347285306e+1 -9.411216237123552e+0 0e+0
    endloop
  endfacet
  facet normal 0e+0 0e+0 -1e+0
    outer loop
      vertex 2.1944894830046042e+1 -2.8233709899638363e+1 0e+0
      vertex 2.1944842347285306e+1 -9.411216237123552e+0 0e+0
      vertex 2.9259894761833728e+1 -3.7644932935316284e+1 0e+0
    endloop
  endfacet
  facet normal 0e+0 0e+0 -1e+0
    outer loop
      vertex 2.9259894761833728e+1 -3.7644932935316284e+1 0e+0
      vertex 2.1944842347285306e+1 -9.411216237123552e+0 0e+0
      vertex 2.9259754808520253e+1 5.4389962591562513e-5 0e+0
    endloop
  endfacet
  facet normal 0e+0 0e+0 -1e+0
    outer loop
      vertex 2.9259754808520253e+1 5.4389962591562513e-5 0e+0
      vertex 2.1944842347285306e+1 -9.411216237123552e+0 0e+0
      vertex 2.194481610586253e+1 3.0594552890114854e-5 0e+0
    endloop
  endfacet
  facet normal 0e+0 0e+0 -1e+0
    outer loop
      vertex 2.9259894761833728e+1 -3.7644932935316284e+1 0e+0
      vertex 2.1944921070928867e+1 -3.7644956730807436e+1 0e+0
      vertex 2.1944894830046042e+1 -2.8233709899638363e+1 0e+0
    endloop
  endfacet
  facet normal 0e+0 0e+0 -1e+0
    outer loop
      vertex 7.314973691023224e+0 -3.764498392575607e+1 0e+0
      vertex 4.610181323164913e-15 -3.7644987325118564e+1 0e+0
      vertex 7.3149649441024716e+0 -2.8233737094794478e+1 0e+0
    endloop
  endfacet
  facet normal 0e+0 0e+0 1e+0
    outer loop
      vertex 7.314938702695629e+0 3.3993947656681205e-6 2e+1
      vertex 4.610181323164913e-15 -3.7644987325118564e+1 2e+1
      vertex 7.314947449825986e+0 -9.411243432251544e+0 2e+1
    endloop
  endfacet
  facet normal 0e+0 0e+0 1e+0
    outer loop
      vertex 7.314947449825986e+0 -9.411243432251544e+0 2e+1
      vertex 4.610181323164913e-15 -3.7644987325118564e+1 2e+1
      vertex 7.3149649441024716e+0 -2.8233737094794478e+1 2e+1
    endloop
  endfacet
  facet normal 0e+0 0e+0 1e+0
    outer loop
      vertex 7.314947449825986e+0 -9.411243432251544e+0 2e+1
      vertex 7.3149649441024716e+0 -2.8233737094794478e+1 2e+1
      vertex 2.1944894830046042e+1 -2.8233709899638363e+1 2e+1
    endloop
  endfacet
  facet normal 0e+0 0e+0 1e+0
    outer loop
      vertex 2.1944842347285306e+1 -9.411216237123552e+0 2e+1
      vertex 7.314947449825986e+0 -9.411243432251544e+0 2e+1
      vertex 2.1944894830046042e+1 -2.8233709899638363e+1 2e+1
    endloop
  endfacet
  facet normal 0e+0 0e+0 1e+0
    outer loop
      vertex 2.9259894761833728e+1 -3.7644932935316284e+1 2e+1
      vertex 2.1944842347285306e+1 -9.411216237123552e+0 2e+1
      vertex 2.1944894830046042e+1 -2.8233709899638363e+1 2e+1
    endloop
  endfacet
  facet normal 0e+0 0e+0 1e+0
    outer loop
      vertex 2.9259754808520253e+1 5.4389962591562513e-5 2e+1
      vertex 2.1944842347285306e+1 -9.411216237123552e+0 2e+1
      vertex 2.9259894761833728e+1 -3.7644932935316284e+1 2e+1
    endloop
  endfacet
  facet normal 0e+0 0e+0 1e+0
    outer loop
      vertex 2.194481610586253e+1 3.0594552890114854e-5 2e+1
      vertex 2.1944842347285306e+1 -9.411216237123552e+0 2e+1
      vertex 2.9259754808520253e+1 5.4389962591562513e-5 2e+1
    endloop
  endfacet
  facet normal 0e+0 0e+0 1e+0
    outer loop
      vertex 2.1944894830046042e+1 -2.8233709899638363e+1 2e+1
      vertex 2.1944921070928867e+1 -3.7644956730807436e+1 2e+1
      vertex 2.9259894761833728e+1 -3.7644932935316284e+1 2e+1
    endloop
  endfacet
  facet normal 0e+0 0e+0 1e+0
    outer loop
      vertex 7.3149649441024716e+0 -2.8233737094794478e+1 2e+1
      vertex 4.610181323164913e-15 -3.7644987325118564e+1 2e+1
      vertex 7.314973691023224e+0 -3.764498392575607e+1 2e+1
    endloop
  endfacet
endsolid