solid hShape
  facet normal 4.647163545702806e-7 -9.99999999999892e-1 0e+0
    outer loop
      vertex 0e+0 0e+0 0e+0
      vertex 7.3149884497747655e+0 3.399394766103404e-6 0e+0
      vertex 7.3149884497747655e+0 3.399394766103404e-6 2e+1
    endloop
  endfacet
  facet normal 4.647163545702806e-7 -9.99999999999892e-1 0e+0
    outer loop
      vertex 0e+0 0e+0 0e+0
      vertex 7.3149884497747655e+0 3.399394766103404e-6 2e+1
      vertex 0e+0 0e+0 2e+1
    endloop
  endfacet
  facet normal 9.999999999995681e-1 9.294266237098753e-7 0e+0
    outer loop
      vertex 7.3149884497747655e+0 3.399394766103404e-6 0e+0
      vertex 7.3149797027113985e+0 9.411250230301802e+0 0e+0
      vertex 7.3149797027113985e+0 9.411250230301802e+0 2e+1
    endloop
  endfacet
  facet normal 9.999999999995681e-1 9.294266237098753e-7 0e+0
    outer loop
      vertex 7.3149884497747655e+0 3.399394766103404e-6 0e+0
      vertex 7.3149797027113985e+0 9.411250230301802e+0 2e+1
      vertex 7.3149884497747655e+0 3.399394766103404e-6 2e+1
    endloop
  endfacet
  facet normal 1.8588465686934083e-6 -9.999999999982724e-1 0e+0
    outer loop
      vertex 7.3149797027113985e+0 9.411250230301802e+0 0e+0
      vertex 2.1944939105977053e+1 9.411277425151638e+0 0e+0
      vertex 2.1944939105977053e+1 9.411277425151638e+0 2e+1
    endloop
  endfacet
  facet normal 1.8588465686934083e-6 -9.999999999982724e-1 0e+0
    outer loop
      vertex 7.3149797027113985e+0 9.411250230301802e+0 0e+0
      vertex 2.1944939105977053e+1 9.411277425151638e+0 2e+1
      vertex 7.3149797027113985e+0 9.411250230301802e+0 2e+1
    endloop
  endfacet
  facet normal -9.999999999961127e-1 -2.788272728031917e-6 0e+0
    outer loop
      vertex 2.1944939105977053e+1 9.411277425151638e+0 0e+0
      vertex 2.1944965347099927e+1 3.0594552889159666e-5 0e+0
      vertex 2.1944965347099927e+1 3.0594552889159666e-5 2e+1
    endloop
  endfacet
  facet normal -9.999999999961127e-1 -2.788272728031917e-6 0e+0
    outer loop
      vertex 2.1944939105977053e+1 9.411277425151638e+0 0e+0
      vertex 2.1944965347099927e+1 3.0594552889159666e-5 2e+1
      vertex 2.1944939105977053e+1 9.411277425151638e+0 2e+1
    endloop
  endfacet
  facet normal 3.2529177872710527e-6 -9.999999999947092e-1 0e+0
    outer loop
      vertex 2.1944965347099927e+1 3.0594552889159666e-5 0e+0
      vertex 2.9259953796836786e+1 5.438960893111689e-5 0e+0
      vertex 2.9259953796836786e+1 5.438960893111689e-5 2e+1
    endloop
  endfacet
  facet normal 3.2529177872710527e-6 -9.999999999947092e-1 0e+0
    outer loop
      vertex 2.1944965347099927e+1 3.0594552889159666e-5 0e+0
      vertex 2.9259953796836786e+1 5.438960893111689e-5 2e+1
      vertex 2.1944965347099927e+1 3.0594552889159666e-5 2e+1
    endloop
  endfacet
  facet normal 9.999999999930894e-1 3.717695145254898e-6 0e+0
    outer loop
      vertex 2.9259953796836786e+1 5.438960893111689e-5 0e+0
      vertex 2.9259813844250164e+1 3.7645041714505275e+1 0e+0
      vertex 2.9259813844250164e+1 3.7645041714505275e+1 2e+1
    endloop
  endfacet
  facet normal 9.999999999930894e-1 3.717695145254898e-6 0e+0
    outer loop
      vertex 2.9259953796836786e+1 5.438960893111689e-5 0e+0
      vertex 2.9259813844250164e+1 3.7645041714505275e+1 2e+1
      vertex 2.9259953796836786e+1 5.438960893111689e-5 2e+1
    endloop
  endfacet
  facet normal -3.252966028881417e-6 9.999999999947092e-1 0e+0
    outer loop
      vertex 2.9259813844250164e+1 3.7645041714505275e+1 0e+0
      vertex 2.194486038255435e+1 3.764501791921016e+1 0e+0
      vertex 2.194486038255435e+1 3.764501791921016e+1 2e+1
    endloop
  endfacet
  facet normal -3.252966028881417e-6 9.999999999947092e-1 0e+0
    outer loop
      vertex 2.9259813844250164e+1 3.7645041714505275e+1 0e+0
      vertex 2.194486038255435e+1 3.764501791921016e+1 2e+1
      vertex 2.9259813844250164e+1 3.7645041714505275e+1 2e+1
    endloop
  endfacet
  facet normal -9.999999999961127e-1 -2.788294552873052e-6 0e+0
    outer loop
      vertex 2.194486038255435e+1 3.764501791921016e+1 0e+0
      vertex 2.1944886623882624e+1 2.823377108819023e+1 0e+0
      vertex 2.1944886623882624e+1 2.823377108819023e+1 2e+1
    endloop
  endfacet
  facet normal -9.999999999961127e-1 -2.788294552873052e-6 0e+0
    outer loop
      vertex 2.194486038255435e+1 3.764501791921016e+1 0e+0
      vertex 2.1944886623882624e+1 2.823377108819023e+1 2e+1
      vertex 2.194486038255435e+1 3.764501791921016e+1 2e+1
    endloop
  endfacet
  facet normal -1.8588406864067741e-6 9.999999999982724e-1 0e+0
    outer loop
      vertex 2.1944886623882624e+1 2.823377108819023e+1 0e+0
      vertex 7.314962208834206e+0 2.823374389349149e+1 0e+0
      vertex 7.314962208834206e+0 2.823374389349149e+1 2e+1
    endloop
  endfacet
  facet normal -1.8588406864067741e-6 9.999999999982724e-1 0e+0
    outer loop
      vertex 2.1944886623882624e+1 2.823377108819023e+1 0e+0
      vertex 7.314962208834206e+0 2.823374389349149e+1 2e+1
      vertex 2.1944886623882624e+1 2.823377108819023e+1 2e+1
    endloop
  endfacet
  facet normal 9.999999999995681e-1 9.29436056024102e-7 0e+0
    outer loop
      vertex 7.314962208834206e+0 2.823374389349149e+1 0e+0
      vertex 7.3149534616820695e+0 3.7644990724444746e+1 0e+0
      vertex 7.3149534616820695e+0 3.7644990724444746e+1 2e+1
    endloop
  endfacet
  facet normal 9.999999999995681e-1 9.29436056024102e-7 0e+0
    outer loop
      vertex 7.314962208834206e+0 2.823374389349149e+1 0e+0
      vertex 7.3149534616820695e+0 3.7644990724444746e+1 2e+1
      vertex 7.314962208834206e+0 2.823374389349149e+1 2e+1
    endloop
  endfacet
  facet normal -4.647092015177877e-7 9.99999999999892e-1 0e+0
    outer loop
      vertex 7.3149534616820695e+0 3.7644990724444746e+1 0e+0
      vertex 0e+0 3.7644987325118564e+1 0e+0
      vertex 0e+0 3.7644987325118564e+1 2e+1
    endloop
  endfacet
  facet normal -4.647092015177877e-7 9.99999999999892e-1 0e+0
    outer loop
      vertex 7.3149534616820695e+0 3.7644990724444746e+1 0e+0
      vertex 0e+0 3.7644987325118564e+1 2e+1
      vertex 7.3149534616820695e+0 3.7644990724444746e+1 2e+1
    endloop
  endfacet
  facet normal -1e+0 0e+0 0e+0
    outer loop
      vertex 0e+0 3.7644987325118564e+1 0e+0
      vertex 0e+0 0e+0 0e+0
      vertex 0e+0 0e+0 2e+1
    endloop
  endfacet
  facet normal -1e+0 0e+0 0e+0
    outer loop
      vertex 0e+0 3.7644987325118564e+1 0e+0
      vertex 0e+0 0e+0 2e+1
      vertex 0e+0 3.7644987325118564e+1 2e+1
    endloop
  endfacet
  facet normal 0e+0 0e+0 -1e+0
    outer loop
      vertex 7.314962208834206e+0 2.823374389349149e+1 0e+0
      vertex 0e+0 3.7644987325118564e+1 0e+0
      vertex 7.3149534616820695e+0 3.7644990724444746e+1 0e+0
    endloop
  endfacet
  facet normal 0e+0 0e+0 -1e+0
    outer loop
      vertex 7.314962208834206e+0 2.823374389349149e+1 0e+0
      vertex 0e+0 0e+0 0e+0
      vertex 0e+0 3.7644987325118564e+1 0e+0
    endloop
  endfacet
  facet normal 0e+0 0e+0 -1e+0
    outer loop
      vertex 7.3149797027113985e+0 9.411250230301802e+0 0e+0
      vertex 0e+0 0e+0 0e+0
      vertex 7.314962208834206e+0 2.823374389349149e+1 0e+0
    endloop
  endfacet
  facet normal 0e+0 0e+0 -1e+0
    outer loop
      vertex 2.1944939105977053e+1 9.411277425151638e+0 0e+0
      vertex 7.3149797027113985e+0 9.411250230301802e+0 0e+0
      vertex 7.314962208834206e+0 2.823374389349149e+1 0e+0
    endloop
  endfacet
  facet normal 0e+0 0e+0 -1e+0
    outer loop
      vertex 2.1944939105977053e+1 9.411277425151638e+0 0e+0
      vertex 7.314962208834206e+0 2.823374389349149e+1 0e+0
      vertex 2.1944886623882624e+1 2.823377108819023e+1 0e+0
    endloop
  endfacet
  facet normal 0e+0 0e+0 -1e+0
    outer loop
      vertex 2.1944939105977053e+1 9.411277425151638e+0 0e+0
      vertex 2.1944886623882624e+1 2.823377108819023e+1 0e+0
      vertex 2.9259953796836786e+1 5.438960893111689e-5 0e+0
    endloop
  endfacet
  facet normal 0e+0 0e+0 -1e+0
    outer loop
      vertex 2.9259953796836786e+1 5.438960893111689e-5 0e+0
      vertex 2.1944886623882624e+1 2.823377108819023e+1 0e+0
      vertex 2.9259813844250164e+1 3.7645041714505275e+1 0e+0
    endloop
  endfacet
  facet normal 0e+0 0e+0 -1e+0
    outer loop
      vertex 2.9259813844250164e+1 3.7645041714505275e+1 0e+0
      vertex 2.1944886623882624e+1 2.823377108819023e+1 0e+0
      vertex 2.194486038255435e+1 3.764501791921016e+1 0e+0
    endloop
  endfacet
  facet normal 0e+0 0e+0 -1e+0
    outer loop
      vertex 2.9259953796836786e+1 5.438960893111689e-5 0e+0
      vertex 2.1944965347099927e+1 3.0594552889159666e-5 0e+0
      vertex 2.1944939105977053e+1 9.411277425151638e+0 0e+0
    endloop
  endfacet
  facet normal 0e+0 0e+0 -1e+0
    outer loop
      vertex 7.3149884497747655e+0 3.399394766103404e-6 0e+0
      vertex 0e+0 0e+0 0e+0
      vertex 7.3149797027113985e+0 9.411250230301802e+0 0e+0
    endloop
  endfacet
  facet normal 0e+0 0e+0 1e+0
    outer loop
      vertex 7.3149534616820695e+0 3.7644990724444746e+1 2e+1
      vertex 0e+0 3.7644987325118564e+1 2e+1
      vertex 7.314962208834206e+0 2.823374389349149e+1 2e+1
    endloop
  endfacet
  facet normal 0e+0 0e+0 1e+0
    outer loop
      vertex 0e+0 3.7644987325118564e+1 2e+1
      vertex 0e+0 0e+0 2e+1
      vertex 7.314962208834206e+0 2.823374389349149e+1 2e+1
    endloop
  endfacet
  facet normal 0e+0 0e+0 1e+0
    outer loop
      vertex 7.314962208834206e+0 2.823374389349149e+1 2e+1
      vertex 0e+0 0e+0 2e+1
      vertex 7.3149797027113985e+0 9.411250230301802e+0 2e+1
    endloop
  endfacet
  facet normal 0e+0 0e+0 1e+0
    outer loop
      vertex 7.314962208834206e+0 2.823374389349149e+1 2e+1
      vertex 7.3149797027113985e+0 9.411250230301802e+0 2e+1
      vertex 2.1944939105977053e+1 9.411277425151638e+0 2e+1
    endloop
  endfacet
  facet normal 0e+0 0e+0 1e+0
    outer loop
      vertex 2.1944886623882624e+1 2.823377108819023e+1 2e+1
      vertex 7.314962208834206e+0 2.823374389349149e+1 2e+1
      vertex 2.1944939105977053e+1 9.411277425151638e+0 2e+1
    endloop
  endfacet
  facet normal 0e+0 0e+0 1e+0
    outer loop
      vertex 2.9259953796836786e+1 5.438960893111689e-5 2e+1
      vertex 2.1944886623882624e+1 2.823377108819023e+1 2e+1
      vertex 2.1944939105977053e+1 9.411277425151638e+0 2e+1
    endloop
  endfacet
  facet normal 0e+0 0e+0 1e+0
    outer loop
      vertex 2.9259813844250164e+1 3.7645041714505275e+1 2e+1
      vertex 2.1944886623882624e+1 2.823377108819023e+1 2e+1
      vertex 2.9259953796836786e+1 5.438960893111689e-5 2e+1
    endloop
  endfacet
  facet normal 0e+0 0e+0 1e+0
    outer loop
      vertex 2.194486038255435e+1 3.764501791921016e+1 2e+1
      vertex 2.1944886623882624e+1 2.823377108819023e+1 2e+1
      vertex 2.9259813844250164e+1 3.7645041714505275e+1 2e+1
    endloop
  endfacet
  facet normal 0e+0 0e+0 1e+0
    outer loop
      vertex 2.1944939105977053e+1 9.411277425151638e+0 2e+1
      vertex 2.1944965347099927e+1 3.0594552889159666e-5 2e+1
      vertex 2.9259953796836786e+1 5.438960893111689e-5 2e+1
    endloop
  endfacet
  facet normal 0e+0 0e+0 1e+0
    outer loop
      vertex 7.3149797027113985e+0 9.411250230301802e+0 2e+1
      vertex 0e+0 0e+0 2e+1
      vertex 7.3149884497747655e+0 3.399394766103404e-6 2e+1
    endloop
  endfacet
endsolid