solid lShape
  facet normal 1.3941500696720802e-6 -9.999999999990281e-1 0e+0
    outer loop
      vertex 0e+0 0e+0 0e+0
      vertex 2.1944949511141402e+1 3.0594552889937804e-5 0e+0
      vertex 2.1944949511141402e+1 3.0594552889937804e-5 2e+1
    endloop
  endfacet
  facet normal 1.3941500696720802e-6 -9.999999999990281e-1 0e+0
    outer loop
      vertex 0e+0 0e+0 0e+0
      vertex 2.1944949511141402e+1 3.0594552889937804e-5 2e+1
      vertex 0e+0 0e+0 2e+1
    endloop
  endfacet
  facet normal 9.999999999961127e-1 2.7882791257706454e-6 0e+0
    outer loop
      vertex 2.1944949511141402e+1 3.0594552889937804e-5 0e+0
      vertex 2.1944897028775227e+1 1.8822524257521696e+1 0e+0
      vertex 2.1944897028775227e+1 1.8822524257521696e+1 2e+1
    endloop
  endfacet
  facet normal 9.999999999961127e-1 2.7882791257706454e-6 0e+0
    outer loop
      vertex 2.1944949511141402e+1 3.0594552889937804e-5 0e+0
      vertex 2.1944897028775227e+1 1.8822524257521696e+1 2e+1
      vertex 2.1944949511141402e+1 3.0594552889937804e-5 2e+1
    endloop
  endfacet
  facet normal -2.323557763354645e-6 9.999999999973006e-1 0e+0
    outer loop
      vertex 2.1944897028775227e+1 1.8822524257521696e+1 0e+0
      vertex 1.4629931351713136e+1 1.882250726077641e+1 0e+0
      vertex 1.4629931351713136e+1 1.882250726077641e+1 2e+1
    endloop
  endfacet
  facet normal -2.323557763354645e-6 9.999999999973006e-1 0e+0
    outer loop
      vertex 2.1944897028775227e+1 1.8822524257521696e+1 0e+0
      vertex 1.4629931351713136e+1 1.882250726077641e+1 2e+1
      vertex 2.1944897028775227e+1 1.8822524257521696e+1 2e+1
    endloop
  endfacet
  facet normal 9.999999999982724e-1 1.858853173078947e-6 0e+0
    outer loop
      vertex 1.4629931351713136e+1 1.882250726077641e+1 0e+0
      vertex 1.4629896363461066e+1 3.7645000923258166e+1 0e+0
      vertex 1.4629896363461066e+1 3.7645000923258166e+1 2e+1
    endloop
  endfacet
  facet normal 9.999999999982724e-1 1.858853173078947e-6 0e+0
    outer loop
      vertex 1.4629931351713136e+1 1.882250726077641e+1 0e+0
      vertex 1.4629896363461066e+1 3.7645000923258166e+1 2e+1
      vertex 1.4629931351713136e+1 1.882250726077641e+1 2e+1
    endloop
  endfacet
  facet normal -9.294277923085361e-7 9.999999999995681e-1 0e+0
    outer loop
      vertex 1.4629896363461066e+1 3.7645000923258166e+1 0e+0
      vertex 0e+0 3.764498732582589e+1 0e+0
      vertex 0e+0 3.764498732582589e+1 2e+1
    endloop
  endfacet
  facet normal -9.294277923085361e-7 9.999999999995681e-1 0e+0
    outer loop
      vertex 1.4629896363461066e+1 3.7645000923258166e+1 0e+0
      vertex 0e+0 3.764498732582589e+1 2e+1
      vertex 1.4629896363461066e+1 3.7645000923258166e+1 2e+1
    endloop
  endfacet
  facet normal -1e+0 0e+0 0e+0
    outer loop
      vertex 0e+0 3.764498732582589e+1 0e+0
      vertex 0e+0 0e+0 0e+0
      vertex 0e+0 0e+0 2e+1
    endloop
  endfacet
  facet normal -1e+0 0e+0 0e+0
    outer loop
      vertex 0e+0 3.764498732582589e+1 0e+0
      vertex 0e+0 0e+0 2e+1
      vertex 0e+0 3.764498732582589e+1 2e+1
    endloop
  endfacet
  facet normal 0e+0 0e+0 -1e+0
    outer loop
      vertex 1.4629931351713136e+1 1.882250726077641e+1 0e+0
      vertex 0e+0 3.764498732582589e+1 0e+0
      vertex 1.4629896363461066e+1 3.7645000923258166e+1 0e+0
    endloop
  endfacet
  facet normal 0e+0 0e+0 -1e+0
    outer loop
      vertex 1.4629931351713136e+1 1.882250726077641e+1 0e+0
      vertex 0e+0 0e+0 0e+0
      vertex 0e+0 3.764498732582589e+1 0e+0
    endloop
  endfacet
  facet normal 0e+0 0e+0 -1e+0
    outer loop
      vertex 2.1944949511141402e+1 3.0594552889937804e-5 0e+0
      vertex 0e+0 0e+0 0e+0
      vertex 1.4629931351713136e+1 1.882250726077641e+1 0e+0
    endloop
  endfacet
  facet normal 0e+0 0e+0 -1e+0
    outer loop
      vertex 2.1944949511141402e+1 3.0594552889937804e-5 0e+0
      vertex 1.4629931351713136e+1 1.882250726077641e+1 0e+0
      vertex 2.1944897028775227e+1 1.8822524257521696e+1 0e+0
    endloop
  endfacet
  facet normal 0e+0 0e+0 1e+0
    outer loop
      vertex 1.4629896363461066e+1 3.7645000923258166e+1 2e+1
      vertex 0e+0 3.764498732582589e+1 2e+1
      vertex 1.4629931351713136e+1 1.882250726077641e+1 2e+1
    endloop
  endfacet
  facet normal 0e+0 0e+0 1e+0
    outer loop
      vertex 0e+0 3.764498732582589e+1 2e+1
      vertex 0e+0 0e+0 2e+1
      vertex 1.4629931351713136e+1 1.882250726077641e+1 2e+1
    endloop
  endfacet
  facet normal 0e+0 0e+0 1e+0
    outer loop
      vertex 1.4629931351713136e+1 1.882250726077641e+1 2e+1
      vertex 0e+0 0e+0 2e+1
      vertex 2.1944949511141402e+1 3.0594552889937804e-5 2e+1
    endloop
  endfacet
  facet normal 0e+0 0e+0 1e+0
    outer loop
      vertex 2.1944897028775227e+1 1.8822524257521696e+1 2e+1
      vertex 1.4629931351713136e+1 1.882250726077641e+1 2e+1
      vertex 2.1944949511141402e+1 3.0594552889937804e-5 2e+1
    endloop
  endfacet
endsolid