solid materialRectangle
  facet normal 0 -1 0
    outer loop
      vertex -10 -10 0
      vertex -6.666666666666666 -10 0
      vertex -6.666666666666666 -10 1.875
    endloop
  endfacet
  facet normal 0 -1 0
    outer loop
      vertex -10 -10 0
      vertex -6.666666666666666 -10 1.875
      vertex -10 -10 1.875
    endloop
  endfacet
  facet normal 0 -1 0
    outer loop
      vertex -10 -10 1.875
      vertex -6.666666666666666 -10 1.875
      vertex -6.666666666666666 -10 3.125
    endloop
  endfacet
  facet normal 0 -1 0
    outer loop
      vertex -10 -10 1.875
      vertex -6.666666666666666 -10 3.125
      vertex -10 -10 3.125
    endloop
  endfacet
  facet normal 0 -1 0
    outer loop
      vertex -10 -10 3.125
      vertex -6.666666666666666 -10 3.125
      vertex -6.666666666666666 -10 5
    endloop
  endfacet
  facet normal 0 -1 0
    outer loop
      vertex -10 -10 3.125
      vertex -6.666666666666666 -10 5
      vertex -10 -10 5
    endloop
  endfacet
  facet normal 0 -1 0
    outer loop
      vertex -6.666666666666666 -10 0
      vertex -3.333333333333333 -10 0
      vertex -3.333333333333333 -10 1.875
    endloop
  endfacet
  facet normal 0 -1 0
    outer loop
      vertex -6.666666666666666 -10 0
      vertex -3.333333333333333 -10 1.875
      vertex -6.666666666666666 -10 1.875
    endloop
  endfacet
  facet normal 0 -1 0
    outer loop
      vertex -6.666666666666666 -10 1.875
      vertex -3.333333333333333 -10 1.875
      vertex -3.333333333333333 -10 3.125
    endloop
  endfacet
  facet normal 0 -1 0
    outer loop
      vertex -6.666666666666666 -10 1.875
      vertex -3.333333333333333 -10 3.125
      vertex -6.666666666666666 -10 3.125
    endloop
  endfacet
  facet normal 0 -1 0
    outer loop
      vertex -6.666666666666666 -10 3.125
      vertex -3.333333333333333 -10 3.125
      vertex -3.333333333333333 -10 5
    endloop
  endfacet
  facet normal 0 -1 0
    outer loop
      vertex -6.666666666666666 -10 3.125
      vertex -3.333333333333333 -10 5
      vertex -6.666666666666666 -10 5
    endloop
  endfacet
  facet normal 0 -1 0
    outer loop
      vertex -3.333333333333333 -10 0
      vertex 0 -10 0
      vertex 0 -10 1.875
    endloop
  endfacet
  facet normal 0 -1 0
    outer loop
      vertex -3.333333333333333 -10 0
      vertex 0 -10 1.875
      vertex -3.333333333333333 -10 1.875
    endloop
  endfacet
  facet normal 0 -1 0
    outer loop
      vertex -3.333333333333333 -10 1.875
      vertex 0 -10 1.875
      vertex 0 -10 3.125
    endloop
  endfacet
  facet normal 0 -1 0
    outer loop
      vertex -3.333333333333333 -10 1.875
      vertex 0 -10 3.125
      vertex -3.333333333333333 -10 3.125
    endloop
  endfacet
  facet normal 0 -1 0
    outer loop
      vertex -3.333333333333333 -10 3.125
      vertex 0 -10 3.125
      vertex 0 -10 5
    endloop
  endfacet
  facet normal 0 -1 0
    outer loop
      vertex -3.333333333333333 -10 3.125
      vertex 0 -10 5
      vertex -3.333333333333333 -10 5
    endloop
  endfacet
  facet normal 0 -1 0
    outer loop
      vertex 0 -10 0
      vertex 3.333333333333334 -10 0
      vertex 3.333333333333334 -10 1.875
    endloop
  endfacet
  facet normal 0 -1 0
    outer loop
      vertex 0 -10 0
      vertex 3.333333333333334 -10 1.875
      vertex 0 -10 1.875
    endloop
  endfacet
  facet normal 0 -1 0
    outer loop
      vertex 0 -10 1.875
      vertex 3.333333333333334 -10 1.875
      vertex 3.333333333333334 -10 3.125
    endloop
  endfacet
  facet normal 0 -1 0
    outer loop
      vertex 0 -10 1.875
      vertex 3.333333333333334 -10 3.125
      vertex 0 -10 3.125
    endloop
  endfacet
  facet normal 0 -1 0
    outer loop
      vertex 0 -10 3.125
      vertex 3.333333333333334 -10 3.125
      vertex 3.333333333333334 -10 5
    endloop
  endfacet
  facet normal 0 -1 0
    outer loop
      vertex 0 -10 3.125
      vertex 3.333333333333334 -10 5
      vertex 0 -10 5
    endloop
  endfacet
  facet normal 0 -1 0
    outer loop
      vertex 3.333333333333334 -10 0
      vertex 6.666666666666668 -10 0
      vertex 6.666666666666668 -10 1.875
    endloop
  endfacet
  facet normal 0 -1 0
    outer loop
      vertex 3.333333333333334 -10 0
      vertex 6.666666666666668 -10 1.875
      vertex 3.333333333333334 -10 1.875
    endloop
  endfacet
  facet normal 0 -1 0
    outer loop
      vertex 3.333333333333334 -10 1.875
      vertex 6.666666666666668 -10 1.875
      vertex 6.666666666666668 -10 3.125
    endloop
  endfacet
  facet normal 0 -1 0
    outer loop
      vertex 3.333333333333334 -10 1.875
      vertex 6.666666666666668 -10 3.125
      vertex 3.333333333333334 -10 3.125
    endloop
  endfacet
  facet normal 0 -1 0
    outer loop
      vertex 3.333333333333334 -10 3.125
      vertex 6.666666666666668 -10 3.125
      vertex 6.666666666666668 -10 5
    endloop
  endfacet
  facet normal 0 -1 0
    outer loop
      vertex 3.333333333333334 -10 3.125
      vertex 6.666666666666668 -10 5
      vertex 3.333333333333334 -10 5
    endloop
  endfacet
  facet normal 0 -1 0
    outer loop
      vertex 6.666666666666668 -10 0
      vertex 10 -10 0
      vertex 10 -10 1.875
    endloop
  endfacet
  facet normal 0 -1 0
    outer loop
      vertex 6.666666666666668 -10 0
      vertex 10 -10 1.875
      vertex 6.666666666666668 -10 1.875
    endloop
  endfacet
  facet normal 0 -1 0
    outer loop
      vertex 6.666666666666668 -10 1.875
      vertex 10 -10 1.875
      vertex 10 -10 3.125
    endloop
  endfacet
  facet normal 0 -1 0
    outer loop
      vertex 6.666666666666668 -10 1.875
      vertex 10 -10 3.125
      vertex 6.666666666666668 -10 3.125
    endloop
  endfacet
  facet normal 0 -1 0
    outer loop
      vertex 6.666666666666668 -10 3.125
      vertex 10 -10 3.125
      vertex 10 -10 5
    endloop
  endfacet
  facet normal 0 -1 0
    outer loop
      vertex 6.666666666666668 -10 3.125
      vertex 10 -10 5
      vertex 6.666666666666668 -10 5
    endloop
  endfacet
  facet normal 0 -1 0
    outer loop
      vertex -10 -10 5
      vertex -6.666666666666666 -10 5
      vertex -6.666666666666666 -10 6.875
    endloop
  endfacet
  facet normal 0 -1 0
    outer loop
      vertex -10 -10 5
      vertex -6.666666666666666 -10 6.875
      vertex -10 -10 6.875
    endloop
  endfacet
  facet normal 0 -1 0
    outer loop
      vertex -10 -10 6.875
      vertex -6.666666666666666 -10 6.875
      vertex -6.666666666666666 -10 8.125
    endloop
  endfacet
  facet normal 0 -1 0
    outer loop
      vertex -10 -10 6.875
      vertex -6.666666666666666 -10 8.125
      vertex -10 -10 8.125
    endloop
  endfacet
  facet normal 0 -1 0
    outer loop
      vertex -10 -10 8.125
      vertex -6.666666666666666 -10 8.125
      vertex -6.666666666666666 -10 10
    endloop
  endfacet
  facet normal 0 -1 0
    outer loop
      vertex -10 -10 8.125
      vertex -6.666666666666666 -10 10
      vertex -10 -10 10
    endloop
  endfacet
  facet normal 0 -1 0
    outer loop
      vertex -6.666666666666666 -10 5
      vertex -3.333333333333333 -10 5
      vertex -3.333333333333333 -10 6.875
    endloop
  endfacet
  facet normal 0 -1 0
    outer loop
      vertex -6.666666666666666 -10 5
      vertex -3.333333333333333 -10 6.875
      vertex -6.666666666666666 -10 6.875
    endloop
  endfacet
  facet normal 0 -1 0
    outer loop
      vertex -6.666666666666666 -10 6.875
      vertex -3.333333333333333 -10 6.875
      vertex -3.333333333333333 -10 8.125
    endloop
  endfacet
  facet normal 0 -1 0
    outer loop
      vertex -6.666666666666666 -10 6.875
      vertex -3.333333333333333 -10 8.125
      vertex -6.666666666666666 -10 8.125
    endloop
  endfacet
  facet normal 0 -1 0
    outer loop
      vertex -6.666666666666666 -10 8.125
      vertex -3.333333333333333 -10 8.125
      vertex -3.333333333333333 -10 10
    endloop
  endfacet
  facet normal 0 -1 0
    outer loop
      vertex -6.666666666666666 -10 8.125
      vertex -3.333333333333333 -10 10
      vertex -6.666666666666666 -10 10
    endloop
  endfacet
  facet normal 0 -1 0
    outer loop
      vertex -3.333333333333333 -10 5
      vertex 0 -10 5
      vertex 0 -10 6.875
    endloop
  endfacet
  facet normal 0 -1 0
    outer loop
      vertex -3.333333333333333 -10 5
      vertex 0 -10 6.875
      vertex -3.333333333333333 -10 6.875
    endloop
  endfacet
  facet normal 0 -1 0
    outer loop
      vertex -3.333333333333333 -10 6.875
      vertex 0 -10 6.875
      vertex 0 -10 8.125
    endloop
  endfacet
  facet normal 0 -1 0
    outer loop
      vertex -3.333333333333333 -10 6.875
      vertex 0 -10 8.125
      vertex -3.333333333333333 -10 8.125
    endloop
  endfacet
  facet normal 0 -1 0
    outer loop
      vertex -3.333333333333333 -10 8.125
      vertex 0 -10 8.125
      vertex 0 -10 10
    endloop
  endfacet
  facet normal 0 -1 0
    outer loop
      vertex -3.333333333333333 -10 8.125
      vertex 0 -10 10
      vertex -3.333333333333333 -10 10
    endloop
  endfacet
  facet normal 0 -1 0
    outer loop
      vertex 0 -10 5
      vertex 3.333333333333334 -10 5
      vertex 3.333333333333334 -10 6.875
    endloop
  endfacet
  facet normal 0 -1 0
    outer loop
      vertex 0 -10 5
      vertex 3.333333333333334 -10 6.875
      vertex 0 -10 6.875
    endloop
  endfacet
  facet normal 0 -1 0
    outer loop
      vertex 0 -10 6.875
      vertex 3.333333333333334 -10 6.875
      vertex 3.333333333333334 -10 8.125
    endloop
  endfacet
  facet normal 0 -1 0
    outer loop
      vertex 0 -10 6.875
      vertex 3.333333333333334 -10 8.125
      vertex 0 -10 8.125
    endloop
  endfacet
  facet normal 0 -1 0
    outer loop
      vertex 0 -10 8.125
      vertex 3.333333333333334 -10 8.125
      vertex 3.333333333333334 -10 10
    endloop
  endfacet
  facet normal 0 -1 0
    outer loop
      vertex 0 -10 8.125
      vertex 3.333333333333334 -10 10
      vertex 0 -10 10
    endloop
  endfacet
  facet normal 0 -1 0
    outer loop
      vertex 3.333333333333334 -10 5
      vertex 6.666666666666668 -10 5
      vertex 6.666666666666668 -10 6.875
    endloop
  endfacet
  facet normal 0 -1 0
    outer loop
      vertex 3.333333333333334 -10 5
      vertex 6.666666666666668 -10 6.875
      vertex 3.333333333333334 -10 6.875
    endloop
  endfacet
  facet normal 0 -1 0
    outer loop
      vertex 3.333333333333334 -10 6.875
      vertex 6.666666666666668 -10 6.875
      vertex 6.666666666666668 -10 8.125
    endloop
  endfacet
  facet normal 0 -1 0
    outer loop
      vertex 3.333333333333334 -10 6.875
      vertex 6.666666666666668 -10 8.125
      vertex 3.333333333333334 -10 8.125
    endloop
  endfacet
  facet normal 0 -1 0
    outer loop
      vertex 3.333333333333334 -10 8.125
      vertex 6.666666666666668 -10 8.125
      vertex 6.666666666666668 -10 10
    endloop
  endfacet
  facet normal 0 -1 0
    outer loop
      vertex 3.333333333333334 -10 8.125
      vertex 6.666666666666668 -10 10
      vertex 3.333333333333334 -10 10
    endloop
  endfacet
  facet normal 0 -1 0
    outer loop
      vertex 6.666666666666668 -10 5
      vertex 10 -10 5
      vertex 10 -10 6.875
    endloop
  endfacet
  facet normal 0 -1 0
    outer loop
      vertex 6.666666666666668 -10 5
      vertex 10 -10 6.875
      vertex 6.666666666666668 -10 6.875
    endloop
  endfacet
  facet normal 0 -1 0
    outer loop
      vertex 6.666666666666668 -10 6.875
      vertex 10 -10 6.875
      vertex 10 -10 8.125
    endloop
  endfacet
  facet normal 0 -1 0
    outer loop
      vertex 6.666666666666668 -10 6.875
      vertex 10 -10 8.125
      vertex 6.666666666666668 -10 8.125
    endloop
  endfacet
  facet normal 0 -1 0
    outer loop
      vertex 6.666666666666668 -10 8.125
      vertex 10 -10 8.125
      vertex 10 -10 10
    endloop
  endfacet
  facet normal 0 -1 0
    outer loop
      vertex 6.666666666666668 -10 8.125
      vertex 10 -10 10
      vertex 6.666666666666668 -10 10
    endloop
  endfacet
  facet normal 0 -1 0
    outer loop
      vertex -10 -10 10
      vertex -6.666666666666666 -10 10
      vertex -6.666666666666666 -10 11.875
    endloop
  endfacet
  facet normal 0 -1 0
    outer loop
      vertex -10 -10 10
      vertex -6.666666666666666 -10 11.875
      vertex -10 -10 11.875
    endloop
  endfacet
  facet normal 0 -1 0
    outer loop
      vertex -10 -10 11.875
      vertex -6.666666666666666 -10 11.875
      vertex -6.666666666666666 -10 13.125
    endloop
  endfacet
  facet normal 0 -1 0
    outer loop
      vertex -10 -10 11.875
      vertex -6.666666666666666 -10 13.125
      vertex -10 -10 13.125
    endloop
  endfacet
  facet normal 0 -1 0
    outer loop
      vertex -10 -10 13.125
      vertex -6.666666666666666 -10 13.125
      vertex -6.666666666666666 -10 15
    endloop
  endfacet
  facet normal 0 -1 0
    outer loop
      vertex -10 -10 13.125
      vertex -6.666666666666666 -10 15
      vertex -10 -10 15
    endloop
  endfacet
  facet normal 0 -1 0
    outer loop
      vertex -6.666666666666666 -10 10
      vertex -3.333333333333333 -10 10
      vertex -3.333333333333333 -10 11.875
    endloop
  endfacet
  facet normal 0 -1 0
    outer loop
      vertex -6.666666666666666 -10 10
      vertex -3.333333333333333 -10 11.875
      vertex -6.666666666666666 -10 11.875
    endloop
  endfacet
  facet normal 0 -1 0
    outer loop
      vertex -6.666666666666666 -10 11.875
      vertex -3.333333333333333 -10 11.875
      vertex -3.333333333333333 -10 13.125
    endloop
  endfacet
  facet normal 0 -1 0
    outer loop
      vertex -6.666666666666666 -10 11.875
      vertex -3.333333333333333 -10 13.125
      vertex -6.666666666666666 -10 13.125
    endloop
  endfacet
  facet normal 0 -1 0
    outer loop
      vertex -6.666666666666666 -10 13.125
      vertex -3.333333333333333 -10 13.125
      vertex -3.333333333333333 -10 15
    endloop
  endfacet
  facet normal 0 -1 0
    outer loop
      vertex -6.666666666666666 -10 13.125
      vertex -3.333333333333333 -10 15
      vertex -6.666666666666666 -10 15
    endloop
  endfacet
  facet normal 0 -1 0
    outer loop
      vertex -3.333333333333333 -10 10
      vertex 0 -10 10
      vertex 0 -10 11.875
    endloop
  endfacet
  facet normal 0 -1 0
    outer loop
      vertex -3.333333333333333 -10 10
      vertex 0 -10 11.875
      vertex -3.333333333333333 -10 11.875
    endloop
  endfacet
  facet normal 0 -1 0
    outer loop
      vertex -3.333333333333333 -10 11.875
      vertex 0 -10 11.875
      vertex 0 -10 13.125
    endloop
  endfacet
  facet normal 0 -1 0
    outer loop
      vertex -3.333333333333333 -10 11.875
      vertex 0 -10 13.125
      vertex -3.333333333333333 -10 13.125
    endloop
  endfacet
  facet normal 0 -1 0
    outer loop
      vertex -3.333333333333333 -10 13.125
      vertex 0 -10 13.125
      vertex 0 -10 15
    endloop
  endfacet
  facet normal 0 -1 0
    outer loop
      vertex -3.333333333333333 -10 13.125
      vertex 0 -10 15
      vertex -3.333333333333333 -10 15
    endloop
  endfacet
  facet normal 0 -1 0
    outer loop
      vertex 0 -10 10
      vertex 3.333333333333334 -10 10
      vertex 3.333333333333334 -10 11.875
    endloop
  endfacet
  facet normal 0 -1 0
    outer loop
      vertex 0 -10 10
      vertex 3.333333333333334 -10 11.875
      vertex 0 -10 11.875
    endloop
  endfacet
  facet normal 0 -1 0
    outer loop
      vertex 0 -10 11.875
      vertex 3.333333333333334 -10 11.875
      vertex 3.333333333333334 -10 13.125
    endloop
  endfacet
  facet normal 0 -1 0
    outer loop
      vertex 0 -10 11.875
      vertex 3.333333333333334 -10 13.125
      vertex 0 -10 13.125
    endloop
  endfacet
  facet normal 0 -1 0
    outer loop
      vertex 0 -10 13.125
      vertex 3.333333333333334 -10 13.125
      vertex 3.333333333333334 -10 15
    endloop
  endfacet
  facet normal 0 -1 0
    outer loop
      vertex 0 -10 13.125
      vertex 3.333333333333334 -10 15
      vertex 0 -10 15
    endloop
  endfacet
  facet normal 0 -1 0
    outer loop
      vertex 3.333333333333334 -10 10
      vertex 6.666666666666668 -10 10
      vertex 6.666666666666668 -10 11.875
    endloop
  endfacet
  facet normal 0 -1 0
    outer loop
      vertex 3.333333333333334 -10 10
      vertex 6.666666666666668 -10 11.875
      vertex 3.333333333333334 -10 11.875
    endloop
  endfacet
  facet normal 0 -1 0
    outer loop
      vertex 3.333333333333334 -10 11.875
      vertex 6.666666666666668 -10 11.875
      vertex 6.666666666666668 -10 13.125
    endloop
  endfacet
  facet normal 0 -1 0
    outer loop
      vertex 3.333333333333334 -10 11.875
      vertex 6.666666666666668 -10 13.125
      vertex 3.333333333333334 -10 13.125
    endloop
  endfacet
  facet normal 0 -1 0
    outer loop
      vertex 3.333333333333334 -10 13.125
      vertex 6.666666666666668 -10 13.125
      vertex 6.666666666666668 -10 15
    endloop
  endfacet
  facet normal 0 -1 0
    outer loop
      vertex 3.333333333333334 -10 13.125
      vertex 6.666666666666668 -10 15
      vertex 3.333333333333334 -10 15
    endloop
  endfacet
  facet normal 0 -1 0
    outer loop
      vertex 6.666666666666668 -10 10
      vertex 10 -10 10
      vertex 10 -10 11.875
    endloop
  endfacet
  facet normal 0 -1 0
    outer loop
      vertex 6.666666666666668 -10 10
      vertex 10 -10 11.875
      vertex 6.666666666666668 -10 11.875
    endloop
  endfacet
  facet normal 0 -1 0
    outer loop
      vertex 6.666666666666668 -10 11.875
      vertex 10 -10 11.875
      vertex 10 -10 13.125
    endloop
  endfacet
  facet normal 0 -1 0
    outer loop
      vertex 6.666666666666668 -10 11.875
      vertex 10 -10 13.125
      vertex 6.666666666666668 -10 13.125
    endloop
  endfacet
  facet normal 0 -1 0
    outer loop
      vertex 6.666666666666668 -10 13.125
      vertex 10 -10 13.125
      vertex 10 -10 15
    endloop
  endfacet
  facet normal 0 -1 0
    outer loop
      vertex 6.666666666666668 -10 13.125
      vertex 10 -10 15
      vertex 6.666666666666668 -10 15
    endloop
  endfacet
  facet normal 0 -1 0
    outer loop
      vertex -10 -10 15
      vertex -6.666666666666666 -10 15
      vertex -6.666666666666666 -10 16.875
    endloop
  endfacet
  facet normal 0 -1 0
    outer loop
      vertex -10 -10 15
      vertex -6.666666666666666 -10 16.875
      vertex -10 -10 16.875
    endloop
  endfacet
  facet normal 0 -1 0
    outer loop
      vertex -10 -10 16.875
      vertex -6.666666666666666 -10 16.875
      vertex -6.666666666666666 -10 18.125
    endloop
  endfacet
  facet normal 0 -1 0
    outer loop
      vertex -10 -10 16.875
      vertex -6.666666666666666 -10 18.125
      vertex -10 -10 18.125
    endloop
  endfacet
  facet normal 0 -1 0
    outer loop
      vertex -10 -10 18.125
      vertex -6.666666666666666 -10 18.125
      vertex -6.666666666666666 -10 20
    endloop
  endfacet
  facet normal 0 -1 0
    outer loop
      vertex -10 -10 18.125
      vertex -6.666666666666666 -10 20
      vertex -10 -10 20
    endloop
  endfacet
  facet normal 0 -1 0
    outer loop
      vertex -6.666666666666666 -10 15
      vertex -3.333333333333333 -10 15
      vertex -3.333333333333333 -10 16.875
    endloop
  endfacet
  facet normal 0 -1 0
    outer loop
      vertex -6.666666666666666 -10 15
      vertex -3.333333333333333 -10 16.875
      vertex -6.666666666666666 -10 16.875
    endloop
  endfacet
  facet normal 0 -1 0
    outer loop
      vertex -6.666666666666666 -10 16.875
      vertex -3.333333333333333 -10 16.875
      vertex -3.333333333333333 -10 18.125
    endloop
  endfacet
  facet normal 0 -1 0
    outer loop
      vertex -6.666666666666666 -10 16.875
      vertex -3.333333333333333 -10 18.125
      vertex -6.666666666666666 -10 18.125
    endloop
  endfacet
  facet normal 0 -1 0
    outer loop
      vertex -6.666666666666666 -10 18.125
      vertex -3.333333333333333 -10 18.125
      vertex -3.333333333333333 -10 20
    endloop
  endfacet
  facet normal 0 -1 0
    outer loop
      vertex -6.666666666666666 -10 18.125
      vertex -3.333333333333333 -10 20
      vertex -6.666666666666666 -10 20
    endloop
  endfacet
  facet normal 0 -1 0
    outer loop
      vertex -3.333333333333333 -10 15
      vertex 0 -10 15
      vertex 0 -10 16.875
    endloop
  endfacet
  facet normal 0 -1 0
    outer loop
      vertex -3.333333333333333 -10 15
      vertex 0 -10 16.875
      vertex -3.333333333333333 -10 16.875
    endloop
  endfacet
  facet normal 0 -1 0
    outer loop
      vertex -3.333333333333333 -10 16.875
      vertex 0 -10 16.875
      vertex 0 -10 18.125
    endloop
  endfacet
  facet normal 0 -1 0
    outer loop
      vertex -3.333333333333333 -10 16.875
      vertex 0 -10 18.125
      vertex -3.333333333333333 -10 18.125
    endloop
  endfacet
  facet normal 0 -1 0
    outer loop
      vertex -3.333333333333333 -10 18.125
      vertex 0 -10 18.125
      vertex 0 -10 20
    endloop
  endfacet
  facet normal 0 -1 0
    outer loop
      vertex -3.333333333333333 -10 18.125
      vertex 0 -10 20
      vertex -3.333333333333333 -10 20
    endloop
  endfacet
  facet normal 0 -1 0
    outer loop
      vertex 0 -10 15
      vertex 3.333333333333334 -10 15
      vertex 3.333333333333334 -10 16.875
    endloop
  endfacet
  facet normal 0 -1 0
    outer loop
      vertex 0 -10 15
      vertex 3.333333333333334 -10 16.875
      vertex 0 -10 16.875
    endloop
  endfacet
  facet normal 0 -1 0
    outer loop
      vertex 0 -10 16.875
      vertex 3.333333333333334 -10 16.875
      vertex 3.333333333333334 -10 18.125
    endloop
  endfacet
  facet normal 0 -1 0
    outer loop
      vertex 0 -10 16.875
      vertex 3.333333333333334 -10 18.125
      vertex 0 -10 18.125
    endloop
  endfacet
  facet normal 0 -1 0
    outer loop
      vertex 0 -10 18.125
      vertex 3.333333333333334 -10 18.125
      vertex 3.333333333333334 -10 20
    endloop
  endfacet
  facet normal 0 -1 0
    outer loop
      vertex 0 -10 18.125
      vertex 3.333333333333334 -10 20
      vertex 0 -10 20
    endloop
  endfacet
  facet normal 0 -1 0
    outer loop
      vertex 3.333333333333334 -10 15
      vertex 6.666666666666668 -10 15
      vertex 6.666666666666668 -10 16.875
    endloop
  endfacet
  facet normal 0 -1 0
    outer loop
      vertex 3.333333333333334 -10 15
      vertex 6.666666666666668 -10 16.875
      vertex 3.333333333333334 -10 16.875
    endloop
  endfacet
  facet normal 0 -1 0
    outer loop
      vertex 3.333333333333334 -10 16.875
      vertex 6.666666666666668 -10 16.875
      vertex 6.666666666666668 -10 18.125
    endloop
  endfacet
  facet normal 0 -1 0
    outer loop
      vertex 3.333333333333334 -10 16.875
      vertex 6.666666666666668 -10 18.125
      vertex 3.333333333333334 -10 18.125
    endloop
  endfacet
  facet normal 0 -1 0
    outer loop
      vertex 3.333333333333334 -10 18.125
      vertex 6.666666666666668 -10 18.125
      vertex 6.666666666666668 -10 20
    endloop
  endfacet
  facet normal 0 -1 0
    outer loop
      vertex 3.333333333333334 -10 18.125
      vertex 6.666666666666668 -10 20
      vertex 3.333333333333334 -10 20
    endloop
  endfacet
  facet normal 0 -1 0
    outer loop
      vertex 6.666666666666668 -10 15
      vertex 10 -10 15
      vertex 10 -10 16.875
    endloop
  endfacet
  facet normal 0 -1 0
    outer loop
      vertex 6.666666666666668 -10 15
      vertex 10 -10 16.875
      vertex 6.666666666666668 -10 16.875
    endloop
  endfacet
  facet normal 0 -1 0
    outer loop
      vertex 6.666666666666668 -10 16.875
      vertex 10 -10 16.875
      vertex 10 -10 18.125
    endloop
  endfacet
  facet normal 0 -1 0
    outer loop
      vertex 6.666666666666668 -10 16.875
      vertex 10 -10 18.125
      vertex 6.666666666666668 -10 18.125
    endloop
  endfacet
  facet normal 0 -1 0
    outer loop
      vertex 6.666666666666668 -10 18.125
      vertex 10 -10 18.125
      vertex 10 -10 20
    endloop
  endfacet
  facet normal 0 -1 0
    outer loop
      vertex 6.666666666666668 -10 18.125
      vertex 10 -10 20
      vertex 6.666666666666668 -10 20
    endloop
  endfacet
endsolid