
solid Test1
  facet normal -1.1989215714583064e-5 -9.999999999281294e-1 0e+0
    outer loop
      vertex -1.2362717378395132e+2 -9.945206481518468e-2 0e+0
      vertex -6.51058111111874e+1 -1.0015369005623022e-1 0e+0
      vertex -6.51058111111874e+1 -1.0015369005623022e-1 2.4e+1
    endloop
  endfacet
  facet normal -1.1989215714583064e-5 -9.999999999281294e-1 0e+0
    outer loop
      vertex -1.2362717378395132e+2 -9.945206481518468e-2 0e+0
      vertex -6.51058111111874e+1 -1.0015369005623022e-1 2.4e+1
      vertex -1.2362717378395132e+2 -9.945206481518468e-2 2.4e+1
    endloop
  endfacet
  facet normal 9.999999999657895e-1 -8.271698943571776e-6 0e+0
    outer loop
      vertex -6.51058111111874e+1 -1.0015369005623022e-1 0e+0
      vertex -6.510518833496349e+1 7.518984757180925e+1 0e+0
      vertex -6.510518833496349e+1 7.518984757180925e+1 2.4e+1
    endloop
  endfacet
  facet normal 9.999999999657895e-1 -8.271698943571776e-6 0e+0
    outer loop
      vertex -6.51058111111874e+1 -1.0015369005623022e-1 0e+0
      vertex -6.510518833496349e+1 7.518984757180925e+1 2.4e+1
      vertex -6.51058111111874e+1 -1.0015369005623022e-1 2.4e+1
    endloop
  endfacet
  facet normal 1.1989289423384013e-5 9.999999999281285e-1 0e+0
    outer loop
      vertex -6.510518833496349e+1 7.518984757180925e+1 0e+0
      vertex -1.2362599121493288e+2 7.519054919465232e+1 0e+0
      vertex -1.2362599121493288e+2 7.519054919465232e+1 2.4e+1
    endloop
  endfacet
  facet normal 1.1989289423384013e-5 9.999999999281285e-1 0e+0
    outer loop
      vertex -6.510518833496349e+1 7.518984757180925e+1 0e+0
      vertex -1.2362599121493288e+2 7.519054919465232e+1 2.4e+1
      vertex -6.510518833496349e+1 7.518984757180925e+1 2.4e+1
    endloop
  endfacet
  facet normal -9.999999998766473e-1 1.5706853480028552e-5 0e+0
    outer loop
      vertex -1.2362599121493288e+2 7.519054919465232e+1 0e+0
      vertex -1.2362717378395132e+2 -9.945206481518468e-2 0e+0
      vertex -1.2362717378395132e+2 -9.945206481518468e-2 2.4e+1
    endloop
  endfacet
  facet normal -9.999999998766473e-1 1.5706853480028552e-5 0e+0
    outer loop
      vertex -1.2362599121493288e+2 7.519054919465232e+1 0e+0
      vertex -1.2362717378395132e+2 -9.945206481518468e-2 2.4e+1
      vertex -1.2362599121493288e+2 7.519054919465232e+1 2.4e+1
    endloop
  endfacet
  facet normal 0e+0 0e+0 -1e+0
    outer loop
      vertex -6.51058111111874e+1 -1.0015369005623022e-1 0e+0
      vertex -1.2362717378395132e+2 -9.945206481518468e-2 0e+0
      vertex -1.2362599121493288e+2 7.519054919465232e+1 0e+0
    endloop
  endfacet
  facet normal 0e+0 0e+0 -1e+0
    outer loop
      vertex -6.51058111111874e+1 -1.0015369005623022e-1 0e+0
      vertex -1.2362599121493288e+2 7.519054919465232e+1 0e+0
      vertex -6.510518833496349e+1 7.518984757180925e+1 0e+0
    endloop
  endfacet
  facet normal 0e+0 0e+0 1e+0
    outer loop
      vertex -1.2362599121493288e+2 7.519054919465232e+1 2.4e+1
      vertex -1.2362717378395132e+2 -9.945206481518468e-2 2.4e+1
      vertex -6.51058111111874e+1 -1.0015369005623022e-1 2.4e+1
    endloop
  endfacet
  facet normal 0e+0 0e+0 1e+0
    outer loop
      vertex -6.510518833496349e+1 7.518984757180925e+1 2.4e+1
      vertex -1.2362599121493288e+2 7.519054919465232e+1 2.4e+1
      vertex -6.51058111111874e+1 -1.0015369005623022e-1 2.4e+1
    endloop
  endfacet
endsolid
solid Test2
  facet normal -3.4609603967613474e-6 -9.999999999940109e-1 0e+0
    outer loop
      vertex -4.918747849290604e+1 -1.2041614194916711e+2 0e+0
      vertex -5.295785570435711e+0 -1.2041629385657806e+2 0e+0
      vertex -5.295785570435711e+0 -1.2041629385657806e+2 1.2e+1
    endloop
  endfacet
  facet normal -3.4609603967613474e-6 -9.999999999940109e-1 0e+0
    outer loop
      vertex -4.918747849290604e+1 -1.2041614194916711e+2 0e+0
      vertex -5.295785570435711e+0 -1.2041629385657806e+2 1.2e+1
      vertex -4.918747849290604e+1 -1.2041614194916711e+2 1.2e+1
    endloop
  endfacet
  facet normal 9.999999999997736e-1 -6.728082194921469e-7 0e+0
    outer loop
      vertex -5.295785570435711e+0 -1.2041629385657806e+2 0e+0
      vertex -5.295760242671315e+0 -8.277144401344938e+1 0e+0
      vertex -5.295760242671315e+0 -8.277144401344938e+1 1.2e+1
    endloop
  endfacet
  facet normal 9.999999999997736e-1 -6.728082194921469e-7 0e+0
    outer loop
      vertex -5.295785570435711e+0 -1.2041629385657806e+2 0e+0
      vertex -5.295760242671315e+0 -8.277144401344938e+1 1.2e+1
      vertex -5.295785570435711e+0 -1.2041629385657806e+2 1.2e+1
    endloop
  endfacet
  facet normal 1.6022187921455064e-6 9.999999999987164e-1 0e+0
    outer loop
      vertex -5.295760242671315e+0 -8.277144401344938e+1 0e+0
      vertex -1.9926254578708612e+1 -8.277142057219642e+1 0e+0
      vertex -1.9926254578708612e+1 -8.277142057219642e+1 1.2e+1
    endloop
  endfacet
  facet normal 1.6022187921455064e-6 9.999999999987164e-1 0e+0
    outer loop
      vertex -5.295760242671315e+0 -8.277144401344938e+1 0e+0
      vertex -1.9926254578708612e+1 -8.277142057219642e+1 1.2e+1
      vertex -5.295760242671315e+0 -8.277144401344938e+1 1.2e+1
    endloop
  endfacet
  facet normal 9.999999999967956e-1 -2.531588752696143e-6 0e+0
    outer loop
      vertex -1.9926254578708612e+1 -8.277142057219642e+1 0e+0
      vertex -1.9926159277430152e+1 -4.512657072914328e+1 0e+0
      vertex -1.9926159277430152e+1 -4.512657072914328e+1 1.2e+1
    endloop
  endfacet
  facet normal 9.999999999967956e-1 -2.531588752696143e-6 0e+0
    outer loop
      vertex -1.9926254578708612e+1 -8.277142057219642e+1 0e+0
      vertex -1.9926159277430152e+1 -4.512657072914328e+1 1.2e+1
      vertex -1.9926254578708612e+1 -8.277142057219642e+1 1.2e+1
    endloop
  endfacet
  facet normal 4.390331084158601e-6 9.999999999903625e-1 0e+0
    outer loop
      vertex -1.9926159277430152e+1 -4.512657072914328e+1 0e+0
      vertex -4.918700800044891e+1 -4.512644226432958e+1 0e+0
      vertex -4.918700800044891e+1 -4.512644226432958e+1 1.2e+1
    endloop
  endfacet
  facet normal 4.390331084158601e-6 9.999999999903625e-1 0e+0
    outer loop
      vertex -1.9926159277430152e+1 -4.512657072914328e+1 0e+0
      vertex -4.918700800044891e+1 -4.512644226432958e+1 1.2e+1
      vertex -1.9926159277430152e+1 -4.512657072914328e+1 1.2e+1
    endloop
  endfacet
  facet normal -9.999999999804744e-1 6.249094618334363e-6 0e+0
    outer loop
      vertex -4.918700800044891e+1 -4.512644226432958e+1 0e+0
      vertex -4.918747849290604e+1 -1.2041614194916711e+2 0e+0
      vertex -4.918747849290604e+1 -1.2041614194916711e+2 1.2e+1
    endloop
  endfacet
  facet normal -9.999999999804744e-1 6.249094618334363e-6 0e+0
    outer loop
      vertex -4.918700800044891e+1 -4.512644226432958e+1 0e+0
      vertex -4.918747849290604e+1 -1.2041614194916711e+2 1.2e+1
      vertex -4.918700800044891e+1 -4.512644226432958e+1 1.2e+1
    endloop
  endfacet
  facet normal 0e+0 0e+0 -1e+0
    outer loop
      vertex -1.9926254578708612e+1 -8.277142057219642e+1 0e+0
      vertex -4.918747849290604e+1 -1.2041614194916711e+2 0e+0
      vertex -4.918700800044891e+1 -4.512644226432958e+1 0e+0
    endloop
  endfacet
  facet normal 0e+0 0e+0 -1e+0
    outer loop
      vertex -1.9926159277430152e+1 -4.512657072914328e+1 0e+0
      vertex -1.9926254578708612e+1 -8.277142057219642e+1 0e+0
      vertex -4.918700800044891e+1 -4.512644226432958e+1 0e+0
    endloop
  endfacet
  facet normal 0e+0 0e+0 -1e+0
    outer loop
      vertex -5.295785570435711e+0 -1.2041629385657806e+2 0e+0
      vertex -4.918747849290604e+1 -1.2041614194916711e+2 0e+0
      vertex -1.9926254578708612e+1 -8.277142057219642e+1 0e+0
    endloop
  endfacet
  facet normal 0e+0 0e+0 -1e+0
    outer loop
      vertex -5.295785570435711e+0 -1.2041629385657806e+2 0e+0
      vertex -1.9926254578708612e+1 -8.277142057219642e+1 0e+0
      vertex -5.295760242671315e+0 -8.277144401344938e+1 0e+0
    endloop
  endfacet
  facet normal 0e+0 0e+0 1e+0
    outer loop
      vertex -4.918700800044891e+1 -4.512644226432958e+1 1.2e+1
      vertex -4.918747849290604e+1 -1.2041614194916711e+2 1.2e+1
      vertex -1.9926254578708612e+1 -8.277142057219642e+1 1.2e+1
    endloop
  endfacet
  facet normal 0e+0 0e+0 1e+0
    outer loop
      vertex -4.918700800044891e+1 -4.512644226432958e+1 1.2e+1
      vertex -1.9926254578708612e+1 -8.277142057219642e+1 1.2e+1
      vertex -1.9926159277430152e+1 -4.512657072914328e+1 1.2e+1
    endloop
  endfacet
  facet normal 0e+0 0e+0 1e+0
    outer loop
      vertex -1.9926254578708612e+1 -8.277142057219642e+1 1.2e+1
      vertex -4.918747849290604e+1 -1.2041614194916711e+2 1.2e+1
      vertex -5.295785570435711e+0 -1.2041629385657806e+2 1.2e+1
    endloop
  endfacet
  facet normal 0e+0 0e+0 1e+0
    outer loop
      vertex -5.295760242671315e+0 -8.277144401344938e+1 1.2e+1
      vertex -1.9926254578708612e+1 -8.277142057219642e+1 1.2e+1
      vertex -5.295785570435711e+0 -1.2041629385657806e+2 1.2e+1
    endloop
  endfacet
endsolid
solid Test3
  facet normal -1.831157073720501e-5 -9.999999998323432e-1 0e+0
    outer loop
      vertex -1.514482678487104e+2 -1.2690606627443263e+2 0e+0
      vertex -1.3681769147922466e+2 -1.269063341832668e+2 0e+0
      vertex -1.3681769147922466e+2 -1.269063341832668e+2 4e+0
    endloop
  endfacet
  facet normal -1.831157073720501e-5 -9.999999998323432e-1 0e+0
    outer loop
      vertex -1.514482678487104e+2 -1.2690606627443263e+2 0e+0
      vertex -1.3681769147922466e+2 -1.269063341832668e+2 4e+0
      vertex -1.514482678487104e+2 -1.2690606627443263e+2 4e+0
    endloop
  endfacet
  facet normal 9.999999998489313e-1 -1.7382099036682027e-5 0e+0
    outer loop
      vertex -1.3681769147922466e+2 -1.269063341832668e+2 0e+0
      vertex -1.3681736430477568e+2 -1.08083840522185e+2 0e+0
      vertex -1.3681736430477568e+2 -1.08083840522185e+2 4e+0
    endloop
  endfacet
  facet normal 9.999999998489313e-1 -1.7382099036682027e-5 0e+0
    outer loop
      vertex -1.3681769147922466e+2 -1.269063341832668e+2 0e+0
      vertex -1.3681736430477568e+2 -1.08083840522185e+2 4e+0
      vertex -1.3681769147922466e+2 -1.269063341832668e+2 4e+0
    endloop
  endfacet
  facet normal -1.552348710759896e-5 -9.999999998795107e-1 0e+0
    outer loop
      vertex -1.3681736430477568e+2 -1.08083840522185e+2 0e+0
      vertex -1.0755628153773266e+2 -1.0808429475622614e+2 0e+0
      vertex -1.0755628153773266e+2 -1.0808429475622614e+2 4e+0
    endloop
  endfacet
  facet normal -1.552348710759896e-5 -9.999999998795107e-1 0e+0
    outer loop
      vertex -1.3681736430477568e+2 -1.08083840522185e+2 0e+0
      vertex -1.0755628153773266e+2 -1.0808429475622614e+2 4e+0
      vertex -1.3681736430477568e+2 -1.08083840522185e+2 4e+0
    endloop
  endfacet
  facet normal -9.999999999066395e-1 1.3664593861552632e-5 0e+0
    outer loop
      vertex -1.0755628153773266e+2 -1.0808429475622614e+2 0e+0
      vertex -1.0755653873946403e+2 -1.2690678841790094e+2 0e+0
      vertex -1.0755653873946403e+2 -1.2690678841790094e+2 4e+0
    endloop
  endfacet
  facet normal -9.999999999066395e-1 1.3664593861552632e-5 0e+0
    outer loop
      vertex -1.0755628153773266e+2 -1.0808429475622614e+2 0e+0
      vertex -1.0755653873946403e+2 -1.2690678841790094e+2 4e+0
      vertex -1.0755628153773266e+2 -1.0808429475622614e+2 4e+0
    endloop
  endfacet
  facet normal -1.2735247991261521e-5 -9.999999999189068e-1 0e+0
    outer loop
      vertex -1.0755653873946403e+2 -1.2690678841790094e+2 0e+0
      vertex -9.292596236932249e+1 -1.2690697474191929e+2 0e+0
      vertex -9.292596236932249e+1 -1.2690697474191929e+2 4e+0
    endloop
  endfacet
  facet normal -1.2735247991261521e-5 -9.999999999189068e-1 0e+0
    outer loop
      vertex -1.0755653873946403e+2 -1.2690678841790094e+2 0e+0
      vertex -9.292596236932249e+1 -1.2690697474191929e+2 4e+0
      vertex -1.0755653873946403e+2 -1.2690678841790094e+2 4e+0
    endloop
  endfacet
  facet normal 9.999999999303107e-1 -1.1805864333662493e-5 0e+0
    outer loop
      vertex -9.292596236932249e+1 -1.2690697474191929e+2 0e+0
      vertex -9.292507350609606e+1 -5.161700009436256e+1 0e+0
      vertex -9.292507350609606e+1 -5.161700009436256e+1 4e+0
    endloop
  endfacet
  facet normal 9.999999999303107e-1 -1.1805864333662493e-5 0e+0
    outer loop
      vertex -9.292596236932249e+1 -1.2690697474191929e+2 0e+0
      vertex -9.292507350609606e+1 -5.161700009436256e+1 4e+0
      vertex -9.292596236932249e+1 -1.2690697474191929e+2 4e+0
    endloop
  endfacet
  facet normal 1.273531377579871e-5 9.999999999189059e-1 0e+0
    outer loop
      vertex -9.292507350609606e+1 -5.161700009436256e+1 0e+0
      vertex -1.0755550993094039e+2 -5.1616813771164e+1 0e+0
      vertex -1.0755550993094039e+2 -5.1616813771164e+1 4e+0
    endloop
  endfacet
  facet normal 1.273531377579871e-5 9.999999999189059e-1 0e+0
    outer loop
      vertex -9.292507350609606e+1 -5.161700009436256e+1 0e+0
      vertex -1.0755550993094039e+2 -5.1616813771164e+1 4e+0
      vertex -9.292507350609606e+1 -5.161700009436256e+1 4e+0
    endloop
  endfacet
  facet normal -9.999999999066395e-1 1.3664600970486535e-5 0e+0
    outer loop
      vertex -1.0755550993094039e+2 -5.1616813771164e+1 0e+0
      vertex -1.0755576713280557e+2 -7.043930743295184e+1 0e+0
      vertex -1.0755576713280557e+2 -7.043930743295184e+1 4e+0
    endloop
  endfacet
  facet normal -9.999999999066395e-1 1.3664600970486535e-5 0e+0
    outer loop
      vertex -1.0755550993094039e+2 -5.1616813771164e+1 0e+0
      vertex -1.0755576713280557e+2 -7.043930743295184e+1 4e+0
      vertex -1.0755550993094039e+2 -5.1616813771164e+1 4e+0
    endloop
  endfacet
  facet normal 1.5523512501128043e-5 9.999999998795103e-1 0e+0
    outer loop
      vertex -1.0755576713280557e+2 -7.043930743295184e+1 0e+0
      vertex -1.3681670995373855e+2 -7.04388532003401e+1 0e+0
      vertex -1.3681670995373855e+2 -7.04388532003401e+1 4e+0
    endloop
  endfacet
  facet normal 1.5523512501128043e-5 9.999999998795103e-1 0e+0
    outer loop
      vertex -1.0755576713280557e+2 -7.043930743295184e+1 0e+0
      vertex -1.3681670995373855e+2 -7.04388532003401e+1 4e+0
      vertex -1.0755576713280557e+2 -7.043930743295184e+1 4e+0
    endloop
  endfacet
  facet normal 9.999999998489306e-1 -1.738214487354815e-5 0e+0
    outer loop
      vertex -1.3681670995373855e+2 -7.04388532003401e+1 0e+0
      vertex -1.368163827784268e+2 -5.161635953895403e+1 0e+0
      vertex -1.368163827784268e+2 -5.161635953895403e+1 4e+0
    endloop
  endfacet
  facet normal 9.999999998489306e-1 -1.738214487354815e-5 0e+0
    outer loop
      vertex -1.3681670995373855e+2 -7.04388532003401e+1 0e+0
      vertex -1.368163827784268e+2 -5.161635953895403e+1 4e+0
      vertex -1.3681670995373855e+2 -7.04388532003401e+1 4e+0
    endloop
  endfacet
  facet normal 1.8311684632417454e-5 9.999999998323411e-1 0e+0
    outer loop
      vertex -1.368163827784268e+2 -5.161635953895403e+1 0e+0
      vertex -1.514468192023877e+2 -5.1616091631016154e+1 0e+0
      vertex -1.514468192023877e+2 -5.1616091631016154e+1 4e+0
    endloop
  endfacet
  facet normal 1.8311684632417454e-5 9.999999998323411e-1 0e+0
    outer loop
      vertex -1.368163827784268e+2 -5.161635953895403e+1 0e+0
      vertex -1.514468192023877e+2 -5.1616091631016154e+1 4e+0
      vertex -1.368163827784268e+2 -5.161635953895403e+1 4e+0
    endloop
  endfacet
  facet normal -9.99999999814894e-1 1.924089268581872e-5 0e+0
    outer loop
      vertex -1.514468192023877e+2 -5.1616091631016154e+1 0e+0
      vertex -1.514482678487104e+2 -1.2690606627443263e+2 0e+0
      vertex -1.514482678487104e+2 -1.2690606627443263e+2 4e+0
    endloop
  endfacet
  facet normal -9.99999999814894e-1 1.924089268581872e-5 0e+0
    outer loop
      vertex -1.514468192023877e+2 -5.1616091631016154e+1 0e+0
      vertex -1.514482678487104e+2 -1.2690606627443263e+2 4e+0
      vertex -1.514468192023877e+2 -5.1616091631016154e+1 4e+0
    endloop
  endfacet
  facet normal 0e+0 0e+0 -1e+0
    outer loop
      vertex -1.514482678487104e+2 -1.2690606627443263e+2 0e+0
      vertex -1.514468192023877e+2 -5.1616091631016154e+1 0e+0
      vertex -1.3681670995373855e+2 -7.04388532003401e+1 0e+0
    endloop
  endfacet
  facet normal 0e+0 0e+0 -1e+0
    outer loop
      vertex -1.368163827784268e+2 -5.161635953895403e+1 0e+0
      vertex -1.3681670995373855e+2 -7.04388532003401e+1 0e+0
      vertex -1.514468192023877e+2 -5.1616091631016154e+1 0e+0
    endloop
  endfacet
  facet normal 0e+0 0e+0 -1e+0
    outer loop
      vertex -1.3681736430477568e+2 -1.08083840522185e+2 0e+0
      vertex -1.514482678487104e+2 -1.2690606627443263e+2 0e+0
      vertex -1.3681670995373855e+2 -7.04388532003401e+1 0e+0
    endloop
  endfacet
  facet normal 0e+0 0e+0 -1e+0
    outer loop
      vertex -1.0755576713280557e+2 -7.043930743295184e+1 0e+0
      vertex -1.3681736430477568e+2 -1.08083840522185e+2 0e+0
      vertex -1.3681670995373855e+2 -7.04388532003401e+1 0e+0
    endloop
  endfacet
  facet normal 0e+0 0e+0 -1e+0
    outer loop
      vertex -1.0755576713280557e+2 -7.043930743295184e+1 0e+0
      vertex -1.0755628153773266e+2 -1.0808429475622614e+2 0e+0
      vertex -1.3681736430477568e+2 -1.08083840522185e+2 0e+0
    endloop
  endfacet
  facet normal 0e+0 0e+0 -1e+0
    outer loop
      vertex -9.292596236932249e+1 -1.2690697474191929e+2 0e+0
      vertex -1.0755628153773266e+2 -1.0808429475622614e+2 0e+0
      vertex -1.0755576713280557e+2 -7.043930743295184e+1 0e+0
    endloop
  endfacet
  facet normal 0e+0 0e+0 -1e+0
    outer loop
      vertex -9.292507350609606e+1 -5.161700009436256e+1 0e+0
      vertex -9.292596236932249e+1 -1.2690697474191929e+2 0e+0
      vertex -1.0755576713280557e+2 -7.043930743295184e+1 0e+0
    endloop
  endfacet
  facet normal 0e+0 0e+0 -1e+0
    outer loop
      vertex -9.292507350609606e+1 -5.161700009436256e+1 0e+0
      vertex -1.0755576713280557e+2 -7.043930743295184e+1 0e+0
      vertex -1.0755550993094039e+2 -5.1616813771164e+1 0e+0
    endloop
  endfacet
  facet normal 0e+0 0e+0 -1e+0
    outer loop
      vertex -9.292596236932249e+1 -1.2690697474191929e+2 0e+0
      vertex -1.0755653873946403e+2 -1.2690678841790094e+2 0e+0
      vertex -1.0755628153773266e+2 -1.0808429475622614e+2 0e+0
    endloop
  endfacet
  facet normal 0e+0 0e+0 -1e+0
    outer loop
      vertex -1.3681736430477568e+2 -1.08083840522185e+2 0e+0
      vertex -1.3681769147922466e+2 -1.269063341832668e+2 0e+0
      vertex -1.514482678487104e+2 -1.2690606627443263e+2 0e+0
    endloop
  endfacet
  facet normal 0e+0 0e+0 1e+0
    outer loop
      vertex -1.3681670995373855e+2 -7.04388532003401e+1 4e+0
      vertex -1.514468192023877e+2 -5.1616091631016154e+1 4e+0
      vertex -1.514482678487104e+2 -1.2690606627443263e+2 4e+0
    endloop
  endfacet
  facet normal 0e+0 0e+0 1e+0
    outer loop
      vertex -1.514468192023877e+2 -5.1616091631016154e+1 4e+0
      vertex -1.3681670995373855e+2 -7.04388532003401e+1 4e+0
      vertex -1.368163827784268e+2 -5.161635953895403e+1 4e+0
    endloop
  endfacet
  facet normal 0e+0 0e+0 1e+0
    outer loop
      vertex -1.3681670995373855e+2 -7.04388532003401e+1 4e+0
      vertex -1.514482678487104e+2 -1.2690606627443263e+2 4e+0
      vertex -1.3681736430477568e+2 -1.08083840522185e+2 4e+0
    endloop
  endfacet
  facet normal 0e+0 0e+0 1e+0
    outer loop
      vertex -1.3681670995373855e+2 -7.04388532003401e+1 4e+0
      vertex -1.3681736430477568e+2 -1.08083840522185e+2 4e+0
      vertex -1.0755576713280557e+2 -7.043930743295184e+1 4e+0
    endloop
  endfacet
  facet normal 0e+0 0e+0 1e+0
    outer loop
      vertex -1.3681736430477568e+2 -1.08083840522185e+2 4e+0
      vertex -1.0755628153773266e+2 -1.0808429475622614e+2 4e+0
      vertex -1.0755576713280557e+2 -7.043930743295184e+1 4e+0
    endloop
  endfacet
  facet normal 0e+0 0e+0 1e+0
    outer loop
      vertex -1.0755576713280557e+2 -7.043930743295184e+1 4e+0
      vertex -1.0755628153773266e+2 -1.0808429475622614e+2 4e+0
      vertex -9.292596236932249e+1 -1.2690697474191929e+2 4e+0
    endloop
  endfacet
  facet normal 0e+0 0e+0 1e+0
    outer loop
      vertex -1.0755576713280557e+2 -7.043930743295184e+1 4e+0
      vertex -9.292596236932249e+1 -1.2690697474191929e+2 4e+0
      vertex -9.292507350609606e+1 -5.161700009436256e+1 4e+0
    endloop
  endfacet
  facet normal 0e+0 0e+0 1e+0
    outer loop
      vertex -1.0755550993094039e+2 -5.1616813771164e+1 4e+0
      vertex -1.0755576713280557e+2 -7.043930743295184e+1 4e+0
      vertex -9.292507350609606e+1 -5.161700009436256e+1 4e+0
    endloop
  endfacet
  facet normal 0e+0 0e+0 1e+0
    outer loop
      vertex -1.0755628153773266e+2 -1.0808429475622614e+2 4e+0
      vertex -1.0755653873946403e+2 -1.2690678841790094e+2 4e+0
      vertex -9.292596236932249e+1 -1.2690697474191929e+2 4e+0
    endloop
  endfacet
  facet normal 0e+0 0e+0 1e+0
    outer loop
      vertex -1.514482678487104e+2 -1.2690606627443263e+2 4e+0
      vertex -1.3681769147922466e+2 -1.269063341832668e+2 4e+0
      vertex -1.3681736430477568e+2 -1.08083840522185e+2 4e+0
    endloop
  endfacet
endsolid
solid Test4
  facet normal -6.222761349835796e-6 9.999999999806386e-1 0e+0
    outer loop
      vertex 7.823593200151772e+1 2.8808938926176455e+2 0e+0
      vertex 1.9716712092911433e+1 2.880890251106247e+2 0e+0
      vertex 1.9716712092911433e+1 2.880890251106247e+2 1e+1
    endloop
  endfacet
  facet normal -6.222761349835796e-6 9.999999999806386e-1 0e+0
    outer loop
      vertex 7.823593200151772e+1 2.8808938926176455e+2 0e+0
      vertex 1.9716712092911433e+1 2.880890251106247e+2 1e+1
      vertex 7.823593200151772e+1 2.8808938926176455e+2 1e+1
    endloop
  endfacet
  facet normal -9.999999999968621e-1 -2.505159954232971e-6 0e+0
    outer loop
      vertex 1.9716712092911433e+1 2.880890251106247e+2 0e+0
      vertex 1.9717089318348144e+1 1.3750964351353804e+2 0e+0
      vertex 1.9717089318348144e+1 1.3750964351353804e+2 1e+1
    endloop
  endfacet
  facet normal -9.999999999968621e-1 -2.505159954232971e-6 0e+0
    outer loop
      vertex 1.9716712092911433e+1 2.880890251106247e+2 0e+0
      vertex 1.9717089318348144e+1 1.3750964351353804e+2 1e+1
      vertex 1.9716712092911433e+1 2.880890251106247e+2 1e+1
    endloop
  endfacet
  facet normal 6.222697534035629e-6 -9.999999999806389e-1 0e+0
    outer loop
      vertex 1.9717089318348144e+1 1.3750964351353804e+2 0e+0
      vertex 7.823742883231945e+1 1.3751000766791043e+2 0e+0
      vertex 7.823742883231945e+1 1.3751000766791043e+2 1e+1
    endloop
  endfacet
  facet normal 6.222697534035629e-6 -9.999999999806389e-1 0e+0
    outer loop
      vertex 1.9717089318348144e+1 1.3750964351353804e+2 0e+0
      vertex 7.823742883231945e+1 1.3751000766791043e+2 1e+1
      vertex 1.9717089318348144e+1 1.3750964351353804e+2 1e+1
    endloop
  endfacet
  facet normal -9.999999999505949e-1 -9.940329356218164e-6 0e+0
    outer loop
      vertex 7.823742883231945e+1 1.3751000766791043e+2 0e+0
      vertex 7.823817723664322e+1 6.222031686231404e+1 0e+0
      vertex 7.823817723664322e+1 6.222031686231404e+1 1e+1
    endloop
  endfacet
  facet normal -9.999999999505949e-1 -9.940329356218164e-6 0e+0
    outer loop
      vertex 7.823742883231945e+1 1.3751000766791043e+2 0e+0
      vertex 7.823817723664322e+1 6.222031686231404e+1 1e+1
      vertex 7.823742883231945e+1 1.3751000766791043e+2 1e+1
    endloop
  endfacet
  facet normal 1.7375379246499533e-5 -9.999999998490481e-1 0e+0
    outer loop
      vertex 7.823817723664322e+1 6.222031686231404e+1 0e+0
      vertex 1.9527997583754205e+2 6.222235050795273e+1 0e+0
      vertex 1.9527997583754205e+2 6.222235050795273e+1 1e+1
    endloop
  endfacet
  facet normal 1.7375379246499533e-5 -9.999999998490481e-1 0e+0
    outer loop
      vertex 7.823817723664322e+1 6.222031686231404e+1 0e+0
      vertex 1.9527997583754205e+2 6.222235050795273e+1 1e+1
      vertex 7.823817723664322e+1 6.222031686231404e+1 1e+1
    endloop
  endfacet
  facet normal 9.999999996922136e-1 2.4810741790894014e-5 0e+0
    outer loop
      vertex 1.9527997583754205e+2 6.222235050795273e+1 0e+0
      vertex 1.9527810784446362e+2 1.3751204130410144e+2 0e+0
      vertex 1.9527810784446362e+2 1.3751204130410144e+2 1e+1
    endloop
  endfacet
  facet normal 9.999999996922136e-1 2.4810741790894014e-5 0e+0
    outer loop
      vertex 1.9527997583754205e+2 6.222235050795273e+1 0e+0
      vertex 1.9527810784446362e+2 1.3751204130410144e+2 1e+1
      vertex 1.9527997583754205e+2 6.222235050795273e+1 1e+1
    endloop
  endfacet
  facet normal 2.852822769897087e-5 -9.999999995930701e-1 0e+0
    outer loop
      vertex 1.9527810784446362e+2 1.3751204130410144e+2 0e+0
      vertex 2.5379844733551795e+2 1.3751371078567215e+2 0e+0
      vertex 2.5379844733551795e+2 1.3751371078567215e+2 1e+1
    endloop
  endfacet
  facet normal 2.852822769897087e-5 -9.999999995930701e-1 0e+0
    outer loop
      vertex 1.9527810784446362e+2 1.3751204130410144e+2 0e+0
      vertex 2.5379844733551795e+2 1.3751371078567215e+2 1e+1
      vertex 1.9527810784446362e+2 1.3751204130410144e+2 1e+1
    endloop
  endfacet
  facet normal 9.99999999480084e-1 3.224642159290776e-5 0e+0
    outer loop
      vertex 2.5379844733551795e+2 1.3751371078567215e+2 0e+0
      vertex 2.5379359168929446e+2 2.880930923451225e+2 0e+0
      vertex 2.5379359168929446e+2 2.880930923451225e+2 1e+1
    endloop
  endfacet
  facet normal 9.99999999480084e-1 3.224642159290776e-5 0e+0
    outer loop
      vertex 2.5379844733551795e+2 1.3751371078567215e+2 0e+0
      vertex 2.5379359168929446e+2 2.880930923451225e+2 1e+1
      vertex 2.5379844733551795e+2 1.3751371078567215e+2 1e+1
    endloop
  endfacet
  facet normal -2.852850855805546e-5 9.999999995930622e-1 0e+0
    outer loop
      vertex 2.5379359168929446e+2 2.880930923451225e+2 0e+0
      vertex 1.9527437180339282e+2 2.880914228790565e+2 0e+0
      vertex 1.9527437180339282e+2 2.880914228790565e+2 1e+1
    endloop
  endfacet
  facet normal -2.852850855805546e-5 9.999999995930622e-1 0e+0
    outer loop
      vertex 2.5379359168929446e+2 2.880930923451225e+2 0e+0
      vertex 1.9527437180339282e+2 2.880914228790565e+2 1e+1
      vertex 2.5379359168929446e+2 2.880930923451225e+2 1e+1
    endloop
  endfacet
  facet normal 9.999999996921957e-1 2.4811465723890276e-5 0e+0
    outer loop
      vertex 1.9527437180339282e+2 2.880914228790565e+2 0e+0
      vertex 1.9527250375581008e+2 3.6338111365991705e+2 0e+0
      vertex 1.9527250375581008e+2 3.6338111365991705e+2 1e+1
    endloop
  endfacet
  facet normal 9.999999996921957e-1 2.4811465723890276e-5 0e+0
    outer loop
      vertex 1.9527437180339282e+2 2.880914228790565e+2 0e+0
      vertex 1.9527250375581008e+2 3.6338111365991705e+2 1e+1
      vertex 1.9527437180339282e+2 2.880914228790565e+2 1e+1
    endloop
  endfacet
  facet normal -1.737571977501114e-5 9.999999998490421e-1 0e+0
    outer loop
      vertex 1.9527250375581008e+2 3.6338111365991705e+2 0e+0
      vertex 7.823518357530207e+1 3.6337908005223807e+2 0e+0
      vertex 7.823518357530207e+1 3.6337908005223807e+2 1e+1
    endloop
  endfacet
  facet normal -1.737571977501114e-5 9.999999998490421e-1 0e+0
    outer loop
      vertex 1.9527250375581008e+2 3.6338111365991705e+2 0e+0
      vertex 7.823518357530207e+1 3.6337908005223807e+2 1e+1
      vertex 1.9527250375581008e+2 3.6338111365991705e+2 1e+1
    endloop
  endfacet
  facet normal -9.999999999505922e-1 -9.940620126822022e-6 0e+0
    outer loop
      vertex 7.823518357530207e+1 3.6337908005223807e+2 0e+0
      vertex 7.823593200151772e+1 2.8808938926176455e+2 0e+0
      vertex 7.823593200151772e+1 2.8808938926176455e+2 1e+1
    endloop
  endfacet
  facet normal -9.999999999505922e-1 -9.940620126822022e-6 0e+0
    outer loop
      vertex 7.823518357530207e+1 3.6337908005223807e+2 0e+0
      vertex 7.823593200151772e+1 2.8808938926176455e+2 1e+1
      vertex 7.823518357530207e+1 3.6337908005223807e+2 1e+1
    endloop
  endfacet
  facet normal 0e+0 0e+0 -1e+0
    outer loop
      vertex 1.9717089318348144e+1 1.3750964351353804e+2 0e+0
      vertex 1.9716712092911433e+1 2.880890251106247e+2 0e+0
      vertex 7.823593200151772e+1 2.8808938926176455e+2 0e+0
    endloop
  endfacet
  facet normal 0e+0 0e+0 -1e+0
    outer loop
      vertex 1.9717089318348144e+1 1.3750964351353804e+2 0e+0
      vertex 7.823593200151772e+1 2.8808938926176455e+2 0e+0
      vertex 7.823742883231945e+1 1.3751000766791043e+2 0e+0
    endloop
  endfacet
  facet normal 0e+0 0e+0 -1e+0
    outer loop
      vertex 7.823742883231945e+1 1.3751000766791043e+2 0e+0
      vertex 7.823593200151772e+1 2.8808938926176455e+2 0e+0
      vertex 1.9527437180339282e+2 2.880914228790565e+2 0e+0
    endloop
  endfacet
  facet normal 0e+0 0e+0 -1e+0
    outer loop
      vertex 7.823593200151772e+1 2.8808938926176455e+2 0e+0
      vertex 1.9527250375581008e+2 3.6338111365991705e+2 0e+0
      vertex 1.9527437180339282e+2 2.880914228790565e+2 0e+0
    endloop
  endfacet
  facet normal 0e+0 0e+0 -1e+0
    outer loop
      vertex 7.823593200151772e+1 2.8808938926176455e+2 0e+0
      vertex 7.823518357530207e+1 3.6337908005223807e+2 0e+0
      vertex 1.9527250375581008e+2 3.6338111365991705e+2 0e+0
    endloop
  endfacet
  facet normal 0e+0 0e+0 -1e+0
    outer loop
      vertex 7.823742883231945e+1 1.3751000766791043e+2 0e+0
      vertex 1.9527437180339282e+2 2.880914228790565e+2 0e+0
      vertex 1.9527810784446362e+2 1.3751204130410144e+2 0e+0
    endloop
  endfacet
  facet normal 0e+0 0e+0 -1e+0
    outer loop
      vertex 1.9527810784446362e+2 1.3751204130410144e+2 0e+0
      vertex 1.9527437180339282e+2 2.880914228790565e+2 0e+0
      vertex 2.5379359168929446e+2 2.880930923451225e+2 0e+0
    endloop
  endfacet
  facet normal 0e+0 0e+0 -1e+0
    outer loop
      vertex 1.9527810784446362e+2 1.3751204130410144e+2 0e+0
      vertex 2.5379359168929446e+2 2.880930923451225e+2 0e+0
      vertex 2.5379844733551795e+2 1.3751371078567215e+2 0e+0
    endloop
  endfacet
  facet normal 0e+0 0e+0 -1e+0
    outer loop
      vertex 7.823817723664322e+1 6.222031686231404e+1 0e+0
      vertex 7.823742883231945e+1 1.3751000766791043e+2 0e+0
      vertex 1.9527810784446362e+2 1.3751204130410144e+2 0e+0
    endloop
  endfacet
  facet normal 0e+0 0e+0 -1e+0
    outer loop
      vertex 7.823817723664322e+1 6.222031686231404e+1 0e+0
      vertex 1.9527810784446362e+2 1.3751204130410144e+2 0e+0
      vertex 1.9527997583754205e+2 6.222235050795273e+1 0e+0
    endloop
  endfacet
  facet normal 0e+0 0e+0 1e+0
    outer loop
      vertex 7.823593200151772e+1 2.8808938926176455e+2 1e+1
      vertex 1.9716712092911433e+1 2.880890251106247e+2 1e+1
      vertex 1.9717089318348144e+1 1.3750964351353804e+2 1e+1
    endloop
  endfacet
  facet normal 0e+0 0e+0 1e+0
    outer loop
      vertex 7.823742883231945e+1 1.3751000766791043e+2 1e+1
      vertex 7.823593200151772e+1 2.8808938926176455e+2 1e+1
      vertex 1.9717089318348144e+1 1.3750964351353804e+2 1e+1
    endloop
  endfacet
  facet normal 0e+0 0e+0 1e+0
    outer loop
      vertex 1.9527437180339282e+2 2.880914228790565e+2 1e+1
      vertex 7.823593200151772e+1 2.8808938926176455e+2 1e+1
      vertex 7.823742883231945e+1 1.3751000766791043e+2 1e+1
    endloop
  endfacet
  facet normal 0e+0 0e+0 1e+0
    outer loop
      vertex 1.9527437180339282e+2 2.880914228790565e+2 1e+1
      vertex 1.9527250375581008e+2 3.6338111365991705e+2 1e+1
      vertex 7.823593200151772e+1 2.8808938926176455e+2 1e+1
    endloop
  endfacet
  facet normal 0e+0 0e+0 1e+0
    outer loop
      vertex 1.9527250375581008e+2 3.6338111365991705e+2 1e+1
      vertex 7.823518357530207e+1 3.6337908005223807e+2 1e+1
      vertex 7.823593200151772e+1 2.8808938926176455e+2 1e+1
    endloop
  endfacet
  facet normal 0e+0 0e+0 1e+0
    outer loop
      vertex 1.9527810784446362e+2 1.3751204130410144e+2 1e+1
      vertex 1.9527437180339282e+2 2.880914228790565e+2 1e+1
      vertex 7.823742883231945e+1 1.3751000766791043e+2 1e+1
    endloop
  endfacet
  facet normal 0e+0 0e+0 1e+0
    outer loop
      vertex 2.5379359168929446e+2 2.880930923451225e+2 1e+1
      vertex 1.9527437180339282e+2 2.880914228790565e+2 1e+1
      vertex 1.9527810784446362e+2 1.3751204130410144e+2 1e+1
    endloop
  endfacet
  facet normal 0e+0 0e+0 1e+0
    outer loop
      vertex 2.5379844733551795e+2 1.3751371078567215e+2 1e+1
      vertex 2.5379359168929446e+2 2.880930923451225e+2 1e+1
      vertex 1.9527810784446362e+2 1.3751204130410144e+2 1e+1
    endloop
  endfacet
  facet normal 0e+0 0e+0 1e+0
    outer loop
      vertex 1.9527810784446362e+2 1.3751204130410144e+2 1e+1
      vertex 7.823742883231945e+1 1.3751000766791043e+2 1e+1
      vertex 7.823817723664322e+1 6.222031686231404e+1 1e+1
    endloop
  endfacet
  facet normal 0e+0 0e+0 1e+0
    outer loop
      vertex 1.9527997583754205e+2 6.222235050795273e+1 1e+1
      vertex 1.9527810784446362e+2 1.3751204130410144e+2 1e+1
      vertex 7.823817723664322e+1 6.222031686231404e+1 1e+1
    endloop
  endfacet
endsolid
solid Test5
  facet normal 1.1160520097352006e-5 -9.999999999377214e-1 0e+0
    outer loop
      vertex 5.8587404362114064e+1 -3.2164249924750794e+2 0e+0
      vertex 1.1711115768099936e+2 -3.216418460919828e+2 0e+0
      vertex 1.1711115768099936e+2 -3.216418460919828e+2 4e+0
    endloop
  endfacet
  facet normal 1.1160520097352006e-5 -9.999999999377214e-1 0e+0
    outer loop
      vertex 5.8587404362114064e+1 -3.2164249924750794e+2 0e+0
      vertex 1.1711115768099936e+2 -3.216418460919828e+2 4e+0
      vertex 5.8587404362114064e+1 -3.2164249924750794e+2 4e+0
    endloop
  endfacet
  facet normal 9.99999999889326e-1 1.4877768964774971e-5 0e+0
    outer loop
      vertex 1.1711115768099936e+2 -3.216418460919828e+2 0e+0
      vertex 1.1711003753415106e+2 -2.4635187144444814e+2 0e+0
      vertex 1.1711003753415106e+2 -2.4635187144444814e+2 4e+0
    endloop
  endfacet
  facet normal 9.99999999889326e-1 1.4877768964774971e-5 0e+0
    outer loop
      vertex 1.1711115768099936e+2 -3.216418460919828e+2 0e+0
      vertex 1.1711003753415106e+2 -2.4635187144444814e+2 4e+0
      vertex 1.1711115768099936e+2 -3.216418460919828e+2 4e+0
    endloop
  endfacet
  facet normal -1.1160570586752366e-5 9.999999999377208e-1 0e+0
    outer loop
      vertex 1.1711003753415106e+2 -2.4635187144444814e+2 0e+0
      vertex 5.858684398432887e+1 -2.4635252459668075e+2 0e+0
      vertex 5.858684398432887e+1 -2.4635252459668075e+2 4e+0
    endloop
  endfacet
  facet normal -1.1160570586752366e-5 9.999999999377208e-1 0e+0
    outer loop
      vertex 1.1711003753415106e+2 -2.4635187144444814e+2 0e+0
      vertex 5.858684398432887e+1 -2.4635252459668075e+2 4e+0
      vertex 1.1711003753415106e+2 -2.4635187144444814e+2 4e+0
    endloop
  endfacet
  facet normal -9.999999999723014e-1 -7.442927000241882e-6 0e+0
    outer loop
      vertex 5.858684398432887e+1 -2.4635252459668075e+2 0e+0
      vertex 5.8587404362114064e+1 -3.2164249924750794e+2 0e+0
      vertex 5.8587404362114064e+1 -3.2164249924750794e+2 4e+0
    endloop
  endfacet
  facet normal -9.999999999723014e-1 -7.442927000241882e-6 0e+0
    outer loop
      vertex 5.858684398432887e+1 -2.4635252459668075e+2 0e+0
      vertex 5.8587404362114064e+1 -3.2164249924750794e+2 4e+0
      vertex 5.858684398432887e+1 -2.4635252459668075e+2 4e+0
    endloop
  endfacet
  facet normal 0e+0 0e+0 -1e+0
    outer loop
      vertex 1.1711115768099936e+2 -3.216418460919828e+2 0e+0
      vertex 5.858684398432887e+1 -2.4635252459668075e+2 0e+0
      vertex 1.1711003753415106e+2 -2.4635187144444814e+2 0e+0
    endloop
  endfacet
  facet normal 0e+0 0e+0 -1e+0
    outer loop
      vertex 1.1711115768099936e+2 -3.216418460919828e+2 0e+0
      vertex 5.8587404362114064e+1 -3.2164249924750794e+2 0e+0
      vertex 5.858684398432887e+1 -2.4635252459668075e+2 0e+0
    endloop
  endfacet
  facet normal 0e+0 0e+0 1e+0
    outer loop
      vertex 1.1711003753415106e+2 -2.4635187144444814e+2 4e+0
      vertex 5.858684398432887e+1 -2.4635252459668075e+2 4e+0
      vertex 1.1711115768099936e+2 -3.216418460919828e+2 4e+0
    endloop
  endfacet
  facet normal 0e+0 0e+0 1e+0
    outer loop
      vertex 5.858684398432887e+1 -2.4635252459668075e+2 4e+0
      vertex 5.8587404362114064e+1 -3.2164249924750794e+2 4e+0
      vertex 1.1711115768099936e+2 -3.216418460919828e+2 4e+0
    endloop
  endfacet
endsolid