
solid test
  facet normal -1.3048172039243848e-5 -9.999999999148727e-1 0e+0
    outer loop
      vertex -1.3195453725756542e+2 -2.6122419857488197e+1 0e+0
      vertex -7.343465690799381e+1 -2.612318343495478e+1 0e+0
      vertex -7.343465690799381e+1 -2.612318343495478e+1 6e+0
    endloop
  endfacet
  facet normal -1.3048172039243848e-5 -9.999999999148727e-1 0e+0
    outer loop
      vertex -1.3195453725756542e+2 -2.6122419857488197e+1 0e+0
      vertex -7.343465690799381e+1 -2.612318343495478e+1 6e+0
      vertex -1.3195453725756542e+2 -2.6122419857488197e+1 6e+0
    endloop
  endfacet
  facet normal 9.99999999956471e-1 -9.330487293066325e-6 0e+0
    outer loop
      vertex -7.343465690799381e+1 -2.612318343495478e+1 0e+0
      vertex -7.343395441584204e+1 4.9166791212504286e+1 0e+0
      vertex -7.343395441584204e+1 4.9166791212504286e+1 6e+0
    endloop
  endfacet
  facet normal 9.99999999956471e-1 -9.330487293066325e-6 0e+0
    outer loop
      vertex -7.343465690799381e+1 -2.612318343495478e+1 0e+0
      vertex -7.343395441584204e+1 4.9166791212504286e+1 6e+0
      vertex -7.343465690799381e+1 -2.612318343495478e+1 6e+0
    endloop
  endfacet
  facet normal 1.3048255099575413e-5 9.999999999148715e-1 0e+0
    outer loop
      vertex -7.343395441584204e+1 4.9166791212504286e+1 0e+0
      vertex -1.319532749503186e+2 4.916755478752694e+1 0e+0
      vertex -1.319532749503186e+2 4.916755478752694e+1 6e+0
    endloop
  endfacet
  facet normal 1.3048255099575413e-5 9.999999999148715e-1 0e+0
    outer loop
      vertex -7.343395441584204e+1 4.9166791212504286e+1 0e+0
      vertex -1.319532749503186e+2 4.916755478752694e+1 6e+0
      vertex -7.343395441584204e+1 4.9166791212504286e+1 6e+0
    endloop
  endfacet
  facet normal -9.999999998594516e-1 1.6765940652885075e-5 0e+0
    outer loop
      vertex -1.319532749503186e+2 4.916755478752694e+1 0e+0
      vertex -1.3195453725756542e+2 -2.6122419857488197e+1 0e+0
      vertex -1.3195453725756542e+2 -2.6122419857488197e+1 6e+0
    endloop
  endfacet
  facet normal -9.999999998594516e-1 1.6765940652885075e-5 0e+0
    outer loop
      vertex -1.319532749503186e+2 4.916755478752694e+1 0e+0
      vertex -1.3195453725756542e+2 -2.6122419857488197e+1 6e+0
      vertex -1.319532749503186e+2 4.916755478752694e+1 6e+0
    endloop
  endfacet
  facet normal 0e+0 0e+0 -1e+0
    outer loop
      vertex -7.343465690799381e+1 -2.612318343495478e+1 0e+0
      vertex -1.3195453725756542e+2 -2.6122419857488197e+1 0e+0
      vertex -1.319532749503186e+2 4.916755478752694e+1 0e+0
    endloop
  endfacet
  facet normal 0e+0 0e+0 -1e+0
    outer loop
      vertex -7.343465690799381e+1 -2.612318343495478e+1 0e+0
      vertex -1.319532749503186e+2 4.916755478752694e+1 0e+0
      vertex -7.343395441584204e+1 4.9166791212504286e+1 0e+0
    endloop
  endfacet
  facet normal 0e+0 0e+0 1e+0
    outer loop
      vertex -1.319532749503186e+2 4.916755478752694e+1 6e+0
      vertex -1.3195453725756542e+2 -2.6122419857488197e+1 6e+0
      vertex -7.343465690799381e+1 -2.612318343495478e+1 6e+0
    endloop
  endfacet
  facet normal 0e+0 0e+0 1e+0
    outer loop
      vertex -7.343395441584204e+1 4.9166791212504286e+1 6e+0
      vertex -1.319532749503186e+2 4.916755478752694e+1 6e+0
      vertex -7.343465690799381e+1 -2.612318343495478e+1 6e+0
    endloop
  endfacet
endsolid
solid test2
  facet normal 6.524082532678991e-6 -9.999999999787184e-1 0e+0
    outer loop
      vertex 3.671731029240767e+1 -2.2230326956520596e+1 0e+0
      vertex 6.597723599400918e+1 -2.2230136062350415e+1 0e+0
      vertex 6.597723599400918e+1 -2.2230136062350415e+1 9e+0
    endloop
  endfacet
  facet normal 6.524082532678991e-6 -9.999999999787184e-1 0e+0
    outer loop
      vertex 3.671731029240767e+1 -2.2230326956520596e+1 0e+0
      vertex 6.597723599400918e+1 -2.2230136062350415e+1 9e+0
      vertex 3.671731029240767e+1 -2.2230326956520596e+1 9e+0
    endloop
  endfacet
  facet normal 9.999999999648631e-1 8.382942412085261e-6 0e+0
    outer loop
      vertex 6.597723599400918e+1 -2.2230136062350415e+1 0e+0
      vertex 6.597699931218854e+1 6.003604430578118e+0 0e+0
      vertex 6.597699931218854e+1 6.003604430578118e+0 9e+0
    endloop
  endfacet
  facet normal 9.999999999648631e-1 8.382942412085261e-6 0e+0
    outer loop
      vertex 6.597723599400918e+1 -2.2230136062350415e+1 0e+0
      vertex 6.597699931218854e+1 6.003604430578118e+0 9e+0
      vertex 6.597723599400918e+1 -2.2230136062350415e+1 9e+0
    endloop
  endfacet
  facet normal -7.91820269002722e-6 9.999999999686511e-1 0e+0
    outer loop
      vertex 6.597699931218854e+1 6.003604430578118e+0 0e+0
      vertex 5.866204412724426e+1 6.0035465092802935e+0 0e+0
      vertex 5.866204412724426e+1 6.0035465092802935e+0 9e+0
    endloop
  endfacet
  facet normal -7.91820269002722e-6 9.999999999686511e-1 0e+0
    outer loop
      vertex 6.597699931218854e+1 6.003604430578118e+0 0e+0
      vertex 5.866204412724426e+1 6.0035465092802935e+0 9e+0
      vertex 6.597699931218854e+1 6.003604430578118e+0 9e+0
    endloop
  endfacet
  facet normal -9.999999999722224e-1 -7.453531963172493e-6 0e+0
    outer loop
      vertex 5.866204412724426e+1 6.0035465092802935e+0 0e+0
      vertex 5.86621844213024e+1 -1.2818947152880126e+1 0e+0
      vertex 5.86621844213024e+1 -1.2818947152880126e+1 9e+0
    endloop
  endfacet
  facet normal -9.999999999722224e-1 -7.453531963172493e-6 0e+0
    outer loop
      vertex 5.866204412724426e+1 6.0035465092802935e+0 0e+0
      vertex 5.86621844213024e+1 -1.2818947152880126e+1 9e+0
      vertex 5.866204412724426e+1 6.0035465092802935e+0 9e+0
    endloop
  endfacet
  facet normal -6.524096821099183e-6 9.99999999978718e-1 0e+0
    outer loop
      vertex 5.86621844213024e+1 -1.2818947152880126e+1 0e+0
      vertex 4.403223906521327e+1 -1.2819042600060119e+1 0e+0
      vertex 4.403223906521327e+1 -1.2819042600060119e+1 9e+0
    endloop
  endfacet
  facet normal -6.524096821099183e-6 9.99999999978718e-1 0e+0
    outer loop
      vertex 5.86621844213024e+1 -1.2818947152880126e+1 0e+0
      vertex 4.403223906521327e+1 -1.2819042600060119e+1 9e+0
      vertex 5.86621844213024e+1 -1.2818947152880126e+1 9e+0
    endloop
  endfacet
  facet normal 9.999999999843499e-1 5.594673710327334e-6 0e+0
    outer loop
      vertex 4.403223906521327e+1 -1.2819042600060119e+1 0e+0
      vertex 4.403213375950281e+1 6.003451062010739e+0 0e+0
      vertex 4.403213375950281e+1 6.003451062010739e+0 9e+0
    endloop
  endfacet
  facet normal 9.999999999843499e-1 5.594673710327334e-6 0e+0
    outer loop
      vertex 4.403223906521327e+1 -1.2819042600060119e+1 0e+0
      vertex 4.403213375950281e+1 6.003451062010739e+0 9e+0
      vertex 4.403223906521327e+1 -1.2819042600060119e+1 9e+0
    endloop
  endfacet
  facet normal -5.129938848841416e-6 9.99999999986842e-1 0e+0
    outer loop
      vertex 4.403213375950281e+1 6.003451062010739e+0 0e+0
      vertex 3.67171785755419e+1 6.003413536737963e+0 0e+0
      vertex 3.67171785755419e+1 6.003413536737963e+0 9e+0
    endloop
  endfacet
  facet normal -5.129938848841416e-6 9.99999999986842e-1 0e+0
    outer loop
      vertex 4.403213375950281e+1 6.003451062010739e+0 0e+0
      vertex 3.67171785755419e+1 6.003413536737963e+0 9e+0
      vertex 4.403213375950281e+1 6.003451062010739e+0 9e+0
    endloop
  endfacet
  facet normal -9.999999999891178e-1 -4.665229029657758e-6 0e+0
    outer loop
      vertex 3.67171785755419e+1 6.003413536737963e+0 0e+0
      vertex 3.671731029240767e+1 -2.2230326956520596e+1 0e+0
      vertex 3.671731029240767e+1 -2.2230326956520596e+1 9e+0
    endloop
  endfacet
  facet normal -9.999999999891178e-1 -4.665229029657758e-6 0e+0
    outer loop
      vertex 3.67171785755419e+1 6.003413536737963e+0 0e+0
      vertex 3.671731029240767e+1 -2.2230326956520596e+1 9e+0
      vertex 3.67171785755419e+1 6.003413536737963e+0 9e+0
    endloop
  endfacet
  facet normal 0e+0 0e+0 -1e+0
    outer loop
      vertex 4.403223906521327e+1 -1.2819042600060119e+1 0e+0
      vertex 3.67171785755419e+1 6.003413536737963e+0 0e+0
      vertex 4.403213375950281e+1 6.003451062010739e+0 0e+0
    endloop
  endfacet
  facet normal 0e+0 0e+0 -1e+0
    outer loop
      vertex 4.403223906521327e+1 -1.2819042600060119e+1 0e+0
      vertex 3.671731029240767e+1 -2.2230326956520596e+1 0e+0
      vertex 3.67171785755419e+1 6.003413536737963e+0 0e+0
    endloop
  endfacet
  facet normal 0e+0 0e+0 -1e+0
    outer loop
      vertex 3.671731029240767e+1 -2.2230326956520596e+1 0e+0
      vertex 4.403223906521327e+1 -1.2819042600060119e+1 0e+0
      vertex 5.86621844213024e+1 -1.2818947152880126e+1 0e+0
    endloop
  endfacet
  facet normal 0e+0 0e+0 -1e+0
    outer loop
      vertex 3.671731029240767e+1 -2.2230326956520596e+1 0e+0
      vertex 5.86621844213024e+1 -1.2818947152880126e+1 0e+0
      vertex 6.597723599400918e+1 -2.2230136062350415e+1 0e+0
    endloop
  endfacet
  facet normal 0e+0 0e+0 -1e+0
    outer loop
      vertex 6.597723599400918e+1 -2.2230136062350415e+1 0e+0
      vertex 5.86621844213024e+1 -1.2818947152880126e+1 0e+0
      vertex 6.597699931218854e+1 6.003604430578118e+0 0e+0
    endloop
  endfacet
  facet normal 0e+0 0e+0 -1e+0
    outer loop
      vertex 6.597699931218854e+1 6.003604430578118e+0 0e+0
      vertex 5.86621844213024e+1 -1.2818947152880126e+1 0e+0
      vertex 5.866204412724426e+1 6.0035465092802935e+0 0e+0
    endloop
  endfacet
  facet normal 0e+0 0e+0 1e+0
    outer loop
      vertex 4.403213375950281e+1 6.003451062010739e+0 9e+0
      vertex 3.67171785755419e+1 6.003413536737963e+0 9e+0
      vertex 4.403223906521327e+1 -1.2819042600060119e+1 9e+0
    endloop
  endfacet
  facet normal 0e+0 0e+0 1e+0
    outer loop
      vertex 3.67171785755419e+1 6.003413536737963e+0 9e+0
      vertex 3.671731029240767e+1 -2.2230326956520596e+1 9e+0
      vertex 4.403223906521327e+1 -1.2819042600060119e+1 9e+0
    endloop
  endfacet
  facet normal 0e+0 0e+0 1e+0
    outer loop
      vertex 5.86621844213024e+1 -1.2818947152880126e+1 9e+0
      vertex 4.403223906521327e+1 -1.2819042600060119e+1 9e+0
      vertex 3.671731029240767e+1 -2.2230326956520596e+1 9e+0
    endloop
  endfacet
  facet normal 0e+0 0e+0 1e+0
    outer loop
      vertex 6.597723599400918e+1 -2.2230136062350415e+1 9e+0
      vertex 5.86621844213024e+1 -1.2818947152880126e+1 9e+0
      vertex 3.671731029240767e+1 -2.2230326956520596e+1 9e+0
    endloop
  endfacet
  facet normal 0e+0 0e+0 1e+0
    outer loop
      vertex 6.597699931218854e+1 6.003604430578118e+0 9e+0
      vertex 5.86621844213024e+1 -1.2818947152880126e+1 9e+0
      vertex 6.597723599400918e+1 -2.2230136062350415e+1 9e+0
    endloop
  endfacet
  facet normal 0e+0 0e+0 1e+0
    outer loop
      vertex 5.866204412724426e+1 6.0035465092802935e+0 9e+0
      vertex 5.86621844213024e+1 -1.2818947152880126e+1 9e+0
      vertex 6.597699931218854e+1 6.003604430578118e+0 9e+0
    endloop
  endfacet
endsolid