
solid coordTest
  facet normal -5.463684898193554e-6 -9.999999999850739e-1 0e+0
    outer loop
      vertex -5.763177479381397e+1 6.296016824883858e+1 0e+0
      vertex -2.837188994378985e+1 6.29600083820476e+1 0e+0
      vertex -2.837188994378985e+1 6.29600083820476e+1 2e+1
    endloop
  endfacet
  facet normal -5.463684898193554e-6 -9.999999999850739e-1 0e+0
    outer loop
      vertex -5.763177479381397e+1 6.296016824883858e+1 0e+0
      vertex -2.837188994378985e+1 6.29600083820476e+1 2e+1
      vertex -5.763177479381397e+1 6.296016824883858e+1 2e+1
    endloop
  endfacet
  facet normal 9.999999999935025e-1 -3.6048760958340587e-6 0e+0
    outer loop
      vertex -2.837188994378985e+1 6.29600083820476e+1 0e+0
      vertex -2.8371754238274914e+1 1.0060499570672297e+2 0e+0
      vertex -2.8371754238274914e+1 1.0060499570672297e+2 2e+1
    endloop
  endfacet
  facet normal 9.999999999935025e-1 -3.6048760958340587e-6 0e+0
    outer loop
      vertex -2.837188994378985e+1 6.29600083820476e+1 0e+0
      vertex -2.8371754238274914e+1 1.0060499570672297e+2 2e+1
      vertex -2.837188994378985e+1 6.29600083820476e+1 2e+1
    endloop
  endfacet
  facet normal 5.463701295733702e-6 9.99999999985074e-1 0e+0
    outer loop
      vertex -2.8371754238274914e+1 1.0060499570672297e+2 0e+0
      vertex -5.7631499135382725e+1 1.0060515557322908e+2 0e+0
      vertex -5.7631499135382725e+1 1.0060515557322908e+2 2e+1
    endloop
  endfacet
  facet normal 5.463701295733702e-6 9.99999999985074e-1 0e+0
    outer loop
      vertex -2.8371754238274914e+1 1.0060499570672297e+2 0e+0
      vertex -5.7631499135382725e+1 1.0060515557322908e+2 2e+1
      vertex -2.8371754238274914e+1 1.0060499570672297e+2 2e+1
    endloop
  endfacet
  facet normal -9.999999999731899e-1 7.322579998751353e-6 0e+0
    outer loop
      vertex -5.7631499135382725e+1 1.0060515557322908e+2 0e+0
      vertex -5.763177479381397e+1 6.296016824883858e+1 0e+0
      vertex -5.763177479381397e+1 6.296016824883858e+1 2e+1
    endloop
  endfacet
  facet normal -9.999999999731899e-1 7.322579998751353e-6 0e+0
    outer loop
      vertex -5.7631499135382725e+1 1.0060515557322908e+2 0e+0
      vertex -5.763177479381397e+1 6.296016824883858e+1 2e+1
      vertex -5.7631499135382725e+1 1.0060515557322908e+2 2e+1
    endloop
  endfacet
  facet normal 0e+0 0e+0 -1e+0
    outer loop
      vertex -2.837188994378985e+1 6.29600083820476e+1 0e+0
      vertex -5.763177479381397e+1 6.296016824883858e+1 0e+0
      vertex -5.7631499135382725e+1 1.0060515557322908e+2 0e+0
    endloop
  endfacet
  facet normal 0e+0 0e+0 -1e+0
    outer loop
      vertex -2.837188994378985e+1 6.29600083820476e+1 0e+0
      vertex -5.7631499135382725e+1 1.0060515557322908e+2 0e+0
      vertex -2.8371754238274914e+1 1.0060499570672297e+2 0e+0
    endloop
  endfacet
  facet normal 0e+0 0e+0 1e+0
    outer loop
      vertex -5.7631499135382725e+1 1.0060515557322908e+2 2e+1
      vertex -5.763177479381397e+1 6.296016824883858e+1 2e+1
      vertex -2.837188994378985e+1 6.29600083820476e+1 2e+1
    endloop
  endfacet
  facet normal 0e+0 0e+0 1e+0
    outer loop
      vertex -2.8371754238274914e+1 1.0060499570672297e+2 2e+1
      vertex -5.7631499135382725e+1 1.0060515557322908e+2 2e+1
      vertex -2.837188994378985e+1 6.29600083820476e+1 2e+1
    endloop
  endfacet
endsolid
solid buildingTest
  facet normal -5.463684898193554e-6 -9.99999999985074e-1 0e+0
    outer loop
      vertex -5.763177479381397e+1 6.296016824883858e+1 0e+0
      vertex -2.837188994378985e+1 6.29600083820476e+1 0e+0
      vertex -2.837188994378985e+1 6.29600083820476e+1 2.5e+1
    endloop
  endfacet
  facet normal -5.463684898193554e-6 -9.99999999985074e-1 0e+0
    outer loop
      vertex -5.763177479381397e+1 6.296016824883858e+1 0e+0
      vertex -2.837188994378985e+1 6.29600083820476e+1 2.5e+1
      vertex -5.763177479381397e+1 6.296016824883858e+1 2.5e+1
    endloop
  endfacet
  facet normal 9.999999999935024e-1 -3.6048760958340587e-6 0e+0
    outer loop
      vertex -2.837188994378985e+1 6.29600083820476e+1 0e+0
      vertex -2.8371754238274914e+1 1.0060499570672297e+2 0e+0
      vertex -2.8371754238274914e+1 1.0060499570672297e+2 2.5e+1
    endloop
  endfacet
  facet normal 9.999999999935024e-1 -3.6048760958340587e-6 0e+0
    outer loop
      vertex -2.837188994378985e+1 6.29600083820476e+1 0e+0
      vertex -2.8371754238274914e+1 1.0060499570672297e+2 2.5e+1
      vertex -2.837188994378985e+1 6.29600083820476e+1 2.5e+1
    endloop
  endfacet
  facet normal 5.4637012957337e-6 9.999999999850738e-1 0e+0
    outer loop
      vertex -2.8371754238274914e+1 1.0060499570672297e+2 0e+0
      vertex -5.7631499135382725e+1 1.0060515557322908e+2 0e+0
      vertex -5.7631499135382725e+1 1.0060515557322908e+2 2.5e+1
    endloop
  endfacet
  facet normal 5.4637012957337e-6 9.999999999850738e-1 0e+0
    outer loop
      vertex -2.8371754238274914e+1 1.0060499570672297e+2 0e+0
      vertex -5.7631499135382725e+1 1.0060515557322908e+2 2.5e+1
      vertex -2.8371754238274914e+1 1.0060499570672297e+2 2.5e+1
    endloop
  endfacet
  facet normal -9.999999999731899e-1 7.3225799987513534e-6 0e+0
    outer loop
      vertex -5.7631499135382725e+1 1.0060515557322908e+2 0e+0
      vertex -5.763177479381397e+1 6.296016824883858e+1 0e+0
      vertex -5.763177479381397e+1 6.296016824883858e+1 2.5e+1
    endloop
  endfacet
  facet normal -9.999999999731899e-1 7.3225799987513534e-6 0e+0
    outer loop
      vertex -5.7631499135382725e+1 1.0060515557322908e+2 0e+0
      vertex -5.763177479381397e+1 6.296016824883858e+1 2.5e+1
      vertex -5.7631499135382725e+1 1.0060515557322908e+2 2.5e+1
    endloop
  endfacet
  facet normal 0e+0 0e+0 -1e+0
    outer loop
      vertex -2.837188994378985e+1 6.29600083820476e+1 0e+0
      vertex -5.763177479381397e+1 6.296016824883858e+1 0e+0
      vertex -5.7631499135382725e+1 1.0060515557322908e+2 0e+0
    endloop
  endfacet
  facet normal 0e+0 0e+0 -1e+0
    outer loop
      vertex -2.837188994378985e+1 6.29600083820476e+1 0e+0
      vertex -5.7631499135382725e+1 1.0060515557322908e+2 0e+0
      vertex -2.8371754238274914e+1 1.0060499570672297e+2 0e+0
    endloop
  endfacet
  facet normal 0e+0 0e+0 1e+0
    outer loop
      vertex -5.7631499135382725e+1 1.0060515557322908e+2 2.5e+1
      vertex -5.763177479381397e+1 6.296016824883858e+1 2.5e+1
      vertex -2.837188994378985e+1 6.29600083820476e+1 2.5e+1
    endloop
  endfacet
  facet normal 0e+0 0e+0 1e+0
    outer loop
      vertex -2.8371754238274914e+1 1.0060499570672297e+2 2.5e+1
      vertex -5.7631499135382725e+1 1.0060515557322908e+2 2.5e+1
      vertex -2.837188994378985e+1 6.29600083820476e+1 2.5e+1
    endloop
  endfacet
endsolid
solid buildingTest
  facet normal 5.723871432037579e-6 -9.999999999836187e-1 0e+0
    outer loop
      vertex 3.773510503345233e+1 1.678330659048866e+1 0e+0
      vertex 5.236513329322484e+1 1.6783390330889468e+1 0e+0
      vertex 5.236513329322484e+1 1.6783390330889468e+1 2.5e+1
    endloop
  endfacet
  facet normal 5.723871432037579e-6 -9.999999999836187e-1 0e+0
    outer loop
      vertex 3.773510503345233e+1 1.678330659048866e+1 0e+0
      vertex 5.236513329322484e+1 1.6783390330889468e+1 2.5e+1
      vertex 3.773510503345233e+1 1.678330659048866e+1 2.5e+1
    endloop
  endfacet
  facet normal 9.999999999778666e-1 6.65332953986201e-6 0e+0
    outer loop
      vertex 5.236513329322484e+1 1.6783390330889468e+1 0e+0
      vertex 5.236500806097173e+1 3.5605883993856665e+1 0e+0
      vertex 5.236500806097173e+1 3.5605883993856665e+1 2.5e+1
    endloop
  endfacet
  facet normal 9.999999999778666e-1 6.65332953986201e-6 0e+0
    outer loop
      vertex 5.236513329322484e+1 1.6783390330889468e+1 0e+0
      vertex 5.236500806097173e+1 3.5605883993856665e+1 2.5e+1
      vertex 5.236513329322484e+1 1.6783390330889468e+1 2.5e+1
    endloop
  endfacet
  facet normal 8.512155967536574e-6 -9.999999999637715e-1 0e+0
    outer loop
      vertex 5.236500806097173e+1 3.5605883993856665e+1 0e+0
      vertex 8.162499460493041e+1 3.5606133059425744e+1 0e+0
      vertex 8.162499460493041e+1 3.5606133059425744e+1 2.5e+1
    endloop
  endfacet
  facet normal 8.512155967536574e-6 -9.999999999637715e-1 0e+0
    outer loop
      vertex 5.236500806097173e+1 3.5605883993856665e+1 0e+0
      vertex 8.162499460493041e+1 3.5606133059425744e+1 2.5e+1
      vertex 5.236500806097173e+1 3.5605883993856665e+1 2.5e+1
    endloop
  endfacet
  facet normal -9.999999999462211e-1 -1.0371003822138521e-5 0e+0
    outer loop
      vertex 8.162499460493041e+1 3.5606133059425744e+1 0e+0
      vertex 8.162518981308413e+1 1.678363939688687e+1 0e+0
      vertex 8.162518981308413e+1 1.678363939688687e+1 2.5e+1
    endloop
  endfacet
  facet normal -9.999999999462211e-1 -1.0371003822138521e-5 0e+0
    outer loop
      vertex 8.162499460493041e+1 3.5606133059425744e+1 0e+0
      vertex 8.162518981308413e+1 1.678363939688687e+1 2.5e+1
      vertex 8.162499460493041e+1 3.5606133059425744e+1 2.5e+1
    endloop
  endfacet
  facet normal 1.130038309107887e-5 -9.999999999361507e-1 0e+0
    outer loop
      vertex 8.162518981308413e+1 1.678363939688687e+1 0e+0
      vertex 9.625521807324552e+1 1.6783804721810853e+1 0e+0
      vertex 9.625521807324552e+1 1.6783804721810853e+1 2.5e+1
    endloop
  endfacet
  facet normal 1.130038309107887e-5 -9.999999999361507e-1 0e+0
    outer loop
      vertex 8.162518981308413e+1 1.678363939688687e+1 0e+0
      vertex 9.625521807324552e+1 1.6783804721810853e+1 2.5e+1
      vertex 8.162518981308413e+1 1.678363939688687e+1 2.5e+1
    endloop
  endfacet
  facet normal 9.999999999252149e-1 1.222988228840083e-5 0e+0
    outer loop
      vertex 9.625521807324552e+1 1.6783804721810853e+1 0e+0
      vertex 9.6254297285718e+1 9.20737793705359e+1 0e+0
      vertex 9.6254297285718e+1 9.20737793705359e+1 2.5e+1
    endloop
  endfacet
  facet normal 9.999999999252149e-1 1.222988228840083e-5 0e+0
    outer loop
      vertex 9.625521807324552e+1 1.6783804721810853e+1 0e+0
      vertex 9.6254297285718e+1 9.20737793705359e+1 2.5e+1
      vertex 9.625521807324552e+1 1.6783804721810853e+1 2.5e+1
    endloop
  endfacet
  facet normal -1.1300446409311033e-5 9.9999999993615e-1 0e+0
    outer loop
      vertex 9.6254297285718e+1 9.20737793705359e+1 0e+0
      vertex 8.162440897797217e+1 9.20736140462671e+1 0e+0
      vertex 8.162440897797217e+1 9.20736140462671e+1 2.5e+1
    endloop
  endfacet
  facet normal -1.1300446409311033e-5 9.9999999993615e-1 0e+0
    outer loop
      vertex 9.6254297285718e+1 9.20737793705359e+1 0e+0
      vertex 8.162440897797217e+1 9.20736140462671e+1 2.5e+1
      vertex 9.6254297285718e+1 9.20737793705359e+1 2.5e+1
    endloop
  endfacet
  facet normal -9.999999999462206e-1 -1.037106119937401e-5 0e+0
    outer loop
      vertex 8.162440897797217e+1 9.20736140462671e+1 0e+0
      vertex 8.162460418720588e+1 7.325112038375963e+1 0e+0
      vertex 8.162460418720588e+1 7.325112038375963e+1 2.5e+1
    endloop
  endfacet
  facet normal -9.999999999462206e-1 -1.037106119937401e-5 0e+0
    outer loop
      vertex 8.162440897797217e+1 9.20736140462671e+1 0e+0
      vertex 8.162460418720588e+1 7.325112038375963e+1 2.5e+1
      vertex 8.162440897797217e+1 9.20736140462671e+1 2.5e+1
    endloop
  endfacet
  facet normal -8.512173685048109e-6 9.999999999637714e-1 0e+0
    outer loop
      vertex 8.162460418720588e+1 7.325112038375963e+1 0e+0
      vertex 5.236475759552778e+1 7.325087131886343e+1 0e+0
      vertex 5.236475759552778e+1 7.325087131886343e+1 2.5e+1
    endloop
  endfacet
  facet normal -8.512173685048109e-6 9.999999999637714e-1 0e+0
    outer loop
      vertex 8.162460418720588e+1 7.325112038375963e+1 0e+0
      vertex 5.236475759552778e+1 7.325087131886343e+1 2.5e+1
      vertex 8.162460418720588e+1 7.325112038375963e+1 2.5e+1
    endloop
  endfacet
  facet normal 9.999999999778664e-1 6.653361667853412e-6 0e+0
    outer loop
      vertex 5.236475759552778e+1 7.325087131886343e+1 0e+0
      vertex 5.2364632362669944e+1 9.207336498180011e+1 0e+0
      vertex 5.2364632362669944e+1 9.207336498180011e+1 2.5e+1
    endloop
  endfacet
  facet normal 9.999999999778664e-1 6.653361667853412e-6 0e+0
    outer loop
      vertex 5.236475759552778e+1 7.325087131886343e+1 0e+0
      vertex 5.2364632362669944e+1 9.207336498180011e+1 2.5e+1
      vertex 5.236475759552778e+1 7.325087131886343e+1 2.5e+1
    endloop
  endfacet
  facet normal -5.723915365072629e-6 9.999999999836184e-1 0e+0
    outer loop
      vertex 5.2364632362669944e+1 9.207336498180011e+1 0e+0
      vertex 3.773474405523491e+1 9.207328124155764e+1 0e+0
      vertex 3.773474405523491e+1 9.207328124155764e+1 2.5e+1
    endloop
  endfacet
  facet normal -5.723915365072629e-6 9.999999999836184e-1 0e+0
    outer loop
      vertex 5.2364632362669944e+1 9.207336498180011e+1 0e+0
      vertex 3.773474405523491e+1 9.207328124155764e+1 2.5e+1
      vertex 5.2364632362669944e+1 9.207336498180011e+1 2.5e+1
    endloop
  endfacet
  facet normal -9.999999999885063e-1 -4.7945057636692215e-6 0e+0
    outer loop
      vertex 3.773474405523491e+1 9.207328124155764e+1 0e+0
      vertex 3.773510503345233e+1 1.678330659048866e+1 0e+0
      vertex 3.773510503345233e+1 1.678330659048866e+1 2.5e+1
    endloop
  endfacet
  facet normal -9.999999999885063e-1 -4.7945057636692215e-6 0e+0
    outer loop
      vertex 3.773474405523491e+1 9.207328124155764e+1 0e+0
      vertex 3.773510503345233e+1 1.678330659048866e+1 2.5e+1
      vertex 3.773474405523491e+1 9.207328124155764e+1 2.5e+1
    endloop
  endfacet
  facet normal 0e+0 0e+0 -1e+0
    outer loop
      vertex 5.236475759552778e+1 7.325087131886343e+1 0e+0
      vertex 3.773474405523491e+1 9.207328124155764e+1 0e+0
      vertex 5.2364632362669944e+1 9.207336498180011e+1 0e+0
    endloop
  endfacet
  facet normal 0e+0 0e+0 -1e+0
    outer loop
      vertex 5.236475759552778e+1 7.325087131886343e+1 0e+0
      vertex 3.773510503345233e+1 1.678330659048866e+1 0e+0
      vertex 3.773474405523491e+1 9.207328124155764e+1 0e+0
    endloop
  endfacet
  facet normal 0e+0 0e+0 -1e+0
    outer loop
      vertex 5.236500806097173e+1 3.5605883993856665e+1 0e+0
      vertex 3.773510503345233e+1 1.678330659048866e+1 0e+0
      vertex 5.236475759552778e+1 7.325087131886343e+1 0e+0
    endloop
  endfacet
  facet normal 0e+0 0e+0 -1e+0
    outer loop
      vertex 5.236500806097173e+1 3.5605883993856665e+1 0e+0
      vertex 5.236475759552778e+1 7.325087131886343e+1 0e+0
      vertex 8.162460418720588e+1 7.325112038375963e+1 0e+0
    endloop
  endfacet
  facet normal 0e+0 0e+0 -1e+0
    outer loop
      vertex 5.236500806097173e+1 3.5605883993856665e+1 0e+0
      vertex 8.162460418720588e+1 7.325112038375963e+1 0e+0
      vertex 8.162499460493041e+1 3.5606133059425744e+1 0e+0
    endloop
  endfacet
  facet normal 0e+0 0e+0 -1e+0
    outer loop
      vertex 8.162499460493041e+1 3.5606133059425744e+1 0e+0
      vertex 8.162460418720588e+1 7.325112038375963e+1 0e+0
      vertex 9.625521807324552e+1 1.6783804721810853e+1 0e+0
    endloop
  endfacet
  facet normal 0e+0 0e+0 -1e+0
    outer loop
      vertex 9.625521807324552e+1 1.6783804721810853e+1 0e+0
      vertex 8.162460418720588e+1 7.325112038375963e+1 0e+0
      vertex 9.6254297285718e+1 9.20737793705359e+1 0e+0
    endloop
  endfacet
  facet normal 0e+0 0e+0 -1e+0
    outer loop
      vertex 9.6254297285718e+1 9.20737793705359e+1 0e+0
      vertex 8.162460418720588e+1 7.325112038375963e+1 0e+0
      vertex 8.162440897797217e+1 9.20736140462671e+1 0e+0
    endloop
  endfacet
  facet normal 0e+0 0e+0 -1e+0
    outer loop
      vertex 9.625521807324552e+1 1.6783804721810853e+1 0e+0
      vertex 8.162518981308413e+1 1.678363939688687e+1 0e+0
      vertex 8.162499460493041e+1 3.5606133059425744e+1 0e+0
    endloop
  endfacet
  facet normal 0e+0 0e+0 -1e+0
    outer loop
      vertex 5.236513329322484e+1 1.6783390330889468e+1 0e+0
      vertex 3.773510503345233e+1 1.678330659048866e+1 0e+0
      vertex 5.236500806097173e+1 3.5605883993856665e+1 0e+0
    endloop
  endfacet
  facet normal 0e+0 0e+0 1e+0
    outer loop
      vertex 5.2364632362669944e+1 9.207336498180011e+1 2.5e+1
      vertex 3.773474405523491e+1 9.207328124155764e+1 2.5e+1
      vertex 5.236475759552778e+1 7.325087131886343e+1 2.5e+1
    endloop
  endfacet
  facet normal 0e+0 0e+0 1e+0
    outer loop
      vertex 3.773474405523491e+1 9.207328124155764e+1 2.5e+1
      vertex 3.773510503345233e+1 1.678330659048866e+1 2.5e+1
      vertex 5.236475759552778e+1 7.325087131886343e+1 2.5e+1
    endloop
  endfacet
  facet normal 0e+0 0e+0 1e+0
    outer loop
      vertex 5.236475759552778e+1 7.325087131886343e+1 2.5e+1
      vertex 3.773510503345233e+1 1.678330659048866e+1 2.5e+1
      vertex 5.236500806097173e+1 3.5605883993856665e+1 2.5e+1
    endloop
  endfacet
  facet normal 0e+0 0e+0 1e+0
    outer loop
      vertex 8.162460418720588e+1 7.325112038375963e+1 2.5e+1
      vertex 5.236475759552778e+1 7.325087131886343e+1 2.5e+1
      vertex 5.236500806097173e+1 3.5605883993856665e+1 2.5e+1
    endloop
  endfacet
  facet normal 0e+0 0e+0 1e+0
    outer loop
      vertex 8.162499460493041e+1 3.5606133059425744e+1 2.5e+1
      vertex 8.162460418720588e+1 7.325112038375963e+1 2.5e+1
      vertex 5.236500806097173e+1 3.5605883993856665e+1 2.5e+1
    endloop
  endfacet
  facet normal 0e+0 0e+0 1e+0
    outer loop
      vertex 9.625521807324552e+1 1.6783804721810853e+1 2.5e+1
      vertex 8.162460418720588e+1 7.325112038375963e+1 2.5e+1
      vertex 8.162499460493041e+1 3.5606133059425744e+1 2.5e+1
    endloop
  endfacet
  facet normal 0e+0 0e+0 1e+0
    outer loop
      vertex 9.6254297285718e+1 9.20737793705359e+1 2.5e+1
      vertex 8.162460418720588e+1 7.325112038375963e+1 2.5e+1
      vertex 9.625521807324552e+1 1.6783804721810853e+1 2.5e+1
    endloop
  endfacet
  facet normal 0e+0 0e+0 1e+0
    outer loop
      vertex 8.162440897797217e+1 9.20736140462671e+1 2.5e+1
      vertex 8.162460418720588e+1 7.325112038375963e+1 2.5e+1
      vertex 9.6254297285718e+1 9.20737793705359e+1 2.5e+1
    endloop
  endfacet
  facet normal 0e+0 0e+0 1e+0
    outer loop
      vertex 8.162499460493041e+1 3.5606133059425744e+1 2.5e+1
      vertex 8.162518981308413e+1 1.678363939688687e+1 2.5e+1
      vertex 9.625521807324552e+1 1.6783804721810853e+1 2.5e+1
    endloop
  endfacet
  facet normal 0e+0 0e+0 1e+0
    outer loop
      vertex 5.236500806097173e+1 3.5605883993856665e+1 2.5e+1
      vertex 3.773510503345233e+1 1.678330659048866e+1 2.5e+1
      vertex 5.236513329322484e+1 1.6783390330889468e+1 2.5e+1
    endloop
  endfacet
endsolid
solid buildingTest
  facet normal 1.3720504764124428e-5 9.99999999905874e-1 0e+0
    outer loop
      vertex -1.0433080165514492e+2 -6.052710407628748e+0 0e+0
      vertex -1.1164583700863872e+2 -6.052610041651321e+0 0e+0
      vertex -1.1164583700863872e+2 -6.052610041651321e+0 2.5e+1
    endloop
  endfacet
  facet normal 1.3720504764124428e-5 9.99999999905874e-1 0e+0
    outer loop
      vertex -1.0433080165514492e+2 -6.052710407628748e+0 0e+0
      vertex -1.1164583700863872e+2 -6.052610041651321e+0 2.5e+1
      vertex -1.0433080165514492e+2 -6.052710407628748e+0 2.5e+1
    endloop
  endfacet
  facet normal -9.999999998993897e-1 1.4185219854025324e-5 0e+0
    outer loop
      vertex -1.1164583700863872e+2 -6.052610041651321e+0 0e+0
      vertex -1.1164610400984955e+2 -2.4875103704098596e+1 0e+0
      vertex -1.1164610400984955e+2 -2.4875103704098596e+1 2.5e+1
    endloop
  endfacet
  facet normal -9.999999998993897e-1 1.4185219854025324e-5 0e+0
    outer loop
      vertex -1.1164583700863872e+2 -6.052610041651321e+0 0e+0
      vertex -1.1164610400984955e+2 -2.4875103704098596e+1 2.5e+1
      vertex -1.1164583700863872e+2 -6.052610041651321e+0 2.5e+1
    endloop
  endfacet
  facet normal -1.3720526278457634e-5 -9.999999999058736e-1 0e+0
    outer loop
      vertex -1.1164610400984955e+2 -2.4875103704098596e+1 0e+0
      vertex -1.0433105116243645e+2 -2.4875204070473426e+1 0e+0
      vertex -1.0433105116243645e+2 -2.4875204070473426e+1 2.5e+1
    endloop
  endfacet
  facet normal -1.3720526278457634e-5 -9.999999999058736e-1 0e+0
    outer loop
      vertex -1.1164610400984955e+2 -2.4875103704098596e+1 0e+0
      vertex -1.0433105116243645e+2 -2.4875204070473426e+1 2.5e+1
      vertex -1.1164610400984955e+2 -2.4875103704098596e+1 2.5e+1
    endloop
  endfacet
  facet normal -9.999999999121424e-1 1.3255765077572628e-5 0e+0
    outer loop
      vertex -1.0433105116243645e+2 -2.4875204070473426e+1 0e+0
      vertex -1.0433117591571353e+2 -3.428645090055833e+1 0e+0
      vertex -1.0433117591571353e+2 -3.428645090055833e+1 2.5e+1
    endloop
  endfacet
  facet normal -9.999999999121424e-1 1.3255765077572628e-5 0e+0
    outer loop
      vertex -1.0433105116243645e+2 -2.4875204070473426e+1 0e+0
      vertex -1.0433117591571353e+2 -3.428645090055833e+1 2.5e+1
      vertex -1.0433105116243645e+2 -2.4875204070473426e+1 2.5e+1
    endloop
  endfacet
  facet normal -1.2326388113627074e-5 -9.999999999240302e-1 0e+0
    outer loop
      vertex -1.0433117591571353e+2 -3.428645090055833e+1 0e+0
      vertex -8.970105272676223e+1 -3.428663123713492e+1 0e+0
      vertex -8.970105272676223e+1 -3.428663123713492e+1 2.5e+1
    endloop
  endfacet
  facet normal -1.2326388113627074e-5 -9.999999999240302e-1 0e+0
    outer loop
      vertex -1.0433117591571353e+2 -3.428645090055833e+1 0e+0
      vertex -8.970105272676223e+1 -3.428663123713492e+1 2.5e+1
      vertex -1.0433117591571353e+2 -3.428645090055833e+1 2.5e+1
    endloop
  endfacet
  facet normal 9.99999999935055e-1 -1.1396933861968899e-5 0e+0
    outer loop
      vertex -8.970105272676223e+1 -3.428663123713492e+1 0e+0
      vertex -8.970094546740454e+1 -2.4875384406819382e+1 0e+0
      vertex -8.970094546740454e+1 -2.4875384406819382e+1 2.5e+1
    endloop
  endfacet
  facet normal 9.99999999935055e-1 -1.1396933861968899e-5 0e+0
    outer loop
      vertex -8.970105272676223e+1 -3.428663123713492e+1 0e+0
      vertex -8.970094546740454e+1 -2.4875384406819382e+1 2.5e+1
      vertex -8.970105272676223e+1 -3.428663123713492e+1 2.5e+1
    endloop
  endfacet
  facet normal -1.0932231769349824e-5 -9.999999999402431e-1 0e+0
    outer loop
      vertex -8.970094546740454e+1 -2.4875384406819382e+1 0e+0
      vertex -8.238589261787918e+1 -2.4875464376672543e+1 0e+0
      vertex -8.238589261787918e+1 -2.4875464376672543e+1 2.5e+1
    endloop
  endfacet
  facet normal -1.0932231769349824e-5 -9.999999999402431e-1 0e+0
    outer loop
      vertex -8.970094546740454e+1 -2.4875384406819382e+1 0e+0
      vertex -8.238589261787918e+1 -2.4875464376672543e+1 2.5e+1
      vertex -8.970094546740454e+1 -2.4875384406819382e+1 2.5e+1
    endloop
  endfacet
  facet normal 9.999999999452149e-1 -1.0467567612948832e-5 0e+0
    outer loop
      vertex -8.238589261787918e+1 -2.4875464376672543e+1 0e+0
      vertex -8.238569559215411e+1 -6.052970713738871e+0 0e+0
      vertex -8.238569559215411e+1 -6.052970713738871e+0 2.5e+1
    endloop
  endfacet
  facet normal 9.999999999452149e-1 -1.0467567612948832e-5 0e+0
    outer loop
      vertex -8.238589261787918e+1 -2.4875464376672543e+1 0e+0
      vertex -8.238569559215411e+1 -6.052970713738871e+0 2.5e+1
      vertex -8.238589261787918e+1 -2.4875464376672543e+1 2.5e+1
    endloop
  endfacet
  facet normal 1.0932266595280267e-5 9.999999999402428e-1 0e+0
    outer loop
      vertex -8.238569559215411e+1 -6.052970713738871e+0 0e+0
      vertex -8.970073094787004e+1 -6.0528907438222035e+0 0e+0
      vertex -8.970073094787004e+1 -6.0528907438222035e+0 2.5e+1
    endloop
  endfacet
  facet normal 1.0932266595280267e-5 9.999999999402428e-1 0e+0
    outer loop
      vertex -8.238569559215411e+1 -6.052970713738871e+0 0e+0
      vertex -8.970073094787004e+1 -6.0528907438222035e+0 2.5e+1
      vertex -8.238569559215411e+1 -6.052970713738871e+0 2.5e+1
    endloop
  endfacet
  facet normal 9.999999999350545e-1 -1.1396974903368024e-5 0e+0
    outer loop
      vertex -8.970073094787004e+1 -6.0528907438222035e+0 0e+0
      vertex -8.970062368812609e+1 3.3583560877659977e+0 0e+0
      vertex -8.970062368812609e+1 3.3583560877659977e+0 2.5e+1
    endloop
  endfacet
  facet normal 9.999999999350545e-1 -1.1396974903368024e-5 0e+0
    outer loop
      vertex -8.970073094787004e+1 -6.0528907438222035e+0 0e+0
      vertex -8.970062368812609e+1 3.3583560877659977e+0 2.5e+1
      vertex -8.970073094787004e+1 -6.0528907438222035e+0 2.5e+1
    endloop
  endfacet
  facet normal 1.232640431719018e-5 9.9999999992403e-1 0e+0
    outer loop
      vertex -8.970062368812609e+1 3.3583560877659977e+0 0e+0
      vertex -1.0433067690145727e+2 3.358536423717101e+0 0e+0
      vertex -1.0433067690145727e+2 3.358536423717101e+0 2.5e+1
    endloop
  endfacet
  facet normal 1.232640431719018e-5 9.9999999992403e-1 0e+0
    outer loop
      vertex -8.970062368812609e+1 3.3583560877659977e+0 0e+0
      vertex -1.0433067690145727e+2 3.358536423717101e+0 2.5e+1
      vertex -8.970062368812609e+1 3.3583560877659977e+0 2.5e+1
    endloop
  endfacet
  facet normal -9.999999999121417e-1 1.3255808702323616e-5 0e+0
    outer loop
      vertex -1.0433067690145727e+2 3.358536423717101e+0 0e+0
      vertex -1.0433080165514492e+2 -6.052710407628748e+0 0e+0
      vertex -1.0433080165514492e+2 -6.052710407628748e+0 2.5e+1
    endloop
  endfacet
  facet normal -9.999999999121417e-1 1.3255808702323616e-5 0e+0
    outer loop
      vertex -1.0433067690145727e+2 3.358536423717101e+0 0e+0
      vertex -1.0433080165514492e+2 -6.052710407628748e+0 2.5e+1
      vertex -1.0433067690145727e+2 3.358536423717101e+0 2.5e+1
    endloop
  endfacet
  facet normal 0e+0 0e+0 -1e+0
    outer loop
      vertex -1.0433080165514492e+2 -6.052710407628748e+0 0e+0
      vertex -1.1164610400984955e+2 -2.4875103704098596e+1 0e+0
      vertex -1.1164583700863872e+2 -6.052610041651321e+0 0e+0
    endloop
  endfacet
  facet normal 0e+0 0e+0 -1e+0
    outer loop
      vertex -1.0433080165514492e+2 -6.052710407628748e+0 0e+0
      vertex -1.0433105116243645e+2 -2.4875204070473426e+1 0e+0
      vertex -1.1164610400984955e+2 -2.4875103704098596e+1 0e+0
    endloop
  endfacet
  facet normal 0e+0 0e+0 -1e+0
    outer loop
      vertex -8.970073094787004e+1 -6.0528907438222035e+0 0e+0
      vertex -1.0433105116243645e+2 -2.4875204070473426e+1 0e+0
      vertex -1.0433080165514492e+2 -6.052710407628748e+0 0e+0
    endloop
  endfacet
  facet normal 0e+0 0e+0 -1e+0
    outer loop
      vertex -8.970062368812609e+1 3.3583560877659977e+0 0e+0
      vertex -8.970073094787004e+1 -6.0528907438222035e+0 0e+0
      vertex -1.0433080165514492e+2 -6.052710407628748e+0 0e+0
    endloop
  endfacet
  facet normal 0e+0 0e+0 -1e+0
    outer loop
      vertex -8.970062368812609e+1 3.3583560877659977e+0 0e+0
      vertex -1.0433080165514492e+2 -6.052710407628748e+0 0e+0
      vertex -1.0433067690145727e+2 3.358536423717101e+0 0e+0
    endloop
  endfacet
  facet normal 0e+0 0e+0 -1e+0
    outer loop
      vertex -8.970073094787004e+1 -6.0528907438222035e+0 0e+0
      vertex -8.970094546740454e+1 -2.4875384406819382e+1 0e+0
      vertex -1.0433105116243645e+2 -2.4875204070473426e+1 0e+0
    endloop
  endfacet
  facet normal 0e+0 0e+0 -1e+0
    outer loop
      vertex -8.970094546740454e+1 -2.4875384406819382e+1 0e+0
      vertex -1.0433117591571353e+2 -3.428645090055833e+1 0e+0
      vertex -1.0433105116243645e+2 -2.4875204070473426e+1 0e+0
    endloop
  endfacet
  facet normal 0e+0 0e+0 -1e+0
    outer loop
      vertex -8.970094546740454e+1 -2.4875384406819382e+1 0e+0
      vertex -8.970105272676223e+1 -3.428663123713492e+1 0e+0
      vertex -1.0433117591571353e+2 -3.428645090055833e+1 0e+0
    endloop
  endfacet
  facet normal 0e+0 0e+0 -1e+0
    outer loop
      vertex -8.238589261787918e+1 -2.4875464376672543e+1 0e+0
      vertex -8.970094546740454e+1 -2.4875384406819382e+1 0e+0
      vertex -8.970073094787004e+1 -6.0528907438222035e+0 0e+0
    endloop
  endfacet
  facet normal 0e+0 0e+0 -1e+0
    outer loop
      vertex -8.238589261787918e+1 -2.4875464376672543e+1 0e+0
      vertex -8.970073094787004e+1 -6.0528907438222035e+0 0e+0
      vertex -8.238569559215411e+1 -6.052970713738871e+0 0e+0
    endloop
  endfacet
  facet normal 0e+0 0e+0 1e+0
    outer loop
      vertex -1.1164583700863872e+2 -6.052610041651321e+0 2.5e+1
      vertex -1.1164610400984955e+2 -2.4875103704098596e+1 2.5e+1
      vertex -1.0433080165514492e+2 -6.052710407628748e+0 2.5e+1
    endloop
  endfacet
  facet normal 0e+0 0e+0 1e+0
    outer loop
      vertex -1.1164610400984955e+2 -2.4875103704098596e+1 2.5e+1
      vertex -1.0433105116243645e+2 -2.4875204070473426e+1 2.5e+1
      vertex -1.0433080165514492e+2 -6.052710407628748e+0 2.5e+1
    endloop
  endfacet
  facet normal 0e+0 0e+0 1e+0
    outer loop
      vertex -1.0433080165514492e+2 -6.052710407628748e+0 2.5e+1
      vertex -1.0433105116243645e+2 -2.4875204070473426e+1 2.5e+1
      vertex -8.970073094787004e+1 -6.0528907438222035e+0 2.5e+1
    endloop
  endfacet
  facet normal 0e+0 0e+0 1e+0
    outer loop
      vertex -1.0433080165514492e+2 -6.052710407628748e+0 2.5e+1
      vertex -8.970073094787004e+1 -6.0528907438222035e+0 2.5e+1
      vertex -8.970062368812609e+1 3.3583560877659977e+0 2.5e+1
    endloop
  endfacet
  facet normal 0e+0 0e+0 1e+0
    outer loop
      vertex -1.0433067690145727e+2 3.358536423717101e+0 2.5e+1
      vertex -1.0433080165514492e+2 -6.052710407628748e+0 2.5e+1
      vertex -8.970062368812609e+1 3.3583560877659977e+0 2.5e+1
    endloop
  endfacet
  facet normal 0e+0 0e+0 1e+0
    outer loop
      vertex -1.0433105116243645e+2 -2.4875204070473426e+1 2.5e+1
      vertex -8.970094546740454e+1 -2.4875384406819382e+1 2.5e+1
      vertex -8.970073094787004e+1 -6.0528907438222035e+0 2.5e+1
    endloop
  endfacet
  facet normal 0e+0 0e+0 1e+0
    outer loop
      vertex -1.0433105116243645e+2 -2.4875204070473426e+1 2.5e+1
      vertex -1.0433117591571353e+2 -3.428645090055833e+1 2.5e+1
      vertex -8.970094546740454e+1 -2.4875384406819382e+1 2.5e+1
    endloop
  endfacet
  facet normal 0e+0 0e+0 1e+0
    outer loop
      vertex -1.0433117591571353e+2 -3.428645090055833e+1 2.5e+1
      vertex -8.970105272676223e+1 -3.428663123713492e+1 2.5e+1
      vertex -8.970094546740454e+1 -2.4875384406819382e+1 2.5e+1
    endloop
  endfacet
  facet normal 0e+0 0e+0 1e+0
    outer loop
      vertex -8.970073094787004e+1 -6.0528907438222035e+0 2.5e+1
      vertex -8.970094546740454e+1 -2.4875384406819382e+1 2.5e+1
      vertex -8.238589261787918e+1 -2.4875464376672543e+1 2.5e+1
    endloop
  endfacet
  facet normal 0e+0 0e+0 1e+0
    outer loop
      vertex -8.238569559215411e+1 -6.052970713738871e+0 2.5e+1
      vertex -8.970073094787004e+1 -6.0528907438222035e+0 2.5e+1
      vertex -8.238589261787918e+1 -2.4875464376672543e+1 2.5e+1
    endloop
  endfacet
endsolid
solid buildingTest
  facet normal 5.664959720574038e-6 -9.999999999839541e-1 0e+0
    outer loop
      vertex 3.727199830296285e+1 -9.463084586238773e+1 0e+0
      vertex 5.1902233663230874e+1 -9.463076298269371e+1 0e+0
      vertex 5.1902233663230874e+1 -9.463076298269371e+1 2.5e+1
    endloop
  endfacet
  facet normal 5.664959720574038e-6 -9.999999999839541e-1 0e+0
    outer loop
      vertex 3.727199830296285e+1 -9.463084586238773e+1 0e+0
      vertex 5.1902233663230874e+1 -9.463076298269371e+1 2.5e+1
      vertex 3.727199830296285e+1 -9.463084586238773e+1 2.5e+1
    endloop
  endfacet
  facet normal -9.999999999782577e-1 -6.5942795827749085e-6 0e+0
    outer loop
      vertex 5.1902233663230874e+1 -9.463076298269371e+1 0e+0
      vertex 5.190248190480218e+1 -1.3227575030612127e+2 0e+0
      vertex 5.190248190480218e+1 -1.3227575030612127e+2 2.5e+1
    endloop
  endfacet
  facet normal -9.999999999782577e-1 -6.5942795827749085e-6 0e+0
    outer loop
      vertex 5.1902233663230874e+1 -9.463076298269371e+1 0e+0
      vertex 5.190248190480218e+1 -1.3227575030612127e+2 2.5e+1
      vertex 5.1902233663230874e+1 -9.463076298269371e+1 2.5e+1
    endloop
  endfacet
  facet normal 8.453157669993037e-6 -9.99999999964272e-1 0e+0
    outer loop
      vertex 5.190248190480218e+1 -1.3227575030612127e+2 0e+0
      vertex 8.116309257260023e+1 -1.3227550296156576e+2 0e+0
      vertex 8.116309257260023e+1 -1.3227550296156576e+2 2.5e+1
    endloop
  endfacet
  facet normal 8.453157669993037e-6 -9.99999999964272e-1 0e+0
    outer loop
      vertex 5.190248190480218e+1 -1.3227575030612127e+2 0e+0
      vertex 8.116309257260023e+1 -1.3227550296156576e+2 2.5e+1
      vertex 5.190248190480218e+1 -1.3227575030612127e+2 2.5e+1
    endloop
  endfacet
  facet normal 9.999999999468324e-1 1.0311889898177474e-5 0e+0
    outer loop
      vertex 8.116309257260023e+1 -1.3227550296156576e+2 0e+0
      vertex 8.116270438163572e+1 -9.463051563849044e+1 0e+0
      vertex 8.116270438163572e+1 -9.463051563849044e+1 2.5e+1
    endloop
  endfacet
  facet normal 9.999999999468324e-1 1.0311889898177474e-5 0e+0
    outer loop
      vertex 8.116309257260023e+1 -1.3227550296156576e+2 0e+0
      vertex 8.116270438163572e+1 -9.463051563849044e+1 2.5e+1
      vertex 8.116309257260023e+1 -1.3227550296156576e+2 2.5e+1
    endloop
  endfacet
  facet normal 1.124141421762998e-5 -9.999999999368152e-1 0e+0
    outer loop
      vertex 8.116270438163572e+1 -9.463051563849044e+1 0e+0
      vertex 9.5792939740933e+1 -9.463035117395465e+1 0e+0
      vertex 9.5792939740933e+1 -9.463035117395465e+1 2.5e+1
    endloop
  endfacet
  facet normal 1.124141421762998e-5 -9.999999999368152e-1 0e+0
    outer loop
      vertex 8.116270438163572e+1 -9.463051563849044e+1 0e+0
      vertex 9.5792939740933e+1 -9.463035117395465e+1 2.5e+1
      vertex 8.116270438163572e+1 -9.463051563849044e+1 2.5e+1
    endloop
  endfacet
  facet normal 9.999999999259352e-1 1.2170845394983596e-5 0e+0
    outer loop
      vertex 9.5792939740933e+1 -9.463035117395465e+1 0e+0
      vertex 9.579271065527266e+1 -7.580785751101727e+1 0e+0
      vertex 9.579271065527266e+1 -7.580785751101727e+1 2.5e+1
    endloop
  endfacet
  facet normal 9.999999999259352e-1 1.2170845394983596e-5 0e+0
    outer loop
      vertex 9.5792939740933e+1 -9.463035117395465e+1 0e+0
      vertex 9.579271065527266e+1 -7.580785751101727e+1 2.5e+1
      vertex 9.5792939740933e+1 -9.463035117395465e+1 2.5e+1
    endloop
  endfacet
  facet normal -8.453174410625762e-6 9.999999999642719e-1 0e+0
    outer loop
      vertex 9.579271065527266e+1 -7.580785751101727e+1 0e+0
      vertex 3.727190916756629e+1 -7.580835219755892e+1 0e+0
      vertex 3.727190916756629e+1 -7.580835219755892e+1 2.5e+1
    endloop
  endfacet
  facet normal -8.453174410625762e-6 9.999999999642719e-1 0e+0
    outer loop
      vertex 9.579271065527266e+1 -7.580785751101727e+1 0e+0
      vertex 3.727190916756629e+1 -7.580835219755892e+1 2.5e+1
      vertex 9.579271065527266e+1 -7.580785751101727e+1 2.5e+1
    endloop
  endfacet
  facet normal -9.999999999887872e-1 -4.735578512779068e-6 0e+0
    outer loop
      vertex 3.727190916756629e+1 -7.580835219755892e+1 0e+0
      vertex 3.727199830296285e+1 -9.463084586238773e+1 0e+0
      vertex 3.727199830296285e+1 -9.463084586238773e+1 2.5e+1
    endloop
  endfacet
  facet normal -9.999999999887872e-1 -4.735578512779068e-6 0e+0
    outer loop
      vertex 3.727190916756629e+1 -7.580835219755892e+1 0e+0
      vertex 3.727199830296285e+1 -9.463084586238773e+1 2.5e+1
      vertex 3.727190916756629e+1 -7.580835219755892e+1 2.5e+1
    endloop
  endfacet
  facet normal 0e+0 0e+0 -1e+0
    outer loop
      vertex 9.579271065527266e+1 -7.580785751101727e+1 0e+0
      vertex 5.1902233663230874e+1 -9.463076298269371e+1 0e+0
      vertex 3.727190916756629e+1 -7.580835219755892e+1 0e+0
    endloop
  endfacet
  facet normal 0e+0 0e+0 -1e+0
    outer loop
      vertex 5.1902233663230874e+1 -9.463076298269371e+1 0e+0
      vertex 3.727199830296285e+1 -9.463084586238773e+1 0e+0
      vertex 3.727190916756629e+1 -7.580835219755892e+1 0e+0
    endloop
  endfacet
  facet normal 0e+0 0e+0 -1e+0
    outer loop
      vertex 9.579271065527266e+1 -7.580785751101727e+1 0e+0
      vertex 8.116270438163572e+1 -9.463051563849044e+1 0e+0
      vertex 5.1902233663230874e+1 -9.463076298269371e+1 0e+0
    endloop
  endfacet
  facet normal 0e+0 0e+0 -1e+0
    outer loop
      vertex 8.116309257260023e+1 -1.3227550296156576e+2 0e+0
      vertex 5.1902233663230874e+1 -9.463076298269371e+1 0e+0
      vertex 8.116270438163572e+1 -9.463051563849044e+1 0e+0
    endloop
  endfacet
  facet normal 0e+0 0e+0 -1e+0
    outer loop
      vertex 8.116309257260023e+1 -1.3227550296156576e+2 0e+0
      vertex 5.190248190480218e+1 -1.3227575030612127e+2 0e+0
      vertex 5.1902233663230874e+1 -9.463076298269371e+1 0e+0
    endloop
  endfacet
  facet normal 0e+0 0e+0 -1e+0
    outer loop
      vertex 9.5792939740933e+1 -9.463035117395465e+1 0e+0
      vertex 8.116270438163572e+1 -9.463051563849044e+1 0e+0
      vertex 9.579271065527266e+1 -7.580785751101727e+1 0e+0
    endloop
  endfacet
  facet normal 0e+0 0e+0 1e+0
    outer loop
      vertex 3.727190916756629e+1 -7.580835219755892e+1 2.5e+1
      vertex 5.1902233663230874e+1 -9.463076298269371e+1 2.5e+1
      vertex 9.579271065527266e+1 -7.580785751101727e+1 2.5e+1
    endloop
  endfacet
  facet normal 0e+0 0e+0 1e+0
    outer loop
      vertex 3.727190916756629e+1 -7.580835219755892e+1 2.5e+1
      vertex 3.727199830296285e+1 -9.463084586238773e+1 2.5e+1
      vertex 5.1902233663230874e+1 -9.463076298269371e+1 2.5e+1
    endloop
  endfacet
  facet normal 0e+0 0e+0 1e+0
    outer loop
      vertex 5.1902233663230874e+1 -9.463076298269371e+1 2.5e+1
      vertex 8.116270438163572e+1 -9.463051563849044e+1 2.5e+1
      vertex 9.579271065527266e+1 -7.580785751101727e+1 2.5e+1
    endloop
  endfacet
  facet normal 0e+0 0e+0 1e+0
    outer loop
      vertex 8.116270438163572e+1 -9.463051563849044e+1 2.5e+1
      vertex 5.1902233663230874e+1 -9.463076298269371e+1 2.5e+1
      vertex 8.116309257260023e+1 -1.3227550296156576e+2 2.5e+1
    endloop
  endfacet
  facet normal 0e+0 0e+0 1e+0
    outer loop
      vertex 5.1902233663230874e+1 -9.463076298269371e+1 2.5e+1
      vertex 5.190248190480218e+1 -1.3227575030612127e+2 2.5e+1
      vertex 8.116309257260023e+1 -1.3227550296156576e+2 2.5e+1
    endloop
  endfacet
  facet normal 0e+0 0e+0 1e+0
    outer loop
      vertex 9.579271065527266e+1 -7.580785751101727e+1 2.5e+1
      vertex 8.116270438163572e+1 -9.463051563849044e+1 2.5e+1
      vertex 9.5792939740933e+1 -9.463035117395465e+1 2.5e+1
    endloop
  endfacet
endsolid