
solid University Building 1
  facet normal -9.999291200355148e-1 -1.1906086888687304e-2 0e+0
    outer loop
      vertex 7.654079056137146e+0 1.961470094774603e+1 0e+0
      vertex 8.451858056467993e+0 -4.738652802376439e+1 0e+0
      vertex 8.451858056467993e+0 -4.738652802376439e+1 2.7e+1
    endloop
  endfacet
  facet normal -9.999291200355148e-1 -1.1906086888687304e-2 0e+0
    outer loop
      vertex 7.654079056137146e+0 1.961470094774603e+1 0e+0
      vertex 8.451858056467993e+0 -4.738652802376439e+1 2.7e+1
      vertex 7.654079056137146e+0 1.961470094774603e+1 2.7e+1
    endloop
  endfacet
  facet normal 2.5897644927398593e-2 -9.996645997469423e-1 0e+0
    outer loop
      vertex 8.451858056467993e+0 -4.738652802376439e+1 0e+0
      vertex 3.1403931725938534e+1 -4.6791923939164505e+1 0e+0
      vertex 3.1403931725938534e+1 -4.6791923939164505e+1 2.7e+1
    endloop
  endfacet
  facet normal 2.5897644927398593e-2 -9.996645997469423e-1 0e+0
    outer loop
      vertex 8.451858056467993e+0 -4.738652802376439e+1 0e+0
      vertex 3.1403931725938534e+1 -4.6791923939164505e+1 2.7e+1
      vertex 8.451858056467993e+0 -4.738652802376439e+1 2.7e+1
    endloop
  endfacet
  facet normal 9.986111419205329e-1 5.2685740311485194e-2 0e+0
    outer loop
      vertex 3.1403931725938534e+1 -4.6791923939164505e+1 0e+0
      vertex 3.0914667940617928e+1 -3.751836596179156e+1 0e+0
      vertex 3.0914667940617928e+1 -3.751836596179156e+1 2.7e+1
    endloop
  endfacet
  facet normal 9.986111419205329e-1 5.2685740311485194e-2 0e+0
    outer loop
      vertex 3.1403931725938534e+1 -4.6791923939164505e+1 0e+0
      vertex 3.0914667940617928e+1 -3.751836596179156e+1 2.7e+1
      vertex 3.1403931725938534e+1 -4.6791923939164505e+1 2.7e+1
    endloop
  endfacet
  facet normal 3.862233304218852e-2 9.99253879347175e-1 0e+0
    outer loop
      vertex 3.0914667940617928e+1 -3.751836596179156e+1 0e+0
      vertex 2.1177434753031918e+1 -3.714201049212244e+1 0e+0
      vertex 2.1177434753031918e+1 -3.714201049212244e+1 2.7e+1
    endloop
  endfacet
  facet normal 3.862233304218852e-2 9.99253879347175e-1 0e+0
    outer loop
      vertex 3.0914667940617928e+1 -3.751836596179156e+1 0e+0
      vertex 2.1177434753031918e+1 -3.714201049212244e+1 2.7e+1
      vertex 3.0914667940617928e+1 -3.751836596179156e+1 2.7e+1
    endloop
  endfacet
  facet normal 9.999401569333773e-1 1.0939952104682715e-2 0e+0
    outer loop
      vertex 2.1177434753031918e+1 -3.714201049212244e+1 0e+0
      vertex 2.066253539262327e+1 9.921134055972637e+0 0e+0
      vertex 2.066253539262327e+1 9.921134055972637e+0 2.7e+1
    endloop
  endfacet
  facet normal 9.999401569333773e-1 1.0939952104682715e-2 0e+0
    outer loop
      vertex 2.1177434753031918e+1 -3.714201049212244e+1 0e+0
      vertex 2.066253539262327e+1 9.921134055972637e+0 2.7e+1
      vertex 2.1177434753031918e+1 -3.714201049212244e+1 2.7e+1
    endloop
  endfacet
  facet normal -1.558210266156868e-2 -9.998785916683307e-1 0e+0
    outer loop
      vertex 2.066253539262327e+1 9.921134055972637e+0 0e+0
      vertex 2.9936034511123015e+1 9.776615894967383e+0 0e+0
      vertex 2.9936034511123015e+1 9.776615894967383e+0 2.7e+1
    endloop
  endfacet
  facet normal -1.558210266156868e-2 -9.998785916683307e-1 0e+0
    outer loop
      vertex 2.066253539262327e+1 9.921134055972637e+0 0e+0
      vertex 2.9936034511123015e+1 9.776615894967383e+0 2.7e+1
      vertex 2.066253539262327e+1 9.921134055972637e+0 2.7e+1
    endloop
  endfacet
  facet normal 9.996817330253854e-1 2.522761691801012e-2 0e+0
    outer loop
      vertex 2.9936034511123015e+1 9.776615894967383e+0 0e+0
      vertex 2.967860967148459e+1 1.9977456927629653e+1 0e+0
      vertex 2.967860967148459e+1 1.9977456927629653e+1 2.7e+1
    endloop
  endfacet
  facet normal 9.996817330253854e-1 2.522761691801012e-2 0e+0
    outer loop
      vertex 2.9936034511123015e+1 9.776615894967383e+0 0e+0
      vertex 2.967860967148459e+1 1.9977456927629653e+1 2.7e+1
      vertex 2.9936034511123015e+1 9.776615894967383e+0 2.7e+1
    endloop
  endfacet
  facet normal -1.646830946028002e-2 9.998643881964796e-1 0e+0
    outer loop
      vertex 2.967860967148459e+1 1.9977456927629653e+1 0e+0
      vertex 7.654079056137146e+0 1.961470094774603e+1 0e+0
      vertex 7.654079056137146e+0 1.961470094774603e+1 2.7e+1
    endloop
  endfacet
  facet normal -1.646830946028002e-2 9.998643881964796e-1 0e+0
    outer loop
      vertex 2.967860967148459e+1 1.9977456927629653e+1 0e+0
      vertex 7.654079056137146e+0 1.961470094774603e+1 2.7e+1
      vertex 2.967860967148459e+1 1.9977456927629653e+1 2.7e+1
    endloop
  endfacet
  facet normal 0e+0 0e+0 -1e+0
    outer loop
      vertex 2.967860967148459e+1 1.9977456927629653e+1 0e+0
      vertex 2.066253539262327e+1 9.921134055972637e+0 0e+0
      vertex 7.654079056137146e+0 1.961470094774603e+1 0e+0
    endloop
  endfacet
  facet normal 0e+0 0e+0 -1e+0
    outer loop
      vertex 2.1177434753031918e+1 -3.714201049212244e+1 0e+0
      vertex 7.654079056137146e+0 1.961470094774603e+1 0e+0
      vertex 2.066253539262327e+1 9.921134055972637e+0 0e+0
    endloop
  endfacet
  facet normal 0e+0 0e+0 -1e+0
    outer loop
      vertex 8.451858056467993e+0 -4.738652802376439e+1 0e+0
      vertex 7.654079056137146e+0 1.961470094774603e+1 0e+0
      vertex 2.1177434753031918e+1 -3.714201049212244e+1 0e+0
    endloop
  endfacet
  facet normal 0e+0 0e+0 -1e+0
    outer loop
      vertex 8.451858056467993e+0 -4.738652802376439e+1 0e+0
      vertex 2.1177434753031918e+1 -3.714201049212244e+1 0e+0
      vertex 3.1403931725938534e+1 -4.6791923939164505e+1 0e+0
    endloop
  endfacet
  facet normal 0e+0 0e+0 -1e+0
    outer loop
      vertex 3.1403931725938534e+1 -4.6791923939164505e+1 0e+0
      vertex 2.1177434753031918e+1 -3.714201049212244e+1 0e+0
      vertex 3.0914667940617928e+1 -3.751836596179156e+1 0e+0
    endloop
  endfacet
  facet normal 0e+0 0e+0 -1e+0
    outer loop
      vertex 2.9936034511123015e+1 9.776615894967383e+0 0e+0
      vertex 2.066253539262327e+1 9.921134055972637e+0 0e+0
      vertex 2.967860967148459e+1 1.9977456927629653e+1 0e+0
    endloop
  endfacet
  facet normal 0e+0 0e+0 1e+0
    outer loop
      vertex 7.654079056137146e+0 1.961470094774603e+1 2.7e+1
      vertex 2.066253539262327e+1 9.921134055972637e+0 2.7e+1
      vertex 2.967860967148459e+1 1.9977456927629653e+1 2.7e+1
    endloop
  endfacet
  facet normal 0e+0 0e+0 1e+0
    outer loop
      vertex 2.066253539262327e+1 9.921134055972637e+0 2.7e+1
      vertex 7.654079056137146e+0 1.961470094774603e+1 2.7e+1
      vertex 2.1177434753031918e+1 -3.714201049212244e+1 2.7e+1
    endloop
  endfacet
  facet normal 0e+0 0e+0 1e+0
    outer loop
      vertex 2.1177434753031918e+1 -3.714201049212244e+1 2.7e+1
      vertex 7.654079056137146e+0 1.961470094774603e+1 2.7e+1
      vertex 8.451858056467993e+0 -4.738652802376439e+1 2.7e+1
    endloop
  endfacet
  facet normal 0e+0 0e+0 1e+0
    outer loop
      vertex 3.1403931725938534e+1 -4.6791923939164505e+1 2.7e+1
      vertex 2.1177434753031918e+1 -3.714201049212244e+1 2.7e+1
      vertex 8.451858056467993e+0 -4.738652802376439e+1 2.7e+1
    endloop
  endfacet
  facet normal 0e+0 0e+0 1e+0
    outer loop
      vertex 3.0914667940617928e+1 -3.751836596179156e+1 2.7e+1
      vertex 2.1177434753031918e+1 -3.714201049212244e+1 2.7e+1
      vertex 3.1403931725938534e+1 -4.6791923939164505e+1 2.7e+1
    endloop
  endfacet
  facet normal 0e+0 0e+0 1e+0
    outer loop
      vertex 2.967860967148459e+1 1.9977456927629653e+1 2.7e+1
      vertex 2.066253539262327e+1 9.921134055972637e+0 2.7e+1
      vertex 2.9936034511123015e+1 9.776615894967383e+0 2.7e+1
    endloop
  endfacet
endsolid
solid University Building 2
  facet normal -5.84607894668387e-2 -9.982897054938081e-1 0e+0
    outer loop
      vertex 6.830551385172703e+1 -3.3823662235557045e+1 0e+0
      vertex 8.018039542667388e+1 -3.4519066533403844e+1 0e+0
      vertex 8.018039542667388e+1 -3.4519066533403844e+1 1.2e+1
    endloop
  endfacet
  facet normal -5.84607894668387e-2 -9.982897054938081e-1 0e+0
    outer loop
      vertex 6.830551385172703e+1 -3.3823662235557045e+1 0e+0
      vertex 8.018039542667388e+1 -3.4519066533403844e+1 1.2e+1
      vertex 6.830551385172703e+1 -3.3823662235557045e+1 1.2e+1
    endloop
  endfacet
  facet normal 9.991084912296615e-1 4.2216380147870984e-2 0e+0
    outer loop
      vertex 8.018039542667388e+1 -3.4519066533403844e+1 0e+0
      vertex 7.83252484146994e+1 9.385529873271057e+0 0e+0
      vertex 7.83252484146994e+1 9.385529873271057e+0 1.2e+1
    endloop
  endfacet
  facet normal 9.991084912296615e-1 4.2216380147870984e-2 0e+0
    outer loop
      vertex 8.018039542667388e+1 -3.4519066533403844e+1 0e+0
      vertex 7.83252484146994e+1 9.385529873271057e+0 1.2e+1
      vertex 8.018039542667388e+1 -3.4519066533403844e+1 1.2e+1
    endloop
  endfacet
  facet normal -6.769567715637637e-2 9.977060164669449e-1 0e+0
    outer loop
      vertex 7.83252484146994e+1 9.385529873271057e+0 0e+0
      vertex 6.807330747616253e+1 8.689922076438227e+0 0e+0
      vertex 6.807330747616253e+1 8.689922076438227e+0 1.2e+1
    endloop
  endfacet
  facet normal -6.769567715637637e-2 9.977060164669449e-1 0e+0
    outer loop
      vertex 7.83252484146994e+1 9.385529873271057e+0 0e+0
      vertex 6.807330747616253e+1 8.689922076438227e+0 1.2e+1
      vertex 7.83252484146994e+1 9.385529873271057e+0 1.2e+1
    endloop
  endfacet
  facet normal -9.999850839742903e-1 -5.4618521521065345e-3 0e+0
    outer loop
      vertex 6.807330747616253e+1 8.689922076438227e+0 0e+0
      vertex 6.830551385172703e+1 -3.3823662235557045e+1 0e+0
      vertex 6.830551385172703e+1 -3.3823662235557045e+1 1.2e+1
    endloop
  endfacet
  facet normal -9.999850839742903e-1 -5.4618521521065345e-3 0e+0
    outer loop
      vertex 6.807330747616253e+1 8.689922076438227e+0 0e+0
      vertex 6.830551385172703e+1 -3.3823662235557045e+1 1.2e+1
      vertex 6.807330747616253e+1 8.689922076438227e+0 1.2e+1
    endloop
  endfacet
  facet normal 0e+0 0e+0 -1e+0
    outer loop
      vertex 7.83252484146994e+1 9.385529873271057e+0 0e+0
      vertex 6.830551385172703e+1 -3.3823662235557045e+1 0e+0
      vertex 6.807330747616253e+1 8.689922076438227e+0 0e+0
    endloop
  endfacet
  facet normal 0e+0 0e+0 -1e+0
    outer loop
      vertex 8.018039542667388e+1 -3.4519066533403844e+1 0e+0
      vertex 6.830551385172703e+1 -3.3823662235557045e+1 0e+0
      vertex 7.83252484146994e+1 9.385529873271057e+0 0e+0
    endloop
  endfacet
  facet normal 0e+0 0e+0 1e+0
    outer loop
      vertex 6.807330747616253e+1 8.689922076438227e+0 1.2e+1
      vertex 6.830551385172703e+1 -3.3823662235557045e+1 1.2e+1
      vertex 7.83252484146994e+1 9.385529873271057e+0 1.2e+1
    endloop
  endfacet
  facet normal 0e+0 0e+0 1e+0
    outer loop
      vertex 7.83252484146994e+1 9.385529873271057e+0 1.2e+1
      vertex 6.830551385172703e+1 -3.3823662235557045e+1 1.2e+1
      vertex 8.018039542667388e+1 -3.4519066533403844e+1 1.2e+1
    endloop
  endfacet
endsolid
solid University Building 3
  facet normal -7.591062272709333e-3 9.99971187471705e-1 0e+0
    outer loop
      vertex 8.00134788032981e+1 -4.444455952326021e+1 0e+0
      vertex 6.472487601063882e+1 -4.456061960310634e+1 0e+0
      vertex 6.472487601063882e+1 -4.456061960310634e+1 1.5e+1
    endloop
  endfacet
  facet normal -7.591062272709333e-3 9.99971187471705e-1 0e+0
    outer loop
      vertex 8.00134788032981e+1 -4.444455952326021e+1 0e+0
      vertex 6.472487601063882e+1 -4.456061960310634e+1 1.5e+1
      vertex 8.00134788032981e+1 -4.444455952326021e+1 1.5e+1
    endloop
  endfacet
  facet normal 9.896777051605136e-1 1.4331099018644605e-1 0e+0
    outer loop
      vertex 6.472487601063882e+1 -4.456061960310634e+1 0e+0
      vertex 6.426117173377007e+1 -4.1358368442832194e+1 0e+0
      vertex 6.426117173377007e+1 -4.1358368442832194e+1 1.5e+1
    endloop
  endfacet
  facet normal 9.896777051605136e-1 1.4331099018644605e-1 0e+0
    outer loop
      vertex 6.472487601063882e+1 -4.456061960310634e+1 0e+0
      vertex 6.426117173377007e+1 -4.1358368442832194e+1 1.5e+1
      vertex 6.472487601063882e+1 -4.456061960310634e+1 1.5e+1
    endloop
  endfacet
  facet normal -5.1367077148727146e-2 9.986798402817576e-1 0e+0
    outer loop
      vertex 6.426117173377007e+1 -4.1358368442832194e+1 0e+0
      vertex 5.524500405688527e+1 -4.1822114842793304e+1 0e+0
      vertex 5.524500405688527e+1 -4.1822114842793304e+1 1.5e+1
    endloop
  endfacet
  facet normal -5.1367077148727146e-2 9.986798402817576e-1 0e+0
    outer loop
      vertex 6.426117173377007e+1 -4.1358368442832194e+1 0e+0
      vertex 5.524500405688527e+1 -4.1822114842793304e+1 1.5e+1
      vertex 6.426117173377007e+1 -4.1358368442832194e+1 1.5e+1
    endloop
  endfacet
  facet normal -9.9266137479106e-1 1.2092723017551896e-1 0e+0
    outer loop
      vertex 5.524500405688527e+1 -4.1822114842793304e+1 0e+0
      vertex 5.489726548085301e+1 -4.4676613804284884e+1 0e+0
      vertex 5.489726548085301e+1 -4.4676613804284884e+1 1.5e+1
    endloop
  endfacet
  facet normal -9.9266137479106e-1 1.2092723017551896e-1 0e+0
    outer loop
      vertex 5.524500405688527e+1 -4.1822114842793304e+1 0e+0
      vertex 5.489726548085301e+1 -4.4676613804284884e+1 1.5e+1
      vertex 5.524500405688527e+1 -4.1822114842793304e+1 1.5e+1
    endloop
  endfacet
  facet normal -5.792589537846121e-2 9.98320885609734e-1 0e+0
    outer loop
      vertex 5.489726548085301e+1 -4.4676613804284884e+1 0e+0
      vertex 3.891314862561052e+1 -4.5604065382249594e+1 0e+0
      vertex 3.891314862561052e+1 -4.5604065382249594e+1 1.5e+1
    endloop
  endfacet
  facet normal -5.792589537846121e-2 9.98320885609734e-1 0e+0
    outer loop
      vertex 5.489726548085301e+1 -4.4676613804284884e+1 0e+0
      vertex 3.891314862561052e+1 -4.5604065382249594e+1 1.5e+1
      vertex 5.489726548085301e+1 -4.4676613804284884e+1 1.5e+1
    endloop
  endfacet
  facet normal -9.997727181475676e-1 -2.1319288164113014e-2 0e+0
    outer loop
      vertex 3.891314862561052e+1 -4.5604065382249594e+1 0e+0
      vertex 3.914504179895242e+1 -5.647874686538457e+1 0e+0
      vertex 3.914504179895242e+1 -5.647874686538457e+1 1.5e+1
    endloop
  endfacet
  facet normal -9.997727181475676e-1 -2.1319288164113014e-2 0e+0
    outer loop
      vertex 3.891314862561052e+1 -4.5604065382249594e+1 0e+0
      vertex 3.914504179895242e+1 -5.647874686538457e+1 1.5e+1
      vertex 3.891314862561052e+1 -4.5604065382249594e+1 1.5e+1
    endloop
  endfacet
  facet normal 2.7427727513229024e-2 -9.996237891144147e-1 0e+0
    outer loop
      vertex 3.914504179895242e+1 -5.647874686538457e+1 0e+0
      vertex 8.140462564506704e+1 -5.531922629056858e+1 0e+0
      vertex 8.140462564506704e+1 -5.531922629056858e+1 1.5e+1
    endloop
  endfacet
  facet normal 2.7427727513229024e-2 -9.996237891144147e-1 0e+0
    outer loop
      vertex 3.914504179895242e+1 -5.647874686538457e+1 0e+0
      vertex 8.140462564506704e+1 -5.531922629056858e+1 1.5e+1
      vertex 3.914504179895242e+1 -5.647874686538457e+1 1.5e+1
    endloop
  endfacet
  facet normal 9.919166160226573e-1 1.2689139788874673e-1 0e+0
    outer loop
      vertex 8.140462564506704e+1 -5.531922629056858e+1 0e+0
      vertex 8.00134788032981e+1 -4.444455952326021e+1 0e+0
      vertex 8.00134788032981e+1 -4.444455952326021e+1 1.5e+1
    endloop
  endfacet
  facet normal 9.919166160226573e-1 1.2689139788874673e-1 0e+0
    outer loop
      vertex 8.140462564506704e+1 -5.531922629056858e+1 0e+0
      vertex 8.00134788032981e+1 -4.444455952326021e+1 1.5e+1
      vertex 8.140462564506704e+1 -5.531922629056858e+1 1.5e+1
    endloop
  endfacet
  facet normal 0e+0 0e+0 -1e+0
    outer loop
      vertex 3.914504179895242e+1 -5.647874686538457e+1 0e+0
      vertex 3.891314862561052e+1 -4.5604065382249594e+1 0e+0
      vertex 5.489726548085301e+1 -4.4676613804284884e+1 0e+0
    endloop
  endfacet
  facet normal 0e+0 0e+0 -1e+0
    outer loop
      vertex 5.489726548085301e+1 -4.4676613804284884e+1 0e+0
      vertex 6.472487601063882e+1 -4.456061960310634e+1 0e+0
      vertex 3.914504179895242e+1 -5.647874686538457e+1 0e+0
    endloop
  endfacet
  facet normal 0e+0 0e+0 -1e+0
    outer loop
      vertex 3.914504179895242e+1 -5.647874686538457e+1 0e+0
      vertex 6.472487601063882e+1 -4.456061960310634e+1 0e+0
      vertex 8.140462564506704e+1 -5.531922629056858e+1 0e+0
    endloop
  endfacet
  facet normal 0e+0 0e+0 -1e+0
    outer loop
      vertex 8.140462564506704e+1 -5.531922629056858e+1 0e+0
      vertex 6.472487601063882e+1 -4.456061960310634e+1 0e+0
      vertex 8.00134788032981e+1 -4.444455952326021e+1 0e+0
    endloop
  endfacet
  facet normal 0e+0 0e+0 -1e+0
    outer loop
      vertex 6.472487601063882e+1 -4.456061960310634e+1 0e+0
      vertex 5.489726548085301e+1 -4.4676613804284884e+1 0e+0
      vertex 5.524500405688527e+1 -4.1822114842793304e+1 0e+0
    endloop
  endfacet
  facet normal 0e+0 0e+0 -1e+0
    outer loop
      vertex 6.472487601063882e+1 -4.456061960310634e+1 0e+0
      vertex 5.524500405688527e+1 -4.1822114842793304e+1 0e+0
      vertex 6.426117173377007e+1 -4.1358368442832194e+1 0e+0
    endloop
  endfacet
  facet normal 0e+0 0e+0 1e+0
    outer loop
      vertex 5.489726548085301e+1 -4.4676613804284884e+1 1.5e+1
      vertex 3.891314862561052e+1 -4.5604065382249594e+1 1.5e+1
      vertex 3.914504179895242e+1 -5.647874686538457e+1 1.5e+1
    endloop
  endfacet
  facet normal 0e+0 0e+0 1e+0
    outer loop
      vertex 3.914504179895242e+1 -5.647874686538457e+1 1.5e+1
      vertex 6.472487601063882e+1 -4.456061960310634e+1 1.5e+1
      vertex 5.489726548085301e+1 -4.4676613804284884e+1 1.5e+1
    endloop
  endfacet
  facet normal 0e+0 0e+0 1e+0
    outer loop
      vertex 8.140462564506704e+1 -5.531922629056858e+1 1.5e+1
      vertex 6.472487601063882e+1 -4.456061960310634e+1 1.5e+1
      vertex 3.914504179895242e+1 -5.647874686538457e+1 1.5e+1
    endloop
  endfacet
  facet normal 0e+0 0e+0 1e+0
    outer loop
      vertex 8.00134788032981e+1 -4.444455952326021e+1 1.5e+1
      vertex 6.472487601063882e+1 -4.456061960310634e+1 1.5e+1
      vertex 8.140462564506704e+1 -5.531922629056858e+1 1.5e+1
    endloop
  endfacet
  facet normal 0e+0 0e+0 1e+0
    outer loop
      vertex 5.524500405688527e+1 -4.1822114842793304e+1 1.5e+1
      vertex 5.489726548085301e+1 -4.4676613804284884e+1 1.5e+1
      vertex 6.472487601063882e+1 -4.456061960310634e+1 1.5e+1
    endloop
  endfacet
  facet normal 0e+0 0e+0 1e+0
    outer loop
      vertex 6.426117173377007e+1 -4.1358368442832194e+1 1.5e+1
      vertex 5.524500405688527e+1 -4.1822114842793304e+1 1.5e+1
      vertex 6.472487601063882e+1 -4.456061960310634e+1 1.5e+1
    endloop
  endfacet
endsolid
solid University Building 4
  facet normal -2.2131576679747144e-2 9.997550666606639e-1 0e+0
    outer loop
      vertex 5.331268821370705e+1 2.9406535004523334e+1 0e+0
      vertex 3.7599353341391286e+1 2.9058688929801477e+1 0e+0
      vertex 3.7599353341391286e+1 2.9058688929801477e+1 1.5e+1
    endloop
  endfacet
  facet normal -2.2131576679747144e-2 9.997550666606639e-1 0e+0
    outer loop
      vertex 5.331268821370705e+1 2.9406535004523334e+1 0e+0
      vertex 3.7599353341391286e+1 2.9058688929801477e+1 1.5e+1
      vertex 5.331268821370705e+1 2.9406535004523334e+1 1.5e+1
    endloop
  endfacet
  facet normal -9.990802496575708e-1 4.287953759272575e-2 0e+0
    outer loop
      vertex 3.7599353341391286e+1 2.9058688929801477e+1 0e+0
      vertex 3.713573049823875e+1 1.8256416986403323e+1 0e+0
      vertex 3.713573049823875e+1 1.8256416986403323e+1 1.5e+1
    endloop
  endfacet
  facet normal -9.990802496575708e-1 4.287953759272575e-2 0e+0
    outer loop
      vertex 3.7599353341391286e+1 2.9058688929801477e+1 0e+0
      vertex 3.713573049823875e+1 1.8256416986403323e+1 1.5e+1
      vertex 3.7599353341391286e+1 2.9058688929801477e+1 1.5e+1
    endloop
  endfacet
  facet normal 1.0753566374696003e-2 -9.99942178733463e-1 0e+0
    outer loop
      vertex 3.713573049823875e+1 1.8256416986403323e+1 0e+0
      vertex 5.33127625466505e+1 1.8430387833496223e+1 0e+0
      vertex 5.33127625466505e+1 1.8430387833496223e+1 1.5e+1
    endloop
  endfacet
  facet normal 1.0753566374696003e-2 -9.99942178733463e-1 0e+0
    outer loop
      vertex 3.713573049823875e+1 1.8256416986403323e+1 0e+0
      vertex 5.33127625466505e+1 1.8430387833496223e+1 1.5e+1
      vertex 3.713573049823875e+1 1.8256416986403323e+1 1.5e+1
    endloop
  endfacet
  facet normal -9.998296408442912e-1 -1.845777042808148e-2 0e+0
    outer loop
      vertex 5.33127625466505e+1 1.8430387833496223e+1 0e+0
      vertex 5.337074314327539e+1 1.5289666188632255e+1 0e+0
      vertex 5.337074314327539e+1 1.5289666188632255e+1 1.5e+1
    endloop
  endfacet
  facet normal -9.998296408442912e-1 -1.845777042808148e-2 0e+0
    outer loop
      vertex 5.33127625466505e+1 1.8430387833496223e+1 0e+0
      vertex 5.337074314327539e+1 1.5289666188632255e+1 1.5e+1
      vertex 5.33127625466505e+1 1.8430387833496223e+1 1.5e+1
    endloop
  endfacet
  facet normal 1.7838308798114048e-2 -9.998408847107739e-1 0e+0
    outer loop
      vertex 5.337074314327539e+1 1.5289666188632255e+1 0e+0
      vertex 6.3120683052416354e+1 1.5463616305617743e+1 0e+0
      vertex 6.3120683052416354e+1 1.5463616305617743e+1 1.5e+1
    endloop
  endfacet
  facet normal 1.7838308798114048e-2 -9.998408847107739e-1 0e+0
    outer loop
      vertex 5.337074314327539e+1 1.5289666188632255e+1 0e+0
      vertex 6.3120683052416354e+1 1.5463616305617743e+1 1.5e+1
      vertex 5.337074314327539e+1 1.5289666188632255e+1 1.5e+1
    endloop
  endfacet
  facet normal 9.970750080494294e-1 7.642923735868554e-2 0e+0
    outer loop
      vertex 6.3120683052416354e+1 1.5463616305617743e+1 0e+0
      vertex 6.288882158750324e+1 1.848841780808002e+1 0e+0
      vertex 6.288882158750324e+1 1.848841780808002e+1 1.5e+1
    endloop
  endfacet
  facet normal 9.970750080494294e-1 7.642923735868554e-2 0e+0
    outer loop
      vertex 6.3120683052416354e+1 1.5463616305617743e+1 0e+0
      vertex 6.288882158750324e+1 1.848841780808002e+1 1.5e+1
      vertex 6.3120683052416354e+1 1.5463616305617743e+1 1.5e+1
    endloop
  endfacet
  facet normal 5.470091810124884e-2 -9.985027839514923e-1 0e+0
    outer loop
      vertex 6.288882158750324e+1 1.848841780808002e+1 0e+0
      vertex 7.981931587765516e+1 1.9415920060917255e+1 0e+0
      vertex 7.981931587765516e+1 1.9415920060917255e+1 1.5e+1
    endloop
  endfacet
  facet normal 5.470091810124884e-2 -9.985027839514923e-1 0e+0
    outer loop
      vertex 6.288882158750324e+1 1.848841780808002e+1 0e+0
      vertex 7.981931587765516e+1 1.9415920060917255e+1 1.5e+1
      vertex 6.288882158750324e+1 1.848841780808002e+1 1.5e+1
    endloop
  endfacet
  facet normal 9.964114768449227e-1 8.464141310091647e-2 0e+0
    outer loop
      vertex 7.981931587765516e+1 1.9415920060917255e+1 0e+0
      vertex 7.889185772288553e+1 3.0334097296498665e+1 0e+0
      vertex 7.889185772288553e+1 3.0334097296498665e+1 1.5e+1
    endloop
  endfacet
  facet normal 9.964114768449227e-1 8.464141310091647e-2 0e+0
    outer loop
      vertex 7.981931587765516e+1 1.9415920060917255e+1 0e+0
      vertex 7.889185772288553e+1 3.0334097296498665e+1 1.5e+1
      vertex 7.981931587765516e+1 1.9415920060917255e+1 1.5e+1
    endloop
  endfacet
  facet normal -1.3748152989885451e-2 9.99905489678583e-1 0e+0
    outer loop
      vertex 7.889185772288553e+1 3.0334097296498665e+1 0e+0
      vertex 6.201934054623564e+1 3.0102109423781197e+1 0e+0
      vertex 6.201934054623564e+1 3.0102109423781197e+1 1.5e+1
    endloop
  endfacet
  facet normal -1.3748152989885451e-2 9.99905489678583e-1 0e+0
    outer loop
      vertex 7.889185772288553e+1 3.0334097296498665e+1 0e+0
      vertex 6.201934054623564e+1 3.0102109423781197e+1 1.5e+1
      vertex 7.889185772288553e+1 3.0334097296498665e+1 1.5e+1
    endloop
  endfacet
  facet normal 9.999999999689768e-1 7.87693803749703e-6 0e+0
    outer loop
      vertex 6.201934054623564e+1 3.0102109423781197e+1 0e+0
      vertex 6.2019313524238015e+1 3.3532629950274526e+1 0e+0
      vertex 6.2019313524238015e+1 3.3532629950274526e+1 1.5e+1
    endloop
  endfacet
  facet normal 9.999999999689768e-1 7.87693803749703e-6 0e+0
    outer loop
      vertex 6.201934054623564e+1 3.0102109423781197e+1 0e+0
      vertex 6.2019313524238015e+1 3.3532629950274526e+1 1.5e+1
      vertex 6.201934054623564e+1 3.0102109423781197e+1 1.5e+1
    endloop
  endfacet
  facet normal -6.556021526413029e-2 9.978486148582463e-1 0e+0
    outer loop
      vertex 6.2019313524238015e+1 3.3532629950274526e+1 0e+0
      vertex 5.3196745803192236e+1 3.295297344691174e+1 0e+0
      vertex 5.3196745803192236e+1 3.295297344691174e+1 1.5e+1
    endloop
  endfacet
  facet normal -6.556021526413029e-2 9.978486148582463e-1 0e+0
    outer loop
      vertex 6.2019313524238015e+1 3.3532629950274526e+1 0e+0
      vertex 5.3196745803192236e+1 3.295297344691174e+1 1.5e+1
      vertex 6.2019313524238015e+1 3.3532629950274526e+1 1.5e+1
    endloop
  endfacet
  facet normal -9.994660238736683e-1 -3.267517593158223e-2 0e+0
    outer loop
      vertex 5.3196745803192236e+1 3.295297344691174e+1 0e+0
      vertex 5.331268821370705e+1 2.9406535004523334e+1 0e+0
      vertex 5.331268821370705e+1 2.9406535004523334e+1 1.5e+1
    endloop
  endfacet
  facet normal -9.994660238736683e-1 -3.267517593158223e-2 0e+0
    outer loop
      vertex 5.3196745803192236e+1 3.295297344691174e+1 0e+0
      vertex 5.331268821370705e+1 2.9406535004523334e+1 1.5e+1
      vertex 5.3196745803192236e+1 3.295297344691174e+1 1.5e+1
    endloop
  endfacet
  facet normal 0e+0 0e+0 -1e+0
    outer loop
      vertex 5.33127625466505e+1 1.8430387833496223e+1 0e+0
      vertex 3.713573049823875e+1 1.8256416986403323e+1 0e+0
      vertex 3.7599353341391286e+1 2.9058688929801477e+1 0e+0
    endloop
  endfacet
  facet normal 0e+0 0e+0 -1e+0
    outer loop
      vertex 5.33127625466505e+1 1.8430387833496223e+1 0e+0
      vertex 3.7599353341391286e+1 2.9058688929801477e+1 0e+0
      vertex 5.331268821370705e+1 2.9406535004523334e+1 0e+0
    endloop
  endfacet
  facet normal 0e+0 0e+0 -1e+0
    outer loop
      vertex 6.288882158750324e+1 1.848841780808002e+1 0e+0
      vertex 5.33127625466505e+1 1.8430387833496223e+1 0e+0
      vertex 5.331268821370705e+1 2.9406535004523334e+1 0e+0
    endloop
  endfacet
  facet normal 0e+0 0e+0 -1e+0
    outer loop
      vertex 6.288882158750324e+1 1.848841780808002e+1 0e+0
      vertex 5.331268821370705e+1 2.9406535004523334e+1 0e+0
      vertex 6.201934054623564e+1 3.0102109423781197e+1 0e+0
    endloop
  endfacet
  facet normal 0e+0 0e+0 -1e+0
    outer loop
      vertex 6.201934054623564e+1 3.0102109423781197e+1 0e+0
      vertex 5.331268821370705e+1 2.9406535004523334e+1 0e+0
      vertex 5.3196745803192236e+1 3.295297344691174e+1 0e+0
    endloop
  endfacet
  facet normal 0e+0 0e+0 -1e+0
    outer loop
      vertex 6.201934054623564e+1 3.0102109423781197e+1 0e+0
      vertex 5.3196745803192236e+1 3.295297344691174e+1 0e+0
      vertex 6.2019313524238015e+1 3.3532629950274526e+1 0e+0
    endloop
  endfacet
  facet normal 0e+0 0e+0 -1e+0
    outer loop
      vertex 7.889185772288553e+1 3.0334097296498665e+1 0e+0
      vertex 6.288882158750324e+1 1.848841780808002e+1 0e+0
      vertex 6.201934054623564e+1 3.0102109423781197e+1 0e+0
    endloop
  endfacet
  facet normal 0e+0 0e+0 -1e+0
    outer loop
      vertex 7.981931587765516e+1 1.9415920060917255e+1 0e+0
      vertex 6.288882158750324e+1 1.848841780808002e+1 0e+0
      vertex 7.889185772288553e+1 3.0334097296498665e+1 0e+0
    endloop
  endfacet
  facet normal 0e+0 0e+0 -1e+0
    outer loop
      vertex 6.288882158750324e+1 1.848841780808002e+1 0e+0
      vertex 5.337074314327539e+1 1.5289666188632255e+1 0e+0
      vertex 5.33127625466505e+1 1.8430387833496223e+1 0e+0
    endloop
  endfacet
  facet normal 0e+0 0e+0 -1e+0
    outer loop
      vertex 6.3120683052416354e+1 1.5463616305617743e+1 0e+0
      vertex 5.337074314327539e+1 1.5289666188632255e+1 0e+0
      vertex 6.288882158750324e+1 1.848841780808002e+1 0e+0
    endloop
  endfacet
  facet normal 0e+0 0e+0 1e+0
    outer loop
      vertex 3.7599353341391286e+1 2.9058688929801477e+1 1.5e+1
      vertex 3.713573049823875e+1 1.8256416986403323e+1 1.5e+1
      vertex 5.33127625466505e+1 1.8430387833496223e+1 1.5e+1
    endloop
  endfacet
  facet normal 0e+0 0e+0 1e+0
    outer loop
      vertex 5.331268821370705e+1 2.9406535004523334e+1 1.5e+1
      vertex 3.7599353341391286e+1 2.9058688929801477e+1 1.5e+1
      vertex 5.33127625466505e+1 1.8430387833496223e+1 1.5e+1
    endloop
  endfacet
  facet normal 0e+0 0e+0 1e+0
    outer loop
      vertex 5.331268821370705e+1 2.9406535004523334e+1 1.5e+1
      vertex 5.33127625466505e+1 1.8430387833496223e+1 1.5e+1
      vertex 6.288882158750324e+1 1.848841780808002e+1 1.5e+1
    endloop
  endfacet
  facet normal 0e+0 0e+0 1e+0
    outer loop
      vertex 6.201934054623564e+1 3.0102109423781197e+1 1.5e+1
      vertex 5.331268821370705e+1 2.9406535004523334e+1 1.5e+1
      vertex 6.288882158750324e+1 1.848841780808002e+1 1.5e+1
    endloop
  endfacet
  facet normal 0e+0 0e+0 1e+0
    outer loop
      vertex 5.3196745803192236e+1 3.295297344691174e+1 1.5e+1
      vertex 5.331268821370705e+1 2.9406535004523334e+1 1.5e+1
      vertex 6.201934054623564e+1 3.0102109423781197e+1 1.5e+1
    endloop
  endfacet
  facet normal 0e+0 0e+0 1e+0
    outer loop
      vertex 6.2019313524238015e+1 3.3532629950274526e+1 1.5e+1
      vertex 5.3196745803192236e+1 3.295297344691174e+1 1.5e+1
      vertex 6.201934054623564e+1 3.0102109423781197e+1 1.5e+1
    endloop
  endfacet
  facet normal 0e+0 0e+0 1e+0
    outer loop
      vertex 6.201934054623564e+1 3.0102109423781197e+1 1.5e+1
      vertex 6.288882158750324e+1 1.848841780808002e+1 1.5e+1
      vertex 7.889185772288553e+1 3.0334097296498665e+1 1.5e+1
    endloop
  endfacet
  facet normal 0e+0 0e+0 1e+0
    outer loop
      vertex 7.889185772288553e+1 3.0334097296498665e+1 1.5e+1
      vertex 6.288882158750324e+1 1.848841780808002e+1 1.5e+1
      vertex 7.981931587765516e+1 1.9415920060917255e+1 1.5e+1
    endloop
  endfacet
  facet normal 0e+0 0e+0 1e+0
    outer loop
      vertex 5.33127625466505e+1 1.8430387833496223e+1 1.5e+1
      vertex 5.337074314327539e+1 1.5289666188632255e+1 1.5e+1
      vertex 6.288882158750324e+1 1.848841780808002e+1 1.5e+1
    endloop
  endfacet
  facet normal 0e+0 0e+0 1e+0
    outer loop
      vertex 6.288882158750324e+1 1.848841780808002e+1 1.5e+1
      vertex 5.337074314327539e+1 1.5289666188632255e+1 1.5e+1
      vertex 6.3120683052416354e+1 1.5463616305617743e+1 1.5e+1
    endloop
  endfacet
endsolid
solid University Building 5
  facet normal 4.181379009412015e-2 -9.991254210347992e-1 0e+0
    outer loop
      vertex 9.08341681249831e+0 2.711317163490383e+1 0e+0
      vertex 2.9858370103605907e+1 2.798261156490764e+1 0e+0
      vertex 2.9858370103605907e+1 2.798261156490764e+1 1e+1
    endloop
  endfacet
  facet normal 4.181379009412015e-2 -9.991254210347992e-1 0e+0
    outer loop
      vertex 9.08341681249831e+0 2.711317163490383e+1 0e+0
      vertex 2.9858370103605907e+1 2.798261156490764e+1 1e+1
      vertex 9.08341681249831e+0 2.711317163490383e+1 1e+1
    endloop
  endfacet
  facet normal 9.994137689614412e-1 3.423621489427369e-2 0e+0
    outer loop
      vertex 2.9858370103605907e+1 2.798261156490764e+1 0e+0
      vertex 2.933668025417401e+1 4.321163207023417e+1 0e+0
      vertex 2.933668025417401e+1 4.321163207023417e+1 1e+1
    endloop
  endfacet
  facet normal 9.994137689614412e-1 3.423621489427369e-2 0e+0
    outer loop
      vertex 2.9858370103605907e+1 2.798261156490764e+1 0e+0
      vertex 2.933668025417401e+1 4.321163207023417e+1 1e+1
      vertex 2.9858370103605907e+1 2.798261156490764e+1 1e+1
    endloop
  endfacet
  facet normal -1.430955052938958e-2 9.998976131402888e-1 0e+0
    outer loop
      vertex 2.933668025417401e+1 4.321163207023417e+1 0e+0
      vertex 9.08339857748848e+0 4.2921787036372855e+1 0e+0
      vertex 9.08339857748848e+0 4.2921787036372855e+1 1e+1
    endloop
  endfacet
  facet normal -1.430955052938958e-2 9.998976131402888e-1 0e+0
    outer loop
      vertex 2.933668025417401e+1 4.321163207023417e+1 0e+0
      vertex 9.08339857748848e+0 4.2921787036372855e+1 1e+1
      vertex 2.933668025417401e+1 4.321163207023417e+1 1e+1
    endloop
  endfacet
  facet normal -9.999999999993348e-1 -1.1534855752955964e-6 0e+0
    outer loop
      vertex 9.08339857748848e+0 4.2921787036372855e+1 0e+0
      vertex 9.08341681249831e+0 2.711317163490383e+1 0e+0
      vertex 9.08341681249831e+0 2.711317163490383e+1 1e+1
    endloop
  endfacet
  facet normal -9.999999999993348e-1 -1.1534855752955964e-6 0e+0
    outer loop
      vertex 9.08339857748848e+0 4.2921787036372855e+1 0e+0
      vertex 9.08341681249831e+0 2.711317163490383e+1 1e+1
      vertex 9.08339857748848e+0 4.2921787036372855e+1 1e+1
    endloop
  endfacet
  facet normal 0e+0 0e+0 -1e+0
    outer loop
      vertex 2.9858370103605907e+1 2.798261156490764e+1 0e+0
      vertex 9.08339857748848e+0 4.2921787036372855e+1 0e+0
      vertex 2.933668025417401e+1 4.321163207023417e+1 0e+0
    endloop
  endfacet
  facet normal 0e+0 0e+0 -1e+0
    outer loop
      vertex 2.9858370103605907e+1 2.798261156490764e+1 0e+0
      vertex 9.08341681249831e+0 2.711317163490383e+1 0e+0
      vertex 9.08339857748848e+0 4.2921787036372855e+1 0e+0
    endloop
  endfacet
  facet normal 0e+0 0e+0 1e+0
    outer loop
      vertex 2.933668025417401e+1 4.321163207023417e+1 1e+1
      vertex 9.08339857748848e+0 4.2921787036372855e+1 1e+1
      vertex 2.9858370103605907e+1 2.798261156490764e+1 1e+1
    endloop
  endfacet
  facet normal 0e+0 0e+0 1e+0
    outer loop
      vertex 9.08339857748848e+0 4.2921787036372855e+1 1e+1
      vertex 9.08341681249831e+0 2.711317163490383e+1 1e+1
      vertex 2.9858370103605907e+1 2.798261156490764e+1 1e+1
    endloop
  endfacet
endsolid
solid University Building 6
  facet normal -5.2511775385815966e-2 9.986203049436907e-1 0e+0
    outer loop
      vertex -2.117130405846603e+1 2.7910368454652378e+1 0e+0
      vertex -3.66012384072968e+1 2.7098995761014454e+1 0e+0
      vertex -3.66012384072968e+1 2.7098995761014454e+1 2e+1
    endloop
  endfacet
  facet normal -5.2511775385815966e-2 9.986203049436907e-1 0e+0
    outer loop
      vertex -2.117130405846603e+1 2.7910368454652378e+1 0e+0
      vertex -3.66012384072968e+1 2.7098995761014454e+1 2e+1
      vertex -2.117130405846603e+1 2.7910368454652378e+1 2e+1
    endloop
  endfacet
  facet normal -9.990222068678541e-1 -4.421119976750636e-2 0e+0
    outer loop
      vertex -3.66012384072968e+1 2.7098995761014454e+1 0e+0
      vertex -3.613761258211563e+1 1.662263462471623e+1 0e+0
      vertex -3.613761258211563e+1 1.662263462471623e+1 2e+1
    endloop
  endfacet
  facet normal -9.990222068678541e-1 -4.421119976750636e-2 0e+0
    outer loop
      vertex -3.66012384072968e+1 2.7098995761014454e+1 0e+0
      vertex -3.613761258211563e+1 1.662263462471623e+1 2e+1
      vertex -3.66012384072968e+1 2.7098995761014454e+1 2e+1
    endloop
  endfacet
  facet normal 2.9157626802387385e-2 -9.995748260131667e-1 0e+0
    outer loop
      vertex -3.613761258211563e+1 1.662263462471623e+1 0e+0
      vertex -2.024398415477047e+1 1.708625222908179e+1 0e+0
      vertex -2.024398415477047e+1 1.708625222908179e+1 2e+1
    endloop
  endfacet
  facet normal 2.9157626802387385e-2 -9.995748260131667e-1 0e+0
    outer loop
      vertex -3.613761258211563e+1 1.662263462471623e+1 0e+0
      vertex -2.024398415477047e+1 1.708625222908179e+1 2e+1
      vertex -3.613761258211563e+1 1.662263462471623e+1 2e+1
    endloop
  endfacet
  facet normal -9.983120289677523e-1 -5.8078333466877595e-2 0e+0
    outer loop
      vertex -2.024398415477047e+1 1.708625222908179e+1 0e+0
      vertex -2.0128070622380374e+1 1.5093807425699646e+1 0e+0
      vertex -2.0128070622380374e+1 1.5093807425699646e+1 2e+1
    endloop
  endfacet
  facet normal -9.983120289677523e-1 -5.8078333466877595e-2 0e+0
    outer loop
      vertex -2.024398415477047e+1 1.708625222908179e+1 0e+0
      vertex -2.0128070622380374e+1 1.5093807425699646e+1 2e+1
      vertex -2.024398415477047e+1 1.708625222908179e+1 2e+1
    endloop
  endfacet
  facet normal 2.431571869097309e-2 -9.997043292016603e-1 0e+0
    outer loop
      vertex -2.0128070622380374e+1 1.5093807425699646e+1 0e+0
      vertex -1.0597191629647302e+1 1.5325626140189032e+1 0e+0
      vertex -1.0597191629647302e+1 1.5325626140189032e+1 2e+1
    endloop
  endfacet
  facet normal 2.431571869097309e-2 -9.997043292016603e-1 0e+0
    outer loop
      vertex -2.0128070622380374e+1 1.5093807425699646e+1 0e+0
      vertex -1.0597191629647302e+1 1.5325626140189032e+1 2e+1
      vertex -2.0128070622380374e+1 1.5093807425699646e+1 2e+1
    endloop
  endfacet
  facet normal 9.99999999999094e-1 -1.346016545494014e-6 0e+0
    outer loop
      vertex -1.0597191629647302e+1 1.5325626140189032e+1 0e+0
      vertex -1.0597188479698971e+1 1.7665826445421818e+1 0e+0
      vertex -1.0597188479698971e+1 1.7665826445421818e+1 2e+1
    endloop
  endfacet
  facet normal 9.99999999999094e-1 -1.346016545494014e-6 0e+0
    outer loop
      vertex -1.0597191629647302e+1 1.5325626140189032e+1 0e+0
      vertex -1.0597188479698971e+1 1.7665826445421818e+1 2e+1
      vertex -1.0597191629647302e+1 1.5325626140189032e+1 2e+1
    endloop
  endfacet
  facet normal 7.45598832444308e-3 -9.999722037327368e-1 0e+0
    outer loop
      vertex -1.0597188479698971e+1 1.7665826445421818e+1 0e+0
      vertex 4.948680710759734e+0 1.7781739486549068e+1 0e+0
      vertex 4.948680710759734e+0 1.7781739486549068e+1 2e+1
    endloop
  endfacet
  facet normal 7.45598832444308e-3 -9.999722037327368e-1 0e+0
    outer loop
      vertex -1.0597188479698971e+1 1.7665826445421818e+1 0e+0
      vertex 4.948680710759734e+0 1.7781739486549068e+1 2e+1
      vertex -1.0597188479698971e+1 1.7665826445421818e+1 2e+1
    endloop
  endfacet
  facet normal 9.985383619240896e-1 5.4047569473158454e-2 0e+0
    outer loop
      vertex 4.948680710759734e+0 1.7781739486549068e+1 0e+0
      vertex 4.369081686199078e+0 2.8489933512647166e+1 0e+0
      vertex 4.369081686199078e+0 2.8489933512647166e+1 2e+1
    endloop
  endfacet
  facet normal 9.985383619240896e-1 5.4047569473158454e-2 0e+0
    outer loop
      vertex 4.948680710759734e+0 1.7781739486549068e+1 0e+0
      vertex 4.369081686199078e+0 2.8489933512647166e+1 2e+1
      vertex 4.948680710759734e+0 1.7781739486549068e+1 2e+1
    endloop
  endfacet
  facet normal 1.4911882976409628e-2 9.99888811691629e-1 0e+0
    outer loop
      vertex 4.369081686199078e+0 2.8489933512647166e+1 0e+0
      vertex -1.117676587396397e+1 2.8721777150535324e+1 0e+0
      vertex -1.117676587396397e+1 2.8721777150535324e+1 2e+1
    endloop
  endfacet
  facet normal 1.4911882976409628e-2 9.99888811691629e-1 0e+0
    outer loop
      vertex 4.369081686199078e+0 2.8489933512647166e+1 0e+0
      vertex -1.117676587396397e+1 2.8721777150535324e+1 2e+1
      vertex 4.369081686199078e+0 2.8489933512647166e+1 2e+1
    endloop
  endfacet
  facet normal 9.9709668121447e-1 7.614596713608406e-2 0e+0
    outer loop
      vertex -1.117676587396397e+1 2.8721777150535324e+1 0e+0
      vertex -1.140859838461404e+1 3.1757518052659368e+1 0e+0
      vertex -1.140859838461404e+1 3.1757518052659368e+1 2e+1
    endloop
  endfacet
  facet normal 9.9709668121447e-1 7.614596713608406e-2 0e+0
    outer loop
      vertex -1.117676587396397e+1 2.8721777150535324e+1 0e+0
      vertex -1.140859838461404e+1 3.1757518052659368e+1 2e+1
      vertex -1.117676587396397e+1 2.8721777150535324e+1 2e+1
    endloop
  endfacet
  facet normal -1.1731394661290213e-2 9.999311848218861e-1 0e+0
    outer loop
      vertex -1.140859838461404e+1 3.1757518052659368e+1 0e+0
      vertex -2.1287212434992707e+1 3.1641620156993476e+1 0e+0
      vertex -2.1287212434992707e+1 3.1641620156993476e+1 2e+1
    endloop
  endfacet
  facet normal -1.1731394661290213e-2 9.999311848218861e-1 0e+0
    outer loop
      vertex -1.140859838461404e+1 3.1757518052659368e+1 0e+0
      vertex -2.1287212434992707e+1 3.1641620156993476e+1 2e+1
      vertex -1.140859838461404e+1 3.1757518052659368e+1 2e+1
    endloop
  endfacet
  facet normal -9.995178564290371e-1 -3.104922993413266e-2 0e+0
    outer loop
      vertex -2.1287212434992707e+1 3.1641620156993476e+1 0e+0
      vertex -2.117130405846603e+1 2.7910368454652378e+1 0e+0
      vertex -2.117130405846603e+1 2.7910368454652378e+1 2e+1
    endloop
  endfacet
  facet normal -9.995178564290371e-1 -3.104922993413266e-2 0e+0
    outer loop
      vertex -2.1287212434992707e+1 3.1641620156993476e+1 0e+0
      vertex -2.117130405846603e+1 2.7910368454652378e+1 2e+1
      vertex -2.1287212434992707e+1 3.1641620156993476e+1 2e+1
    endloop
  endfacet
  facet normal 0e+0 0e+0 -1e+0
    outer loop
      vertex -2.117130405846603e+1 2.7910368454652378e+1 0e+0
      vertex -3.613761258211563e+1 1.662263462471623e+1 0e+0
      vertex -3.66012384072968e+1 2.7098995761014454e+1 0e+0
    endloop
  endfacet
  facet normal 0e+0 0e+0 -1e+0
    outer loop
      vertex -2.024398415477047e+1 1.708625222908179e+1 0e+0
      vertex -3.613761258211563e+1 1.662263462471623e+1 0e+0
      vertex -2.117130405846603e+1 2.7910368454652378e+1 0e+0
    endloop
  endfacet
  facet normal 0e+0 0e+0 -1e+0
    outer loop
      vertex -2.024398415477047e+1 1.708625222908179e+1 0e+0
      vertex -2.117130405846603e+1 2.7910368454652378e+1 0e+0
      vertex -1.0597188479698971e+1 1.7665826445421818e+1 0e+0
    endloop
  endfacet
  facet normal 0e+0 0e+0 -1e+0
    outer loop
      vertex -1.0597188479698971e+1 1.7665826445421818e+1 0e+0
      vertex -2.117130405846603e+1 2.7910368454652378e+1 0e+0
      vertex -1.117676587396397e+1 2.8721777150535324e+1 0e+0
    endloop
  endfacet
  facet normal 0e+0 0e+0 -1e+0
    outer loop
      vertex -2.117130405846603e+1 2.7910368454652378e+1 0e+0
      vertex -1.140859838461404e+1 3.1757518052659368e+1 0e+0
      vertex -1.117676587396397e+1 2.8721777150535324e+1 0e+0
    endloop
  endfacet
  facet normal 0e+0 0e+0 -1e+0
    outer loop
      vertex -2.117130405846603e+1 2.7910368454652378e+1 0e+0
      vertex -2.1287212434992707e+1 3.1641620156993476e+1 0e+0
      vertex -1.140859838461404e+1 3.1757518052659368e+1 0e+0
    endloop
  endfacet
  facet normal 0e+0 0e+0 -1e+0
    outer loop
      vertex 4.369081686199078e+0 2.8489933512647166e+1 0e+0
      vertex -1.0597188479698971e+1 1.7665826445421818e+1 0e+0
      vertex -1.117676587396397e+1 2.8721777150535324e+1 0e+0
    endloop
  endfacet
  facet normal 0e+0 0e+0 -1e+0
    outer loop
      vertex 4.948680710759734e+0 1.7781739486549068e+1 0e+0
      vertex -1.0597188479698971e+1 1.7665826445421818e+1 0e+0
      vertex 4.369081686199078e+0 2.8489933512647166e+1 0e+0
    endloop
  endfacet
  facet normal 0e+0 0e+0 -1e+0
    outer loop
      vertex -1.0597188479698971e+1 1.7665826445421818e+1 0e+0
      vertex -1.0597191629647302e+1 1.5325626140189032e+1 0e+0
      vertex -2.024398415477047e+1 1.708625222908179e+1 0e+0
    endloop
  endfacet
  facet normal 0e+0 0e+0 -1e+0
    outer loop
      vertex -2.0128070622380374e+1 1.5093807425699646e+1 0e+0
      vertex -2.024398415477047e+1 1.708625222908179e+1 0e+0
      vertex -1.0597191629647302e+1 1.5325626140189032e+1 0e+0
    endloop
  endfacet
  facet normal 0e+0 0e+0 1e+0
    outer loop
      vertex -3.66012384072968e+1 2.7098995761014454e+1 2e+1
      vertex -3.613761258211563e+1 1.662263462471623e+1 2e+1
      vertex -2.117130405846603e+1 2.7910368454652378e+1 2e+1
    endloop
  endfacet
  facet normal 0e+0 0e+0 1e+0
    outer loop
      vertex -2.117130405846603e+1 2.7910368454652378e+1 2e+1
      vertex -3.613761258211563e+1 1.662263462471623e+1 2e+1
      vertex -2.024398415477047e+1 1.708625222908179e+1 2e+1
    endloop
  endfacet
  facet normal 0e+0 0e+0 1e+0
    outer loop
      vertex -1.0597188479698971e+1 1.7665826445421818e+1 2e+1
      vertex -2.117130405846603e+1 2.7910368454652378e+1 2e+1
      vertex -2.024398415477047e+1 1.708625222908179e+1 2e+1
    endloop
  endfacet
  facet normal 0e+0 0e+0 1e+0
    outer loop
      vertex -1.117676587396397e+1 2.8721777150535324e+1 2e+1
      vertex -2.117130405846603e+1 2.7910368454652378e+1 2e+1
      vertex -1.0597188479698971e+1 1.7665826445421818e+1 2e+1
    endloop
  endfacet
  facet normal 0e+0 0e+0 1e+0
    outer loop
      vertex -1.117676587396397e+1 2.8721777150535324e+1 2e+1
      vertex -1.140859838461404e+1 3.1757518052659368e+1 2e+1
      vertex -2.117130405846603e+1 2.7910368454652378e+1 2e+1
    endloop
  endfacet
  facet normal 0e+0 0e+0 1e+0
    outer loop
      vertex -1.140859838461404e+1 3.1757518052659368e+1 2e+1
      vertex -2.1287212434992707e+1 3.1641620156993476e+1 2e+1
      vertex -2.117130405846603e+1 2.7910368454652378e+1 2e+1
    endloop
  endfacet
  facet normal 0e+0 0e+0 1e+0
    outer loop
      vertex -1.117676587396397e+1 2.8721777150535324e+1 2e+1
      vertex -1.0597188479698971e+1 1.7665826445421818e+1 2e+1
      vertex 4.369081686199078e+0 2.8489933512647166e+1 2e+1
    endloop
  endfacet
  facet normal 0e+0 0e+0 1e+0
    outer loop
      vertex 4.369081686199078e+0 2.8489933512647166e+1 2e+1
      vertex -1.0597188479698971e+1 1.7665826445421818e+1 2e+1
      vertex 4.948680710759734e+0 1.7781739486549068e+1 2e+1
    endloop
  endfacet
  facet normal 0e+0 0e+0 1e+0
    outer loop
      vertex -2.024398415477047e+1 1.708625222908179e+1 2e+1
      vertex -1.0597191629647302e+1 1.5325626140189032e+1 2e+1
      vertex -1.0597188479698971e+1 1.7665826445421818e+1 2e+1
    endloop
  endfacet
  facet normal 0e+0 0e+0 1e+0
    outer loop
      vertex -1.0597191629647302e+1 1.5325626140189032e+1 2e+1
      vertex -2.024398415477047e+1 1.708625222908179e+1 2e+1
      vertex -2.0128070622380374e+1 1.5093807425699646e+1 2e+1
    endloop
  endfacet
endsolid
solid University Building 6
  facet normal 2.104046486082395e-2 9.997786249157563e-1 0e+0
    outer loop
      vertex -1.2735279629638157e+2 1.701501459122661e+1 0e+0
      vertex -1.383778363084772e+2 1.7247037922374766e+1 0e+0
      vertex -1.383778363084772e+2 1.7247037922374766e+1 2e+1
    endloop
  endfacet
  facet normal 2.104046486082395e-2 9.997786249157563e-1 0e+0
    outer loop
      vertex -1.2735279629638157e+2 1.701501459122661e+1 0e+0
      vertex -1.383778363084772e+2 1.7247037922374766e+1 2e+1
      vertex -1.2735279629638157e+2 1.701501459122661e+1 2e+1
    endloop
  endfacet
  facet normal -9.999999998455089e-1 1.7577888018806016e-5 0e+0
    outer loop
      vertex -1.383778363084772e+2 1.7247037922374766e+1 0e+0
      vertex -1.3837827719930817e+2 -7.835089715413277e+0 0e+0
      vertex -1.3837827719930817e+2 -7.835089715413277e+0 2e+1
    endloop
  endfacet
  facet normal -9.999999998455089e-1 1.7577888018806016e-5 0e+0
    outer loop
      vertex -1.383778363084772e+2 1.7247037922374766e+1 0e+0
      vertex -1.3837827719930817e+2 -7.835089715413277e+0 2e+1
      vertex -1.383778363084772e+2 1.7247037922374766e+1 2e+1
    endloop
  endfacet
  facet normal -1.6965958668972712e-5 -9.99999999856078e-1 0e+0
    outer loop
      vertex -1.3837827719930817e+2 -7.835089715413277e+0 0e+0
      vertex -1.2874422623227193e+2 -7.835253166323822e+0 0e+0
      vertex -1.2874422623227193e+2 -7.835253166323822e+0 2e+1
    endloop
  endfacet
  facet normal -1.6965958668972712e-5 -9.99999999856078e-1 0e+0
    outer loop
      vertex -1.3837827719930817e+2 -7.835089715413277e+0 0e+0
      vertex -1.2874422623227193e+2 -7.835253166323822e+0 2e+1
      vertex -1.3837827719930817e+2 -7.835089715413277e+0 2e+1
    endloop
  endfacet
  facet normal -9.974952863090825e-1 -7.073297527434806e-2 0e+0
    outer loop
      vertex -1.2874422623227193e+2 -7.835253166323822e+0 0e+0
      vertex -1.2735351558179408e+2 -2.74474257504817e+1 0e+0
      vertex -1.2735351558179408e+2 -2.74474257504817e+1 2e+1
    endloop
  endfacet
  facet normal -9.974952863090825e-1 -7.073297527434806e-2 0e+0
    outer loop
      vertex -1.2874422623227193e+2 -7.835253166323822e+0 0e+0
      vertex -1.2735351558179408e+2 -2.74474257504817e+1 2e+1
      vertex -1.2874422623227193e+2 -7.835253166323822e+0 2e+1
    endloop
  endfacet
  facet normal 1.3931975222801918e-2 -9.999029453233904e-1 0e+0
    outer loop
      vertex -1.2735351558179408e+2 -2.74474257504817e+1 0e+0
      vertex -7.748266828263647e+1 -2.675255890149238e+1 0e+0
      vertex -7.748266828263647e+1 -2.675255890149238e+1 2e+1
    endloop
  endfacet
  facet normal 1.3931975222801918e-2 -9.999029453233904e-1 0e+0
    outer loop
      vertex -1.2735351558179408e+2 -2.74474257504817e+1 0e+0
      vertex -7.748266828263647e+1 -2.675255890149238e+1 2e+1
      vertex -1.2735351558179408e+2 -2.74474257504817e+1 2e+1
    endloop
  endfacet
  facet normal 9.99427499425822e-1 3.383302220388248e-2 0e+0
    outer loop
      vertex -7.748266828263647e+1 -2.675255890149238e+1 0e+0
      vertex -7.817797994264178e+1 -6.213051981505004e+0 0e+0
      vertex -7.817797994264178e+1 -6.213051981505004e+0 2e+1
    endloop
  endfacet
  facet normal 9.99427499425822e-1 3.383302220388248e-2 0e+0
    outer loop
      vertex -7.748266828263647e+1 -2.675255890149238e+1 0e+0
      vertex -7.817797994264178e+1 -6.213051981505004e+0 2e+1
      vertex -7.748266828263647e+1 -2.675255890149238e+1 2e+1
    endloop
  endfacet
  facet normal -2.060000616747499e-2 -9.997877973579693e-1 0e+0
    outer loop
      vertex -7.817797994264178e+1 -6.213051981505004e+0 0e+0
      vertex -6.692106738117161e+1 -6.444993668336759e+0 0e+0
      vertex -6.692106738117161e+1 -6.444993668336759e+0 2e+1
    endloop
  endfacet
  facet normal -2.060000616747499e-2 -9.997877973579693e-1 0e+0
    outer loop
      vertex -7.817797994264178e+1 -6.213051981505004e+0 0e+0
      vertex -6.692106738117161e+1 -6.444993668336759e+0 2e+1
      vertex -7.817797994264178e+1 -6.213051981505004e+0 2e+1
    endloop
  endfacet
  facet normal 9.999588986138936e-1 9.066481284864399e-3 0e+0
    outer loop
      vertex -6.692106738117161e+1 -6.444993668336759e+0 0e+0
      vertex -6.715268741491307e+1 1.910080591586119e+1 0e+0
      vertex -6.715268741491307e+1 1.910080591586119e+1 2e+1
    endloop
  endfacet
  facet normal 9.999588986138936e-1 9.066481284864399e-3 0e+0
    outer loop
      vertex -6.692106738117161e+1 -6.444993668336759e+0 0e+0
      vertex -6.715268741491307e+1 1.910080591586119e+1 2e+1
      vertex -6.692106738117161e+1 -6.444993668336759e+0 2e+1
    endloop
  endfacet
  facet normal -2.1465756643030208e-2 9.997695841001277e-1 0e+0
    outer loop
      vertex -6.715268741491307e+1 1.910080591586119e+1 0e+0
      vertex -7.794589365699552e+1 1.886906818121195e+1 0e+0
      vertex -7.794589365699552e+1 1.886906818121195e+1 2e+1
    endloop
  endfacet
  facet normal -2.1465756643030208e-2 9.997695841001277e-1 0e+0
    outer loop
      vertex -6.715268741491307e+1 1.910080591586119e+1 0e+0
      vertex -7.794589365699552e+1 1.886906818121195e+1 2e+1
      vertex -6.715268741491307e+1 1.910080591586119e+1 2e+1
    endloop
  endfacet
  facet normal 9.997488897648481e-1 2.2408869091364476e-2 0e+0
    outer loop
      vertex -7.794589365699552e+1 1.886906818121195e+1 0e+0
      vertex -7.817762818712559e+1 2.9207668414589836e+1 0e+0
      vertex -7.817762818712559e+1 2.9207668414589836e+1 2e+1
    endloop
  endfacet
  facet normal 9.997488897648481e-1 2.2408869091364476e-2 0e+0
    outer loop
      vertex -7.794589365699552e+1 1.886906818121195e+1 0e+0
      vertex -7.817762818712559e+1 2.9207668414589836e+1 2e+1
      vertex -7.794589365699552e+1 1.886906818121195e+1 2e+1
    endloop
  endfacet
  facet normal -1.4062761485497578e-2 9.99901114480528e-1 0e+0
    outer loop
      vertex -7.817762818712559e+1 2.9207668414589836e+1 0e+0
      vertex -1.2758444721029288e+2 2.8512803390821052e+1 0e+0
      vertex -1.2758444721029288e+2 2.8512803390821052e+1 2e+1
    endloop
  endfacet
  facet normal -1.4062761485497578e-2 9.99901114480528e-1 0e+0
    outer loop
      vertex -7.817762818712559e+1 2.9207668414589836e+1 0e+0
      vertex -1.2758444721029288e+2 2.8512803390821052e+1 2e+1
      vertex -7.817762818712559e+1 2.9207668414589836e+1 2e+1
    endloop
  endfacet
  facet normal -9.99797102266995e-1 -2.014334377703977e-2 0e+0
    outer loop
      vertex -1.2758444721029288e+2 2.8512803390821052e+1 0e+0
      vertex -1.2735279629638157e+2 1.701501459122661e+1 0e+0
      vertex -1.2735279629638157e+2 1.701501459122661e+1 2e+1
    endloop
  endfacet
  facet normal -9.99797102266995e-1 -2.014334377703977e-2 0e+0
    outer loop
      vertex -1.2758444721029288e+2 2.8512803390821052e+1 0e+0
      vertex -1.2735279629638157e+2 1.701501459122661e+1 2e+1
      vertex -1.2758444721029288e+2 2.8512803390821052e+1 2e+1
    endloop
  endfacet
  facet normal 0e+0 0e+0 -1e+0
    outer loop
      vertex -1.2874422623227193e+2 -7.835253166323822e+0 0e+0
      vertex -1.3837827719930817e+2 -7.835089715413277e+0 0e+0
      vertex -1.383778363084772e+2 1.7247037922374766e+1 0e+0
    endloop
  endfacet
  facet normal 0e+0 0e+0 -1e+0
    outer loop
      vertex -1.2735279629638157e+2 1.701501459122661e+1 0e+0
      vertex -1.2874422623227193e+2 -7.835253166323822e+0 0e+0
      vertex -1.383778363084772e+2 1.7247037922374766e+1 0e+0
    endloop
  endfacet
  facet normal 0e+0 0e+0 -1e+0
    outer loop
      vertex -7.817797994264178e+1 -6.213051981505004e+0 0e+0
      vertex -1.2874422623227193e+2 -7.835253166323822e+0 0e+0
      vertex -1.2735279629638157e+2 1.701501459122661e+1 0e+0
    endloop
  endfacet
  facet normal 0e+0 0e+0 -1e+0
    outer loop
      vertex -7.794589365699552e+1 1.886906818121195e+1 0e+0
      vertex -7.817797994264178e+1 -6.213051981505004e+0 0e+0
      vertex -1.2735279629638157e+2 1.701501459122661e+1 0e+0
    endloop
  endfacet
  facet normal 0e+0 0e+0 -1e+0
    outer loop
      vertex -7.794589365699552e+1 1.886906818121195e+1 0e+0
      vertex -1.2735279629638157e+2 1.701501459122661e+1 0e+0
      vertex -1.2758444721029288e+2 2.8512803390821052e+1 0e+0
    endloop
  endfacet
  facet normal 0e+0 0e+0 -1e+0
    outer loop
      vertex -7.794589365699552e+1 1.886906818121195e+1 0e+0
      vertex -1.2758444721029288e+2 2.8512803390821052e+1 0e+0
      vertex -7.817762818712559e+1 2.9207668414589836e+1 0e+0
    endloop
  endfacet
  facet normal 0e+0 0e+0 -1e+0
    outer loop
      vertex -6.692106738117161e+1 -6.444993668336759e+0 0e+0
      vertex -7.817797994264178e+1 -6.213051981505004e+0 0e+0
      vertex -7.794589365699552e+1 1.886906818121195e+1 0e+0
    endloop
  endfacet
  facet normal 0e+0 0e+0 -1e+0
    outer loop
      vertex -6.692106738117161e+1 -6.444993668336759e+0 0e+0
      vertex -7.794589365699552e+1 1.886906818121195e+1 0e+0
      vertex -6.715268741491307e+1 1.910080591586119e+1 0e+0
    endloop
  endfacet
  facet normal 0e+0 0e+0 -1e+0
    outer loop
      vertex -7.817797994264178e+1 -6.213051981505004e+0 0e+0
      vertex -1.2735351558179408e+2 -2.74474257504817e+1 0e+0
      vertex -1.2874422623227193e+2 -7.835253166323822e+0 0e+0
    endloop
  endfacet
  facet normal 0e+0 0e+0 -1e+0
    outer loop
      vertex -7.748266828263647e+1 -2.675255890149238e+1 0e+0
      vertex -1.2735351558179408e+2 -2.74474257504817e+1 0e+0
      vertex -7.817797994264178e+1 -6.213051981505004e+0 0e+0
    endloop
  endfacet
  facet normal 0e+0 0e+0 1e+0
    outer loop
      vertex -1.383778363084772e+2 1.7247037922374766e+1 2e+1
      vertex -1.3837827719930817e+2 -7.835089715413277e+0 2e+1
      vertex -1.2874422623227193e+2 -7.835253166323822e+0 2e+1
    endloop
  endfacet
  facet normal 0e+0 0e+0 1e+0
    outer loop
      vertex -1.383778363084772e+2 1.7247037922374766e+1 2e+1
      vertex -1.2874422623227193e+2 -7.835253166323822e+0 2e+1
      vertex -1.2735279629638157e+2 1.701501459122661e+1 2e+1
    endloop
  endfacet
  facet normal 0e+0 0e+0 1e+0
    outer loop
      vertex -1.2735279629638157e+2 1.701501459122661e+1 2e+1
      vertex -1.2874422623227193e+2 -7.835253166323822e+0 2e+1
      vertex -7.817797994264178e+1 -6.213051981505004e+0 2e+1
    endloop
  endfacet
  facet normal 0e+0 0e+0 1e+0
    outer loop
      vertex -1.2735279629638157e+2 1.701501459122661e+1 2e+1
      vertex -7.817797994264178e+1 -6.213051981505004e+0 2e+1
      vertex -7.794589365699552e+1 1.886906818121195e+1 2e+1
    endloop
  endfacet
  facet normal 0e+0 0e+0 1e+0
    outer loop
      vertex -1.2758444721029288e+2 2.8512803390821052e+1 2e+1
      vertex -1.2735279629638157e+2 1.701501459122661e+1 2e+1
      vertex -7.794589365699552e+1 1.886906818121195e+1 2e+1
    endloop
  endfacet
  facet normal 0e+0 0e+0 1e+0
    outer loop
      vertex -7.817762818712559e+1 2.9207668414589836e+1 2e+1
      vertex -1.2758444721029288e+2 2.8512803390821052e+1 2e+1
      vertex -7.794589365699552e+1 1.886906818121195e+1 2e+1
    endloop
  endfacet
  facet normal 0e+0 0e+0 1e+0
    outer loop
      vertex -7.794589365699552e+1 1.886906818121195e+1 2e+1
      vertex -7.817797994264178e+1 -6.213051981505004e+0 2e+1
      vertex -6.692106738117161e+1 -6.444993668336759e+0 2e+1
    endloop
  endfacet
  facet normal 0e+0 0e+0 1e+0
    outer loop
      vertex -6.715268741491307e+1 1.910080591586119e+1 2e+1
      vertex -7.794589365699552e+1 1.886906818121195e+1 2e+1
      vertex -6.692106738117161e+1 -6.444993668336759e+0 2e+1
    endloop
  endfacet
  facet normal 0e+0 0e+0 1e+0
    outer loop
      vertex -1.2874422623227193e+2 -7.835253166323822e+0 2e+1
      vertex -1.2735351558179408e+2 -2.74474257504817e+1 2e+1
      vertex -7.817797994264178e+1 -6.213051981505004e+0 2e+1
    endloop
  endfacet
  facet normal 0e+0 0e+0 1e+0
    outer loop
      vertex -7.817797994264178e+1 -6.213051981505004e+0 2e+1
      vertex -1.2735351558179408e+2 -2.74474257504817e+1 2e+1
      vertex -7.748266828263647e+1 -2.675255890149238e+1 2e+1
    endloop
  endfacet
endsolid
solid University Building 8
  facet normal 1.1251453194551926e-2 9.999367003970855e-1 0e+0
    outer loop
      vertex -7.647226047803396e+0 -3.3200775794418774e+1 0e+0
      vertex -2.8255323502152102e+1 -3.296889007220827e+1 0e+0
      vertex -2.8255323502152102e+1 -3.296889007220827e+1 2.1e+1
    endloop
  endfacet
  facet normal 1.1251453194551926e-2 9.999367003970855e-1 0e+0
    outer loop
      vertex -7.647226047803396e+0 -3.3200775794418774e+1 0e+0
      vertex -2.8255323502152102e+1 -3.296889007220827e+1 2.1e+1
      vertex -7.647226047803396e+0 -3.3200775794418774e+1 2.1e+1
    endloop
  endfacet
  facet normal 9.992331658639578e-1 3.9154568539218254e-2 0e+0
    outer loop
      vertex -2.8255323502152102e+1 -3.296889007220827e+1 0e+0
      vertex -2.987803742029407e+1 8.443124571559286e+0 0e+0
      vertex -2.987803742029407e+1 8.443124571559286e+0 2.1e+1
    endloop
  endfacet
  facet normal 9.992331658639578e-1 3.9154568539218254e-2 0e+0
    outer loop
      vertex -2.8255323502152102e+1 -3.296889007220827e+1 0e+0
      vertex -2.987803742029407e+1 8.443124571559286e+0 2.1e+1
      vertex -2.8255323502152102e+1 -3.296889007220827e+1 2.1e+1
    endloop
  endfacet
  facet normal 4.940632545883192e-6 9.99999999987795e-1 0e+0
    outer loop
      vertex -2.987803742029407e+1 8.443124571559286e+0 0e+0
      vertex -4.7910265187835144e+1 8.44321366217067e+0 0e+0
      vertex -4.7910265187835144e+1 8.44321366217067e+0 2.1e+1
    endloop
  endfacet
  facet normal 4.940632545883192e-6 9.99999999987795e-1 0e+0
    outer loop
      vertex -2.987803742029407e+1 8.443124571559286e+0 0e+0
      vertex -4.7910265187835144e+1 8.44321366217067e+0 2.1e+1
      vertex -2.987803742029407e+1 8.443124571559286e+0 2.1e+1
    endloop
  endfacet
  facet normal -9.99935826687562e-1 1.132883518558236e-2 0e+0
    outer loop
      vertex -4.7910265187835144e+1 8.44321366217067e+0 0e+0
      vertex -4.837419182282528e+1 -3.25051147124552e+1 0e+0
      vertex -4.837419182282528e+1 -3.25051147124552e+1 2.1e+1
    endloop
  endfacet
  facet normal -9.99935826687562e-1 1.132883518558236e-2 0e+0
    outer loop
      vertex -4.7910265187835144e+1 8.44321366217067e+0 0e+0
      vertex -4.837419182282528e+1 -3.25051147124552e+1 2.1e+1
      vertex -4.7910265187835144e+1 8.44321366217067e+0 2.1e+1
    endloop
  endfacet
  facet normal 7.350615741568953e-6 9.999999999729842e-1 0e+0
    outer loop
      vertex -4.837419182282528e+1 -3.25051147124552e+1 0e+0
      vertex -6.735941729355427e+1 -3.2504975159358e+1 0e+0
      vertex -6.735941729355427e+1 -3.2504975159358e+1 2.1e+1
    endloop
  endfacet
  facet normal 7.350615741568953e-6 9.999999999729842e-1 0e+0
    outer loop
      vertex -4.837419182282528e+1 -3.25051147124552e+1 0e+0
      vertex -6.735941729355427e+1 -3.2504975159358e+1 2.1e+1
      vertex -4.837419182282528e+1 -3.25051147124552e+1 2.1e+1
    endloop
  endfacet
  facet normal -9.999337596759793e-1 -1.1509833198653584e-2 0e+0
    outer loop
      vertex -6.735941729355427e+1 -3.2504975159358e+1 0e+0
      vertex -6.712775019943113e+1 -5.263139614405639e+1 0e+0
      vertex -6.712775019943113e+1 -5.263139614405639e+1 2.1e+1
    endloop
  endfacet
  facet normal -9.999337596759793e-1 -1.1509833198653584e-2 0e+0
    outer loop
      vertex -6.735941729355427e+1 -3.2504975159358e+1 0e+0
      vertex -6.712775019943113e+1 -5.263139614405639e+1 2.1e+1
      vertex -6.735941729355427e+1 -3.2504975159358e+1 2.1e+1
    endloop
  endfacet
  facet normal -1.547321357716128e-2 -9.998802826646777e-1 0e+0
    outer loop
      vertex -6.712775019943113e+1 -5.263139614405639e+1 0e+0
      vertex -7.183567155747441e+0 -5.3559036345612824e+1 0e+0
      vertex -7.183567155747441e+0 -5.3559036345612824e+1 2.1e+1
    endloop
  endfacet
  facet normal -1.547321357716128e-2 -9.998802826646777e-1 0e+0
    outer loop
      vertex -6.712775019943113e+1 -5.263139614405639e+1 0e+0
      vertex -7.183567155747441e+0 -5.3559036345612824e+1 2.1e+1
      vertex -6.712775019943113e+1 -5.263139614405639e+1 2.1e+1
    endloop
  endfacet
  facet normal 9.997407510877598e-1 2.276907144531813e-2 0e+0
    outer loop
      vertex -7.183567155747441e+0 -5.3559036345612824e+1 0e+0
      vertex -7.647226047803396e+0 -3.3200775794418774e+1 0e+0
      vertex -7.647226047803396e+0 -3.3200775794418774e+1 2.1e+1
    endloop
  endfacet
  facet normal 9.997407510877598e-1 2.276907144531813e-2 0e+0
    outer loop
      vertex -7.183567155747441e+0 -5.3559036345612824e+1 0e+0
      vertex -7.647226047803396e+0 -3.3200775794418774e+1 2.1e+1
      vertex -7.183567155747441e+0 -5.3559036345612824e+1 2.1e+1
    endloop
  endfacet
  facet normal 0e+0 0e+0 -1e+0
    outer loop
      vertex -4.837419182282528e+1 -3.25051147124552e+1 0e+0
      vertex -6.712775019943113e+1 -5.263139614405639e+1 0e+0
      vertex -6.735941729355427e+1 -3.2504975159358e+1 0e+0
    endloop
  endfacet
  facet normal 0e+0 0e+0 -1e+0
    outer loop
      vertex -2.8255323502152102e+1 -3.296889007220827e+1 0e+0
      vertex -6.712775019943113e+1 -5.263139614405639e+1 0e+0
      vertex -4.837419182282528e+1 -3.25051147124552e+1 0e+0
    endloop
  endfacet
  facet normal 0e+0 0e+0 -1e+0
    outer loop
      vertex -2.8255323502152102e+1 -3.296889007220827e+1 0e+0
      vertex -4.837419182282528e+1 -3.25051147124552e+1 0e+0
      vertex -2.987803742029407e+1 8.443124571559286e+0 0e+0
    endloop
  endfacet
  facet normal 0e+0 0e+0 -1e+0
    outer loop
      vertex -2.987803742029407e+1 8.443124571559286e+0 0e+0
      vertex -4.837419182282528e+1 -3.25051147124552e+1 0e+0
      vertex -4.7910265187835144e+1 8.44321366217067e+0 0e+0
    endloop
  endfacet
  facet normal 0e+0 0e+0 -1e+0
    outer loop
      vertex -6.712775019943113e+1 -5.263139614405639e+1 0e+0
      vertex -2.8255323502152102e+1 -3.296889007220827e+1 0e+0
      vertex -7.183567155747441e+0 -5.3559036345612824e+1 0e+0
    endloop
  endfacet
  facet normal 0e+0 0e+0 -1e+0
    outer loop
      vertex -7.183567155747441e+0 -5.3559036345612824e+1 0e+0
      vertex -2.8255323502152102e+1 -3.296889007220827e+1 0e+0
      vertex -7.647226047803396e+0 -3.3200775794418774e+1 0e+0
    endloop
  endfacet
  facet normal 0e+0 0e+0 1e+0
    outer loop
      vertex -6.735941729355427e+1 -3.2504975159358e+1 2.1e+1
      vertex -6.712775019943113e+1 -5.263139614405639e+1 2.1e+1
      vertex -4.837419182282528e+1 -3.25051147124552e+1 2.1e+1
    endloop
  endfacet
  facet normal 0e+0 0e+0 1e+0
    outer loop
      vertex -4.837419182282528e+1 -3.25051147124552e+1 2.1e+1
      vertex -6.712775019943113e+1 -5.263139614405639e+1 2.1e+1
      vertex -2.8255323502152102e+1 -3.296889007220827e+1 2.1e+1
    endloop
  endfacet
  facet normal 0e+0 0e+0 1e+0
    outer loop
      vertex -2.987803742029407e+1 8.443124571559286e+0 2.1e+1
      vertex -4.837419182282528e+1 -3.25051147124552e+1 2.1e+1
      vertex -2.8255323502152102e+1 -3.296889007220827e+1 2.1e+1
    endloop
  endfacet
  facet normal 0e+0 0e+0 1e+0
    outer loop
      vertex -4.7910265187835144e+1 8.44321366217067e+0 2.1e+1
      vertex -4.837419182282528e+1 -3.25051147124552e+1 2.1e+1
      vertex -2.987803742029407e+1 8.443124571559286e+0 2.1e+1
    endloop
  endfacet
  facet normal 0e+0 0e+0 1e+0
    outer loop
      vertex -7.183567155747441e+0 -5.3559036345612824e+1 2.1e+1
      vertex -2.8255323502152102e+1 -3.296889007220827e+1 2.1e+1
      vertex -6.712775019943113e+1 -5.263139614405639e+1 2.1e+1
    endloop
  endfacet
  facet normal 0e+0 0e+0 1e+0
    outer loop
      vertex -7.647226047803396e+0 -3.3200775794418774e+1 2.1e+1
      vertex -2.8255323502152102e+1 -3.296889007220827e+1 2.1e+1
      vertex -7.183567155747441e+0 -5.3559036345612824e+1 2.1e+1
    endloop
  endfacet
endsolid