
solid UMD Building 1
  facet normal -1.4129014334975794e-2 9.999001804949943e-1 0e+0
    outer loop
      vertex -1.4660587077534355e+1 -2.5599555452492485e+1 0e+0
      vertex -9.665019444726921e+1 -2.6758103436024747e+1 0e+0
      vertex -9.665019444726921e+1 -2.6758103436024747e+1 2.4e+1
    endloop
  endfacet
  facet normal -1.4129014334975794e-2 9.999001804949943e-1 0e+0
    outer loop
      vertex -1.4660587077534355e+1 -2.5599555452492485e+1 0e+0
      vertex -9.665019444726921e+1 -2.6758103436024747e+1 2.4e+1
      vertex -1.4660587077534355e+1 -2.5599555452492485e+1 2.4e+1
    endloop
  endfacet
  facet normal 9.99939999454411e-1 -1.0954336634982105e-2 0e+0
    outer loop
      vertex -9.665019444726921e+1 -2.6758103436024747e+1 0e+0
      vertex -9.641810937845057e+1 -5.572781921731595e+0 0e+0
      vertex -9.641810937845057e+1 -5.572781921731595e+0 2.4e+1
    endloop
  endfacet
  facet normal 9.99939999454411e-1 -1.0954336634982105e-2 0e+0
    outer loop
      vertex -9.665019444726921e+1 -2.6758103436024747e+1 0e+0
      vertex -9.641810937845057e+1 -5.572781921731595e+0 2.4e+1
      vertex -9.665019444726921e+1 -2.6758103436024747e+1 2.4e+1
    endloop
  endfacet
  facet normal 3.683252597200246e-3 -9.999932168021467e-1 0e+0
    outer loop
      vertex -9.641810937845057e+1 -5.572781921731595e+0 0e+0
      vertex -3.361909842471881e+1 -5.34147573253901e+0 0e+0
      vertex -3.361909842471881e+1 -5.34147573253901e+0 2.4e+1
    endloop
  endfacet
  facet normal 3.683252597200246e-3 -9.999932168021467e-1 0e+0
    outer loop
      vertex -9.641810937845057e+1 -5.572781921731595e+0 0e+0
      vertex -3.361909842471881e+1 -5.34147573253901e+0 2.4e+1
      vertex -9.641810937845057e+1 -5.572781921731595e+0 2.4e+1
    endloop
  endfacet
  facet normal 9.999881264378084e-1 -4.873087666107436e-3 0e+0
    outer loop
      vertex -3.361909842471881e+1 -5.34147573253901e+0 0e+0
      vertex -3.338707153328097e+1 4.227189639410134e+1 0e+0
      vertex -3.338707153328097e+1 4.227189639410134e+1 2.4e+1
    endloop
  endfacet
  facet normal 9.999881264378084e-1 -4.873087666107436e-3 0e+0
    outer loop
      vertex -3.361909842471881e+1 -5.34147573253901e+0 0e+0
      vertex -3.338707153328097e+1 4.227189639410134e+1 2.4e+1
      vertex -3.361909842471881e+1 -5.34147573253901e+0 2.4e+1
    endloop
  endfacet
  facet normal -1.3374576301815284e-2 -9.999105563542905e-1 0e+0
    outer loop
      vertex -3.338707153328097e+1 4.227189639410134e+1 0e+0
      vertex -1.6051402292259805e+1 4.204001842308318e+1 0e+0
      vertex -1.6051402292259805e+1 4.204001842308318e+1 2.4e+1
    endloop
  endfacet
  facet normal -1.3374576301815284e-2 -9.999105563542905e-1 0e+0
    outer loop
      vertex -3.338707153328097e+1 4.227189639410134e+1 0e+0
      vertex -1.6051402292259805e+1 4.204001842308318e+1 2.4e+1
      vertex -3.338707153328097e+1 4.227189639410134e+1 2.4e+1
    endloop
  endfacet
  facet normal -9.997886659598554e-1 -2.055780674616488e-2 0e+0
    outer loop
      vertex -1.6051402292259805e+1 4.204001842308318e+1 0e+0
      vertex -1.4660587077534355e+1 -2.5599555452492485e+1 0e+0
      vertex -1.4660587077534355e+1 -2.5599555452492485e+1 2.4e+1
    endloop
  endfacet
  facet normal -9.997886659598554e-1 -2.055780674616488e-2 0e+0
    outer loop
      vertex -1.6051402292259805e+1 4.204001842308318e+1 0e+0
      vertex -1.4660587077534355e+1 -2.5599555452492485e+1 2.4e+1
      vertex -1.6051402292259805e+1 4.204001842308318e+1 2.4e+1
    endloop
  endfacet
  facet normal 0e+0 0e+0 -1e+0
    outer loop
      vertex -9.665019444726921e+1 -2.6758103436024747e+1 0e+0
      vertex -9.641810937845057e+1 -5.572781921731595e+0 0e+0
      vertex -3.361909842471881e+1 -5.34147573253901e+0 0e+0
    endloop
  endfacet
  facet normal 0e+0 0e+0 -1e+0
    outer loop
      vertex -9.665019444726921e+1 -2.6758103436024747e+1 0e+0
      vertex -3.361909842471881e+1 -5.34147573253901e+0 0e+0
      vertex -1.4660587077534355e+1 -2.5599555452492485e+1 0e+0
    endloop
  endfacet
  facet normal 0e+0 0e+0 -1e+0
    outer loop
      vertex -1.4660587077534355e+1 -2.5599555452492485e+1 0e+0
      vertex -3.361909842471881e+1 -5.34147573253901e+0 0e+0
      vertex -1.6051402292259805e+1 4.204001842308318e+1 0e+0
    endloop
  endfacet
  facet normal 0e+0 0e+0 -1e+0
    outer loop
      vertex -1.6051402292259805e+1 4.204001842308318e+1 0e+0
      vertex -3.361909842471881e+1 -5.34147573253901e+0 0e+0
      vertex -3.338707153328097e+1 4.227189639410134e+1 0e+0
    endloop
  endfacet
  facet normal 0e+0 0e+0 1e+0
    outer loop
      vertex -3.361909842471881e+1 -5.34147573253901e+0 2.4e+1
      vertex -9.641810937845057e+1 -5.572781921731595e+0 2.4e+1
      vertex -9.665019444726921e+1 -2.6758103436024747e+1 2.4e+1
    endloop
  endfacet
  facet normal 0e+0 0e+0 1e+0
    outer loop
      vertex -1.4660587077534355e+1 -2.5599555452492485e+1 2.4e+1
      vertex -3.361909842471881e+1 -5.34147573253901e+0 2.4e+1
      vertex -9.665019444726921e+1 -2.6758103436024747e+1 2.4e+1
    endloop
  endfacet
  facet normal 0e+0 0e+0 1e+0
    outer loop
      vertex -1.6051402292259805e+1 4.204001842308318e+1 2.4e+1
      vertex -3.361909842471881e+1 -5.34147573253901e+0 2.4e+1
      vertex -1.4660587077534355e+1 -2.5599555452492485e+1 2.4e+1
    endloop
  endfacet
  facet normal 0e+0 0e+0 1e+0
    outer loop
      vertex -3.338707153328097e+1 4.227189639410134e+1 2.4e+1
      vertex -3.361909842471881e+1 -5.34147573253901e+0 2.4e+1
      vertex -1.6051402292259805e+1 4.204001842308318e+1 2.4e+1
    endloop
  endfacet
endsolid
solid UMD Building 2
  facet normal 3.639232868740387e-2 -9.993375798060973e-1 0e+0
    outer loop
      vertex 6.323282815389944e+1 -3.0423050297927148e+1 0e+0
      vertex 1.2054483125222329e+2 -2.8335950506390834e+1 0e+0
      vertex 1.2054483125222329e+2 -2.8335950506390834e+1 9e+0
    endloop
  endfacet
  facet normal 3.639232868740387e-2 -9.993375798060973e-1 0e+0
    outer loop
      vertex 6.323282815389944e+1 -3.0423050297927148e+1 0e+0
      vertex 1.2054483125222329e+2 -2.8335950506390834e+1 9e+0
      vertex 6.323282815389944e+1 -3.0423050297927148e+1 9e+0
    endloop
  endfacet
  facet normal 9.99555333176793e-1 2.9818382213502432e-2 0e+0
    outer loop
      vertex 1.2054483125222329e+2 -2.8335950506390834e+1 0e+0
      vertex 1.1973302768221022e+2 -1.1231197737066239e+0 0e+0
      vertex 1.1973302768221022e+2 -1.1231197737066239e+0 9e+0
    endloop
  endfacet
  facet normal 9.99555333176793e-1 2.9818382213502432e-2 0e+0
    outer loop
      vertex 1.2054483125222329e+2 -2.8335950506390834e+1 0e+0
      vertex 1.1973302768221022e+2 -1.1231197737066239e+0 9e+0
      vertex 1.2054483125222329e+2 -2.8335950506390834e+1 9e+0
    endloop
  endfacet
  facet normal -2.0355709818005233e-2 9.99792801073205e-1 0e+0
    outer loop
      vertex 1.1973302768221022e+2 -1.1231197737066239e+0 0e+0
      vertex 6.2768952416450325e+1 -2.282904265969552e+0 0e+0
      vertex 6.2768952416450325e+1 -2.282904265969552e+0 9e+0
    endloop
  endfacet
  facet normal -2.0355709818005233e-2 9.99792801073205e-1 0e+0
    outer loop
      vertex 1.1973302768221022e+2 -1.1231197737066239e+0 0e+0
      vertex 6.2768952416450325e+1 -2.282904265969552e+0 9e+0
      vertex 1.1973302768221022e+2 -1.1231197737066239e+0 9e+0
    endloop
  endfacet
  facet normal -9.998641586070065e-1 -1.6482242963346074e-2 0e+0
    outer loop
      vertex 6.2768952416450325e+1 -2.282904265969552e+0 0e+0
      vertex 6.323282815389944e+1 -3.0423050297927148e+1 0e+0
      vertex 6.323282815389944e+1 -3.0423050297927148e+1 9e+0
    endloop
  endfacet
  facet normal -9.998641586070065e-1 -1.6482242963346074e-2 0e+0
    outer loop
      vertex 6.2768952416450325e+1 -2.282904265969552e+0 0e+0
      vertex 6.323282815389944e+1 -3.0423050297927148e+1 9e+0
      vertex 6.2768952416450325e+1 -2.282904265969552e+0 9e+0
    endloop
  endfacet
  facet normal 0e+0 0e+0 -1e+0
    outer loop
      vertex 1.2054483125222329e+2 -2.8335950506390834e+1 0e+0
      vertex 6.2768952416450325e+1 -2.282904265969552e+0 0e+0
      vertex 1.1973302768221022e+2 -1.1231197737066239e+0 0e+0
    endloop
  endfacet
  facet normal 0e+0 0e+0 -1e+0
    outer loop
      vertex 1.2054483125222329e+2 -2.8335950506390834e+1 0e+0
      vertex 6.323282815389944e+1 -3.0423050297927148e+1 0e+0
      vertex 6.2768952416450325e+1 -2.282904265969552e+0 0e+0
    endloop
  endfacet
  facet normal 0e+0 0e+0 1e+0
    outer loop
      vertex 1.1973302768221022e+2 -1.1231197737066239e+0 9e+0
      vertex 6.2768952416450325e+1 -2.282904265969552e+0 9e+0
      vertex 1.2054483125222329e+2 -2.8335950506390834e+1 9e+0
    endloop
  endfacet
  facet normal 0e+0 0e+0 1e+0
    outer loop
      vertex 6.2768952416450325e+1 -2.282904265969552e+0 9e+0
      vertex 6.323282815389944e+1 -3.0423050297927148e+1 9e+0
      vertex 1.2054483125222329e+2 -2.8335950506390834e+1 9e+0
    endloop
  endfacet
endsolid
solid UMD Building 3
  facet normal 8.285155049401008e-3 -9.999656775138871e-1 0e+0
    outer loop
      vertex 6.18412938665955e+1 4.343531592979931e+1 0e+0
      vertex 1.1787775498686167e+2 4.3899602634074405e+1 0e+0
      vertex 1.1787775498686167e+2 4.3899602634074405e+1 1.5e+1
    endloop
  endfacet
  facet normal 8.285155049401008e-3 -9.999656775138871e-1 0e+0
    outer loop
      vertex 6.18412938665955e+1 4.343531592979931e+1 0e+0
      vertex 1.1787775498686167e+2 4.3899602634074405e+1 1.5e+1
      vertex 6.18412938665955e+1 4.343531592979931e+1 1.5e+1
    endloop
  endfacet
  facet normal -9.993409655061982e-1 -3.6299237748742004e-2 0e+0
    outer loop
      vertex 1.1787775498686167e+2 4.3899602634074405e+1 0e+0
      vertex 1.1903735518246569e+2 1.1975076088988688e+1 0e+0
      vertex 1.1903735518246569e+2 1.1975076088988688e+1 1.5e+1
    endloop
  endfacet
  facet normal -9.993409655061982e-1 -3.6299237748742004e-2 0e+0
    outer loop
      vertex 1.1787775498686167e+2 4.3899602634074405e+1 0e+0
      vertex 1.1903735518246569e+2 1.1975076088988688e+1 1.5e+1
      vertex 1.1787775498686167e+2 4.3899602634074405e+1 1.5e+1
    endloop
  endfacet
  facet normal -1.3152270906617717e-2 9.999135051443194e-1 0e+0
    outer loop
      vertex 1.1903735518246569e+2 1.1975076088988688e+1 0e+0
      vertex 1.1021525516848351e+2 1.1859035402717106e+1 0e+0
      vertex 1.1021525516848351e+2 1.1859035402717106e+1 1.5e+1
    endloop
  endfacet
  facet normal -1.3152270906617717e-2 9.999135051443194e-1 0e+0
    outer loop
      vertex 1.1903735518246569e+2 1.1975076088988688e+1 0e+0
      vertex 1.1021525516848351e+2 1.1859035402717106e+1 1.5e+1
      vertex 1.1903735518246569e+2 1.1975076088988688e+1 1.5e+1
    endloop
  endfacet
  facet normal 9.985262065548667e-1 5.427167606724587e-2 0e+0
    outer loop
      vertex 1.1021525516848351e+2 1.1859035402717106e+1 0e+0
      vertex 1.0975148734754796e+2 2.0391742636361343e+1 0e+0
      vertex 1.0975148734754796e+2 2.0391742636361343e+1 1.5e+1
    endloop
  endfacet
  facet normal 9.985262065548667e-1 5.427167606724587e-2 0e+0
    outer loop
      vertex 1.1021525516848351e+2 1.1859035402717106e+1 0e+0
      vertex 1.0975148734754796e+2 2.0391742636361343e+1 1.5e+1
      vertex 1.1021525516848351e+2 1.1859035402717106e+1 1.5e+1
    endloop
  endfacet
  facet normal -2.15304269502097e-2 9.997681934905419e-1 0e+0
    outer loop
      vertex 1.0975148734754796e+2 2.0391742636361343e+1 0e+0
      vertex 7.205451959774368e+1 1.9579922640820296e+1 0e+0
      vertex 7.205451959774368e+1 1.9579922640820296e+1 1.5e+1
    endloop
  endfacet
  facet normal -2.15304269502097e-2 9.997681934905419e-1 0e+0
    outer loop
      vertex 1.0975148734754796e+2 2.0391742636361343e+1 0e+0
      vertex 7.205451959774368e+1 1.9579922640820296e+1 1.5e+1
      vertex 1.0975148734754796e+2 2.0391742636361343e+1 1.5e+1
    endloop
  endfacet
  facet normal -9.999192213107132e-1 1.2710265669007053e-2 0e+0
    outer loop
      vertex 7.205451959774368e+1 1.9579922640820296e+1 0e+0
      vertex 7.19386907824164e+1 1.0467645852632545e+1 0e+0
      vertex 7.19386907824164e+1 1.0467645852632545e+1 1.5e+1
    endloop
  endfacet
  facet normal -9.999192213107132e-1 1.2710265669007053e-2 0e+0
    outer loop
      vertex 7.205451959774368e+1 1.9579922640820296e+1 0e+0
      vertex 7.19386907824164e+1 1.0467645852632545e+1 1.5e+1
      vertex 7.205451959774368e+1 1.9579922640820296e+1 1.5e+1
    endloop
  endfacet
  facet normal -1.2186385779378415e-2 9.999257432437851e-1 0e+0
    outer loop
      vertex 7.19386907824164e+1 1.0467645852632545e+1 0e+0
      vertex 6.242111496235878e+1 1.0351652388706466e+1 0e+0
      vertex 6.242111496235878e+1 1.0351652388706466e+1 1.5e+1
    endloop
  endfacet
  facet normal -1.2186385779378415e-2 9.999257432437851e-1 0e+0
    outer loop
      vertex 7.19386907824164e+1 1.0467645852632545e+1 0e+0
      vertex 6.242111496235878e+1 1.0351652388706466e+1 1.5e+1
      vertex 7.19386907824164e+1 1.0467645852632545e+1 1.5e+1
    endloop
  endfacet
  facet normal 9.998464567232112e-1 1.7523212549063846e-2 0e+0
    outer loop
      vertex 6.242111496235878e+1 1.0351652388706466e+1 0e+0
      vertex 6.18412938665955e+1 4.343531592979931e+1 0e+0
      vertex 6.18412938665955e+1 4.343531592979931e+1 1.5e+1
    endloop
  endfacet
  facet normal 9.998464567232112e-1 1.7523212549063846e-2 0e+0
    outer loop
      vertex 6.242111496235878e+1 1.0351652388706466e+1 0e+0
      vertex 6.18412938665955e+1 4.343531592979931e+1 1.5e+1
      vertex 6.242111496235878e+1 1.0351652388706466e+1 1.5e+1
    endloop
  endfacet
  facet normal 0e+0 0e+0 -1e+0
    outer loop
      vertex 1.1787775498686167e+2 4.3899602634074405e+1 0e+0
      vertex 7.205451959774368e+1 1.9579922640820296e+1 0e+0
      vertex 6.18412938665955e+1 4.343531592979931e+1 0e+0
    endloop
  endfacet
  facet normal 0e+0 0e+0 -1e+0
    outer loop
      vertex 7.205451959774368e+1 1.9579922640820296e+1 0e+0
      vertex 6.242111496235878e+1 1.0351652388706466e+1 0e+0
      vertex 6.18412938665955e+1 4.343531592979931e+1 0e+0
    endloop
  endfacet
  facet normal 0e+0 0e+0 -1e+0
    outer loop
      vertex 7.205451959774368e+1 1.9579922640820296e+1 0e+0
      vertex 7.19386907824164e+1 1.0467645852632545e+1 0e+0
      vertex 6.242111496235878e+1 1.0351652388706466e+1 0e+0
    endloop
  endfacet
  facet normal 0e+0 0e+0 -1e+0
    outer loop
      vertex 1.1787775498686167e+2 4.3899602634074405e+1 0e+0
      vertex 1.0975148734754796e+2 2.0391742636361343e+1 0e+0
      vertex 7.205451959774368e+1 1.9579922640820296e+1 0e+0
    endloop
  endfacet
  facet normal 0e+0 0e+0 -1e+0
    outer loop
      vertex 1.1903735518246569e+2 1.1975076088988688e+1 0e+0
      vertex 1.0975148734754796e+2 2.0391742636361343e+1 0e+0
      vertex 1.1787775498686167e+2 4.3899602634074405e+1 0e+0
    endloop
  endfacet
  facet normal 0e+0 0e+0 -1e+0
    outer loop
      vertex 1.1021525516848351e+2 1.1859035402717106e+1 0e+0
      vertex 1.0975148734754796e+2 2.0391742636361343e+1 0e+0
      vertex 1.1903735518246569e+2 1.1975076088988688e+1 0e+0
    endloop
  endfacet
  facet normal 0e+0 0e+0 1e+0
    outer loop
      vertex 6.18412938665955e+1 4.343531592979931e+1 1.5e+1
      vertex 7.205451959774368e+1 1.9579922640820296e+1 1.5e+1
      vertex 1.1787775498686167e+2 4.3899602634074405e+1 1.5e+1
    endloop
  endfacet
  facet normal 0e+0 0e+0 1e+0
    outer loop
      vertex 6.18412938665955e+1 4.343531592979931e+1 1.5e+1
      vertex 6.242111496235878e+1 1.0351652388706466e+1 1.5e+1
      vertex 7.205451959774368e+1 1.9579922640820296e+1 1.5e+1
    endloop
  endfacet
  facet normal 0e+0 0e+0 1e+0
    outer loop
      vertex 6.242111496235878e+1 1.0351652388706466e+1 1.5e+1
      vertex 7.19386907824164e+1 1.0467645852632545e+1 1.5e+1
      vertex 7.205451959774368e+1 1.9579922640820296e+1 1.5e+1
    endloop
  endfacet
  facet normal 0e+0 0e+0 1e+0
    outer loop
      vertex 7.205451959774368e+1 1.9579922640820296e+1 1.5e+1
      vertex 1.0975148734754796e+2 2.0391742636361343e+1 1.5e+1
      vertex 1.1787775498686167e+2 4.3899602634074405e+1 1.5e+1
    endloop
  endfacet
  facet normal 0e+0 0e+0 1e+0
    outer loop
      vertex 1.1787775498686167e+2 4.3899602634074405e+1 1.5e+1
      vertex 1.0975148734754796e+2 2.0391742636361343e+1 1.5e+1
      vertex 1.1903735518246569e+2 1.1975076088988688e+1 1.5e+1
    endloop
  endfacet
  facet normal 0e+0 0e+0 1e+0
    outer loop
      vertex 1.1903735518246569e+2 1.1975076088988688e+1 1.5e+1
      vertex 1.0975148734754796e+2 2.0391742636361343e+1 1.5e+1
      vertex 1.1021525516848351e+2 1.1859035402717106e+1 1.5e+1
    endloop
  endfacet
endsolid
solid UMD Building 3
  facet normal 9.993513261361958e-1 3.601287200192111e-2 0e+0
    outer loop
      vertex 2.0809829807312673e+2 -2.949331042225938e+1 0e+0
      vertex 2.0541663877541754e+2 4.49222978432568e+1 0e+0
      vertex 2.0541663877541754e+2 4.49222978432568e+1 1.5e+1
    endloop
  endfacet
  facet normal 9.993513261361958e-1 3.601287200192111e-2 0e+0
    outer loop
      vertex 2.0809829807312673e+2 -2.949331042225938e+1 0e+0
      vertex 2.0541663877541754e+2 4.49222978432568e+1 1.5e+1
      vertex 2.0809829807312673e+2 -2.949331042225938e+1 1.5e+1
    endloop
  endfacet
  facet normal -7.70514371237665e-3 9.999703149395844e-1 0e+0
    outer loop
      vertex 2.0541663877541754e+2 4.49222978432568e+1 0e+0
      vertex 1.6252930765767988e+2 4.45918349837444e+1 0e+0
      vertex 1.6252930765767988e+2 4.45918349837444e+1 1.5e+1
    endloop
  endfacet
  facet normal -7.70514371237665e-3 9.999703149395844e-1 0e+0
    outer loop
      vertex 2.0541663877541754e+2 4.49222978432568e+1 0e+0
      vertex 1.6252930765767988e+2 4.45918349837444e+1 1.5e+1
      vertex 2.0541663877541754e+2 4.49222978432568e+1 1.5e+1
    endloop
  endfacet
  facet normal -9.995351593150765e-1 -3.0487133236573677e-2 0e+0
    outer loop
      vertex 1.6252930765767988e+2 4.45918349837444e+1 0e+0
      vertex 1.629677047906938e+2 3.021877652691752e+1 0e+0
      vertex 1.629677047906938e+2 3.021877652691752e+1 1.5e+1
    endloop
  endfacet
  facet normal -9.995351593150765e-1 -3.0487133236573677e-2 0e+0
    outer loop
      vertex 1.6252930765767988e+2 4.45918349837444e+1 0e+0
      vertex 1.629677047906938e+2 3.021877652691752e+1 1.5e+1
      vertex 1.6252930765767988e+2 4.45918349837444e+1 1.5e+1
    endloop
  endfacet
  facet normal -3.041561395171477e-3 -9.999953744414417e-1 0e+0
    outer loop
      vertex 1.629677047906938e+2 3.021877652691752e+1 0e+0
      vertex 1.9217751601352848e+2 3.012993268178949e+1 0e+0
      vertex 1.9217751601352848e+2 3.012993268178949e+1 1.5e+1
    endloop
  endfacet
  facet normal -3.041561395171477e-3 -9.999953744414417e-1 0e+0
    outer loop
      vertex 1.629677047906938e+2 3.021877652691752e+1 0e+0
      vertex 1.9217751601352848e+2 3.012993268178949e+1 1.5e+1
      vertex 1.629677047906938e+2 3.021877652691752e+1 1.5e+1
    endloop
  endfacet
  facet normal -9.999920728517203e-1 -3.981737525229261e-3 0e+0
    outer loop
      vertex 1.9217751601352848e+2 3.012993268178949e+1 0e+0
      vertex 1.9235936115099426e+2 -1.55395005242445e+1 0e+0
      vertex 1.9235936115099426e+2 -1.55395005242445e+1 1.5e+1
    endloop
  endfacet
  facet normal -9.999920728517203e-1 -3.981737525229261e-3 0e+0
    outer loop
      vertex 1.9217751601352848e+2 3.012993268178949e+1 0e+0
      vertex 1.9235936115099426e+2 -1.55395005242445e+1 1.5e+1
      vertex 1.9217751601352848e+2 3.012993268178949e+1 1.5e+1
    endloop
  endfacet
  facet normal -1.4055438226050761e-2 9.999012174491407e-1 0e+0
    outer loop
      vertex 1.9235936115099426e+2 -1.55395005242445e+1 0e+0
      vertex 1.6569946769733428e+2 -1.5914254028902647e+1 0e+0
      vertex 1.6569946769733428e+2 -1.5914254028902647e+1 1.5e+1
    endloop
  endfacet
  facet normal -1.4055438226050761e-2 9.999012174491407e-1 0e+0
    outer loop
      vertex 1.9235936115099426e+2 -1.55395005242445e+1 0e+0
      vertex 1.6569946769733428e+2 -1.5914254028902647e+1 1.5e+1
      vertex 1.9235936115099426e+2 -1.55395005242445e+1 1.5e+1
    endloop
  endfacet
  facet normal -9.993162006891912e-1 3.697473515957007e-2 0e+0
    outer loop
      vertex 1.6569946769733428e+2 -1.5914254028902647e+1 0e+0
      vertex 1.6521054700275246e+2 -2.9128314084755868e+1 0e+0
      vertex 1.6521054700275246e+2 -2.9128314084755868e+1 1.5e+1
    endloop
  endfacet
  facet normal -9.993162006891912e-1 3.697473515957007e-2 0e+0
    outer loop
      vertex 1.6569946769733428e+2 -1.5914254028902647e+1 0e+0
      vertex 1.6521054700275246e+2 -2.9128314084755868e+1 1.5e+1
      vertex 1.6569946769733428e+2 -1.5914254028902647e+1 1.5e+1
    endloop
  endfacet
  facet normal -8.510194892809833e-3 -9.999637876357755e-1 0e+0
    outer loop
      vertex 1.6521054700275246e+2 -2.9128314084755868e+1 0e+0
      vertex 2.0809829807312673e+2 -2.949331042225938e+1 0e+0
      vertex 2.0809829807312673e+2 -2.949331042225938e+1 1.5e+1
    endloop
  endfacet
  facet normal -8.510194892809833e-3 -9.999637876357755e-1 0e+0
    outer loop
      vertex 1.6521054700275246e+2 -2.9128314084755868e+1 0e+0
      vertex 2.0809829807312673e+2 -2.949331042225938e+1 1.5e+1
      vertex 1.6521054700275246e+2 -2.9128314084755868e+1 1.5e+1
    endloop
  endfacet
  facet normal 0e+0 0e+0 -1e+0
    outer loop
      vertex 1.9217751601352848e+2 3.012993268178949e+1 0e+0
      vertex 1.6252930765767988e+2 4.45918349837444e+1 0e+0
      vertex 2.0541663877541754e+2 4.49222978432568e+1 0e+0
    endloop
  endfacet
  facet normal 0e+0 0e+0 -1e+0
    outer loop
      vertex 2.0809829807312673e+2 -2.949331042225938e+1 0e+0
      vertex 1.9217751601352848e+2 3.012993268178949e+1 0e+0
      vertex 2.0541663877541754e+2 4.49222978432568e+1 0e+0
    endloop
  endfacet
  facet normal 0e+0 0e+0 -1e+0
    outer loop
      vertex 1.9235936115099426e+2 -1.55395005242445e+1 0e+0
      vertex 1.9217751601352848e+2 3.012993268178949e+1 0e+0
      vertex 2.0809829807312673e+2 -2.949331042225938e+1 0e+0
    endloop
  endfacet
  facet normal 0e+0 0e+0 -1e+0
    outer loop
      vertex 1.6521054700275246e+2 -2.9128314084755868e+1 0e+0
      vertex 1.9235936115099426e+2 -1.55395005242445e+1 0e+0
      vertex 2.0809829807312673e+2 -2.949331042225938e+1 0e+0
    endloop
  endfacet
  facet normal 0e+0 0e+0 -1e+0
    outer loop
      vertex 1.6521054700275246e+2 -2.9128314084755868e+1 0e+0
      vertex 1.6569946769733428e+2 -1.5914254028902647e+1 0e+0
      vertex 1.9235936115099426e+2 -1.55395005242445e+1 0e+0
    endloop
  endfacet
  facet normal 0e+0 0e+0 -1e+0
    outer loop
      vertex 1.9217751601352848e+2 3.012993268178949e+1 0e+0
      vertex 1.629677047906938e+2 3.021877652691752e+1 0e+0
      vertex 1.6252930765767988e+2 4.45918349837444e+1 0e+0
    endloop
  endfacet
  facet normal 0e+0 0e+0 1e+0
    outer loop
      vertex 2.0541663877541754e+2 4.49222978432568e+1 1.5e+1
      vertex 1.6252930765767988e+2 4.45918349837444e+1 1.5e+1
      vertex 1.9217751601352848e+2 3.012993268178949e+1 1.5e+1
    endloop
  endfacet
  facet normal 0e+0 0e+0 1e+0
    outer loop
      vertex 2.0541663877541754e+2 4.49222978432568e+1 1.5e+1
      vertex 1.9217751601352848e+2 3.012993268178949e+1 1.5e+1
      vertex 2.0809829807312673e+2 -2.949331042225938e+1 1.5e+1
    endloop
  endfacet
  facet normal 0e+0 0e+0 1e+0
    outer loop
      vertex 2.0809829807312673e+2 -2.949331042225938e+1 1.5e+1
      vertex 1.9217751601352848e+2 3.012993268178949e+1 1.5e+1
      vertex 1.9235936115099426e+2 -1.55395005242445e+1 1.5e+1
    endloop
  endfacet
  facet normal 0e+0 0e+0 1e+0
    outer loop
      vertex 2.0809829807312673e+2 -2.949331042225938e+1 1.5e+1
      vertex 1.9235936115099426e+2 -1.55395005242445e+1 1.5e+1
      vertex 1.6521054700275246e+2 -2.9128314084755868e+1 1.5e+1
    endloop
  endfacet
  facet normal 0e+0 0e+0 1e+0
    outer loop
      vertex 1.9235936115099426e+2 -1.55395005242445e+1 1.5e+1
      vertex 1.6569946769733428e+2 -1.5914254028902647e+1 1.5e+1
      vertex 1.6521054700275246e+2 -2.9128314084755868e+1 1.5e+1
    endloop
  endfacet
  facet normal 0e+0 0e+0 1e+0
    outer loop
      vertex 1.6252930765767988e+2 4.45918349837444e+1 1.5e+1
      vertex 1.629677047906938e+2 3.021877652691752e+1 1.5e+1
      vertex 1.9217751601352848e+2 3.012993268178949e+1 1.5e+1
    endloop
  endfacet
endsolid
solid UMD Building 5
  facet normal -9.999996101464119e-1 -8.830102061819289e-4 0e+0
    outer loop
      vertex -1.5966703837223614e+2 -5.152714098405991e+0 0e+0
      vertex -1.5965455142576477e+2 -1.9294047364848574e+1 0e+0
      vertex -1.5965455142576477e+2 -1.9294047364848574e+1 6e+0
    endloop
  endfacet
  facet normal -9.999996101464119e-1 -8.830102061819289e-4 0e+0
    outer loop
      vertex -1.5966703837223614e+2 -5.152714098405991e+0 0e+0
      vertex -1.5965455142576477e+2 -1.9294047364848574e+1 6e+0
      vertex -1.5966703837223614e+2 -5.152714098405991e+0 6e+0
    endloop
  endfacet
  facet normal -6.63903400365591e-3 -9.999779613708986e-1 0e+0
    outer loop
      vertex -1.5965455142576477e+2 -1.9294047364848574e+1 0e+0
      vertex -1.4551320744455393e+2 -1.9387934297536514e+1 0e+0
      vertex -1.4551320744455393e+2 -1.9387934297536514e+1 6e+0
    endloop
  endfacet
  facet normal -6.63903400365591e-3 -9.999779613708986e-1 0e+0
    outer loop
      vertex -1.5965455142576477e+2 -1.9294047364848574e+1 0e+0
      vertex -1.4551320744455393e+2 -1.9387934297536514e+1 6e+0
      vertex -1.5965455142576477e+2 -1.9294047364848574e+1 6e+0
    endloop
  endfacet
  facet normal -9.961584754321892e-1 -8.756878339120985e-2 0e+0
    outer loop
      vertex -1.4551320744455393e+2 -1.9387934297536514e+1 0e+0
      vertex -1.450241116919372e+2 -2.495175350797832e+1 0e+0
      vertex -1.450241116919372e+2 -2.495175350797832e+1 6e+0
    endloop
  endfacet
  facet normal -9.961584754321892e-1 -8.756878339120985e-2 0e+0
    outer loop
      vertex -1.4551320744455393e+2 -1.9387934297536514e+1 0e+0
      vertex -1.450241116919372e+2 -2.495175350797832e+1 6e+0
      vertex -1.4551320744455393e+2 -1.9387934297536514e+1 6e+0
    endloop
  endfacet
  facet normal 6.37840300528103e-3 9.999796577806482e-1 0e+0
    outer loop
      vertex -1.450241116919372e+2 -2.495175350797832e+1 0e+0
      vertex -1.5974502943270517e+2 -2.4857855651929327e+1 0e+0
      vertex -1.5974502943270517e+2 -2.4857855651929327e+1 6e+0
    endloop
  endfacet
  facet normal 6.37840300528103e-3 9.999796577806482e-1 0e+0
    outer loop
      vertex -1.450241116919372e+2 -2.495175350797832e+1 0e+0
      vertex -1.5974502943270517e+2 -2.4857855651929327e+1 6e+0
      vertex -1.450241116919372e+2 -2.495175350797832e+1 6e+0
    endloop
  endfacet
  facet normal -9.999771438803853e-1 6.761044063395916e-3 0e+0
    outer loop
      vertex -1.5974502943270517e+2 -2.4857855651929327e+1 0e+0
      vertex -1.5984847912482877e+2 -4.015835165448128e+1 0e+0
      vertex -1.5984847912482877e+2 -4.015835165448128e+1 6e+0
    endloop
  endfacet
  facet normal -9.999771438803853e-1 6.761044063395916e-3 0e+0
    outer loop
      vertex -1.5974502943270517e+2 -2.4857855651929327e+1 0e+0
      vertex -1.5984847912482877e+2 -4.015835165448128e+1 6e+0
      vertex -1.5974502943270517e+2 -2.4857855651929327e+1 6e+0
    endloop
  endfacet
  facet normal 7.655595616997834e-3 -9.999706954984976e-1 0e+0
    outer loop
      vertex -1.5984847912482877e+2 -4.015835165448128e+1 0e+0
      vertex -1.1800388960625176e+2 -3.983799701053464e+1 0e+0
      vertex -1.1800388960625176e+2 -3.983799701053464e+1 6e+0
    endloop
  endfacet
  facet normal 7.655595616997834e-3 -9.999706954984976e-1 0e+0
    outer loop
      vertex -1.5984847912482877e+2 -4.015835165448128e+1 0e+0
      vertex -1.1800388960625176e+2 -3.983799701053464e+1 6e+0
      vertex -1.5984847912482877e+2 -4.015835165448128e+1 6e+0
    endloop
  endfacet
  facet normal 9.997449090838539e-1 -2.2585764563475306e-2 0e+0
    outer loop
      vertex -1.1800388960625176e+2 -3.983799701053464e+1 0e+0
      vertex -1.1766870269509937e+2 -2.5001155553413632e+1 0e+0
      vertex -1.1766870269509937e+2 -2.5001155553413632e+1 6e+0
    endloop
  endfacet
  facet normal 9.997449090838539e-1 -2.2585764563475306e-2 0e+0
    outer loop
      vertex -1.1800388960625176e+2 -3.983799701053464e+1 0e+0
      vertex -1.1766870269509937e+2 -2.5001155553413632e+1 6e+0
      vertex -1.1800388960625176e+2 -3.983799701053464e+1 6e+0
    endloop
  endfacet
  facet normal 2.505639106110289e-2 9.996860393478509e-1 0e+0
    outer loop
      vertex -1.1766870269509937e+2 -2.5001155553413632e+1 0e+0
      vertex -1.3528743368878312e+2 -2.4559555094467438e+1 0e+0
      vertex -1.3528743368878312e+2 -2.4559555094467438e+1 6e+0
    endloop
  endfacet
  facet normal 2.505639106110289e-2 9.996860393478509e-1 0e+0
    outer loop
      vertex -1.1766870269509937e+2 -2.5001155553413632e+1 0e+0
      vertex -1.3528743368878312e+2 -2.4559555094467438e+1 6e+0
      vertex -1.1766870269509937e+2 -2.5001155553413632e+1 6e+0
    endloop
  endfacet
  facet normal 9.975930952197505e-1 -6.933986133442924e-2 0e+0
    outer loop
      vertex -1.3528743368878312e+2 -2.4559555094467438e+1 0e+0
      vertex -1.349651635402558e+2 -1.9923052096347305e+1 0e+0
      vertex -1.349651635402558e+2 -1.9923052096347305e+1 6e+0
    endloop
  endfacet
  facet normal 9.975930952197505e-1 -6.933986133442924e-2 0e+0
    outer loop
      vertex -1.3528743368878312e+2 -2.4559555094467438e+1 0e+0
      vertex -1.349651635402558e+2 -1.9923052096347305e+1 6e+0
      vertex -1.3528743368878312e+2 -2.4559555094467438e+1 6e+0
    endloop
  endfacet
  facet normal 2.9290734600407212e-2 -9.995709343846332e-1 0e+0
    outer loop
      vertex -1.349651635402558e+2 -1.9923052096347305e+1 0e+0
      vertex -1.183896431292105e+2 -1.943733452241399e+1 0e+0
      vertex -1.183896431292105e+2 -1.943733452241399e+1 6e+0
    endloop
  endfacet
  facet normal 2.9290734600407212e-2 -9.995709343846332e-1 0e+0
    outer loop
      vertex -1.349651635402558e+2 -1.9923052096347305e+1 0e+0
      vertex -1.183896431292105e+2 -1.943733452241399e+1 6e+0
      vertex -1.349651635402558e+2 -1.9923052096347305e+1 6e+0
    endloop
  endfacet
  facet normal 9.998622367997825e-1 1.6598416241793732e-2 0e+0
    outer loop
      vertex -1.183896431292105e+2 -1.943733452241399e+1 0e+0
      vertex -1.1863402040851584e+2 -4.716435278181222e+0 0e+0
      vertex -1.1863402040851584e+2 -4.716435278181222e+0 6e+0
    endloop
  endfacet
  facet normal 9.998622367997825e-1 1.6598416241793732e-2 0e+0
    outer loop
      vertex -1.183896431292105e+2 -1.943733452241399e+1 0e+0
      vertex -1.1863402040851584e+2 -4.716435278181222e+0 6e+0
      vertex -1.183896431292105e+2 -1.943733452241399e+1 6e+0
    endloop
  endfacet
  facet normal -1.0631783471660617e-2 9.999434809929068e-1 0e+0
    outer loop
      vertex -1.1863402040851584e+2 -4.716435278181222e+0 0e+0
      vertex -1.5966703837223614e+2 -5.152714098405991e+0 0e+0
      vertex -1.5966703837223614e+2 -5.152714098405991e+0 6e+0
    endloop
  endfacet
  facet normal -1.0631783471660617e-2 9.999434809929068e-1 0e+0
    outer loop
      vertex -1.1863402040851584e+2 -4.716435278181222e+0 0e+0
      vertex -1.5966703837223614e+2 -5.152714098405991e+0 6e+0
      vertex -1.1863402040851584e+2 -4.716435278181222e+0 6e+0
    endloop
  endfacet
  facet normal 0e+0 0e+0 -1e+0
    outer loop
      vertex -1.450241116919372e+2 -2.495175350797832e+1 0e+0
      vertex -1.5984847912482877e+2 -4.015835165448128e+1 0e+0
      vertex -1.5974502943270517e+2 -2.4857855651929327e+1 0e+0
    endloop
  endfacet
  facet normal 0e+0 0e+0 -1e+0
    outer loop
      vertex -1.5984847912482877e+2 -4.015835165448128e+1 0e+0
      vertex -1.450241116919372e+2 -2.495175350797832e+1 0e+0
      vertex -1.3528743368878312e+2 -2.4559555094467438e+1 0e+0
    endloop
  endfacet
  facet normal 0e+0 0e+0 -1e+0
    outer loop
      vertex -1.349651635402558e+2 -1.9923052096347305e+1 0e+0
      vertex -1.3528743368878312e+2 -2.4559555094467438e+1 0e+0
      vertex -1.450241116919372e+2 -2.495175350797832e+1 0e+0
    endloop
  endfacet
  facet normal 0e+0 0e+0 -1e+0
    outer loop
      vertex -1.349651635402558e+2 -1.9923052096347305e+1 0e+0
      vertex -1.450241116919372e+2 -2.495175350797832e+1 0e+0
      vertex -1.4551320744455393e+2 -1.9387934297536514e+1 0e+0
    endloop
  endfacet
  facet normal 0e+0 0e+0 -1e+0
    outer loop
      vertex -1.1863402040851584e+2 -4.716435278181222e+0 0e+0
      vertex -1.349651635402558e+2 -1.9923052096347305e+1 0e+0
      vertex -1.4551320744455393e+2 -1.9387934297536514e+1 0e+0
    endloop
  endfacet
  facet normal 0e+0 0e+0 -1e+0
    outer loop
      vertex -1.4551320744455393e+2 -1.9387934297536514e+1 0e+0
      vertex -1.5966703837223614e+2 -5.152714098405991e+0 0e+0
      vertex -1.1863402040851584e+2 -4.716435278181222e+0 0e+0
    endloop
  endfacet
  facet normal 0e+0 0e+0 -1e+0
    outer loop
      vertex -1.4551320744455393e+2 -1.9387934297536514e+1 0e+0
      vertex -1.5965455142576477e+2 -1.9294047364848574e+1 0e+0
      vertex -1.5966703837223614e+2 -5.152714098405991e+0 0e+0
    endloop
  endfacet
  facet normal 0e+0 0e+0 -1e+0
    outer loop
      vertex -1.183896431292105e+2 -1.943733452241399e+1 0e+0
      vertex -1.349651635402558e+2 -1.9923052096347305e+1 0e+0
      vertex -1.1863402040851584e+2 -4.716435278181222e+0 0e+0
    endloop
  endfacet
  facet normal 0e+0 0e+0 -1e+0
    outer loop
      vertex -1.5984847912482877e+2 -4.015835165448128e+1 0e+0
      vertex -1.3528743368878312e+2 -2.4559555094467438e+1 0e+0
      vertex -1.1800388960625176e+2 -3.983799701053464e+1 0e+0
    endloop
  endfacet
  facet normal 0e+0 0e+0 -1e+0
    outer loop
      vertex -1.1800388960625176e+2 -3.983799701053464e+1 0e+0
      vertex -1.3528743368878312e+2 -2.4559555094467438e+1 0e+0
      vertex -1.1766870269509937e+2 -2.5001155553413632e+1 0e+0
    endloop
  endfacet
  facet normal 0e+0 0e+0 1e+0
    outer loop
      vertex -1.5974502943270517e+2 -2.4857855651929327e+1 6e+0
      vertex -1.5984847912482877e+2 -4.015835165448128e+1 6e+0
      vertex -1.450241116919372e+2 -2.495175350797832e+1 6e+0
    endloop
  endfacet
  facet normal 0e+0 0e+0 1e+0
    outer loop
      vertex -1.3528743368878312e+2 -2.4559555094467438e+1 6e+0
      vertex -1.450241116919372e+2 -2.495175350797832e+1 6e+0
      vertex -1.5984847912482877e+2 -4.015835165448128e+1 6e+0
    endloop
  endfacet
  facet normal 0e+0 0e+0 1e+0
    outer loop
      vertex -1.450241116919372e+2 -2.495175350797832e+1 6e+0
      vertex -1.3528743368878312e+2 -2.4559555094467438e+1 6e+0
      vertex -1.349651635402558e+2 -1.9923052096347305e+1 6e+0
    endloop
  endfacet
  facet normal 0e+0 0e+0 1e+0
    outer loop
      vertex -1.4551320744455393e+2 -1.9387934297536514e+1 6e+0
      vertex -1.450241116919372e+2 -2.495175350797832e+1 6e+0
      vertex -1.349651635402558e+2 -1.9923052096347305e+1 6e+0
    endloop
  endfacet
  facet normal 0e+0 0e+0 1e+0
    outer loop
      vertex -1.4551320744455393e+2 -1.9387934297536514e+1 6e+0
      vertex -1.349651635402558e+2 -1.9923052096347305e+1 6e+0
      vertex -1.1863402040851584e+2 -4.716435278181222e+0 6e+0
    endloop
  endfacet
  facet normal 0e+0 0e+0 1e+0
    outer loop
      vertex -1.1863402040851584e+2 -4.716435278181222e+0 6e+0
      vertex -1.5966703837223614e+2 -5.152714098405991e+0 6e+0
      vertex -1.4551320744455393e+2 -1.9387934297536514e+1 6e+0
    endloop
  endfacet
  facet normal 0e+0 0e+0 1e+0
    outer loop
      vertex -1.5966703837223614e+2 -5.152714098405991e+0 6e+0
      vertex -1.5965455142576477e+2 -1.9294047364848574e+1 6e+0
      vertex -1.4551320744455393e+2 -1.9387934297536514e+1 6e+0
    endloop
  endfacet
  facet normal 0e+0 0e+0 1e+0
    outer loop
      vertex -1.1863402040851584e+2 -4.716435278181222e+0 6e+0
      vertex -1.349651635402558e+2 -1.9923052096347305e+1 6e+0
      vertex -1.183896431292105e+2 -1.943733452241399e+1 6e+0
    endloop
  endfacet
  facet normal 0e+0 0e+0 1e+0
    outer loop
      vertex -1.1800388960625176e+2 -3.983799701053464e+1 6e+0
      vertex -1.3528743368878312e+2 -2.4559555094467438e+1 6e+0
      vertex -1.5984847912482877e+2 -4.015835165448128e+1 6e+0
    endloop
  endfacet
  facet normal 0e+0 0e+0 1e+0
    outer loop
      vertex -1.1766870269509937e+2 -2.5001155553413632e+1 6e+0
      vertex -1.3528743368878312e+2 -2.4559555094467438e+1 6e+0
      vertex -1.1800388960625176e+2 -3.983799701053464e+1 6e+0
    endloop
  endfacet
endsolid
solid UMD Building 6
  facet normal -1.8470463226348475e-5 -9.999999998294209e-1 0e+0
    outer loop
      vertex -1.7789057616674143e+2 6.625960145433748e+0 0e+0
      vertex -1.12877504874969e+2 6.624759323891016e+0 0e+0
      vertex -1.12877504874969e+2 6.624759323891016e+0 1.8e+1
    endloop
  endfacet
  facet normal -1.8470463226348475e-5 -9.999999998294209e-1 0e+0
    outer loop
      vertex -1.7789057616674143e+2 6.625960145433748e+0 0e+0
      vertex -1.12877504874969e+2 6.624759323891016e+0 1.8e+1
      vertex -1.7789057616674143e+2 6.625960145433748e+0 1.8e+1
    endloop
  endfacet
  facet normal 9.989458171128922e-1 4.590484149472888e-2 0e+0
    outer loop
      vertex -1.12877504874969e+2 6.624759323891016e+0 0e+0
      vertex -1.1403626242861819e+2 3.184074904468624e+1 0e+0
      vertex -1.1403626242861819e+2 3.184074904468624e+1 1.8e+1
    endloop
  endfacet
  facet normal 9.989458171128922e-1 4.590484149472888e-2 0e+0
    outer loop
      vertex -1.12877504874969e+2 6.624759323891016e+0 0e+0
      vertex -1.1403626242861819e+2 3.184074904468624e+1 1.8e+1
      vertex -1.12877504874969e+2 6.624759323891016e+0 1.8e+1
    endloop
  endfacet
  facet normal -3.6119762169682574e-3 9.999934767926277e-1 0e+0
    outer loop
      vertex -1.1403626242861819e+2 3.184074904468624e+1 0e+0
      vertex -1.7789001152070608e+2 3.161010931709059e+1 0e+0
      vertex -1.7789001152070608e+2 3.161010931709059e+1 1.8e+1
    endloop
  endfacet
  facet normal -3.6119762169682574e-3 9.999934767926277e-1 0e+0
    outer loop
      vertex -1.1403626242861819e+2 3.184074904468624e+1 0e+0
      vertex -1.7789001152070608e+2 3.161010931709059e+1 1.8e+1
      vertex -1.1403626242861819e+2 3.184074904468624e+1 1.8e+1
    endloop
  endfacet
  facet normal -9.999999997446161e-1 2.2600170664990624e-5 0e+0
    outer loop
      vertex -1.7789001152070608e+2 3.161010931709059e+1 0e+0
      vertex -1.7789057616674143e+2 6.625960145433748e+0 0e+0
      vertex -1.7789057616674143e+2 6.625960145433748e+0 1.8e+1
    endloop
  endfacet
  facet normal -9.999999997446161e-1 2.2600170664990624e-5 0e+0
    outer loop
      vertex -1.7789001152070608e+2 3.161010931709059e+1 0e+0
      vertex -1.7789057616674143e+2 6.625960145433748e+0 1.8e+1
      vertex -1.7789001152070608e+2 3.161010931709059e+1 1.8e+1
    endloop
  endfacet
  facet normal 0e+0 0e+0 -1e+0
    outer loop
      vertex -1.7789057616674143e+2 6.625960145433748e+0 0e+0
      vertex -1.7789001152070608e+2 3.161010931709059e+1 0e+0
      vertex -1.1403626242861819e+2 3.184074904468624e+1 0e+0
    endloop
  endfacet
  facet normal 0e+0 0e+0 -1e+0
    outer loop
      vertex -1.7789057616674143e+2 6.625960145433748e+0 0e+0
      vertex -1.1403626242861819e+2 3.184074904468624e+1 0e+0
      vertex -1.12877504874969e+2 6.624759323891016e+0 0e+0
    endloop
  endfacet
  facet normal 0e+0 0e+0 1e+0
    outer loop
      vertex -1.1403626242861819e+2 3.184074904468624e+1 1.8e+1
      vertex -1.7789001152070608e+2 3.161010931709059e+1 1.8e+1
      vertex -1.7789057616674143e+2 6.625960145433748e+0 1.8e+1
    endloop
  endfacet
  facet normal 0e+0 0e+0 1e+0
    outer loop
      vertex -1.12877504874969e+2 6.624759323891016e+0 1.8e+1
      vertex -1.1403626242861819e+2 3.184074904468624e+1 1.8e+1
      vertex -1.7789057616674143e+2 6.625960145433748e+0 1.8e+1
    endloop
  endfacet
endsolid