
solid VP Office
  facet normal 1.5441700647168383e-5 9.99999999880777e-1 0e+0
    outer loop
      vertex -1.079717494235691e+2 5.647390094175315e+1 0e+0
      vertex -1.3512089020639021e+2 5.6474320170658e+1 0e+0
      vertex -1.3512089020639021e+2 5.6474320170658e+1 1.2e+1
    endloop
  endfacet
  facet normal 1.5441700647168383e-5 9.99999999880777e-1 0e+0
    outer loop
      vertex -1.079717494235691e+2 5.647390094175315e+1 0e+0
      vertex -1.3512089020639021e+2 5.6474320170658e+1 1.2e+1
      vertex -1.079717494235691e+2 5.647390094175315e+1 1.2e+1
    endloop
  endfacet
  facet normal -9.998791378620773e-1 1.5547014767762617e-2 0e+0
    outer loop
      vertex -1.3512089020639021e+2 5.6474320170658e+1 0e+0
      vertex -1.353529724528256e+2 4.154835528638371e+1 0e+0
      vertex -1.353529724528256e+2 4.154835528638371e+1 1.2e+1
    endloop
  endfacet
  facet normal -9.998791378620773e-1 1.5547014767762617e-2 0e+0
    outer loop
      vertex -1.3512089020639021e+2 5.6474320170658e+1 0e+0
      vertex -1.353529724528256e+2 4.154835528638371e+1 1.2e+1
      vertex -1.3512089020639021e+2 5.6474320170658e+1 1.2e+1
    endloop
  endfacet
  facet normal 4.493932984763192e-2 -9.989897179815443e-1 0e+0
    outer loop
      vertex -1.353529724528256e+2 4.154835528638371e+1 0e+0
      vertex -1.0959472018127977e+2 4.270708452482708e+1 0e+0
      vertex -1.0959472018127977e+2 4.270708452482708e+1 1.2e+1
    endloop
  endfacet
  facet normal 4.493932984763192e-2 -9.989897179815443e-1 0e+0
    outer loop
      vertex -1.353529724528256e+2 4.154835528638371e+1 0e+0
      vertex -1.0959472018127977e+2 4.270708452482708e+1 1.2e+1
      vertex -1.353529724528256e+2 4.154835528638371e+1 1.2e+1
    endloop
  endfacet
  facet normal -9.98493357307761e-1 -5.487272011005279e-2 0e+0
    outer loop
      vertex -1.0959472018127977e+2 4.270708452482708e+1 0e+0
      vertex -1.0936295278860152e+2 3.8489721114271894e+1 0e+0
      vertex -1.0936295278860152e+2 3.8489721114271894e+1 1.2e+1
    endloop
  endfacet
  facet normal -9.98493357307761e-1 -5.487272011005279e-2 0e+0
    outer loop
      vertex -1.0959472018127977e+2 4.270708452482708e+1 0e+0
      vertex -1.0936295278860152e+2 3.8489721114271894e+1 1.2e+1
      vertex -1.0959472018127977e+2 4.270708452482708e+1 1.2e+1
    endloop
  endfacet
  facet normal 1.464390863541259e-2 -9.998927722210406e-1 0e+0
    outer loop
      vertex -1.0936295278860152e+2 3.8489721114271894e+1 0e+0
      vertex -9.354767906385757e+1 3.872134337408156e+1 0e+0
      vertex -9.354767906385757e+1 3.872134337408156e+1 1.2e+1
    endloop
  endfacet
  facet normal 1.464390863541259e-2 -9.998927722210406e-1 0e+0
    outer loop
      vertex -1.0936295278860152e+2 3.8489721114271894e+1 0e+0
      vertex -9.354767906385757e+1 3.872134337408156e+1 1.2e+1
      vertex -1.0936295278860152e+2 3.8489721114271894e+1 1.2e+1
    endloop
  endfacet
  facet normal 9.866718765286595e-1 -1.627224878970749e-1 0e+0
    outer loop
      vertex -9.354767906385757e+1 3.872134337408156e+1 0e+0
      vertex -9.285215099760649e+1 4.2938695205257964e+1 0e+0
      vertex -9.285215099760649e+1 4.2938695205257964e+1 1.2e+1
    endloop
  endfacet
  facet normal 9.866718765286595e-1 -1.627224878970749e-1 0e+0
    outer loop
      vertex -9.354767906385757e+1 3.872134337408156e+1 0e+0
      vertex -9.285215099760649e+1 4.2938695205257964e+1 1.2e+1
      vertex -9.354767906385757e+1 3.872134337408156e+1 1.2e+1
    endloop
  endfacet
  facet normal 9.413512892851902e-3 -9.999556919059045e-1 0e+0
    outer loop
      vertex -9.285215099760649e+1 4.2938695205257964e+1 0e+0
      vertex -6.825304731201432e+1 4.317026944556812e+1 0e+0
      vertex -6.825304731201432e+1 4.317026944556812e+1 1.2e+1
    endloop
  endfacet
  facet normal 9.413512892851902e-3 -9.999556919059045e-1 0e+0
    outer loop
      vertex -9.285215099760649e+1 4.2938695205257964e+1 0e+0
      vertex -6.825304731201432e+1 4.317026944556812e+1 1.2e+1
      vertex -9.285215099760649e+1 4.2938695205257964e+1 1.2e+1
    endloop
  endfacet
  facet normal 9.998757073057267e-1 1.5766100972422894e-2 0e+0
    outer loop
      vertex -6.825304731201432e+1 4.317026944556812e+1 0e+0
      vertex -6.848474544108217e+1 5.7864411712470584e+1 0e+0
      vertex -6.848474544108217e+1 5.7864411712470584e+1 1.2e+1
    endloop
  endfacet
  facet normal 9.998757073057267e-1 1.5766100972422894e-2 0e+0
    outer loop
      vertex -6.825304731201432e+1 4.317026944556812e+1 0e+0
      vertex -6.848474544108217e+1 5.7864411712470584e+1 1.2e+1
      vertex -6.825304731201432e+1 4.317026944556812e+1 1.2e+1
    endloop
  endfacet
  facet normal 1.73824267701356e-2 9.998489142063319e-1 0e+0
    outer loop
      vertex -6.848474544108217e+1 5.7864411712470584e+1 0e+0
      vertex -9.51702247400631e+1 5.832834019521411e+1 0e+0
      vertex -9.51702247400631e+1 5.832834019521411e+1 1.2e+1
    endloop
  endfacet
  facet normal 1.73824267701356e-2 9.998489142063319e-1 0e+0
    outer loop
      vertex -6.848474544108217e+1 5.7864411712470584e+1 0e+0
      vertex -9.51702247400631e+1 5.832834019521411e+1 1.2e+1
      vertex -6.848474544108217e+1 5.7864411712470584e+1 1.2e+1
    endloop
  endfacet
  facet normal 9.880047036056127e-1 1.5442378590484568e-1 0e+0
    outer loop
      vertex -9.51702247400631e+1 5.832834019521411e+1 0e+0
      vertex -9.586564713429605e+1 6.277765862416522e+1 0e+0
      vertex -9.586564713429605e+1 6.277765862416522e+1 1.2e+1
    endloop
  endfacet
  facet normal 9.880047036056127e-1 1.5442378590484568e-1 0e+0
    outer loop
      vertex -9.51702247400631e+1 5.832834019521411e+1 0e+0
      vertex -9.586564713429605e+1 6.277765862416522e+1 1.2e+1
      vertex -9.51702247400631e+1 5.832834019521411e+1 1.2e+1
    endloop
  endfacet
  facet normal -5.626707170272017e-2 9.984157534023594e-1 0e+0
    outer loop
      vertex -9.586564713429605e+1 6.277765862416522e+1 0e+0
      vertex -1.0820349790942724e+2 6.208234233748199e+1 0e+0
      vertex -1.0820349790942724e+2 6.208234233748199e+1 1.2e+1
    endloop
  endfacet
  facet normal -5.626707170272017e-2 9.984157534023594e-1 0e+0
    outer loop
      vertex -9.586564713429605e+1 6.277765862416522e+1 0e+0
      vertex -1.0820349790942724e+2 6.208234233748199e+1 1.2e+1
      vertex -9.586564713429605e+1 6.277765862416522e+1 1.2e+1
    endloop
  endfacet
  facet normal -9.991473638860525e-1 -4.128613858853771e-2 0e+0
    outer loop
      vertex -1.0820349790942724e+2 6.208234233748199e+1 0e+0
      vertex -1.079717494235691e+2 5.647390094175315e+1 0e+0
      vertex -1.079717494235691e+2 5.647390094175315e+1 1.2e+1
    endloop
  endfacet
  facet normal -9.991473638860525e-1 -4.128613858853771e-2 0e+0
    outer loop
      vertex -1.0820349790942724e+2 6.208234233748199e+1 0e+0
      vertex -1.079717494235691e+2 5.647390094175315e+1 1.2e+1
      vertex -1.0820349790942724e+2 6.208234233748199e+1 1.2e+1
    endloop
  endfacet
  facet normal 0e+0 0e+0 -1e+0
    outer loop
      vertex -1.0959472018127977e+2 4.270708452482708e+1 0e+0
      vertex -1.353529724528256e+2 4.154835528638371e+1 0e+0
      vertex -1.3512089020639021e+2 5.6474320170658e+1 0e+0
    endloop
  endfacet
  facet normal 0e+0 0e+0 -1e+0
    outer loop
      vertex -1.079717494235691e+2 5.647390094175315e+1 0e+0
      vertex -1.0959472018127977e+2 4.270708452482708e+1 0e+0
      vertex -1.3512089020639021e+2 5.6474320170658e+1 0e+0
    endloop
  endfacet
  facet normal 0e+0 0e+0 -1e+0
    outer loop
      vertex -9.285215099760649e+1 4.2938695205257964e+1 0e+0
      vertex -1.0959472018127977e+2 4.270708452482708e+1 0e+0
      vertex -1.079717494235691e+2 5.647390094175315e+1 0e+0
    endloop
  endfacet
  facet normal 0e+0 0e+0 -1e+0
    outer loop
      vertex -9.285215099760649e+1 4.2938695205257964e+1 0e+0
      vertex -1.079717494235691e+2 5.647390094175315e+1 0e+0
      vertex -9.51702247400631e+1 5.832834019521411e+1 0e+0
    endloop
  endfacet
  facet normal 0e+0 0e+0 -1e+0
    outer loop
      vertex -9.51702247400631e+1 5.832834019521411e+1 0e+0
      vertex -1.079717494235691e+2 5.647390094175315e+1 0e+0
      vertex -1.0820349790942724e+2 6.208234233748199e+1 0e+0
    endloop
  endfacet
  facet normal 0e+0 0e+0 -1e+0
    outer loop
      vertex -9.51702247400631e+1 5.832834019521411e+1 0e+0
      vertex -1.0820349790942724e+2 6.208234233748199e+1 0e+0
      vertex -9.586564713429605e+1 6.277765862416522e+1 0e+0
    endloop
  endfacet
  facet normal 0e+0 0e+0 -1e+0
    outer loop
      vertex -6.848474544108217e+1 5.7864411712470584e+1 0e+0
      vertex -9.285215099760649e+1 4.2938695205257964e+1 0e+0
      vertex -9.51702247400631e+1 5.832834019521411e+1 0e+0
    endloop
  endfacet
  facet normal 0e+0 0e+0 -1e+0
    outer loop
      vertex -6.825304731201432e+1 4.317026944556812e+1 0e+0
      vertex -9.285215099760649e+1 4.2938695205257964e+1 0e+0
      vertex -6.848474544108217e+1 5.7864411712470584e+1 0e+0
    endloop
  endfacet
  facet normal 0e+0 0e+0 -1e+0
    outer loop
      vertex -9.285215099760649e+1 4.2938695205257964e+1 0e+0
      vertex -9.354767906385757e+1 3.872134337408156e+1 0e+0
      vertex -1.0959472018127977e+2 4.270708452482708e+1 0e+0
    endloop
  endfacet
  facet normal 0e+0 0e+0 -1e+0
    outer loop
      vertex -1.0936295278860152e+2 3.8489721114271894e+1 0e+0
      vertex -1.0959472018127977e+2 4.270708452482708e+1 0e+0
      vertex -9.354767906385757e+1 3.872134337408156e+1 0e+0
    endloop
  endfacet
  facet normal 0e+0 0e+0 1e+0
    outer loop
      vertex -1.3512089020639021e+2 5.6474320170658e+1 1.2e+1
      vertex -1.353529724528256e+2 4.154835528638371e+1 1.2e+1
      vertex -1.0959472018127977e+2 4.270708452482708e+1 1.2e+1
    endloop
  endfacet
  facet normal 0e+0 0e+0 1e+0
    outer loop
      vertex -1.3512089020639021e+2 5.6474320170658e+1 1.2e+1
      vertex -1.0959472018127977e+2 4.270708452482708e+1 1.2e+1
      vertex -1.079717494235691e+2 5.647390094175315e+1 1.2e+1
    endloop
  endfacet
  facet normal 0e+0 0e+0 1e+0
    outer loop
      vertex -1.079717494235691e+2 5.647390094175315e+1 1.2e+1
      vertex -1.0959472018127977e+2 4.270708452482708e+1 1.2e+1
      vertex -9.285215099760649e+1 4.2938695205257964e+1 1.2e+1
    endloop
  endfacet
  facet normal 0e+0 0e+0 1e+0
    outer loop
      vertex -9.51702247400631e+1 5.832834019521411e+1 1.2e+1
      vertex -1.079717494235691e+2 5.647390094175315e+1 1.2e+1
      vertex -9.285215099760649e+1 4.2938695205257964e+1 1.2e+1
    endloop
  endfacet
  facet normal 0e+0 0e+0 1e+0
    outer loop
      vertex -1.0820349790942724e+2 6.208234233748199e+1 1.2e+1
      vertex -1.079717494235691e+2 5.647390094175315e+1 1.2e+1
      vertex -9.51702247400631e+1 5.832834019521411e+1 1.2e+1
    endloop
  endfacet
  facet normal 0e+0 0e+0 1e+0
    outer loop
      vertex -9.586564713429605e+1 6.277765862416522e+1 1.2e+1
      vertex -1.0820349790942724e+2 6.208234233748199e+1 1.2e+1
      vertex -9.51702247400631e+1 5.832834019521411e+1 1.2e+1
    endloop
  endfacet
  facet normal 0e+0 0e+0 1e+0
    outer loop
      vertex -9.51702247400631e+1 5.832834019521411e+1 1.2e+1
      vertex -9.285215099760649e+1 4.2938695205257964e+1 1.2e+1
      vertex -6.848474544108217e+1 5.7864411712470584e+1 1.2e+1
    endloop
  endfacet
  facet normal 0e+0 0e+0 1e+0
    outer loop
      vertex -6.848474544108217e+1 5.7864411712470584e+1 1.2e+1
      vertex -9.285215099760649e+1 4.2938695205257964e+1 1.2e+1
      vertex -6.825304731201432e+1 4.317026944556812e+1 1.2e+1
    endloop
  endfacet
  facet normal 0e+0 0e+0 1e+0
    outer loop
      vertex -1.0959472018127977e+2 4.270708452482708e+1 1.2e+1
      vertex -9.354767906385757e+1 3.872134337408156e+1 1.2e+1
      vertex -9.285215099760649e+1 4.2938695205257964e+1 1.2e+1
    endloop
  endfacet
  facet normal 0e+0 0e+0 1e+0
    outer loop
      vertex -9.354767906385757e+1 3.872134337408156e+1 1.2e+1
      vertex -1.0959472018127977e+2 4.270708452482708e+1 1.2e+1
      vertex -1.0936295278860152e+2 3.8489721114271894e+1 1.2e+1
    endloop
  endfacet
endsolid
solid Legal Services
  facet normal -1.7322364424307243e-1 9.848825153667565e-1 0e+0
    outer loop
      vertex -1.3277836162196056e+2 -1.9101359980359824e+1 0e+0
      vertex -1.4068607982301918e+2 -2.049218959004637e+1 0e+0
      vertex -1.4068607982301918e+2 -2.049218959004637e+1 1.5e+1
    endloop
  endfacet
  facet normal -1.7322364424307243e-1 9.848825153667565e-1 0e+0
    outer loop
      vertex -1.3277836162196056e+2 -1.9101359980359824e+1 0e+0
      vertex -1.4068607982301918e+2 -2.049218959004637e+1 1.5e+1
      vertex -1.3277836162196056e+2 -1.9101359980359824e+1 1.5e+1
    endloop
  endfacet
  facet normal -9.9986761725986e-1 -1.627107725660239e-2 0e+0
    outer loop
      vertex -1.4068607982301918e+2 -2.049218959004637e+1 0e+0
      vertex -1.4045450589342252e+2 -3.4722548745360704e+1 0e+0
      vertex -1.4045450589342252e+2 -3.4722548745360704e+1 1.5e+1
    endloop
  endfacet
  facet normal -9.9986761725986e-1 -1.627107725660239e-2 0e+0
    outer loop
      vertex -1.4068607982301918e+2 -2.049218959004637e+1 0e+0
      vertex -1.4045450589342252e+2 -3.4722548745360704e+1 1.5e+1
      vertex -1.4068607982301918e+2 -2.049218959004637e+1 1.5e+1
    endloop
  endfacet
  facet normal -2.707680327564265e-1 -9.626446241667871e-1 0e+0
    outer loop
      vertex -1.4045450589342252e+2 -3.4722548745360704e+1 0e+0
      vertex -1.3138769808258243e+2 -3.727281667673433e+1 0e+0
      vertex -1.3138769808258243e+2 -3.727281667673433e+1 1.5e+1
    endloop
  endfacet
  facet normal -2.707680327564265e-1 -9.626446241667871e-1 0e+0
    outer loop
      vertex -1.4045450589342252e+2 -3.4722548745360704e+1 0e+0
      vertex -1.3138769808258243e+2 -3.727281667673433e+1 1.5e+1
      vertex -1.4045450589342252e+2 -3.4722548745360704e+1 1.5e+1
    endloop
  endfacet
  facet normal -9.998230023220936e-1 -1.8813931743118312e-2 0e+0
    outer loop
      vertex -1.3138769808258243e+2 -3.727281667673433e+1 0e+0
      vertex -1.3092445086205697e+2 -6.1891021588238026e+1 0e+0
      vertex -1.3092445086205697e+2 -6.1891021588238026e+1 1.5e+1
    endloop
  endfacet
  facet normal -9.998230023220936e-1 -1.8813931743118312e-2 0e+0
    outer loop
      vertex -1.3138769808258243e+2 -3.727281667673433e+1 0e+0
      vertex -1.3092445086205697e+2 -6.1891021588238026e+1 1.5e+1
      vertex -1.3138769808258243e+2 -3.727281667673433e+1 1.5e+1
    endloop
  endfacet
  facet normal 7.642320383563733e-2 -9.970754705214128e-1 0e+0
    outer loop
      vertex -1.3092445086205697e+2 -6.1891021588238026e+1 0e+0
      vertex -1.1580444835932947e+2 -6.073211329350581e+1 0e+0
      vertex -1.1580444835932947e+2 -6.073211329350581e+1 1.5e+1
    endloop
  endfacet
  facet normal 7.642320383563733e-2 -9.970754705214128e-1 0e+0
    outer loop
      vertex -1.3092445086205697e+2 -6.1891021588238026e+1 0e+0
      vertex -1.1580444835932947e+2 -6.073211329350581e+1 1.5e+1
      vertex -1.3092445086205697e+2 -6.1891021588238026e+1 1.5e+1
    endloop
  endfacet
  facet normal 9.976169233999878e-1 6.899618935813034e-2 0e+0
    outer loop
      vertex -1.1580444835932947e+2 -6.073211329350581e+1 0e+0
      vertex -1.1742690163725817e+2 -3.72730373279326e+1 0e+0
      vertex -1.1742690163725817e+2 -3.72730373279326e+1 1.5e+1
    endloop
  endfacet
  facet normal 9.976169233999878e-1 6.899618935813034e-2 0e+0
    outer loop
      vertex -1.1580444835932947e+2 -6.073211329350581e+1 0e+0
      vertex -1.1742690163725817e+2 -3.72730373279326e+1 1.5e+1
      vertex -1.1580444835932947e+2 -6.073211329350581e+1 1.5e+1
    endloop
  endfacet
  facet normal -1.4342188415635273e-5 -9.999999998971508e-1 0e+0
    outer loop
      vertex -1.1742690163725817e+2 -3.72730373279326e+1 0e+0
      vertex -1.0836004832244228e+2 -3.727316736645119e+1 0e+0
      vertex -1.0836004832244228e+2 -3.727316736645119e+1 1.5e+1
    endloop
  endfacet
  facet normal -1.4342188415635273e-5 -9.999999998971508e-1 0e+0
    outer loop
      vertex -1.1742690163725817e+2 -3.72730373279326e+1 0e+0
      vertex -1.0836004832244228e+2 -3.727316736645119e+1 1.5e+1
      vertex -1.1742690163725817e+2 -3.72730373279326e+1 1.5e+1
    endloop
  endfacet
  facet normal 9.989545832922038e-1 4.5713679785153026e-2 0e+0
    outer loop
      vertex -1.0836004832244228e+2 -3.727316736645119e+1 0e+0
      vertex -1.0928708043644896e+2 -1.701527118529973e+1 0e+0
      vertex -1.0928708043644896e+2 -1.701527118529973e+1 1.5e+1
    endloop
  endfacet
  facet normal 9.989545832922038e-1 4.5713679785153026e-2 0e+0
    outer loop
      vertex -1.0836004832244228e+2 -3.727316736645119e+1 0e+0
      vertex -1.0928708043644896e+2 -1.701527118529973e+1 1.5e+1
      vertex -1.0836004832244228e+2 -3.727316736645119e+1 1.5e+1
    endloop
  endfacet
  facet normal -8.056305611393133e-2 9.967495141657123e-1 0e+0
    outer loop
      vertex -1.0928708043644896e+2 -1.701527118529973e+1 0e+0
      vertex -1.1789026533852949e+2 -1.771063030830364e+1 0e+0
      vertex -1.1789026533852949e+2 -1.771063030830364e+1 1.5e+1
    endloop
  endfacet
  facet normal -8.056305611393133e-2 9.967495141657123e-1 0e+0
    outer loop
      vertex -1.0928708043644896e+2 -1.701527118529973e+1 0e+0
      vertex -1.1789026533852949e+2 -1.771063030830364e+1 1.5e+1
      vertex -1.0928708043644896e+2 -1.701527118529973e+1 1.5e+1
    endloop
  endfacet
  facet normal 9.998442028511089e-1 1.7651346266801936e-2 0e+0
    outer loop
      vertex -1.1789026533852949e+2 -1.771063030830364e+1 0e+0
      vertex -1.1835352631634426e+2 8.530359816420368e+0 0e+0
      vertex -1.1835352631634426e+2 8.530359816420368e+0 1.5e+1
    endloop
  endfacet
  facet normal 9.998442028511089e-1 1.7651346266801936e-2 0e+0
    outer loop
      vertex -1.1789026533852949e+2 -1.771063030830364e+1 0e+0
      vertex -1.1835352631634426e+2 8.530359816420368e+0 1.5e+1
      vertex -1.1789026533852949e+2 -1.771063030830364e+1 1.5e+1
    endloop
  endfacet
  facet normal -4.814381414892894e-2 9.988404142600525e-1 0e+0
    outer loop
      vertex -1.1835352631634426e+2 8.530359816420368e+0 0e+0
      vertex -1.3277790724603852e+2 7.835108898677913e+0 0e+0
      vertex -1.3277790724603852e+2 7.835108898677913e+0 1.5e+1
    endloop
  endfacet
  facet normal -4.814381414892894e-2 9.988404142600525e-1 0e+0
    outer loop
      vertex -1.1835352631634426e+2 8.530359816420368e+0 0e+0
      vertex -1.3277790724603852e+2 7.835108898677913e+0 1.5e+1
      vertex -1.1835352631634426e+2 8.530359816420368e+0 1.5e+1
    endloop
  endfacet
  facet normal -9.99999999857728e-1 1.686842934047394e-5 0e+0
    outer loop
      vertex -1.3277790724603852e+2 7.835108898677913e+0 0e+0
      vertex -1.3277836162196056e+2 -1.9101359980359824e+1 0e+0
      vertex -1.3277836162196056e+2 -1.9101359980359824e+1 1.5e+1
    endloop
  endfacet
  facet normal -9.99999999857728e-1 1.686842934047394e-5 0e+0
    outer loop
      vertex -1.3277790724603852e+2 7.835108898677913e+0 0e+0
      vertex -1.3277836162196056e+2 -1.9101359980359824e+1 1.5e+1
      vertex -1.3277790724603852e+2 7.835108898677913e+0 1.5e+1
    endloop
  endfacet
  facet normal 0e+0 0e+0 -1e+0
    outer loop
      vertex -1.3277836162196056e+2 -1.9101359980359824e+1 0e+0
      vertex -1.4045450589342252e+2 -3.4722548745360704e+1 0e+0
      vertex -1.4068607982301918e+2 -2.049218959004637e+1 0e+0
    endloop
  endfacet
  facet normal 0e+0 0e+0 -1e+0
    outer loop
      vertex -1.3138769808258243e+2 -3.727281667673433e+1 0e+0
      vertex -1.4045450589342252e+2 -3.4722548745360704e+1 0e+0
      vertex -1.3277836162196056e+2 -1.9101359980359824e+1 0e+0
    endloop
  endfacet
  facet normal 0e+0 0e+0 -1e+0
    outer loop
      vertex -1.1789026533852949e+2 -1.771063030830364e+1 0e+0
      vertex -1.3138769808258243e+2 -3.727281667673433e+1 0e+0
      vertex -1.3277836162196056e+2 -1.9101359980359824e+1 0e+0
    endloop
  endfacet
  facet normal 0e+0 0e+0 -1e+0
    outer loop
      vertex -1.1789026533852949e+2 -1.771063030830364e+1 0e+0
      vertex -1.3277836162196056e+2 -1.9101359980359824e+1 0e+0
      vertex -1.3277790724603852e+2 7.835108898677913e+0 0e+0
    endloop
  endfacet
  facet normal 0e+0 0e+0 -1e+0
    outer loop
      vertex -1.1789026533852949e+2 -1.771063030830364e+1 0e+0
      vertex -1.3277790724603852e+2 7.835108898677913e+0 0e+0
      vertex -1.1835352631634426e+2 8.530359816420368e+0 0e+0
    endloop
  endfacet
  facet normal 0e+0 0e+0 -1e+0
    outer loop
      vertex -1.1742690163725817e+2 -3.72730373279326e+1 0e+0
      vertex -1.3138769808258243e+2 -3.727281667673433e+1 0e+0
      vertex -1.1789026533852949e+2 -1.771063030830364e+1 0e+0
    endloop
  endfacet
  facet normal 0e+0 0e+0 -1e+0
    outer loop
      vertex -1.1742690163725817e+2 -3.72730373279326e+1 0e+0
      vertex -1.1789026533852949e+2 -1.771063030830364e+1 0e+0
      vertex -1.0836004832244228e+2 -3.727316736645119e+1 0e+0
    endloop
  endfacet
  facet normal 0e+0 0e+0 -1e+0
    outer loop
      vertex -1.0836004832244228e+2 -3.727316736645119e+1 0e+0
      vertex -1.1789026533852949e+2 -1.771063030830364e+1 0e+0
      vertex -1.0928708043644896e+2 -1.701527118529973e+1 0e+0
    endloop
  endfacet
  facet normal 0e+0 0e+0 -1e+0
    outer loop
      vertex -1.1742690163725817e+2 -3.72730373279326e+1 0e+0
      vertex -1.3092445086205697e+2 -6.1891021588238026e+1 0e+0
      vertex -1.3138769808258243e+2 -3.727281667673433e+1 0e+0
    endloop
  endfacet
  facet normal 0e+0 0e+0 -1e+0
    outer loop
      vertex -1.1580444835932947e+2 -6.073211329350581e+1 0e+0
      vertex -1.3092445086205697e+2 -6.1891021588238026e+1 0e+0
      vertex -1.1742690163725817e+2 -3.72730373279326e+1 0e+0
    endloop
  endfacet
  facet normal 0e+0 0e+0 1e+0
    outer loop
      vertex -1.4068607982301918e+2 -2.049218959004637e+1 1.5e+1
      vertex -1.4045450589342252e+2 -3.4722548745360704e+1 1.5e+1
      vertex -1.3277836162196056e+2 -1.9101359980359824e+1 1.5e+1
    endloop
  endfacet
  facet normal 0e+0 0e+0 1e+0
    outer loop
      vertex -1.3277836162196056e+2 -1.9101359980359824e+1 1.5e+1
      vertex -1.4045450589342252e+2 -3.4722548745360704e+1 1.5e+1
      vertex -1.3138769808258243e+2 -3.727281667673433e+1 1.5e+1
    endloop
  endfacet
  facet normal 0e+0 0e+0 1e+0
    outer loop
      vertex -1.3277836162196056e+2 -1.9101359980359824e+1 1.5e+1
      vertex -1.3138769808258243e+2 -3.727281667673433e+1 1.5e+1
      vertex -1.1789026533852949e+2 -1.771063030830364e+1 1.5e+1
    endloop
  endfacet
  facet normal 0e+0 0e+0 1e+0
    outer loop
      vertex -1.3277790724603852e+2 7.835108898677913e+0 1.5e+1
      vertex -1.3277836162196056e+2 -1.9101359980359824e+1 1.5e+1
      vertex -1.1789026533852949e+2 -1.771063030830364e+1 1.5e+1
    endloop
  endfacet
  facet normal 0e+0 0e+0 1e+0
    outer loop
      vertex -1.1835352631634426e+2 8.530359816420368e+0 1.5e+1
      vertex -1.3277790724603852e+2 7.835108898677913e+0 1.5e+1
      vertex -1.1789026533852949e+2 -1.771063030830364e+1 1.5e+1
    endloop
  endfacet
  facet normal 0e+0 0e+0 1e+0
    outer loop
      vertex -1.1789026533852949e+2 -1.771063030830364e+1 1.5e+1
      vertex -1.3138769808258243e+2 -3.727281667673433e+1 1.5e+1
      vertex -1.1742690163725817e+2 -3.72730373279326e+1 1.5e+1
    endloop
  endfacet
  facet normal 0e+0 0e+0 1e+0
    outer loop
      vertex -1.0836004832244228e+2 -3.727316736645119e+1 1.5e+1
      vertex -1.1789026533852949e+2 -1.771063030830364e+1 1.5e+1
      vertex -1.1742690163725817e+2 -3.72730373279326e+1 1.5e+1
    endloop
  endfacet
  facet normal 0e+0 0e+0 1e+0
    outer loop
      vertex -1.0928708043644896e+2 -1.701527118529973e+1 1.5e+1
      vertex -1.1789026533852949e+2 -1.771063030830364e+1 1.5e+1
      vertex -1.0836004832244228e+2 -3.727316736645119e+1 1.5e+1
    endloop
  endfacet
  facet normal 0e+0 0e+0 1e+0
    outer loop
      vertex -1.3138769808258243e+2 -3.727281667673433e+1 1.5e+1
      vertex -1.3092445086205697e+2 -6.1891021588238026e+1 1.5e+1
      vertex -1.1742690163725817e+2 -3.72730373279326e+1 1.5e+1
    endloop
  endfacet
  facet normal 0e+0 0e+0 1e+0
    outer loop
      vertex -1.1742690163725817e+2 -3.72730373279326e+1 1.5e+1
      vertex -1.3092445086205697e+2 -6.1891021588238026e+1 1.5e+1
      vertex -1.1580444835932947e+2 -6.073211329350581e+1 1.5e+1
    endloop
  endfacet
endsolid
solid Armory
  facet normal 1.6454733104871434e-2 -9.998646117142298e-1 0e+0
    outer loop
      vertex -9.432080319058127e+1 -4.4968051448648744e+1 0e+0
      vertex -9.833010090365164e+0 -4.3577639117023e+1 0e+0
      vertex -9.833010090365164e+0 -4.3577639117023e+1 2e+1
    endloop
  endfacet
  facet normal 1.6454733104871434e-2 -9.998646117142298e-1 0e+0
    outer loop
      vertex -9.432080319058127e+1 -4.4968051448648744e+1 0e+0
      vertex -9.833010090365164e+0 -4.3577639117023e+1 2e+1
      vertex -9.432080319058127e+1 -4.4968051448648744e+1 2e+1
    endloop
  endfacet
  facet normal 9.99337675450721e-1 3.638970218000138e-2 0e+0
    outer loop
      vertex -9.833010090365164e+0 -4.3577639117023e+1 0e+0
      vertex -1.122392680115147e+1 -5.380143967786891e+0 0e+0
      vertex -1.122392680115147e+1 -5.380143967786891e+0 2e+1
    endloop
  endfacet
  facet normal 9.99337675450721e-1 3.638970218000138e-2 0e+0
    outer loop
      vertex -9.833010090365164e+0 -4.3577639117023e+1 0e+0
      vertex -1.122392680115147e+1 -5.380143967786891e+0 2e+1
      vertex -9.833010090365164e+0 -4.3577639117023e+1 2e+1
    endloop
  endfacet
  facet normal -1.1028850039702038e-2 9.99939180383888e-1 0e+0
    outer loop
      vertex -1.122392680115147e+1 -5.380143967786891e+0 0e+0
      vertex -9.524764964964606e+1 -6.306885370916797e+0 0e+0
      vertex -9.524764964964606e+1 -6.306885370916797e+0 2e+1
    endloop
  endfacet
  facet normal -1.1028850039702038e-2 9.99939180383888e-1 0e+0
    outer loop
      vertex -1.122392680115147e+1 -5.380143967786891e+0 0e+0
      vertex -9.524764964964606e+1 -6.306885370916797e+0 2e+1
      vertex -1.122392680115147e+1 -5.380143967786891e+0 2e+1
    endloop
  endfacet
  facet normal -9.997127576019624e-1 -2.3966691216770312e-2 0e+0
    outer loop
      vertex -9.524764964964606e+1 -6.306885370916797e+0 0e+0
      vertex -9.432080319058127e+1 -4.4968051448648744e+1 0e+0
      vertex -9.432080319058127e+1 -4.4968051448648744e+1 2e+1
    endloop
  endfacet
  facet normal -9.997127576019624e-1 -2.3966691216770312e-2 0e+0
    outer loop
      vertex -9.524764964964606e+1 -6.306885370916797e+0 0e+0
      vertex -9.432080319058127e+1 -4.4968051448648744e+1 2e+1
      vertex -9.524764964964606e+1 -6.306885370916797e+0 2e+1
    endloop
  endfacet
  facet normal 0e+0 0e+0 -1e+0
    outer loop
      vertex -1.122392680115147e+1 -5.380143967786891e+0 0e+0
      vertex -9.432080319058127e+1 -4.4968051448648744e+1 0e+0
      vertex -9.524764964964606e+1 -6.306885370916797e+0 0e+0
    endloop
  endfacet
  facet normal 0e+0 0e+0 -1e+0
    outer loop
      vertex -9.833010090365164e+0 -4.3577639117023e+1 0e+0
      vertex -9.432080319058127e+1 -4.4968051448648744e+1 0e+0
      vertex -1.122392680115147e+1 -5.380143967786891e+0 0e+0
    endloop
  endfacet
  facet normal 0e+0 0e+0 1e+0
    outer loop
      vertex -9.524764964964606e+1 -6.306885370916797e+0 2e+1
      vertex -9.432080319058127e+1 -4.4968051448648744e+1 2e+1
      vertex -1.122392680115147e+1 -5.380143967786891e+0 2e+1
    endloop
  endfacet
  facet normal 0e+0 0e+0 1e+0
    outer loop
      vertex -1.122392680115147e+1 -5.380143967786891e+0 2e+1
      vertex -9.432080319058127e+1 -4.4968051448648744e+1 2e+1
      vertex -9.833010090365164e+0 -4.3577639117023e+1 2e+1
    endloop
  endfacet
endsolid
solid Aux1
  facet normal -2.5605461970128206e-2 9.996721264081021e-1 0e+0
    outer loop
      vertex -1.0517905143378067e+2 -9.191836130102305e+1 0e+0
      vertex -1.3231594169999454e+2 -9.261344181126569e+1 0e+0
      vertex -1.3231594169999454e+2 -9.261344181126569e+1 6e+0
    endloop
  endfacet
  facet normal -2.5605461970128206e-2 9.996721264081021e-1 0e+0
    outer loop
      vertex -1.0517905143378067e+2 -9.191836130102305e+1 0e+0
      vertex -1.3231594169999454e+2 -9.261344181126569e+1 6e+0
      vertex -1.0517905143378067e+2 -9.191836130102305e+1 6e+0
    endloop
  endfacet
  facet normal -9.995373640519951e-1 -3.0414763914740146e-2 0e+0
    outer loop
      vertex -1.3231594169999454e+2 -9.261344181126569e+1 0e+0
      vertex -1.3185253684559885e+2 -1.0784257421387125e+2 0e+0
      vertex -1.3185253684559885e+2 -1.0784257421387125e+2 6e+0
    endloop
  endfacet
  facet normal -9.995373640519951e-1 -3.0414763914740146e-2 0e+0
    outer loop
      vertex -1.3231594169999454e+2 -9.261344181126569e+1 0e+0
      vertex -1.3185253684559885e+2 -1.0784257421387125e+2 6e+0
      vertex -1.3231594169999454e+2 -9.261344181126569e+1 6e+0
    endloop
  endfacet
  facet normal -1.5026934849965045e-5 -9.999999998870956e-1 0e+0
    outer loop
      vertex -1.3185253684559885e+2 -1.0784257421387125e+2 0e+0
      vertex -1.0471560336906961e+2 -1.0784298199880267e+2 0e+0
      vertex -1.0471560336906961e+2 -1.0784298199880267e+2 6e+0
    endloop
  endfacet
  facet normal -1.5026934849965045e-5 -9.999999998870956e-1 0e+0
    outer loop
      vertex -1.3185253684559885e+2 -1.0784257421387125e+2 0e+0
      vertex -1.0471560336906961e+2 -1.0784298199880267e+2 6e+0
      vertex -1.3185253684559885e+2 -1.0784257421387125e+2 6e+0
    endloop
  endfacet
  facet normal -9.99596870651094e-1 -2.839183306058023e-2 0e+0
    outer loop
      vertex -1.0471560336906961e+2 -1.0784298199880267e+2 0e+0
      vertex -1.0459974235883162e+2 -1.1192212345533548e+2 0e+0
      vertex -1.0459974235883162e+2 -1.1192212345533548e+2 6e+0
    endloop
  endfacet
  facet normal -9.99596870651094e-1 -2.839183306058023e-2 0e+0
    outer loop
      vertex -1.0471560336906961e+2 -1.0784298199880267e+2 0e+0
      vertex -1.0459974235883162e+2 -1.1192212345533548e+2 6e+0
      vertex -1.0471560336906961e+2 -1.0784298199880267e+2 6e+0
    endloop
  endfacet
  facet normal 9.31367899660924e-3 -9.999566267511547e-1 0e+0
    outer loop
      vertex -1.0459974235883162e+2 -1.1192212345533548e+2 0e+0
      vertex -9.21712588488505e+1 -1.1180636352862476e+2 0e+0
      vertex -9.21712588488505e+1 -1.1180636352862476e+2 6e+0
    endloop
  endfacet
  facet normal 9.31367899660924e-3 -9.999566267511547e-1 0e+0
    outer loop
      vertex -1.0459974235883162e+2 -1.1192212345533548e+2 0e+0
      vertex -9.21712588488505e+1 -1.1180636352862476e+2 6e+0
      vertex -1.0459974235883162e+2 -1.1192212345533548e+2 6e+0
    endloop
  endfacet
  facet normal 9.988238724288362e-1 4.848579035412261e-2 0e+0
    outer loop
      vertex -9.21712588488505e+1 -1.1180636352862476e+2 0e+0
      vertex -9.240303333887258e+1 -1.0703172972430265e+2 0e+0
      vertex -9.240303333887258e+1 -1.0703172972430265e+2 6e+0
    endloop
  endfacet
  facet normal 9.988238724288362e-1 4.848579035412261e-2 0e+0
    outer loop
      vertex -9.21712588488505e+1 -1.1180636352862476e+2 0e+0
      vertex -9.240303333887258e+1 -1.0703172972430265e+2 6e+0
      vertex -9.21712588488505e+1 -1.1180636352862476e+2 6e+0
    endloop
  endfacet
  facet normal 1.6577679612893883e-2 -9.998625808273116e-1 0e+0
    outer loop
      vertex -9.240303333887258e+1 -1.0703172972430265e+2 0e+0
      vertex -6.445469249170769e+1 -1.0656834740641163e+2 0e+0
      vertex -6.445469249170769e+1 -1.0656834740641163e+2 6e+0
    endloop
  endfacet
  facet normal 1.6577679612893883e-2 -9.998625808273116e-1 0e+0
    outer loop
      vertex -9.240303333887258e+1 -1.0703172972430265e+2 0e+0
      vertex -6.445469249170769e+1 -1.0656834740641163e+2 6e+0
      vertex -9.240303333887258e+1 -1.0703172972430265e+2 6e+0
    endloop
  endfacet
  facet normal 9.995075894296235e-1 3.1377996631132464e-2 0e+0
    outer loop
      vertex -6.445469249170769e+1 -1.0656834740641163e+2 0e+0
      vertex -6.491823148811582e+1 -9.180288132669276e+1 0e+0
      vertex -6.491823148811582e+1 -9.180288132669276e+1 6e+0
    endloop
  endfacet
  facet normal 9.995075894296235e-1 3.1377996631132464e-2 0e+0
    outer loop
      vertex -6.445469249170769e+1 -1.0656834740641163e+2 0e+0
      vertex -6.491823148811582e+1 -9.180288132669276e+1 6e+0
      vertex -6.445469249170769e+1 -1.0656834740641163e+2 6e+0
    endloop
  endfacet
  facet normal -8.496363518074444e-3 9.999639052520689e-1 0e+0
    outer loop
      vertex -6.491823148811582e+1 -9.180288132669276e+1 0e+0
      vertex -9.217102733339645e+1 -9.203443934510643e+1 0e+0
      vertex -9.217102733339645e+1 -9.203443934510643e+1 6e+0
    endloop
  endfacet
  facet normal -8.496363518074444e-3 9.999639052520689e-1 0e+0
    outer loop
      vertex -6.491823148811582e+1 -9.180288132669276e+1 0e+0
      vertex -9.217102733339645e+1 -9.203443934510643e+1 6e+0
      vertex -6.491823148811582e+1 -9.180288132669276e+1 6e+0
    endloop
  endfacet
  facet normal 9.955768750405185e-1 9.395044376987238e-2 0e+0
    outer loop
      vertex -9.217102733339645e+1 -9.203443934510643e+1 0e+0
      vertex -9.240282845561133e+1 -8.95780822740228e+1 0e+0
      vertex -9.240282845561133e+1 -8.95780822740228e+1 6e+0
    endloop
  endfacet
  facet normal 9.955768750405185e-1 9.395044376987238e-2 0e+0
    outer loop
      vertex -9.217102733339645e+1 -9.203443934510643e+1 0e+0
      vertex -9.240282845561133e+1 -8.95780822740228e+1 6e+0
      vertex -9.217102733339645e+1 -9.203443934510643e+1 6e+0
    endloop
  endfacet
  facet normal 1.2543088420809994e-5 9.999999999213356e-1 0e+0
    outer loop
      vertex -9.240282845561133e+1 -8.95780822740228e+1 0e+0
      vertex -1.0506310521439339e+2 -8.957792347505197e+1 0e+0
      vertex -1.0506310521439339e+2 -8.957792347505197e+1 6e+0
    endloop
  endfacet
  facet normal 1.2543088420809994e-5 9.999999999213356e-1 0e+0
    outer loop
      vertex -9.240282845561133e+1 -8.95780822740228e+1 0e+0
      vertex -1.0506310521439339e+2 -8.957792347505197e+1 6e+0
      vertex -9.240282845561133e+1 -8.95780822740228e+1 6e+0
    endloop
  endfacet
  facet normal -9.987751286711201e-1 4.947971653099326e-2 0e+0
    outer loop
      vertex -1.0506310521439339e+2 -8.957792347505197e+1 0e+0
      vertex -1.0517905143378067e+2 -9.191836130102305e+1 0e+0
      vertex -1.0517905143378067e+2 -9.191836130102305e+1 6e+0
    endloop
  endfacet
  facet normal -9.987751286711201e-1 4.947971653099326e-2 0e+0
    outer loop
      vertex -1.0506310521439339e+2 -8.957792347505197e+1 0e+0
      vertex -1.0517905143378067e+2 -9.191836130102305e+1 6e+0
      vertex -1.0506310521439339e+2 -8.957792347505197e+1 6e+0
    endloop
  endfacet
  facet normal 0e+0 0e+0 -1e+0
    outer loop
      vertex -1.0517905143378067e+2 -9.191836130102305e+1 0e+0
      vertex -1.3185253684559885e+2 -1.0784257421387125e+2 0e+0
      vertex -1.3231594169999454e+2 -9.261344181126569e+1 0e+0
    endloop
  endfacet
  facet normal 0e+0 0e+0 -1e+0
    outer loop
      vertex -1.0471560336906961e+2 -1.0784298199880267e+2 0e+0
      vertex -1.3185253684559885e+2 -1.0784257421387125e+2 0e+0
      vertex -1.0517905143378067e+2 -9.191836130102305e+1 0e+0
    endloop
  endfacet
  facet normal 0e+0 0e+0 -1e+0
    outer loop
      vertex -9.240303333887258e+1 -1.0703172972430265e+2 0e+0
      vertex -1.0471560336906961e+2 -1.0784298199880267e+2 0e+0
      vertex -1.0517905143378067e+2 -9.191836130102305e+1 0e+0
    endloop
  endfacet
  facet normal 0e+0 0e+0 -1e+0
    outer loop
      vertex -9.217102733339645e+1 -9.203443934510643e+1 0e+0
      vertex -9.240303333887258e+1 -1.0703172972430265e+2 0e+0
      vertex -1.0517905143378067e+2 -9.191836130102305e+1 0e+0
    endloop
  endfacet
  facet normal 0e+0 0e+0 -1e+0
    outer loop
      vertex -9.217102733339645e+1 -9.203443934510643e+1 0e+0
      vertex -1.0517905143378067e+2 -9.191836130102305e+1 0e+0
      vertex -9.240282845561133e+1 -8.95780822740228e+1 0e+0
    endloop
  endfacet
  facet normal 0e+0 0e+0 -1e+0
    outer loop
      vertex -9.240282845561133e+1 -8.95780822740228e+1 0e+0
      vertex -1.0517905143378067e+2 -9.191836130102305e+1 0e+0
      vertex -1.0506310521439339e+2 -8.957792347505197e+1 0e+0
    endloop
  endfacet
  facet normal 0e+0 0e+0 -1e+0
    outer loop
      vertex -6.445469249170769e+1 -1.0656834740641163e+2 0e+0
      vertex -9.240303333887258e+1 -1.0703172972430265e+2 0e+0
      vertex -9.217102733339645e+1 -9.203443934510643e+1 0e+0
    endloop
  endfacet
  facet normal 0e+0 0e+0 -1e+0
    outer loop
      vertex -6.445469249170769e+1 -1.0656834740641163e+2 0e+0
      vertex -9.217102733339645e+1 -9.203443934510643e+1 0e+0
      vertex -6.491823148811582e+1 -9.180288132669276e+1 0e+0
    endloop
  endfacet
  facet normal 0e+0 0e+0 -1e+0
    outer loop
      vertex -9.240303333887258e+1 -1.0703172972430265e+2 0e+0
      vertex -1.0459974235883162e+2 -1.1192212345533548e+2 0e+0
      vertex -1.0471560336906961e+2 -1.0784298199880267e+2 0e+0
    endloop
  endfacet
  facet normal 0e+0 0e+0 -1e+0
    outer loop
      vertex -9.21712588488505e+1 -1.1180636352862476e+2 0e+0
      vertex -1.0459974235883162e+2 -1.1192212345533548e+2 0e+0
      vertex -9.240303333887258e+1 -1.0703172972430265e+2 0e+0
    endloop
  endfacet
  facet normal 0e+0 0e+0 1e+0
    outer loop
      vertex -1.3231594169999454e+2 -9.261344181126569e+1 6e+0
      vertex -1.3185253684559885e+2 -1.0784257421387125e+2 6e+0
      vertex -1.0517905143378067e+2 -9.191836130102305e+1 6e+0
    endloop
  endfacet
  facet normal 0e+0 0e+0 1e+0
    outer loop
      vertex -1.0517905143378067e+2 -9.191836130102305e+1 6e+0
      vertex -1.3185253684559885e+2 -1.0784257421387125e+2 6e+0
      vertex -1.0471560336906961e+2 -1.0784298199880267e+2 6e+0
    endloop
  endfacet
  facet normal 0e+0 0e+0 1e+0
    outer loop
      vertex -1.0517905143378067e+2 -9.191836130102305e+1 6e+0
      vertex -1.0471560336906961e+2 -1.0784298199880267e+2 6e+0
      vertex -9.240303333887258e+1 -1.0703172972430265e+2 6e+0
    endloop
  endfacet
  facet normal 0e+0 0e+0 1e+0
    outer loop
      vertex -1.0517905143378067e+2 -9.191836130102305e+1 6e+0
      vertex -9.240303333887258e+1 -1.0703172972430265e+2 6e+0
      vertex -9.217102733339645e+1 -9.203443934510643e+1 6e+0
    endloop
  endfacet
  facet normal 0e+0 0e+0 1e+0
    outer loop
      vertex -9.240282845561133e+1 -8.95780822740228e+1 6e+0
      vertex -1.0517905143378067e+2 -9.191836130102305e+1 6e+0
      vertex -9.217102733339645e+1 -9.203443934510643e+1 6e+0
    endloop
  endfacet
  facet normal 0e+0 0e+0 1e+0
    outer loop
      vertex -1.0506310521439339e+2 -8.957792347505197e+1 6e+0
      vertex -1.0517905143378067e+2 -9.191836130102305e+1 6e+0
      vertex -9.240282845561133e+1 -8.95780822740228e+1 6e+0
    endloop
  endfacet
  facet normal 0e+0 0e+0 1e+0
    outer loop
      vertex -9.217102733339645e+1 -9.203443934510643e+1 6e+0
      vertex -9.240303333887258e+1 -1.0703172972430265e+2 6e+0
      vertex -6.445469249170769e+1 -1.0656834740641163e+2 6e+0
    endloop
  endfacet
  facet normal 0e+0 0e+0 1e+0
    outer loop
      vertex -6.491823148811582e+1 -9.180288132669276e+1 6e+0
      vertex -9.217102733339645e+1 -9.203443934510643e+1 6e+0
      vertex -6.445469249170769e+1 -1.0656834740641163e+2 6e+0
    endloop
  endfacet
  facet normal 0e+0 0e+0 1e+0
    outer loop
      vertex -1.0471560336906961e+2 -1.0784298199880267e+2 6e+0
      vertex -1.0459974235883162e+2 -1.1192212345533548e+2 6e+0
      vertex -9.240303333887258e+1 -1.0703172972430265e+2 6e+0
    endloop
  endfacet
  facet normal 0e+0 0e+0 1e+0
    outer loop
      vertex -9.240303333887258e+1 -1.0703172972430265e+2 6e+0
      vertex -1.0459974235883162e+2 -1.1192212345533548e+2 6e+0
      vertex -9.21712588488505e+1 -1.1180636352862476e+2 6e+0
    endloop
  endfacet
endsolid
solid Dairy
  facet normal 8.881743858458938e-1 -4.5950654002665653e-1 0e+0
    outer loop
      vertex 1.0020876127792958e+2 -3.28685638415652e+1 0e+0
      vertex 1.1208276917987702e+2 -9.917443983228347e+0 0e+0
      vertex 1.1208276917987702e+2 -9.917443983228347e+0 6e+0
    endloop
  endfacet
  facet normal 8.881743858458938e-1 -4.5950654002665653e-1 0e+0
    outer loop
      vertex 1.0020876127792958e+2 -3.28685638415652e+1 0e+0
      vertex 1.1208276917987702e+2 -9.917443983228347e+0 6e+0
      vertex 1.0020876127792958e+2 -3.28685638415652e+1 6e+0
    endloop
  endfacet
  facet normal 4.6414832540657636e-1 8.857574905256353e-1 0e+0
    outer loop
      vertex 1.1208276917987702e+2 -9.917443983228347e+0 0e+0
      vertex 8.426330854995113e+1 4.660311444424536e+0 0e+0
      vertex 8.426330854995113e+1 4.660311444424536e+0 6e+0
    endloop
  endfacet
  facet normal 4.6414832540657636e-1 8.857574905256353e-1 0e+0
    outer loop
      vertex 1.1208276917987702e+2 -9.917443983228347e+0 0e+0
      vertex 8.426330854995113e+1 4.660311444424536e+0 6e+0
      vertex 1.1208276917987702e+2 -9.917443983228347e+0 6e+0
    endloop
  endfacet
  facet normal -8.654941725335402e-1 5.009189927627847e-1 0e+0
    outer loop
      vertex 8.426330854995113e+1 4.660311444424536e+0 0e+0
      vertex 7.111418661360011e+1 -1.8058907779179737e+1 0e+0
      vertex 7.111418661360011e+1 -1.8058907779179737e+1 6e+0
    endloop
  endfacet
  facet normal -8.654941725335402e-1 5.009189927627847e-1 0e+0
    outer loop
      vertex 8.426330854995113e+1 4.660311444424536e+0 0e+0
      vertex 7.111418661360011e+1 -1.8058907779179737e+1 6e+0
      vertex 8.426330854995113e+1 4.660311444424536e+0 6e+0
    endloop
  endfacet
  facet normal -4.536312884907623e-1 -8.911894602732974e-1 0e+0
    outer loop
      vertex 7.111418661360011e+1 -1.8058907779179737e+1 0e+0
      vertex 1.0020876127792958e+2 -3.28685638415652e+1 0e+0
      vertex 1.0020876127792958e+2 -3.28685638415652e+1 6e+0
    endloop
  endfacet
  facet normal -4.536312884907623e-1 -8.911894602732974e-1 0e+0
    outer loop
      vertex 7.111418661360011e+1 -1.8058907779179737e+1 0e+0
      vertex 1.0020876127792958e+2 -3.28685638415652e+1 6e+0
      vertex 7.111418661360011e+1 -1.8058907779179737e+1 6e+0
    endloop
  endfacet
  facet normal 0e+0 0e+0 -1e+0
    outer loop
      vertex 1.0020876127792958e+2 -3.28685638415652e+1 0e+0
      vertex 7.111418661360011e+1 -1.8058907779179737e+1 0e+0
      vertex 8.426330854995113e+1 4.660311444424536e+0 0e+0
    endloop
  endfacet
  facet normal 0e+0 0e+0 -1e+0
    outer loop
      vertex 1.1208276917987702e+2 -9.917443983228347e+0 0e+0
      vertex 1.0020876127792958e+2 -3.28685638415652e+1 0e+0
      vertex 8.426330854995113e+1 4.660311444424536e+0 0e+0
    endloop
  endfacet
  facet normal 0e+0 0e+0 1e+0
    outer loop
      vertex 8.426330854995113e+1 4.660311444424536e+0 6e+0
      vertex 7.111418661360011e+1 -1.8058907779179737e+1 6e+0
      vertex 1.0020876127792958e+2 -3.28685638415652e+1 6e+0
    endloop
  endfacet
  facet normal 0e+0 0e+0 1e+0
    outer loop
      vertex 8.426330854995113e+1 4.660311444424536e+0 6e+0
      vertex 1.0020876127792958e+2 -3.28685638415652e+1 6e+0
      vertex 1.1208276917987702e+2 -9.917443983228347e+0 6e+0
    endloop
  endfacet
endsolid
solid Dairy
  facet normal 1.188214531835951e-4 -9.99999992940731e-1 0e+0
    outer loop
      vertex 9.059874821796741e+2 2.330412281489105e+2 0e+0
      vertex 9.645084066441639e+2 2.330481816902461e+2 0e+0
      vertex 9.645084066441639e+2 2.330481816902461e+2 6e+0
    endloop
  endfacet
  facet normal 1.188214531835951e-4 -9.99999992940731e-1 0e+0
    outer loop
      vertex 9.059874821796741e+2 2.330412281489105e+2 0e+0
      vertex 9.645084066441639e+2 2.330481816902461e+2 6e+0
      vertex 9.059874821796741e+2 2.330412281489105e+2 6e+0
    endloop
  endfacet
  facet normal 9.999999924918049e-1 1.2254138165638316e-4 0e+0
    outer loop
      vertex 9.645084066441639e+2 2.330481816902461e+2 0e+0
      vertex 9.644991808913755e+2 3.08335016181193e+2 0e+0
      vertex 9.644991808913755e+2 3.08335016181193e+2 6e+0
    endloop
  endfacet
  facet normal 9.999999924918049e-1 1.2254138165638316e-4 0e+0
    outer loop
      vertex 9.645084066441639e+2 2.330481816902461e+2 0e+0
      vertex 9.644991808913755e+2 3.08335016181193e+2 6e+0
      vertex 9.645084066441639e+2 2.330481816902461e+2 6e+0
    endloop
  endfacet
  facet normal -1.1882203196286692e-4 9.999999929406622e-1 0e+0
    outer loop
      vertex 9.644991808913755e+2 3.08335016181193e+2 0e+0
      vertex 9.059788161934893e+2 3.083280626724993e+2 0e+0
      vertex 9.059788161934893e+2 3.083280626724993e+2 6e+0
    endloop
  endfacet
  facet normal -1.1882203196286692e-4 9.999999929406622e-1 0e+0
    outer loop
      vertex 9.644991808913755e+2 3.08335016181193e+2 0e+0
      vertex 9.059788161934893e+2 3.083280626724993e+2 6e+0
      vertex 9.644991808913755e+2 3.08335016181193e+2 6e+0
    endloop
  endfacet
  facet normal -9.999999933752742e-1 -1.1510626236666243e-4 0e+0
    outer loop
      vertex 9.059788161934893e+2 3.083280626724993e+2 0e+0
      vertex 9.059874821796741e+2 2.330412281489105e+2 0e+0
      vertex 9.059874821796741e+2 2.330412281489105e+2 6e+0
    endloop
  endfacet
  facet normal -9.999999933752742e-1 -1.1510626236666243e-4 0e+0
    outer loop
      vertex 9.059788161934893e+2 3.083280626724993e+2 0e+0
      vertex 9.059874821796741e+2 2.330412281489105e+2 6e+0
      vertex 9.059788161934893e+2 3.083280626724993e+2 6e+0
    endloop
  endfacet
  facet normal 0e+0 0e+0 -1e+0
    outer loop
      vertex 9.059874821796741e+2 2.330412281489105e+2 0e+0
      vertex 9.059788161934893e+2 3.083280626724993e+2 0e+0
      vertex 9.644991808913755e+2 3.08335016181193e+2 0e+0
    endloop
  endfacet
  facet normal 0e+0 0e+0 -1e+0
    outer loop
      vertex 9.059874821796741e+2 2.330412281489105e+2 0e+0
      vertex 9.644991808913755e+2 3.08335016181193e+2 0e+0
      vertex 9.645084066441639e+2 2.330481816902461e+2 0e+0
    endloop
  endfacet
  facet normal 0e+0 0e+0 1e+0
    outer loop
      vertex 9.644991808913755e+2 3.08335016181193e+2 6e+0
      vertex 9.059788161934893e+2 3.083280626724993e+2 6e+0
      vertex 9.059874821796741e+2 2.330412281489105e+2 6e+0
    endloop
  endfacet
  facet normal 0e+0 0e+0 1e+0
    outer loop
      vertex 9.645084066441639e+2 2.330481816902461e+2 6e+0
      vertex 9.644991808913755e+2 3.08335016181193e+2 6e+0
      vertex 9.059874821796741e+2 2.330412281489105e+2 6e+0
    endloop
  endfacet
endsolid