solid ground
  facet normal 0e+0 0e+0 1e+0
    outer loop
      vertex -7.5e+1 7.5e+1 0e+0
      vertex 5.4e+1 5.4e+1 0e+0
      vertex 7.5e+1 7.5e+1 0e+0
    endloop
  endfacet
  facet normal 0e+0 0e+0 1e+0
    outer loop
      vertex -7.5e+1 7.5e+1 0e+0
      vertex -5.4e+1 5.4e+1 0e+0
      vertex 5.4e+1 5.4e+1 0e+0
    endloop
  endfacet
  facet normal 0e+0 0e+0 1e+0
    outer loop
      vertex -7.5e+1 7.5e+1 0e+0
      vertex -7.5e+1 -7.5e+1 0e+0
      vertex -5.4e+1 5.4e+1 0e+0
    endloop
  endfacet
  facet normal 0e+0 0e+0 1e+0
    outer loop
      vertex -7.5e+1 -7.5e+1 0e+0
      vertex -5.4e+1 -5.4e+1 0e+0
      vertex -5.4e+1 5.4e+1 0e+0
    endloop
  endfacet
  facet normal 0e+0 0e+0 1e+0
    outer loop
      vertex -5.4e+1 -5.4e+1 0e+0
      vertex -7.5e+1 -7.5e+1 0e+0
      vertex 7.5e+1 -7.5e+1 0e+0
    endloop
  endfacet
  facet normal 0e+0 0e+0 1e+0
    outer loop
      vertex 5.4e+1 -5.4e+1 0e+0
      vertex -5.4e+1 -5.4e+1 0e+0
      vertex 7.5e+1 -7.5e+1 0e+0
    endloop
  endfacet
  facet normal 0e+0 0e+0 1e+0
    outer loop
      vertex -5.3e+1 -5.3e+1 0e+0
      vertex -5.4e+1 -5.4e+1 0e+0
      vertex 5.4e+1 -5.4e+1 0e+0
    endloop
  endfacet
  facet normal 0e+0 0e+0 1e+0
    outer loop
      vertex -5.4e+1 -5.4e+1 0e+0
      vertex -5.3e+1 -5.3e+1 0e+0
      vertex -5.3e+1 5.3e+1 0e+0
    endloop
  endfacet
  facet normal 0e+0 0e+0 1e+0
    outer loop
      vertex -5.4e+1 5.4e+1 0e+0
      vertex -5.4e+1 -5.4e+1 0e+0
      vertex -5.3e+1 5.3e+1 0e+0
    endloop
  endfacet
  facet normal 0e+0 0e+0 1e+0
    outer loop
      vertex 7e+0 7e+0 0e+0
      vertex -5.4e+1 5.4e+1 0e+0
      vertex -5.3e+1 5.3e+1 0e+0
    endloop
  endfacet
  facet normal 0e+0 0e+0 1e+0
    outer loop
      vertex 8e+0 8e+0 0e+0
      vertex -5.4e+1 5.4e+1 0e+0
      vertex 7e+0 7e+0 0e+0
    endloop
  endfacet
  facet normal 0e+0 0e+0 1e+0
    outer loop
      vertex 9e+0 9e+0 0e+0
      vertex -5.4e+1 5.4e+1 0e+0
      vertex 8e+0 8e+0 0e+0
    endloop
  endfacet
  facet normal 0e+0 0e+0 1e+0
    outer loop
      vertex 1e+1 1e+1 0e+0
      vertex -5.4e+1 5.4e+1 0e+0
      vertex 9e+0 9e+0 0e+0
    endloop
  endfacet
  facet normal 0e+0 0e+0 1e+0
    outer loop
      vertex 1.1e+1 1.1e+1 0e+0
      vertex -5.4e+1 5.4e+1 0e+0
      vertex 1e+1 1e+1 0e+0
    endloop
  endfacet
  facet normal 0e+0 0e+0 1e+0
    outer loop
      vertex 1.2e+1 1.2e+1 0e+0
      vertex -5.4e+1 5.4e+1 0e+0
      vertex 1.1e+1 1.1e+1 0e+0
    endloop
  endfacet
  facet normal 0e+0 0e+0 1e+0
    outer loop
      vertex 1.3e+1 1.3e+1 0e+0
      vertex -5.4e+1 5.4e+1 0e+0
      vertex 1.2e+1 1.2e+1 0e+0
    endloop
  endfacet
  facet normal 0e+0 0e+0 1e+0
    outer loop
      vertex 1.4e+1 1.4e+1 0e+0
      vertex -5.4e+1 5.4e+1 0e+0
      vertex 1.3e+1 1.3e+1 0e+0
    endloop
  endfacet
  facet normal 0e+0 0e+0 1e+0
    outer loop
      vertex 1.5e+1 1.5e+1 0e+0
      vertex -5.4e+1 5.4e+1 0e+0
      vertex 1.4e+1 1.4e+1 0e+0
    endloop
  endfacet
  facet normal 0e+0 0e+0 1e+0
    outer loop
      vertex 1.6e+1 1.6e+1 0e+0
      vertex -5.4e+1 5.4e+1 0e+0
      vertex 1.5e+1 1.5e+1 0e+0
    endloop
  endfacet
  facet normal 0e+0 0e+0 1e+0
    outer loop
      vertex 1.7e+1 1.7e+1 0e+0
      vertex -5.4e+1 5.4e+1 0e+0
      vertex 1.6e+1 1.6e+1 0e+0
    endloop
  endfacet
  facet normal 0e+0 0e+0 1e+0
    outer loop
      vertex 1.8e+1 1.8e+1 0e+0
      vertex -5.4e+1 5.4e+1 0e+0
      vertex 1.7e+1 1.7e+1 0e+0
    endloop
  endfacet
  facet normal 0e+0 0e+0 1e+0
    outer loop
      vertex 1.9e+1 1.9e+1 0e+0
      vertex -5.4e+1 5.4e+1 0e+0
      vertex 1.8e+1 1.8e+1 0e+0
    endloop
  endfacet
  facet normal 0e+0 0e+0 1e+0
    outer loop
      vertex 2e+1 2e+1 0e+0
      vertex -5.4e+1 5.4e+1 0e+0
      vertex 1.9e+1 1.9e+1 0e+0
    endloop
  endfacet
  facet normal 0e+0 0e+0 1e+0
    outer loop
      vertex 2.1e+1 2.1e+1 0e+0
      vertex -5.4e+1 5.4e+1 0e+0
      vertex 2e+1 2e+1 0e+0
    endloop
  endfacet
  facet normal 0e+0 0e+0 1e+0
    outer loop
      vertex 2.2e+1 2.2e+1 0e+0
      vertex -5.4e+1 5.4e+1 0e+0
      vertex 2.1e+1 2.1e+1 0e+0
    endloop
  endfacet
  facet normal 0e+0 0e+0 1e+0
    outer loop
      vertex 2.3e+1 2.3e+1 0e+0
      vertex -5.4e+1 5.4e+1 0e+0
      vertex 2.2e+1 2.2e+1 0e+0
    endloop
  endfacet
  facet normal 0e+0 0e+0 1e+0
    outer loop
      vertex 2.4e+1 2.4e+1 0e+0
      vertex -5.4e+1 5.4e+1 0e+0
      vertex 2.3e+1 2.3e+1 0e+0
    endloop
  endfacet
  facet normal 0e+0 0e+0 1e+0
    outer loop
      vertex 2.5e+1 2.5e+1 0e+0
      vertex -5.4e+1 5.4e+1 0e+0
      vertex 2.4e+1 2.4e+1 0e+0
    endloop
  endfacet
  facet normal 0e+0 0e+0 1e+0
    outer loop
      vertex 2.6e+1 2.6e+1 0e+0
      vertex -5.4e+1 5.4e+1 0e+0
      vertex 2.5e+1 2.5e+1 0e+0
    endloop
  endfacet
  facet normal 0e+0 0e+0 1e+0
    outer loop
      vertex 2.7e+1 2.7e+1 0e+0
      vertex -5.4e+1 5.4e+1 0e+0
      vertex 2.6e+1 2.6e+1 0e+0
    endloop
  endfacet
  facet normal 0e+0 0e+0 1e+0
    outer loop
      vertex 2.8e+1 2.8e+1 0e+0
      vertex -5.4e+1 5.4e+1 0e+0
      vertex 2.7e+1 2.7e+1 0e+0
    endloop
  endfacet
  facet normal 0e+0 0e+0 1e+0
    outer loop
      vertex 2.9e+1 2.9e+1 0e+0
      vertex -5.4e+1 5.4e+1 0e+0
      vertex 2.8e+1 2.8e+1 0e+0
    endloop
  endfacet
  facet normal 0e+0 0e+0 1e+0
    outer loop
      vertex 3e+1 3e+1 0e+0
      vertex -5.4e+1 5.4e+1 0e+0
      vertex 2.9e+1 2.9e+1 0e+0
    endloop
  endfacet
  facet normal 0e+0 0e+0 1e+0
    outer loop
      vertex 3.1e+1 3.1e+1 0e+0
      vertex -5.4e+1 5.4e+1 0e+0
      vertex 3e+1 3e+1 0e+0
    endloop
  endfacet
  facet normal 0e+0 0e+0 1e+0
    outer loop
      vertex 3.2e+1 3.2e+1 0e+0
      vertex -5.4e+1 5.4e+1 0e+0
      vertex 3.1e+1 3.1e+1 0e+0
    endloop
  endfacet
  facet normal 0e+0 0e+0 1e+0
    outer loop
      vertex 3.3e+1 3.3e+1 0e+0
      vertex -5.4e+1 5.4e+1 0e+0
      vertex 3.2e+1 3.2e+1 0e+0
    endloop
  endfacet
  facet normal 0e+0 0e+0 1e+0
    outer loop
      vertex 3.4e+1 3.4e+1 0e+0
      vertex -5.4e+1 5.4e+1 0e+0
      vertex 3.3e+1 3.3e+1 0e+0
    endloop
  endfacet
  facet normal 0e+0 0e+0 1e+0
    outer loop
      vertex 3.5e+1 3.5e+1 0e+0
      vertex -5.4e+1 5.4e+1 0e+0
      vertex 3.4e+1 3.4e+1 0e+0
    endloop
  endfacet
  facet normal 0e+0 0e+0 1e+0
    outer loop
      vertex 3.6e+1 3.6e+1 0e+0
      vertex -5.4e+1 5.4e+1 0e+0
      vertex 3.5e+1 3.5e+1 0e+0
    endloop
  endfacet
  facet normal 0e+0 0e+0 1e+0
    outer loop
      vertex 3.7e+1 3.7e+1 0e+0
      vertex -5.4e+1 5.4e+1 0e+0
      vertex 3.6e+1 3.6e+1 0e+0
    endloop
  endfacet
  facet normal 0e+0 0e+0 1e+0
    outer loop
      vertex 3.8e+1 3.8e+1 0e+0
      vertex -5.4e+1 5.4e+1 0e+0
      vertex 3.7e+1 3.7e+1 0e+0
    endloop
  endfacet
  facet normal 0e+0 0e+0 1e+0
    outer loop
      vertex 3.9e+1 3.9e+1 0e+0
      vertex -5.4e+1 5.4e+1 0e+0
      vertex 3.8e+1 3.8e+1 0e+0
    endloop
  endfacet
  facet normal 0e+0 0e+0 1e+0
    outer loop
      vertex 4e+1 4e+1 0e+0
      vertex -5.4e+1 5.4e+1 0e+0
      vertex 3.9e+1 3.9e+1 0e+0
    endloop
  endfacet
  facet normal 0e+0 0e+0 1e+0
    outer loop
      vertex 4.1e+1 4.1e+1 0e+0
      vertex -5.4e+1 5.4e+1 0e+0
      vertex 4e+1 4e+1 0e+0
    endloop
  endfacet
  facet normal 0e+0 0e+0 1e+0
    outer loop
      vertex 4.2e+1 4.2e+1 0e+0
      vertex -5.4e+1 5.4e+1 0e+0
      vertex 4.1e+1 4.1e+1 0e+0
    endloop
  endfacet
  facet normal 0e+0 0e+0 1e+0
    outer loop
      vertex 4.3e+1 4.3e+1 0e+0
      vertex -5.4e+1 5.4e+1 0e+0
      vertex 4.2e+1 4.2e+1 0e+0
    endloop
  endfacet
  facet normal 0e+0 0e+0 1e+0
    outer loop
      vertex 4.4e+1 4.4e+1 0e+0
      vertex -5.4e+1 5.4e+1 0e+0
      vertex 4.3e+1 4.3e+1 0e+0
    endloop
  endfacet
  facet normal 0e+0 0e+0 1e+0
    outer loop
      vertex 4.5e+1 4.5e+1 0e+0
      vertex -5.4e+1 5.4e+1 0e+0
      vertex 4.4e+1 4.4e+1 0e+0
    endloop
  endfacet
  facet normal 0e+0 0e+0 1e+0
    outer loop
      vertex 4.6e+1 4.6e+1 0e+0
      vertex -5.4e+1 5.4e+1 0e+0
      vertex 4.5e+1 4.5e+1 0e+0
    endloop
  endfacet
  facet normal 0e+0 0e+0 1e+0
    outer loop
      vertex 4.7e+1 4.7e+1 0e+0
      vertex -5.4e+1 5.4e+1 0e+0
      vertex 4.6e+1 4.6e+1 0e+0
    endloop
  endfacet
  facet normal 0e+0 0e+0 1e+0
    outer loop
      vertex 4.8e+1 4.8e+1 0e+0
      vertex -5.4e+1 5.4e+1 0e+0
      vertex 4.7e+1 4.7e+1 0e+0
    endloop
  endfacet
  facet normal 0e+0 0e+0 1e+0
    outer loop
      vertex 4.9e+1 4.9e+1 0e+0
      vertex -5.4e+1 5.4e+1 0e+0
      vertex 4.8e+1 4.8e+1 0e+0
    endloop
  endfacet
  facet normal 0e+0 0e+0 1e+0
    outer loop
      vertex 5e+1 5e+1 0e+0
      vertex -5.4e+1 5.4e+1 0e+0
      vertex 4.9e+1 4.9e+1 0e+0
    endloop
  endfacet
  facet normal 0e+0 0e+0 1e+0
    outer loop
      vertex 5.1e+1 5.1e+1 0e+0
      vertex -5.4e+1 5.4e+1 0e+0
      vertex 5e+1 5e+1 0e+0
    endloop
  endfacet
  facet normal 0e+0 0e+0 1e+0
    outer loop
      vertex 5.2e+1 5.2e+1 0e+0
      vertex -5.4e+1 5.4e+1 0e+0
      vertex 5.1e+1 5.1e+1 0e+0
    endloop
  endfacet
  facet normal 0e+0 0e+0 1e+0
    outer loop
      vertex 5.3e+1 5.3e+1 0e+0
      vertex -5.4e+1 5.4e+1 0e+0
      vertex 5.2e+1 5.2e+1 0e+0
    endloop
  endfacet
  facet normal 0e+0 0e+0 1e+0
    outer loop
      vertex 5.4e+1 5.4e+1 0e+0
      vertex -5.4e+1 5.4e+1 0e+0
      vertex 5.3e+1 5.3e+1 0e+0
    endloop
  endfacet
  facet normal 0e+0 0e+0 1e+0
    outer loop
      vertex 5.3e+1 5.3e+1 0e+0
      vertex 5.4e+1 -5.4e+1 0e+0
      vertex 5.4e+1 5.4e+1 0e+0
    endloop
  endfacet
  facet normal 0e+0 0e+0 1e+0
    outer loop
      vertex 5.3e+1 5.3e+1 0e+0
      vertex 5.3e+1 -5.3e+1 0e+0
      vertex 5.4e+1 -5.4e+1 0e+0
    endloop
  endfacet
  facet normal 0e+0 0e+0 1e+0
    outer loop
      vertex 5.2e+1 5.2e+1 0e+0
      vertex 5.3e+1 -5.3e+1 0e+0
      vertex 5.3e+1 5.3e+1 0e+0
    endloop
  endfacet
  facet normal 0e+0 0e+0 1e+0
    outer loop
      vertex 5.2e+1 5.2e+1 0e+0
      vertex 5.2e+1 -5.2e+1 0e+0
      vertex 5.3e+1 -5.3e+1 0e+0
    endloop
  endfacet
  facet normal 0e+0 0e+0 1e+0
    outer loop
      vertex 5.1e+1 5.1e+1 0e+0
      vertex 5.2e+1 -5.2e+1 0e+0
      vertex 5.2e+1 5.2e+1 0e+0
    endloop
  endfacet
  facet normal 0e+0 0e+0 1e+0
    outer loop
      vertex 5.1e+1 5.1e+1 0e+0
      vertex 5.1e+1 -5.1e+1 0e+0
      vertex 5.2e+1 -5.2e+1 0e+0
    endloop
  endfacet
  facet normal 0e+0 0e+0 1e+0
    outer loop
      vertex 5e+1 5e+1 0e+0
      vertex 5.1e+1 -5.1e+1 0e+0
      vertex 5.1e+1 5.1e+1 0e+0
    endloop
  endfacet
  facet normal 0e+0 0e+0 1e+0
    outer loop
      vertex 5e+1 5e+1 0e+0
      vertex 5e+1 -5e+1 0e+0
      vertex 5.1e+1 -5.1e+1 0e+0
    endloop
  endfacet
  facet normal 0e+0 0e+0 1e+0
    outer loop
      vertex 4.9e+1 4.9e+1 0e+0
      vertex 5e+1 -5e+1 0e+0
      vertex 5e+1 5e+1 0e+0
    endloop
  endfacet
  facet normal 0e+0 0e+0 1e+0
    outer loop
      vertex 4.9e+1 4.9e+1 0e+0
      vertex 4.9e+1 -4.9e+1 0e+0
      vertex 5e+1 -5e+1 0e+0
    endloop
  endfacet
  facet normal 0e+0 0e+0 1e+0
    outer loop
      vertex 4.8e+1 4.8e+1 0e+0
      vertex 4.9e+1 -4.9e+1 0e+0
      vertex 4.9e+1 4.9e+1 0e+0
    endloop
  endfacet
  facet normal 0e+0 0e+0 1e+0
    outer loop
      vertex 4.8e+1 4.8e+1 0e+0
      vertex 4.8e+1 -4.8e+1 0e+0
      vertex 4.9e+1 -4.9e+1 0e+0
    endloop
  endfacet
  facet normal 0e+0 0e+0 1e+0
    outer loop
      vertex 4.7e+1 4.7e+1 0e+0
      vertex 4.8e+1 -4.8e+1 0e+0
      vertex 4.8e+1 4.8e+1 0e+0
    endloop
  endfacet
  facet normal 0e+0 0e+0 1e+0
    outer loop
      vertex 4.7e+1 4.7e+1 0e+0
      vertex 4.7e+1 -4.7e+1 0e+0
      vertex 4.8e+1 -4.8e+1 0e+0
    endloop
  endfacet
  facet normal 0e+0 0e+0 1e+0
    outer loop
      vertex 4.6e+1 4.6e+1 0e+0
      vertex 4.7e+1 -4.7e+1 0e+0
      vertex 4.7e+1 4.7e+1 0e+0
    endloop
  endfacet
  facet normal 0e+0 0e+0 1e+0
    outer loop
      vertex 4.6e+1 4.6e+1 0e+0
      vertex 4.6e+1 -4.6e+1 0e+0
      vertex 4.7e+1 -4.7e+1 0e+0
    endloop
  endfacet
  facet normal 0e+0 0e+0 1e+0
    outer loop
      vertex 4.5e+1 4.5e+1 0e+0
      vertex 4.6e+1 -4.6e+1 0e+0
      vertex 4.6e+1 4.6e+1 0e+0
    endloop
  endfacet
  facet normal 0e+0 0e+0 1e+0
    outer loop
      vertex 4.5e+1 4.5e+1 0e+0
      vertex 4.5e+1 -4.5e+1 0e+0
      vertex 4.6e+1 -4.6e+1 0e+0
    endloop
  endfacet
  facet normal 0e+0 0e+0 1e+0
    outer loop
      vertex 4.4e+1 4.4e+1 0e+0
      vertex 4.5e+1 -4.5e+1 0e+0
      vertex 4.5e+1 4.5e+1 0e+0
    endloop
  endfacet
  facet normal 0e+0 0e+0 1e+0
    outer loop
      vertex 4.4e+1 4.4e+1 0e+0
      vertex 4.4e+1 -4.4e+1 0e+0
      vertex 4.5e+1 -4.5e+1 0e+0
    endloop
  endfacet
  facet normal 0e+0 0e+0 1e+0
    outer loop
      vertex 4.3e+1 4.3e+1 0e+0
      vertex 4.4e+1 -4.4e+1 0e+0
      vertex 4.4e+1 4.4e+1 0e+0
    endloop
  endfacet
  facet normal 0e+0 0e+0 1e+0
    outer loop
      vertex 4.3e+1 4.3e+1 0e+0
      vertex 4.3e+1 -4.3e+1 0e+0
      vertex 4.4e+1 -4.4e+1 0e+0
    endloop
  endfacet
  facet normal 0e+0 0e+0 1e+0
    outer loop
      vertex 4.2e+1 4.2e+1 0e+0
      vertex 4.3e+1 -4.3e+1 0e+0
      vertex 4.3e+1 4.3e+1 0e+0
    endloop
  endfacet
  facet normal 0e+0 0e+0 1e+0
    outer loop
      vertex 4.2e+1 4.2e+1 0e+0
      vertex 4.2e+1 -4.2e+1 0e+0
      vertex 4.3e+1 -4.3e+1 0e+0
    endloop
  endfacet
  facet normal 0e+0 0e+0 1e+0
    outer loop
      vertex 4.1e+1 4.1e+1 0e+0
      vertex 4.2e+1 -4.2e+1 0e+0
      vertex 4.2e+1 4.2e+1 0e+0
    endloop
  endfacet
  facet normal 0e+0 0e+0 1e+0
    outer loop
      vertex 4.1e+1 4.1e+1 0e+0
      vertex 4.1e+1 -4.1e+1 0e+0
      vertex 4.2e+1 -4.2e+1 0e+0
    endloop
  endfacet
  facet normal 0e+0 0e+0 1e+0
    outer loop
      vertex 4e+1 4e+1 0e+0
      vertex 4.1e+1 -4.1e+1 0e+0
      vertex 4.1e+1 4.1e+1 0e+0
    endloop
  endfacet
  facet normal 0e+0 0e+0 1e+0
    outer loop
      vertex 4e+1 4e+1 0e+0
      vertex 4e+1 -4e+1 0e+0
      vertex 4.1e+1 -4.1e+1 0e+0
    endloop
  endfacet
  facet normal 0e+0 0e+0 1e+0
    outer loop
      vertex 3.9e+1 3.9e+1 0e+0
      vertex 4e+1 -4e+1 0e+0
      vertex 4e+1 4e+1 0e+0
    endloop
  endfacet
  facet normal 0e+0 0e+0 1e+0
    outer loop
      vertex 3.9e+1 3.9e+1 0e+0
      vertex 3.9e+1 -3.9e+1 0e+0
      vertex 4e+1 -4e+1 0e+0
    endloop
  endfacet
  facet normal 0e+0 0e+0 1e+0
    outer loop
      vertex 3.8e+1 3.8e+1 0e+0
      vertex 3.9e+1 -3.9e+1 0e+0
      vertex 3.9e+1 3.9e+1 0e+0
    endloop
  endfacet
  facet normal 0e+0 0e+0 1e+0
    outer loop
      vertex 3.8e+1 3.8e+1 0e+0
      vertex 3.8e+1 -3.8e+1 0e+0
      vertex 3.9e+1 -3.9e+1 0e+0
    endloop
  endfacet
  facet normal 0e+0 0e+0 1e+0
    outer loop
      vertex 3.7e+1 3.7e+1 0e+0
      vertex 3.8e+1 -3.8e+1 0e+0
      vertex 3.8e+1 3.8e+1 0e+0
    endloop
  endfacet
  facet normal 0e+0 0e+0 1e+0
    outer loop
      vertex 3.7e+1 3.7e+1 0e+0
      vertex 3.7e+1 -3.7e+1 0e+0
      vertex 3.8e+1 -3.8e+1 0e+0
    endloop
  endfacet
  facet normal 0e+0 0e+0 1e+0
    outer loop
      vertex 3.6e+1 3.6e+1 0e+0
      vertex 3.7e+1 -3.7e+1 0e+0
      vertex 3.7e+1 3.7e+1 0e+0
    endloop
  endfacet
  facet normal 0e+0 0e+0 1e+0
    outer loop
      vertex 3.6e+1 3.6e+1 0e+0
      vertex 3.6e+1 -3.6e+1 0e+0
      vertex 3.7e+1 -3.7e+1 0e+0
    endloop
  endfacet
  facet normal 0e+0 0e+0 1e+0
    outer loop
      vertex 3.5e+1 3.5e+1 0e+0
      vertex 3.6e+1 -3.6e+1 0e+0
      vertex 3.6e+1 3.6e+1 0e+0
    endloop
  endfacet
  facet normal 0e+0 0e+0 1e+0
    outer loop
      vertex 3.5e+1 3.5e+1 0e+0
      vertex 3.5e+1 -3.5e+1 0e+0
      vertex 3.6e+1 -3.6e+1 0e+0
    endloop
  endfacet
  facet normal 0e+0 0e+0 1e+0
    outer loop
      vertex 3.4e+1 3.4e+1 0e+0
      vertex 3.5e+1 -3.5e+1 0e+0
      vertex 3.5e+1 3.5e+1 0e+0
    endloop
  endfacet
  facet normal 0e+0 0e+0 1e+0
    outer loop
      vertex 3.4e+1 3.4e+1 0e+0
      vertex 3.4e+1 -3.4e+1 0e+0
      vertex 3.5e+1 -3.5e+1 0e+0
    endloop
  endfacet
  facet normal 0e+0 0e+0 1e+0
    outer loop
      vertex 3.3e+1 3.3e+1 0e+0
      vertex 3.4e+1 -3.4e+1 0e+0
      vertex 3.4e+1 3.4e+1 0e+0
    endloop
  endfacet
  facet normal 0e+0 0e+0 1e+0
    outer loop
      vertex 3.3e+1 3.3e+1 0e+0
      vertex 3.3e+1 -3.3e+1 0e+0
      vertex 3.4e+1 -3.4e+1 0e+0
    endloop
  endfacet
  facet normal 0e+0 0e+0 1e+0
    outer loop
      vertex 3.2e+1 3.2e+1 0e+0
      vertex 3.3e+1 -3.3e+1 0e+0
      vertex 3.3e+1 3.3e+1 0e+0
    endloop
  endfacet
  facet normal 0e+0 0e+0 1e+0
    outer loop
      vertex 3.2e+1 3.2e+1 0e+0
      vertex 3.2e+1 -3.2e+1 0e+0
      vertex 3.3e+1 -3.3e+1 0e+0
    endloop
  endfacet
  facet normal 0e+0 0e+0 1e+0
    outer loop
      vertex 3.1e+1 3.1e+1 0e+0
      vertex 3.2e+1 -3.2e+1 0e+0
      vertex 3.2e+1 3.2e+1 0e+0
    endloop
  endfacet
  facet normal 0e+0 0e+0 1e+0
    outer loop
      vertex 3.1e+1 3.1e+1 0e+0
      vertex 3.1e+1 -3.1e+1 0e+0
      vertex 3.2e+1 -3.2e+1 0e+0
    endloop
  endfacet
  facet normal 0e+0 0e+0 1e+0
    outer loop
      vertex 3e+1 3e+1 0e+0
      vertex 3.1e+1 -3.1e+1 0e+0
      vertex 3.1e+1 3.1e+1 0e+0
    endloop
  endfacet
  facet normal 0e+0 0e+0 1e+0
    outer loop
      vertex 3e+1 3e+1 0e+0
      vertex 3e+1 -3e+1 0e+0
      vertex 3.1e+1 -3.1e+1 0e+0
    endloop
  endfacet
  facet normal 0e+0 0e+0 1e+0
    outer loop
      vertex 2.9e+1 2.9e+1 0e+0
      vertex 3e+1 -3e+1 0e+0
      vertex 3e+1 3e+1 0e+0
    endloop
  endfacet
  facet normal 0e+0 0e+0 1e+0
    outer loop
      vertex 2.9e+1 2.9e+1 0e+0
      vertex 2.9e+1 -2.9e+1 0e+0
      vertex 3e+1 -3e+1 0e+0
    endloop
  endfacet
  facet normal 0e+0 0e+0 1e+0
    outer loop
      vertex 2.8e+1 2.8e+1 0e+0
      vertex 2.9e+1 -2.9e+1 0e+0
      vertex 2.9e+1 2.9e+1 0e+0
    endloop
  endfacet
  facet normal 0e+0 0e+0 1e+0
    outer loop
      vertex 2.8e+1 2.8e+1 0e+0
      vertex 2.8e+1 -2.8e+1 0e+0
      vertex 2.9e+1 -2.9e+1 0e+0
    endloop
  endfacet
  facet normal 0e+0 0e+0 1e+0
    outer loop
      vertex 2.7e+1 2.7e+1 0e+0
      vertex 2.8e+1 -2.8e+1 0e+0
      vertex 2.8e+1 2.8e+1 0e+0
    endloop
  endfacet
  facet normal 0e+0 0e+0 1e+0
    outer loop
      vertex 2.7e+1 2.7e+1 0e+0
      vertex 2.7e+1 -2.7e+1 0e+0
      vertex 2.8e+1 -2.8e+1 0e+0
    endloop
  endfacet
  facet normal 0e+0 0e+0 1e+0
    outer loop
      vertex 2.6e+1 2.6e+1 0e+0
      vertex 2.7e+1 -2.7e+1 0e+0
      vertex 2.7e+1 2.7e+1 0e+0
    endloop
  endfacet
  facet normal 0e+0 0e+0 1e+0
    outer loop
      vertex 2.6e+1 2.6e+1 0e+0
      vertex 2.6e+1 -2.6e+1 0e+0
      vertex 2.7e+1 -2.7e+1 0e+0
    endloop
  endfacet
  facet normal 0e+0 0e+0 1e+0
    outer loop
      vertex 2.5e+1 2.5e+1 0e+0
      vertex 2.6e+1 -2.6e+1 0e+0
      vertex 2.6e+1 2.6e+1 0e+0
    endloop
  endfacet
  facet normal 0e+0 0e+0 1e+0
    outer loop
      vertex 2.5e+1 2.5e+1 0e+0
      vertex 2.5e+1 -2.5e+1 0e+0
      vertex 2.6e+1 -2.6e+1 0e+0
    endloop
  endfacet
  facet normal 0e+0 0e+0 1e+0
    outer loop
      vertex 2.4e+1 2.4e+1 0e+0
      vertex 2.5e+1 -2.5e+1 0e+0
      vertex 2.5e+1 2.5e+1 0e+0
    endloop
  endfacet
  facet normal 0e+0 0e+0 1e+0
    outer loop
      vertex 2.4e+1 2.4e+1 0e+0
      vertex 2.4e+1 -2.4e+1 0e+0
      vertex 2.5e+1 -2.5e+1 0e+0
    endloop
  endfacet
  facet normal 0e+0 0e+0 1e+0
    outer loop
      vertex 2.3e+1 2.3e+1 0e+0
      vertex 2.4e+1 -2.4e+1 0e+0
      vertex 2.4e+1 2.4e+1 0e+0
    endloop
  endfacet
  facet normal 0e+0 0e+0 1e+0
    outer loop
      vertex 2.3e+1 2.3e+1 0e+0
      vertex 2.3e+1 -2.3e+1 0e+0
      vertex 2.4e+1 -2.4e+1 0e+0
    endloop
  endfacet
  facet normal 0e+0 0e+0 1e+0
    outer loop
      vertex 2.2e+1 2.2e+1 0e+0
      vertex 2.3e+1 -2.3e+1 0e+0
      vertex 2.3e+1 2.3e+1 0e+0
    endloop
  endfacet
  facet normal 0e+0 0e+0 1e+0
    outer loop
      vertex 2.2e+1 2.2e+1 0e+0
      vertex 2.2e+1 -2.2e+1 0e+0
      vertex 2.3e+1 -2.3e+1 0e+0
    endloop
  endfacet
  facet normal 0e+0 0e+0 1e+0
    outer loop
      vertex 2.1e+1 2.1e+1 0e+0
      vertex 2.2e+1 -2.2e+1 0e+0
      vertex 2.2e+1 2.2e+1 0e+0
    endloop
  endfacet
  facet normal 0e+0 0e+0 1e+0
    outer loop
      vertex 2.1e+1 2.1e+1 0e+0
      vertex 2.1e+1 -2.1e+1 0e+0
      vertex 2.2e+1 -2.2e+1 0e+0
    endloop
  endfacet
  facet normal 0e+0 0e+0 1e+0
    outer loop
      vertex 2e+1 2e+1 0e+0
      vertex 2.1e+1 -2.1e+1 0e+0
      vertex 2.1e+1 2.1e+1 0e+0
    endloop
  endfacet
  facet normal 0e+0 0e+0 1e+0
    outer loop
      vertex 2e+1 2e+1 0e+0
      vertex 2e+1 -2e+1 0e+0
      vertex 2.1e+1 -2.1e+1 0e+0
    endloop
  endfacet
  facet normal 0e+0 0e+0 1e+0
    outer loop
      vertex 1.9e+1 1.9e+1 0e+0
      vertex 2e+1 -2e+1 0e+0
      vertex 2e+1 2e+1 0e+0
    endloop
  endfacet
  facet normal 0e+0 0e+0 1e+0
    outer loop
      vertex 1.9e+1 1.9e+1 0e+0
      vertex 1.9e+1 -1.9e+1 0e+0
      vertex 2e+1 -2e+1 0e+0
    endloop
  endfacet
  facet normal 0e+0 0e+0 1e+0
    outer loop
      vertex 1.8e+1 1.8e+1 0e+0
      vertex 1.9e+1 -1.9e+1 0e+0
      vertex 1.9e+1 1.9e+1 0e+0
    endloop
  endfacet
  facet normal 0e+0 0e+0 1e+0
    outer loop
      vertex 1.8e+1 1.8e+1 0e+0
      vertex 1.8e+1 -1.8e+1 0e+0
      vertex 1.9e+1 -1.9e+1 0e+0
    endloop
  endfacet
  facet normal 0e+0 0e+0 1e+0
    outer loop
      vertex 1.7e+1 1.7e+1 0e+0
      vertex 1.8e+1 -1.8e+1 0e+0
      vertex 1.8e+1 1.8e+1 0e+0
    endloop
  endfacet
  facet normal 0e+0 0e+0 1e+0
    outer loop
      vertex 1.7e+1 1.7e+1 0e+0
      vertex 1.7e+1 -1.7e+1 0e+0
      vertex 1.8e+1 -1.8e+1 0e+0
    endloop
  endfacet
  facet normal 0e+0 0e+0 1e+0
    outer loop
      vertex 1.6e+1 1.6e+1 0e+0
      vertex 1.7e+1 -1.7e+1 0e+0
      vertex 1.7e+1 1.7e+1 0e+0
    endloop
  endfacet
  facet normal 0e+0 0e+0 1e+0
    outer loop
      vertex 1.6e+1 1.6e+1 0e+0
      vertex 1.6e+1 -1.6e+1 0e+0
      vertex 1.7e+1 -1.7e+1 0e+0
    endloop
  endfacet
  facet normal 0e+0 0e+0 1e+0
    outer loop
      vertex 1.5e+1 1.5e+1 0e+0
      vertex 1.6e+1 -1.6e+1 0e+0
      vertex 1.6e+1 1.6e+1 0e+0
    endloop
  endfacet
  facet normal 0e+0 0e+0 1e+0
    outer loop
      vertex 1.5e+1 1.5e+1 0e+0
      vertex 1.5e+1 -1.5e+1 0e+0
      vertex 1.6e+1 -1.6e+1 0e+0
    endloop
  endfacet
  facet normal 0e+0 0e+0 1e+0
    outer loop
      vertex 1.4e+1 1.4e+1 0e+0
      vertex 1.5e+1 -1.5e+1 0e+0
      vertex 1.5e+1 1.5e+1 0e+0
    endloop
  endfacet
  facet normal 0e+0 0e+0 1e+0
    outer loop
      vertex 1.4e+1 1.4e+1 0e+0
      vertex 1.4e+1 -1.4e+1 0e+0
      vertex 1.5e+1 -1.5e+1 0e+0
    endloop
  endfacet
  facet normal 0e+0 0e+0 1e+0
    outer loop
      vertex 1.3e+1 1.3e+1 0e+0
      vertex 1.4e+1 -1.4e+1 0e+0
      vertex 1.4e+1 1.4e+1 0e+0
    endloop
  endfacet
  facet normal 0e+0 0e+0 1e+0
    outer loop
      vertex 1.3e+1 1.3e+1 0e+0
      vertex 1.3e+1 -1.3e+1 0e+0
      vertex 1.4e+1 -1.4e+1 0e+0
    endloop
  endfacet
  facet normal 0e+0 0e+0 1e+0
    outer loop
      vertex 1.2e+1 1.2e+1 0e+0
      vertex 1.3e+1 -1.3e+1 0e+0
      vertex 1.3e+1 1.3e+1 0e+0
    endloop
  endfacet
  facet normal 0e+0 0e+0 1e+0
    outer loop
      vertex 1.2e+1 1.2e+1 0e+0
      vertex 1.2e+1 -1.2e+1 0e+0
      vertex 1.3e+1 -1.3e+1 0e+0
    endloop
  endfacet
  facet normal 0e+0 0e+0 1e+0
    outer loop
      vertex 1.1e+1 1.1e+1 0e+0
      vertex 1.2e+1 -1.2e+1 0e+0
      vertex 1.2e+1 1.2e+1 0e+0
    endloop
  endfacet
  facet normal 0e+0 0e+0 1e+0
    outer loop
      vertex 1.1e+1 1.1e+1 0e+0
      vertex 1.1e+1 -1.1e+1 0e+0
      vertex 1.2e+1 -1.2e+1 0e+0
    endloop
  endfacet
  facet normal 0e+0 0e+0 1e+0
    outer loop
      vertex 1e+1 1e+1 0e+0
      vertex 1.1e+1 -1.1e+1 0e+0
      vertex 1.1e+1 1.1e+1 0e+0
    endloop
  endfacet
  facet normal 0e+0 0e+0 1e+0
    outer loop
      vertex 1e+1 1e+1 0e+0
      vertex 1e+1 -1e+1 0e+0
      vertex 1.1e+1 -1.1e+1 0e+0
    endloop
  endfacet
  facet normal 0e+0 0e+0 1e+0
    outer loop
      vertex 9e+0 9e+0 0e+0
      vertex 1e+1 -1e+1 0e+0
      vertex 1e+1 1e+1 0e+0
    endloop
  endfacet
  facet normal 0e+0 0e+0 1e+0
    outer loop
      vertex 9e+0 9e+0 0e+0
      vertex 9e+0 -9e+0 0e+0
      vertex 1e+1 -1e+1 0e+0
    endloop
  endfacet
  facet normal 0e+0 0e+0 1e+0
    outer loop
      vertex 8e+0 8e+0 0e+0
      vertex 9e+0 -9e+0 0e+0
      vertex 9e+0 9e+0 0e+0
    endloop
  endfacet
  facet normal 0e+0 0e+0 1e+0
    outer loop
      vertex 8e+0 8e+0 0e+0
      vertex 8e+0 -8e+0 0e+0
      vertex 9e+0 -9e+0 0e+0
    endloop
  endfacet
  facet normal 0e+0 0e+0 1e+0
    outer loop
      vertex 7e+0 7e+0 0e+0
      vertex 8e+0 -8e+0 0e+0
      vertex 8e+0 8e+0 0e+0
    endloop
  endfacet
  facet normal 0e+0 0e+0 1e+0
    outer loop
      vertex 7e+0 7e+0 0e+0
      vertex 7e+0 -7e+0 0e+0
      vertex 8e+0 -8e+0 0e+0
    endloop
  endfacet
  facet normal 0e+0 0e+0 1e+0
    outer loop
      vertex 6e+0 6e+0 0e+0
      vertex 7e+0 -7e+0 0e+0
      vertex 7e+0 7e+0 0e+0
    endloop
  endfacet
  facet normal 0e+0 0e+0 1e+0
    outer loop
      vertex 6e+0 6e+0 0e+0
      vertex 6e+0 -6e+0 0e+0
      vertex 7e+0 -7e+0 0e+0
    endloop
  endfacet
  facet normal 0e+0 0e+0 1e+0
    outer loop
      vertex 5e+0 5e+0 0e+0
      vertex 6e+0 -6e+0 0e+0
      vertex 6e+0 6e+0 0e+0
    endloop
  endfacet
  facet normal 0e+0 0e+0 1e+0
    outer loop
      vertex 5e+0 5e+0 0e+0
      vertex 5e+0 -5e+0 0e+0
      vertex 6e+0 -6e+0 0e+0
    endloop
  endfacet
  facet normal 0e+0 0e+0 1e+0
    outer loop
      vertex -5e+0 5e+0 0e+0
      vertex 5e+0 -5e+0 0e+0
      vertex 5e+0 5e+0 0e+0
    endloop
  endfacet
  facet normal 0e+0 0e+0 1e+0
    outer loop
      vertex -5e+0 5e+0 0e+0
      vertex -5e+0 -5e+0 0e+0
      vertex 5e+0 -5e+0 0e+0
    endloop
  endfacet
  facet normal 0e+0 0e+0 1e+0
    outer loop
      vertex -6e+0 -6e+0 0e+0
      vertex -5e+0 -5e+0 0e+0
      vertex -5e+0 5e+0 0e+0
    endloop
  endfacet
  facet normal 0e+0 0e+0 1e+0
    outer loop
      vertex -5e+0 -5e+0 0e+0
      vertex -6e+0 -6e+0 0e+0
      vertex 6e+0 -6e+0 0e+0
    endloop
  endfacet
  facet normal 0e+0 0e+0 1e+0
    outer loop
      vertex 5e+0 -5e+0 0e+0
      vertex -5e+0 -5e+0 0e+0
      vertex 6e+0 -6e+0 0e+0
    endloop
  endfacet
  facet normal 0e+0 0e+0 1e+0
    outer loop
      vertex 6e+0 -6e+0 0e+0
      vertex -6e+0 -6e+0 0e+0
      vertex 7e+0 -7e+0 0e+0
    endloop
  endfacet
  facet normal 0e+0 0e+0 1e+0
    outer loop
      vertex -6e+0 -6e+0 0e+0
      vertex -7e+0 -7e+0 0e+0
      vertex 7e+0 -7e+0 0e+0
    endloop
  endfacet
  facet normal 0e+0 0e+0 1e+0
    outer loop
      vertex -7e+0 -7e+0 0e+0
      vertex -6e+0 -6e+0 0e+0
      vertex -6e+0 6e+0 0e+0
    endloop
  endfacet
  facet normal 0e+0 0e+0 1e+0
    outer loop
      vertex -7e+0 7e+0 0e+0
      vertex -7e+0 -7e+0 0e+0
      vertex -6e+0 6e+0 0e+0
    endloop
  endfacet
  facet normal 0e+0 0e+0 1e+0
    outer loop
      vertex -8e+0 -8e+0 0e+0
      vertex -7e+0 -7e+0 0e+0
      vertex -7e+0 7e+0 0e+0
    endloop
  endfacet
  facet normal 0e+0 0e+0 1e+0
    outer loop
      vertex -7e+0 -7e+0 0e+0
      vertex -8e+0 -8e+0 0e+0
      vertex 8e+0 -8e+0 0e+0
    endloop
  endfacet
  facet normal 0e+0 0e+0 1e+0
    outer loop
      vertex 7e+0 -7e+0 0e+0
      vertex -7e+0 -7e+0 0e+0
      vertex 8e+0 -8e+0 0e+0
    endloop
  endfacet
  facet normal 0e+0 0e+0 1e+0
    outer loop
      vertex 8e+0 -8e+0 0e+0
      vertex -8e+0 -8e+0 0e+0
      vertex 9e+0 -9e+0 0e+0
    endloop
  endfacet
  facet normal 0e+0 0e+0 1e+0
    outer loop
      vertex -8e+0 -8e+0 0e+0
      vertex -9e+0 -9e+0 0e+0
      vertex 9e+0 -9e+0 0e+0
    endloop
  endfacet
  facet normal 0e+0 0e+0 1e+0
    outer loop
      vertex -9e+0 -9e+0 0e+0
      vertex -8e+0 -8e+0 0e+0
      vertex -8e+0 8e+0 0e+0
    endloop
  endfacet
  facet normal 0e+0 0e+0 1e+0
    outer loop
      vertex -9e+0 9e+0 0e+0
      vertex -9e+0 -9e+0 0e+0
      vertex -8e+0 8e+0 0e+0
    endloop
  endfacet
  facet normal 0e+0 0e+0 1e+0
    outer loop
      vertex -1e+1 -1e+1 0e+0
      vertex -9e+0 -9e+0 0e+0
      vertex -9e+0 9e+0 0e+0
    endloop
  endfacet
  facet normal 0e+0 0e+0 1e+0
    outer loop
      vertex -9e+0 -9e+0 0e+0
      vertex -1e+1 -1e+1 0e+0
      vertex 1e+1 -1e+1 0e+0
    endloop
  endfacet
  facet normal 0e+0 0e+0 1e+0
    outer loop
      vertex 9e+0 -9e+0 0e+0
      vertex -9e+0 -9e+0 0e+0
      vertex 1e+1 -1e+1 0e+0
    endloop
  endfacet
  facet normal 0e+0 0e+0 1e+0
    outer loop
      vertex 1e+1 -1e+1 0e+0
      vertex -1e+1 -1e+1 0e+0
      vertex 1.1e+1 -1.1e+1 0e+0
    endloop
  endfacet
  facet normal 0e+0 0e+0 1e+0
    outer loop
      vertex -1e+1 -1e+1 0e+0
      vertex -1.1e+1 -1.1e+1 0e+0
      vertex 1.1e+1 -1.1e+1 0e+0
    endloop
  endfacet
  facet normal 0e+0 0e+0 1e+0
    outer loop
      vertex -1.1e+1 -1.1e+1 0e+0
      vertex -1e+1 -1e+1 0e+0
      vertex -1e+1 1e+1 0e+0
    endloop
  endfacet
  facet normal 0e+0 0e+0 1e+0
    outer loop
      vertex -1.1e+1 1.1e+1 0e+0
      vertex -1.1e+1 -1.1e+1 0e+0
      vertex -1e+1 1e+1 0e+0
    endloop
  endfacet
  facet normal 0e+0 0e+0 1e+0
    outer loop
      vertex -1.2e+1 -1.2e+1 0e+0
      vertex -1.1e+1 -1.1e+1 0e+0
      vertex -1.1e+1 1.1e+1 0e+0
    endloop
  endfacet
  facet normal 0e+0 0e+0 1e+0
    outer loop
      vertex -1.1e+1 -1.1e+1 0e+0
      vertex -1.2e+1 -1.2e+1 0e+0
      vertex 1.2e+1 -1.2e+1 0e+0
    endloop
  endfacet
  facet normal 0e+0 0e+0 1e+0
    outer loop
      vertex 1.1e+1 -1.1e+1 0e+0
      vertex -1.1e+1 -1.1e+1 0e+0
      vertex 1.2e+1 -1.2e+1 0e+0
    endloop
  endfacet
  facet normal 0e+0 0e+0 1e+0
    outer loop
      vertex 1.2e+1 -1.2e+1 0e+0
      vertex -1.2e+1 -1.2e+1 0e+0
      vertex 1.3e+1 -1.3e+1 0e+0
    endloop
  endfacet
  facet normal 0e+0 0e+0 1e+0
    outer loop
      vertex -1.2e+1 -1.2e+1 0e+0
      vertex -1.3e+1 -1.3e+1 0e+0
      vertex 1.3e+1 -1.3e+1 0e+0
    endloop
  endfacet
  facet normal 0e+0 0e+0 1e+0
    outer loop
      vertex -1.3e+1 -1.3e+1 0e+0
      vertex -1.2e+1 -1.2e+1 0e+0
      vertex -1.2e+1 1.2e+1 0e+0
    endloop
  endfacet
  facet normal 0e+0 0e+0 1e+0
    outer loop
      vertex -1.3e+1 1.3e+1 0e+0
      vertex -1.3e+1 -1.3e+1 0e+0
      vertex -1.2e+1 1.2e+1 0e+0
    endloop
  endfacet
  facet normal 0e+0 0e+0 1e+0
    outer loop
      vertex -1.4e+1 -1.4e+1 0e+0
      vertex -1.3e+1 -1.3e+1 0e+0
      vertex -1.3e+1 1.3e+1 0e+0
    endloop
  endfacet
  facet normal 0e+0 0e+0 1e+0
    outer loop
      vertex -1.3e+1 -1.3e+1 0e+0
      vertex -1.4e+1 -1.4e+1 0e+0
      vertex 1.4e+1 -1.4e+1 0e+0
    endloop
  endfacet
  facet normal 0e+0 0e+0 1e+0
    outer loop
      vertex 1.3e+1 -1.3e+1 0e+0
      vertex -1.3e+1 -1.3e+1 0e+0
      vertex 1.4e+1 -1.4e+1 0e+0
    endloop
  endfacet
  facet normal 0e+0 0e+0 1e+0
    outer loop
      vertex 1.4e+1 -1.4e+1 0e+0
      vertex -1.4e+1 -1.4e+1 0e+0
      vertex 1.5e+1 -1.5e+1 0e+0
    endloop
  endfacet
  facet normal 0e+0 0e+0 1e+0
    outer loop
      vertex -1.4e+1 -1.4e+1 0e+0
      vertex -1.5e+1 -1.5e+1 0e+0
      vertex 1.5e+1 -1.5e+1 0e+0
    endloop
  endfacet
  facet normal 0e+0 0e+0 1e+0
    outer loop
      vertex -1.5e+1 -1.5e+1 0e+0
      vertex -1.4e+1 -1.4e+1 0e+0
      vertex -1.4e+1 1.4e+1 0e+0
    endloop
  endfacet
  facet normal 0e+0 0e+0 1e+0
    outer loop
      vertex -1.5e+1 1.5e+1 0e+0
      vertex -1.5e+1 -1.5e+1 0e+0
      vertex -1.4e+1 1.4e+1 0e+0
    endloop
  endfacet
  facet normal 0e+0 0e+0 1e+0
    outer loop
      vertex -1.6e+1 -1.6e+1 0e+0
      vertex -1.5e+1 -1.5e+1 0e+0
      vertex -1.5e+1 1.5e+1 0e+0
    endloop
  endfacet
  facet normal 0e+0 0e+0 1e+0
    outer loop
      vertex -1.5e+1 -1.5e+1 0e+0
      vertex -1.6e+1 -1.6e+1 0e+0
      vertex 1.6e+1 -1.6e+1 0e+0
    endloop
  endfacet
  facet normal 0e+0 0e+0 1e+0
    outer loop
      vertex 1.5e+1 -1.5e+1 0e+0
      vertex -1.5e+1 -1.5e+1 0e+0
      vertex 1.6e+1 -1.6e+1 0e+0
    endloop
  endfacet
  facet normal 0e+0 0e+0 1e+0
    outer loop
      vertex 1.6e+1 -1.6e+1 0e+0
      vertex -1.6e+1 -1.6e+1 0e+0
      vertex 1.7e+1 -1.7e+1 0e+0
    endloop
  endfacet
  facet normal 0e+0 0e+0 1e+0
    outer loop
      vertex -1.6e+1 -1.6e+1 0e+0
      vertex -1.7e+1 -1.7e+1 0e+0
      vertex 1.7e+1 -1.7e+1 0e+0
    endloop
  endfacet
  facet normal 0e+0 0e+0 1e+0
    outer loop
      vertex -1.7e+1 -1.7e+1 0e+0
      vertex -1.6e+1 -1.6e+1 0e+0
      vertex -1.6e+1 1.6e+1 0e+0
    endloop
  endfacet
  facet normal 0e+0 0e+0 1e+0
    outer loop
      vertex -1.7e+1 1.7e+1 0e+0
      vertex -1.7e+1 -1.7e+1 0e+0
      vertex -1.6e+1 1.6e+1 0e+0
    endloop
  endfacet
  facet normal 0e+0 0e+0 1e+0
    outer loop
      vertex -1.8e+1 -1.8e+1 0e+0
      vertex -1.7e+1 -1.7e+1 0e+0
      vertex -1.7e+1 1.7e+1 0e+0
    endloop
  endfacet
  facet normal 0e+0 0e+0 1e+0
    outer loop
      vertex -1.7e+1 -1.7e+1 0e+0
      vertex -1.8e+1 -1.8e+1 0e+0
      vertex 1.8e+1 -1.8e+1 0e+0
    endloop
  endfacet
  facet normal 0e+0 0e+0 1e+0
    outer loop
      vertex 1.7e+1 -1.7e+1 0e+0
      vertex -1.7e+1 -1.7e+1 0e+0
      vertex 1.8e+1 -1.8e+1 0e+0
    endloop
  endfacet
  facet normal 0e+0 0e+0 1e+0
    outer loop
      vertex 1.8e+1 -1.8e+1 0e+0
      vertex -1.8e+1 -1.8e+1 0e+0
      vertex 1.9e+1 -1.9e+1 0e+0
    endloop
  endfacet
  facet normal 0e+0 0e+0 1e+0
    outer loop
      vertex -1.8e+1 -1.8e+1 0e+0
      vertex -1.9e+1 -1.9e+1 0e+0
      vertex 1.9e+1 -1.9e+1 0e+0
    endloop
  endfacet
  facet normal 0e+0 0e+0 1e+0
    outer loop
      vertex -1.9e+1 -1.9e+1 0e+0
      vertex -1.8e+1 -1.8e+1 0e+0
      vertex -1.8e+1 1.8e+1 0e+0
    endloop
  endfacet
  facet normal 0e+0 0e+0 1e+0
    outer loop
      vertex -1.9e+1 1.9e+1 0e+0
      vertex -1.9e+1 -1.9e+1 0e+0
      vertex -1.8e+1 1.8e+1 0e+0
    endloop
  endfacet
  facet normal 0e+0 0e+0 1e+0
    outer loop
      vertex -2e+1 -2e+1 0e+0
      vertex -1.9e+1 -1.9e+1 0e+0
      vertex -1.9e+1 1.9e+1 0e+0
    endloop
  endfacet
  facet normal 0e+0 0e+0 1e+0
    outer loop
      vertex -1.9e+1 -1.9e+1 0e+0
      vertex -2e+1 -2e+1 0e+0
      vertex 2e+1 -2e+1 0e+0
    endloop
  endfacet
  facet normal 0e+0 0e+0 1e+0
    outer loop
      vertex 1.9e+1 -1.9e+1 0e+0
      vertex -1.9e+1 -1.9e+1 0e+0
      vertex 2e+1 -2e+1 0e+0
    endloop
  endfacet
  facet normal 0e+0 0e+0 1e+0
    outer loop
      vertex 2e+1 -2e+1 0e+0
      vertex -2e+1 -2e+1 0e+0
      vertex 2.1e+1 -2.1e+1 0e+0
    endloop
  endfacet
  facet normal 0e+0 0e+0 1e+0
    outer loop
      vertex -2e+1 -2e+1 0e+0
      vertex -2.1e+1 -2.1e+1 0e+0
      vertex 2.1e+1 -2.1e+1 0e+0
    endloop
  endfacet
  facet normal 0e+0 0e+0 1e+0
    outer loop
      vertex -2.1e+1 -2.1e+1 0e+0
      vertex -2e+1 -2e+1 0e+0
      vertex -2e+1 2e+1 0e+0
    endloop
  endfacet
  facet normal 0e+0 0e+0 1e+0
    outer loop
      vertex -2.1e+1 2.1e+1 0e+0
      vertex -2.1e+1 -2.1e+1 0e+0
      vertex -2e+1 2e+1 0e+0
    endloop
  endfacet
  facet normal 0e+0 0e+0 1e+0
    outer loop
      vertex -2.2e+1 -2.2e+1 0e+0
      vertex -2.1e+1 -2.1e+1 0e+0
      vertex -2.1e+1 2.1e+1 0e+0
    endloop
  endfacet
  facet normal 0e+0 0e+0 1e+0
    outer loop
      vertex -2.1e+1 -2.1e+1 0e+0
      vertex -2.2e+1 -2.2e+1 0e+0
      vertex 2.2e+1 -2.2e+1 0e+0
    endloop
  endfacet
  facet normal 0e+0 0e+0 1e+0
    outer loop
      vertex 2.1e+1 -2.1e+1 0e+0
      vertex -2.1e+1 -2.1e+1 0e+0
      vertex 2.2e+1 -2.2e+1 0e+0
    endloop
  endfacet
  facet normal 0e+0 0e+0 1e+0
    outer loop
      vertex 2.2e+1 -2.2e+1 0e+0
      vertex -2.2e+1 -2.2e+1 0e+0
      vertex 2.3e+1 -2.3e+1 0e+0
    endloop
  endfacet
  facet normal 0e+0 0e+0 1e+0
    outer loop
      vertex -2.2e+1 -2.2e+1 0e+0
      vertex -2.3e+1 -2.3e+1 0e+0
      vertex 2.3e+1 -2.3e+1 0e+0
    endloop
  endfacet
  facet normal 0e+0 0e+0 1e+0
    outer loop
      vertex -2.3e+1 -2.3e+1 0e+0
      vertex -2.2e+1 -2.2e+1 0e+0
      vertex -2.2e+1 2.2e+1 0e+0
    endloop
  endfacet
  facet normal 0e+0 0e+0 1e+0
    outer loop
      vertex -2.3e+1 2.3e+1 0e+0
      vertex -2.3e+1 -2.3e+1 0e+0
      vertex -2.2e+1 2.2e+1 0e+0
    endloop
  endfacet
  facet normal 0e+0 0e+0 1e+0
    outer loop
      vertex -2.4e+1 -2.4e+1 0e+0
      vertex -2.3e+1 -2.3e+1 0e+0
      vertex -2.3e+1 2.3e+1 0e+0
    endloop
  endfacet
  facet normal 0e+0 0e+0 1e+0
    outer loop
      vertex -2.3e+1 -2.3e+1 0e+0
      vertex -2.4e+1 -2.4e+1 0e+0
      vertex 2.4e+1 -2.4e+1 0e+0
    endloop
  endfacet
  facet normal 0e+0 0e+0 1e+0
    outer loop
      vertex 2.3e+1 -2.3e+1 0e+0
      vertex -2.3e+1 -2.3e+1 0e+0
      vertex 2.4e+1 -2.4e+1 0e+0
    endloop
  endfacet
  facet normal 0e+0 0e+0 1e+0
    outer loop
      vertex 2.4e+1 -2.4e+1 0e+0
      vertex -2.4e+1 -2.4e+1 0e+0
      vertex 2.5e+1 -2.5e+1 0e+0
    endloop
  endfacet
  facet normal 0e+0 0e+0 1e+0
    outer loop
      vertex -2.4e+1 -2.4e+1 0e+0
      vertex -2.5e+1 -2.5e+1 0e+0
      vertex 2.5e+1 -2.5e+1 0e+0
    endloop
  endfacet
  facet normal 0e+0 0e+0 1e+0
    outer loop
      vertex -2.5e+1 -2.5e+1 0e+0
      vertex -2.4e+1 -2.4e+1 0e+0
      vertex -2.4e+1 2.4e+1 0e+0
    endloop
  endfacet
  facet normal 0e+0 0e+0 1e+0
    outer loop
      vertex -2.5e+1 2.5e+1 0e+0
      vertex -2.5e+1 -2.5e+1 0e+0
      vertex -2.4e+1 2.4e+1 0e+0
    endloop
  endfacet
  facet normal 0e+0 0e+0 1e+0
    outer loop
      vertex -2.6e+1 -2.6e+1 0e+0
      vertex -2.5e+1 -2.5e+1 0e+0
      vertex -2.5e+1 2.5e+1 0e+0
    endloop
  endfacet
  facet normal 0e+0 0e+0 1e+0
    outer loop
      vertex -2.5e+1 -2.5e+1 0e+0
      vertex -2.6e+1 -2.6e+1 0e+0
      vertex 2.6e+1 -2.6e+1 0e+0
    endloop
  endfacet
  facet normal 0e+0 0e+0 1e+0
    outer loop
      vertex 2.5e+1 -2.5e+1 0e+0
      vertex -2.5e+1 -2.5e+1 0e+0
      vertex 2.6e+1 -2.6e+1 0e+0
    endloop
  endfacet
  facet normal 0e+0 0e+0 1e+0
    outer loop
      vertex 2.6e+1 -2.6e+1 0e+0
      vertex -2.6e+1 -2.6e+1 0e+0
      vertex 2.7e+1 -2.7e+1 0e+0
    endloop
  endfacet
  facet normal 0e+0 0e+0 1e+0
    outer loop
      vertex -2.6e+1 -2.6e+1 0e+0
      vertex -2.7e+1 -2.7e+1 0e+0
      vertex 2.7e+1 -2.7e+1 0e+0
    endloop
  endfacet
  facet normal 0e+0 0e+0 1e+0
    outer loop
      vertex -2.7e+1 -2.7e+1 0e+0
      vertex -2.6e+1 -2.6e+1 0e+0
      vertex -2.6e+1 2.6e+1 0e+0
    endloop
  endfacet
  facet normal 0e+0 0e+0 1e+0
    outer loop
      vertex -2.7e+1 2.7e+1 0e+0
      vertex -2.7e+1 -2.7e+1 0e+0
      vertex -2.6e+1 2.6e+1 0e+0
    endloop
  endfacet
  facet normal 0e+0 0e+0 1e+0
    outer loop
      vertex -2.8e+1 -2.8e+1 0e+0
      vertex -2.7e+1 -2.7e+1 0e+0
      vertex -2.7e+1 2.7e+1 0e+0
    endloop
  endfacet
  facet normal 0e+0 0e+0 1e+0
    outer loop
      vertex -2.7e+1 -2.7e+1 0e+0
      vertex -2.8e+1 -2.8e+1 0e+0
      vertex 2.8e+1 -2.8e+1 0e+0
    endloop
  endfacet
  facet normal 0e+0 0e+0 1e+0
    outer loop
      vertex 2.7e+1 -2.7e+1 0e+0
      vertex -2.7e+1 -2.7e+1 0e+0
      vertex 2.8e+1 -2.8e+1 0e+0
    endloop
  endfacet
  facet normal 0e+0 0e+0 1e+0
    outer loop
      vertex 2.8e+1 -2.8e+1 0e+0
      vertex -2.8e+1 -2.8e+1 0e+0
      vertex 2.9e+1 -2.9e+1 0e+0
    endloop
  endfacet
  facet normal 0e+0 0e+0 1e+0
    outer loop
      vertex -2.8e+1 -2.8e+1 0e+0
      vertex -2.9e+1 -2.9e+1 0e+0
      vertex 2.9e+1 -2.9e+1 0e+0
    endloop
  endfacet
  facet normal 0e+0 0e+0 1e+0
    outer loop
      vertex -2.9e+1 -2.9e+1 0e+0
      vertex -2.8e+1 -2.8e+1 0e+0
      vertex -2.8e+1 2.8e+1 0e+0
    endloop
  endfacet
  facet normal 0e+0 0e+0 1e+0
    outer loop
      vertex -2.9e+1 2.9e+1 0e+0
      vertex -2.9e+1 -2.9e+1 0e+0
      vertex -2.8e+1 2.8e+1 0e+0
    endloop
  endfacet
  facet normal 0e+0 0e+0 1e+0
    outer loop
      vertex -3e+1 -3e+1 0e+0
      vertex -2.9e+1 -2.9e+1 0e+0
      vertex -2.9e+1 2.9e+1 0e+0
    endloop
  endfacet
  facet normal 0e+0 0e+0 1e+0
    outer loop
      vertex -2.9e+1 -2.9e+1 0e+0
      vertex -3e+1 -3e+1 0e+0
      vertex 3e+1 -3e+1 0e+0
    endloop
  endfacet
  facet normal 0e+0 0e+0 1e+0
    outer loop
      vertex 2.9e+1 -2.9e+1 0e+0
      vertex -2.9e+1 -2.9e+1 0e+0
      vertex 3e+1 -3e+1 0e+0
    endloop
  endfacet
  facet normal 0e+0 0e+0 1e+0
    outer loop
      vertex 3e+1 -3e+1 0e+0
      vertex -3e+1 -3e+1 0e+0
      vertex 3.1e+1 -3.1e+1 0e+0
    endloop
  endfacet
  facet normal 0e+0 0e+0 1e+0
    outer loop
      vertex -3e+1 -3e+1 0e+0
      vertex -3.1e+1 -3.1e+1 0e+0
      vertex 3.1e+1 -3.1e+1 0e+0
    endloop
  endfacet
  facet normal 0e+0 0e+0 1e+0
    outer loop
      vertex -3.1e+1 -3.1e+1 0e+0
      vertex -3e+1 -3e+1 0e+0
      vertex -3e+1 3e+1 0e+0
    endloop
  endfacet
  facet normal 0e+0 0e+0 1e+0
    outer loop
      vertex -3.1e+1 3.1e+1 0e+0
      vertex -3.1e+1 -3.1e+1 0e+0
      vertex -3e+1 3e+1 0e+0
    endloop
  endfacet
  facet normal 0e+0 0e+0 1e+0
    outer loop
      vertex -3.2e+1 -3.2e+1 0e+0
      vertex -3.1e+1 -3.1e+1 0e+0
      vertex -3.1e+1 3.1e+1 0e+0
    endloop
  endfacet
  facet normal 0e+0 0e+0 1e+0
    outer loop
      vertex -3.1e+1 -3.1e+1 0e+0
      vertex -3.2e+1 -3.2e+1 0e+0
      vertex 3.2e+1 -3.2e+1 0e+0
    endloop
  endfacet
  facet normal 0e+0 0e+0 1e+0
    outer loop
      vertex 3.1e+1 -3.1e+1 0e+0
      vertex -3.1e+1 -3.1e+1 0e+0
      vertex 3.2e+1 -3.2e+1 0e+0
    endloop
  endfacet
  facet normal 0e+0 0e+0 1e+0
    outer loop
      vertex 3.2e+1 -3.2e+1 0e+0
      vertex -3.2e+1 -3.2e+1 0e+0
      vertex 3.3e+1 -3.3e+1 0e+0
    endloop
  endfacet
  facet normal 0e+0 0e+0 1e+0
    outer loop
      vertex -3.2e+1 -3.2e+1 0e+0
      vertex -3.3e+1 -3.3e+1 0e+0
      vertex 3.3e+1 -3.3e+1 0e+0
    endloop
  endfacet
  facet normal 0e+0 0e+0 1e+0
    outer loop
      vertex -3.3e+1 -3.3e+1 0e+0
      vertex -3.2e+1 -3.2e+1 0e+0
      vertex -3.2e+1 3.2e+1 0e+0
    endloop
  endfacet
  facet normal 0e+0 0e+0 1e+0
    outer loop
      vertex -3.3e+1 3.3e+1 0e+0
      vertex -3.3e+1 -3.3e+1 0e+0
      vertex -3.2e+1 3.2e+1 0e+0
    endloop
  endfacet
  facet normal 0e+0 0e+0 1e+0
    outer loop
      vertex -3.4e+1 -3.4e+1 0e+0
      vertex -3.3e+1 -3.3e+1 0e+0
      vertex -3.3e+1 3.3e+1 0e+0
    endloop
  endfacet
  facet normal 0e+0 0e+0 1e+0
    outer loop
      vertex -3.3e+1 -3.3e+1 0e+0
      vertex -3.4e+1 -3.4e+1 0e+0
      vertex 3.4e+1 -3.4e+1 0e+0
    endloop
  endfacet
  facet normal 0e+0 0e+0 1e+0
    outer loop
      vertex 3.3e+1 -3.3e+1 0e+0
      vertex -3.3e+1 -3.3e+1 0e+0
      vertex 3.4e+1 -3.4e+1 0e+0
    endloop
  endfacet
  facet normal 0e+0 0e+0 1e+0
    outer loop
      vertex 3.4e+1 -3.4e+1 0e+0
      vertex -3.4e+1 -3.4e+1 0e+0
      vertex 3.5e+1 -3.5e+1 0e+0
    endloop
  endfacet
  facet normal 0e+0 0e+0 1e+0
    outer loop
      vertex -3.4e+1 -3.4e+1 0e+0
      vertex -3.5e+1 -3.5e+1 0e+0
      vertex 3.5e+1 -3.5e+1 0e+0
    endloop
  endfacet
  facet normal 0e+0 0e+0 1e+0
    outer loop
      vertex -3.5e+1 -3.5e+1 0e+0
      vertex -3.4e+1 -3.4e+1 0e+0
      vertex -3.4e+1 3.4e+1 0e+0
    endloop
  endfacet
  facet normal 0e+0 0e+0 1e+0
    outer loop
      vertex -3.5e+1 3.5e+1 0e+0
      vertex -3.5e+1 -3.5e+1 0e+0
      vertex -3.4e+1 3.4e+1 0e+0
    endloop
  endfacet
  facet normal 0e+0 0e+0 1e+0
    outer loop
      vertex -3.6e+1 -3.6e+1 0e+0
      vertex -3.5e+1 -3.5e+1 0e+0
      vertex -3.5e+1 3.5e+1 0e+0
    endloop
  endfacet
  facet normal 0e+0 0e+0 1e+0
    outer loop
      vertex -3.5e+1 -3.5e+1 0e+0
      vertex -3.6e+1 -3.6e+1 0e+0
      vertex 3.6e+1 -3.6e+1 0e+0
    endloop
  endfacet
  facet normal 0e+0 0e+0 1e+0
    outer loop
      vertex 3.5e+1 -3.5e+1 0e+0
      vertex -3.5e+1 -3.5e+1 0e+0
      vertex 3.6e+1 -3.6e+1 0e+0
    endloop
  endfacet
  facet normal 0e+0 0e+0 1e+0
    outer loop
      vertex 3.6e+1 -3.6e+1 0e+0
      vertex -3.6e+1 -3.6e+1 0e+0
      vertex 3.7e+1 -3.7e+1 0e+0
    endloop
  endfacet
  facet normal 0e+0 0e+0 1e+0
    outer loop
      vertex -3.6e+1 -3.6e+1 0e+0
      vertex -3.7e+1 -3.7e+1 0e+0
      vertex 3.7e+1 -3.7e+1 0e+0
    endloop
  endfacet
  facet normal 0e+0 0e+0 1e+0
    outer loop
      vertex -3.7e+1 -3.7e+1 0e+0
      vertex -3.6e+1 -3.6e+1 0e+0
      vertex -3.6e+1 3.6e+1 0e+0
    endloop
  endfacet
  facet normal 0e+0 0e+0 1e+0
    outer loop
      vertex -3.7e+1 3.7e+1 0e+0
      vertex -3.7e+1 -3.7e+1 0e+0
      vertex -3.6e+1 3.6e+1 0e+0
    endloop
  endfacet
  facet normal 0e+0 0e+0 1e+0
    outer loop
      vertex -3.8e+1 -3.8e+1 0e+0
      vertex -3.7e+1 -3.7e+1 0e+0
      vertex -3.7e+1 3.7e+1 0e+0
    endloop
  endfacet
  facet normal 0e+0 0e+0 1e+0
    outer loop
      vertex -3.7e+1 -3.7e+1 0e+0
      vertex -3.8e+1 -3.8e+1 0e+0
      vertex 3.8e+1 -3.8e+1 0e+0
    endloop
  endfacet
  facet normal 0e+0 0e+0 1e+0
    outer loop
      vertex 3.7e+1 -3.7e+1 0e+0
      vertex -3.7e+1 -3.7e+1 0e+0
      vertex 3.8e+1 -3.8e+1 0e+0
    endloop
  endfacet
  facet normal 0e+0 0e+0 1e+0
    outer loop
      vertex 3.8e+1 -3.8e+1 0e+0
      vertex -3.8e+1 -3.8e+1 0e+0
      vertex 3.9e+1 -3.9e+1 0e+0
    endloop
  endfacet
  facet normal 0e+0 0e+0 1e+0
    outer loop
      vertex -3.8e+1 -3.8e+1 0e+0
      vertex -3.9e+1 -3.9e+1 0e+0
      vertex 3.9e+1 -3.9e+1 0e+0
    endloop
  endfacet
  facet normal 0e+0 0e+0 1e+0
    outer loop
      vertex -3.9e+1 -3.9e+1 0e+0
      vertex -3.8e+1 -3.8e+1 0e+0
      vertex -3.8e+1 3.8e+1 0e+0
    endloop
  endfacet
  facet normal 0e+0 0e+0 1e+0
    outer loop
      vertex -3.9e+1 3.9e+1 0e+0
      vertex -3.9e+1 -3.9e+1 0e+0
      vertex -3.8e+1 3.8e+1 0e+0
    endloop
  endfacet
  facet normal 0e+0 0e+0 1e+0
    outer loop
      vertex -4e+1 -4e+1 0e+0
      vertex -3.9e+1 -3.9e+1 0e+0
      vertex -3.9e+1 3.9e+1 0e+0
    endloop
  endfacet
  facet normal 0e+0 0e+0 1e+0
    outer loop
      vertex -3.9e+1 -3.9e+1 0e+0
      vertex -4e+1 -4e+1 0e+0
      vertex 4e+1 -4e+1 0e+0
    endloop
  endfacet
  facet normal 0e+0 0e+0 1e+0
    outer loop
      vertex 3.9e+1 -3.9e+1 0e+0
      vertex -3.9e+1 -3.9e+1 0e+0
      vertex 4e+1 -4e+1 0e+0
    endloop
  endfacet
  facet normal 0e+0 0e+0 1e+0
    outer loop
      vertex 4e+1 -4e+1 0e+0
      vertex -4e+1 -4e+1 0e+0
      vertex 4.1e+1 -4.1e+1 0e+0
    endloop
  endfacet
  facet normal 0e+0 0e+0 1e+0
    outer loop
      vertex -4e+1 -4e+1 0e+0
      vertex -4.1e+1 -4.1e+1 0e+0
      vertex 4.1e+1 -4.1e+1 0e+0
    endloop
  endfacet
  facet normal 0e+0 0e+0 1e+0
    outer loop
      vertex -4.1e+1 -4.1e+1 0e+0
      vertex -4e+1 -4e+1 0e+0
      vertex -4e+1 4e+1 0e+0
    endloop
  endfacet
  facet normal 0e+0 0e+0 1e+0
    outer loop
      vertex -4.1e+1 4.1e+1 0e+0
      vertex -4.1e+1 -4.1e+1 0e+0
      vertex -4e+1 4e+1 0e+0
    endloop
  endfacet
  facet normal 0e+0 0e+0 1e+0
    outer loop
      vertex -4.2e+1 -4.2e+1 0e+0
      vertex -4.1e+1 -4.1e+1 0e+0
      vertex -4.1e+1 4.1e+1 0e+0
    endloop
  endfacet
  facet normal 0e+0 0e+0 1e+0
    outer loop
      vertex -4.1e+1 -4.1e+1 0e+0
      vertex -4.2e+1 -4.2e+1 0e+0
      vertex 4.2e+1 -4.2e+1 0e+0
    endloop
  endfacet
  facet normal 0e+0 0e+0 1e+0
    outer loop
      vertex 4.1e+1 -4.1e+1 0e+0
      vertex -4.1e+1 -4.1e+1 0e+0
      vertex 4.2e+1 -4.2e+1 0e+0
    endloop
  endfacet
  facet normal 0e+0 0e+0 1e+0
    outer loop
      vertex 4.2e+1 -4.2e+1 0e+0
      vertex -4.2e+1 -4.2e+1 0e+0
      vertex 4.3e+1 -4.3e+1 0e+0
    endloop
  endfacet
  facet normal 0e+0 0e+0 1e+0
    outer loop
      vertex -4.2e+1 -4.2e+1 0e+0
      vertex -4.3e+1 -4.3e+1 0e+0
      vertex 4.3e+1 -4.3e+1 0e+0
    endloop
  endfacet
  facet normal 0e+0 0e+0 1e+0
    outer loop
      vertex -4.3e+1 -4.3e+1 0e+0
      vertex -4.2e+1 -4.2e+1 0e+0
      vertex -4.2e+1 4.2e+1 0e+0
    endloop
  endfacet
  facet normal 0e+0 0e+0 1e+0
    outer loop
      vertex -4.3e+1 4.3e+1 0e+0
      vertex -4.3e+1 -4.3e+1 0e+0
      vertex -4.2e+1 4.2e+1 0e+0
    endloop
  endfacet
  facet normal 0e+0 0e+0 1e+0
    outer loop
      vertex -4.4e+1 -4.4e+1 0e+0
      vertex -4.3e+1 -4.3e+1 0e+0
      vertex -4.3e+1 4.3e+1 0e+0
    endloop
  endfacet
  facet normal 0e+0 0e+0 1e+0
    outer loop
      vertex -4.3e+1 -4.3e+1 0e+0
      vertex -4.4e+1 -4.4e+1 0e+0
      vertex 4.4e+1 -4.4e+1 0e+0
    endloop
  endfacet
  facet normal 0e+0 0e+0 1e+0
    outer loop
      vertex 4.3e+1 -4.3e+1 0e+0
      vertex -4.3e+1 -4.3e+1 0e+0
      vertex 4.4e+1 -4.4e+1 0e+0
    endloop
  endfacet
  facet normal 0e+0 0e+0 1e+0
    outer loop
      vertex 4.4e+1 -4.4e+1 0e+0
      vertex -4.4e+1 -4.4e+1 0e+0
      vertex 4.5e+1 -4.5e+1 0e+0
    endloop
  endfacet
  facet normal 0e+0 0e+0 1e+0
    outer loop
      vertex -4.4e+1 -4.4e+1 0e+0
      vertex -4.5e+1 -4.5e+1 0e+0
      vertex 4.5e+1 -4.5e+1 0e+0
    endloop
  endfacet
  facet normal 0e+0 0e+0 1e+0
    outer loop
      vertex -4.5e+1 -4.5e+1 0e+0
      vertex -4.4e+1 -4.4e+1 0e+0
      vertex -4.4e+1 4.4e+1 0e+0
    endloop
  endfacet
  facet normal 0e+0 0e+0 1e+0
    outer loop
      vertex -4.5e+1 4.5e+1 0e+0
      vertex -4.5e+1 -4.5e+1 0e+0
      vertex -4.4e+1 4.4e+1 0e+0
    endloop
  endfacet
  facet normal 0e+0 0e+0 1e+0
    outer loop
      vertex -4.6e+1 -4.6e+1 0e+0
      vertex -4.5e+1 -4.5e+1 0e+0
      vertex -4.5e+1 4.5e+1 0e+0
    endloop
  endfacet
  facet normal 0e+0 0e+0 1e+0
    outer loop
      vertex -4.5e+1 -4.5e+1 0e+0
      vertex -4.6e+1 -4.6e+1 0e+0
      vertex 4.6e+1 -4.6e+1 0e+0
    endloop
  endfacet
  facet normal 0e+0 0e+0 1e+0
    outer loop
      vertex 4.5e+1 -4.5e+1 0e+0
      vertex -4.5e+1 -4.5e+1 0e+0
      vertex 4.6e+1 -4.6e+1 0e+0
    endloop
  endfacet
  facet normal 0e+0 0e+0 1e+0
    outer loop
      vertex 4.6e+1 -4.6e+1 0e+0
      vertex -4.6e+1 -4.6e+1 0e+0
      vertex 4.7e+1 -4.7e+1 0e+0
    endloop
  endfacet
  facet normal 0e+0 0e+0 1e+0
    outer loop
      vertex -4.6e+1 -4.6e+1 0e+0
      vertex -4.7e+1 -4.7e+1 0e+0
      vertex 4.7e+1 -4.7e+1 0e+0
    endloop
  endfacet
  facet normal 0e+0 0e+0 1e+0
    outer loop
      vertex -4.7e+1 -4.7e+1 0e+0
      vertex -4.6e+1 -4.6e+1 0e+0
      vertex -4.6e+1 4.6e+1 0e+0
    endloop
  endfacet
  facet normal 0e+0 0e+0 1e+0
    outer loop
      vertex -4.7e+1 4.7e+1 0e+0
      vertex -4.7e+1 -4.7e+1 0e+0
      vertex -4.6e+1 4.6e+1 0e+0
    endloop
  endfacet
  facet normal 0e+0 0e+0 1e+0
    outer loop
      vertex -4.8e+1 -4.8e+1 0e+0
      vertex -4.7e+1 -4.7e+1 0e+0
      vertex -4.7e+1 4.7e+1 0e+0
    endloop
  endfacet
  facet normal 0e+0 0e+0 1e+0
    outer loop
      vertex -4.7e+1 -4.7e+1 0e+0
      vertex -4.8e+1 -4.8e+1 0e+0
      vertex 4.8e+1 -4.8e+1 0e+0
    endloop
  endfacet
  facet normal 0e+0 0e+0 1e+0
    outer loop
      vertex 4.7e+1 -4.7e+1 0e+0
      vertex -4.7e+1 -4.7e+1 0e+0
      vertex 4.8e+1 -4.8e+1 0e+0
    endloop
  endfacet
  facet normal 0e+0 0e+0 1e+0
    outer loop
      vertex 4.8e+1 -4.8e+1 0e+0
      vertex -4.8e+1 -4.8e+1 0e+0
      vertex 4.9e+1 -4.9e+1 0e+0
    endloop
  endfacet
  facet normal 0e+0 0e+0 1e+0
    outer loop
      vertex -4.8e+1 -4.8e+1 0e+0
      vertex -4.9e+1 -4.9e+1 0e+0
      vertex 4.9e+1 -4.9e+1 0e+0
    endloop
  endfacet
  facet normal 0e+0 0e+0 1e+0
    outer loop
      vertex -4.9e+1 -4.9e+1 0e+0
      vertex -4.8e+1 -4.8e+1 0e+0
      vertex -4.8e+1 4.8e+1 0e+0
    endloop
  endfacet
  facet normal 0e+0 0e+0 1e+0
    outer loop
      vertex -4.9e+1 4.9e+1 0e+0
      vertex -4.9e+1 -4.9e+1 0e+0
      vertex -4.8e+1 4.8e+1 0e+0
    endloop
  endfacet
  facet normal 0e+0 0e+0 1e+0
    outer loop
      vertex -5e+1 -5e+1 0e+0
      vertex -4.9e+1 -4.9e+1 0e+0
      vertex -4.9e+1 4.9e+1 0e+0
    endloop
  endfacet
  facet normal 0e+0 0e+0 1e+0
    outer loop
      vertex -4.9e+1 -4.9e+1 0e+0
      vertex -5e+1 -5e+1 0e+0
      vertex 5e+1 -5e+1 0e+0
    endloop
  endfacet
  facet normal 0e+0 0e+0 1e+0
    outer loop
      vertex 4.9e+1 -4.9e+1 0e+0
      vertex -4.9e+1 -4.9e+1 0e+0
      vertex 5e+1 -5e+1 0e+0
    endloop
  endfacet
  facet normal 0e+0 0e+0 1e+0
    outer loop
      vertex 5e+1 -5e+1 0e+0
      vertex -5e+1 -5e+1 0e+0
      vertex 5.1e+1 -5.1e+1 0e+0
    endloop
  endfacet
  facet normal 0e+0 0e+0 1e+0
    outer loop
      vertex -5e+1 -5e+1 0e+0
      vertex -5.1e+1 -5.1e+1 0e+0
      vertex 5.1e+1 -5.1e+1 0e+0
    endloop
  endfacet
  facet normal 0e+0 0e+0 1e+0
    outer loop
      vertex -5.1e+1 -5.1e+1 0e+0
      vertex -5e+1 -5e+1 0e+0
      vertex -5e+1 5e+1 0e+0
    endloop
  endfacet
  facet normal 0e+0 0e+0 1e+0
    outer loop
      vertex -5.1e+1 5.1e+1 0e+0
      vertex -5.1e+1 -5.1e+1 0e+0
      vertex -5e+1 5e+1 0e+0
    endloop
  endfacet
  facet normal 0e+0 0e+0 1e+0
    outer loop
      vertex -5.2e+1 -5.2e+1 0e+0
      vertex -5.1e+1 -5.1e+1 0e+0
      vertex -5.1e+1 5.1e+1 0e+0
    endloop
  endfacet
  facet normal 0e+0 0e+0 1e+0
    outer loop
      vertex -5.1e+1 -5.1e+1 0e+0
      vertex -5.2e+1 -5.2e+1 0e+0
      vertex 5.2e+1 -5.2e+1 0e+0
    endloop
  endfacet
  facet normal 0e+0 0e+0 1e+0
    outer loop
      vertex 5.1e+1 -5.1e+1 0e+0
      vertex -5.1e+1 -5.1e+1 0e+0
      vertex 5.2e+1 -5.2e+1 0e+0
    endloop
  endfacet
  facet normal 0e+0 0e+0 1e+0
    outer loop
      vertex 5.2e+1 -5.2e+1 0e+0
      vertex -5.2e+1 -5.2e+1 0e+0
      vertex 5.3e+1 -5.3e+1 0e+0
    endloop
  endfacet
  facet normal 0e+0 0e+0 1e+0
    outer loop
      vertex -5.2e+1 -5.2e+1 0e+0
      vertex -5.3e+1 -5.3e+1 0e+0
      vertex 5.3e+1 -5.3e+1 0e+0
    endloop
  endfacet
  facet normal 0e+0 0e+0 1e+0
    outer loop
      vertex -5.3e+1 -5.3e+1 0e+0
      vertex -5.2e+1 -5.2e+1 0e+0
      vertex -5.2e+1 5.2e+1 0e+0
    endloop
  endfacet
  facet normal 0e+0 0e+0 1e+0
    outer loop
      vertex -5.3e+1 5.3e+1 0e+0
      vertex -5.3e+1 -5.3e+1 0e+0
      vertex -5.2e+1 5.2e+1 0e+0
    endloop
  endfacet
  facet normal 0e+0 0e+0 1e+0
    outer loop
      vertex 7e+0 7e+0 0e+0
      vertex -5.3e+1 5.3e+1 0e+0
      vertex -5.2e+1 5.2e+1 0e+0
    endloop
  endfacet
  facet normal 0e+0 0e+0 1e+0
    outer loop
      vertex 7e+0 7e+0 0e+0
      vertex -5.2e+1 5.2e+1 0e+0
      vertex -5.1e+1 5.1e+1 0e+0
    endloop
  endfacet
  facet normal 0e+0 0e+0 1e+0
    outer loop
      vertex 7e+0 7e+0 0e+0
      vertex -5.1e+1 5.1e+1 0e+0
      vertex -5e+1 5e+1 0e+0
    endloop
  endfacet
  facet normal 0e+0 0e+0 1e+0
    outer loop
      vertex 7e+0 7e+0 0e+0
      vertex -5e+1 5e+1 0e+0
      vertex -4.9e+1 4.9e+1 0e+0
    endloop
  endfacet
  facet normal 0e+0 0e+0 1e+0
    outer loop
      vertex 7e+0 7e+0 0e+0
      vertex -4.9e+1 4.9e+1 0e+0
      vertex -4.8e+1 4.8e+1 0e+0
    endloop
  endfacet
  facet normal 0e+0 0e+0 1e+0
    outer loop
      vertex 7e+0 7e+0 0e+0
      vertex -4.8e+1 4.8e+1 0e+0
      vertex -4.7e+1 4.7e+1 0e+0
    endloop
  endfacet
  facet normal 0e+0 0e+0 1e+0
    outer loop
      vertex 7e+0 7e+0 0e+0
      vertex -4.7e+1 4.7e+1 0e+0
      vertex -4.6e+1 4.6e+1 0e+0
    endloop
  endfacet
  facet normal 0e+0 0e+0 1e+0
    outer loop
      vertex 7e+0 7e+0 0e+0
      vertex -4.6e+1 4.6e+1 0e+0
      vertex -4.5e+1 4.5e+1 0e+0
    endloop
  endfacet
  facet normal 0e+0 0e+0 1e+0
    outer loop
      vertex 7e+0 7e+0 0e+0
      vertex -4.5e+1 4.5e+1 0e+0
      vertex -4.4e+1 4.4e+1 0e+0
    endloop
  endfacet
  facet normal 0e+0 0e+0 1e+0
    outer loop
      vertex 7e+0 7e+0 0e+0
      vertex -4.4e+1 4.4e+1 0e+0
      vertex -4.3e+1 4.3e+1 0e+0
    endloop
  endfacet
  facet normal 0e+0 0e+0 1e+0
    outer loop
      vertex 7e+0 7e+0 0e+0
      vertex -4.3e+1 4.3e+1 0e+0
      vertex -4.2e+1 4.2e+1 0e+0
    endloop
  endfacet
  facet normal 0e+0 0e+0 1e+0
    outer loop
      vertex 7e+0 7e+0 0e+0
      vertex -4.2e+1 4.2e+1 0e+0
      vertex -4.1e+1 4.1e+1 0e+0
    endloop
  endfacet
  facet normal 0e+0 0e+0 1e+0
    outer loop
      vertex 7e+0 7e+0 0e+0
      vertex -4.1e+1 4.1e+1 0e+0
      vertex -4e+1 4e+1 0e+0
    endloop
  endfacet
  facet normal 0e+0 0e+0 1e+0
    outer loop
      vertex 7e+0 7e+0 0e+0
      vertex -4e+1 4e+1 0e+0
      vertex -3.9e+1 3.9e+1 0e+0
    endloop
  endfacet
  facet normal 0e+0 0e+0 1e+0
    outer loop
      vertex 7e+0 7e+0 0e+0
      vertex -3.9e+1 3.9e+1 0e+0
      vertex -3.8e+1 3.8e+1 0e+0
    endloop
  endfacet
  facet normal 0e+0 0e+0 1e+0
    outer loop
      vertex 7e+0 7e+0 0e+0
      vertex -3.8e+1 3.8e+1 0e+0
      vertex -3.7e+1 3.7e+1 0e+0
    endloop
  endfacet
  facet normal 0e+0 0e+0 1e+0
    outer loop
      vertex 7e+0 7e+0 0e+0
      vertex -3.7e+1 3.7e+1 0e+0
      vertex -3.6e+1 3.6e+1 0e+0
    endloop
  endfacet
  facet normal 0e+0 0e+0 1e+0
    outer loop
      vertex 7e+0 7e+0 0e+0
      vertex -3.6e+1 3.6e+1 0e+0
      vertex -3.5e+1 3.5e+1 0e+0
    endloop
  endfacet
  facet normal 0e+0 0e+0 1e+0
    outer loop
      vertex 7e+0 7e+0 0e+0
      vertex -3.5e+1 3.5e+1 0e+0
      vertex -3.4e+1 3.4e+1 0e+0
    endloop
  endfacet
  facet normal 0e+0 0e+0 1e+0
    outer loop
      vertex 7e+0 7e+0 0e+0
      vertex -3.4e+1 3.4e+1 0e+0
      vertex -3.3e+1 3.3e+1 0e+0
    endloop
  endfacet
  facet normal 0e+0 0e+0 1e+0
    outer loop
      vertex 7e+0 7e+0 0e+0
      vertex -3.3e+1 3.3e+1 0e+0
      vertex -3.2e+1 3.2e+1 0e+0
    endloop
  endfacet
  facet normal 0e+0 0e+0 1e+0
    outer loop
      vertex 7e+0 7e+0 0e+0
      vertex -3.2e+1 3.2e+1 0e+0
      vertex -3.1e+1 3.1e+1 0e+0
    endloop
  endfacet
  facet normal 0e+0 0e+0 1e+0
    outer loop
      vertex 7e+0 7e+0 0e+0
      vertex -3.1e+1 3.1e+1 0e+0
      vertex -3e+1 3e+1 0e+0
    endloop
  endfacet
  facet normal 0e+0 0e+0 1e+0
    outer loop
      vertex 7e+0 7e+0 0e+0
      vertex -3e+1 3e+1 0e+0
      vertex -2.9e+1 2.9e+1 0e+0
    endloop
  endfacet
  facet normal 0e+0 0e+0 1e+0
    outer loop
      vertex 7e+0 7e+0 0e+0
      vertex -2.9e+1 2.9e+1 0e+0
      vertex -2.8e+1 2.8e+1 0e+0
    endloop
  endfacet
  facet normal 0e+0 0e+0 1e+0
    outer loop
      vertex 7e+0 7e+0 0e+0
      vertex -2.8e+1 2.8e+1 0e+0
      vertex -2.7e+1 2.7e+1 0e+0
    endloop
  endfacet
  facet normal 0e+0 0e+0 1e+0
    outer loop
      vertex 7e+0 7e+0 0e+0
      vertex -2.7e+1 2.7e+1 0e+0
      vertex -2.6e+1 2.6e+1 0e+0
    endloop
  endfacet
  facet normal 0e+0 0e+0 1e+0
    outer loop
      vertex 7e+0 7e+0 0e+0
      vertex -2.6e+1 2.6e+1 0e+0
      vertex -2.5e+1 2.5e+1 0e+0
    endloop
  endfacet
  facet normal 0e+0 0e+0 1e+0
    outer loop
      vertex 7e+0 7e+0 0e+0
      vertex -2.5e+1 2.5e+1 0e+0
      vertex -2.4e+1 2.4e+1 0e+0
    endloop
  endfacet
  facet normal 0e+0 0e+0 1e+0
    outer loop
      vertex 7e+0 7e+0 0e+0
      vertex -2.4e+1 2.4e+1 0e+0
      vertex -2.3e+1 2.3e+1 0e+0
    endloop
  endfacet
  facet normal 0e+0 0e+0 1e+0
    outer loop
      vertex 7e+0 7e+0 0e+0
      vertex -2.3e+1 2.3e+1 0e+0
      vertex -2.2e+1 2.2e+1 0e+0
    endloop
  endfacet
  facet normal 0e+0 0e+0 1e+0
    outer loop
      vertex 7e+0 7e+0 0e+0
      vertex -2.2e+1 2.2e+1 0e+0
      vertex -2.1e+1 2.1e+1 0e+0
    endloop
  endfacet
  facet normal 0e+0 0e+0 1e+0
    outer loop
      vertex 7e+0 7e+0 0e+0
      vertex -2.1e+1 2.1e+1 0e+0
      vertex -2e+1 2e+1 0e+0
    endloop
  endfacet
  facet normal 0e+0 0e+0 1e+0
    outer loop
      vertex 7e+0 7e+0 0e+0
      vertex -2e+1 2e+1 0e+0
      vertex -1.9e+1 1.9e+1 0e+0
    endloop
  endfacet
  facet normal 0e+0 0e+0 1e+0
    outer loop
      vertex 7e+0 7e+0 0e+0
      vertex -1.9e+1 1.9e+1 0e+0
      vertex -1.8e+1 1.8e+1 0e+0
    endloop
  endfacet
  facet normal 0e+0 0e+0 1e+0
    outer loop
      vertex 7e+0 7e+0 0e+0
      vertex -1.8e+1 1.8e+1 0e+0
      vertex -1.7e+1 1.7e+1 0e+0
    endloop
  endfacet
  facet normal 0e+0 0e+0 1e+0
    outer loop
      vertex 7e+0 7e+0 0e+0
      vertex -1.7e+1 1.7e+1 0e+0
      vertex -1.6e+1 1.6e+1 0e+0
    endloop
  endfacet
  facet normal 0e+0 0e+0 1e+0
    outer loop
      vertex 7e+0 7e+0 0e+0
      vertex -1.6e+1 1.6e+1 0e+0
      vertex -1.5e+1 1.5e+1 0e+0
    endloop
  endfacet
  facet normal 0e+0 0e+0 1e+0
    outer loop
      vertex 7e+0 7e+0 0e+0
      vertex -1.5e+1 1.5e+1 0e+0
      vertex -1.4e+1 1.4e+1 0e+0
    endloop
  endfacet
  facet normal 0e+0 0e+0 1e+0
    outer loop
      vertex 7e+0 7e+0 0e+0
      vertex -1.4e+1 1.4e+1 0e+0
      vertex -1.3e+1 1.3e+1 0e+0
    endloop
  endfacet
  facet normal 0e+0 0e+0 1e+0
    outer loop
      vertex 7e+0 7e+0 0e+0
      vertex -1.3e+1 1.3e+1 0e+0
      vertex -1.2e+1 1.2e+1 0e+0
    endloop
  endfacet
  facet normal 0e+0 0e+0 1e+0
    outer loop
      vertex 7e+0 7e+0 0e+0
      vertex -1.2e+1 1.2e+1 0e+0
      vertex -1.1e+1 1.1e+1 0e+0
    endloop
  endfacet
  facet normal 0e+0 0e+0 1e+0
    outer loop
      vertex 7e+0 7e+0 0e+0
      vertex -1.1e+1 1.1e+1 0e+0
      vertex -1e+1 1e+1 0e+0
    endloop
  endfacet
  facet normal 0e+0 0e+0 1e+0
    outer loop
      vertex 7e+0 7e+0 0e+0
      vertex -1e+1 1e+1 0e+0
      vertex -9e+0 9e+0 0e+0
    endloop
  endfacet
  facet normal 0e+0 0e+0 1e+0
    outer loop
      vertex 7e+0 7e+0 0e+0
      vertex -9e+0 9e+0 0e+0
      vertex -8e+0 8e+0 0e+0
    endloop
  endfacet
  facet normal 0e+0 0e+0 1e+0
    outer loop
      vertex 7e+0 7e+0 0e+0
      vertex -8e+0 8e+0 0e+0
      vertex -7e+0 7e+0 0e+0
    endloop
  endfacet
  facet normal 0e+0 0e+0 1e+0
    outer loop
      vertex -7e+0 7e+0 0e+0
      vertex 6e+0 6e+0 0e+0
      vertex 7e+0 7e+0 0e+0
    endloop
  endfacet
  facet normal 0e+0 0e+0 1e+0
    outer loop
      vertex -7e+0 7e+0 0e+0
      vertex -6e+0 6e+0 0e+0
      vertex 6e+0 6e+0 0e+0
    endloop
  endfacet
  facet normal 0e+0 0e+0 1e+0
    outer loop
      vertex -6e+0 6e+0 0e+0
      vertex -5e+0 5e+0 0e+0
      vertex 6e+0 6e+0 0e+0
    endloop
  endfacet
  facet normal 0e+0 0e+0 1e+0
    outer loop
      vertex -6e+0 6e+0 0e+0
      vertex -6e+0 -6e+0 0e+0
      vertex -5e+0 5e+0 0e+0
    endloop
  endfacet
  facet normal 0e+0 0e+0 1e+0
    outer loop
      vertex -5e+0 5e+0 0e+0
      vertex 5e+0 5e+0 0e+0
      vertex 6e+0 6e+0 0e+0
    endloop
  endfacet
  facet normal 0e+0 0e+0 1e+0
    outer loop
      vertex -8e+0 8e+0 0e+0
      vertex -8e+0 -8e+0 0e+0
      vertex -7e+0 7e+0 0e+0
    endloop
  endfacet
  facet normal 0e+0 0e+0 1e+0
    outer loop
      vertex -1e+1 1e+1 0e+0
      vertex -1e+1 -1e+1 0e+0
      vertex -9e+0 9e+0 0e+0
    endloop
  endfacet
  facet normal 0e+0 0e+0 1e+0
    outer loop
      vertex -1.2e+1 1.2e+1 0e+0
      vertex -1.2e+1 -1.2e+1 0e+0
      vertex -1.1e+1 1.1e+1 0e+0
    endloop
  endfacet
  facet normal 0e+0 0e+0 1e+0
    outer loop
      vertex -1.4e+1 1.4e+1 0e+0
      vertex -1.4e+1 -1.4e+1 0e+0
      vertex -1.3e+1 1.3e+1 0e+0
    endloop
  endfacet
  facet normal 0e+0 0e+0 1e+0
    outer loop
      vertex -1.6e+1 1.6e+1 0e+0
      vertex -1.6e+1 -1.6e+1 0e+0
      vertex -1.5e+1 1.5e+1 0e+0
    endloop
  endfacet
  facet normal 0e+0 0e+0 1e+0
    outer loop
      vertex -1.8e+1 1.8e+1 0e+0
      vertex -1.8e+1 -1.8e+1 0e+0
      vertex -1.7e+1 1.7e+1 0e+0
    endloop
  endfacet
  facet normal 0e+0 0e+0 1e+0
    outer loop
      vertex -2e+1 2e+1 0e+0
      vertex -2e+1 -2e+1 0e+0
      vertex -1.9e+1 1.9e+1 0e+0
    endloop
  endfacet
  facet normal 0e+0 0e+0 1e+0
    outer loop
      vertex -2.2e+1 2.2e+1 0e+0
      vertex -2.2e+1 -2.2e+1 0e+0
      vertex -2.1e+1 2.1e+1 0e+0
    endloop
  endfacet
  facet normal 0e+0 0e+0 1e+0
    outer loop
      vertex -2.4e+1 2.4e+1 0e+0
      vertex -2.4e+1 -2.4e+1 0e+0
      vertex -2.3e+1 2.3e+1 0e+0
    endloop
  endfacet
  facet normal 0e+0 0e+0 1e+0
    outer loop
      vertex -2.6e+1 2.6e+1 0e+0
      vertex -2.6e+1 -2.6e+1 0e+0
      vertex -2.5e+1 2.5e+1 0e+0
    endloop
  endfacet
  facet normal 0e+0 0e+0 1e+0
    outer loop
      vertex -2.8e+1 2.8e+1 0e+0
      vertex -2.8e+1 -2.8e+1 0e+0
      vertex -2.7e+1 2.7e+1 0e+0
    endloop
  endfacet
  facet normal 0e+0 0e+0 1e+0
    outer loop
      vertex -3e+1 3e+1 0e+0
      vertex -3e+1 -3e+1 0e+0
      vertex -2.9e+1 2.9e+1 0e+0
    endloop
  endfacet
  facet normal 0e+0 0e+0 1e+0
    outer loop
      vertex -3.2e+1 3.2e+1 0e+0
      vertex -3.2e+1 -3.2e+1 0e+0
      vertex -3.1e+1 3.1e+1 0e+0
    endloop
  endfacet
  facet normal 0e+0 0e+0 1e+0
    outer loop
      vertex -3.4e+1 3.4e+1 0e+0
      vertex -3.4e+1 -3.4e+1 0e+0
      vertex -3.3e+1 3.3e+1 0e+0
    endloop
  endfacet
  facet normal 0e+0 0e+0 1e+0
    outer loop
      vertex -3.6e+1 3.6e+1 0e+0
      vertex -3.6e+1 -3.6e+1 0e+0
      vertex -3.5e+1 3.5e+1 0e+0
    endloop
  endfacet
  facet normal 0e+0 0e+0 1e+0
    outer loop
      vertex -3.8e+1 3.8e+1 0e+0
      vertex -3.8e+1 -3.8e+1 0e+0
      vertex -3.7e+1 3.7e+1 0e+0
    endloop
  endfacet
  facet normal 0e+0 0e+0 1e+0
    outer loop
      vertex -4e+1 4e+1 0e+0
      vertex -4e+1 -4e+1 0e+0
      vertex -3.9e+1 3.9e+1 0e+0
    endloop
  endfacet
  facet normal 0e+0 0e+0 1e+0
    outer loop
      vertex -4.2e+1 4.2e+1 0e+0
      vertex -4.2e+1 -4.2e+1 0e+0
      vertex -4.1e+1 4.1e+1 0e+0
    endloop
  endfacet
  facet normal 0e+0 0e+0 1e+0
    outer loop
      vertex -4.4e+1 4.4e+1 0e+0
      vertex -4.4e+1 -4.4e+1 0e+0
      vertex -4.3e+1 4.3e+1 0e+0
    endloop
  endfacet
  facet normal 0e+0 0e+0 1e+0
    outer loop
      vertex -4.6e+1 4.6e+1 0e+0
      vertex -4.6e+1 -4.6e+1 0e+0
      vertex -4.5e+1 4.5e+1 0e+0
    endloop
  endfacet
  facet normal 0e+0 0e+0 1e+0
    outer loop
      vertex -4.8e+1 4.8e+1 0e+0
      vertex -4.8e+1 -4.8e+1 0e+0
      vertex -4.7e+1 4.7e+1 0e+0
    endloop
  endfacet
  facet normal 0e+0 0e+0 1e+0
    outer loop
      vertex -5e+1 5e+1 0e+0
      vertex -5e+1 -5e+1 0e+0
      vertex -4.9e+1 4.9e+1 0e+0
    endloop
  endfacet
  facet normal 0e+0 0e+0 1e+0
    outer loop
      vertex -5.2e+1 5.2e+1 0e+0
      vertex -5.2e+1 -5.2e+1 0e+0
      vertex -5.1e+1 5.1e+1 0e+0
    endloop
  endfacet
  facet normal 0e+0 0e+0 1e+0
    outer loop
      vertex 5.3e+1 -5.3e+1 0e+0
      vertex -5.3e+1 -5.3e+1 0e+0
      vertex 5.4e+1 -5.4e+1 0e+0
    endloop
  endfacet
  facet normal 0e+0 0e+0 1e+0
    outer loop
      vertex 5.4e+1 5.4e+1 0e+0
      vertex 5.4e+1 -5.4e+1 0e+0
      vertex 7.5e+1 -7.5e+1 0e+0
    endloop
  endfacet
  facet normal 0e+0 0e+0 1e+0
    outer loop
      vertex 5.4e+1 5.4e+1 0e+0
      vertex 7.5e+1 -7.5e+1 0e+0
      vertex 7.5e+1 7.5e+1 0e+0
    endloop
  endfacet
endsolid