solid ground
  facet normal 0e+0 0e+0 1e+0
    outer loop
      vertex -1e+2 1e+2 0e+0
      vertex 5e+1 5e+1 0e+0
      vertex 1e+2 1e+2 0e+0
    endloop
  endfacet
  facet normal 0e+0 0e+0 1e+0
    outer loop
      vertex -1e+2 1e+2 0e+0
      vertex -5e+1 5e+1 0e+0
      vertex 5e+1 5e+1 0e+0
    endloop
  endfacet
  facet normal 0e+0 0e+0 1e+0
    outer loop
      vertex -1e+2 1e+2 0e+0
      vertex -1e+2 -1e+2 0e+0
      vertex -5e+1 5e+1 0e+0
    endloop
  endfacet
  facet normal 0e+0 0e+0 1e+0
    outer loop
      vertex -1e+2 -1e+2 0e+0
      vertex -5e+1 -5e+1 0e+0
      vertex -5e+1 5e+1 0e+0
    endloop
  endfacet
  facet normal 0e+0 0e+0 1e+0
    outer loop
      vertex -5e+1 -5e+1 0e+0
      vertex -1e+2 -1e+2 0e+0
      vertex 1e+2 -1e+2 0e+0
    endloop
  endfacet
  facet normal 0e+0 0e+0 1e+0
    outer loop
      vertex 5e+1 -5e+1 0e+0
      vertex -5e+1 -5e+1 0e+0
      vertex 1e+2 -1e+2 0e+0
    endloop
  endfacet
  facet normal 0e+0 0e+0 1e+0
    outer loop
      vertex -1e+1 -1e+1 0e+0
      vertex -5e+1 -5e+1 0e+0
      vertex 5e+1 -5e+1 0e+0
    endloop
  endfacet
  facet normal 0e+0 0e+0 1e+0
    outer loop
      vertex -5e+1 -5e+1 0e+0
      vertex -1e+1 -1e+1 0e+0
      vertex -1e+1 1e+1 0e+0
    endloop
  endfacet
  facet normal 0e+0 0e+0 1e+0
    outer loop
      vertex -5e+1 5e+1 0e+0
      vertex -5e+1 -5e+1 0e+0
      vertex -1e+1 1e+1 0e+0
    endloop
  endfacet
  facet normal 0e+0 0e+0 1e+0
    outer loop
      vertex -5e+1 5e+1 0e+0
      vertex -1e+1 1e+1 0e+0
      vertex 5e+1 5e+1 0e+0
    endloop
  endfacet
  facet normal 0e+0 0e+0 1e+0
    outer loop
      vertex -1e+1 1e+1 0e+0
      vertex 1e+1 1e+1 0e+0
      vertex 5e+1 5e+1 0e+0
    endloop
  endfacet
  facet normal 0e+0 0e+0 1e+0
    outer loop
      vertex -1e+1 1e+1 0e+0
      vertex 1e+1 -1e+1 0e+0
      vertex 1e+1 1e+1 0e+0
    endloop
  endfacet
  facet normal 0e+0 0e+0 1e+0
    outer loop
      vertex -1e+1 1e+1 0e+0
      vertex -1e+1 -1e+1 0e+0
      vertex 1e+1 -1e+1 0e+0
    endloop
  endfacet
  facet normal 0e+0 0e+0 1e+0
    outer loop
      vertex 1e+1 -1e+1 0e+0
      vertex -1e+1 -1e+1 0e+0
      vertex 5e+1 -5e+1 0e+0
    endloop
  endfacet
  facet normal 0e+0 0e+0 1e+0
    outer loop
      vertex 1e+1 1e+1 0e+0
      vertex 1e+1 -1e+1 0e+0
      vertex 5e+1 -5e+1 0e+0
    endloop
  endfacet
  facet normal 0e+0 0e+0 1e+0
    outer loop
      vertex 1e+1 1e+1 0e+0
      vertex 5e+1 -5e+1 0e+0
      vertex 5e+1 5e+1 0e+0
    endloop
  endfacet
  facet normal 0e+0 0e+0 1e+0
    outer loop
      vertex 5e+1 5e+1 0e+0
      vertex 5e+1 -5e+1 0e+0
      vertex 1e+2 -1e+2 0e+0
    endloop
  endfacet
  facet normal 0e+0 0e+0 1e+0
    outer loop
      vertex 5e+1 5e+1 0e+0
      vertex 1e+2 -1e+2 0e+0
      vertex 1e+2 1e+2 0e+0
    endloop
  endfacet
endsolid