solid ground
  facet normal 0e+0 0e+0 1e+0
    outer loop
      vertex -7.5e+1 7.5e+1 0e+0
      vertex 5.933333333333334e+0 5.933333333333334e+0 0e+0
      vertex 7.5e+1 7.5e+1 0e+0
    endloop
  endfacet
  facet normal 0e+0 0e+0 1e+0
    outer loop
      vertex 5.933333333333334e+0 5.933333333333334e+0 0e+0
      vertex -7.5e+1 7.5e+1 0e+0
      vertex -5.933333333333334e+0 5.933333333333334e+0 0e+0
    endloop
  endfacet
  facet normal 0e+0 0e+0 1e+0
    outer loop
      vertex 5.933333333333334e+0 5.933333333333334e+0 0e+0
      vertex -5.933333333333334e+0 5.933333333333334e+0 0e+0
      vertex 5.866666666666667e+0 5.866666666666667e+0 0e+0
    endloop
  endfacet
  facet normal 0e+0 0e+0 1e+0
    outer loop
      vertex 5.933333333333334e+0 5.933333333333334e+0 0e+0
      vertex 5.866666666666667e+0 5.866666666666667e+0 0e+0
      vertex 5.866666666666667e+0 -5.866666666666667e+0 0e+0
    endloop
  endfacet
  facet normal 0e+0 0e+0 1e+0
    outer loop
      vertex 5.933333333333334e+0 5.933333333333334e+0 0e+0
      vertex 5.866666666666667e+0 -5.866666666666667e+0 0e+0
      vertex 5.933333333333334e+0 -5.933333333333334e+0 0e+0
    endloop
  endfacet
  facet normal 0e+0 0e+0 1e+0
    outer loop
      vertex 5.933333333333334e+0 5.933333333333334e+0 0e+0
      vertex 5.933333333333334e+0 -5.933333333333334e+0 0e+0
      vertex 7.5e+1 -7.5e+1 0e+0
    endloop
  endfacet
  facet normal 0e+0 0e+0 1e+0
    outer loop
      vertex 5.933333333333334e+0 5.933333333333334e+0 0e+0
      vertex 7.5e+1 -7.5e+1 0e+0
      vertex 7.5e+1 7.5e+1 0e+0
    endloop
  endfacet
  facet normal 0e+0 0e+0 1e+0
    outer loop
      vertex 5.933333333333334e+0 -5.933333333333334e+0 0e+0
      vertex -5.933333333333334e+0 -5.933333333333334e+0 0e+0
      vertex 7.5e+1 -7.5e+1 0e+0
    endloop
  endfacet
  facet normal 0e+0 0e+0 1e+0
    outer loop
      vertex 5.933333333333334e+0 -5.933333333333334e+0 0e+0
      vertex 5.866666666666667e+0 -5.866666666666667e+0 0e+0
      vertex -5.933333333333334e+0 -5.933333333333334e+0 0e+0
    endloop
  endfacet
  facet normal 0e+0 0e+0 1e+0
    outer loop
      vertex 5.866666666666667e+0 -5.866666666666667e+0 0e+0
      vertex -5.866666666666667e+0 -5.866666666666667e+0 0e+0
      vertex -5.933333333333334e+0 -5.933333333333334e+0 0e+0
    endloop
  endfacet
  facet normal 0e+0 0e+0 1e+0
    outer loop
      vertex -5.8e+0 -5.8e+0 0e+0
      vertex -5.866666666666667e+0 -5.866666666666667e+0 0e+0
      vertex 5.866666666666667e+0 -5.866666666666667e+0 0e+0
    endloop
  endfacet
  facet normal 0e+0 0e+0 1e+0
    outer loop
      vertex -5.866666666666667e+0 5.866666666666667e+0 0e+0
      vertex -5.866666666666667e+0 -5.866666666666667e+0 0e+0
      vertex -5.8e+0 -5.8e+0 0e+0
    endloop
  endfacet
  facet normal 0e+0 0e+0 1e+0
    outer loop
      vertex -5.866666666666667e+0 5.866666666666667e+0 0e+0
      vertex -5.933333333333334e+0 5.933333333333334e+0 0e+0
      vertex -5.866666666666667e+0 -5.866666666666667e+0 0e+0
    endloop
  endfacet
  facet normal 0e+0 0e+0 1e+0
    outer loop
      vertex 5.133333333333334e+0 5.133333333333334e+0 0e+0
      vertex -5.933333333333334e+0 5.933333333333334e+0 0e+0
      vertex -5.866666666666667e+0 5.866666666666667e+0 0e+0
    endloop
  endfacet
  facet normal 0e+0 0e+0 1e+0
    outer loop
      vertex 5.2e+0 5.2e+0 0e+0
      vertex -5.933333333333334e+0 5.933333333333334e+0 0e+0
      vertex 5.133333333333334e+0 5.133333333333334e+0 0e+0
    endloop
  endfacet
  facet normal 0e+0 0e+0 1e+0
    outer loop
      vertex 5.266666666666667e+0 5.266666666666667e+0 0e+0
      vertex -5.933333333333334e+0 5.933333333333334e+0 0e+0
      vertex 5.2e+0 5.2e+0 0e+0
    endloop
  endfacet
  facet normal 0e+0 0e+0 1e+0
    outer loop
      vertex 5.333333333333333e+0 5.333333333333333e+0 0e+0
      vertex -5.933333333333334e+0 5.933333333333334e+0 0e+0
      vertex 5.266666666666667e+0 5.266666666666667e+0 0e+0
    endloop
  endfacet
  facet normal 0e+0 0e+0 1e+0
    outer loop
      vertex 5.4e+0 5.4e+0 0e+0
      vertex -5.933333333333334e+0 5.933333333333334e+0 0e+0
      vertex 5.333333333333333e+0 5.333333333333333e+0 0e+0
    endloop
  endfacet
  facet normal 0e+0 0e+0 1e+0
    outer loop
      vertex 5.466666666666667e+0 5.466666666666667e+0 0e+0
      vertex -5.933333333333334e+0 5.933333333333334e+0 0e+0
      vertex 5.4e+0 5.4e+0 0e+0
    endloop
  endfacet
  facet normal 0e+0 0e+0 1e+0
    outer loop
      vertex 5.533333333333333e+0 5.533333333333333e+0 0e+0
      vertex -5.933333333333334e+0 5.933333333333334e+0 0e+0
      vertex 5.466666666666667e+0 5.466666666666667e+0 0e+0
    endloop
  endfacet
  facet normal 0e+0 0e+0 1e+0
    outer loop
      vertex 5.6e+0 5.6e+0 0e+0
      vertex -5.933333333333334e+0 5.933333333333334e+0 0e+0
      vertex 5.533333333333333e+0 5.533333333333333e+0 0e+0
    endloop
  endfacet
  facet normal 0e+0 0e+0 1e+0
    outer loop
      vertex 5.666666666666667e+0 5.666666666666667e+0 0e+0
      vertex -5.933333333333334e+0 5.933333333333334e+0 0e+0
      vertex 5.6e+0 5.6e+0 0e+0
    endloop
  endfacet
  facet normal 0e+0 0e+0 1e+0
    outer loop
      vertex 5.733333333333333e+0 5.733333333333333e+0 0e+0
      vertex -5.933333333333334e+0 5.933333333333334e+0 0e+0
      vertex 5.666666666666667e+0 5.666666666666667e+0 0e+0
    endloop
  endfacet
  facet normal 0e+0 0e+0 1e+0
    outer loop
      vertex 5.8e+0 5.8e+0 0e+0
      vertex -5.933333333333334e+0 5.933333333333334e+0 0e+0
      vertex 5.733333333333333e+0 5.733333333333333e+0 0e+0
    endloop
  endfacet
  facet normal 0e+0 0e+0 1e+0
    outer loop
      vertex 5.866666666666667e+0 5.866666666666667e+0 0e+0
      vertex -5.933333333333334e+0 5.933333333333334e+0 0e+0
      vertex 5.8e+0 5.8e+0 0e+0
    endloop
  endfacet
  facet normal 0e+0 0e+0 1e+0
    outer loop
      vertex 5.866666666666667e+0 5.866666666666667e+0 0e+0
      vertex 5.8e+0 5.8e+0 0e+0
      vertex 5.8e+0 -5.8e+0 0e+0
    endloop
  endfacet
  facet normal 0e+0 0e+0 1e+0
    outer loop
      vertex 5.866666666666667e+0 5.866666666666667e+0 0e+0
      vertex 5.8e+0 -5.8e+0 0e+0
      vertex 5.866666666666667e+0 -5.866666666666667e+0 0e+0
    endloop
  endfacet
  facet normal 0e+0 0e+0 1e+0
    outer loop
      vertex 5.8e+0 -5.8e+0 0e+0
      vertex -5.8e+0 -5.8e+0 0e+0
      vertex 5.866666666666667e+0 -5.866666666666667e+0 0e+0
    endloop
  endfacet
  facet normal 0e+0 0e+0 1e+0
    outer loop
      vertex 5.8e+0 -5.8e+0 0e+0
      vertex 5.733333333333333e+0 -5.733333333333333e+0 0e+0
      vertex -5.8e+0 -5.8e+0 0e+0
    endloop
  endfacet
  facet normal 0e+0 0e+0 1e+0
    outer loop
      vertex 5.733333333333333e+0 5.733333333333333e+0 0e+0
      vertex 5.733333333333333e+0 -5.733333333333333e+0 0e+0
      vertex 5.8e+0 -5.8e+0 0e+0
    endloop
  endfacet
  facet normal 0e+0 0e+0 1e+0
    outer loop
      vertex 5.733333333333333e+0 5.733333333333333e+0 0e+0
      vertex 5.666666666666667e+0 -5.666666666666667e+0 0e+0
      vertex 5.733333333333333e+0 -5.733333333333333e+0 0e+0
    endloop
  endfacet
  facet normal 0e+0 0e+0 1e+0
    outer loop
      vertex 5.733333333333333e+0 5.733333333333333e+0 0e+0
      vertex 5.666666666666667e+0 5.666666666666667e+0 0e+0
      vertex 5.666666666666667e+0 -5.666666666666667e+0 0e+0
    endloop
  endfacet
  facet normal 0e+0 0e+0 1e+0
    outer loop
      vertex 5.666666666666667e+0 5.666666666666667e+0 0e+0
      vertex 5.6e+0 -5.6e+0 0e+0
      vertex 5.666666666666667e+0 -5.666666666666667e+0 0e+0
    endloop
  endfacet
  facet normal 0e+0 0e+0 1e+0
    outer loop
      vertex 5.666666666666667e+0 5.666666666666667e+0 0e+0
      vertex 5.6e+0 5.6e+0 0e+0
      vertex 5.6e+0 -5.6e+0 0e+0
    endloop
  endfacet
  facet normal 0e+0 0e+0 1e+0
    outer loop
      vertex 5.533333333333333e+0 5.533333333333333e+0 0e+0
      vertex 5.6e+0 -5.6e+0 0e+0
      vertex 5.6e+0 5.6e+0 0e+0
    endloop
  endfacet
  facet normal 0e+0 0e+0 1e+0
    outer loop
      vertex 5.533333333333333e+0 5.533333333333333e+0 0e+0
      vertex 5.533333333333333e+0 -5.533333333333333e+0 0e+0
      vertex 5.6e+0 -5.6e+0 0e+0
    endloop
  endfacet
  facet normal 0e+0 0e+0 1e+0
    outer loop
      vertex 5.466666666666667e+0 5.466666666666667e+0 0e+0
      vertex 5.533333333333333e+0 -5.533333333333333e+0 0e+0
      vertex 5.533333333333333e+0 5.533333333333333e+0 0e+0
    endloop
  endfacet
  facet normal 0e+0 0e+0 1e+0
    outer loop
      vertex 5.466666666666667e+0 5.466666666666667e+0 0e+0
      vertex 5.466666666666667e+0 -5.466666666666667e+0 0e+0
      vertex 5.533333333333333e+0 -5.533333333333333e+0 0e+0
    endloop
  endfacet
  facet normal 0e+0 0e+0 1e+0
    outer loop
      vertex 5.4e+0 5.4e+0 0e+0
      vertex 5.466666666666667e+0 -5.466666666666667e+0 0e+0
      vertex 5.466666666666667e+0 5.466666666666667e+0 0e+0
    endloop
  endfacet
  facet normal 0e+0 0e+0 1e+0
    outer loop
      vertex 5.4e+0 5.4e+0 0e+0
      vertex 5.4e+0 -5.4e+0 0e+0
      vertex 5.466666666666667e+0 -5.466666666666667e+0 0e+0
    endloop
  endfacet
  facet normal 0e+0 0e+0 1e+0
    outer loop
      vertex 5.4e+0 5.4e+0 0e+0
      vertex 5.333333333333333e+0 -5.333333333333333e+0 0e+0
      vertex 5.4e+0 -5.4e+0 0e+0
    endloop
  endfacet
  facet normal 0e+0 0e+0 1e+0
    outer loop
      vertex 5.4e+0 5.4e+0 0e+0
      vertex 5.333333333333333e+0 5.333333333333333e+0 0e+0
      vertex 5.333333333333333e+0 -5.333333333333333e+0 0e+0
    endloop
  endfacet
  facet normal 0e+0 0e+0 1e+0
    outer loop
      vertex 5.266666666666667e+0 5.266666666666667e+0 0e+0
      vertex 5.333333333333333e+0 -5.333333333333333e+0 0e+0
      vertex 5.333333333333333e+0 5.333333333333333e+0 0e+0
    endloop
  endfacet
  facet normal 0e+0 0e+0 1e+0
    outer loop
      vertex 5.266666666666667e+0 5.266666666666667e+0 0e+0
      vertex 5.266666666666667e+0 -5.266666666666667e+0 0e+0
      vertex 5.333333333333333e+0 -5.333333333333333e+0 0e+0
    endloop
  endfacet
  facet normal 0e+0 0e+0 1e+0
    outer loop
      vertex 5.2e+0 5.2e+0 0e+0
      vertex 5.266666666666667e+0 -5.266666666666667e+0 0e+0
      vertex 5.266666666666667e+0 5.266666666666667e+0 0e+0
    endloop
  endfacet
  facet normal 0e+0 0e+0 1e+0
    outer loop
      vertex 5.2e+0 5.2e+0 0e+0
      vertex 5.2e+0 -5.2e+0 0e+0
      vertex 5.266666666666667e+0 -5.266666666666667e+0 0e+0
    endloop
  endfacet
  facet normal 0e+0 0e+0 1e+0
    outer loop
      vertex 5.133333333333334e+0 5.133333333333334e+0 0e+0
      vertex 5.2e+0 -5.2e+0 0e+0
      vertex 5.2e+0 5.2e+0 0e+0
    endloop
  endfacet
  facet normal 0e+0 0e+0 1e+0
    outer loop
      vertex 5.133333333333334e+0 5.133333333333334e+0 0e+0
      vertex 5.133333333333334e+0 -5.133333333333334e+0 0e+0
      vertex 5.2e+0 -5.2e+0 0e+0
    endloop
  endfacet
  facet normal 0e+0 0e+0 1e+0
    outer loop
      vertex 5.133333333333334e+0 5.133333333333334e+0 0e+0
      vertex 5.066666666666666e+0 -5.066666666666666e+0 0e+0
      vertex 5.133333333333334e+0 -5.133333333333334e+0 0e+0
    endloop
  endfacet
  facet normal 0e+0 0e+0 1e+0
    outer loop
      vertex 5.133333333333334e+0 5.133333333333334e+0 0e+0
      vertex 5.066666666666666e+0 5.066666666666666e+0 0e+0
      vertex 5.066666666666666e+0 -5.066666666666666e+0 0e+0
    endloop
  endfacet
  facet normal 0e+0 0e+0 1e+0
    outer loop
      vertex 5.133333333333334e+0 5.133333333333334e+0 0e+0
      vertex -5.133333333333334e+0 5.133333333333334e+0 0e+0
      vertex 5.066666666666666e+0 5.066666666666666e+0 0e+0
    endloop
  endfacet
  facet normal 0e+0 0e+0 1e+0
    outer loop
      vertex 5.133333333333334e+0 5.133333333333334e+0 0e+0
      vertex -5.2e+0 5.2e+0 0e+0
      vertex -5.133333333333334e+0 5.133333333333334e+0 0e+0
    endloop
  endfacet
  facet normal 0e+0 0e+0 1e+0
    outer loop
      vertex 5.133333333333334e+0 5.133333333333334e+0 0e+0
      vertex -5.266666666666667e+0 5.266666666666667e+0 0e+0
      vertex -5.2e+0 5.2e+0 0e+0
    endloop
  endfacet
  facet normal 0e+0 0e+0 1e+0
    outer loop
      vertex 5.133333333333334e+0 5.133333333333334e+0 0e+0
      vertex -5.333333333333333e+0 5.333333333333333e+0 0e+0
      vertex -5.266666666666667e+0 5.266666666666667e+0 0e+0
    endloop
  endfacet
  facet normal 0e+0 0e+0 1e+0
    outer loop
      vertex 5.133333333333334e+0 5.133333333333334e+0 0e+0
      vertex -5.4e+0 5.4e+0 0e+0
      vertex -5.333333333333333e+0 5.333333333333333e+0 0e+0
    endloop
  endfacet
  facet normal 0e+0 0e+0 1e+0
    outer loop
      vertex 5.133333333333334e+0 5.133333333333334e+0 0e+0
      vertex -5.466666666666667e+0 5.466666666666667e+0 0e+0
      vertex -5.4e+0 5.4e+0 0e+0
    endloop
  endfacet
  facet normal 0e+0 0e+0 1e+0
    outer loop
      vertex 5.133333333333334e+0 5.133333333333334e+0 0e+0
      vertex -5.533333333333333e+0 5.533333333333333e+0 0e+0
      vertex -5.466666666666667e+0 5.466666666666667e+0 0e+0
    endloop
  endfacet
  facet normal 0e+0 0e+0 1e+0
    outer loop
      vertex 5.133333333333334e+0 5.133333333333334e+0 0e+0
      vertex -5.6e+0 5.6e+0 0e+0
      vertex -5.533333333333333e+0 5.533333333333333e+0 0e+0
    endloop
  endfacet
  facet normal 0e+0 0e+0 1e+0
    outer loop
      vertex 5.133333333333334e+0 5.133333333333334e+0 0e+0
      vertex -5.666666666666667e+0 5.666666666666667e+0 0e+0
      vertex -5.6e+0 5.6e+0 0e+0
    endloop
  endfacet
  facet normal 0e+0 0e+0 1e+0
    outer loop
      vertex 5.133333333333334e+0 5.133333333333334e+0 0e+0
      vertex -5.733333333333333e+0 5.733333333333333e+0 0e+0
      vertex -5.666666666666667e+0 5.666666666666667e+0 0e+0
    endloop
  endfacet
  facet normal 0e+0 0e+0 1e+0
    outer loop
      vertex 5.133333333333334e+0 5.133333333333334e+0 0e+0
      vertex -5.8e+0 5.8e+0 0e+0
      vertex -5.733333333333333e+0 5.733333333333333e+0 0e+0
    endloop
  endfacet
  facet normal 0e+0 0e+0 1e+0
    outer loop
      vertex 5.133333333333334e+0 5.133333333333334e+0 0e+0
      vertex -5.866666666666667e+0 5.866666666666667e+0 0e+0
      vertex -5.8e+0 5.8e+0 0e+0
    endloop
  endfacet
  facet normal 0e+0 0e+0 1e+0
    outer loop
      vertex -5.8e+0 5.8e+0 0e+0
      vertex -5.866666666666667e+0 5.866666666666667e+0 0e+0
      vertex -5.8e+0 -5.8e+0 0e+0
    endloop
  endfacet
  facet normal 0e+0 0e+0 1e+0
    outer loop
      vertex -5.8e+0 5.8e+0 0e+0
      vertex -5.8e+0 -5.8e+0 0e+0
      vertex -5.733333333333333e+0 5.733333333333333e+0 0e+0
    endloop
  endfacet
  facet normal 0e+0 0e+0 1e+0
    outer loop
      vertex -5.8e+0 -5.8e+0 0e+0
      vertex -5.733333333333333e+0 -5.733333333333333e+0 0e+0
      vertex -5.733333333333333e+0 5.733333333333333e+0 0e+0
    endloop
  endfacet
  facet normal 0e+0 0e+0 1e+0
    outer loop
      vertex 5.733333333333333e+0 -5.733333333333333e+0 0e+0
      vertex -5.733333333333333e+0 -5.733333333333333e+0 0e+0
      vertex -5.8e+0 -5.8e+0 0e+0
    endloop
  endfacet
  facet normal 0e+0 0e+0 1e+0
    outer loop
      vertex 5.733333333333333e+0 -5.733333333333333e+0 0e+0
      vertex 5.666666666666667e+0 -5.666666666666667e+0 0e+0
      vertex -5.733333333333333e+0 -5.733333333333333e+0 0e+0
    endloop
  endfacet
  facet normal 0e+0 0e+0 1e+0
    outer loop
      vertex 5.666666666666667e+0 -5.666666666666667e+0 0e+0
      vertex -5.666666666666667e+0 -5.666666666666667e+0 0e+0
      vertex -5.733333333333333e+0 -5.733333333333333e+0 0e+0
    endloop
  endfacet
  facet normal 0e+0 0e+0 1e+0
    outer loop
      vertex -5.6e+0 -5.6e+0 0e+0
      vertex -5.666666666666667e+0 -5.666666666666667e+0 0e+0
      vertex 5.666666666666667e+0 -5.666666666666667e+0 0e+0
    endloop
  endfacet
  facet normal 0e+0 0e+0 1e+0
    outer loop
      vertex -5.666666666666667e+0 5.666666666666667e+0 0e+0
      vertex -5.666666666666667e+0 -5.666666666666667e+0 0e+0
      vertex -5.6e+0 -5.6e+0 0e+0
    endloop
  endfacet
  facet normal 0e+0 0e+0 1e+0
    outer loop
      vertex -5.666666666666667e+0 5.666666666666667e+0 0e+0
      vertex -5.733333333333333e+0 5.733333333333333e+0 0e+0
      vertex -5.666666666666667e+0 -5.666666666666667e+0 0e+0
    endloop
  endfacet
  facet normal 0e+0 0e+0 1e+0
    outer loop
      vertex -5.733333333333333e+0 5.733333333333333e+0 0e+0
      vertex -5.733333333333333e+0 -5.733333333333333e+0 0e+0
      vertex -5.666666666666667e+0 -5.666666666666667e+0 0e+0
    endloop
  endfacet
  facet normal 0e+0 0e+0 1e+0
    outer loop
      vertex -5.6e+0 5.6e+0 0e+0
      vertex -5.666666666666667e+0 5.666666666666667e+0 0e+0
      vertex -5.6e+0 -5.6e+0 0e+0
    endloop
  endfacet
  facet normal 0e+0 0e+0 1e+0
    outer loop
      vertex -5.6e+0 5.6e+0 0e+0
      vertex -5.6e+0 -5.6e+0 0e+0
      vertex -5.533333333333333e+0 5.533333333333333e+0 0e+0
    endloop
  endfacet
  facet normal 0e+0 0e+0 1e+0
    outer loop
      vertex -5.6e+0 -5.6e+0 0e+0
      vertex -5.533333333333333e+0 -5.533333333333333e+0 0e+0
      vertex -5.533333333333333e+0 5.533333333333333e+0 0e+0
    endloop
  endfacet
  facet normal 0e+0 0e+0 1e+0
    outer loop
      vertex -5.533333333333333e+0 -5.533333333333333e+0 0e+0
      vertex -5.6e+0 -5.6e+0 0e+0
      vertex 5.6e+0 -5.6e+0 0e+0
    endloop
  endfacet
  facet normal 0e+0 0e+0 1e+0
    outer loop
      vertex 5.533333333333333e+0 -5.533333333333333e+0 0e+0
      vertex -5.533333333333333e+0 -5.533333333333333e+0 0e+0
      vertex 5.6e+0 -5.6e+0 0e+0
    endloop
  endfacet
  facet normal 0e+0 0e+0 1e+0
    outer loop
      vertex -5.466666666666667e+0 -5.466666666666667e+0 0e+0
      vertex -5.533333333333333e+0 -5.533333333333333e+0 0e+0
      vertex 5.533333333333333e+0 -5.533333333333333e+0 0e+0
    endloop
  endfacet
  facet normal 0e+0 0e+0 1e+0
    outer loop
      vertex -5.533333333333333e+0 -5.533333333333333e+0 0e+0
      vertex -5.466666666666667e+0 -5.466666666666667e+0 0e+0
      vertex -5.466666666666667e+0 5.466666666666667e+0 0e+0
    endloop
  endfacet
  facet normal 0e+0 0e+0 1e+0
    outer loop
      vertex -5.533333333333333e+0 5.533333333333333e+0 0e+0
      vertex -5.533333333333333e+0 -5.533333333333333e+0 0e+0
      vertex -5.466666666666667e+0 5.466666666666667e+0 0e+0
    endloop
  endfacet
  facet normal 0e+0 0e+0 1e+0
    outer loop
      vertex -5.466666666666667e+0 5.466666666666667e+0 0e+0
      vertex -5.466666666666667e+0 -5.466666666666667e+0 0e+0
      vertex -5.4e+0 5.4e+0 0e+0
    endloop
  endfacet
  facet normal 0e+0 0e+0 1e+0
    outer loop
      vertex -5.466666666666667e+0 -5.466666666666667e+0 0e+0
      vertex -5.4e+0 -5.4e+0 0e+0
      vertex -5.4e+0 5.4e+0 0e+0
    endloop
  endfacet
  facet normal 0e+0 0e+0 1e+0
    outer loop
      vertex -5.4e+0 -5.4e+0 0e+0
      vertex -5.466666666666667e+0 -5.466666666666667e+0 0e+0
      vertex 5.466666666666667e+0 -5.466666666666667e+0 0e+0
    endloop
  endfacet
  facet normal 0e+0 0e+0 1e+0
    outer loop
      vertex 5.4e+0 -5.4e+0 0e+0
      vertex -5.4e+0 -5.4e+0 0e+0
      vertex 5.466666666666667e+0 -5.466666666666667e+0 0e+0
    endloop
  endfacet
  facet normal 0e+0 0e+0 1e+0
    outer loop
      vertex -5.333333333333333e+0 -5.333333333333333e+0 0e+0
      vertex -5.4e+0 -5.4e+0 0e+0
      vertex 5.4e+0 -5.4e+0 0e+0
    endloop
  endfacet
  facet normal 0e+0 0e+0 1e+0
    outer loop
      vertex -5.4e+0 -5.4e+0 0e+0
      vertex -5.333333333333333e+0 -5.333333333333333e+0 0e+0
      vertex -5.333333333333333e+0 5.333333333333333e+0 0e+0
    endloop
  endfacet
  facet normal 0e+0 0e+0 1e+0
    outer loop
      vertex -5.4e+0 5.4e+0 0e+0
      vertex -5.4e+0 -5.4e+0 0e+0
      vertex -5.333333333333333e+0 5.333333333333333e+0 0e+0
    endloop
  endfacet
  facet normal 0e+0 0e+0 1e+0
    outer loop
      vertex -5.333333333333333e+0 5.333333333333333e+0 0e+0
      vertex -5.333333333333333e+0 -5.333333333333333e+0 0e+0
      vertex -5.266666666666667e+0 5.266666666666667e+0 0e+0
    endloop
  endfacet
  facet normal 0e+0 0e+0 1e+0
    outer loop
      vertex -5.333333333333333e+0 -5.333333333333333e+0 0e+0
      vertex -5.266666666666667e+0 -5.266666666666667e+0 0e+0
      vertex -5.266666666666667e+0 5.266666666666667e+0 0e+0
    endloop
  endfacet
  facet normal 0e+0 0e+0 1e+0
    outer loop
      vertex -5.266666666666667e+0 -5.266666666666667e+0 0e+0
      vertex -5.333333333333333e+0 -5.333333333333333e+0 0e+0
      vertex 5.333333333333333e+0 -5.333333333333333e+0 0e+0
    endloop
  endfacet
  facet normal 0e+0 0e+0 1e+0
    outer loop
      vertex 5.266666666666667e+0 -5.266666666666667e+0 0e+0
      vertex -5.266666666666667e+0 -5.266666666666667e+0 0e+0
      vertex 5.333333333333333e+0 -5.333333333333333e+0 0e+0
    endloop
  endfacet
  facet normal 0e+0 0e+0 1e+0
    outer loop
      vertex -5.2e+0 -5.2e+0 0e+0
      vertex -5.266666666666667e+0 -5.266666666666667e+0 0e+0
      vertex 5.266666666666667e+0 -5.266666666666667e+0 0e+0
    endloop
  endfacet
  facet normal 0e+0 0e+0 1e+0
    outer loop
      vertex -5.266666666666667e+0 -5.266666666666667e+0 0e+0
      vertex -5.2e+0 -5.2e+0 0e+0
      vertex -5.2e+0 5.2e+0 0e+0
    endloop
  endfacet
  facet normal 0e+0 0e+0 1e+0
    outer loop
      vertex -5.266666666666667e+0 5.266666666666667e+0 0e+0
      vertex -5.266666666666667e+0 -5.266666666666667e+0 0e+0
      vertex -5.2e+0 5.2e+0 0e+0
    endloop
  endfacet
  facet normal 0e+0 0e+0 1e+0
    outer loop
      vertex -5.2e+0 5.2e+0 0e+0
      vertex -5.2e+0 -5.2e+0 0e+0
      vertex -5.133333333333334e+0 5.133333333333334e+0 0e+0
    endloop
  endfacet
  facet normal 0e+0 0e+0 1e+0
    outer loop
      vertex -5.2e+0 -5.2e+0 0e+0
      vertex -5.133333333333334e+0 -5.133333333333334e+0 0e+0
      vertex -5.133333333333334e+0 5.133333333333334e+0 0e+0
    endloop
  endfacet
  facet normal 0e+0 0e+0 1e+0
    outer loop
      vertex -5.133333333333334e+0 -5.133333333333334e+0 0e+0
      vertex -5.2e+0 -5.2e+0 0e+0
      vertex 5.2e+0 -5.2e+0 0e+0
    endloop
  endfacet
  facet normal 0e+0 0e+0 1e+0
    outer loop
      vertex 5.133333333333334e+0 -5.133333333333334e+0 0e+0
      vertex -5.133333333333334e+0 -5.133333333333334e+0 0e+0
      vertex 5.2e+0 -5.2e+0 0e+0
    endloop
  endfacet
  facet normal 0e+0 0e+0 1e+0
    outer loop
      vertex -5.066666666666666e+0 -5.066666666666666e+0 0e+0
      vertex -5.133333333333334e+0 -5.133333333333334e+0 0e+0
      vertex 5.133333333333334e+0 -5.133333333333334e+0 0e+0
    endloop
  endfacet
  facet normal 0e+0 0e+0 1e+0
    outer loop
      vertex -5.133333333333334e+0 -5.133333333333334e+0 0e+0
      vertex -5.066666666666666e+0 -5.066666666666666e+0 0e+0
      vertex -5.066666666666666e+0 5.066666666666666e+0 0e+0
    endloop
  endfacet
  facet normal 0e+0 0e+0 1e+0
    outer loop
      vertex -5.133333333333334e+0 5.133333333333334e+0 0e+0
      vertex -5.133333333333334e+0 -5.133333333333334e+0 0e+0
      vertex -5.066666666666666e+0 5.066666666666666e+0 0e+0
    endloop
  endfacet
  facet normal 0e+0 0e+0 1e+0
    outer loop
      vertex -5.133333333333334e+0 5.133333333333334e+0 0e+0
      vertex -5.066666666666666e+0 5.066666666666666e+0 0e+0
      vertex 5.066666666666666e+0 5.066666666666666e+0 0e+0
    endloop
  endfacet
  facet normal 0e+0 0e+0 1e+0
    outer loop
      vertex -5.066666666666666e+0 5.066666666666666e+0 0e+0
      vertex -5e+0 5e+0 0e+0
      vertex 5.066666666666666e+0 5.066666666666666e+0 0e+0
    endloop
  endfacet
  facet normal 0e+0 0e+0 1e+0
    outer loop
      vertex -5.066666666666666e+0 5.066666666666666e+0 0e+0
      vertex -5.066666666666666e+0 -5.066666666666666e+0 0e+0
      vertex -5e+0 5e+0 0e+0
    endloop
  endfacet
  facet normal 0e+0 0e+0 1e+0
    outer loop
      vertex -5.066666666666666e+0 -5.066666666666666e+0 0e+0
      vertex -5e+0 -5e+0 0e+0
      vertex -5e+0 5e+0 0e+0
    endloop
  endfacet
  facet normal 0e+0 0e+0 1e+0
    outer loop
      vertex -5e+0 -5e+0 0e+0
      vertex -5.066666666666666e+0 -5.066666666666666e+0 0e+0
      vertex 5.066666666666666e+0 -5.066666666666666e+0 0e+0
    endloop
  endfacet
  facet normal 0e+0 0e+0 1e+0
    outer loop
      vertex 5e+0 -5e+0 0e+0
      vertex -5e+0 -5e+0 0e+0
      vertex 5.066666666666666e+0 -5.066666666666666e+0 0e+0
    endloop
  endfacet
  facet normal 0e+0 0e+0 1e+0
    outer loop
      vertex -5e+0 5e+0 0e+0
      vertex -5e+0 -5e+0 0e+0
      vertex 5e+0 -5e+0 0e+0
    endloop
  endfacet
  facet normal 0e+0 0e+0 1e+0
    outer loop
      vertex -5e+0 5e+0 0e+0
      vertex 5e+0 -5e+0 0e+0
      vertex 5e+0 5e+0 0e+0
    endloop
  endfacet
  facet normal 0e+0 0e+0 1e+0
    outer loop
      vertex -5e+0 5e+0 0e+0
      vertex 5e+0 5e+0 0e+0
      vertex 5.066666666666666e+0 5.066666666666666e+0 0e+0
    endloop
  endfacet
  facet normal 0e+0 0e+0 1e+0
    outer loop
      vertex 5e+0 5e+0 0e+0
      vertex 5.066666666666666e+0 -5.066666666666666e+0 0e+0
      vertex 5.066666666666666e+0 5.066666666666666e+0 0e+0
    endloop
  endfacet
  facet normal 0e+0 0e+0 1e+0
    outer loop
      vertex 5e+0 5e+0 0e+0
      vertex 5e+0 -5e+0 0e+0
      vertex 5.066666666666666e+0 -5.066666666666666e+0 0e+0
    endloop
  endfacet
  facet normal 0e+0 0e+0 1e+0
    outer loop
      vertex 5.066666666666666e+0 -5.066666666666666e+0 0e+0
      vertex -5.066666666666666e+0 -5.066666666666666e+0 0e+0
      vertex 5.133333333333334e+0 -5.133333333333334e+0 0e+0
    endloop
  endfacet
  facet normal 0e+0 0e+0 1e+0
    outer loop
      vertex 5.2e+0 -5.2e+0 0e+0
      vertex -5.2e+0 -5.2e+0 0e+0
      vertex 5.266666666666667e+0 -5.266666666666667e+0 0e+0
    endloop
  endfacet
  facet normal 0e+0 0e+0 1e+0
    outer loop
      vertex 5.333333333333333e+0 -5.333333333333333e+0 0e+0
      vertex -5.333333333333333e+0 -5.333333333333333e+0 0e+0
      vertex 5.4e+0 -5.4e+0 0e+0
    endloop
  endfacet
  facet normal 0e+0 0e+0 1e+0
    outer loop
      vertex 5.466666666666667e+0 -5.466666666666667e+0 0e+0
      vertex -5.466666666666667e+0 -5.466666666666667e+0 0e+0
      vertex 5.533333333333333e+0 -5.533333333333333e+0 0e+0
    endloop
  endfacet
  facet normal 0e+0 0e+0 1e+0
    outer loop
      vertex 5.6e+0 -5.6e+0 0e+0
      vertex -5.6e+0 -5.6e+0 0e+0
      vertex 5.666666666666667e+0 -5.666666666666667e+0 0e+0
    endloop
  endfacet
  facet normal 0e+0 0e+0 1e+0
    outer loop
      vertex 5.733333333333333e+0 5.733333333333333e+0 0e+0
      vertex 5.8e+0 -5.8e+0 0e+0
      vertex 5.8e+0 5.8e+0 0e+0
    endloop
  endfacet
  facet normal 0e+0 0e+0 1e+0
    outer loop
      vertex -5.933333333333334e+0 5.933333333333334e+0 0e+0
      vertex -5.933333333333334e+0 -5.933333333333334e+0 0e+0
      vertex -5.866666666666667e+0 -5.866666666666667e+0 0e+0
    endloop
  endfacet
  facet normal 0e+0 0e+0 1e+0
    outer loop
      vertex -7.5e+1 -7.5e+1 0e+0
      vertex -5.933333333333334e+0 -5.933333333333334e+0 0e+0
      vertex -5.933333333333334e+0 5.933333333333334e+0 0e+0
    endloop
  endfacet
  facet normal 0e+0 0e+0 1e+0
    outer loop
      vertex -5.933333333333334e+0 -5.933333333333334e+0 0e+0
      vertex -7.5e+1 -7.5e+1 0e+0
      vertex 7.5e+1 -7.5e+1 0e+0
    endloop
  endfacet
  facet normal 0e+0 0e+0 1e+0
    outer loop
      vertex -7.5e+1 7.5e+1 0e+0
      vertex -7.5e+1 -7.5e+1 0e+0
      vertex -5.933333333333334e+0 5.933333333333334e+0 0e+0
    endloop
  endfacet
endsolid