solid ground
  facet normal 0e+0 0e+0 1e+0
    outer loop
      vertex -7.5e+1 7.5e+1 0e+0
      vertex 4.666666666666667e+0 4.666666666666667e+0 0e+0
      vertex 7.5e+1 7.5e+1 0e+0
    endloop
  endfacet
  facet normal 0e+0 0e+0 1e+0
    outer loop
      vertex -7.5e+1 7.5e+1 0e+0
      vertex 4.333333333333333e+0 4.333333333333333e+0 0e+0
      vertex 4.666666666666667e+0 4.666666666666667e+0 0e+0
    endloop
  endfacet
  facet normal 0e+0 0e+0 1e+0
    outer loop
      vertex -7.5e+1 7.5e+1 0e+0
      vertex 4e+0 4e+0 0e+0
      vertex 4.333333333333333e+0 4.333333333333333e+0 0e+0
    endloop
  endfacet
  facet normal 0e+0 0e+0 1e+0
    outer loop
      vertex -7.5e+1 7.5e+1 0e+0
      vertex 3.6666666666666665e+0 3.6666666666666665e+0 0e+0
      vertex 4e+0 4e+0 0e+0
    endloop
  endfacet
  facet normal 0e+0 0e+0 1e+0
    outer loop
      vertex -7.5e+1 7.5e+1 0e+0
      vertex 3.3333333333333335e+0 3.3333333333333335e+0 0e+0
      vertex 3.6666666666666665e+0 3.6666666666666665e+0 0e+0
    endloop
  endfacet
  facet normal 0e+0 0e+0 1e+0
    outer loop
      vertex -7.5e+1 7.5e+1 0e+0
      vertex 3e+0 3e+0 0e+0
      vertex 3.3333333333333335e+0 3.3333333333333335e+0 0e+0
    endloop
  endfacet
  facet normal 0e+0 0e+0 1e+0
    outer loop
      vertex -7.5e+1 7.5e+1 0e+0
      vertex 2.6666666666666665e+0 2.6666666666666665e+0 0e+0
      vertex 3e+0 3e+0 0e+0
    endloop
  endfacet
  facet normal 0e+0 0e+0 1e+0
    outer loop
      vertex -7.5e+1 7.5e+1 0e+0
      vertex 2.3333333333333335e+0 2.3333333333333335e+0 0e+0
      vertex 2.6666666666666665e+0 2.6666666666666665e+0 0e+0
    endloop
  endfacet
  facet normal 0e+0 0e+0 1e+0
    outer loop
      vertex -7.5e+1 7.5e+1 0e+0
      vertex 2e+0 2e+0 0e+0
      vertex 2.3333333333333335e+0 2.3333333333333335e+0 0e+0
    endloop
  endfacet
  facet normal 0e+0 0e+0 1e+0
    outer loop
      vertex -7.5e+1 7.5e+1 0e+0
      vertex 1.6666666666666667e+0 1.6666666666666667e+0 0e+0
      vertex 2e+0 2e+0 0e+0
    endloop
  endfacet
  facet normal 0e+0 0e+0 1e+0
    outer loop
      vertex -7.5e+1 7.5e+1 0e+0
      vertex 1.3333333333333333e+0 1.3333333333333333e+0 0e+0
      vertex 1.6666666666666667e+0 1.6666666666666667e+0 0e+0
    endloop
  endfacet
  facet normal 0e+0 0e+0 1e+0
    outer loop
      vertex -7.5e+1 7.5e+1 0e+0
      vertex 1e+0 1e+0 0e+0
      vertex 1.3333333333333333e+0 1.3333333333333333e+0 0e+0
    endloop
  endfacet
  facet normal 0e+0 0e+0 1e+0
    outer loop
      vertex -7.5e+1 7.5e+1 0e+0
      vertex 6.666666666666666e-1 6.666666666666666e-1 0e+0
      vertex 1e+0 1e+0 0e+0
    endloop
  endfacet
  facet normal 0e+0 0e+0 1e+0
    outer loop
      vertex -7.5e+1 7.5e+1 0e+0
      vertex 3.333333333333333e-1 3.333333333333333e-1 0e+0
      vertex 6.666666666666666e-1 6.666666666666666e-1 0e+0
    endloop
  endfacet
  facet normal 0e+0 0e+0 1e+0
    outer loop
      vertex -7.5e+1 7.5e+1 0e+0
      vertex 0e+0 0e+0 0e+0
      vertex 3.333333333333333e-1 3.333333333333333e-1 0e+0
    endloop
  endfacet
  facet normal 0e+0 0e+0 1e+0
    outer loop
      vertex -7.5e+1 7.5e+1 0e+0
      vertex -7.5e+1 -7.5e+1 0e+0
      vertex 0e+0 0e+0 0e+0
    endloop
  endfacet
  facet normal 0e+0 0e+0 0e+0
    outer loop
      vertex -7.5e+1 -7.5e+1 0e+0
      vertex 0e+0 0e+0 0e+0
      vertex 0e+0 0e+0 0e+0
    endloop
  endfacet
  facet normal 0e+0 0e+0 0e+0
    outer loop
      vertex -7.5e+1 -7.5e+1 0e+0
      vertex 0e+0 0e+0 0e+0
      vertex 0e+0 0e+0 0e+0
    endloop
  endfacet
  facet normal 0e+0 0e+0 0e+0
    outer loop
      vertex -7.5e+1 -7.5e+1 0e+0
      vertex 0e+0 0e+0 0e+0
      vertex 0e+0 0e+0 0e+0
    endloop
  endfacet
  facet normal 0e+0 0e+0 1e+0
    outer loop
      vertex 0e+0 0e+0 0e+0
      vertex -7.5e+1 -7.5e+1 0e+0
      vertex 7.5e+1 -7.5e+1 0e+0
    endloop
  endfacet
  facet normal 0e+0 0e+0 0e+0
    outer loop
      vertex 0e+0 0e+0 0e+0
      vertex 0e+0 0e+0 0e+0
      vertex 7.5e+1 -7.5e+1 0e+0
    endloop
  endfacet
  facet normal 0e+0 0e+0 0e+0
    outer loop
      vertex 0e+0 0e+0 0e+0
      vertex 0e+0 0e+0 0e+0
      vertex 7.5e+1 -7.5e+1 0e+0
    endloop
  endfacet
  facet normal 0e+0 0e+0 0e+0
    outer loop
      vertex 0e+0 0e+0 0e+0
      vertex 0e+0 0e+0 0e+0
      vertex 7.5e+1 -7.5e+1 0e+0
    endloop
  endfacet
  facet normal 0e+0 0e+0 1e+0
    outer loop
      vertex 3.333333333333333e-1 3.333333333333333e-1 0e+0
      vertex 0e+0 0e+0 0e+0
      vertex 7.5e+1 -7.5e+1 0e+0
    endloop
  endfacet
  facet normal 0e+0 0e+0 0e+0
    outer loop
      vertex 0e+0 0e+0 0e+0
      vertex 3.333333333333333e-1 3.333333333333333e-1 0e+0
      vertex 3.333333333333333e-1 3.333333333333333e-1 0e+0
    endloop
  endfacet
  facet normal 0e+0 0e+0 0e+0
    outer loop
      vertex 0e+0 0e+0 0e+0
      vertex 3.333333333333333e-1 3.333333333333333e-1 0e+0
      vertex 3.333333333333333e-1 3.333333333333333e-1 0e+0
    endloop
  endfacet
  facet normal 0e+0 0e+0 0e+0
    outer loop
      vertex 0e+0 0e+0 0e+0
      vertex 3.333333333333333e-1 3.333333333333333e-1 0e+0
      vertex 3.333333333333333e-1 3.333333333333333e-1 0e+0
    endloop
  endfacet
  facet normal 0e+0 0e+0 0e+0
    outer loop
      vertex 3.333333333333333e-1 3.333333333333333e-1 0e+0
      vertex 3.333333333333333e-1 3.333333333333333e-1 0e+0
      vertex 7.5e+1 -7.5e+1 0e+0
    endloop
  endfacet
  facet normal 0e+0 0e+0 1e+0
    outer loop
      vertex 6.666666666666666e-1 6.666666666666666e-1 0e+0
      vertex 3.333333333333333e-1 3.333333333333333e-1 0e+0
      vertex 7.5e+1 -7.5e+1 0e+0
    endloop
  endfacet
  facet normal 0e+0 0e+0 0e+0
    outer loop
      vertex 3.333333333333333e-1 3.333333333333333e-1 0e+0
      vertex 6.666666666666666e-1 6.666666666666666e-1 0e+0
      vertex 6.666666666666666e-1 6.666666666666666e-1 0e+0
    endloop
  endfacet
  facet normal 0e+0 0e+0 0e+0
    outer loop
      vertex 3.333333333333333e-1 3.333333333333333e-1 0e+0
      vertex 6.666666666666666e-1 6.666666666666666e-1 0e+0
      vertex 6.666666666666666e-1 6.666666666666666e-1 0e+0
    endloop
  endfacet
  facet normal 0e+0 0e+0 0e+0
    outer loop
      vertex 3.333333333333333e-1 3.333333333333333e-1 0e+0
      vertex 6.666666666666666e-1 6.666666666666666e-1 0e+0
      vertex 6.666666666666666e-1 6.666666666666666e-1 0e+0
    endloop
  endfacet
  facet normal 0e+0 0e+0 0e+0
    outer loop
      vertex 6.666666666666666e-1 6.666666666666666e-1 0e+0
      vertex 6.666666666666666e-1 6.666666666666666e-1 0e+0
      vertex 7.5e+1 -7.5e+1 0e+0
    endloop
  endfacet
  facet normal 0e+0 0e+0 1e+0
    outer loop
      vertex 1e+0 1e+0 0e+0
      vertex 6.666666666666666e-1 6.666666666666666e-1 0e+0
      vertex 7.5e+1 -7.5e+1 0e+0
    endloop
  endfacet
  facet normal 0e+0 0e+0 0e+0
    outer loop
      vertex 6.666666666666666e-1 6.666666666666666e-1 0e+0
      vertex 1e+0 1e+0 0e+0
      vertex 1e+0 1e+0 0e+0
    endloop
  endfacet
  facet normal 0e+0 0e+0 0e+0
    outer loop
      vertex 6.666666666666666e-1 6.666666666666666e-1 0e+0
      vertex 1e+0 1e+0 0e+0
      vertex 1e+0 1e+0 0e+0
    endloop
  endfacet
  facet normal 0e+0 0e+0 0e+0
    outer loop
      vertex 6.666666666666666e-1 6.666666666666666e-1 0e+0
      vertex 1e+0 1e+0 0e+0
      vertex 1e+0 1e+0 0e+0
    endloop
  endfacet
  facet normal 0e+0 0e+0 0e+0
    outer loop
      vertex 1e+0 1e+0 0e+0
      vertex 1e+0 1e+0 0e+0
      vertex 7.5e+1 -7.5e+1 0e+0
    endloop
  endfacet
  facet normal 0e+0 0e+0 1e+0
    outer loop
      vertex 1.3333333333333333e+0 1.3333333333333333e+0 0e+0
      vertex 1e+0 1e+0 0e+0
      vertex 7.5e+1 -7.5e+1 0e+0
    endloop
  endfacet
  facet normal 0e+0 0e+0 0e+0
    outer loop
      vertex 1e+0 1e+0 0e+0
      vertex 1.3333333333333333e+0 1.3333333333333333e+0 0e+0
      vertex 1.3333333333333333e+0 1.3333333333333333e+0 0e+0
    endloop
  endfacet
  facet normal 0e+0 0e+0 0e+0
    outer loop
      vertex 1e+0 1e+0 0e+0
      vertex 1.3333333333333333e+0 1.3333333333333333e+0 0e+0
      vertex 1.3333333333333333e+0 1.3333333333333333e+0 0e+0
    endloop
  endfacet
  facet normal 0e+0 0e+0 0e+0
    outer loop
      vertex 1e+0 1e+0 0e+0
      vertex 1.3333333333333333e+0 1.3333333333333333e+0 0e+0
      vertex 1.3333333333333333e+0 1.3333333333333333e+0 0e+0
    endloop
  endfacet
  facet normal 0e+0 0e+0 0e+0
    outer loop
      vertex 1.3333333333333333e+0 1.3333333333333333e+0 0e+0
      vertex 1.3333333333333333e+0 1.3333333333333333e+0 0e+0
      vertex 7.5e+1 -7.5e+1 0e+0
    endloop
  endfacet
  facet normal 0e+0 0e+0 1e+0
    outer loop
      vertex 1.6666666666666667e+0 1.6666666666666667e+0 0e+0
      vertex 1.3333333333333333e+0 1.3333333333333333e+0 0e+0
      vertex 7.5e+1 -7.5e+1 0e+0
    endloop
  endfacet
  facet normal 0e+0 0e+0 0e+0
    outer loop
      vertex 1.3333333333333333e+0 1.3333333333333333e+0 0e+0
      vertex 1.6666666666666667e+0 1.6666666666666667e+0 0e+0
      vertex 1.6666666666666667e+0 1.6666666666666667e+0 0e+0
    endloop
  endfacet
  facet normal 0e+0 0e+0 0e+0
    outer loop
      vertex 1.3333333333333333e+0 1.3333333333333333e+0 0e+0
      vertex 1.6666666666666667e+0 1.6666666666666667e+0 0e+0
      vertex 1.6666666666666667e+0 1.6666666666666667e+0 0e+0
    endloop
  endfacet
  facet normal 0e+0 0e+0 0e+0
    outer loop
      vertex 1.3333333333333333e+0 1.3333333333333333e+0 0e+0
      vertex 1.6666666666666667e+0 1.6666666666666667e+0 0e+0
      vertex 1.6666666666666667e+0 1.6666666666666667e+0 0e+0
    endloop
  endfacet
  facet normal 0e+0 0e+0 0e+0
    outer loop
      vertex 1.6666666666666667e+0 1.6666666666666667e+0 0e+0
      vertex 1.6666666666666667e+0 1.6666666666666667e+0 0e+0
      vertex 7.5e+1 -7.5e+1 0e+0
    endloop
  endfacet
  facet normal 0e+0 0e+0 1e+0
    outer loop
      vertex 2e+0 2e+0 0e+0
      vertex 1.6666666666666667e+0 1.6666666666666667e+0 0e+0
      vertex 7.5e+1 -7.5e+1 0e+0
    endloop
  endfacet
  facet normal 0e+0 0e+0 0e+0
    outer loop
      vertex 1.6666666666666667e+0 1.6666666666666667e+0 0e+0
      vertex 2e+0 2e+0 0e+0
      vertex 2e+0 2e+0 0e+0
    endloop
  endfacet
  facet normal 0e+0 0e+0 0e+0
    outer loop
      vertex 1.6666666666666667e+0 1.6666666666666667e+0 0e+0
      vertex 2e+0 2e+0 0e+0
      vertex 2e+0 2e+0 0e+0
    endloop
  endfacet
  facet normal 0e+0 0e+0 0e+0
    outer loop
      vertex 1.6666666666666667e+0 1.6666666666666667e+0 0e+0
      vertex 2e+0 2e+0 0e+0
      vertex 2e+0 2e+0 0e+0
    endloop
  endfacet
  facet normal 0e+0 0e+0 0e+0
    outer loop
      vertex 2e+0 2e+0 0e+0
      vertex 2e+0 2e+0 0e+0
      vertex 7.5e+1 -7.5e+1 0e+0
    endloop
  endfacet
  facet normal 0e+0 0e+0 1e+0
    outer loop
      vertex 2.3333333333333335e+0 2.3333333333333335e+0 0e+0
      vertex 2e+0 2e+0 0e+0
      vertex 7.5e+1 -7.5e+1 0e+0
    endloop
  endfacet
  facet normal 0e+0 0e+0 0e+0
    outer loop
      vertex 2e+0 2e+0 0e+0
      vertex 2.3333333333333335e+0 2.3333333333333335e+0 0e+0
      vertex 2.3333333333333335e+0 2.3333333333333335e+0 0e+0
    endloop
  endfacet
  facet normal 0e+0 0e+0 0e+0
    outer loop
      vertex 2e+0 2e+0 0e+0
      vertex 2.3333333333333335e+0 2.3333333333333335e+0 0e+0
      vertex 2.3333333333333335e+0 2.3333333333333335e+0 0e+0
    endloop
  endfacet
  facet normal 0e+0 0e+0 0e+0
    outer loop
      vertex 2e+0 2e+0 0e+0
      vertex 2.3333333333333335e+0 2.3333333333333335e+0 0e+0
      vertex 2.3333333333333335e+0 2.3333333333333335e+0 0e+0
    endloop
  endfacet
  facet normal 0e+0 0e+0 0e+0
    outer loop
      vertex 2.3333333333333335e+0 2.3333333333333335e+0 0e+0
      vertex 2.3333333333333335e+0 2.3333333333333335e+0 0e+0
      vertex 7.5e+1 -7.5e+1 0e+0
    endloop
  endfacet
  facet normal 0e+0 0e+0 1e+0
    outer loop
      vertex 2.6666666666666665e+0 2.6666666666666665e+0 0e+0
      vertex 2.3333333333333335e+0 2.3333333333333335e+0 0e+0
      vertex 7.5e+1 -7.5e+1 0e+0
    endloop
  endfacet
  facet normal 0e+0 0e+0 0e+0
    outer loop
      vertex 2.3333333333333335e+0 2.3333333333333335e+0 0e+0
      vertex 2.6666666666666665e+0 2.6666666666666665e+0 0e+0
      vertex 2.6666666666666665e+0 2.6666666666666665e+0 0e+0
    endloop
  endfacet
  facet normal 0e+0 0e+0 0e+0
    outer loop
      vertex 2.3333333333333335e+0 2.3333333333333335e+0 0e+0
      vertex 2.6666666666666665e+0 2.6666666666666665e+0 0e+0
      vertex 2.6666666666666665e+0 2.6666666666666665e+0 0e+0
    endloop
  endfacet
  facet normal 0e+0 0e+0 0e+0
    outer loop
      vertex 2.3333333333333335e+0 2.3333333333333335e+0 0e+0
      vertex 2.6666666666666665e+0 2.6666666666666665e+0 0e+0
      vertex 2.6666666666666665e+0 2.6666666666666665e+0 0e+0
    endloop
  endfacet
  facet normal 0e+0 0e+0 0e+0
    outer loop
      vertex 2.6666666666666665e+0 2.6666666666666665e+0 0e+0
      vertex 2.6666666666666665e+0 2.6666666666666665e+0 0e+0
      vertex 7.5e+1 -7.5e+1 0e+0
    endloop
  endfacet
  facet normal 0e+0 0e+0 1e+0
    outer loop
      vertex 3e+0 3e+0 0e+0
      vertex 2.6666666666666665e+0 2.6666666666666665e+0 0e+0
      vertex 7.5e+1 -7.5e+1 0e+0
    endloop
  endfacet
  facet normal 0e+0 0e+0 0e+0
    outer loop
      vertex 2.6666666666666665e+0 2.6666666666666665e+0 0e+0
      vertex 3e+0 3e+0 0e+0
      vertex 3e+0 3e+0 0e+0
    endloop
  endfacet
  facet normal 0e+0 0e+0 0e+0
    outer loop
      vertex 2.6666666666666665e+0 2.6666666666666665e+0 0e+0
      vertex 3e+0 3e+0 0e+0
      vertex 3e+0 3e+0 0e+0
    endloop
  endfacet
  facet normal 0e+0 0e+0 0e+0
    outer loop
      vertex 2.6666666666666665e+0 2.6666666666666665e+0 0e+0
      vertex 3e+0 3e+0 0e+0
      vertex 3e+0 3e+0 0e+0
    endloop
  endfacet
  facet normal 0e+0 0e+0 0e+0
    outer loop
      vertex 3e+0 3e+0 0e+0
      vertex 3e+0 3e+0 0e+0
      vertex 7.5e+1 -7.5e+1 0e+0
    endloop
  endfacet
  facet normal 0e+0 0e+0 1e+0
    outer loop
      vertex 3.3333333333333335e+0 3.3333333333333335e+0 0e+0
      vertex 3e+0 3e+0 0e+0
      vertex 7.5e+1 -7.5e+1 0e+0
    endloop
  endfacet
  facet normal 0e+0 0e+0 0e+0
    outer loop
      vertex 3e+0 3e+0 0e+0
      vertex 3.3333333333333335e+0 3.3333333333333335e+0 0e+0
      vertex 3.3333333333333335e+0 3.3333333333333335e+0 0e+0
    endloop
  endfacet
  facet normal 0e+0 0e+0 0e+0
    outer loop
      vertex 3e+0 3e+0 0e+0
      vertex 3.3333333333333335e+0 3.3333333333333335e+0 0e+0
      vertex 3.3333333333333335e+0 3.3333333333333335e+0 0e+0
    endloop
  endfacet
  facet normal 0e+0 0e+0 0e+0
    outer loop
      vertex 3e+0 3e+0 0e+0
      vertex 3.3333333333333335e+0 3.3333333333333335e+0 0e+0
      vertex 3.3333333333333335e+0 3.3333333333333335e+0 0e+0
    endloop
  endfacet
  facet normal 0e+0 0e+0 0e+0
    outer loop
      vertex 3.3333333333333335e+0 3.3333333333333335e+0 0e+0
      vertex 3.3333333333333335e+0 3.3333333333333335e+0 0e+0
      vertex 7.5e+1 -7.5e+1 0e+0
    endloop
  endfacet
  facet normal 0e+0 0e+0 1e+0
    outer loop
      vertex 3.6666666666666665e+0 3.6666666666666665e+0 0e+0
      vertex 3.3333333333333335e+0 3.3333333333333335e+0 0e+0
      vertex 7.5e+1 -7.5e+1 0e+0
    endloop
  endfacet
  facet normal 0e+0 0e+0 0e+0
    outer loop
      vertex 3.3333333333333335e+0 3.3333333333333335e+0 0e+0
      vertex 3.6666666666666665e+0 3.6666666666666665e+0 0e+0
      vertex 3.6666666666666665e+0 3.6666666666666665e+0 0e+0
    endloop
  endfacet
  facet normal 0e+0 0e+0 0e+0
    outer loop
      vertex 3.3333333333333335e+0 3.3333333333333335e+0 0e+0
      vertex 3.6666666666666665e+0 3.6666666666666665e+0 0e+0
      vertex 3.6666666666666665e+0 3.6666666666666665e+0 0e+0
    endloop
  endfacet
  facet normal 0e+0 0e+0 0e+0
    outer loop
      vertex 3.3333333333333335e+0 3.3333333333333335e+0 0e+0
      vertex 3.6666666666666665e+0 3.6666666666666665e+0 0e+0
      vertex 3.6666666666666665e+0 3.6666666666666665e+0 0e+0
    endloop
  endfacet
  facet normal 0e+0 0e+0 0e+0
    outer loop
      vertex 3.6666666666666665e+0 3.6666666666666665e+0 0e+0
      vertex 3.6666666666666665e+0 3.6666666666666665e+0 0e+0
      vertex 7.5e+1 -7.5e+1 0e+0
    endloop
  endfacet
  facet normal 0e+0 0e+0 1e+0
    outer loop
      vertex 4e+0 4e+0 0e+0
      vertex 3.6666666666666665e+0 3.6666666666666665e+0 0e+0
      vertex 7.5e+1 -7.5e+1 0e+0
    endloop
  endfacet
  facet normal 0e+0 0e+0 0e+0
    outer loop
      vertex 3.6666666666666665e+0 3.6666666666666665e+0 0e+0
      vertex 4e+0 4e+0 0e+0
      vertex 4e+0 4e+0 0e+0
    endloop
  endfacet
  facet normal 0e+0 0e+0 0e+0
    outer loop
      vertex 3.6666666666666665e+0 3.6666666666666665e+0 0e+0
      vertex 4e+0 4e+0 0e+0
      vertex 4e+0 4e+0 0e+0
    endloop
  endfacet
  facet normal 0e+0 0e+0 0e+0
    outer loop
      vertex 3.6666666666666665e+0 3.6666666666666665e+0 0e+0
      vertex 4e+0 4e+0 0e+0
      vertex 4e+0 4e+0 0e+0
    endloop
  endfacet
  facet normal 0e+0 0e+0 0e+0
    outer loop
      vertex 4e+0 4e+0 0e+0
      vertex 4e+0 4e+0 0e+0
      vertex 7.5e+1 -7.5e+1 0e+0
    endloop
  endfacet
  facet normal 0e+0 0e+0 1e+0
    outer loop
      vertex 4.333333333333333e+0 4.333333333333333e+0 0e+0
      vertex 4e+0 4e+0 0e+0
      vertex 7.5e+1 -7.5e+1 0e+0
    endloop
  endfacet
  facet normal 0e+0 0e+0 0e+0
    outer loop
      vertex 4e+0 4e+0 0e+0
      vertex 4.333333333333333e+0 4.333333333333333e+0 0e+0
      vertex 4.333333333333333e+0 4.333333333333333e+0 0e+0
    endloop
  endfacet
  facet normal 0e+0 0e+0 0e+0
    outer loop
      vertex 4e+0 4e+0 0e+0
      vertex 4.333333333333333e+0 4.333333333333333e+0 0e+0
      vertex 4.333333333333333e+0 4.333333333333333e+0 0e+0
    endloop
  endfacet
  facet normal 0e+0 0e+0 0e+0
    outer loop
      vertex 4e+0 4e+0 0e+0
      vertex 4.333333333333333e+0 4.333333333333333e+0 0e+0
      vertex 4.333333333333333e+0 4.333333333333333e+0 0e+0
    endloop
  endfacet
  facet normal 0e+0 0e+0 0e+0
    outer loop
      vertex 4.333333333333333e+0 4.333333333333333e+0 0e+0
      vertex 4.333333333333333e+0 4.333333333333333e+0 0e+0
      vertex 7.5e+1 -7.5e+1 0e+0
    endloop
  endfacet
  facet normal 0e+0 0e+0 1e+0
    outer loop
      vertex 4.666666666666667e+0 4.666666666666667e+0 0e+0
      vertex 4.333333333333333e+0 4.333333333333333e+0 0e+0
      vertex 7.5e+1 -7.5e+1 0e+0
    endloop
  endfacet
  facet normal 0e+0 0e+0 0e+0
    outer loop
      vertex 4.333333333333333e+0 4.333333333333333e+0 0e+0
      vertex 4.666666666666667e+0 4.666666666666667e+0 0e+0
      vertex 4.666666666666667e+0 4.666666666666667e+0 0e+0
    endloop
  endfacet
  facet normal 0e+0 0e+0 0e+0
    outer loop
      vertex 4.333333333333333e+0 4.333333333333333e+0 0e+0
      vertex 4.666666666666667e+0 4.666666666666667e+0 0e+0
      vertex 4.666666666666667e+0 4.666666666666667e+0 0e+0
    endloop
  endfacet
  facet normal 0e+0 0e+0 0e+0
    outer loop
      vertex 4.333333333333333e+0 4.333333333333333e+0 0e+0
      vertex 4.666666666666667e+0 4.666666666666667e+0 0e+0
      vertex 4.666666666666667e+0 4.666666666666667e+0 0e+0
    endloop
  endfacet
  facet normal 0e+0 0e+0 0e+0
    outer loop
      vertex 4.666666666666667e+0 4.666666666666667e+0 0e+0
      vertex 4.666666666666667e+0 4.666666666666667e+0 0e+0
      vertex 7.5e+1 -7.5e+1 0e+0
    endloop
  endfacet
  facet normal 0e+0 0e+0 1e+0
    outer loop
      vertex 4.666666666666667e+0 4.666666666666667e+0 0e+0
      vertex 7.5e+1 -7.5e+1 0e+0
      vertex 7.5e+1 7.5e+1 0e+0
    endloop
  endfacet
  facet normal 0e+0 0e+0 0e+0
    outer loop
      vertex 4.666666666666667e+0 4.666666666666667e+0 0e+0
      vertex 4.666666666666667e+0 4.666666666666667e+0 0e+0
      vertex 7.5e+1 -7.5e+1 0e+0
    endloop
  endfacet
  facet normal 0e+0 0e+0 0e+0
    outer loop
      vertex 4.666666666666667e+0 4.666666666666667e+0 0e+0
      vertex 4.666666666666667e+0 4.666666666666667e+0 0e+0
      vertex 7.5e+1 -7.5e+1 0e+0
    endloop
  endfacet
  facet normal 0e+0 0e+0 0e+0
    outer loop
      vertex 4.333333333333333e+0 4.333333333333333e+0 0e+0
      vertex 4.333333333333333e+0 4.333333333333333e+0 0e+0
      vertex 7.5e+1 -7.5e+1 0e+0
    endloop
  endfacet
  facet normal 0e+0 0e+0 0e+0
    outer loop
      vertex 4.333333333333333e+0 4.333333333333333e+0 0e+0
      vertex 4.333333333333333e+0 4.333333333333333e+0 0e+0
      vertex 7.5e+1 -7.5e+1 0e+0
    endloop
  endfacet
  facet normal 0e+0 0e+0 0e+0
    outer loop
      vertex 4e+0 4e+0 0e+0
      vertex 4e+0 4e+0 0e+0
      vertex 7.5e+1 -7.5e+1 0e+0
    endloop
  endfacet
  facet normal 0e+0 0e+0 0e+0
    outer loop
      vertex 4e+0 4e+0 0e+0
      vertex 4e+0 4e+0 0e+0
      vertex 7.5e+1 -7.5e+1 0e+0
    endloop
  endfacet
  facet normal 0e+0 0e+0 0e+0
    outer loop
      vertex 3.6666666666666665e+0 3.6666666666666665e+0 0e+0
      vertex 3.6666666666666665e+0 3.6666666666666665e+0 0e+0
      vertex 7.5e+1 -7.5e+1 0e+0
    endloop
  endfacet
  facet normal 0e+0 0e+0 0e+0
    outer loop
      vertex 3.6666666666666665e+0 3.6666666666666665e+0 0e+0
      vertex 3.6666666666666665e+0 3.6666666666666665e+0 0e+0
      vertex 7.5e+1 -7.5e+1 0e+0
    endloop
  endfacet
  facet normal 0e+0 0e+0 0e+0
    outer loop
      vertex 3.3333333333333335e+0 3.3333333333333335e+0 0e+0
      vertex 3.3333333333333335e+0 3.3333333333333335e+0 0e+0
      vertex 7.5e+1 -7.5e+1 0e+0
    endloop
  endfacet
  facet normal 0e+0 0e+0 0e+0
    outer loop
      vertex 3.3333333333333335e+0 3.3333333333333335e+0 0e+0
      vertex 3.3333333333333335e+0 3.3333333333333335e+0 0e+0
      vertex 7.5e+1 -7.5e+1 0e+0
    endloop
  endfacet
  facet normal 0e+0 0e+0 0e+0
    outer loop
      vertex 3e+0 3e+0 0e+0
      vertex 3e+0 3e+0 0e+0
      vertex 7.5e+1 -7.5e+1 0e+0
    endloop
  endfacet
  facet normal 0e+0 0e+0 0e+0
    outer loop
      vertex 3e+0 3e+0 0e+0
      vertex 3e+0 3e+0 0e+0
      vertex 7.5e+1 -7.5e+1 0e+0
    endloop
  endfacet
  facet normal 0e+0 0e+0 0e+0
    outer loop
      vertex 2.6666666666666665e+0 2.6666666666666665e+0 0e+0
      vertex 2.6666666666666665e+0 2.6666666666666665e+0 0e+0
      vertex 7.5e+1 -7.5e+1 0e+0
    endloop
  endfacet
  facet normal 0e+0 0e+0 0e+0
    outer loop
      vertex 2.6666666666666665e+0 2.6666666666666665e+0 0e+0
      vertex 2.6666666666666665e+0 2.6666666666666665e+0 0e+0
      vertex 7.5e+1 -7.5e+1 0e+0
    endloop
  endfacet
  facet normal 0e+0 0e+0 0e+0
    outer loop
      vertex 2.3333333333333335e+0 2.3333333333333335e+0 0e+0
      vertex 2.3333333333333335e+0 2.3333333333333335e+0 0e+0
      vertex 7.5e+1 -7.5e+1 0e+0
    endloop
  endfacet
  facet normal 0e+0 0e+0 0e+0
    outer loop
      vertex 2.3333333333333335e+0 2.3333333333333335e+0 0e+0
      vertex 2.3333333333333335e+0 2.3333333333333335e+0 0e+0
      vertex 7.5e+1 -7.5e+1 0e+0
    endloop
  endfacet
  facet normal 0e+0 0e+0 0e+0
    outer loop
      vertex 2e+0 2e+0 0e+0
      vertex 2e+0 2e+0 0e+0
      vertex 7.5e+1 -7.5e+1 0e+0
    endloop
  endfacet
  facet normal 0e+0 0e+0 0e+0
    outer loop
      vertex 2e+0 2e+0 0e+0
      vertex 2e+0 2e+0 0e+0
      vertex 7.5e+1 -7.5e+1 0e+0
    endloop
  endfacet
  facet normal 0e+0 0e+0 0e+0
    outer loop
      vertex 1.6666666666666667e+0 1.6666666666666667e+0 0e+0
      vertex 1.6666666666666667e+0 1.6666666666666667e+0 0e+0
      vertex 7.5e+1 -7.5e+1 0e+0
    endloop
  endfacet
  facet normal 0e+0 0e+0 0e+0
    outer loop
      vertex 1.6666666666666667e+0 1.6666666666666667e+0 0e+0
      vertex 1.6666666666666667e+0 1.6666666666666667e+0 0e+0
      vertex 7.5e+1 -7.5e+1 0e+0
    endloop
  endfacet
  facet normal 0e+0 0e+0 0e+0
    outer loop
      vertex 1.3333333333333333e+0 1.3333333333333333e+0 0e+0
      vertex 1.3333333333333333e+0 1.3333333333333333e+0 0e+0
      vertex 7.5e+1 -7.5e+1 0e+0
    endloop
  endfacet
  facet normal 0e+0 0e+0 0e+0
    outer loop
      vertex 1.3333333333333333e+0 1.3333333333333333e+0 0e+0
      vertex 1.3333333333333333e+0 1.3333333333333333e+0 0e+0
      vertex 7.5e+1 -7.5e+1 0e+0
    endloop
  endfacet
  facet normal 0e+0 0e+0 0e+0
    outer loop
      vertex 1e+0 1e+0 0e+0
      vertex 1e+0 1e+0 0e+0
      vertex 7.5e+1 -7.5e+1 0e+0
    endloop
  endfacet
  facet normal 0e+0 0e+0 0e+0
    outer loop
      vertex 1e+0 1e+0 0e+0
      vertex 1e+0 1e+0 0e+0
      vertex 7.5e+1 -7.5e+1 0e+0
    endloop
  endfacet
  facet normal 0e+0 0e+0 0e+0
    outer loop
      vertex 6.666666666666666e-1 6.666666666666666e-1 0e+0
      vertex 6.666666666666666e-1 6.666666666666666e-1 0e+0
      vertex 7.5e+1 -7.5e+1 0e+0
    endloop
  endfacet
  facet normal 0e+0 0e+0 0e+0
    outer loop
      vertex 6.666666666666666e-1 6.666666666666666e-1 0e+0
      vertex 6.666666666666666e-1 6.666666666666666e-1 0e+0
      vertex 7.5e+1 -7.5e+1 0e+0
    endloop
  endfacet
  facet normal 0e+0 0e+0 0e+0
    outer loop
      vertex 3.333333333333333e-1 3.333333333333333e-1 0e+0
      vertex 3.333333333333333e-1 3.333333333333333e-1 0e+0
      vertex 7.5e+1 -7.5e+1 0e+0
    endloop
  endfacet
  facet normal 0e+0 0e+0 0e+0
    outer loop
      vertex 3.333333333333333e-1 3.333333333333333e-1 0e+0
      vertex 3.333333333333333e-1 3.333333333333333e-1 0e+0
      vertex 7.5e+1 -7.5e+1 0e+0
    endloop
  endfacet
endsolid