solid mitchelBldg-V5
facet normal 0.70710678118655 -0.707106781186545 -0.0
outer loop
vertex -30.3717878677168 -65.3476114866893 0.0
vertex -33.6483213079141 -68.6241449268867 14.0
vertex -33.6483213079141 -68.6241449268867 0.0
endloop
endfacet
facet normal 0.70710678118655 -0.707106781186545 -0.0
outer loop
vertex -33.6483213079141 -68.6241449268867 14.0
vertex -30.3717878677168 -65.3476114866893 0.0
vertex -30.3717878677168 -65.3476114866893 14.0
endloop
endfacet
facet normal -0.707106781186547 -0.707106781186547 0.0
outer loop
vertex -30.3717878677168 -65.3476114866893 14.0
vertex -13.2668748308142 -82.452524523592 0.0
vertex -13.2668748308142 -82.452524523592 14.0
endloop
endfacet
facet normal -0.707106781186547 -0.707106781186547 0.0
outer loop
vertex -13.2668748308142 -82.452524523592 0.0
vertex -30.3717878677168 -65.3476114866893 14.0
vertex -30.3717878677168 -65.3476114866893 0.0
endloop
endfacet
facet normal 0.707106781186547 -0.707106781186548 0.0
outer loop
vertex 1.1342612586522 -68.0513884341256 14.0
vertex -13.2668748308142 -82.452524523592 0.0
vertex 1.1342612586522 -68.0513884341256 0.0
endloop
endfacet
facet normal 0.707106781186547 -0.707106781186548 0.0
outer loop
vertex -13.2668748308142 -82.452524523592 0.0
vertex 1.1342612586522 -68.0513884341256 14.0
vertex -13.2668748308142 -82.452524523592 14.0
endloop
endfacet
facet normal 0.707106781186548 0.707106781186547 -0.0
outer loop
vertex -46.2418930808466 -20.6752340946268 0.0
vertex 1.1342612586522 -68.0513884341256 14.0
vertex 1.1342612586522 -68.0513884341256 0.0
endloop
endfacet
facet normal 0.707106781186548 0.707106781186547 -0.0
outer loop
vertex 1.1342612586522 -68.0513884341256 14.0
vertex -46.2418930808466 -20.6752340946268 0.0
vertex -46.2418930808466 -20.6752340946268 14.0
endloop
endfacet
facet normal -0.70710678118655 0.707106781186545 0.0
outer loop
vertex -46.2418930808466 -20.6752340946268 14.0
vertex -60.6430291703129 -35.0763701840932 0.0
vertex -60.6430291703129 -35.0763701840932 14.0
endloop
endfacet
facet normal -0.70710678118655 0.707106781186545 0.0
outer loop
vertex -60.6430291703129 -35.0763701840932 0.0
vertex -46.2418930808466 -20.6752340946268 14.0
vertex -46.2418930808466 -20.6752340946268 0.0
endloop
endfacet
facet normal -0.707106781186548 -0.707106781186547 0.0
outer loop
vertex -60.6430291703129 -35.0763701840932 14.0
vertex -41.5692390567133 -54.1501602976929 0.0
vertex -41.5692390567133 -54.1501602976929 14.0
endloop
endfacet
facet normal -0.707106781186548 -0.707106781186547 0.0
outer loop
vertex -41.5692390567133 -54.1501602976929 0.0
vertex -60.6430291703129 -35.0763701840932 14.0
vertex -60.6430291703129 -35.0763701840932 0.0
endloop
endfacet
facet normal -0.707106781186549 0.707106781186546 0.0
outer loop
vertex -41.5692390567133 -54.1501602976929 14.0
vertex -44.8457724969106 -57.4266937378902 0.0
vertex -44.8457724969106 -57.4266937378902 14.0
endloop
endfacet
facet normal -0.707106781186549 0.707106781186546 0.0
outer loop
vertex -44.8457724969106 -57.4266937378902 0.0
vertex -41.5692390567133 -54.1501602976929 14.0
vertex -41.5692390567133 -54.1501602976929 0.0
endloop
endfacet
facet normal -0.707106781186547 -0.707106781186548 0.0
outer loop
vertex -33.6483213079141 -68.6241449268867 14.0
vertex -44.8457724969106 -57.4266937378902 0.0
vertex -33.6483213079141 -68.6241449268867 0.0
endloop
endfacet
facet normal -0.707106781186547 -0.707106781186548 0.0
outer loop
vertex -44.8457724969106 -57.4266937378902 0.0
vertex -33.6483213079141 -68.6241449268867 14.0
vertex -44.8457724969106 -57.4266937378902 14.0
endloop
endfacet
facet normal -0.0 -0.0 1.0
outer loop
vertex -33.6483213079141 -68.6241449268867 14.0
vertex -41.5692390567133 -54.1501602976929 14.0
vertex -44.8457724969106 -57.4266937378902 14.0
endloop
endfacet
facet normal -0.0 -0.0 1.0
outer loop
vertex -41.5692390567133 -54.1501602976929 14.0
vertex -46.2418930808466 -20.6752340946268 14.0
vertex -60.6430291703129 -35.0763701840932 14.0
endloop
endfacet
facet normal -0.0 -0.0 1.0
outer loop
vertex -46.2418930808466 -20.6752340946268 14.0
vertex -41.5692390567133 -54.1501602976929 14.0
vertex 1.1342612586522 -68.0513884341256 14.0
endloop
endfacet
facet normal -0.0 -0.0 1.0
outer loop
vertex 1.1342612586522 -68.0513884341256 14.0
vertex -41.5692390567133 -54.1501602976929 14.0
vertex -30.3717878677168 -65.3476114866893 14.0
endloop
endfacet
facet normal -0.0 -0.0 1.0
outer loop
vertex -30.3717878677168 -65.3476114866893 14.0
vertex -41.5692390567133 -54.1501602976929 14.0
vertex -33.6483213079141 -68.6241449268867 14.0
endloop
endfacet
facet normal -0.0 -0.0 1.0
outer loop
vertex 1.1342612586522 -68.0513884341256 14.0
vertex -30.3717878677168 -65.3476114866893 14.0
vertex -13.2668748308142 -82.452524523592 14.0
endloop
endfacet
facet normal -0.707106781186545 -0.70710678118655 0.0
outer loop
vertex 94.9832348484064 32.5945116134858 14.0
vertex 47.6070805089076 79.9706659529843 0.0
vertex 94.9832348484064 32.5945116134858 0.0
endloop
endfacet
facet normal -0.707106781186545 -0.70710678118655 0.0
outer loop
vertex 47.6070805089076 79.9706659529843 0.0
vertex 94.9832348484064 32.5945116134858 14.0
vertex 47.6070805089076 79.9706659529843 14.0
endloop
endfacet
facet normal 0.707106781186541 -0.707106781186554 0.0
outer loop
vertex 110.36508238302 47.9763591480992 14.0
vertex 94.9832348484064 32.5945116134858 0.0
vertex 110.36508238302 47.9763591480992 0.0
endloop
endfacet
facet normal 0.707106781186541 -0.707106781186554 0.0
outer loop
vertex 94.9832348484064 32.5945116134858 0.0
vertex 110.36508238302 47.9763591480992 14.0
vertex 94.9832348484064 32.5945116134858 14.0
endloop
endfacet
facet normal 0.707106781186546 0.707106781186549 -0.0
outer loop
vertex 90.7500849065596 67.5913566245596 14.0
vertex 110.36508238302 47.9763591480992 0.0
vertex 90.7500849065596 67.5913566245596 0.0
endloop
endfacet
facet normal 0.707106781186546 0.707106781186549 -0.0
outer loop
vertex 110.36508238302 47.9763591480992 0.0
vertex 90.7500849065596 67.5913566245596 14.0
vertex 110.36508238302 47.9763591480992 14.0
endloop
endfacet
facet normal 0.707106781186569 -0.707106781186526 -0.0
outer loop
vertex 93.0459069016095 69.8871786196096 0.0
vertex 90.7500849065596 67.5913566245596 14.0
vertex 90.7500849065596 67.5913566245596 0.0
endloop
endfacet
facet normal 0.707106781186569 -0.707106781186526 -0.0
outer loop
vertex 90.7500849065596 67.5913566245596 14.0
vertex 93.0459069016095 69.8871786196096 0.0
vertex 93.0459069016095 69.8871786196096 14.0
endloop
endfacet
facet normal 0.707106781186553 0.707106781186543 -0.0
outer loop
vertex 81.676143545056 81.2569419761632 0.0
vertex 93.0459069016095 69.8871786196096 14.0
vertex 93.0459069016095 69.8871786196096 0.0
endloop
endfacet
facet normal 0.707106781186553 0.707106781186543 -0.0
outer loop
vertex 93.0459069016095 69.8871786196096 14.0
vertex 81.676143545056 81.2569419761632 0.0
vertex 81.676143545056 81.2569419761632 14.0
endloop
endfacet
facet normal -0.70710678118654 0.707106781186555 -0.0
outer loop
vertex 79.3803215500059 78.9611199811132 14.0
vertex 81.676143545056 81.2569419761632 0.0
vertex 79.3803215500059 78.9611199811132 0.0
endloop
endfacet
facet normal -0.70710678118654 0.707106781186555 -0.0
outer loop
vertex 81.676143545056 81.2569419761632 0.0
vertex 79.3803215500059 78.9611199811132 14.0
vertex 81.676143545056 81.2569419761632 14.0
endloop
endfacet
facet normal 0.707106781186551 0.707106781186544 -0.0
outer loop
vertex 62.9889280435212 95.3525134875981 0.0
vertex 79.3803215500059 78.9611199811132 14.0
vertex 79.3803215500059 78.9611199811132 0.0
endloop
endfacet
facet normal 0.707106781186551 0.707106781186544 -0.0
outer loop
vertex 79.3803215500059 78.9611199811132 14.0
vertex 62.9889280435212 95.3525134875981 0.0
vertex 62.9889280435212 95.3525134875981 14.0
endloop
endfacet
facet normal -0.707106781186549 0.707106781186546 0.0
outer loop
vertex 62.9889280435212 95.3525134875981 14.0
vertex 47.6070805089076 79.9706659529843 0.0
vertex 47.6070805089076 79.9706659529843 14.0
endloop
endfacet
facet normal -0.707106781186549 0.707106781186546 0.0
outer loop
vertex 47.6070805089076 79.9706659529843 0.0
vertex 62.9889280435212 95.3525134875981 14.0
vertex 62.9889280435212 95.3525134875981 0.0
endloop
endfacet
facet normal -0.0 -0.0 1.0
outer loop
vertex 94.9832348484064 32.5945116134858 14.0
vertex 62.9889280435212 95.3525134875981 14.0
vertex 47.6070805089076 79.9706659529843 14.0
endloop
endfacet
facet normal -0.0 -0.0 1.0
outer loop
vertex 62.9889280435212 95.3525134875981 14.0
vertex 94.9832348484064 32.5945116134858 14.0
vertex 79.3803215500059 78.9611199811132 14.0
endloop
endfacet
facet normal -0.0 -0.0 1.0
outer loop
vertex 79.3803215500059 78.9611199811132 14.0
vertex 94.9832348484064 32.5945116134858 14.0
vertex 81.676143545056 81.2569419761632 14.0
endloop
endfacet
facet normal -0.0 -0.0 1.0
outer loop
vertex 81.676143545056 81.2569419761632 14.0
vertex 94.9832348484064 32.5945116134858 14.0
vertex 90.7500849065596 67.5913566245596 14.0
endloop
endfacet
facet normal -0.0 -0.0 1.0
outer loop
vertex 90.7500849065596 67.5913566245596 14.0
vertex 94.9832348484064 32.5945116134858 14.0
vertex 110.36508238302 47.9763591480992 14.0
endloop
endfacet
facet normal -0.0 -0.0 1.0
outer loop
vertex 93.0459069016095 69.8871786196096 14.0
vertex 81.676143545056 81.2569419761632 14.0
vertex 90.7500849065596 67.5913566245596 14.0
endloop
endfacet
facet normal 0.707106781186547 -0.707106781186548 0.0
outer loop
vertex 28.2842712474618 28.2842712474618 16.0
vertex 0.0 0.0 0.0
vertex 28.2842712474618 28.2842712474618 0.0
endloop
endfacet
facet normal 0.707106781186547 -0.707106781186548 0.0
outer loop
vertex 0.0 0.0 0.0
vertex 28.2842712474618 28.2842712474618 16.0
vertex 0.0 0.0 16.0
endloop
endfacet
facet normal 0.707106781186548 0.707106781186547 -0.0
outer loop
vertex -33.0210318341656 89.5895743290892 0.0
vertex 28.2842712474618 28.2842712474618 16.0
vertex 28.2842712474618 28.2842712474618 0.0
endloop
endfacet
facet normal 0.707106781186548 0.707106781186547 -0.0
outer loop
vertex 28.2842712474618 28.2842712474618 16.0
vertex -33.0210318341656 89.5895743290892 0.0
vertex -33.0210318341656 89.5895743290892 16.0
endloop
endfacet
facet normal -0.707106781186545 0.70710678118655 -0.0
outer loop
vertex -40.9264856478312 81.6841205154237 16.0
vertex -33.0210318341656 89.5895743290892 0.0
vertex -40.9264856478312 81.6841205154237 0.0
endloop
endfacet
facet normal -0.707106781186545 0.70710678118655 -0.0
outer loop
vertex -33.0210318341656 89.5895743290892 0.0
vertex -40.9264856478312 81.6841205154237 16.0
vertex -33.0210318341656 89.5895743290892 16.0
endloop
endfacet
facet normal 0.707106781186575 0.70710678118652 -0.0
outer loop
vertex -43.2607928729931 84.0184277405857 0.0
vertex -40.9264856478312 81.6841205154237 16.0
vertex -40.9264856478312 81.6841205154237 0.0
endloop
endfacet
facet normal 0.707106781186575 0.70710678118652 -0.0
outer loop
vertex -40.9264856478312 81.6841205154237 16.0
vertex -43.2607928729931 84.0184277405857 0.0
vertex -43.2607928729931 84.0184277405857 16.0
endloop
endfacet
facet normal -0.707106781186549 0.707106781186546 0.0
outer loop
vertex -43.2607928729931 84.0184277405857 16.0
vertex -58.9010174219341 68.3782031916446 0.0
vertex -58.9010174219341 68.3782031916446 16.0
endloop
endfacet
facet normal -0.707106781186549 0.707106781186546 0.0
outer loop
vertex -58.9010174219341 68.3782031916446 0.0
vertex -43.2607928729931 84.0184277405857 16.0
vertex -43.2607928729931 84.0184277405857 0.0
endloop
endfacet
facet normal -0.707106781186546 -0.707106781186549 0.0
outer loop
vertex -54.2199705304793 63.6971563001898 16.0
vertex -58.9010174219341 68.3782031916446 0.0
vertex -54.2199705304793 63.6971563001898 0.0
endloop
endfacet
facet normal -0.707106781186546 -0.707106781186549 0.0
outer loop
vertex -58.9010174219341 68.3782031916446 0.0
vertex -54.2199705304793 63.6971563001898 16.0
vertex -58.9010174219341 68.3782031916446 16.0
endloop
endfacet
facet normal -0.707106781186568 0.707106781186527 0.0
outer loop
vertex -54.2199705304793 63.6971563001898 16.0
vertex -58.9585634153344 58.9585634153344 0.0
vertex -58.9585634153344 58.9585634153344 16.0
endloop
endfacet
facet normal -0.707106781186568 0.707106781186527 0.0
outer loop
vertex -58.9585634153344 58.9585634153344 0.0
vertex -54.2199705304793 63.6971563001898 16.0
vertex -54.2199705304793 63.6971563001898 0.0
endloop
endfacet
facet normal -0.707106781186547 -0.707106781186548 0.0
outer loop
vertex 0.0 0.0 16.0
vertex -58.9585634153344 58.9585634153344 0.0
vertex 0.0 0.0 0.0
endloop
endfacet
facet normal -0.707106781186547 -0.707106781186548 0.0
outer loop
vertex -58.9585634153344 58.9585634153344 0.0
vertex 0.0 0.0 16.0
vertex -58.9585634153344 58.9585634153344 16.0
endloop
endfacet
facet normal -0.0 -0.0 1.0
outer loop
vertex 0.0 0.0 16.0
vertex -54.2199705304793 63.6971563001898 16.0
vertex -58.9585634153344 58.9585634153344 16.0
endloop
endfacet
facet normal -0.0 -0.0 1.0
outer loop
vertex -54.2199705304793 63.6971563001898 16.0
vertex 0.0 0.0 16.0
vertex -43.2607928729931 84.0184277405857 16.0
endloop
endfacet
facet normal -0.0 -0.0 1.0
outer loop
vertex -43.2607928729931 84.0184277405857 16.0
vertex 0.0 0.0 16.0
vertex -40.9264856478312 81.6841205154237 16.0
endloop
endfacet
facet normal -0.0 -0.0 1.0
outer loop
vertex -40.9264856478312 81.6841205154237 16.0
vertex 0.0 0.0 16.0
vertex -33.0210318341656 89.5895743290892 16.0
endloop
endfacet
facet normal -0.0 -0.0 1.0
outer loop
vertex -33.0210318341656 89.5895743290892 16.0
vertex 0.0 0.0 16.0
vertex 28.2842712474618 28.2842712474618 16.0
endloop
endfacet
facet normal -0.0 -0.0 1.0
outer loop
vertex -43.2607928729931 84.0184277405857 16.0
vertex -58.9010174219341 68.3782031916446 16.0
vertex -54.2199705304793 63.6971563001898 16.0
endloop
endfacet
facet normal 0.707106781186547 -0.707106781186548 0.0
outer loop
vertex 87.2767189588471 -4.5326981323956 15.0
vertex 35.5872132541105 -56.2222038371321 0.0
vertex 87.2767189588471 -4.5326981323956 0.0
endloop
endfacet
facet normal 0.707106781186547 -0.707106781186548 0.0
outer loop
vertex 35.5872132541105 -56.2222038371321 0.0
vertex 87.2767189588471 -4.5326981323956 15.0
vertex 35.5872132541105 -56.2222038371321 15.0
endloop
endfacet
facet normal 0.70710678118655 0.707106781186545 -0.0
outer loop
vertex 65.3699151064929 17.3741057199587 0.0
vertex 87.2767189588471 -4.5326981323956 15.0
vertex 87.2767189588471 -4.5326981323956 0.0
endloop
endfacet
facet normal 0.70710678118655 0.707106781186545 -0.0
outer loop
vertex 87.2767189588471 -4.5326981323956 15.0
vertex 65.3699151064929 17.3741057199587 0.0
vertex 65.3699151064929 17.3741057199587 15.0
endloop
endfacet
facet normal -0.707106781186549 0.707106781186546 0.0
outer loop
vertex 65.3699151064929 17.3741057199587 15.0
vertex 46.2921741500799 -1.70363523645439 0.0
vertex 46.2921741500799 -1.70363523645439 15.0
endloop
endfacet
facet normal -0.707106781186549 0.707106781186546 0.0
outer loop
vertex 46.2921741500799 -1.70363523645439 0.0
vertex 65.3699151064929 17.3741057199587 15.0
vertex 65.3699151064929 17.3741057199587 0.0
endloop
endfacet
facet normal 0.707106781186548 0.707106781186547 -0.0
outer loop
vertex 39.9147067549721 4.67383215865337 0.0
vertex 46.2921741500799 -1.70363523645439 15.0
vertex 46.2921741500799 -1.70363523645439 0.0
endloop
endfacet
facet normal 0.707106781186548 0.707106781186547 -0.0
outer loop
vertex 46.2921741500799 -1.70363523645439 15.0
vertex 39.9147067549721 4.67383215865337 0.0
vertex 39.9147067549721 4.67383215865337 15.0
endloop
endfacet
facet normal -0.707106781186547 0.707106781186548 -0.0
outer loop
vertex 23.6088243808104 -11.6320502155083 15.0
vertex 39.9147067549721 4.67383215865337 0.0
vertex 23.6088243808104 -11.6320502155083 0.0
endloop
endfacet
facet normal -0.707106781186547 0.707106781186548 -0.0
outer loop
vertex 39.9147067549721 4.67383215865337 0.0
vertex 23.6088243808104 -11.6320502155083 15.0
vertex 39.9147067549721 4.67383215865337 15.0
endloop
endfacet
facet normal -0.707106781186549 -0.707106781186546 0.0
outer loop
vertex 23.6088243808104 -11.6320502155083 15.0
vertex 29.9862917759182 -18.0095176106161 0.0
vertex 29.9862917759182 -18.0095176106161 15.0
endloop
endfacet
facet normal -0.707106781186549 -0.707106781186546 0.0
outer loop
vertex 29.9862917759182 -18.0095176106161 0.0
vertex 23.6088243808104 -11.6320502155083 15.0
vertex 23.6088243808104 -11.6320502155083 0.0
endloop
endfacet
facet normal -0.707106781186548 0.707106781186546 0.0
outer loop
vertex 29.9862917759182 -18.0095176106161 15.0
vertex 13.6804094017564 -34.315399984778 0.0
vertex 13.6804094017564 -34.315399984778 15.0
endloop
endfacet
facet normal -0.707106781186548 0.707106781186546 0.0
outer loop
vertex 13.6804094017564 -34.315399984778 0.0
vertex 29.9862917759182 -18.0095176106161 15.0
vertex 29.9862917759182 -18.0095176106161 0.0
endloop
endfacet
facet normal -0.707106781186547 -0.707106781186548 0.0
outer loop
vertex 35.5872132541105 -56.2222038371321 15.0
vertex 13.6804094017564 -34.315399984778 0.0
vertex 35.5872132541105 -56.2222038371321 0.0
endloop
endfacet
facet normal -0.707106781186547 -0.707106781186548 0.0
outer loop
vertex 13.6804094017564 -34.315399984778 0.0
vertex 35.5872132541105 -56.2222038371321 15.0
vertex 13.6804094017564 -34.315399984778 15.0
endloop
endfacet
facet normal -0.0 -0.0 1.0
outer loop
vertex 35.5872132541105 -56.2222038371321 15.0
vertex 29.9862917759182 -18.0095176106161 15.0
vertex 13.6804094017564 -34.315399984778 15.0
endloop
endfacet
facet normal -0.0 -0.0 1.0
outer loop
vertex 29.9862917759182 -18.0095176106161 15.0
vertex 39.9147067549721 4.67383215865337 15.0
vertex 23.6088243808104 -11.6320502155083 15.0
endloop
endfacet
facet normal -0.0 -0.0 1.0
outer loop
vertex 39.9147067549721 4.67383215865337 15.0
vertex 29.9862917759182 -18.0095176106161 15.0
vertex 35.5872132541105 -56.2222038371321 15.0
endloop
endfacet
facet normal -0.0 -0.0 1.0
outer loop
vertex 39.9147067549721 4.67383215865337 15.0
vertex 35.5872132541105 -56.2222038371321 15.0
vertex 46.2921741500799 -1.70363523645439 15.0
endloop
endfacet
facet normal -0.0 -0.0 1.0
outer loop
vertex 46.2921741500799 -1.70363523645439 15.0
vertex 35.5872132541105 -56.2222038371321 15.0
vertex 87.2767189588471 -4.5326981323956 15.0
endloop
endfacet
facet normal -0.0 -0.0 1.0
outer loop
vertex 46.2921741500799 -1.70363523645439 15.0
vertex 87.2767189588471 -4.5326981323956 15.0
vertex 65.3699151064929 17.3741057199587 15.0
endloop
endfacet
facet normal 0.0 0.0 -1.0
outer loop
vertex -43.2607928729931 84.0184277405857 0.0
vertex -54.2199705304793 63.6971563001898 0.0
vertex -58.9010174219341 68.3782031916446 0.0
endloop
endfacet
facet normal 0.0 0.0 -1.0
outer loop
vertex -54.2199705304793 63.6971563001898 0.0
vertex 0.0 0.0 0.0
vertex -58.9585634153344 58.9585634153344 0.0
endloop
endfacet
facet normal 0.0 0.0 -1.0
outer loop
vertex 0.0 0.0 0.0
vertex -54.2199705304793 63.6971563001898 0.0
vertex -43.2607928729931 84.0184277405857 0.0
endloop
endfacet
facet normal 0.0 0.0 -1.0
outer loop
vertex 0.0 0.0 0.0
vertex -43.2607928729931 84.0184277405857 0.0
vertex -40.9264856478312 81.6841205154237 0.0
endloop
endfacet
facet normal 0.0 0.0 -1.0
outer loop
vertex 0.0 0.0 0.0
vertex -40.9264856478312 81.6841205154237 0.0
vertex -33.0210318341656 89.5895743290892 0.0
endloop
endfacet
facet normal 0.0 0.0 -1.0
outer loop
vertex 0.0 0.0 0.0
vertex -33.0210318341656 89.5895743290892 0.0
vertex 28.2842712474618 28.2842712474618 0.0
endloop
endfacet
facet normal 0.0 0.0 -1.0
outer loop
vertex 93.0459069016095 69.8871786196096 0.0
vertex 90.7500849065596 67.5913566245596 0.0
vertex 81.676143545056 81.2569419761632 0.0
endloop
endfacet
facet normal 0.0 0.0 -1.0
outer loop
vertex 62.9889280435212 95.3525134875981 0.0
vertex 94.9832348484064 32.5945116134858 0.0
vertex 47.6070805089076 79.9706659529843 0.0
endloop
endfacet
facet normal 0.0 0.0 -1.0
outer loop
vertex 94.9832348484064 32.5945116134858 0.0
vertex 62.9889280435212 95.3525134875981 0.0
vertex 79.3803215500059 78.9611199811132 0.0
endloop
endfacet
facet normal 0.0 0.0 -1.0
outer loop
vertex 94.9832348484064 32.5945116134858 0.0
vertex 79.3803215500059 78.9611199811132 0.0
vertex 81.676143545056 81.2569419761632 0.0
endloop
endfacet
facet normal 0.0 0.0 -1.0
outer loop
vertex 94.9832348484064 32.5945116134858 0.0
vertex 81.676143545056 81.2569419761632 0.0
vertex 90.7500849065596 67.5913566245596 0.0
endloop
endfacet
facet normal 0.0 0.0 -1.0
outer loop
vertex 94.9832348484064 32.5945116134858 0.0
vertex 90.7500849065596 67.5913566245596 0.0
vertex 110.36508238302 47.9763591480992 0.0
endloop
endfacet
facet normal 0.0 0.0 -1.0
outer loop
vertex -46.2418930808466 -20.6752340946268 0.0
vertex -41.5692390567133 -54.1501602976929 0.0
vertex -60.6430291703129 -35.0763701840932 0.0
endloop
endfacet
facet normal 0.0 0.0 -1.0
outer loop
vertex -41.5692390567133 -54.1501602976929 0.0
vertex -46.2418930808466 -20.6752340946268 0.0
vertex 1.1342612586522 -68.0513884341256 0.0
endloop
endfacet
facet normal 0.0 0.0 -1.0
outer loop
vertex -41.5692390567133 -54.1501602976929 0.0
vertex 1.1342612586522 -68.0513884341256 0.0
vertex -30.3717878677168 -65.3476114866893 0.0
endloop
endfacet
facet normal 0.0 0.0 -1.0
outer loop
vertex -41.5692390567133 -54.1501602976929 0.0
vertex -30.3717878677168 -65.3476114866893 0.0
vertex -33.6483213079141 -68.6241449268867 0.0
endloop
endfacet
facet normal 0.0 0.0 -1.0
outer loop
vertex -30.3717878677168 -65.3476114866893 0.0
vertex 1.1342612586522 -68.0513884341256 0.0
vertex -13.2668748308142 -82.452524523592 0.0
endloop
endfacet
facet normal 0.0 0.0 -1.0
outer loop
vertex -33.6483213079141 -68.6241449268867 0.0
vertex -44.8457724969106 -57.4266937378902 0.0
vertex -41.5692390567133 -54.1501602976929 0.0
endloop
endfacet
facet normal 0.0 0.0 -1.0
outer loop
vertex 39.9147067549721 4.67383215865337 0.0
vertex 29.9862917759182 -18.0095176106161 0.0
vertex 23.6088243808104 -11.6320502155083 0.0
endloop
endfacet
facet normal 0.0 0.0 -1.0
outer loop
vertex 29.9862917759182 -18.0095176106161 0.0
vertex 39.9147067549721 4.67383215865337 0.0
vertex 35.5872132541105 -56.2222038371321 0.0
endloop
endfacet
facet normal 0.0 0.0 -1.0
outer loop
vertex 35.5872132541105 -56.2222038371321 0.0
vertex 39.9147067549721 4.67383215865337 0.0
vertex 46.2921741500799 -1.70363523645439 0.0
endloop
endfacet
facet normal 0.0 0.0 -1.0
outer loop
vertex 35.5872132541105 -56.2222038371321 0.0
vertex 46.2921741500799 -1.70363523645439 0.0
vertex 87.2767189588471 -4.5326981323956 0.0
endloop
endfacet
facet normal 0.0 0.0 -1.0
outer loop
vertex 87.2767189588471 -4.5326981323956 0.0
vertex 46.2921741500799 -1.70363523645439 0.0
vertex 65.3699151064929 17.3741057199587 0.0
endloop
endfacet
facet normal 0.0 0.0 -1.0
outer loop
vertex 35.5872132541105 -56.2222038371321 0.0
vertex 13.6804094017564 -34.315399984778 0.0
vertex 29.9862917759182 -18.0095176106161 0.0
endloop
endfacet
endsolid mitchelBldg-V5
