solid rect
  facet normal -5.463684898193554e-6 -9.999999999850739e-1 0e+0
    outer loop
      vertex -5.763177479381397e+1 6.296016824883858e+1 0e+0
      vertex -2.837188994378985e+1 6.29600083820476e+1 0e+0
      vertex -2.837188994378985e+1 6.29600083820476e+1 2e+1
    endloop
  endfacet
  facet normal -5.463684898193554e-6 -9.999999999850739e-1 0e+0
    outer loop
      vertex -5.763177479381397e+1 6.296016824883858e+1 0e+0
      vertex -2.837188994378985e+1 6.29600083820476e+1 2e+1
      vertex -5.763177479381397e+1 6.296016824883858e+1 2e+1
    endloop
  endfacet
  facet normal 9.999999999935025e-1 -3.6048760958340587e-6 0e+0
    outer loop
      vertex -2.837188994378985e+1 6.29600083820476e+1 0e+0
      vertex -2.8371754238274914e+1 1.0060499570672297e+2 0e+0
      vertex -2.8371754238274914e+1 1.0060499570672297e+2 2e+1
    endloop
  endfacet
  facet normal 9.999999999935025e-1 -3.6048760958340587e-6 0e+0
    outer loop
      vertex -2.837188994378985e+1 6.29600083820476e+1 0e+0
      vertex -2.8371754238274914e+1 1.0060499570672297e+2 2e+1
      vertex -2.837188994378985e+1 6.29600083820476e+1 2e+1
    endloop
  endfacet
  facet normal 5.463701295733702e-6 9.99999999985074e-1 0e+0
    outer loop
      vertex -2.8371754238274914e+1 1.0060499570672297e+2 0e+0
      vertex -5.7631499135382725e+1 1.0060515557322908e+2 0e+0
      vertex -5.7631499135382725e+1 1.0060515557322908e+2 2e+1
    endloop
  endfacet
  facet normal 5.463701295733702e-6 9.99999999985074e-1 0e+0
    outer loop
      vertex -2.8371754238274914e+1 1.0060499570672297e+2 0e+0
      vertex -5.7631499135382725e+1 1.0060515557322908e+2 2e+1
      vertex -2.8371754238274914e+1 1.0060499570672297e+2 2e+1
    endloop
  endfacet
  facet normal -9.999999999731899e-1 7.322579998751353e-6 0e+0
    outer loop
      vertex -5.7631499135382725e+1 1.0060515557322908e+2 0e+0
      vertex -5.763177479381397e+1 6.296016824883858e+1 0e+0
      vertex -5.763177479381397e+1 6.296016824883858e+1 2e+1
    endloop
  endfacet
  facet normal -9.999999999731899e-1 7.322579998751353e-6 0e+0
    outer loop
      vertex -5.7631499135382725e+1 1.0060515557322908e+2 0e+0
      vertex -5.763177479381397e+1 6.296016824883858e+1 2e+1
      vertex -5.7631499135382725e+1 1.0060515557322908e+2 2e+1
    endloop
  endfacet
  facet normal 0e+0 0e+0 -1e+0
    outer loop
      vertex -2.837188994378985e+1 6.29600083820476e+1 0e+0
      vertex -5.763177479381397e+1 6.296016824883858e+1 0e+0
      vertex -5.7631499135382725e+1 1.0060515557322908e+2 0e+0
    endloop
  endfacet
  facet normal 0e+0 0e+0 -1e+0
    outer loop
      vertex -2.837188994378985e+1 6.29600083820476e+1 0e+0
      vertex -5.7631499135382725e+1 1.0060515557322908e+2 0e+0
      vertex -2.8371754238274914e+1 1.0060499570672297e+2 0e+0
    endloop
  endfacet
  facet normal 0e+0 0e+0 1e+0
    outer loop
      vertex -5.7631499135382725e+1 1.0060515557322908e+2 2e+1
      vertex -5.763177479381397e+1 6.296016824883858e+1 2e+1
      vertex -2.837188994378985e+1 6.29600083820476e+1 2e+1
    endloop
  endfacet
  facet normal 0e+0 0e+0 1e+0
    outer loop
      vertex -2.8371754238274914e+1 1.0060499570672297e+2 2e+1
      vertex -5.7631499135382725e+1 1.0060515557322908e+2 2e+1
      vertex -2.837188994378985e+1 6.29600083820476e+1 2e+1
    endloop
  endfacet
endsolid