solid rect
  facet normal 1.8588432702573033e-6 -9.999999999982724e-1 0e+0
    outer loop
      vertex 0e+0 0e+0 0e+0
      vertex 2.925992190946141e+1 5.438960892975053e-5 0e+0
      vertex 2.925992190946141e+1 5.438960892975053e-5 2e+1
    endloop
  endfacet
  facet normal 1.8588432702573033e-6 -9.999999999982724e-1 0e+0
    outer loop
      vertex 0e+0 0e+0 0e+0
      vertex 2.925992190946141e+1 5.438960892975053e-5 2e+1
      vertex 0e+0 0e+0 2e+1
    endloop
  endfacet
  facet normal 9.999999999930894e-1 3.7177009268965244e-6 0e+0
    outer loop
      vertex 2.925992190946141e+1 5.438960892975053e-5 0e+0
      vertex 2.925978195665714e+1 3.764504171452473e+1 0e+0
      vertex 2.925978195665714e+1 3.764504171452473e+1 2e+1
    endloop
  endfacet
  facet normal 9.999999999930894e-1 3.7177009268965244e-6 0e+0
    outer loop
      vertex 2.925992190946141e+1 5.438960892975053e-5 0e+0
      vertex 2.925978195665714e+1 3.764504171452473e+1 2e+1
      vertex 2.925992190946141e+1 5.438960892975053e-5 2e+1
    endloop
  endfacet
  facet normal -1.8588452315501036e-6 9.999999999982724e-1 0e+0
    outer loop
      vertex 2.925978195665714e+1 3.764504171452473e+1 0e+0
      vertex 0e+0 3.7644987325118564e+1 0e+0
      vertex 0e+0 3.7644987325118564e+1 2e+1
    endloop
  endfacet
  facet normal -1.8588452315501036e-6 9.999999999982724e-1 0e+0
    outer loop
      vertex 2.925978195665714e+1 3.764504171452473e+1 0e+0
      vertex 0e+0 3.7644987325118564e+1 2e+1
      vertex 2.925978195665714e+1 3.764504171452473e+1 2e+1
    endloop
  endfacet
  facet normal -1e+0 0e+0 0e+0
    outer loop
      vertex 0e+0 3.7644987325118564e+1 0e+0
      vertex 0e+0 0e+0 0e+0
      vertex 0e+0 0e+0 2e+1
    endloop
  endfacet
  facet normal -1e+0 0e+0 0e+0
    outer loop
      vertex 0e+0 3.7644987325118564e+1 0e+0
      vertex 0e+0 0e+0 2e+1
      vertex 0e+0 3.7644987325118564e+1 2e+1
    endloop
  endfacet
  facet normal 0e+0 0e+0 -1e+0
    outer loop
      vertex 0e+0 0e+0 0e+0
      vertex 0e+0 3.7644987325118564e+1 0e+0
      vertex 2.925978195665714e+1 3.764504171452473e+1 0e+0
    endloop
  endfacet
  facet normal 0e+0 0e+0 -1e+0
    outer loop
      vertex 0e+0 0e+0 0e+0
      vertex 2.925978195665714e+1 3.764504171452473e+1 0e+0
      vertex 2.925992190946141e+1 5.438960892975053e-5 0e+0
    endloop
  endfacet
  facet normal 0e+0 0e+0 1e+0
    outer loop
      vertex 2.925978195665714e+1 3.764504171452473e+1 2e+1
      vertex 0e+0 3.7644987325118564e+1 2e+1
      vertex 0e+0 0e+0 2e+1
    endloop
  endfacet
  facet normal 0e+0 0e+0 1e+0
    outer loop
      vertex 2.925992190946141e+1 5.438960892975053e-5 2e+1
      vertex 2.925978195665714e+1 3.764504171452473e+1 2e+1
      vertex 0e+0 0e+0 2e+1
    endloop
  endfacet
endsolid