solid Rectangle_:grass:ground::inner:0:0
  facet normal 0 0 1
    outer loop
      vertex -60 60 0
      vertex -45 45 0
      vertex -45 60 0
    endloop
  endfacet
endsolid
solid Rectangle_:grass:ground::inner:0:0
  facet normal 0 0 1
    outer loop
      vertex -60 60 0
      vertex -60 45 0
      vertex -45 45 0
    endloop
  endfacet
endsolid
solid Rectangle_:grass:ground::inner:0:1
  facet normal 0 0 1
    outer loop
      vertex -60 45 0
      vertex -45 30 0
      vertex -45 45 0
    endloop
  endfacet
endsolid
solid Rectangle_:grass:ground::inner:0:1
  facet normal 0 0 1
    outer loop
      vertex -60 45 0
      vertex -60 30 0
      vertex -45 30 0
    endloop
  endfacet
endsolid
solid Rectangle_:grass:ground::inner:0:2
  facet normal 0 0 1
    outer loop
      vertex -60 30 0
      vertex -45 15 0
      vertex -45 30 0
    endloop
  endfacet
endsolid
solid Rectangle_:grass:ground::inner:0:2
  facet normal 0 0 1
    outer loop
      vertex -60 30 0
      vertex -60 15 0
      vertex -45 15 0
    endloop
  endfacet
endsolid
solid Rectangle_:grass:ground::inner:0:3
  facet normal 0 0 1
    outer loop
      vertex -60 15 0
      vertex -45 0 0
      vertex -45 15 0
    endloop
  endfacet
endsolid
solid Rectangle_:grass:ground::inner:0:3
  facet normal 0 0 1
    outer loop
      vertex -60 15 0
      vertex -60 0 0
      vertex -45 0 0
    endloop
  endfacet
endsolid
solid Rectangle_:grass:ground::inner:0:4
  facet normal 0 0 1
    outer loop
      vertex -60 0 0
      vertex -45 -15 0
      vertex -45 0 0
    endloop
  endfacet
endsolid
solid Rectangle_:grass:ground::inner:0:4
  facet normal 0 0 1
    outer loop
      vertex -60 0 0
      vertex -60 -15 0
      vertex -45 -15 0
    endloop
  endfacet
endsolid
solid Rectangle_:grass:ground::inner:0:5
  facet normal 0 0 1
    outer loop
      vertex -60 -15 0
      vertex -45 -30 0
      vertex -45 -15 0
    endloop
  endfacet
endsolid
solid Rectangle_:grass:ground::inner:0:5
  facet normal 0 0 1
    outer loop
      vertex -60 -15 0
      vertex -60 -30 0
      vertex -45 -30 0
    endloop
  endfacet
endsolid
solid Rectangle_:grass:ground::inner:0:6
  facet normal 0 0 1
    outer loop
      vertex -60 -30 0
      vertex -45 -45 0
      vertex -45 -30 0
    endloop
  endfacet
endsolid
solid Rectangle_:grass:ground::inner:0:6
  facet normal 0 0 1
    outer loop
      vertex -60 -30 0
      vertex -60 -45 0
      vertex -45 -45 0
    endloop
  endfacet
endsolid
solid Rectangle_:grass:ground::inner:0:7
  facet normal 0 0 1
    outer loop
      vertex -60 -45 0
      vertex -45 -60 0
      vertex -45 -45 0
    endloop
  endfacet
endsolid
solid Rectangle_:grass:ground::inner:0:7
  facet normal 0 0 1
    outer loop
      vertex -60 -45 0
      vertex -60 -60 0
      vertex -45 -60 0
    endloop
  endfacet
endsolid
solid Rectangle_:grass:ground::inner:1:0
  facet normal 0 0 1
    outer loop
      vertex -45 60 0
      vertex -30 45 0
      vertex -30 60 0
    endloop
  endfacet
endsolid
solid Rectangle_:grass:ground::inner:1:0
  facet normal 0 0 1
    outer loop
      vertex -45 60 0
      vertex -45 45 0
      vertex -30 45 0
    endloop
  endfacet
endsolid
solid Rectangle_:grass:ground::inner:1:1
  facet normal 0 0 1
    outer loop
      vertex -45 45 0
      vertex -30 30 0
      vertex -30 45 0
    endloop
  endfacet
endsolid
solid Rectangle_:grass:ground::inner:1:1
  facet normal 0 0 1
    outer loop
      vertex -45 45 0
      vertex -45 30 0
      vertex -30 30 0
    endloop
  endfacet
endsolid
solid Rectangle_:grass:ground::inner:1:2
  facet normal 0 0 1
    outer loop
      vertex -45 30 0
      vertex -30 15 0
      vertex -30 30 0
    endloop
  endfacet
endsolid
solid Rectangle_:grass:ground::inner:1:2
  facet normal 0 0 1
    outer loop
      vertex -45 30 0
      vertex -45 15 0
      vertex -30 15 0
    endloop
  endfacet
endsolid
solid Rectangle_:grass:ground::inner:1:3
  facet normal 0 0 1
    outer loop
      vertex -45 15 0
      vertex -30 0 0
      vertex -30 15 0
    endloop
  endfacet
endsolid
solid Rectangle_:grass:ground::inner:1:3
  facet normal 0 0 1
    outer loop
      vertex -45 15 0
      vertex -45 0 0
      vertex -30 0 0
    endloop
  endfacet
endsolid
solid Rectangle_:grass:ground::inner:1:4
  facet normal 0 0 1
    outer loop
      vertex -45 0 0
      vertex -30 -15 0
      vertex -30 0 0
    endloop
  endfacet
endsolid
solid Rectangle_:grass:ground::inner:1:4
  facet normal 0 0 1
    outer loop
      vertex -45 0 0
      vertex -45 -15 0
      vertex -30 -15 0
    endloop
  endfacet
endsolid
solid Rectangle_:grass:ground::inner:1:5
  facet normal 0 0 1
    outer loop
      vertex -45 -15 0
      vertex -30 -30 0
      vertex -30 -15 0
    endloop
  endfacet
endsolid
solid Rectangle_:grass:ground::inner:1:5
  facet normal 0 0 1
    outer loop
      vertex -45 -15 0
      vertex -45 -30 0
      vertex -30 -30 0
    endloop
  endfacet
endsolid
solid Rectangle_:grass:ground::inner:1:6
  facet normal 0 0 1
    outer loop
      vertex -45 -30 0
      vertex -30 -45 0
      vertex -30 -30 0
    endloop
  endfacet
endsolid
solid Rectangle_:grass:ground::inner:1:6
  facet normal 0 0 1
    outer loop
      vertex -45 -30 0
      vertex -45 -45 0
      vertex -30 -45 0
    endloop
  endfacet
endsolid
solid Rectangle_:grass:ground::inner:1:7
  facet normal 0 0 1
    outer loop
      vertex -45 -45 0
      vertex -30 -60 0
      vertex -30 -45 0
    endloop
  endfacet
endsolid
solid Rectangle_:grass:ground::inner:1:7
  facet normal 0 0 1
    outer loop
      vertex -45 -45 0
      vertex -45 -60 0
      vertex -30 -60 0
    endloop
  endfacet
endsolid
solid Rectangle_:grass:ground::inner:2:0
  facet normal 0 0 1
    outer loop
      vertex -30 60 0
      vertex -15 45 0
      vertex -15 60 0
    endloop
  endfacet
endsolid
solid Rectangle_:grass:ground::inner:2:0
  facet normal 0 0 1
    outer loop
      vertex -30 60 0
      vertex -30 45 0
      vertex -15 45 0
    endloop
  endfacet
endsolid
solid Rectangle_:grass:ground::inner:2:1
  facet normal 0 0 1
    outer loop
      vertex -30 45 0
      vertex -15 30 0
      vertex -15 45 0
    endloop
  endfacet
endsolid
solid Rectangle_:grass:ground::inner:2:1
  facet normal 0 0 1
    outer loop
      vertex -30 45 0
      vertex -30 30 0
      vertex -15 30 0
    endloop
  endfacet
endsolid
solid Rectangle_:grass:ground::inner:2:2
  facet normal 0 0 1
    outer loop
      vertex -30 30 0
      vertex -15 15 0
      vertex -15 30 0
    endloop
  endfacet
endsolid
solid Rectangle_:grass:ground::inner:2:2
  facet normal 0 0 1
    outer loop
      vertex -30 30 0
      vertex -30 15 0
      vertex -15 15 0
    endloop
  endfacet
endsolid
solid Rectangle_:grass:ground::inner:2:3
  facet normal 0 0 1
    outer loop
      vertex -30 15 0
      vertex -15 0 0
      vertex -15 15 0
    endloop
  endfacet
endsolid
solid Rectangle_:grass:ground::inner:2:3
  facet normal 0 0 1
    outer loop
      vertex -30 15 0
      vertex -30 0 0
      vertex -15 0 0
    endloop
  endfacet
endsolid
solid Rectangle_:grass:ground::inner:2:4
  facet normal 0 0 1
    outer loop
      vertex -30 0 0
      vertex -15 -15 0
      vertex -15 0 0
    endloop
  endfacet
endsolid
solid Rectangle_:grass:ground::inner:2:4
  facet normal 0 0 1
    outer loop
      vertex -30 0 0
      vertex -30 -15 0
      vertex -15 -15 0
    endloop
  endfacet
endsolid
solid Rectangle_:grass:ground::inner:2:5
  facet normal 0 0 1
    outer loop
      vertex -30 -15 0
      vertex -15 -30 0
      vertex -15 -15 0
    endloop
  endfacet
endsolid
solid Rectangle_:grass:ground::inner:2:5
  facet normal 0 0 1
    outer loop
      vertex -30 -15 0
      vertex -30 -30 0
      vertex -15 -30 0
    endloop
  endfacet
endsolid
solid Rectangle_:grass:ground::inner:2:6
  facet normal 0 0 1
    outer loop
      vertex -30 -30 0
      vertex -15 -45 0
      vertex -15 -30 0
    endloop
  endfacet
endsolid
solid Rectangle_:grass:ground::inner:2:6
  facet normal 0 0 1
    outer loop
      vertex -30 -30 0
      vertex -30 -45 0
      vertex -15 -45 0
    endloop
  endfacet
endsolid
solid Rectangle_:grass:ground::inner:2:7
  facet normal 0 0 1
    outer loop
      vertex -30 -45 0
      vertex -15 -60 0
      vertex -15 -45 0
    endloop
  endfacet
endsolid
solid Rectangle_:grass:ground::inner:2:7
  facet normal 0 0 1
    outer loop
      vertex -30 -45 0
      vertex -30 -60 0
      vertex -15 -60 0
    endloop
  endfacet
endsolid
solid Rectangle_:grass:ground::inner:3:0
  facet normal 0 0 1
    outer loop
      vertex -15 60 0
      vertex 0 45 0
      vertex 0 60 0
    endloop
  endfacet
endsolid
solid Rectangle_:grass:ground::inner:3:0
  facet normal 0 0 1
    outer loop
      vertex -15 60 0
      vertex -15 45 0
      vertex 0 45 0
    endloop
  endfacet
endsolid
solid Rectangle_:grass:ground::inner:3:1
  facet normal 0 0 1
    outer loop
      vertex -15 45 0
      vertex 0 30 0
      vertex 0 45 0
    endloop
  endfacet
endsolid
solid Rectangle_:grass:ground::inner:3:1
  facet normal 0 0 1
    outer loop
      vertex -15 45 0
      vertex -15 30 0
      vertex 0 30 0
    endloop
  endfacet
endsolid
solid Rectangle_:grass:ground::inner:3:2
  facet normal 0 0 1
    outer loop
      vertex -15 30 0
      vertex 0 15 0
      vertex 0 30 0
    endloop
  endfacet
endsolid
solid Rectangle_:grass:ground::inner:3:2
  facet normal 0 0 1
    outer loop
      vertex -15 30 0
      vertex -15 15 0
      vertex 0 15 0
    endloop
  endfacet
endsolid
solid Rectangle_:grass:ground::inner:3:3
  facet normal 0 0 1
    outer loop
      vertex -15 15 0
      vertex 0 0 0
      vertex 0 15 0
    endloop
  endfacet
endsolid
solid Rectangle_:grass:ground::inner:3:3
  facet normal 0 0 1
    outer loop
      vertex -15 15 0
      vertex -15 0 0
      vertex 0 0 0
    endloop
  endfacet
endsolid
solid Rectangle_:grass:ground::inner:3:4
  facet normal 0 0 1
    outer loop
      vertex -15 0 0
      vertex 0 -15 0
      vertex 0 0 0
    endloop
  endfacet
endsolid
solid Rectangle_:grass:ground::inner:3:4
  facet normal 0 0 1
    outer loop
      vertex -15 0 0
      vertex -15 -15 0
      vertex 0 -15 0
    endloop
  endfacet
endsolid
solid Rectangle_:grass:ground::inner:3:5
  facet normal 0 0 1
    outer loop
      vertex -15 -15 0
      vertex 0 -30 0
      vertex 0 -15 0
    endloop
  endfacet
endsolid
solid Rectangle_:grass:ground::inner:3:5
  facet normal 0 0 1
    outer loop
      vertex -15 -15 0
      vertex -15 -30 0
      vertex 0 -30 0
    endloop
  endfacet
endsolid
solid Rectangle_:grass:ground::inner:3:6
  facet normal 0 0 1
    outer loop
      vertex -15 -30 0
      vertex 0 -45 0
      vertex 0 -30 0
    endloop
  endfacet
endsolid
solid Rectangle_:grass:ground::inner:3:6
  facet normal 0 0 1
    outer loop
      vertex -15 -30 0
      vertex -15 -45 0
      vertex 0 -45 0
    endloop
  endfacet
endsolid
solid Rectangle_:grass:ground::inner:3:7
  facet normal 0 0 1
    outer loop
      vertex -15 -45 0
      vertex 0 -60 0
      vertex 0 -45 0
    endloop
  endfacet
endsolid
solid Rectangle_:grass:ground::inner:3:7
  facet normal 0 0 1
    outer loop
      vertex -15 -45 0
      vertex -15 -60 0
      vertex 0 -60 0
    endloop
  endfacet
endsolid
solid Rectangle_:grass:ground::inner:4:0
  facet normal 0 0 1
    outer loop
      vertex 0 60 0
      vertex 15 45 0
      vertex 15 60 0
    endloop
  endfacet
endsolid
solid Rectangle_:grass:ground::inner:4:0
  facet normal 0 0 1
    outer loop
      vertex 0 60 0
      vertex 0 45 0
      vertex 15 45 0
    endloop
  endfacet
endsolid
solid Rectangle_:grass:ground::inner:4:1
  facet normal 0 0 1
    outer loop
      vertex 0 45 0
      vertex 15 30 0
      vertex 15 45 0
    endloop
  endfacet
endsolid
solid Rectangle_:grass:ground::inner:4:1
  facet normal 0 0 1
    outer loop
      vertex 0 45 0
      vertex 0 30 0
      vertex 15 30 0
    endloop
  endfacet
endsolid
solid Rectangle_:grass:ground::inner:4:2
  facet normal 0 0 1
    outer loop
      vertex 0 30 0
      vertex 15 15 0
      vertex 15 30 0
    endloop
  endfacet
endsolid
solid Rectangle_:grass:ground::inner:4:2
  facet normal 0 0 1
    outer loop
      vertex 0 30 0
      vertex 0 15 0
      vertex 15 15 0
    endloop
  endfacet
endsolid
solid Rectangle_:grass:ground::inner:4:3
  facet normal 0 0 1
    outer loop
      vertex 0 15 0
      vertex 15 0 0
      vertex 15 15 0
    endloop
  endfacet
endsolid
solid Rectangle_:grass:ground::inner:4:3
  facet normal 0 0 1
    outer loop
      vertex 0 15 0
      vertex 0 0 0
      vertex 15 0 0
    endloop
  endfacet
endsolid
solid Rectangle_:grass:ground::inner:4:4
  facet normal 0 0 1
    outer loop
      vertex 0 0 0
      vertex 15 -15 0
      vertex 15 0 0
    endloop
  endfacet
endsolid
solid Rectangle_:grass:ground::inner:4:4
  facet normal 0 0 1
    outer loop
      vertex 0 0 0
      vertex 0 -15 0
      vertex 15 -15 0
    endloop
  endfacet
endsolid
solid Rectangle_:grass:ground::inner:4:5
  facet normal 0 0 1
    outer loop
      vertex 0 -15 0
      vertex 15 -30 0
      vertex 15 -15 0
    endloop
  endfacet
endsolid
solid Rectangle_:grass:ground::inner:4:5
  facet normal 0 0 1
    outer loop
      vertex 0 -15 0
      vertex 0 -30 0
      vertex 15 -30 0
    endloop
  endfacet
endsolid
solid Rectangle_:grass:ground::inner:4:6
  facet normal 0 0 1
    outer loop
      vertex 0 -30 0
      vertex 15 -45 0
      vertex 15 -30 0
    endloop
  endfacet
endsolid
solid Rectangle_:grass:ground::inner:4:6
  facet normal 0 0 1
    outer loop
      vertex 0 -30 0
      vertex 0 -45 0
      vertex 15 -45 0
    endloop
  endfacet
endsolid
solid Rectangle_:grass:ground::inner:4:7
  facet normal 0 0 1
    outer loop
      vertex 0 -45 0
      vertex 15 -60 0
      vertex 15 -45 0
    endloop
  endfacet
endsolid
solid Rectangle_:grass:ground::inner:4:7
  facet normal 0 0 1
    outer loop
      vertex 0 -45 0
      vertex 0 -60 0
      vertex 15 -60 0
    endloop
  endfacet
endsolid
solid Rectangle_:grass:ground::inner:5:0
  facet normal 0 0 1
    outer loop
      vertex 15 60 0
      vertex 30 45 0
      vertex 30 60 0
    endloop
  endfacet
endsolid
solid Rectangle_:grass:ground::inner:5:0
  facet normal 0 0 1
    outer loop
      vertex 15 60 0
      vertex 15 45 0
      vertex 30 45 0
    endloop
  endfacet
endsolid
solid Rectangle_:grass:ground::inner:5:1
  facet normal 0 0 1
    outer loop
      vertex 15 45 0
      vertex 30 30 0
      vertex 30 45 0
    endloop
  endfacet
endsolid
solid Rectangle_:grass:ground::inner:5:1
  facet normal 0 0 1
    outer loop
      vertex 15 45 0
      vertex 15 30 0
      vertex 30 30 0
    endloop
  endfacet
endsolid
solid Rectangle_:grass:ground::inner:5:2
  facet normal 0 0 1
    outer loop
      vertex 15 30 0
      vertex 30 15 0
      vertex 30 30 0
    endloop
  endfacet
endsolid
solid Rectangle_:grass:ground::inner:5:2
  facet normal 0 0 1
    outer loop
      vertex 15 30 0
      vertex 15 15 0
      vertex 30 15 0
    endloop
  endfacet
endsolid
solid Rectangle_:grass:ground::inner:5:3
  facet normal 0 0 1
    outer loop
      vertex 15 15 0
      vertex 30 0 0
      vertex 30 15 0
    endloop
  endfacet
endsolid
solid Rectangle_:grass:ground::inner:5:3
  facet normal 0 0 1
    outer loop
      vertex 15 15 0
      vertex 15 0 0
      vertex 30 0 0
    endloop
  endfacet
endsolid
solid Rectangle_:grass:ground::inner:5:4
  facet normal 0 0 1
    outer loop
      vertex 15 0 0
      vertex 30 -15 0
      vertex 30 0 0
    endloop
  endfacet
endsolid
solid Rectangle_:grass:ground::inner:5:4
  facet normal 0 0 1
    outer loop
      vertex 15 0 0
      vertex 15 -15 0
      vertex 30 -15 0
    endloop
  endfacet
endsolid
solid Rectangle_:grass:ground::inner:5:5
  facet normal 0 0 1
    outer loop
      vertex 15 -15 0
      vertex 30 -30 0
      vertex 30 -15 0
    endloop
  endfacet
endsolid
solid Rectangle_:grass:ground::inner:5:5
  facet normal 0 0 1
    outer loop
      vertex 15 -15 0
      vertex 15 -30 0
      vertex 30 -30 0
    endloop
  endfacet
endsolid
solid Rectangle_:grass:ground::inner:5:6
  facet normal 0 0 1
    outer loop
      vertex 15 -30 0
      vertex 30 -45 0
      vertex 30 -30 0
    endloop
  endfacet
endsolid
solid Rectangle_:grass:ground::inner:5:6
  facet normal 0 0 1
    outer loop
      vertex 15 -30 0
      vertex 15 -45 0
      vertex 30 -45 0
    endloop
  endfacet
endsolid
solid Rectangle_:grass:ground::inner:5:7
  facet normal 0 0 1
    outer loop
      vertex 15 -45 0
      vertex 30 -60 0
      vertex 30 -45 0
    endloop
  endfacet
endsolid
solid Rectangle_:grass:ground::inner:5:7
  facet normal 0 0 1
    outer loop
      vertex 15 -45 0
      vertex 15 -60 0
      vertex 30 -60 0
    endloop
  endfacet
endsolid
solid Rectangle_:grass:ground::inner:6:0
  facet normal 0 0 1
    outer loop
      vertex 30 60 0
      vertex 45 45 0
      vertex 45 60 0
    endloop
  endfacet
endsolid
solid Rectangle_:grass:ground::inner:6:0
  facet normal 0 0 1
    outer loop
      vertex 30 60 0
      vertex 30 45 0
      vertex 45 45 0
    endloop
  endfacet
endsolid
solid Rectangle_:grass:ground::inner:6:1
  facet normal 0 0 1
    outer loop
      vertex 30 45 0
      vertex 45 30 0
      vertex 45 45 0
    endloop
  endfacet
endsolid
solid Rectangle_:grass:ground::inner:6:1
  facet normal 0 0 1
    outer loop
      vertex 30 45 0
      vertex 30 30 0
      vertex 45 30 0
    endloop
  endfacet
endsolid
solid Rectangle_:grass:ground::inner:6:2
  facet normal 0 0 1
    outer loop
      vertex 30 30 0
      vertex 45 15 0
      vertex 45 30 0
    endloop
  endfacet
endsolid
solid Rectangle_:grass:ground::inner:6:2
  facet normal 0 0 1
    outer loop
      vertex 30 30 0
      vertex 30 15 0
      vertex 45 15 0
    endloop
  endfacet
endsolid
solid Rectangle_:grass:ground::inner:6:3
  facet normal 0 0 1
    outer loop
      vertex 30 15 0
      vertex 45 0 0
      vertex 45 15 0
    endloop
  endfacet
endsolid
solid Rectangle_:grass:ground::inner:6:3
  facet normal 0 0 1
    outer loop
      vertex 30 15 0
      vertex 30 0 0
      vertex 45 0 0
    endloop
  endfacet
endsolid
solid Rectangle_:grass:ground::inner:6:4
  facet normal 0 0 1
    outer loop
      vertex 30 0 0
      vertex 45 -15 0
      vertex 45 0 0
    endloop
  endfacet
endsolid
solid Rectangle_:grass:ground::inner:6:4
  facet normal 0 0 1
    outer loop
      vertex 30 0 0
      vertex 30 -15 0
      vertex 45 -15 0
    endloop
  endfacet
endsolid
solid Rectangle_:grass:ground::inner:6:5
  facet normal 0 0 1
    outer loop
      vertex 30 -15 0
      vertex 45 -30 0
      vertex 45 -15 0
    endloop
  endfacet
endsolid
solid Rectangle_:grass:ground::inner:6:5
  facet normal 0 0 1
    outer loop
      vertex 30 -15 0
      vertex 30 -30 0
      vertex 45 -30 0
    endloop
  endfacet
endsolid
solid Rectangle_:grass:ground::inner:6:6
  facet normal 0 0 1
    outer loop
      vertex 30 -30 0
      vertex 45 -45 0
      vertex 45 -30 0
    endloop
  endfacet
endsolid
solid Rectangle_:grass:ground::inner:6:6
  facet normal 0 0 1
    outer loop
      vertex 30 -30 0
      vertex 30 -45 0
      vertex 45 -45 0
    endloop
  endfacet
endsolid
solid Rectangle_:grass:ground::inner:6:7
  facet normal 0 0 1
    outer loop
      vertex 30 -45 0
      vertex 45 -60 0
      vertex 45 -45 0
    endloop
  endfacet
endsolid
solid Rectangle_:grass:ground::inner:6:7
  facet normal 0 0 1
    outer loop
      vertex 30 -45 0
      vertex 30 -60 0
      vertex 45 -60 0
    endloop
  endfacet
endsolid
solid Rectangle_:grass:ground::inner:7:0
  facet normal 0 0 1
    outer loop
      vertex 45 60 0
      vertex 60 45 0
      vertex 60 60 0
    endloop
  endfacet
endsolid
solid Rectangle_:grass:ground::inner:7:0
  facet normal 0 0 1
    outer loop
      vertex 45 60 0
      vertex 45 45 0
      vertex 60 45 0
    endloop
  endfacet
endsolid
solid Rectangle_:grass:ground::inner:7:1
  facet normal 0 0 1
    outer loop
      vertex 45 45 0
      vertex 60 30 0
      vertex 60 45 0
    endloop
  endfacet
endsolid
solid Rectangle_:grass:ground::inner:7:1
  facet normal 0 0 1
    outer loop
      vertex 45 45 0
      vertex 45 30 0
      vertex 60 30 0
    endloop
  endfacet
endsolid
solid Rectangle_:grass:ground::inner:7:2
  facet normal 0 0 1
    outer loop
      vertex 45 30 0
      vertex 60 15 0
      vertex 60 30 0
    endloop
  endfacet
endsolid
solid Rectangle_:grass:ground::inner:7:2
  facet normal 0 0 1
    outer loop
      vertex 45 30 0
      vertex 45 15 0
      vertex 60 15 0
    endloop
  endfacet
endsolid
solid Rectangle_:grass:ground::inner:7:3
  facet normal 0 0 1
    outer loop
      vertex 45 15 0
      vertex 60 0 0
      vertex 60 15 0
    endloop
  endfacet
endsolid
solid Rectangle_:grass:ground::inner:7:3
  facet normal 0 0 1
    outer loop
      vertex 45 15 0
      vertex 45 0 0
      vertex 60 0 0
    endloop
  endfacet
endsolid
solid Rectangle_:grass:ground::inner:7:4
  facet normal 0 0 1
    outer loop
      vertex 45 0 0
      vertex 60 -15 0
      vertex 60 0 0
    endloop
  endfacet
endsolid
solid Rectangle_:grass:ground::inner:7:4
  facet normal 0 0 1
    outer loop
      vertex 45 0 0
      vertex 45 -15 0
      vertex 60 -15 0
    endloop
  endfacet
endsolid
solid Rectangle_:grass:ground::inner:7:5
  facet normal 0 0 1
    outer loop
      vertex 45 -15 0
      vertex 60 -30 0
      vertex 60 -15 0
    endloop
  endfacet
endsolid
solid Rectangle_:grass:ground::inner:7:5
  facet normal 0 0 1
    outer loop
      vertex 45 -15 0
      vertex 45 -30 0
      vertex 60 -30 0
    endloop
  endfacet
endsolid
solid Rectangle_:grass:ground::inner:7:6
  facet normal 0 0 1
    outer loop
      vertex 45 -30 0
      vertex 60 -45 0
      vertex 60 -30 0
    endloop
  endfacet
endsolid
solid Rectangle_:grass:ground::inner:7:6
  facet normal 0 0 1
    outer loop
      vertex 45 -30 0
      vertex 45 -45 0
      vertex 60 -45 0
    endloop
  endfacet
endsolid
solid Rectangle_:grass:ground::inner:7:7
  facet normal 0 0 1
    outer loop
      vertex 45 -45 0
      vertex 60 -60 0
      vertex 60 -45 0
    endloop
  endfacet
endsolid
solid Rectangle_:grass:ground::inner:7:7
  facet normal 0 0 1
    outer loop
      vertex 45 -45 0
      vertex 45 -60 0
      vertex 60 -60 0
    endloop
  endfacet
endsolid
solid Rectangle_:grass:ground::top:0:0
  facet normal 0 0 1
    outer loop
      vertex -60 120 0
      vertex -30 90 0
      vertex -30 120 0
    endloop
  endfacet
endsolid
solid Rectangle_:grass:ground::top:0:0
  facet normal 0 0 1
    outer loop
      vertex -60 120 0
      vertex -60 90 0
      vertex -30 90 0
    endloop
  endfacet
endsolid
solid Rectangle_:grass:ground::top:0:1
  facet normal 0 0 1
    outer loop
      vertex -60 90 0
      vertex -30 60 0
      vertex -30 90 0
    endloop
  endfacet
endsolid
solid Rectangle_:grass:ground::top:0:1
  facet normal 0 0 1
    outer loop
      vertex -60 90 0
      vertex -60 60 0
      vertex -30 60 0
    endloop
  endfacet
endsolid
solid Rectangle_:grass:ground::top:1:0
  facet normal 0 0 1
    outer loop
      vertex -30 120 0
      vertex 0 90 0
      vertex 0 120 0
    endloop
  endfacet
endsolid
solid Rectangle_:grass:ground::top:1:0
  facet normal 0 0 1
    outer loop
      vertex -30 120 0
      vertex -30 90 0
      vertex 0 90 0
    endloop
  endfacet
endsolid
solid Rectangle_:grass:ground::top:1:1
  facet normal 0 0 1
    outer loop
      vertex -30 90 0
      vertex 0 60 0
      vertex 0 90 0
    endloop
  endfacet
endsolid
solid Rectangle_:grass:ground::top:1:1
  facet normal 0 0 1
    outer loop
      vertex -30 90 0
      vertex -30 60 0
      vertex 0 60 0
    endloop
  endfacet
endsolid
solid Rectangle_:grass:ground::top:2:0
  facet normal 0 0 1
    outer loop
      vertex 0 120 0
      vertex 30 90 0
      vertex 30 120 0
    endloop
  endfacet
endsolid
solid Rectangle_:grass:ground::top:2:0
  facet normal 0 0 1
    outer loop
      vertex 0 120 0
      vertex 0 90 0
      vertex 30 90 0
    endloop
  endfacet
endsolid
solid Rectangle_:grass:ground::top:2:1
  facet normal 0 0 1
    outer loop
      vertex 0 90 0
      vertex 30 60 0
      vertex 30 90 0
    endloop
  endfacet
endsolid
solid Rectangle_:grass:ground::top:2:1
  facet normal 0 0 1
    outer loop
      vertex 0 90 0
      vertex 0 60 0
      vertex 30 60 0
    endloop
  endfacet
endsolid
solid Rectangle_:grass:ground::top:3:0
  facet normal 0 0 1
    outer loop
      vertex 30 120 0
      vertex 60 90 0
      vertex 60 120 0
    endloop
  endfacet
endsolid
solid Rectangle_:grass:ground::top:3:0
  facet normal 0 0 1
    outer loop
      vertex 30 120 0
      vertex 30 90 0
      vertex 60 90 0
    endloop
  endfacet
endsolid
solid Rectangle_:grass:ground::top:3:1
  facet normal 0 0 1
    outer loop
      vertex 30 90 0
      vertex 60 60 0
      vertex 60 90 0
    endloop
  endfacet
endsolid
solid Rectangle_:grass:ground::top:3:1
  facet normal 0 0 1
    outer loop
      vertex 30 90 0
      vertex 30 60 0
      vertex 60 60 0
    endloop
  endfacet
endsolid
solid Rectangle_:grass:ground::left:0:0
  facet normal 0 0 1
    outer loop
      vertex -120 120 0
      vertex -90 90 0
      vertex -90 120 0
    endloop
  endfacet
endsolid
solid Rectangle_:grass:ground::left:0:0
  facet normal 0 0 1
    outer loop
      vertex -120 120 0
      vertex -120 90 0
      vertex -90 90 0
    endloop
  endfacet
endsolid
solid Rectangle_:grass:ground::left:0:1
  facet normal 0 0 1
    outer loop
      vertex -120 90 0
      vertex -90 60 0
      vertex -90 90 0
    endloop
  endfacet
endsolid
solid Rectangle_:grass:ground::left:0:1
  facet normal 0 0 1
    outer loop
      vertex -120 90 0
      vertex -120 60 0
      vertex -90 60 0
    endloop
  endfacet
endsolid
solid Rectangle_:grass:ground::left:0:2
  facet normal 0 0 1
    outer loop
      vertex -120 60 0
      vertex -90 30 0
      vertex -90 60 0
    endloop
  endfacet
endsolid
solid Rectangle_:grass:ground::left:0:2
  facet normal 0 0 1
    outer loop
      vertex -120 60 0
      vertex -120 30 0
      vertex -90 30 0
    endloop
  endfacet
endsolid
solid Rectangle_:grass:ground::left:0:3
  facet normal 0 0 1
    outer loop
      vertex -120 30 0
      vertex -90 0 0
      vertex -90 30 0
    endloop
  endfacet
endsolid
solid Rectangle_:grass:ground::left:0:3
  facet normal 0 0 1
    outer loop
      vertex -120 30 0
      vertex -120 0 0
      vertex -90 0 0
    endloop
  endfacet
endsolid
solid Rectangle_:grass:ground::left:0:4
  facet normal 0 0 1
    outer loop
      vertex -120 0 0
      vertex -90 -30 0
      vertex -90 0 0
    endloop
  endfacet
endsolid
solid Rectangle_:grass:ground::left:0:4
  facet normal 0 0 1
    outer loop
      vertex -120 0 0
      vertex -120 -30 0
      vertex -90 -30 0
    endloop
  endfacet
endsolid
solid Rectangle_:grass:ground::left:0:5
  facet normal 0 0 1
    outer loop
      vertex -120 -30 0
      vertex -90 -60 0
      vertex -90 -30 0
    endloop
  endfacet
endsolid
solid Rectangle_:grass:ground::left:0:5
  facet normal 0 0 1
    outer loop
      vertex -120 -30 0
      vertex -120 -60 0
      vertex -90 -60 0
    endloop
  endfacet
endsolid
solid Rectangle_:grass:ground::left:1:0
  facet normal 0 0 1
    outer loop
      vertex -90 120 0
      vertex -60 90 0
      vertex -60 120 0
    endloop
  endfacet
endsolid
solid Rectangle_:grass:ground::left:1:0
  facet normal 0 0 1
    outer loop
      vertex -90 120 0
      vertex -90 90 0
      vertex -60 90 0
    endloop
  endfacet
endsolid
solid Rectangle_:grass:ground::left:1:1
  facet normal 0 0 1
    outer loop
      vertex -90 90 0
      vertex -60 60 0
      vertex -60 90 0
    endloop
  endfacet
endsolid
solid Rectangle_:grass:ground::left:1:1
  facet normal 0 0 1
    outer loop
      vertex -90 90 0
      vertex -90 60 0
      vertex -60 60 0
    endloop
  endfacet
endsolid
solid Rectangle_:grass:ground::left:1:2
  facet normal 0 0 1
    outer loop
      vertex -90 60 0
      vertex -60 30 0
      vertex -60 60 0
    endloop
  endfacet
endsolid
solid Rectangle_:grass:ground::left:1:2
  facet normal 0 0 1
    outer loop
      vertex -90 60 0
      vertex -90 30 0
      vertex -60 30 0
    endloop
  endfacet
endsolid
solid Rectangle_:grass:ground::left:1:3
  facet normal 0 0 1
    outer loop
      vertex -90 30 0
      vertex -60 0 0
      vertex -60 30 0
    endloop
  endfacet
endsolid
solid Rectangle_:grass:ground::left:1:3
  facet normal 0 0 1
    outer loop
      vertex -90 30 0
      vertex -90 0 0
      vertex -60 0 0
    endloop
  endfacet
endsolid
solid Rectangle_:grass:ground::left:1:4
  facet normal 0 0 1
    outer loop
      vertex -90 0 0
      vertex -60 -30 0
      vertex -60 0 0
    endloop
  endfacet
endsolid
solid Rectangle_:grass:ground::left:1:4
  facet normal 0 0 1
    outer loop
      vertex -90 0 0
      vertex -90 -30 0
      vertex -60 -30 0
    endloop
  endfacet
endsolid
solid Rectangle_:grass:ground::left:1:5
  facet normal 0 0 1
    outer loop
      vertex -90 -30 0
      vertex -60 -60 0
      vertex -60 -30 0
    endloop
  endfacet
endsolid
solid Rectangle_:grass:ground::left:1:5
  facet normal 0 0 1
    outer loop
      vertex -90 -30 0
      vertex -90 -60 0
      vertex -60 -60 0
    endloop
  endfacet
endsolid
solid Rectangle_:grass:ground::right:0:0
  facet normal 0 0 1
    outer loop
      vertex 60 120 0
      vertex 90 90 0
      vertex 90 120 0
    endloop
  endfacet
endsolid
solid Rectangle_:grass:ground::right:0:0
  facet normal 0 0 1
    outer loop
      vertex 60 120 0
      vertex 60 90 0
      vertex 90 90 0
    endloop
  endfacet
endsolid
solid Rectangle_:grass:ground::right:0:1
  facet normal 0 0 1
    outer loop
      vertex 60 90 0
      vertex 90 60 0
      vertex 90 90 0
    endloop
  endfacet
endsolid
solid Rectangle_:grass:ground::right:0:1
  facet normal 0 0 1
    outer loop
      vertex 60 90 0
      vertex 60 60 0
      vertex 90 60 0
    endloop
  endfacet
endsolid
solid Rectangle_:grass:ground::right:0:2
  facet normal 0 0 1
    outer loop
      vertex 60 60 0
      vertex 90 30 0
      vertex 90 60 0
    endloop
  endfacet
endsolid
solid Rectangle_:grass:ground::right:0:2
  facet normal 0 0 1
    outer loop
      vertex 60 60 0
      vertex 60 30 0
      vertex 90 30 0
    endloop
  endfacet
endsolid
solid Rectangle_:grass:ground::right:0:3
  facet normal 0 0 1
    outer loop
      vertex 60 30 0
      vertex 90 0 0
      vertex 90 30 0
    endloop
  endfacet
endsolid
solid Rectangle_:grass:ground::right:0:3
  facet normal 0 0 1
    outer loop
      vertex 60 30 0
      vertex 60 0 0
      vertex 90 0 0
    endloop
  endfacet
endsolid
solid Rectangle_:grass:ground::right:0:4
  facet normal 0 0 1
    outer loop
      vertex 60 0 0
      vertex 90 -30 0
      vertex 90 0 0
    endloop
  endfacet
endsolid
solid Rectangle_:grass:ground::right:0:4
  facet normal 0 0 1
    outer loop
      vertex 60 0 0
      vertex 60 -30 0
      vertex 90 -30 0
    endloop
  endfacet
endsolid
solid Rectangle_:grass:ground::right:0:5
  facet normal 0 0 1
    outer loop
      vertex 60 -30 0
      vertex 90 -60 0
      vertex 90 -30 0
    endloop
  endfacet
endsolid
solid Rectangle_:grass:ground::right:0:5
  facet normal 0 0 1
    outer loop
      vertex 60 -30 0
      vertex 60 -60 0
      vertex 90 -60 0
    endloop
  endfacet
endsolid
solid Rectangle_:grass:ground::right:1:0
  facet normal 0 0 1
    outer loop
      vertex 90 120 0
      vertex 120 90 0
      vertex 120 120 0
    endloop
  endfacet
endsolid
solid Rectangle_:grass:ground::right:1:0
  facet normal 0 0 1
    outer loop
      vertex 90 120 0
      vertex 90 90 0
      vertex 120 90 0
    endloop
  endfacet
endsolid
solid Rectangle_:grass:ground::right:1:1
  facet normal 0 0 1
    outer loop
      vertex 90 90 0
      vertex 120 60 0
      vertex 120 90 0
    endloop
  endfacet
endsolid
solid Rectangle_:grass:ground::right:1:1
  facet normal 0 0 1
    outer loop
      vertex 90 90 0
      vertex 90 60 0
      vertex 120 60 0
    endloop
  endfacet
endsolid
solid Rectangle_:grass:ground::right:1:2
  facet normal 0 0 1
    outer loop
      vertex 90 60 0
      vertex 120 30 0
      vertex 120 60 0
    endloop
  endfacet
endsolid
solid Rectangle_:grass:ground::right:1:2
  facet normal 0 0 1
    outer loop
      vertex 90 60 0
      vertex 90 30 0
      vertex 120 30 0
    endloop
  endfacet
endsolid
solid Rectangle_:grass:ground::right:1:3
  facet normal 0 0 1
    outer loop
      vertex 90 30 0
      vertex 120 0 0
      vertex 120 30 0
    endloop
  endfacet
endsolid
solid Rectangle_:grass:ground::right:1:3
  facet normal 0 0 1
    outer loop
      vertex 90 30 0
      vertex 90 0 0
      vertex 120 0 0
    endloop
  endfacet
endsolid
solid Rectangle_:grass:ground::right:1:4
  facet normal 0 0 1
    outer loop
      vertex 90 0 0
      vertex 120 -30 0
      vertex 120 0 0
    endloop
  endfacet
endsolid
solid Rectangle_:grass:ground::right:1:4
  facet normal 0 0 1
    outer loop
      vertex 90 0 0
      vertex 90 -30 0
      vertex 120 -30 0
    endloop
  endfacet
endsolid
solid Rectangle_:grass:ground::right:1:5
  facet normal 0 0 1
    outer loop
      vertex 90 -30 0
      vertex 120 -60 0
      vertex 120 -30 0
    endloop
  endfacet
endsolid
solid Rectangle_:grass:ground::right:1:5
  facet normal 0 0 1
    outer loop
      vertex 90 -30 0
      vertex 90 -60 0
      vertex 120 -60 0
    endloop
  endfacet
endsolid
solid Rectangle_:grass:ground::bottom:0:0
  facet normal 0 0 1
    outer loop
      vertex -120 -60 0
      vertex -90 -90 0
      vertex -90 -60 0
    endloop
  endfacet
endsolid
solid Rectangle_:grass:ground::bottom:0:0
  facet normal 0 0 1
    outer loop
      vertex -120 -60 0
      vertex -120 -90 0
      vertex -90 -90 0
    endloop
  endfacet
endsolid
solid Rectangle_:grass:ground::bottom:0:1
  facet normal 0 0 1
    outer loop
      vertex -120 -90 0
      vertex -90 -120 0
      vertex -90 -90 0
    endloop
  endfacet
endsolid
solid Rectangle_:grass:ground::bottom:0:1
  facet normal 0 0 1
    outer loop
      vertex -120 -90 0
      vertex -120 -120 0
      vertex -90 -120 0
    endloop
  endfacet
endsolid
solid Rectangle_:grass:ground::bottom:1:0
  facet normal 0 0 1
    outer loop
      vertex -90 -60 0
      vertex -60 -90 0
      vertex -60 -60 0
    endloop
  endfacet
endsolid
solid Rectangle_:grass:ground::bottom:1:0
  facet normal 0 0 1
    outer loop
      vertex -90 -60 0
      vertex -90 -90 0
      vertex -60 -90 0
    endloop
  endfacet
endsolid
solid Rectangle_:grass:ground::bottom:1:1
  facet normal 0 0 1
    outer loop
      vertex -90 -90 0
      vertex -60 -120 0
      vertex -60 -90 0
    endloop
  endfacet
endsolid
solid Rectangle_:grass:ground::bottom:1:1
  facet normal 0 0 1
    outer loop
      vertex -90 -90 0
      vertex -90 -120 0
      vertex -60 -120 0
    endloop
  endfacet
endsolid
solid Rectangle_:grass:ground::bottom:2:0
  facet normal 0 0 1
    outer loop
      vertex -60 -60 0
      vertex -30 -90 0
      vertex -30 -60 0
    endloop
  endfacet
endsolid
solid Rectangle_:grass:ground::bottom:2:0
  facet normal 0 0 1
    outer loop
      vertex -60 -60 0
      vertex -60 -90 0
      vertex -30 -90 0
    endloop
  endfacet
endsolid
solid Rectangle_:grass:ground::bottom:2:1
  facet normal 0 0 1
    outer loop
      vertex -60 -90 0
      vertex -30 -120 0
      vertex -30 -90 0
    endloop
  endfacet
endsolid
solid Rectangle_:grass:ground::bottom:2:1
  facet normal 0 0 1
    outer loop
      vertex -60 -90 0
      vertex -60 -120 0
      vertex -30 -120 0
    endloop
  endfacet
endsolid
solid Rectangle_:grass:ground::bottom:3:0
  facet normal 0 0 1
    outer loop
      vertex -30 -60 0
      vertex 0 -90 0
      vertex 0 -60 0
    endloop
  endfacet
endsolid
solid Rectangle_:grass:ground::bottom:3:0
  facet normal 0 0 1
    outer loop
      vertex -30 -60 0
      vertex -30 -90 0
      vertex 0 -90 0
    endloop
  endfacet
endsolid
solid Rectangle_:grass:ground::bottom:3:1
  facet normal 0 0 1
    outer loop
      vertex -30 -90 0
      vertex 0 -120 0
      vertex 0 -90 0
    endloop
  endfacet
endsolid
solid Rectangle_:grass:ground::bottom:3:1
  facet normal 0 0 1
    outer loop
      vertex -30 -90 0
      vertex -30 -120 0
      vertex 0 -120 0
    endloop
  endfacet
endsolid
solid Rectangle_:grass:ground::bottom:4:0
  facet normal 0 0 1
    outer loop
      vertex 0 -60 0
      vertex 30 -90 0
      vertex 30 -60 0
    endloop
  endfacet
endsolid
solid Rectangle_:grass:ground::bottom:4:0
  facet normal 0 0 1
    outer loop
      vertex 0 -60 0
      vertex 0 -90 0
      vertex 30 -90 0
    endloop
  endfacet
endsolid
solid Rectangle_:grass:ground::bottom:4:1
  facet normal 0 0 1
    outer loop
      vertex 0 -90 0
      vertex 30 -120 0
      vertex 30 -90 0
    endloop
  endfacet
endsolid
solid Rectangle_:grass:ground::bottom:4:1
  facet normal 0 0 1
    outer loop
      vertex 0 -90 0
      vertex 0 -120 0
      vertex 30 -120 0
    endloop
  endfacet
endsolid
solid Rectangle_:grass:ground::bottom:5:0
  facet normal 0 0 1
    outer loop
      vertex 30 -60 0
      vertex 60 -90 0
      vertex 60 -60 0
    endloop
  endfacet
endsolid
solid Rectangle_:grass:ground::bottom:5:0
  facet normal 0 0 1
    outer loop
      vertex 30 -60 0
      vertex 30 -90 0
      vertex 60 -90 0
    endloop
  endfacet
endsolid
solid Rectangle_:grass:ground::bottom:5:1
  facet normal 0 0 1
    outer loop
      vertex 30 -90 0
      vertex 60 -120 0
      vertex 60 -90 0
    endloop
  endfacet
endsolid
solid Rectangle_:grass:ground::bottom:5:1
  facet normal 0 0 1
    outer loop
      vertex 30 -90 0
      vertex 30 -120 0
      vertex 60 -120 0
    endloop
  endfacet
endsolid
solid Rectangle_:grass:ground::bottom:6:0
  facet normal 0 0 1
    outer loop
      vertex 60 -60 0
      vertex 90 -90 0
      vertex 90 -60 0
    endloop
  endfacet
endsolid
solid Rectangle_:grass:ground::bottom:6:0
  facet normal 0 0 1
    outer loop
      vertex 60 -60 0
      vertex 60 -90 0
      vertex 90 -90 0
    endloop
  endfacet
endsolid
solid Rectangle_:grass:ground::bottom:6:1
  facet normal 0 0 1
    outer loop
      vertex 60 -90 0
      vertex 90 -120 0
      vertex 90 -90 0
    endloop
  endfacet
endsolid
solid Rectangle_:grass:ground::bottom:6:1
  facet normal 0 0 1
    outer loop
      vertex 60 -90 0
      vertex 60 -120 0
      vertex 90 -120 0
    endloop
  endfacet
endsolid
solid Rectangle_:grass:ground::bottom:7:0
  facet normal 0 0 1
    outer loop
      vertex 90 -60 0
      vertex 120 -90 0
      vertex 120 -60 0
    endloop
  endfacet
endsolid
solid Rectangle_:grass:ground::bottom:7:0
  facet normal 0 0 1
    outer loop
      vertex 90 -60 0
      vertex 90 -90 0
      vertex 120 -90 0
    endloop
  endfacet
endsolid
solid Rectangle_:grass:ground::bottom:7:1
  facet normal 0 0 1
    outer loop
      vertex 90 -90 0
      vertex 120 -120 0
      vertex 120 -90 0
    endloop
  endfacet
endsolid
solid Rectangle_:grass:ground::bottom:7:1
  facet normal 0 0 1
    outer loop
      vertex 90 -90 0
      vertex 90 -120 0
      vertex 120 -120 0
    endloop
  endfacet
endsolid
