solid Ground:left:grass:-120:120:0
  facet normal 0 0 1
    outer loop
      vertex -120 120 0
      vertex -90 90 0
      vertex -90 120 0
    endloop
  endfacet
endsolid
solid Ground:left:grass:-120:120:1
  facet normal 0 0 1
    outer loop
      vertex -120 120 0
      vertex -120 90 0
      vertex -90 90 0
    endloop
  endfacet
endsolid
solid Ground:left:grass:-120:90:0
  facet normal 0 0 1
    outer loop
      vertex -120 90 0
      vertex -90 60 0
      vertex -90 90 0
    endloop
  endfacet
endsolid
solid Ground:left:grass:-120:90:1
  facet normal 0 0 1
    outer loop
      vertex -120 90 0
      vertex -120 60 0
      vertex -90 60 0
    endloop
  endfacet
endsolid
solid Ground:left:grass:-120:60:0
  facet normal 0 0 1
    outer loop
      vertex -120 60 0
      vertex -90 30 0
      vertex -90 60 0
    endloop
  endfacet
endsolid
solid Ground:left:grass:-120:60:1
  facet normal 0 0 1
    outer loop
      vertex -120 60 0
      vertex -120 30 0
      vertex -90 30 0
    endloop
  endfacet
endsolid
solid Ground:left:grass:-120:30:0
  facet normal 0 0 1
    outer loop
      vertex -120 30 0
      vertex -90 0 0
      vertex -90 30 0
    endloop
  endfacet
endsolid
solid Ground:left:grass:-120:30:1
  facet normal 0 0 1
    outer loop
      vertex -120 30 0
      vertex -120 0 0
      vertex -90 0 0
    endloop
  endfacet
endsolid
solid Ground:left:grass:-120:0:0
  facet normal 0 0 1
    outer loop
      vertex -120 0 0
      vertex -90 -30 0
      vertex -90 0 0
    endloop
  endfacet
endsolid
solid Ground:left:grass:-120:0:1
  facet normal 0 0 1
    outer loop
      vertex -120 0 0
      vertex -120 -30 0
      vertex -90 -30 0
    endloop
  endfacet
endsolid
solid Ground:left:grass:-120:-30:0
  facet normal 0 0 1
    outer loop
      vertex -120 -30 0
      vertex -90 -60 0
      vertex -90 -30 0
    endloop
  endfacet
endsolid
solid Ground:left:grass:-120:-30:1
  facet normal 0 0 1
    outer loop
      vertex -120 -30 0
      vertex -120 -60 0
      vertex -90 -60 0
    endloop
  endfacet
endsolid
solid Ground:left:grass:-90:120:0
  facet normal 0 0 1
    outer loop
      vertex -90 120 0
      vertex -60 90 0
      vertex -60 120 0
    endloop
  endfacet
endsolid
solid Ground:left:grass:-90:120:1
  facet normal 0 0 1
    outer loop
      vertex -90 120 0
      vertex -90 90 0
      vertex -60 90 0
    endloop
  endfacet
endsolid
solid Ground:left:grass:-90:90:0
  facet normal 0 0 1
    outer loop
      vertex -90 90 0
      vertex -60 60 0
      vertex -60 90 0
    endloop
  endfacet
endsolid
solid Ground:left:grass:-90:90:1
  facet normal 0 0 1
    outer loop
      vertex -90 90 0
      vertex -90 60 0
      vertex -60 60 0
    endloop
  endfacet
endsolid
solid Ground:left:grass:-90:60:0
  facet normal 0 0 1
    outer loop
      vertex -90 60 0
      vertex -60 30 0
      vertex -60 60 0
    endloop
  endfacet
endsolid
solid Ground:left:grass:-90:60:1
  facet normal 0 0 1
    outer loop
      vertex -90 60 0
      vertex -90 30 0
      vertex -60 30 0
    endloop
  endfacet
endsolid
solid Ground:left:grass:-90:30:0
  facet normal 0 0 1
    outer loop
      vertex -90 30 0
      vertex -60 0 0
      vertex -60 30 0
    endloop
  endfacet
endsolid
solid Ground:left:grass:-90:30:1
  facet normal 0 0 1
    outer loop
      vertex -90 30 0
      vertex -90 0 0
      vertex -60 0 0
    endloop
  endfacet
endsolid
solid Ground:left:grass:-90:0:0
  facet normal 0 0 1
    outer loop
      vertex -90 0 0
      vertex -60 -30 0
      vertex -60 0 0
    endloop
  endfacet
endsolid
solid Ground:left:grass:-90:0:1
  facet normal 0 0 1
    outer loop
      vertex -90 0 0
      vertex -90 -30 0
      vertex -60 -30 0
    endloop
  endfacet
endsolid
solid Ground:left:grass:-90:-30:0
  facet normal 0 0 1
    outer loop
      vertex -90 -30 0
      vertex -60 -60 0
      vertex -60 -30 0
    endloop
  endfacet
endsolid
solid Ground:left:grass:-90:-30:1
  facet normal 0 0 1
    outer loop
      vertex -90 -30 0
      vertex -90 -60 0
      vertex -60 -60 0
    endloop
  endfacet
endsolid
solid Ground:innerGrid:grass:-60:60:0
  facet normal 0 0 1
    outer loop
      vertex -60 60 0
      vertex -45 45 0
      vertex -45 60 0
    endloop
  endfacet
endsolid
solid Ground:innerGrid:grass:-60:60:1
  facet normal 0 0 1
    outer loop
      vertex -60 60 0
      vertex -60 45 0
      vertex -45 45 0
    endloop
  endfacet
endsolid
solid Ground:innerGrid:grass:-60:45:0
  facet normal 0 0 1
    outer loop
      vertex -60 45 0
      vertex -45 30 0
      vertex -45 45 0
    endloop
  endfacet
endsolid
solid Ground:innerGrid:grass:-60:45:1
  facet normal 0 0 1
    outer loop
      vertex -60 45 0
      vertex -60 30 0
      vertex -45 30 0
    endloop
  endfacet
endsolid
solid Ground:innerGrid:grass:-60:30:0
  facet normal 0 0 1
    outer loop
      vertex -60 30 0
      vertex -45 15 0
      vertex -45 30 0
    endloop
  endfacet
endsolid
solid Ground:innerGrid:grass:-60:30:1
  facet normal 0 0 1
    outer loop
      vertex -60 30 0
      vertex -60 15 0
      vertex -45 15 0
    endloop
  endfacet
endsolid
solid Ground:innerGrid:grass:-60:15:0
  facet normal 0 0 1
    outer loop
      vertex -60 15 0
      vertex -45 0 0
      vertex -45 15 0
    endloop
  endfacet
endsolid
solid Ground:innerGrid:grass:-60:15:1
  facet normal 0 0 1
    outer loop
      vertex -60 15 0
      vertex -60 0 0
      vertex -45 0 0
    endloop
  endfacet
endsolid
solid Ground:innerGrid:grass:-60:0:0
  facet normal 0 0 1
    outer loop
      vertex -60 0 0
      vertex -45 -15 0
      vertex -45 0 0
    endloop
  endfacet
endsolid
solid Ground:innerGrid:grass:-60:0:1
  facet normal 0 0 1
    outer loop
      vertex -60 0 0
      vertex -60 -15 0
      vertex -45 -15 0
    endloop
  endfacet
endsolid
solid Ground:innerGrid:grass:-60:-15:0
  facet normal 0 0 1
    outer loop
      vertex -60 -15 0
      vertex -45 -30 0
      vertex -45 -15 0
    endloop
  endfacet
endsolid
solid Ground:innerGrid:grass:-60:-15:1
  facet normal 0 0 1
    outer loop
      vertex -60 -15 0
      vertex -60 -30 0
      vertex -45 -30 0
    endloop
  endfacet
endsolid
solid Ground:innerGrid:grass:-60:-30:0
  facet normal 0 0 1
    outer loop
      vertex -60 -30 0
      vertex -45 -45 0
      vertex -45 -30 0
    endloop
  endfacet
endsolid
solid Ground:innerGrid:grass:-60:-30:1
  facet normal 0 0 1
    outer loop
      vertex -60 -30 0
      vertex -60 -45 0
      vertex -45 -45 0
    endloop
  endfacet
endsolid
solid Ground:innerGrid:grass:-60:-45:0
  facet normal 0 0 1
    outer loop
      vertex -60 -45 0
      vertex -45 -60 0
      vertex -45 -45 0
    endloop
  endfacet
endsolid
solid Ground:innerGrid:grass:-60:-45:1
  facet normal 0 0 1
    outer loop
      vertex -60 -45 0
      vertex -60 -60 0
      vertex -45 -60 0
    endloop
  endfacet
endsolid
solid Ground:innerGrid:grass:-45:60:0
  facet normal 0 0 1
    outer loop
      vertex -45 60 0
      vertex -30 45 0
      vertex -30 60 0
    endloop
  endfacet
endsolid
solid Ground:innerGrid:grass:-45:60:1
  facet normal 0 0 1
    outer loop
      vertex -45 60 0
      vertex -45 45 0
      vertex -30 45 0
    endloop
  endfacet
endsolid
solid Ground:innerGrid:grass:-45:45:0
  facet normal 0 0 1
    outer loop
      vertex -45 45 0
      vertex -30 30 0
      vertex -30 45 0
    endloop
  endfacet
endsolid
solid Ground:innerGrid:grass:-45:45:1
  facet normal 0 0 1
    outer loop
      vertex -45 45 0
      vertex -45 30 0
      vertex -30 30 0
    endloop
  endfacet
endsolid
solid Ground:innerGrid:grass:-45:30:0
  facet normal 0 0 1
    outer loop
      vertex -45 30 0
      vertex -30 15 0
      vertex -30 30 0
    endloop
  endfacet
endsolid
solid Ground:innerGrid:grass:-45:30:1
  facet normal 0 0 1
    outer loop
      vertex -45 30 0
      vertex -45 15 0
      vertex -30 15 0
    endloop
  endfacet
endsolid
solid Ground:innerGrid:grass:-45:15:0
  facet normal 0 0 1
    outer loop
      vertex -45 15 0
      vertex -30 0 0
      vertex -30 15 0
    endloop
  endfacet
endsolid
solid Ground:innerGrid:grass:-45:15:1
  facet normal 0 0 1
    outer loop
      vertex -45 15 0
      vertex -45 0 0
      vertex -30 0 0
    endloop
  endfacet
endsolid
solid Ground:innerGrid:grass:-45:0:0
  facet normal 0 0 1
    outer loop
      vertex -45 0 0
      vertex -30 -15 0
      vertex -30 0 0
    endloop
  endfacet
endsolid
solid Ground:innerGrid:grass:-45:0:1
  facet normal 0 0 1
    outer loop
      vertex -45 0 0
      vertex -45 -15 0
      vertex -30 -15 0
    endloop
  endfacet
endsolid
solid Ground:innerGrid:grass:-45:-15:0
  facet normal 0 0 1
    outer loop
      vertex -45 -15 0
      vertex -30 -30 0
      vertex -30 -15 0
    endloop
  endfacet
endsolid
solid Ground:innerGrid:grass:-45:-15:1
  facet normal 0 0 1
    outer loop
      vertex -45 -15 0
      vertex -45 -30 0
      vertex -30 -30 0
    endloop
  endfacet
endsolid
solid Ground:innerGrid:grass:-45:-30:0
  facet normal 0 0 1
    outer loop
      vertex -45 -30 0
      vertex -30 -45 0
      vertex -30 -30 0
    endloop
  endfacet
endsolid
solid Ground:innerGrid:grass:-45:-30:1
  facet normal 0 0 1
    outer loop
      vertex -45 -30 0
      vertex -45 -45 0
      vertex -30 -45 0
    endloop
  endfacet
endsolid
solid Ground:innerGrid:grass:-45:-45:0
  facet normal 0 0 1
    outer loop
      vertex -45 -45 0
      vertex -30 -60 0
      vertex -30 -45 0
    endloop
  endfacet
endsolid
solid Ground:innerGrid:grass:-45:-45:1
  facet normal 0 0 1
    outer loop
      vertex -45 -45 0
      vertex -45 -60 0
      vertex -30 -60 0
    endloop
  endfacet
endsolid
solid Ground:innerGrid:grass:-30:60:0
  facet normal 0 0 1
    outer loop
      vertex -30 60 0
      vertex -15 45 0
      vertex -15 60 0
    endloop
  endfacet
endsolid
solid Ground:innerGrid:grass:-30:60:1
  facet normal 0 0 1
    outer loop
      vertex -30 60 0
      vertex -30 45 0
      vertex -15 45 0
    endloop
  endfacet
endsolid
solid Ground:innerGrid:grass:-30:45:0
  facet normal 0 0 1
    outer loop
      vertex -30 45 0
      vertex -15 30 0
      vertex -15 45 0
    endloop
  endfacet
endsolid
solid Ground:innerGrid:grass:-30:45:1
  facet normal 0 0 1
    outer loop
      vertex -30 45 0
      vertex -30 30 0
      vertex -15 30 0
    endloop
  endfacet
endsolid
solid Ground:innerGrid:grass:-30:30:0
  facet normal 0 0 1
    outer loop
      vertex -30 30 0
      vertex -15 15 0
      vertex -15 30 0
    endloop
  endfacet
endsolid
solid Ground:innerGrid:grass:-30:30:1
  facet normal 0 0 1
    outer loop
      vertex -30 30 0
      vertex -30 15 0
      vertex -15 15 0
    endloop
  endfacet
endsolid
solid Ground:innerGrid:grass:-30:15:0
  facet normal 0 0 1
    outer loop
      vertex -30 15 0
      vertex -15 0 0
      vertex -15 15 0
    endloop
  endfacet
endsolid
solid Ground:innerGrid:grass:-30:15:1
  facet normal 0 0 1
    outer loop
      vertex -30 15 0
      vertex -30 0 0
      vertex -15 0 0
    endloop
  endfacet
endsolid
solid Ground:innerGrid:grass:-30:0:0
  facet normal 0 0 1
    outer loop
      vertex -30 0 0
      vertex -15 -15 0
      vertex -15 0 0
    endloop
  endfacet
endsolid
solid Ground:innerGrid:grass:-30:0:1
  facet normal 0 0 1
    outer loop
      vertex -30 0 0
      vertex -30 -15 0
      vertex -15 -15 0
    endloop
  endfacet
endsolid
solid Ground:innerGrid:grass:-30:-15:0
  facet normal 0 0 1
    outer loop
      vertex -30 -15 0
      vertex -15 -30 0
      vertex -15 -15 0
    endloop
  endfacet
endsolid
solid Ground:innerGrid:grass:-30:-15:1
  facet normal 0 0 1
    outer loop
      vertex -30 -15 0
      vertex -30 -30 0
      vertex -15 -30 0
    endloop
  endfacet
endsolid
solid Ground:innerGrid:grass:-30:-30:0
  facet normal 0 0 1
    outer loop
      vertex -30 -30 0
      vertex -15 -45 0
      vertex -15 -30 0
    endloop
  endfacet
endsolid
solid Ground:innerGrid:grass:-30:-30:1
  facet normal 0 0 1
    outer loop
      vertex -30 -30 0
      vertex -30 -45 0
      vertex -15 -45 0
    endloop
  endfacet
endsolid
solid Ground:innerGrid:grass:-30:-45:0
  facet normal 0 0 1
    outer loop
      vertex -30 -45 0
      vertex -15 -60 0
      vertex -15 -45 0
    endloop
  endfacet
endsolid
solid Ground:innerGrid:grass:-30:-45:1
  facet normal 0 0 1
    outer loop
      vertex -30 -45 0
      vertex -30 -60 0
      vertex -15 -60 0
    endloop
  endfacet
endsolid
solid Ground:innerGrid:grass:-15:60:0
  facet normal 0 0 1
    outer loop
      vertex -15 60 0
      vertex 0 45 0
      vertex 0 60 0
    endloop
  endfacet
endsolid
solid Ground:innerGrid:grass:-15:60:1
  facet normal 0 0 1
    outer loop
      vertex -15 60 0
      vertex -15 45 0
      vertex 0 45 0
    endloop
  endfacet
endsolid
solid Ground:innerGrid:grass:-15:45:0
  facet normal 0 0 1
    outer loop
      vertex -15 45 0
      vertex 0 30 0
      vertex 0 45 0
    endloop
  endfacet
endsolid
solid Ground:innerGrid:grass:-15:45:1
  facet normal 0 0 1
    outer loop
      vertex -15 45 0
      vertex -15 30 0
      vertex 0 30 0
    endloop
  endfacet
endsolid
solid Ground:innerGrid:grass:-15:30:0
  facet normal 0 0 1
    outer loop
      vertex -15 30 0
      vertex 0 15 0
      vertex 0 30 0
    endloop
  endfacet
endsolid
solid Ground:innerGrid:grass:-15:30:1
  facet normal 0 0 1
    outer loop
      vertex -15 30 0
      vertex -15 15 0
      vertex 0 15 0
    endloop
  endfacet
endsolid
solid Ground:innerGrid:grass:-15:15:0
  facet normal 0 0 1
    outer loop
      vertex -15 15 0
      vertex 0 0 0
      vertex 0 15 0
    endloop
  endfacet
endsolid
solid Ground:innerGrid:grass:-15:15:1
  facet normal 0 0 1
    outer loop
      vertex -15 15 0
      vertex -15 0 0
      vertex 0 0 0
    endloop
  endfacet
endsolid
solid Ground:innerGrid:grass:-15:0:0
  facet normal 0 0 1
    outer loop
      vertex -15 0 0
      vertex 0 -15 0
      vertex 0 0 0
    endloop
  endfacet
endsolid
solid Ground:innerGrid:grass:-15:0:1
  facet normal 0 0 1
    outer loop
      vertex -15 0 0
      vertex -15 -15 0
      vertex 0 -15 0
    endloop
  endfacet
endsolid
solid Ground:innerGrid:grass:-15:-15:0
  facet normal 0 0 1
    outer loop
      vertex -15 -15 0
      vertex 0 -30 0
      vertex 0 -15 0
    endloop
  endfacet
endsolid
solid Ground:innerGrid:grass:-15:-15:1
  facet normal 0 0 1
    outer loop
      vertex -15 -15 0
      vertex -15 -30 0
      vertex 0 -30 0
    endloop
  endfacet
endsolid
solid Ground:innerGrid:grass:-15:-30:0
  facet normal 0 0 1
    outer loop
      vertex -15 -30 0
      vertex 0 -45 0
      vertex 0 -30 0
    endloop
  endfacet
endsolid
solid Ground:innerGrid:grass:-15:-30:1
  facet normal 0 0 1
    outer loop
      vertex -15 -30 0
      vertex -15 -45 0
      vertex 0 -45 0
    endloop
  endfacet
endsolid
solid Ground:innerGrid:grass:-15:-45:0
  facet normal 0 0 1
    outer loop
      vertex -15 -45 0
      vertex 0 -60 0
      vertex 0 -45 0
    endloop
  endfacet
endsolid
solid Ground:innerGrid:grass:-15:-45:1
  facet normal 0 0 1
    outer loop
      vertex -15 -45 0
      vertex -15 -60 0
      vertex 0 -60 0
    endloop
  endfacet
endsolid
solid Ground:innerGrid:grass:0:60:0
  facet normal 0 0 1
    outer loop
      vertex 0 60 0
      vertex 15 45 0
      vertex 15 60 0
    endloop
  endfacet
endsolid
solid Ground:innerGrid:grass:0:60:1
  facet normal 0 0 1
    outer loop
      vertex 0 60 0
      vertex 0 45 0
      vertex 15 45 0
    endloop
  endfacet
endsolid
solid Ground:innerGrid:grass:0:45:0
  facet normal 0 0 1
    outer loop
      vertex 0 45 0
      vertex 15 30 0
      vertex 15 45 0
    endloop
  endfacet
endsolid
solid Ground:innerGrid:grass:0:45:1
  facet normal 0 0 1
    outer loop
      vertex 0 45 0
      vertex 0 30 0
      vertex 15 30 0
    endloop
  endfacet
endsolid
solid Ground:innerGrid:grass:0:30:0
  facet normal 0 0 1
    outer loop
      vertex 0 30 0
      vertex 15 15 0
      vertex 15 30 0
    endloop
  endfacet
endsolid
solid Ground:innerGrid:grass:0:30:1
  facet normal 0 0 1
    outer loop
      vertex 0 30 0
      vertex 0 15 0
      vertex 15 15 0
    endloop
  endfacet
endsolid
solid Ground:innerGrid:grass:0:15:0
  facet normal 0 0 1
    outer loop
      vertex 0 15 0
      vertex 15 0 0
      vertex 15 15 0
    endloop
  endfacet
endsolid
solid Ground:innerGrid:grass:0:15:1
  facet normal 0 0 1
    outer loop
      vertex 0 15 0
      vertex 0 0 0
      vertex 15 0 0
    endloop
  endfacet
endsolid
solid Ground:innerGrid:grass:0:0:0
  facet normal 0 0 1
    outer loop
      vertex 0 0 0
      vertex 15 -15 0
      vertex 15 0 0
    endloop
  endfacet
endsolid
solid Ground:innerGrid:grass:0:0:1
  facet normal 0 0 1
    outer loop
      vertex 0 0 0
      vertex 0 -15 0
      vertex 15 -15 0
    endloop
  endfacet
endsolid
solid Ground:innerGrid:grass:0:-15:0
  facet normal 0 0 1
    outer loop
      vertex 0 -15 0
      vertex 15 -30 0
      vertex 15 -15 0
    endloop
  endfacet
endsolid
solid Ground:innerGrid:grass:0:-15:1
  facet normal 0 0 1
    outer loop
      vertex 0 -15 0
      vertex 0 -30 0
      vertex 15 -30 0
    endloop
  endfacet
endsolid
solid Ground:innerGrid:grass:0:-30:0
  facet normal 0 0 1
    outer loop
      vertex 0 -30 0
      vertex 15 -45 0
      vertex 15 -30 0
    endloop
  endfacet
endsolid
solid Ground:innerGrid:grass:0:-30:1
  facet normal 0 0 1
    outer loop
      vertex 0 -30 0
      vertex 0 -45 0
      vertex 15 -45 0
    endloop
  endfacet
endsolid
solid Ground:innerGrid:grass:0:-45:0
  facet normal 0 0 1
    outer loop
      vertex 0 -45 0
      vertex 15 -60 0
      vertex 15 -45 0
    endloop
  endfacet
endsolid
solid Ground:innerGrid:grass:0:-45:1
  facet normal 0 0 1
    outer loop
      vertex 0 -45 0
      vertex 0 -60 0
      vertex 15 -60 0
    endloop
  endfacet
endsolid
solid Ground:innerGrid:grass:15:60:0
  facet normal 0 0 1
    outer loop
      vertex 15 60 0
      vertex 30 45 0
      vertex 30 60 0
    endloop
  endfacet
endsolid
solid Ground:innerGrid:grass:15:60:1
  facet normal 0 0 1
    outer loop
      vertex 15 60 0
      vertex 15 45 0
      vertex 30 45 0
    endloop
  endfacet
endsolid
solid Ground:innerGrid:grass:15:45:0
  facet normal 0 0 1
    outer loop
      vertex 15 45 0
      vertex 30 30 0
      vertex 30 45 0
    endloop
  endfacet
endsolid
solid Ground:innerGrid:grass:15:45:1
  facet normal 0 0 1
    outer loop
      vertex 15 45 0
      vertex 15 30 0
      vertex 30 30 0
    endloop
  endfacet
endsolid
solid Ground:innerGrid:grass:15:30:0
  facet normal 0 0 1
    outer loop
      vertex 15 30 0
      vertex 30 15 0
      vertex 30 30 0
    endloop
  endfacet
endsolid
solid Ground:innerGrid:grass:15:30:1
  facet normal 0 0 1
    outer loop
      vertex 15 30 0
      vertex 15 15 0
      vertex 30 15 0
    endloop
  endfacet
endsolid
solid Ground:innerGrid:grass:15:15:0
  facet normal 0 0 1
    outer loop
      vertex 15 15 0
      vertex 30 0 0
      vertex 30 15 0
    endloop
  endfacet
endsolid
solid Ground:innerGrid:grass:15:15:1
  facet normal 0 0 1
    outer loop
      vertex 15 15 0
      vertex 15 0 0
      vertex 30 0 0
    endloop
  endfacet
endsolid
solid Ground:innerGrid:grass:15:0:0
  facet normal 0 0 1
    outer loop
      vertex 15 0 0
      vertex 30 -15 0
      vertex 30 0 0
    endloop
  endfacet
endsolid
solid Ground:innerGrid:grass:15:0:1
  facet normal 0 0 1
    outer loop
      vertex 15 0 0
      vertex 15 -15 0
      vertex 30 -15 0
    endloop
  endfacet
endsolid
solid Ground:innerGrid:grass:15:-15:0
  facet normal 0 0 1
    outer loop
      vertex 15 -15 0
      vertex 30 -30 0
      vertex 30 -15 0
    endloop
  endfacet
endsolid
solid Ground:innerGrid:grass:15:-15:1
  facet normal 0 0 1
    outer loop
      vertex 15 -15 0
      vertex 15 -30 0
      vertex 30 -30 0
    endloop
  endfacet
endsolid
solid Ground:innerGrid:grass:15:-30:0
  facet normal 0 0 1
    outer loop
      vertex 15 -30 0
      vertex 30 -45 0
      vertex 30 -30 0
    endloop
  endfacet
endsolid
solid Ground:innerGrid:grass:15:-30:1
  facet normal 0 0 1
    outer loop
      vertex 15 -30 0
      vertex 15 -45 0
      vertex 30 -45 0
    endloop
  endfacet
endsolid
solid Ground:innerGrid:grass:15:-45:0
  facet normal 0 0 1
    outer loop
      vertex 15 -45 0
      vertex 30 -60 0
      vertex 30 -45 0
    endloop
  endfacet
endsolid
solid Ground:innerGrid:grass:15:-45:1
  facet normal 0 0 1
    outer loop
      vertex 15 -45 0
      vertex 15 -60 0
      vertex 30 -60 0
    endloop
  endfacet
endsolid
solid Ground:innerGrid:grass:30:60:0
  facet normal 0 0 1
    outer loop
      vertex 30 60 0
      vertex 45 45 0
      vertex 45 60 0
    endloop
  endfacet
endsolid
solid Ground:innerGrid:grass:30:60:1
  facet normal 0 0 1
    outer loop
      vertex 30 60 0
      vertex 30 45 0
      vertex 45 45 0
    endloop
  endfacet
endsolid
solid Ground:innerGrid:grass:30:45:0
  facet normal 0 0 1
    outer loop
      vertex 30 45 0
      vertex 45 30 0
      vertex 45 45 0
    endloop
  endfacet
endsolid
solid Ground:innerGrid:grass:30:45:1
  facet normal 0 0 1
    outer loop
      vertex 30 45 0
      vertex 30 30 0
      vertex 45 30 0
    endloop
  endfacet
endsolid
solid Ground:innerGrid:grass:30:30:0
  facet normal 0 0 1
    outer loop
      vertex 30 30 0
      vertex 45 15 0
      vertex 45 30 0
    endloop
  endfacet
endsolid
solid Ground:innerGrid:grass:30:30:1
  facet normal 0 0 1
    outer loop
      vertex 30 30 0
      vertex 30 15 0
      vertex 45 15 0
    endloop
  endfacet
endsolid
solid Ground:innerGrid:grass:30:15:0
  facet normal 0 0 1
    outer loop
      vertex 30 15 0
      vertex 45 0 0
      vertex 45 15 0
    endloop
  endfacet
endsolid
solid Ground:innerGrid:grass:30:15:1
  facet normal 0 0 1
    outer loop
      vertex 30 15 0
      vertex 30 0 0
      vertex 45 0 0
    endloop
  endfacet
endsolid
solid Ground:innerGrid:grass:30:0:0
  facet normal 0 0 1
    outer loop
      vertex 30 0 0
      vertex 45 -15 0
      vertex 45 0 0
    endloop
  endfacet
endsolid
solid Ground:innerGrid:grass:30:0:1
  facet normal 0 0 1
    outer loop
      vertex 30 0 0
      vertex 30 -15 0
      vertex 45 -15 0
    endloop
  endfacet
endsolid
solid Ground:innerGrid:grass:30:-15:0
  facet normal 0 0 1
    outer loop
      vertex 30 -15 0
      vertex 45 -30 0
      vertex 45 -15 0
    endloop
  endfacet
endsolid
solid Ground:innerGrid:grass:30:-15:1
  facet normal 0 0 1
    outer loop
      vertex 30 -15 0
      vertex 30 -30 0
      vertex 45 -30 0
    endloop
  endfacet
endsolid
solid Ground:innerGrid:grass:30:-30:0
  facet normal 0 0 1
    outer loop
      vertex 30 -30 0
      vertex 45 -45 0
      vertex 45 -30 0
    endloop
  endfacet
endsolid
solid Ground:innerGrid:grass:30:-30:1
  facet normal 0 0 1
    outer loop
      vertex 30 -30 0
      vertex 30 -45 0
      vertex 45 -45 0
    endloop
  endfacet
endsolid
solid Ground:innerGrid:grass:30:-45:0
  facet normal 0 0 1
    outer loop
      vertex 30 -45 0
      vertex 45 -60 0
      vertex 45 -45 0
    endloop
  endfacet
endsolid
solid Ground:innerGrid:grass:30:-45:1
  facet normal 0 0 1
    outer loop
      vertex 30 -45 0
      vertex 30 -60 0
      vertex 45 -60 0
    endloop
  endfacet
endsolid
solid Ground:innerGrid:grass:45:60:0
  facet normal 0 0 1
    outer loop
      vertex 45 60 0
      vertex 60 45 0
      vertex 60 60 0
    endloop
  endfacet
endsolid
solid Ground:innerGrid:grass:45:60:1
  facet normal 0 0 1
    outer loop
      vertex 45 60 0
      vertex 45 45 0
      vertex 60 45 0
    endloop
  endfacet
endsolid
solid Ground:innerGrid:grass:45:45:0
  facet normal 0 0 1
    outer loop
      vertex 45 45 0
      vertex 60 30 0
      vertex 60 45 0
    endloop
  endfacet
endsolid
solid Ground:innerGrid:grass:45:45:1
  facet normal 0 0 1
    outer loop
      vertex 45 45 0
      vertex 45 30 0
      vertex 60 30 0
    endloop
  endfacet
endsolid
solid Ground:innerGrid:grass:45:30:0
  facet normal 0 0 1
    outer loop
      vertex 45 30 0
      vertex 60 15 0
      vertex 60 30 0
    endloop
  endfacet
endsolid
solid Ground:innerGrid:grass:45:30:1
  facet normal 0 0 1
    outer loop
      vertex 45 30 0
      vertex 45 15 0
      vertex 60 15 0
    endloop
  endfacet
endsolid
solid Ground:innerGrid:grass:45:15:0
  facet normal 0 0 1
    outer loop
      vertex 45 15 0
      vertex 60 0 0
      vertex 60 15 0
    endloop
  endfacet
endsolid
solid Ground:innerGrid:grass:45:15:1
  facet normal 0 0 1
    outer loop
      vertex 45 15 0
      vertex 45 0 0
      vertex 60 0 0
    endloop
  endfacet
endsolid
solid Ground:innerGrid:grass:45:0:0
  facet normal 0 0 1
    outer loop
      vertex 45 0 0
      vertex 60 -15 0
      vertex 60 0 0
    endloop
  endfacet
endsolid
solid Ground:innerGrid:grass:45:0:1
  facet normal 0 0 1
    outer loop
      vertex 45 0 0
      vertex 45 -15 0
      vertex 60 -15 0
    endloop
  endfacet
endsolid
solid Ground:innerGrid:grass:45:-15:0
  facet normal 0 0 1
    outer loop
      vertex 45 -15 0
      vertex 60 -30 0
      vertex 60 -15 0
    endloop
  endfacet
endsolid
solid Ground:innerGrid:grass:45:-15:1
  facet normal 0 0 1
    outer loop
      vertex 45 -15 0
      vertex 45 -30 0
      vertex 60 -30 0
    endloop
  endfacet
endsolid
solid Ground:innerGrid:grass:45:-30:0
  facet normal 0 0 1
    outer loop
      vertex 45 -30 0
      vertex 60 -45 0
      vertex 60 -30 0
    endloop
  endfacet
endsolid
solid Ground:innerGrid:grass:45:-30:1
  facet normal 0 0 1
    outer loop
      vertex 45 -30 0
      vertex 45 -45 0
      vertex 60 -45 0
    endloop
  endfacet
endsolid
solid Ground:innerGrid:grass:45:-45:0
  facet normal 0 0 1
    outer loop
      vertex 45 -45 0
      vertex 60 -60 0
      vertex 60 -45 0
    endloop
  endfacet
endsolid
solid Ground:innerGrid:grass:45:-45:1
  facet normal 0 0 1
    outer loop
      vertex 45 -45 0
      vertex 45 -60 0
      vertex 60 -60 0
    endloop
  endfacet
endsolid
solid Ground:top:grass:-60:120:0
  facet normal 0 0 1
    outer loop
      vertex -60 120 0
      vertex -30 90 0
      vertex -30 120 0
    endloop
  endfacet
endsolid
solid Ground:top:grass:-60:120:1
  facet normal 0 0 1
    outer loop
      vertex -60 120 0
      vertex -60 90 0
      vertex -30 90 0
    endloop
  endfacet
endsolid
solid Ground:top:grass:-60:90:0
  facet normal 0 0 1
    outer loop
      vertex -60 90 0
      vertex -30 60 0
      vertex -30 90 0
    endloop
  endfacet
endsolid
solid Ground:top:grass:-60:90:1
  facet normal 0 0 1
    outer loop
      vertex -60 90 0
      vertex -60 60 0
      vertex -30 60 0
    endloop
  endfacet
endsolid
solid Ground:top:grass:-30:120:0
  facet normal 0 0 1
    outer loop
      vertex -30 120 0
      vertex 0 90 0
      vertex 0 120 0
    endloop
  endfacet
endsolid
solid Ground:top:grass:-30:120:1
  facet normal 0 0 1
    outer loop
      vertex -30 120 0
      vertex -30 90 0
      vertex 0 90 0
    endloop
  endfacet
endsolid
solid Ground:top:grass:-30:90:0
  facet normal 0 0 1
    outer loop
      vertex -30 90 0
      vertex 0 60 0
      vertex 0 90 0
    endloop
  endfacet
endsolid
solid Ground:top:grass:-30:90:1
  facet normal 0 0 1
    outer loop
      vertex -30 90 0
      vertex -30 60 0
      vertex 0 60 0
    endloop
  endfacet
endsolid
solid Ground:top:grass:0:120:0
  facet normal 0 0 1
    outer loop
      vertex 0 120 0
      vertex 30 90 0
      vertex 30 120 0
    endloop
  endfacet
endsolid
solid Ground:top:grass:0:120:1
  facet normal 0 0 1
    outer loop
      vertex 0 120 0
      vertex 0 90 0
      vertex 30 90 0
    endloop
  endfacet
endsolid
solid Ground:top:grass:0:90:0
  facet normal 0 0 1
    outer loop
      vertex 0 90 0
      vertex 30 60 0
      vertex 30 90 0
    endloop
  endfacet
endsolid
solid Ground:top:grass:0:90:1
  facet normal 0 0 1
    outer loop
      vertex 0 90 0
      vertex 0 60 0
      vertex 30 60 0
    endloop
  endfacet
endsolid
solid Ground:top:grass:30:120:0
  facet normal 0 0 1
    outer loop
      vertex 30 120 0
      vertex 60 90 0
      vertex 60 120 0
    endloop
  endfacet
endsolid
solid Ground:top:grass:30:120:1
  facet normal 0 0 1
    outer loop
      vertex 30 120 0
      vertex 30 90 0
      vertex 60 90 0
    endloop
  endfacet
endsolid
solid Ground:top:grass:30:90:0
  facet normal 0 0 1
    outer loop
      vertex 30 90 0
      vertex 60 60 0
      vertex 60 90 0
    endloop
  endfacet
endsolid
solid Ground:top:grass:30:90:1
  facet normal 0 0 1
    outer loop
      vertex 30 90 0
      vertex 30 60 0
      vertex 60 60 0
    endloop
  endfacet
endsolid
solid Ground:right:grass:60:120:0
  facet normal 0 0 1
    outer loop
      vertex 60 120 0
      vertex 90 90 0
      vertex 90 120 0
    endloop
  endfacet
endsolid
solid Ground:right:grass:60:120:1
  facet normal 0 0 1
    outer loop
      vertex 60 120 0
      vertex 60 90 0
      vertex 90 90 0
    endloop
  endfacet
endsolid
solid Ground:right:grass:60:90:0
  facet normal 0 0 1
    outer loop
      vertex 60 90 0
      vertex 90 60 0
      vertex 90 90 0
    endloop
  endfacet
endsolid
solid Ground:right:grass:60:90:1
  facet normal 0 0 1
    outer loop
      vertex 60 90 0
      vertex 60 60 0
      vertex 90 60 0
    endloop
  endfacet
endsolid
solid Ground:right:grass:60:60:0
  facet normal 0 0 1
    outer loop
      vertex 60 60 0
      vertex 90 30 0
      vertex 90 60 0
    endloop
  endfacet
endsolid
solid Ground:right:grass:60:60:1
  facet normal 0 0 1
    outer loop
      vertex 60 60 0
      vertex 60 30 0
      vertex 90 30 0
    endloop
  endfacet
endsolid
solid Ground:right:grass:60:30:0
  facet normal 0 0 1
    outer loop
      vertex 60 30 0
      vertex 90 0 0
      vertex 90 30 0
    endloop
  endfacet
endsolid
solid Ground:right:grass:60:30:1
  facet normal 0 0 1
    outer loop
      vertex 60 30 0
      vertex 60 0 0
      vertex 90 0 0
    endloop
  endfacet
endsolid
solid Ground:right:grass:60:0:0
  facet normal 0 0 1
    outer loop
      vertex 60 0 0
      vertex 90 -30 0
      vertex 90 0 0
    endloop
  endfacet
endsolid
solid Ground:right:grass:60:0:1
  facet normal 0 0 1
    outer loop
      vertex 60 0 0
      vertex 60 -30 0
      vertex 90 -30 0
    endloop
  endfacet
endsolid
solid Ground:right:grass:60:-30:0
  facet normal 0 0 1
    outer loop
      vertex 60 -30 0
      vertex 90 -60 0
      vertex 90 -30 0
    endloop
  endfacet
endsolid
solid Ground:right:grass:60:-30:1
  facet normal 0 0 1
    outer loop
      vertex 60 -30 0
      vertex 60 -60 0
      vertex 90 -60 0
    endloop
  endfacet
endsolid
solid Ground:right:grass:90:120:0
  facet normal 0 0 1
    outer loop
      vertex 90 120 0
      vertex 120 90 0
      vertex 120 120 0
    endloop
  endfacet
endsolid
solid Ground:right:grass:90:120:1
  facet normal 0 0 1
    outer loop
      vertex 90 120 0
      vertex 90 90 0
      vertex 120 90 0
    endloop
  endfacet
endsolid
solid Ground:right:grass:90:90:0
  facet normal 0 0 1
    outer loop
      vertex 90 90 0
      vertex 120 60 0
      vertex 120 90 0
    endloop
  endfacet
endsolid
solid Ground:right:grass:90:90:1
  facet normal 0 0 1
    outer loop
      vertex 90 90 0
      vertex 90 60 0
      vertex 120 60 0
    endloop
  endfacet
endsolid
solid Ground:right:grass:90:60:0
  facet normal 0 0 1
    outer loop
      vertex 90 60 0
      vertex 120 30 0
      vertex 120 60 0
    endloop
  endfacet
endsolid
solid Ground:right:grass:90:60:1
  facet normal 0 0 1
    outer loop
      vertex 90 60 0
      vertex 90 30 0
      vertex 120 30 0
    endloop
  endfacet
endsolid
solid Ground:right:grass:90:30:0
  facet normal 0 0 1
    outer loop
      vertex 90 30 0
      vertex 120 0 0
      vertex 120 30 0
    endloop
  endfacet
endsolid
solid Ground:right:grass:90:30:1
  facet normal 0 0 1
    outer loop
      vertex 90 30 0
      vertex 90 0 0
      vertex 120 0 0
    endloop
  endfacet
endsolid
solid Ground:right:grass:90:0:0
  facet normal 0 0 1
    outer loop
      vertex 90 0 0
      vertex 120 -30 0
      vertex 120 0 0
    endloop
  endfacet
endsolid
solid Ground:right:grass:90:0:1
  facet normal 0 0 1
    outer loop
      vertex 90 0 0
      vertex 90 -30 0
      vertex 120 -30 0
    endloop
  endfacet
endsolid
solid Ground:right:grass:90:-30:0
  facet normal 0 0 1
    outer loop
      vertex 90 -30 0
      vertex 120 -60 0
      vertex 120 -30 0
    endloop
  endfacet
endsolid
solid Ground:right:grass:90:-30:1
  facet normal 0 0 1
    outer loop
      vertex 90 -30 0
      vertex 90 -60 0
      vertex 120 -60 0
    endloop
  endfacet
endsolid
solid Ground:bottom:grass:-120:-60:0
  facet normal 0 0 1
    outer loop
      vertex -120 -60 0
      vertex -90 -90 0
      vertex -90 -60 0
    endloop
  endfacet
endsolid
solid Ground:bottom:grass:-120:-60:1
  facet normal 0 0 1
    outer loop
      vertex -120 -60 0
      vertex -120 -90 0
      vertex -90 -90 0
    endloop
  endfacet
endsolid
solid Ground:bottom:grass:-120:-90:0
  facet normal 0 0 1
    outer loop
      vertex -120 -90 0
      vertex -90 -120 0
      vertex -90 -90 0
    endloop
  endfacet
endsolid
solid Ground:bottom:grass:-120:-90:1
  facet normal 0 0 1
    outer loop
      vertex -120 -90 0
      vertex -120 -120 0
      vertex -90 -120 0
    endloop
  endfacet
endsolid
solid Ground:bottom:grass:-90:-60:0
  facet normal 0 0 1
    outer loop
      vertex -90 -60 0
      vertex -60 -90 0
      vertex -60 -60 0
    endloop
  endfacet
endsolid
solid Ground:bottom:grass:-90:-60:1
  facet normal 0 0 1
    outer loop
      vertex -90 -60 0
      vertex -90 -90 0
      vertex -60 -90 0
    endloop
  endfacet
endsolid
solid Ground:bottom:grass:-90:-90:0
  facet normal 0 0 1
    outer loop
      vertex -90 -90 0
      vertex -60 -120 0
      vertex -60 -90 0
    endloop
  endfacet
endsolid
solid Ground:bottom:grass:-90:-90:1
  facet normal 0 0 1
    outer loop
      vertex -90 -90 0
      vertex -90 -120 0
      vertex -60 -120 0
    endloop
  endfacet
endsolid
solid Ground:bottom:grass:-60:-60:0
  facet normal 0 0 1
    outer loop
      vertex -60 -60 0
      vertex -30 -90 0
      vertex -30 -60 0
    endloop
  endfacet
endsolid
solid Ground:bottom:grass:-60:-60:1
  facet normal 0 0 1
    outer loop
      vertex -60 -60 0
      vertex -60 -90 0
      vertex -30 -90 0
    endloop
  endfacet
endsolid
solid Ground:bottom:grass:-60:-90:0
  facet normal 0 0 1
    outer loop
      vertex -60 -90 0
      vertex -30 -120 0
      vertex -30 -90 0
    endloop
  endfacet
endsolid
solid Ground:bottom:grass:-60:-90:1
  facet normal 0 0 1
    outer loop
      vertex -60 -90 0
      vertex -60 -120 0
      vertex -30 -120 0
    endloop
  endfacet
endsolid
solid Ground:bottom:grass:-30:-60:0
  facet normal 0 0 1
    outer loop
      vertex -30 -60 0
      vertex 0 -90 0
      vertex 0 -60 0
    endloop
  endfacet
endsolid
solid Ground:bottom:grass:-30:-60:1
  facet normal 0 0 1
    outer loop
      vertex -30 -60 0
      vertex -30 -90 0
      vertex 0 -90 0
    endloop
  endfacet
endsolid
solid Ground:bottom:grass:-30:-90:0
  facet normal 0 0 1
    outer loop
      vertex -30 -90 0
      vertex 0 -120 0
      vertex 0 -90 0
    endloop
  endfacet
endsolid
solid Ground:bottom:grass:-30:-90:1
  facet normal 0 0 1
    outer loop
      vertex -30 -90 0
      vertex -30 -120 0
      vertex 0 -120 0
    endloop
  endfacet
endsolid
solid Ground:bottom:grass:0:-60:0
  facet normal 0 0 1
    outer loop
      vertex 0 -60 0
      vertex 30 -90 0
      vertex 30 -60 0
    endloop
  endfacet
endsolid
solid Ground:bottom:grass:0:-60:1
  facet normal 0 0 1
    outer loop
      vertex 0 -60 0
      vertex 0 -90 0
      vertex 30 -90 0
    endloop
  endfacet
endsolid
solid Ground:bottom:grass:0:-90:0
  facet normal 0 0 1
    outer loop
      vertex 0 -90 0
      vertex 30 -120 0
      vertex 30 -90 0
    endloop
  endfacet
endsolid
solid Ground:bottom:grass:0:-90:1
  facet normal 0 0 1
    outer loop
      vertex 0 -90 0
      vertex 0 -120 0
      vertex 30 -120 0
    endloop
  endfacet
endsolid
solid Ground:bottom:grass:30:-60:0
  facet normal 0 0 1
    outer loop
      vertex 30 -60 0
      vertex 60 -90 0
      vertex 60 -60 0
    endloop
  endfacet
endsolid
solid Ground:bottom:grass:30:-60:1
  facet normal 0 0 1
    outer loop
      vertex 30 -60 0
      vertex 30 -90 0
      vertex 60 -90 0
    endloop
  endfacet
endsolid
solid Ground:bottom:grass:30:-90:0
  facet normal 0 0 1
    outer loop
      vertex 30 -90 0
      vertex 60 -120 0
      vertex 60 -90 0
    endloop
  endfacet
endsolid
solid Ground:bottom:grass:30:-90:1
  facet normal 0 0 1
    outer loop
      vertex 30 -90 0
      vertex 30 -120 0
      vertex 60 -120 0
    endloop
  endfacet
endsolid
solid Ground:bottom:grass:60:-60:0
  facet normal 0 0 1
    outer loop
      vertex 60 -60 0
      vertex 90 -90 0
      vertex 90 -60 0
    endloop
  endfacet
endsolid
solid Ground:bottom:grass:60:-60:1
  facet normal 0 0 1
    outer loop
      vertex 60 -60 0
      vertex 60 -90 0
      vertex 90 -90 0
    endloop
  endfacet
endsolid
solid Ground:bottom:grass:60:-90:0
  facet normal 0 0 1
    outer loop
      vertex 60 -90 0
      vertex 90 -120 0
      vertex 90 -90 0
    endloop
  endfacet
endsolid
solid Ground:bottom:grass:60:-90:1
  facet normal 0 0 1
    outer loop
      vertex 60 -90 0
      vertex 60 -120 0
      vertex 90 -120 0
    endloop
  endfacet
endsolid
solid Ground:bottom:grass:90:-60:0
  facet normal 0 0 1
    outer loop
      vertex 90 -60 0
      vertex 120 -90 0
      vertex 120 -60 0
    endloop
  endfacet
endsolid
solid Ground:bottom:grass:90:-60:1
  facet normal 0 0 1
    outer loop
      vertex 90 -60 0
      vertex 90 -90 0
      vertex 120 -90 0
    endloop
  endfacet
endsolid
solid Ground:bottom:grass:90:-90:0
  facet normal 0 0 1
    outer loop
      vertex 90 -90 0
      vertex 120 -120 0
      vertex 120 -90 0
    endloop
  endfacet
endsolid
solid Ground:bottom:grass:90:-90:1
  facet normal 0 0 1
    outer loop
      vertex 90 -90 0
      vertex 90 -120 0
      vertex 120 -120 0
    endloop
  endfacet
endsolid
