solid rect
  facet normal 9.294363597145779e-7 -9.999999999995681e-1 0e+0
    outer loop
      vertex 0e+0 0e+0 0e+0
      vertex 1.4629919435113461e+1 1.359757906269528e-5 0e+0
      vertex 1.4629919435113461e+1 1.359757906269528e-5 2e+1
    endloop
  endfacet
  facet normal 9.294363597145779e-7 -9.999999999995681e-1 0e+0
    outer loop
      vertex 0e+0 0e+0 0e+0
      vertex 1.4629919435113461e+1 1.359757906269528e-5 2e+1
      vertex 0e+0 0e+0 2e+1
    endloop
  endfacet
  facet normal 9.999999999982723e-1 1.8588564634446106e-6 0e+0
    outer loop
      vertex 1.4629919435113461e+1 1.359757906269528e-5 0e+0
      vertex 1.4629884446799458e+1 1.882250725995019e+1 0e+0
      vertex 1.4629884446799458e+1 1.882250725995019e+1 2e+1
    endloop
  endfacet
  facet normal 9.999999999982723e-1 1.8588564634446106e-6 0e+0
    outer loop
      vertex 1.4629919435113461e+1 1.359757906269528e-5 0e+0
      vertex 1.4629884446799458e+1 1.882250725995019e+1 2e+1
      vertex 1.4629919435113461e+1 1.359757906269528e-5 2e+1
    endloop
  endfacet
  facet normal -9.294257215010455e-7 9.999999999995681e-1 0e+0
    outer loop
      vertex 1.4629884446799458e+1 1.882250725995019e+1 0e+0
      vertex 0e+0 1.8822493662559282e+1 0e+0
      vertex 0e+0 1.8822493662559282e+1 2e+1
    endloop
  endfacet
  facet normal -9.294257215010455e-7 9.999999999995681e-1 0e+0
    outer loop
      vertex 1.4629884446799458e+1 1.882250725995019e+1 0e+0
      vertex 0e+0 1.8822493662559282e+1 2e+1
      vertex 1.4629884446799458e+1 1.882250725995019e+1 2e+1
    endloop
  endfacet
  facet normal -1e+0 0e+0 0e+0
    outer loop
      vertex 0e+0 1.8822493662559282e+1 0e+0
      vertex 0e+0 0e+0 0e+0
      vertex 0e+0 0e+0 2e+1
    endloop
  endfacet
  facet normal -1e+0 0e+0 0e+0
    outer loop
      vertex 0e+0 1.8822493662559282e+1 0e+0
      vertex 0e+0 0e+0 2e+1
      vertex 0e+0 1.8822493662559282e+1 2e+1
    endloop
  endfacet
  facet normal 0e+0 0e+0 -1e+0
    outer loop
      vertex 1.4629919435113461e+1 1.359757906269528e-5 0e+0
      vertex 0e+0 1.8822493662559282e+1 0e+0
      vertex 1.4629884446799458e+1 1.882250725995019e+1 0e+0
    endloop
  endfacet
  facet normal 0e+0 0e+0 -1e+0
    outer loop
      vertex 1.4629919435113461e+1 1.359757906269528e-5 0e+0
      vertex 0e+0 0e+0 0e+0
      vertex 0e+0 1.8822493662559282e+1 0e+0
    endloop
  endfacet
  facet normal 0e+0 0e+0 1e+0
    outer loop
      vertex 1.4629884446799458e+1 1.882250725995019e+1 2e+1
      vertex 0e+0 1.8822493662559282e+1 2e+1
      vertex 1.4629919435113461e+1 1.359757906269528e-5 2e+1
    endloop
  endfacet
  facet normal 0e+0 0e+0 1e+0
    outer loop
      vertex 0e+0 1.8822493662559282e+1 2e+1
      vertex 0e+0 0e+0 2e+1
      vertex 1.4629919435113461e+1 1.359757906269528e-5 2e+1
    endloop
  endfacet
endsolid