solid TestBUilding
  facet normal 9.99550370118462e-1 2.9984289153584174e-2 0e+0
    outer loop
      vertex 0e+0 0e+0 0e+0
      vertex -2.0097698851924855e+0 6.699729389305725e+1 0e+0
      vertex -2.0097698851924855e+0 6.699729389305725e+1 2.3e+1
    endloop
  endfacet
  facet normal 9.99550370118462e-1 2.9984289153584174e-2 0e+0
    outer loop
      vertex 0e+0 0e+0 0e+0
      vertex -2.0097698851924855e+0 6.699729389305725e+1 2.3e+1
      vertex 0e+0 0e+0 2.3e+1
    endloop
  endfacet
  facet normal 1.8466131151786268e-2 9.998294864627093e-1 0e+0
    outer loop
      vertex -2.0097698851924855e+0 6.699729389305725e+1 0e+0
      vertex -1.9396536006057467e+1 6.731841495203824e+1 0e+0
      vertex -1.9396536006057467e+1 6.731841495203824e+1 2.3e+1
    endloop
  endfacet
  facet normal 1.8466131151786268e-2 9.998294864627093e-1 0e+0
    outer loop
      vertex -2.0097698851924855e+0 6.699729389305725e+1 0e+0
      vertex -1.9396536006057467e+1 6.731841495203824e+1 2.3e+1
      vertex -2.0097698851924855e+0 6.699729389305725e+1 2.3e+1
    endloop
  endfacet
  facet normal -9.99999837255442e-1 5.705165111352734e-4 0e+0
    outer loop
      vertex -1.9396536006057467e+1 6.731841495203824e+1 0e+0
      vertex -1.9422194361043566e+1 2.234451794898072e+1 0e+0
      vertex -1.9422194361043566e+1 2.234451794898072e+1 2.3e+1
    endloop
  endfacet
  facet normal -9.99999837255442e-1 5.705165111352734e-4 0e+0
    outer loop
      vertex -1.9396536006057467e+1 6.731841495203824e+1 0e+0
      vertex -1.9422194361043566e+1 2.234451794898072e+1 2.3e+1
      vertex -1.9396536006057467e+1 6.731841495203824e+1 2.3e+1
    endloop
  endfacet
  facet normal -5.1689203297701845e-2 9.986632196403595e-1 0e+0
    outer loop
      vertex -1.9422194361043566e+1 2.234451794898072e+1 0e+0
      vertex -8.039216844972508e+1 1.9188810074948478e+1 0e+0
      vertex -8.039216844972508e+1 1.9188810074948478e+1 2.3e+1
    endloop
  endfacet
  facet normal -5.1689203297701845e-2 9.986632196403595e-1 0e+0
    outer loop
      vertex -1.9422194361043566e+1 2.234451794898072e+1 0e+0
      vertex -8.039216844972508e+1 1.9188810074948478e+1 2.3e+1
      vertex -1.9422194361043566e+1 2.234451794898072e+1 2.3e+1
    endloop
  endfacet
  facet normal -9.99996530856396e-1 2.6340605864728227e-3 0e+0
    outer loop
      vertex -8.039216844972508e+1 1.9188810074948478e+1 0e+0
      vertex -8.044346253444071e+1 -2.8451071065111566e-1 0e+0
      vertex -8.044346253444071e+1 -2.8451071065111566e-1 2.3e+1
    endloop
  endfacet
  facet normal -9.99996530856396e-1 2.6340605864728227e-3 0e+0
    outer loop
      vertex -8.039216844972508e+1 1.9188810074948478e+1 0e+0
      vertex -8.044346253444071e+1 -2.8451071065111566e-1 2.3e+1
      vertex -8.039216844972508e+1 1.9188810074948478e+1 2.3e+1
    endloop
  endfacet
  facet normal 3.5367564033171955e-3 -9.999937456575133e-1 0e+0
    outer loop
      vertex -8.044346253444071e+1 -2.8451071065111566e-1 0e+0
      vertex 0e+0 0e+0 0e+0
      vertex 0e+0 0e+0 2.3e+1
    endloop
  endfacet
  facet normal 3.5367564033171955e-3 -9.999937456575133e-1 0e+0
    outer loop
      vertex -8.044346253444071e+1 -2.8451071065111566e-1 0e+0
      vertex 0e+0 0e+0 2.3e+1
      vertex -8.044346253444071e+1 -2.8451071065111566e-1 2.3e+1
    endloop
  endfacet
  facet normal 0e+0 0e+0 -1e+0
    outer loop
      vertex -8.044346253444071e+1 -2.8451071065111566e-1 0e+0
      vertex -8.039216844972508e+1 1.9188810074948478e+1 0e+0
      vertex -1.9422194361043566e+1 2.234451794898072e+1 0e+0
    endloop
  endfacet
  facet normal 0e+0 0e+0 -1e+0
    outer loop
      vertex -8.044346253444071e+1 -2.8451071065111566e-1 0e+0
      vertex -1.9422194361043566e+1 2.234451794898072e+1 0e+0
      vertex 0e+0 0e+0 0e+0
    endloop
  endfacet
  facet normal 0e+0 0e+0 -1e+0
    outer loop
      vertex 0e+0 0e+0 0e+0
      vertex -1.9422194361043566e+1 2.234451794898072e+1 0e+0
      vertex -2.0097698851924855e+0 6.699729389305725e+1 0e+0
    endloop
  endfacet
  facet normal 0e+0 0e+0 -1e+0
    outer loop
      vertex -2.0097698851924855e+0 6.699729389305725e+1 0e+0
      vertex -1.9422194361043566e+1 2.234451794898072e+1 0e+0
      vertex -1.9396536006057467e+1 6.731841495203824e+1 0e+0
    endloop
  endfacet
  facet normal 0e+0 0e+0 1e+0
    outer loop
      vertex -1.9422194361043566e+1 2.234451794898072e+1 2.3e+1
      vertex -8.039216844972508e+1 1.9188810074948478e+1 2.3e+1
      vertex -8.044346253444071e+1 -2.8451071065111566e-1 2.3e+1
    endloop
  endfacet
  facet normal 0e+0 0e+0 1e+0
    outer loop
      vertex 0e+0 0e+0 2.3e+1
      vertex -1.9422194361043566e+1 2.234451794898072e+1 2.3e+1
      vertex -8.044346253444071e+1 -2.8451071065111566e-1 2.3e+1
    endloop
  endfacet
  facet normal 0e+0 0e+0 1e+0
    outer loop
      vertex -2.0097698851924855e+0 6.699729389305725e+1 2.3e+1
      vertex -1.9422194361043566e+1 2.234451794898072e+1 2.3e+1
      vertex 0e+0 0e+0 2.3e+1
    endloop
  endfacet
  facet normal 0e+0 0e+0 1e+0
    outer loop
      vertex -1.9396536006057467e+1 6.731841495203824e+1 2.3e+1
      vertex -1.9422194361043566e+1 2.234451794898072e+1 2.3e+1
      vertex -2.0097698851924855e+0 6.699729389305725e+1 2.3e+1
    endloop
  endfacet
endsolid