
solid testBuilding1
  facet normal 5.414522047791801e-6 -9.999999999853414e-1 0e+0
    outer loop
      vertex 1.3355674061665084e+1 1.0616752002607046e+2 0e+0
      vertex 7.187582157903203e+1 1.0616783688469944e+2 0e+0
      vertex 7.187582157903203e+1 1.0616783688469944e+2 1e+1
    endloop
  endfacet
  facet normal 5.414522047791801e-6 -9.999999999853414e-1 0e+0
    outer loop
      vertex 1.3355674061665084e+1 1.0616752002607046e+2 0e+0
      vertex 7.187582157903203e+1 1.0616783688469944e+2 1e+1
      vertex 1.3355674061665084e+1 1.0616752002607046e+2 1e+1
    endloop
  endfacet
  facet normal 9.99999999958301e-1 9.13224651846993e-6 0e+0
    outer loop
      vertex 7.187582157903203e+1 1.0616783688469944e+2 0e+0
      vertex 7.187513401242315e+1 1.8145781153327354e+2 0e+0
      vertex 7.187513401242315e+1 1.8145781153327354e+2 1e+1
    endloop
  endfacet
  facet normal 9.99999999958301e-1 9.13224651846993e-6 0e+0
    outer loop
      vertex 7.187582157903203e+1 1.0616783688469944e+2 0e+0
      vertex 7.187513401242315e+1 1.8145781153327354e+2 1e+1
      vertex 7.187582157903203e+1 1.0616783688469944e+2 1e+1
    endloop
  endfacet
  facet normal -5.4145463594849125e-6 9.999999999853413e-1 0e+0
    outer loop
      vertex 7.187513401242315e+1 1.8145781153327354e+2 0e+0
      vertex 1.3355546300807584e+1 1.8145749467625294e+2 0e+0
      vertex 1.3355546300807584e+1 1.8145749467625294e+2 1e+1
    endloop
  endfacet
  facet normal -5.4145463594849125e-6 9.999999999853413e-1 0e+0
    outer loop
      vertex 7.187513401242315e+1 1.8145781153327354e+2 0e+0
      vertex 1.3355546300807584e+1 1.8145749467625294e+2 1e+1
      vertex 7.187513401242315e+1 1.8145781153327354e+2 1e+1
    endloop
  endfacet
  facet normal -9.999999999985603e-1 -1.6969172601528265e-6 0e+0
    outer loop
      vertex 1.3355546300807584e+1 1.8145749467625294e+2 0e+0
      vertex 1.3355674061665084e+1 1.0616752002607046e+2 0e+0
      vertex 1.3355674061665084e+1 1.0616752002607046e+2 1e+1
    endloop
  endfacet
  facet normal -9.999999999985603e-1 -1.6969172601528265e-6 0e+0
    outer loop
      vertex 1.3355546300807584e+1 1.8145749467625294e+2 0e+0
      vertex 1.3355674061665084e+1 1.0616752002607046e+2 1e+1
      vertex 1.3355546300807584e+1 1.8145749467625294e+2 1e+1
    endloop
  endfacet
  facet normal 0e+0 0e+0 -1e+0
    outer loop
      vertex 1.3355674061665084e+1 1.0616752002607046e+2 0e+0
      vertex 1.3355546300807584e+1 1.8145749467625294e+2 0e+0
      vertex 7.187513401242315e+1 1.8145781153327354e+2 0e+0
    endloop
  endfacet
  facet normal 0e+0 0e+0 -1e+0
    outer loop
      vertex 1.3355674061665084e+1 1.0616752002607046e+2 0e+0
      vertex 7.187513401242315e+1 1.8145781153327354e+2 0e+0
      vertex 7.187582157903203e+1 1.0616783688469944e+2 0e+0
    endloop
  endfacet
  facet normal 0e+0 0e+0 1e+0
    outer loop
      vertex 7.187513401242315e+1 1.8145781153327354e+2 1e+1
      vertex 1.3355546300807584e+1 1.8145749467625294e+2 1e+1
      vertex 1.3355674061665084e+1 1.0616752002607046e+2 1e+1
    endloop
  endfacet
  facet normal 0e+0 0e+0 1e+0
    outer loop
      vertex 7.187582157903203e+1 1.0616783688469944e+2 1e+1
      vertex 7.187513401242315e+1 1.8145781153327354e+2 1e+1
      vertex 1.3355674061665084e+1 1.0616752002607046e+2 1e+1
    endloop
  endfacet
endsolid
solid testBuilding2
  facet normal 1.5536692447614532e-5 -9.999999998793055e-1 0e+0
    outer loop
      vertex 1.0765525290942267e+2 3.0917935242892213e+1 0e+0
      vertex 1.3691560641729862e+2 3.0918389852005628e+1 0e+0
      vertex 1.3691560641729862e+2 3.0918389852005628e+1 2.2e+1
    endloop
  endfacet
  facet normal 1.5536692447614532e-5 -9.999999998793055e-1 0e+0
    outer loop
      vertex 1.0765525290942267e+2 3.0917935242892213e+1 0e+0
      vertex 1.3691560641729862e+2 3.0918389852005628e+1 2.2e+1
      vertex 1.0765525290942267e+2 3.0917935242892213e+1 2.2e+1
    endloop
  endfacet
  facet normal -9.999999998486994e-1 -1.7395442956574363e-5 0e+0
    outer loop
      vertex 1.3691560641729862e+2 3.0918389852005628e+1 0e+0
      vertex 1.3691691611975796e+2 -4.437158479303042e+1 0e+0
      vertex 1.3691691611975796e+2 -4.437158479303042e+1 2.2e+1
    endloop
  endfacet
  facet normal -9.999999998486994e-1 -1.7395442956574363e-5 0e+0
    outer loop
      vertex 1.3691560641729862e+2 3.0918389852005628e+1 0e+0
      vertex 1.3691691611975796e+2 -4.437158479303042e+1 2.2e+1
      vertex 1.3691560641729862e+2 3.0918389852005628e+1 2.2e+1
    endloop
  endfacet
  facet normal 2.1112981886763625e-5 -9.999999997771211e-1 0e+0
    outer loop
      vertex 1.3691691611975796e+2 -4.437158479303042e+1 0e+0
      vertex 1.954381829243336e+2 -4.437034923458411e+1 0e+0
      vertex 1.954381829243336e+2 -4.437034923458411e+1 2.2e+1
    endloop
  endfacet
  facet normal 2.1112981886763625e-5 -9.999999997771211e-1 0e+0
    outer loop
      vertex 1.3691691611975796e+2 -4.437158479303042e+1 0e+0
      vertex 1.954381829243336e+2 -4.437034923458411e+1 2.2e+1
      vertex 1.3691691611975796e+2 -4.437158479303042e+1 2.2e+1
    endloop
  endfacet
  facet normal 9.9999999969172e-1 2.483062571874671e-5 0e+0
    outer loop
      vertex 1.954381829243336e+2 -4.437034923458411e+1 0e+0
      vertex 1.9543631342715238e+2 3.0919625404690724e+1 0e+0
      vertex 1.9543631342715238e+2 3.0919625404690724e+1 2.2e+1
    endloop
  endfacet
  facet normal 9.9999999969172e-1 2.483062571874671e-5 0e+0
    outer loop
      vertex 1.954381829243336e+2 -4.437034923458411e+1 0e+0
      vertex 1.9543631342715238e+2 3.0919625404690724e+1 2.2e+1
      vertex 1.954381829243336e+2 -4.437034923458411e+1 2.2e+1
    endloop
  endfacet
  facet normal 2.668948962629942e-5 -9.999999996438356e-1 0e+0
    outer loop
      vertex 1.9543631342715238e+2 3.0919625404690724e+1 0e+0
      vertex 2.246966669282281e+2 3.092040634859223e+1 0e+0
      vertex 2.246966669282281e+2 3.092040634859223e+1 2.2e+1
    endloop
  endfacet
  facet normal 2.668948962629942e-5 -9.999999996438356e-1 0e+0
    outer loop
      vertex 1.9543631342715238e+2 3.0919625404690724e+1 0e+0
      vertex 2.246966669282281e+2 3.092040634859223e+1 2.2e+1
      vertex 1.9543631342715238e+2 3.0919625404690724e+1 2.2e+1
    endloop
  endfacet
  facet normal 9.999999995924936e-1 2.8548423746600466e-5 0e+0
    outer loop
      vertex 2.246966669282281e+2 3.092040634859223e+1 0e+0
      vertex 2.2469559222317775e+2 6.856539366711621e+1 0e+0
      vertex 2.2469559222317775e+2 6.856539366711621e+1 2.2e+1
    endloop
  endfacet
  facet normal 9.999999995924936e-1 2.8548423746600466e-5 0e+0
    outer loop
      vertex 2.246966669282281e+2 3.092040634859223e+1 0e+0
      vertex 2.2469559222317775e+2 6.856539366711621e+1 2.2e+1
      vertex 2.246966669282281e+2 3.092040634859223e+1 2.2e+1
    endloop
  endfacet
  facet normal -2.111313879725777e-5 9.999999997771177e-1 0e+0
    outer loop
      vertex 2.2469559222317775e+2 6.856539366711621e+1 0e+0
      vertex 1.0765473800332715e+2 6.856292256731557e+1 0e+0
      vertex 1.0765473800332715e+2 6.856292256731557e+1 2.2e+1
    endloop
  endfacet
  facet normal -2.111313879725777e-5 9.999999997771177e-1 0e+0
    outer loop
      vertex 2.2469559222317775e+2 6.856539366711621e+1 0e+0
      vertex 1.0765473800332715e+2 6.856292256731557e+1 2.2e+1
      vertex 2.2469559222317775e+2 6.856539366711621e+1 2.2e+1
    endloop
  endfacet
  facet normal -9.999999999064569e-1 -1.3677945778863466e-5 0e+0
    outer loop
      vertex 1.0765473800332715e+2 6.856292256731557e+1 0e+0
      vertex 1.0765525290942267e+2 3.0917935242892213e+1 0e+0
      vertex 1.0765525290942267e+2 3.0917935242892213e+1 2.2e+1
    endloop
  endfacet
  facet normal -9.999999999064569e-1 -1.3677945778863466e-5 0e+0
    outer loop
      vertex 1.0765473800332715e+2 6.856292256731557e+1 0e+0
      vertex 1.0765525290942267e+2 3.0917935242892213e+1 2.2e+1
      vertex 1.0765473800332715e+2 6.856292256731557e+1 2.2e+1
    endloop
  endfacet
  facet normal 0e+0 0e+0 -1e+0
    outer loop
      vertex 2.2469559222317775e+2 6.856539366711621e+1 0e+0
      vertex 1.3691560641729862e+2 3.0918389852005628e+1 0e+0
      vertex 1.0765473800332715e+2 6.856292256731557e+1 0e+0
    endloop
  endfacet
  facet normal 0e+0 0e+0 -1e+0
    outer loop
      vertex 1.3691560641729862e+2 3.0918389852005628e+1 0e+0
      vertex 1.0765525290942267e+2 3.0917935242892213e+1 0e+0
      vertex 1.0765473800332715e+2 6.856292256731557e+1 0e+0
    endloop
  endfacet
  facet normal 0e+0 0e+0 -1e+0
    outer loop
      vertex 2.2469559222317775e+2 6.856539366711621e+1 0e+0
      vertex 1.9543631342715238e+2 3.0919625404690724e+1 0e+0
      vertex 1.3691560641729862e+2 3.0918389852005628e+1 0e+0
    endloop
  endfacet
  facet normal 0e+0 0e+0 -1e+0
    outer loop
      vertex 1.3691691611975796e+2 -4.437158479303042e+1 0e+0
      vertex 1.3691560641729862e+2 3.0918389852005628e+1 0e+0
      vertex 1.9543631342715238e+2 3.0919625404690724e+1 0e+0
    endloop
  endfacet
  facet normal 0e+0 0e+0 -1e+0
    outer loop
      vertex 1.3691691611975796e+2 -4.437158479303042e+1 0e+0
      vertex 1.9543631342715238e+2 3.0919625404690724e+1 0e+0
      vertex 1.954381829243336e+2 -4.437034923458411e+1 0e+0
    endloop
  endfacet
  facet normal 0e+0 0e+0 -1e+0
    outer loop
      vertex 2.246966669282281e+2 3.092040634859223e+1 0e+0
      vertex 1.9543631342715238e+2 3.0919625404690724e+1 0e+0
      vertex 2.2469559222317775e+2 6.856539366711621e+1 0e+0
    endloop
  endfacet
  facet normal 0e+0 0e+0 1e+0
    outer loop
      vertex 1.0765473800332715e+2 6.856292256731557e+1 2.2e+1
      vertex 1.3691560641729862e+2 3.0918389852005628e+1 2.2e+1
      vertex 2.2469559222317775e+2 6.856539366711621e+1 2.2e+1
    endloop
  endfacet
  facet normal 0e+0 0e+0 1e+0
    outer loop
      vertex 1.0765473800332715e+2 6.856292256731557e+1 2.2e+1
      vertex 1.0765525290942267e+2 3.0917935242892213e+1 2.2e+1
      vertex 1.3691560641729862e+2 3.0918389852005628e+1 2.2e+1
    endloop
  endfacet
  facet normal 0e+0 0e+0 1e+0
    outer loop
      vertex 1.3691560641729862e+2 3.0918389852005628e+1 2.2e+1
      vertex 1.9543631342715238e+2 3.0919625404690724e+1 2.2e+1
      vertex 2.2469559222317775e+2 6.856539366711621e+1 2.2e+1
    endloop
  endfacet
  facet normal 0e+0 0e+0 1e+0
    outer loop
      vertex 1.9543631342715238e+2 3.0919625404690724e+1 2.2e+1
      vertex 1.3691560641729862e+2 3.0918389852005628e+1 2.2e+1
      vertex 1.3691691611975796e+2 -4.437158479303042e+1 2.2e+1
    endloop
  endfacet
  facet normal 0e+0 0e+0 1e+0
    outer loop
      vertex 1.954381829243336e+2 -4.437034923458411e+1 2.2e+1
      vertex 1.9543631342715238e+2 3.0919625404690724e+1 2.2e+1
      vertex 1.3691691611975796e+2 -4.437158479303042e+1 2.2e+1
    endloop
  endfacet
  facet normal 0e+0 0e+0 1e+0
    outer loop
      vertex 2.2469559222317775e+2 6.856539366711621e+1 2.2e+1
      vertex 1.9543631342715238e+2 3.0919625404690724e+1 2.2e+1
      vertex 2.246966669282281e+2 3.092040634859223e+1 2.2e+1
    endloop
  endfacet
endsolid
solid testBuilding3
  facet normal 2.703301179126115e-5 9.999999996346082e-1 0e+0
    outer loop
      vertex -1.8351048275098046e+2 1.3018573403244458e+1 0e+0
      vertex -2.4203132284973825e+2 1.302015539780546e+1 0e+0
      vertex -2.4203132284973825e+2 1.302015539780546e+1 1e+1
    endloop
  endfacet
  facet normal 2.703301179126115e-5 9.999999996346082e-1 0e+0
    outer loop
      vertex -1.8351048275098046e+2 1.3018573403244458e+1 0e+0
      vertex -2.4203132284973825e+2 1.302015539780546e+1 1e+1
      vertex -1.8351048275098046e+2 1.3018573403244458e+1 1e+1
    endloop
  endfacet
  facet normal -9.999999995272085e-1 3.075033250268188e-5 0e+0
    outer loop
      vertex -2.4203132284973825e+2 1.302015539780546e+1 0e+0
      vertex -2.420359533107129e+2 -1.3756231300508807e+2 0e+0
      vertex -2.420359533107129e+2 -1.3756231300508807e+2 1e+1
    endloop
  endfacet
  facet normal -9.999999995272085e-1 3.075033250268188e-5 0e+0
    outer loop
      vertex -2.4203132284973825e+2 1.302015539780546e+1 0e+0
      vertex -2.420359533107129e+2 -1.3756231300508807e+2 1e+1
      vertex -2.4203132284973825e+2 1.302015539780546e+1 1e+1
    endloop
  endfacet
  facet normal -2.703274095377641e-5 -9.999999996346155e-1 0e+0
    outer loop
      vertex -2.420359533107129e+2 -1.3756231300508807e+2 0e+0
      vertex -1.8351399361137476e+2 -1.375638950140653e+2 0e+0
      vertex -1.8351399361137476e+2 -1.375638950140653e+2 1e+1
    endloop
  endfacet
  facet normal -2.703274095377641e-5 -9.999999996346155e-1 0e+0
    outer loop
      vertex -2.420359533107129e+2 -1.3756231300508807e+2 0e+0
      vertex -1.8351399361137476e+2 -1.375638950140653e+2 1e+1
      vertex -2.420359533107129e+2 -1.3756231300508807e+2 1e+1
    endloop
  endfacet
  facet normal -9.999999997282085e-1 2.3314868782192743e-5 0e+0
    outer loop
      vertex -1.8351399361137476e+2 -1.375638950140653e+2 0e+0
      vertex -1.8351574901662065e+2 -2.1285512919640448e+2 0e+0
      vertex -1.8351574901662065e+2 -2.1285512919640448e+2 1e+1
    endloop
  endfacet
  facet normal -9.999999997282085e-1 2.3314868782192743e-5 0e+0
    outer loop
      vertex -1.8351399361137476e+2 -1.375638950140653e+2 0e+0
      vertex -1.8351574901662065e+2 -2.1285512919640448e+2 1e+1
      vertex -1.8351399361137476e+2 -1.375638950140653e+2 1e+1
    endloop
  endfacet
  facet normal -1.587998057871525e-5 -9.999999998739131e-1 0e+0
    outer loop
      vertex -1.8351574901662065e+2 -2.1285512919640448e+2 0e+0
      vertex -6.647071000804337e+1 -2.12856987869351e+2 0e+0
      vertex -6.647071000804337e+1 -2.12856987869351e+2 1e+1
    endloop
  endfacet
  facet normal -1.587998057871525e-5 -9.999999998739131e-1 0e+0
    outer loop
      vertex -1.8351574901662065e+2 -2.1285512919640448e+2 0e+0
      vertex -6.647071000804337e+1 -2.12856987869351e+2 1e+1
      vertex -1.8351574901662065e+2 -2.1285512919640448e+2 1e+1
    endloop
  endfacet
  facet normal 9.999999999643425e-1 -8.444812876030992e-6 0e+0
    outer loop
      vertex -6.647071000804337e+1 -2.12856987869351e+2 0e+0
      vertex -6.647007418765939e+1 -1.3756575367768792e+2 0e+0
      vertex -6.647007418765939e+1 -1.3756575367768792e+2 1e+1
    endloop
  endfacet
  facet normal 9.999999999643425e-1 -8.444812876030992e-6 0e+0
    outer loop
      vertex -6.647071000804337e+1 -2.12856987869351e+2 0e+0
      vertex -6.647007418765939e+1 -1.3756575367768792e+2 1e+1
      vertex -6.647071000804337e+1 -2.12856987869351e+2 1e+1
    endloop
  endfacet
  facet normal -4.727369899300993e-6 -9.999999999888259e-1 0e+0
    outer loop
      vertex -6.647007418765939e+1 -1.3756575367768792e+2 0e+0
      vertex -7.948114469306023e+0 -1.3756603033263875e+2 0e+0
      vertex -7.948114469306023e+0 -1.3756603033263875e+2 1e+1
    endloop
  endfacet
  facet normal -4.727369899300993e-6 -9.999999999888259e-1 0e+0
    outer loop
      vertex -6.647007418765939e+1 -1.3756575367768792e+2 0e+0
      vertex -7.948114469306023e+0 -1.3756603033263875e+2 1e+1
      vertex -6.647007418765939e+1 -1.3756575367768792e+2 1e+1
    endloop
  endfacet
  facet normal 9.999999999994902e-1 -1.009793541776681e-6 0e+0
    outer loop
      vertex -7.948114469306023e+0 -1.3756603033263875e+2 0e+0
      vertex -7.947962412101888e+0 1.3016438106481846e+1 0e+0
      vertex -7.947962412101888e+0 1.3016438106481846e+1 1e+1
    endloop
  endfacet
  facet normal 9.999999999994902e-1 -1.009793541776681e-6 0e+0
    outer loop
      vertex -7.948114469306023e+0 -1.3756603033263875e+2 0e+0
      vertex -7.947962412101888e+0 1.3016438106481846e+1 1e+1
      vertex -7.948114469306023e+0 -1.3756603033263875e+2 1e+1
    endloop
  endfacet
  facet normal 4.727391076763946e-6 9.999999999888259e-1 0e+0
    outer loop
      vertex -7.947962412101888e+0 1.3016438106481846e+1 0e+0
      vertex -6.646880252823576e+1 1.301671475737922e+1 0e+0
      vertex -6.646880252823576e+1 1.301671475737922e+1 1e+1
    endloop
  endfacet
  facet normal 4.727391076763946e-6 9.999999999888259e-1 0e+0
    outer loop
      vertex -7.947962412101888e+0 1.3016438106481846e+1 0e+0
      vertex -6.646880252823576e+1 1.301671475737922e+1 1e+1
      vertex -7.947962412101888e+0 1.3016438106481846e+1 1e+1
    endloop
  endfacet
  facet normal 9.999999999643406e-1 -8.445042581917326e-6 0e+0
    outer loop
      vertex -6.646880252823576e+1 1.301671475737922e+1 0e+0
      vertex -6.646816669055647e+1 8.83079490043215e+1 0e+0
      vertex -6.646816669055647e+1 8.83079490043215e+1 1e+1
    endloop
  endfacet
  facet normal 9.999999999643406e-1 -8.445042581917326e-6 0e+0
    outer loop
      vertex -6.646880252823576e+1 1.301671475737922e+1 0e+0
      vertex -6.646816669055647e+1 8.83079490043215e+1 1e+1
      vertex -6.646880252823576e+1 1.301671475737922e+1 1e+1
    endloop
  endfacet
  facet normal 1.5880280556593647e-5 9.999999998739084e-1 0e+0
    outer loop
      vertex -6.646816669055647e+1 8.83079490043215e+1 0e+0
      vertex -1.8350872729583088e+2 8.830980764126065e+1 0e+0
      vertex -1.8350872729583088e+2 8.830980764126065e+1 1e+1
    endloop
  endfacet
  facet normal 1.5880280556593647e-5 9.999999998739084e-1 0e+0
    outer loop
      vertex -6.646816669055647e+1 8.83079490043215e+1 0e+0
      vertex -1.8350872729583088e+2 8.830980764126065e+1 1e+1
      vertex -6.646816669055647e+1 8.83079490043215e+1 1e+1
    endloop
  endfacet
  facet normal -9.99999999728193e-1 2.3315531573717294e-5 0e+0
    outer loop
      vertex -1.8350872729583088e+2 8.830980764126065e+1 0e+0
      vertex -1.8351048275098046e+2 1.3018573403244458e+1 0e+0
      vertex -1.8351048275098046e+2 1.3018573403244458e+1 1e+1
    endloop
  endfacet
  facet normal -9.99999999728193e-1 2.3315531573717294e-5 0e+0
    outer loop
      vertex -1.8350872729583088e+2 8.830980764126065e+1 0e+0
      vertex -1.8351048275098046e+2 1.3018573403244458e+1 1e+1
      vertex -1.8350872729583088e+2 8.830980764126065e+1 1e+1
    endloop
  endfacet
  facet normal 0e+0 0e+0 -1e+0
    outer loop
      vertex -1.8351048275098046e+2 1.3018573403244458e+1 0e+0
      vertex -2.420359533107129e+2 -1.3756231300508807e+2 0e+0
      vertex -2.4203132284973825e+2 1.302015539780546e+1 0e+0
    endloop
  endfacet
  facet normal 0e+0 0e+0 -1e+0
    outer loop
      vertex -1.8351048275098046e+2 1.3018573403244458e+1 0e+0
      vertex -1.8351399361137476e+2 -1.375638950140653e+2 0e+0
      vertex -2.420359533107129e+2 -1.3756231300508807e+2 0e+0
    endloop
  endfacet
  facet normal 0e+0 0e+0 -1e+0
    outer loop
      vertex -6.646880252823576e+1 1.301671475737922e+1 0e+0
      vertex -1.8351399361137476e+2 -1.375638950140653e+2 0e+0
      vertex -1.8351048275098046e+2 1.3018573403244458e+1 0e+0
    endloop
  endfacet
  facet normal 0e+0 0e+0 -1e+0
    outer loop
      vertex -6.646880252823576e+1 1.301671475737922e+1 0e+0
      vertex -1.8351048275098046e+2 1.3018573403244458e+1 0e+0
      vertex -1.8350872729583088e+2 8.830980764126065e+1 0e+0
    endloop
  endfacet
  facet normal 0e+0 0e+0 -1e+0
    outer loop
      vertex -6.646880252823576e+1 1.301671475737922e+1 0e+0
      vertex -1.8350872729583088e+2 8.830980764126065e+1 0e+0
      vertex -6.646816669055647e+1 8.83079490043215e+1 0e+0
    endloop
  endfacet
  facet normal 0e+0 0e+0 -1e+0
    outer loop
      vertex -6.646880252823576e+1 1.301671475737922e+1 0e+0
      vertex -6.647007418765939e+1 -1.3756575367768792e+2 0e+0
      vertex -1.8351399361137476e+2 -1.375638950140653e+2 0e+0
    endloop
  endfacet
  facet normal 0e+0 0e+0 -1e+0
    outer loop
      vertex -6.647007418765939e+1 -1.3756575367768792e+2 0e+0
      vertex -1.8351574901662065e+2 -2.1285512919640448e+2 0e+0
      vertex -1.8351399361137476e+2 -1.375638950140653e+2 0e+0
    endloop
  endfacet
  facet normal 0e+0 0e+0 -1e+0
    outer loop
      vertex -6.647007418765939e+1 -1.3756575367768792e+2 0e+0
      vertex -6.647071000804337e+1 -2.12856987869351e+2 0e+0
      vertex -1.8351574901662065e+2 -2.1285512919640448e+2 0e+0
    endloop
  endfacet
  facet normal 0e+0 0e+0 -1e+0
    outer loop
      vertex -7.947962412101888e+0 1.3016438106481846e+1 0e+0
      vertex -6.647007418765939e+1 -1.3756575367768792e+2 0e+0
      vertex -6.646880252823576e+1 1.301671475737922e+1 0e+0
    endloop
  endfacet
  facet normal 0e+0 0e+0 -1e+0
    outer loop
      vertex -7.947962412101888e+0 1.3016438106481846e+1 0e+0
      vertex -7.948114469306023e+0 -1.3756603033263875e+2 0e+0
      vertex -6.647007418765939e+1 -1.3756575367768792e+2 0e+0
    endloop
  endfacet
  facet normal 0e+0 0e+0 1e+0
    outer loop
      vertex -2.4203132284973825e+2 1.302015539780546e+1 1e+1
      vertex -2.420359533107129e+2 -1.3756231300508807e+2 1e+1
      vertex -1.8351048275098046e+2 1.3018573403244458e+1 1e+1
    endloop
  endfacet
  facet normal 0e+0 0e+0 1e+0
    outer loop
      vertex -2.420359533107129e+2 -1.3756231300508807e+2 1e+1
      vertex -1.8351399361137476e+2 -1.375638950140653e+2 1e+1
      vertex -1.8351048275098046e+2 1.3018573403244458e+1 1e+1
    endloop
  endfacet
  facet normal 0e+0 0e+0 1e+0
    outer loop
      vertex -1.8351048275098046e+2 1.3018573403244458e+1 1e+1
      vertex -1.8351399361137476e+2 -1.375638950140653e+2 1e+1
      vertex -6.646880252823576e+1 1.301671475737922e+1 1e+1
    endloop
  endfacet
  facet normal 0e+0 0e+0 1e+0
    outer loop
      vertex -1.8350872729583088e+2 8.830980764126065e+1 1e+1
      vertex -1.8351048275098046e+2 1.3018573403244458e+1 1e+1
      vertex -6.646880252823576e+1 1.301671475737922e+1 1e+1
    endloop
  endfacet
  facet normal 0e+0 0e+0 1e+0
    outer loop
      vertex -6.646816669055647e+1 8.83079490043215e+1 1e+1
      vertex -1.8350872729583088e+2 8.830980764126065e+1 1e+1
      vertex -6.646880252823576e+1 1.301671475737922e+1 1e+1
    endloop
  endfacet
  facet normal 0e+0 0e+0 1e+0
    outer loop
      vertex -1.8351399361137476e+2 -1.375638950140653e+2 1e+1
      vertex -6.647007418765939e+1 -1.3756575367768792e+2 1e+1
      vertex -6.646880252823576e+1 1.301671475737922e+1 1e+1
    endloop
  endfacet
  facet normal 0e+0 0e+0 1e+0
    outer loop
      vertex -1.8351399361137476e+2 -1.375638950140653e+2 1e+1
      vertex -1.8351574901662065e+2 -2.1285512919640448e+2 1e+1
      vertex -6.647007418765939e+1 -1.3756575367768792e+2 1e+1
    endloop
  endfacet
  facet normal 0e+0 0e+0 1e+0
    outer loop
      vertex -1.8351574901662065e+2 -2.1285512919640448e+2 1e+1
      vertex -6.647071000804337e+1 -2.12856987869351e+2 1e+1
      vertex -6.647007418765939e+1 -1.3756575367768792e+2 1e+1
    endloop
  endfacet
  facet normal 0e+0 0e+0 1e+0
    outer loop
      vertex -6.646880252823576e+1 1.301671475737922e+1 1e+1
      vertex -6.647007418765939e+1 -1.3756575367768792e+2 1e+1
      vertex -7.947962412101888e+0 1.3016438106481846e+1 1e+1
    endloop
  endfacet
  facet normal 0e+0 0e+0 1e+0
    outer loop
      vertex -6.647007418765939e+1 -1.3756575367768792e+2 1e+1
      vertex -7.948114469306023e+0 -1.3756603033263875e+2 1e+1
      vertex -7.947962412101888e+0 1.3016438106481846e+1 1e+1
    endloop
  endfacet
endsolid