solid testElevation
  facet normal 3.717688203338995e-6 -9.999999999930894e-1 0e+0
    outer loop
      vertex 0e+0 0e+0 2.4510421752929723e+0
      vertex 5.8520007900924135e+1 2.175591430340739e-4 1.0557937622069957e-1
      vertex 5.8520007900924135e+1 2.175591430340739e-4 1.51055793762207e+1
    endloop
  endfacet
  facet normal 3.7176882033389954e-6 -9.999999999930894e-1 0e+0
    outer loop
      vertex 0e+0 0e+0 2.4510421752929723e+0
      vertex 5.8520007900924135e+1 2.175591430340739e-4 1.51055793762207e+1
      vertex 0e+0 0e+0 1.7451042175292972e+1
    endloop
  endfacet
  facet normal 9.999999999723573e-1 7.435409358176474e-6 0e+0
    outer loop
      vertex 5.8520007900924135e+1 2.175591430340739e-4 1.0557937622069957e-1
      vertex 5.851944808914203e+1 7.529019220897924e+1 0e+0
      vertex 5.851944808914203e+1 7.529019220897924e+1 1.5e+1
    endloop
  endfacet
  facet normal 9.999999999723573e-1 7.435409358176475e-6 0e+0
    outer loop
      vertex 5.8520007900924135e+1 2.175591430340739e-4 1.0557937622069957e-1
      vertex 5.851944808914203e+1 7.529019220897924e+1 1.5e+1
      vertex 5.8520007900924135e+1 2.175591430340739e-4 1.51055793762207e+1
    endloop
  endfacet
  facet normal -3.7177048296499174e-6 9.999999999930893e-1 0e+0
    outer loop
      vertex 5.851944808914203e+1 7.529019220897924e+1 0e+0
      vertex 0e+0 7.528997465094444e+1 3.03078460693359e+0
      vertex 0e+0 7.528997465094444e+1 1.803078460693359e+1
    endloop
  endfacet
  facet normal -3.7177048296499187e-6 9.999999999930893e-1 0e+0
    outer loop
      vertex 5.851944808914203e+1 7.529019220897924e+1 0e+0
      vertex 0e+0 7.528997465094444e+1 1.803078460693359e+1
      vertex 5.851944808914203e+1 7.529019220897924e+1 1.5e+1
    endloop
  endfacet
  facet normal -1e+0 0e+0 0e+0
    outer loop
      vertex 0e+0 7.528997465094444e+1 3.03078460693359e+0
      vertex 0e+0 0e+0 2.4510421752929723e+0
      vertex 0e+0 0e+0 1.7451042175292972e+1
    endloop
  endfacet
  facet normal -1e+0 0e+0 0e+0
    outer loop
      vertex 0e+0 7.528997465094444e+1 3.03078460693359e+0
      vertex 0e+0 0e+0 1.7451042175292972e+1
      vertex 0e+0 7.528997465094444e+1 1.803078460693359e+1
    endloop
  endfacet
  facet normal 0e+0 0e+0 -1e+0
    outer loop
      vertex 0e+0 0e+0 0e+0
      vertex 0e+0 7.528997465094444e+1 0e+0
      vertex 5.851944808914203e+1 7.529019220897924e+1 0e+0
    endloop
  endfacet
  facet normal 0e+0 0e+0 -1e+0
    outer loop
      vertex 0e+0 0e+0 0e+0
      vertex 5.851944808914203e+1 7.529019220897924e+1 0e+0
      vertex 5.8520007900924135e+1 2.175591430340739e-4 0e+0
    endloop
  endfacet
  facet normal 0e+0 0e+0 1e+0
    outer loop
      vertex 5.851944808914203e+1 7.529019220897924e+1 1.5e+1
      vertex 0e+0 7.528997465094444e+1 1.5e+1
      vertex 0e+0 0e+0 1.5e+1
    endloop
  endfacet
  facet normal 0e+0 0e+0 1e+0
    outer loop
      vertex 5.8520007900924135e+1 2.175591430340739e-4 1.5e+1
      vertex 5.851944808914203e+1 7.529019220897924e+1 1.5e+1
      vertex 0e+0 0e+0 1.5e+1
    endloop
  endfacet
endsolid