solid testBuilding1
  facet normal 8.320502943378438e-1 -5.547001962252288e-1 0e+0
    outer loop
      vertex 0e+0 -1.5e+1 0e+0
      vertex 5.555555555555556e-1 -1.4166666666666666e+1 0e+0
      vertex 5.555555555555556e-1 -1.4166666666666666e+1 1e+1
    endloop
  endfacet
  facet normal 8.320502943378438e-1 -5.547001962252288e-1 0e+0
    outer loop
      vertex 0e+0 -1.5e+1 0e+0
      vertex 5.555555555555556e-1 -1.4166666666666666e+1 1e+1
      vertex 0e+0 -1.5e+1 1e+1
    endloop
  endfacet
  facet normal 8.320502943378434e-1 -5.547001962252297e-1 0e+0
    outer loop
      vertex 5.555555555555556e-1 -1.4166666666666666e+1 0e+0
      vertex 1.1111111111111112e+0 -1.3333333333333334e+1 0e+0
      vertex 1.1111111111111112e+0 -1.3333333333333334e+1 1e+1
    endloop
  endfacet
  facet normal 8.320502943378434e-1 -5.547001962252297e-1 0e+0
    outer loop
      vertex 5.555555555555556e-1 -1.4166666666666666e+1 0e+0
      vertex 1.1111111111111112e+0 -1.3333333333333334e+1 1e+1
      vertex 5.555555555555556e-1 -1.4166666666666666e+1 1e+1
    endloop
  endfacet
  facet normal 8.320502943378438e-1 -5.547001962252288e-1 0e+0
    outer loop
      vertex 1.1111111111111112e+0 -1.3333333333333334e+1 0e+0
      vertex 1.6666666666666667e+0 -1.25e+1 0e+0
      vertex 1.6666666666666667e+0 -1.25e+1 1e+1
    endloop
  endfacet
  facet normal 8.320502943378438e-1 -5.547001962252288e-1 0e+0
    outer loop
      vertex 1.1111111111111112e+0 -1.3333333333333334e+1 0e+0
      vertex 1.6666666666666667e+0 -1.25e+1 1e+1
      vertex 1.1111111111111112e+0 -1.3333333333333334e+1 1e+1
    endloop
  endfacet
  facet normal 8.320502943378438e-1 -5.547001962252288e-1 0e+0
    outer loop
      vertex 1.6666666666666667e+0 -1.25e+1 0e+0
      vertex 2.2222222222222223e+0 -1.1666666666666666e+1 0e+0
      vertex 2.2222222222222223e+0 -1.1666666666666666e+1 1e+1
    endloop
  endfacet
  facet normal 8.320502943378438e-1 -5.547001962252288e-1 0e+0
    outer loop
      vertex 1.6666666666666667e+0 -1.25e+1 0e+0
      vertex 2.2222222222222223e+0 -1.1666666666666666e+1 1e+1
      vertex 1.6666666666666667e+0 -1.25e+1 1e+1
    endloop
  endfacet
  facet normal 8.320502943378439e-1 -5.547001962252287e-1 0e+0
    outer loop
      vertex 2.2222222222222223e+0 -1.1666666666666666e+1 0e+0
      vertex 2.7777777777777777e+0 -1.0833333333333332e+1 0e+0
      vertex 2.7777777777777777e+0 -1.0833333333333332e+1 1e+1
    endloop
  endfacet
  facet normal 8.320502943378439e-1 -5.547001962252287e-1 0e+0
    outer loop
      vertex 2.2222222222222223e+0 -1.1666666666666666e+1 0e+0
      vertex 2.7777777777777777e+0 -1.0833333333333332e+1 1e+1
      vertex 2.2222222222222223e+0 -1.1666666666666666e+1 1e+1
    endloop
  endfacet
  facet normal 8.320502943378433e-1 -5.547001962252299e-1 0e+0
    outer loop
      vertex 2.7777777777777777e+0 -1.0833333333333332e+1 0e+0
      vertex 3.3333333333333335e+0 -1e+1 0e+0
      vertex 3.3333333333333335e+0 -1e+1 1e+1
    endloop
  endfacet
  facet normal 8.320502943378433e-1 -5.547001962252299e-1 0e+0
    outer loop
      vertex 2.7777777777777777e+0 -1.0833333333333332e+1 0e+0
      vertex 3.3333333333333335e+0 -1e+1 1e+1
      vertex 2.7777777777777777e+0 -1.0833333333333332e+1 1e+1
    endloop
  endfacet
  facet normal 8.320502943378437e-1 -5.54700196225229e-1 0e+0
    outer loop
      vertex 3.3333333333333335e+0 -1e+1 0e+0
      vertex 3.8888888888888893e+0 -9.166666666666666e+0 0e+0
      vertex 3.8888888888888893e+0 -9.166666666666666e+0 1e+1
    endloop
  endfacet
  facet normal 8.320502943378437e-1 -5.54700196225229e-1 0e+0
    outer loop
      vertex 3.3333333333333335e+0 -1e+1 0e+0
      vertex 3.8888888888888893e+0 -9.166666666666666e+0 1e+1
      vertex 3.3333333333333335e+0 -1e+1 1e+1
    endloop
  endfacet
  facet normal 8.320502943378439e-1 -5.547001962252287e-1 0e+0
    outer loop
      vertex 3.8888888888888893e+0 -9.166666666666666e+0 0e+0
      vertex 4.444444444444445e+0 -8.333333333333332e+0 0e+0
      vertex 4.444444444444445e+0 -8.333333333333332e+0 1e+1
    endloop
  endfacet
  facet normal 8.320502943378439e-1 -5.547001962252287e-1 0e+0
    outer loop
      vertex 3.8888888888888893e+0 -9.166666666666666e+0 0e+0
      vertex 4.444444444444445e+0 -8.333333333333332e+0 1e+1
      vertex 3.8888888888888893e+0 -9.166666666666666e+0 1e+1
    endloop
  endfacet
  facet normal 8.320502943378434e-1 -5.547001962252295e-1 0e+0
    outer loop
      vertex 4.444444444444445e+0 -8.333333333333332e+0 0e+0
      vertex 5e+0 -7.5e+0 0e+0
      vertex 5e+0 -7.5e+0 1e+1
    endloop
  endfacet
  facet normal 8.320502943378434e-1 -5.547001962252295e-1 0e+0
    outer loop
      vertex 4.444444444444445e+0 -8.333333333333332e+0 0e+0
      vertex 5e+0 -7.5e+0 1e+1
      vertex 4.444444444444445e+0 -8.333333333333332e+0 1e+1
    endloop
  endfacet
  facet normal 8.320502943378439e-1 -5.547001962252287e-1 0e+0
    outer loop
      vertex 5e+0 -7.5e+0 0e+0
      vertex 5.555555555555555e+0 -6.666666666666666e+0 0e+0
      vertex 5.555555555555555e+0 -6.666666666666666e+0 1e+1
    endloop
  endfacet
  facet normal 8.320502943378439e-1 -5.547001962252287e-1 0e+0
    outer loop
      vertex 5e+0 -7.5e+0 0e+0
      vertex 5.555555555555555e+0 -6.666666666666666e+0 1e+1
      vertex 5e+0 -7.5e+0 1e+1
    endloop
  endfacet
  facet normal 8.320502943378436e-1 -5.547001962252294e-1 0e+0
    outer loop
      vertex 5.555555555555555e+0 -6.666666666666666e+0 0e+0
      vertex 6.111111111111112e+0 -5.833333333333332e+0 0e+0
      vertex 6.111111111111112e+0 -5.833333333333332e+0 1e+1
    endloop
  endfacet
  facet normal 8.320502943378436e-1 -5.547001962252294e-1 0e+0
    outer loop
      vertex 5.555555555555555e+0 -6.666666666666666e+0 0e+0
      vertex 6.111111111111112e+0 -5.833333333333332e+0 1e+1
      vertex 5.555555555555555e+0 -6.666666666666666e+0 1e+1
    endloop
  endfacet
  facet normal 8.320502943378434e-1 -5.547001962252295e-1 0e+0
    outer loop
      vertex 6.111111111111112e+0 -5.833333333333332e+0 0e+0
      vertex 6.666666666666667e+0 -5e+0 0e+0
      vertex 6.666666666666667e+0 -5e+0 1e+1
    endloop
  endfacet
  facet normal 8.320502943378434e-1 -5.547001962252295e-1 0e+0
    outer loop
      vertex 6.111111111111112e+0 -5.833333333333332e+0 0e+0
      vertex 6.666666666666667e+0 -5e+0 1e+1
      vertex 6.111111111111112e+0 -5.833333333333332e+0 1e+1
    endloop
  endfacet
  facet normal 8.320502943378439e-1 -5.547001962252287e-1 0e+0
    outer loop
      vertex 6.666666666666667e+0 -5e+0 0e+0
      vertex 7.222222222222222e+0 -4.166666666666666e+0 0e+0
      vertex 7.222222222222222e+0 -4.166666666666666e+0 1e+1
    endloop
  endfacet
  facet normal 8.320502943378439e-1 -5.547001962252287e-1 0e+0
    outer loop
      vertex 6.666666666666667e+0 -5e+0 0e+0
      vertex 7.222222222222222e+0 -4.166666666666666e+0 1e+1
      vertex 6.666666666666667e+0 -5e+0 1e+1
    endloop
  endfacet
  facet normal 8.320502943378436e-1 -5.547001962252294e-1 0e+0
    outer loop
      vertex 7.222222222222222e+0 -4.166666666666666e+0 0e+0
      vertex 7.777777777777779e+0 -3.333333333333332e+0 0e+0
      vertex 7.777777777777779e+0 -3.333333333333332e+0 1e+1
    endloop
  endfacet
  facet normal 8.320502943378436e-1 -5.547001962252294e-1 0e+0
    outer loop
      vertex 7.222222222222222e+0 -4.166666666666666e+0 0e+0
      vertex 7.777777777777779e+0 -3.333333333333332e+0 1e+1
      vertex 7.222222222222222e+0 -4.166666666666666e+0 1e+1
    endloop
  endfacet
  facet normal 8.320502943378434e-1 -5.547001962252295e-1 0e+0
    outer loop
      vertex 7.777777777777779e+0 -3.333333333333332e+0 0e+0
      vertex 8.333333333333334e+0 -2.5e+0 0e+0
      vertex 8.333333333333334e+0 -2.5e+0 1e+1
    endloop
  endfacet
  facet normal 8.320502943378434e-1 -5.547001962252295e-1 0e+0
    outer loop
      vertex 7.777777777777779e+0 -3.333333333333332e+0 0e+0
      vertex 8.333333333333334e+0 -2.5e+0 1e+1
      vertex 7.777777777777779e+0 -3.333333333333332e+0 1e+1
    endloop
  endfacet
  facet normal 8.320502943378439e-1 -5.547001962252287e-1 0e+0
    outer loop
      vertex 8.333333333333334e+0 -2.5e+0 0e+0
      vertex 8.88888888888889e+0 -1.666666666666666e+0 0e+0
      vertex 8.88888888888889e+0 -1.666666666666666e+0 1e+1
    endloop
  endfacet
  facet normal 8.320502943378439e-1 -5.547001962252287e-1 0e+0
    outer loop
      vertex 8.333333333333334e+0 -2.5e+0 0e+0
      vertex 8.88888888888889e+0 -1.666666666666666e+0 1e+1
      vertex 8.333333333333334e+0 -2.5e+0 1e+1
    endloop
  endfacet
  facet normal 8.320502943378439e-1 -5.547001962252287e-1 0e+0
    outer loop
      vertex 8.88888888888889e+0 -1.666666666666666e+0 0e+0
      vertex 9.444444444444445e+0 -8.333333333333321e-1 0e+0
      vertex 9.444444444444445e+0 -8.333333333333321e-1 1e+1
    endloop
  endfacet
  facet normal 8.320502943378439e-1 -5.547001962252287e-1 0e+0
    outer loop
      vertex 8.88888888888889e+0 -1.666666666666666e+0 0e+0
      vertex 9.444444444444445e+0 -8.333333333333321e-1 1e+1
      vertex 8.88888888888889e+0 -1.666666666666666e+0 1e+1
    endloop
  endfacet
  facet normal 8.320502943378434e-1 -5.547001962252295e-1 0e+0
    outer loop
      vertex 9.444444444444445e+0 -8.333333333333321e-1 0e+0
      vertex 1e+1 0e+0 0e+0
      vertex 1e+1 0e+0 1e+1
    endloop
  endfacet
  facet normal 8.320502943378434e-1 -5.547001962252295e-1 0e+0
    outer loop
      vertex 9.444444444444445e+0 -8.333333333333321e-1 0e+0
      vertex 1e+1 0e+0 1e+1
      vertex 9.444444444444445e+0 -8.333333333333321e-1 1e+1
    endloop
  endfacet
endsolid