solid tShape
  facet normal 4.647167677952902e-7 -9.99999999999892e-1 0e+0
    outer loop
      vertex 0e+0 0e+0 0e+0
      vertex 7.314981943914533e+0 3.399394765457238e-6 0e+0
      vertex 7.314981943914533e+0 3.399394765457238e-6 2e+1
    endloop
  endfacet
  facet normal 4.647167677952902e-7 -9.99999999999892e-1 0e+0
    outer loop
      vertex 0e+0 0e+0 0e+0
      vertex 7.314981943914533e+0 3.399394765457238e-6 2e+1
      vertex 0e+0 0e+0 2e+1
    endloop
  endfacet
  facet normal -9.999999999995681e-1 -9.294240745787758e-7 0e+0
    outer loop
      vertex 7.314981943914533e+0 3.399394765457238e-6 0e+0
      vertex 7.314999437993286e+0 -1.8822490263191344e+1 0e+0
      vertex 7.314999437993286e+0 -1.8822490263191344e+1 2e+1
    endloop
  endfacet
  facet normal -9.999999999995681e-1 -9.294240745787758e-7 0e+0
    outer loop
      vertex 7.314981943914533e+0 3.399394765457238e-6 0e+0
      vertex 7.314999437993286e+0 -1.8822490263191344e+1 2e+1
      vertex 7.314981943914533e+0 3.399394765457238e-6 2e+1
    endloop
  endfacet
  facet normal 1.8588551052416083e-6 -9.999999999982724e-1 0e+0
    outer loop
      vertex 7.314999437993286e+0 -1.8822490263191344e+1 0e+0
      vertex 2.1944998310745657e+1 -1.882246306814325e+1 0e+0
      vertex 2.1944998310745657e+1 -1.882246306814325e+1 2e+1
    endloop
  endfacet
  facet normal 1.8588551052416083e-6 -9.999999999982724e-1 0e+0
    outer loop
      vertex 7.314999437993286e+0 -1.8822490263191344e+1 0e+0
      vertex 2.1944998310745657e+1 -1.882246306814325e+1 2e+1
      vertex 7.314999437993286e+0 -1.8822490263191344e+1 2e+1
    endloop
  endfacet
  facet normal 9.999999999961127e-1 2.788276989935275e-6 0e+0
    outer loop
      vertex 2.1944998310745657e+1 -1.882246306814325e+1 0e+0
      vertex 2.1944945828419684e+1 3.059455289155676e-5 0e+0
      vertex 2.1944945828419684e+1 3.059455289155676e-5 2e+1
    endloop
  endfacet
  facet normal 9.999999999961127e-1 2.788276989935275e-6 0e+0
    outer loop
      vertex 2.1944998310745657e+1 -1.882246306814325e+1 0e+0
      vertex 2.1944945828419684e+1 3.059455289155676e-5 2e+1
      vertex 2.1944998310745657e+1 -1.882246306814325e+1 2e+1
    endloop
  endfacet
  facet normal 3.2529206793321826e-6 -9.999999999947092e-1 0e+0
    outer loop
      vertex 2.1944945828419684e+1 3.059455289155676e-5 0e+0
      vertex 2.9259927772296304e+1 5.438960892586044e-5 0e+0
      vertex 2.9259927772296304e+1 5.438960892586044e-5 2e+1
    endloop
  endfacet
  facet normal 3.2529206793321826e-6 -9.999999999947092e-1 0e+0
    outer loop
      vertex 2.1944945828419684e+1 3.059455289155676e-5 0e+0
      vertex 2.9259927772296304e+1 5.438960892586044e-5 2e+1
      vertex 2.1944945828419684e+1 3.059455289155676e-5 2e+1
    endloop
  endfacet
  facet normal 9.999999999930894e-1 3.7176986067168285e-6 0e+0
    outer loop
      vertex 2.9259927772296304e+1 5.438960892586044e-5 0e+0
      vertex 2.925989278411707e+1 9.411301221293458e+0 0e+0
      vertex 2.925989278411707e+1 9.411301221293458e+0 2e+1
    endloop
  endfacet
  facet normal 9.999999999930894e-1 3.7176986067168285e-6 0e+0
    outer loop
      vertex 2.9259927772296304e+1 5.438960892586044e-5 0e+0
      vertex 2.925989278411707e+1 9.411301221293458e+0 2e+1
      vertex 2.9259927772296304e+1 5.438960892586044e-5 2e+1
    endloop
  endfacet
  facet normal -1.8588468712599582e-6 9.999999999982724e-1 0e+0
    outer loop
      vertex 2.925989278411707e+1 9.411301221293458e+0 0e+0
      vertex 0e+0 9.411246831633303e+0 0e+0
      vertex 0e+0 9.411246831633303e+0 2e+1
    endloop
  endfacet
  facet normal -1.8588468712599582e-6 9.999999999982724e-1 0e+0
    outer loop
      vertex 2.925989278411707e+1 9.411301221293458e+0 0e+0
      vertex 0e+0 9.411246831633303e+0 2e+1
      vertex 2.925989278411707e+1 9.411301221293458e+0 2e+1
    endloop
  endfacet
  facet normal -1e+0 0e+0 0e+0
    outer loop
      vertex 0e+0 9.411246831633303e+0 0e+0
      vertex 0e+0 0e+0 0e+0
      vertex 0e+0 0e+0 2e+1
    endloop
  endfacet
  facet normal -1e+0 0e+0 0e+0
    outer loop
      vertex 0e+0 9.411246831633303e+0 0e+0
      vertex 0e+0 0e+0 2e+1
      vertex 0e+0 9.411246831633303e+0 2e+1
    endloop
  endfacet
  facet normal 0e+0 0e+0 -1e+0
    outer loop
      vertex 2.1944945828419684e+1 3.059455289155676e-5 0e+0
      vertex 0e+0 9.411246831633303e+0 0e+0
      vertex 2.925989278411707e+1 9.411301221293458e+0 0e+0
    endloop
  endfacet
  facet normal 0e+0 0e+0 -1e+0
    outer loop
      vertex 2.9259927772296304e+1 5.438960892586044e-5 0e+0
      vertex 2.1944945828419684e+1 3.059455289155676e-5 0e+0
      vertex 2.925989278411707e+1 9.411301221293458e+0 0e+0
    endloop
  endfacet
  facet normal 0e+0 0e+0 -1e+0
    outer loop
      vertex 2.1944945828419684e+1 3.059455289155676e-5 0e+0
      vertex 7.314981943914533e+0 3.399394765457238e-6 0e+0
      vertex 0e+0 9.411246831633303e+0 0e+0
    endloop
  endfacet
  facet normal 0e+0 0e+0 -1e+0
    outer loop
      vertex 7.314981943914533e+0 3.399394765457238e-6 0e+0
      vertex 0e+0 0e+0 0e+0
      vertex 0e+0 9.411246831633303e+0 0e+0
    endloop
  endfacet
  facet normal 0e+0 0e+0 -1e+0
    outer loop
      vertex 2.1944998310745657e+1 -1.882246306814325e+1 0e+0
      vertex 7.314981943914533e+0 3.399394765457238e-6 0e+0
      vertex 2.1944945828419684e+1 3.059455289155676e-5 0e+0
    endloop
  endfacet
  facet normal 0e+0 0e+0 -1e+0
    outer loop
      vertex 2.1944998310745657e+1 -1.882246306814325e+1 0e+0
      vertex 7.314999437993286e+0 -1.8822490263191344e+1 0e+0
      vertex 7.314981943914533e+0 3.399394765457238e-6 0e+0
    endloop
  endfacet
  facet normal 0e+0 0e+0 1e+0
    outer loop
      vertex 2.925989278411707e+1 9.411301221293458e+0 2e+1
      vertex 0e+0 9.411246831633303e+0 2e+1
      vertex 2.1944945828419684e+1 3.059455289155676e-5 2e+1
    endloop
  endfacet
  facet normal 0e+0 0e+0 1e+0
    outer loop
      vertex 2.925989278411707e+1 9.411301221293458e+0 2e+1
      vertex 2.1944945828419684e+1 3.059455289155676e-5 2e+1
      vertex 2.9259927772296304e+1 5.438960892586044e-5 2e+1
    endloop
  endfacet
  facet normal 0e+0 0e+0 1e+0
    outer loop
      vertex 0e+0 9.411246831633303e+0 2e+1
      vertex 7.314981943914533e+0 3.399394765457238e-6 2e+1
      vertex 2.1944945828419684e+1 3.059455289155676e-5 2e+1
    endloop
  endfacet
  facet normal 0e+0 0e+0 1e+0
    outer loop
      vertex 0e+0 9.411246831633303e+0 2e+1
      vertex 0e+0 0e+0 2e+1
      vertex 7.314981943914533e+0 3.399394765457238e-6 2e+1
    endloop
  endfacet
  facet normal 0e+0 0e+0 1e+0
    outer loop
      vertex 2.1944945828419684e+1 3.059455289155676e-5 2e+1
      vertex 7.314981943914533e+0 3.399394765457238e-6 2e+1
      vertex 2.1944998310745657e+1 -1.882246306814325e+1 2e+1
    endloop
  endfacet
  facet normal 0e+0 0e+0 1e+0
    outer loop
      vertex 7.314981943914533e+0 3.399394765457238e-6 2e+1
      vertex 7.314999437993286e+0 -1.8822490263191344e+1 2e+1
      vertex 2.1944998310745657e+1 -1.882246306814325e+1 2e+1
    endloop
  endfacet
endsolid