solid tShape
  facet normal -9.999999999723574e-1 -7.435393848749905e-6 0e+0
    outer loop
      vertex 5.85198827912823e+1 2.1755914303653266e-4 0e+0
      vertex 5.8520022743449495e+1 -1.8822210685906306e+1 0e+0
      vertex 5.8520022743449495e+1 -1.8822210685906306e+1 2e+1
    endloop
  endfacet
  facet normal -9.999999999723574e-1 -7.435393848749905e-6 0e+0
    outer loop
      vertex 5.85198827912823e+1 2.1755914303653266e-4 0e+0
      vertex 5.8520022743449495e+1 -1.8822210685906306e+1 2e+1
      vertex 5.85198827912823e+1 2.1755914303653266e-4 2e+1
    endloop
  endfacet
  facet normal -6.505962191481301e-6 9.999999999788363e-1 0e+0
    outer loop
      vertex 5.8520022743449495e+1 -1.8822210685906306e+1 0e+0
      vertex 4.389001705756737e+1 -1.882230586817016e+1 0e+0
      vertex 4.389001705756737e+1 -1.882230586817016e+1 2e+1
    endloop
  endfacet
  facet normal -6.505962191481301e-6 9.999999999788363e-1 0e+0
    outer loop
      vertex 5.8520022743449495e+1 -1.8822210685906306e+1 0e+0
      vertex 4.389001705756737e+1 -1.882230586817016e+1 2e+1
      vertex 5.8520022743449495e+1 -1.8822210685906306e+1 2e+1
    endloop
  endfacet
  facet normal -9.999999999844512e-1 -5.576523655626989e-6 0e+0
    outer loop
      vertex 4.389001705756737e+1 -1.882230586817016e+1 0e+0
      vertex 4.389022698500009e+1 -5.6467162356074674e+1 0e+0
      vertex 4.389022698500009e+1 -5.6467162356074674e+1 2e+1
    endloop
  endfacet
  facet normal -9.999999999844512e-1 -5.576523655626989e-6 0e+0
    outer loop
      vertex 4.389001705756737e+1 -1.882230586817016e+1 0e+0
      vertex 4.389022698500009e+1 -5.6467162356074674e+1 2e+1
      vertex 4.389001705756737e+1 -1.882230586817016e+1 2e+1
    endloop
  endfacet
  facet normal -3.7176914295150805e-6 9.999999999930893e-1 0e+0
    outer loop
      vertex 4.389022698500009e+1 -5.6467162356074674e+1 0e+0
      vertex 1.4630075662095015e+1 -5.6467271136288474e+1 0e+0
      vertex 1.4630075662095015e+1 -5.6467271136288474e+1 2e+1
    endloop
  endfacet
  facet normal -3.7176914295150805e-6 9.999999999930893e-1 0e+0
    outer loop
      vertex 4.389022698500009e+1 -5.6467162356074674e+1 0e+0
      vertex 1.4630075662095015e+1 -5.6467271136288474e+1 2e+1
      vertex 4.389022698500009e+1 -5.6467162356074674e+1 2e+1
    endloop
  endfacet
  facet normal 9.999999999982723e-1 1.8588371079976768e-6 0e+0
    outer loop
      vertex 1.4630075662095015e+1 -5.6467271136288474e+1 0e+0
      vertex 1.463000568643885e+1 -1.8822414648154894e+1 0e+0
      vertex 1.463000568643885e+1 -1.8822414648154894e+1 2e+1
    endloop
  endfacet
  facet normal 9.999999999982723e-1 1.8588371079976768e-6 0e+0
    outer loop
      vertex 1.4630075662095015e+1 -5.6467271136288474e+1 0e+0
      vertex 1.463000568643885e+1 -1.8822414648154894e+1 2e+1
      vertex 1.4630075662095015e+1 -5.6467271136288474e+1 2e+1
    endloop
  endfacet
  facet normal -9.294342597852248e-7 9.999999999995681e-1 0e+0
    outer loop
      vertex 1.463000568643885e+1 -1.8822414648154894e+1 0e+0
      vertex 2.305082650337937e-15 -1.88224282457834e+1 0e+0
      vertex 2.305082650337937e-15 -1.88224282457834e+1 2e+1
    endloop
  endfacet
  facet normal -9.294342597852248e-7 9.999999999995681e-1 0e+0
    outer loop
      vertex 1.463000568643885e+1 -1.8822414648154894e+1 0e+0
      vertex 2.305082650337937e-15 -1.88224282457834e+1 2e+1
      vertex 1.463000568643885e+1 -1.8822414648154894e+1 2e+1
    endloop
  endfacet
  facet normal 9.320859182994519e-1 -3.6223727156087593e-1 0e+0
    outer loop
      vertex 9.220362646416448e-15 -7.528997465094444e+1 0e+0
      vertex 2.9260022236090915e+1 5.4389608930479266e-5 0e+0
      vertex 2.9260022236090915e+1 5.4389608930479266e-5 2e+1
    endloop
  endfacet
  facet normal 9.320859182994519e-1 -3.6223727156087593e-1 0e+0
    outer loop
      vertex 9.220362646416448e-15 -7.528997465094444e+1 0e+0
      vertex 2.9260022236090915e+1 5.4389608930479266e-5 2e+1
      vertex 9.220362646416448e-15 -7.528997465094444e+1 2e+1
    endloop
  endfacet
  facet normal 0e+0 0e+0 -1e+0
    outer loop
      vertex 5.85198827912823e+1 2.1755914303653266e-4 0e+0
      vertex 1.463000568643885e+1 -1.8822414648154894e+1 0e+0
      vertex 2.305082650337937e-15 -1.88224282457834e+1 0e+0
    endloop
  endfacet
  facet normal 0e+0 0e+0 -1e+0
    outer loop
      vertex 5.85198827912823e+1 2.1755914303653266e-4 0e+0
      vertex 4.389001705756737e+1 -1.882230586817016e+1 0e+0
      vertex 1.463000568643885e+1 -1.8822414648154894e+1 0e+0
    endloop
  endfacet
  facet normal 0e+0 0e+0 -1e+0
    outer loop
      vertex 4.389022698500009e+1 -5.6467162356074674e+1 0e+0
      vertex 1.463000568643885e+1 -1.8822414648154894e+1 0e+0
      vertex 4.389001705756737e+1 -1.882230586817016e+1 0e+0
    endloop
  endfacet
  facet normal 0e+0 0e+0 -1e+0
    outer loop
      vertex 4.389022698500009e+1 -5.6467162356074674e+1 0e+0
      vertex 1.4630075662095015e+1 -5.6467271136288474e+1 0e+0
      vertex 1.463000568643885e+1 -1.8822414648154894e+1 0e+0
    endloop
  endfacet
  facet normal 0e+0 0e+0 -1e+0
    outer loop
      vertex 5.8520022743449495e+1 -1.8822210685906306e+1 0e+0
      vertex 4.389001705756737e+1 -1.882230586817016e+1 0e+0
      vertex 5.85198827912823e+1 2.1755914303653266e-4 0e+0
    endloop
  endfacet
  facet normal 0e+0 0e+0 1e+0
    outer loop
      vertex 2.305082650337937e-15 -1.88224282457834e+1 2e+1
      vertex 1.463000568643885e+1 -1.8822414648154894e+1 2e+1
      vertex 5.85198827912823e+1 2.1755914303653266e-4 2e+1
    endloop
  endfacet
  facet normal 0e+0 0e+0 1e+0
    outer loop
      vertex 1.463000568643885e+1 -1.8822414648154894e+1 2e+1
      vertex 4.389001705756737e+1 -1.882230586817016e+1 2e+1
      vertex 5.85198827912823e+1 2.1755914303653266e-4 2e+1
    endloop
  endfacet
  facet normal 0e+0 0e+0 1e+0
    outer loop
      vertex 4.389001705756737e+1 -1.882230586817016e+1 2e+1
      vertex 1.463000568643885e+1 -1.8822414648154894e+1 2e+1
      vertex 4.389022698500009e+1 -5.6467162356074674e+1 2e+1
    endloop
  endfacet
  facet normal 0e+0 0e+0 1e+0
    outer loop
      vertex 1.463000568643885e+1 -1.8822414648154894e+1 2e+1
      vertex 1.4630075662095015e+1 -5.6467271136288474e+1 2e+1
      vertex 4.389022698500009e+1 -5.6467162356074674e+1 2e+1
    endloop
  endfacet
  facet normal 0e+0 0e+0 1e+0
    outer loop
      vertex 5.85198827912823e+1 2.1755914303653266e-4 2e+1
      vertex 4.389001705756737e+1 -1.882230586817016e+1 2e+1
      vertex 5.8520022743449495e+1 -1.8822210685906306e+1 2e+1
    endloop
  endfacet
endsolid