solid UMD Building 6
  facet normal 4.129827525117346e-6 -9.999999999914723e-1 0e+0
    outer loop
      vertex 0e+0 0e+0 0e+0
      vertex 6.501307130131346e+1 2.684927713548705e-4 0e+0
      vertex 6.501307130131346e+1 2.684927713548705e-4 1.8e+1
    endloop
  endfacet
  facet normal 4.129827525117346e-6 -9.999999999914723e-1 0e+0
    outer loop
      vertex 0e+0 0e+0 0e+0
      vertex 6.501307130131346e+1 2.684927713548705e-4 1.8e+1
      vertex 0e+0 0e+0 1.8e+1
    endloop
  endfacet
  facet normal 9.989447793918402e-1 4.5927418017864034e-2 0e+0
    outer loop
      vertex 6.501307130131346e+1 2.684927713548705e-4 0e+0
      vertex 6.3853743857552736e+1 2.52162320180887e+1 0e+0
      vertex 6.3853743857552736e+1 2.52162320180887e+1 1.8e+1
    endloop
  endfacet
  facet normal 9.989447793918402e-1 4.5927418017864034e-2 0e+0
    outer loop
      vertex 6.501307130131346e+1 2.684927713548705e-4 0e+0
      vertex 6.3853743857552736e+1 2.52162320180887e+1 1.8e+1
      vertex 6.501307130131346e+1 2.684927713548705e-4 1.8e+1
    endloop
  endfacet
  facet normal -3.6345763971916928e-3 9.999933949053927e-1 0e+0
    outer loop
      vertex 6.3853743857552736e+1 2.52162320180887e+1 0e+0
      vertex -5.497919040479855e-9 2.4984149174842596e+1 0e+0
      vertex -5.497919040479855e-9 2.4984149174842596e+1 1.8e+1
    endloop
  endfacet
  facet normal -3.6345763971916928e-3 9.999933949053927e-1 0e+0
    outer loop
      vertex 6.3853743857552736e+1 2.52162320180887e+1 0e+0
      vertex -5.497919040479855e-9 2.4984149174842596e+1 1.8e+1
      vertex 6.3853743857552736e+1 2.52162320180887e+1 1.8e+1
    endloop
  endfacet
  facet normal -1e+0 -2.2005628456685246e-10 0e+0
    outer loop
      vertex -5.497919040479855e-9 2.4984149174842596e+1 0e+0
      vertex 0e+0 0e+0 0e+0
      vertex 0e+0 0e+0 1.8e+1
    endloop
  endfacet
  facet normal -1e+0 -2.2005628456685246e-10 0e+0
    outer loop
      vertex -5.497919040479855e-9 2.4984149174842596e+1 0e+0
      vertex 0e+0 0e+0 1.8e+1
      vertex -5.497919040479855e-9 2.4984149174842596e+1 1.8e+1
    endloop
  endfacet
  facet normal 0e+0 0e+0 -1e+0
    outer loop
      vertex 0e+0 0e+0 0e+0
      vertex -5.497919040479855e-9 2.4984149174842596e+1 0e+0
      vertex 6.3853743857552736e+1 2.52162320180887e+1 0e+0
    endloop
  endfacet
  facet normal 0e+0 0e+0 -1e+0
    outer loop
      vertex 0e+0 0e+0 0e+0
      vertex 6.3853743857552736e+1 2.52162320180887e+1 0e+0
      vertex 6.501307130131346e+1 2.684927713548705e-4 0e+0
    endloop
  endfacet
  facet normal 0e+0 0e+0 1e+0
    outer loop
      vertex 6.3853743857552736e+1 2.52162320180887e+1 1.8e+1
      vertex -5.497919040479855e-9 2.4984149174842596e+1 1.8e+1
      vertex 0e+0 0e+0 1.8e+1
    endloop
  endfacet
  facet normal 0e+0 0e+0 1e+0
    outer loop
      vertex 6.501307130131346e+1 2.684927713548705e-4 1.8e+1
      vertex 6.3853743857552736e+1 2.52162320180887e+1 1.8e+1
      vertex 0e+0 0e+0 1.8e+1
    endloop
  endfacet
endsolid