solid University Building 8
  facet normal 1.1250481924986538e-2 9.999367113254997e-1 0e+0
    outer loop
      vertex 0e+0 0e+0 0e+0
      vertex -2.0608097679074763e+1 2.3186570491991412e-1 0e+0
      vertex -2.0608097679074763e+1 2.3186570491991412e-1 2.1e+1
    endloop
  endfacet
  facet normal 1.1250481924986538e-2 9.999367113254997e-1 0e+0
    outer loop
      vertex 0e+0 0e+0 0e+0
      vertex -2.0608097679074763e+1 2.3186570491991412e-1 2.1e+1
      vertex 0e+0 0e+0 2.1e+1
    endloop
  endfacet
  facet normal 9.992331278280057e-1 3.9155539212995076e-2 0e+0
    outer loop
      vertex -2.0608097679074763e+1 2.3186570491991412e-1 0e+0
      vertex -2.223085182557645e+1 4.1643878771173256e+1 0e+0
      vertex -2.223085182557645e+1 4.1643878771173256e+1 2.1e+1
    endloop
  endfacet
  facet normal 9.992331278280057e-1 3.9155539212995076e-2 0e+0
    outer loop
      vertex -2.0608097679074763e+1 2.3186570491991412e-1 0e+0
      vertex -2.223085182557645e+1 4.1643878771173256e+1 2.1e+1
      vertex -2.0608097679074763e+1 2.3186570491991412e-1 2.1e+1
    endloop
  endfacet
  facet normal 3.969233154031624e-6 9.999999999921225e-1 0e+0
    outer loop
      vertex -2.223085182557645e+1 4.1643878771173256e+1 0e+0
      vertex -4.0263079593427506e+1 4.1643950345289554e+1 0e+0
      vertex -4.0263079593427506e+1 4.1643950345289554e+1 2.1e+1
    endloop
  endfacet
  facet normal 3.969233154031624e-6 9.999999999921225e-1 0e+0
    outer loop
      vertex -2.223085182557645e+1 4.1643878771173256e+1 0e+0
      vertex -4.0263079593427506e+1 4.1643950345289554e+1 2.1e+1
      vertex -2.223085182557645e+1 4.1643878771173256e+1 2.1e+1
    endloop
  endfacet
  facet normal -9.999358376917397e-1 1.1327863863894483e-2 0e+0
    outer loop
      vertex -4.0263079593427506e+1 4.1643950345289554e+1 0e+0
      vertex -4.072696645186327e+1 6.956215202393543e-1 0e+0
      vertex -4.072696645186327e+1 6.956215202393543e-1 2.1e+1
    endloop
  endfacet
  facet normal -9.999358376917397e-1 1.1327863863894483e-2 0e+0
    outer loop
      vertex -4.0263079593427506e+1 4.1643950345289554e+1 0e+0
      vertex -4.072696645186327e+1 6.956215202393543e-1 2.1e+1
      vertex -4.0263079593427506e+1 4.1643950345289554e+1 2.1e+1
    endloop
  endfacet
  facet normal 6.37922619509438e-6 9.999999999796527e-1 0e+0
    outer loop
      vertex -4.072696645186327e+1 6.956215202393543e-1 0e+0
      vertex -5.9712191922018796e+1 6.957426312869958e-1 0e+0
      vertex -5.9712191922018796e+1 6.957426312869958e-1 2.1e+1
    endloop
  endfacet
  facet normal 6.37922619509438e-6 9.999999999796527e-1 0e+0
    outer loop
      vertex -4.072696645186327e+1 6.956215202393543e-1 0e+0
      vertex -5.9712191922018796e+1 6.957426312869958e-1 2.1e+1
      vertex -4.072696645186327e+1 6.956215202393543e-1 2.1e+1
    endloop
  endfacet
  facet normal -9.999337484938203e-1 -1.151080462423851e-2 0e+0
    outer loop
      vertex -5.9712191922018796e+1 6.957426312869958e-1 0e+0
      vertex -5.9480505275298725e+1 -1.943067812673106e+1 0e+0
      vertex -5.9480505275298725e+1 -1.943067812673106e+1 2.1e+1
    endloop
  endfacet
  facet normal -9.999337484938203e-1 -1.151080462423851e-2 0e+0
    outer loop
      vertex -5.9712191922018796e+1 6.957426312869958e-1 0e+0
      vertex -5.9480505275298725e+1 -1.943067812673106e+1 2.1e+1
      vertex -5.9712191922018796e+1 6.957426312869958e-1 2.1e+1
    endloop
  endfacet
  facet normal -1.547224232541856e-2 -9.998802976943908e-1 0e+0
    outer loop
      vertex -5.9480505275298725e+1 -1.943067812673106e+1 0e+0
      vertex 4.6367866822536785e-1 -2.035826010040562e+1 0e+0
      vertex 4.6367866822536785e-1 -2.035826010040562e+1 2.1e+1
    endloop
  endfacet
  facet normal -1.547224232541856e-2 -9.998802976943908e-1 0e+0
    outer loop
      vertex -5.9480505275298725e+1 -1.943067812673106e+1 0e+0
      vertex 4.6367866822536785e-1 -2.035826010040562e+1 2.1e+1
      vertex -5.9480505275298725e+1 -1.943067812673106e+1 2.1e+1
    endloop
  endfacet
  facet normal 9.997407289692287e-1 2.2770042601522437e-2 0e+0
    outer loop
      vertex 4.6367866822536785e-1 -2.035826010040562e+1 0e+0
      vertex 0e+0 0e+0 0e+0
      vertex 0e+0 0e+0 2.1e+1
    endloop
  endfacet
  facet normal 9.997407289692287e-1 2.2770042601522437e-2 0e+0
    outer loop
      vertex 4.6367866822536785e-1 -2.035826010040562e+1 0e+0
      vertex 0e+0 0e+0 2.1e+1
      vertex 4.6367866822536785e-1 -2.035826010040562e+1 2.1e+1
    endloop
  endfacet
  facet normal 0e+0 0e+0 -1e+0
    outer loop
      vertex -4.072696645186327e+1 6.956215202393543e-1 0e+0
      vertex -5.9480505275298725e+1 -1.943067812673106e+1 0e+0
      vertex -5.9712191922018796e+1 6.957426312869958e-1 0e+0
    endloop
  endfacet
  facet normal 0e+0 0e+0 -1e+0
    outer loop
      vertex -2.0608097679074763e+1 2.3186570491991412e-1 0e+0
      vertex -5.9480505275298725e+1 -1.943067812673106e+1 0e+0
      vertex -4.072696645186327e+1 6.956215202393543e-1 0e+0
    endloop
  endfacet
  facet normal 0e+0 0e+0 -1e+0
    outer loop
      vertex -2.0608097679074763e+1 2.3186570491991412e-1 0e+0
      vertex -4.072696645186327e+1 6.956215202393543e-1 0e+0
      vertex -2.223085182557645e+1 4.1643878771173256e+1 0e+0
    endloop
  endfacet
  facet normal 0e+0 0e+0 -1e+0
    outer loop
      vertex -2.223085182557645e+1 4.1643878771173256e+1 0e+0
      vertex -4.072696645186327e+1 6.956215202393543e-1 0e+0
      vertex -4.0263079593427506e+1 4.1643950345289554e+1 0e+0
    endloop
  endfacet
  facet normal 0e+0 0e+0 -1e+0
    outer loop
      vertex -5.9480505275298725e+1 -1.943067812673106e+1 0e+0
      vertex -2.0608097679074763e+1 2.3186570491991412e-1 0e+0
      vertex 4.6367866822536785e-1 -2.035826010040562e+1 0e+0
    endloop
  endfacet
  facet normal 0e+0 0e+0 -1e+0
    outer loop
      vertex 4.6367866822536785e-1 -2.035826010040562e+1 0e+0
      vertex -2.0608097679074763e+1 2.3186570491991412e-1 0e+0
      vertex 0e+0 0e+0 0e+0
    endloop
  endfacet
  facet normal 0e+0 0e+0 1e+0
    outer loop
      vertex -5.9712191922018796e+1 6.957426312869958e-1 2.1e+1
      vertex -5.9480505275298725e+1 -1.943067812673106e+1 2.1e+1
      vertex -4.072696645186327e+1 6.956215202393543e-1 2.1e+1
    endloop
  endfacet
  facet normal 0e+0 0e+0 1e+0
    outer loop
      vertex -4.072696645186327e+1 6.956215202393543e-1 2.1e+1
      vertex -5.9480505275298725e+1 -1.943067812673106e+1 2.1e+1
      vertex -2.0608097679074763e+1 2.3186570491991412e-1 2.1e+1
    endloop
  endfacet
  facet normal 0e+0 0e+0 1e+0
    outer loop
      vertex -2.223085182557645e+1 4.1643878771173256e+1 2.1e+1
      vertex -4.072696645186327e+1 6.956215202393543e-1 2.1e+1
      vertex -2.0608097679074763e+1 2.3186570491991412e-1 2.1e+1
    endloop
  endfacet
  facet normal 0e+0 0e+0 1e+0
    outer loop
      vertex -4.0263079593427506e+1 4.1643950345289554e+1 2.1e+1
      vertex -4.072696645186327e+1 6.956215202393543e-1 2.1e+1
      vertex -2.223085182557645e+1 4.1643878771173256e+1 2.1e+1
    endloop
  endfacet
  facet normal 0e+0 0e+0 1e+0
    outer loop
      vertex 4.6367866822536785e-1 -2.035826010040562e+1 2.1e+1
      vertex -2.0608097679074763e+1 2.3186570491991412e-1 2.1e+1
      vertex -5.9480505275298725e+1 -1.943067812673106e+1 2.1e+1
    endloop
  endfacet
  facet normal 0e+0 0e+0 1e+0
    outer loop
      vertex 0e+0 0e+0 2.1e+1
      vertex -2.0608097679074763e+1 2.3186570491991412e-1 2.1e+1
      vertex 4.6367866822536785e-1 -2.035826010040562e+1 2.1e+1
    endloop
  endfacet
endsolid