solid uShape
  facet normal 9.294406915827755e-7 -9.999999999995681e-1 0e+0
    outer loop
      vertex 0e+0 0e+0 0e+0
      vertex 1.4629851248369631e+1 1.3597579062043672e-5 0e+0
      vertex 1.4629851248369631e+1 1.3597579062043672e-5 2e+1
    endloop
  endfacet
  facet normal 9.294406915827755e-7 -9.999999999995681e-1 0e+0
    outer loop
      vertex 0e+0 0e+0 0e+0
      vertex 1.4629851248369631e+1 1.3597579062043672e-5 2e+1
      vertex 0e+0 0e+0 2e+1
    endloop
  endfacet
  facet normal -9.999999999982723e-1 -1.8588691322583295e-6 0e+0
    outer loop
      vertex 1.4629851248369631e+1 1.3597579062043672e-5 0e+0
      vertex 1.4629921225474554e+1 -3.764497372755522e+1 0e+0
      vertex 1.4629921225474554e+1 -3.764497372755522e+1 2e+1
    endloop
  endfacet
  facet normal -9.999999999982723e-1 -1.8588691322583295e-6 0e+0
    outer loop
      vertex 1.4629851248369631e+1 1.3597579062043672e-5 0e+0
      vertex 1.4629921225474554e+1 -3.764497372755522e+1 2e+1
      vertex 1.4629851248369631e+1 1.3597579062043672e-5 2e+1
    endloop
  endfacet
  facet normal 3.7177379498021134e-6 -9.999999999930892e-1 0e+0
    outer loop
      vertex 1.4629921225474554e+1 -3.764497372755522e+1 0e+0
      vertex 4.388976367835188e+1 -3.7644864947128525e+1 0e+0
      vertex 4.388976367835188e+1 -3.7644864947128525e+1 2e+1
    endloop
  endfacet
  facet normal 3.7177379498021134e-6 -9.999999999930892e-1 0e+0
    outer loop
      vertex 1.4629921225474554e+1 -3.764497372755522e+1 0e+0
      vertex 4.388976367835188e+1 -3.7644864947128525e+1 2e+1
      vertex 1.4629921225474554e+1 -3.764497372755522e+1 2e+1
    endloop
  endfacet
  facet normal 9.999999999844508e-1 5.576605573080927e-6 0e+0
    outer loop
      vertex 4.388976367835188e+1 -3.7644864947128525e+1 0e+0
      vertex 4.3889553747105765e+1 1.2237785790664583e-4 0e+0
      vertex 4.3889553747105765e+1 1.2237785790664583e-4 2e+1
    endloop
  endfacet
  facet normal 9.999999999844508e-1 5.576605573080927e-6 0e+0
    outer loop
      vertex 4.388976367835188e+1 -3.7644864947128525e+1 0e+0
      vertex 4.3889553747105765e+1 1.2237785790664583e-4 2e+1
      vertex 4.388976367835188e+1 -3.7644864947128525e+1 2e+1
    endloop
  endfacet
  facet normal 6.506036493480638e-6 -9.999999999788356e-1 0e+0
    outer loop
      vertex 4.3889553747105765e+1 1.2237785790664583e-4 0e+0
      vertex 5.8519404995172074e+1 2.1756020402277296e-4 0e+0
      vertex 5.8519404995172074e+1 2.1756020402277296e-4 2e+1
    endloop
  endfacet
  facet normal 6.506036493480638e-6 -9.999999999788356e-1 0e+0
    outer loop
      vertex 4.3889553747105765e+1 1.2237785790664583e-4 0e+0
      vertex 5.8519404995172074e+1 2.1756020402277296e-4 2e+1
      vertex 4.3889553747105765e+1 1.2237785790664583e-4 2e+1
    endloop
  endfacet
  facet normal -9.99999999972357e-1 -7.435460932472731e-6 0e+0
    outer loop
      vertex 5.8519404995172074e+1 2.1756020402277296e-4 0e+0
      vertex 5.851982485692092e+1 -5.646726342679208e+1 0e+0
      vertex 5.851982485692092e+1 -5.646726342679208e+1 2e+1
    endloop
  endfacet
  facet normal -9.99999999972357e-1 -7.435460932472731e-6 0e+0
    outer loop
      vertex 5.8519404995172074e+1 2.1756020402277296e-4 0e+0
      vertex 5.851982485692092e+1 -5.646726342679208e+1 2e+1
      vertex 5.8519404995172074e+1 2.1756020402277296e-4 2e+1
    endloop
  endfacet
  facet normal -3.717729612075017e-6 9.999999999930892e-1 0e+0
    outer loop
      vertex 5.851982485692092e+1 -5.646726342679208e+1 0e+0
      vertex 6.915271984747369e-15 -5.6467480987677845e+1 0e+0
      vertex 6.915271984747369e-15 -5.6467480987677845e+1 2e+1
    endloop
  endfacet
  facet normal -3.717729612075017e-6 9.999999999930892e-1 0e+0
    outer loop
      vertex 5.851982485692092e+1 -5.646726342679208e+1 0e+0
      vertex 6.915271984747369e-15 -5.6467480987677845e+1 2e+1
      vertex 5.851982485692092e+1 -5.646726342679208e+1 2e+1
    endloop
  endfacet
  facet normal 1e+0 1.2246467991473532e-16 0e+0
    outer loop
      vertex 6.915271984747369e-15 -5.6467480987677845e+1 0e+0
      vertex 0e+0 0e+0 0e+0
      vertex 0e+0 0e+0 2e+1
    endloop
  endfacet
  facet normal 1e+0 1.2246467991473532e-16 0e+0
    outer loop
      vertex 6.915271984747369e-15 -5.6467480987677845e+1 0e+0
      vertex 0e+0 0e+0 2e+1
      vertex 6.915271984747369e-15 -5.6467480987677845e+1 2e+1
    endloop
  endfacet
  facet normal 0e+0 0e+0 -1e+0
    outer loop
      vertex 1.4629921225474554e+1 -3.764497372755522e+1 0e+0
      vertex 0e+0 0e+0 0e+0
      vertex 1.4629851248369631e+1 1.3597579062043672e-5 0e+0
    endloop
  endfacet
  facet normal 0e+0 0e+0 -1e+0
    outer loop
      vertex 1.4629921225474554e+1 -3.764497372755522e+1 0e+0
      vertex 6.915271984747369e-15 -5.6467480987677845e+1 0e+0
      vertex 0e+0 0e+0 0e+0
    endloop
  endfacet
  facet normal 0e+0 0e+0 -1e+0
    outer loop
      vertex 5.851982485692092e+1 -5.646726342679208e+1 0e+0
      vertex 6.915271984747369e-15 -5.6467480987677845e+1 0e+0
      vertex 1.4629921225474554e+1 -3.764497372755522e+1 0e+0
    endloop
  endfacet
  facet normal 0e+0 0e+0 -1e+0
    outer loop
      vertex 5.851982485692092e+1 -5.646726342679208e+1 0e+0
      vertex 1.4629921225474554e+1 -3.764497372755522e+1 0e+0
      vertex 4.388976367835188e+1 -3.7644864947128525e+1 0e+0
    endloop
  endfacet
  facet normal 0e+0 0e+0 -1e+0
    outer loop
      vertex 5.851982485692092e+1 -5.646726342679208e+1 0e+0
      vertex 4.388976367835188e+1 -3.7644864947128525e+1 0e+0
      vertex 5.8519404995172074e+1 2.1756020402277296e-4 0e+0
    endloop
  endfacet
  facet normal 0e+0 0e+0 -1e+0
    outer loop
      vertex 5.8519404995172074e+1 2.1756020402277296e-4 0e+0
      vertex 4.388976367835188e+1 -3.7644864947128525e+1 0e+0
      vertex 4.3889553747105765e+1 1.2237785790664583e-4 0e+0
    endloop
  endfacet
  facet normal 0e+0 0e+0 1e+0
    outer loop
      vertex 1.4629851248369631e+1 1.3597579062043672e-5 2e+1
      vertex 0e+0 0e+0 2e+1
      vertex 1.4629921225474554e+1 -3.764497372755522e+1 2e+1
    endloop
  endfacet
  facet normal 0e+0 0e+0 1e+0
    outer loop
      vertex 0e+0 0e+0 2e+1
      vertex 6.915271984747369e-15 -5.6467480987677845e+1 2e+1
      vertex 1.4629921225474554e+1 -3.764497372755522e+1 2e+1
    endloop
  endfacet
  facet normal 0e+0 0e+0 1e+0
    outer loop
      vertex 1.4629921225474554e+1 -3.764497372755522e+1 2e+1
      vertex 6.915271984747369e-15 -5.6467480987677845e+1 2e+1
      vertex 5.851982485692092e+1 -5.646726342679208e+1 2e+1
    endloop
  endfacet
  facet normal 0e+0 0e+0 1e+0
    outer loop
      vertex 4.388976367835188e+1 -3.7644864947128525e+1 2e+1
      vertex 1.4629921225474554e+1 -3.764497372755522e+1 2e+1
      vertex 5.851982485692092e+1 -5.646726342679208e+1 2e+1
    endloop
  endfacet
  facet normal 0e+0 0e+0 1e+0
    outer loop
      vertex 5.8519404995172074e+1 2.1756020402277296e-4 2e+1
      vertex 4.388976367835188e+1 -3.7644864947128525e+1 2e+1
      vertex 5.851982485692092e+1 -5.646726342679208e+1 2e+1
    endloop
  endfacet
  facet normal 0e+0 0e+0 1e+0
    outer loop
      vertex 4.3889553747105765e+1 1.2237785790664583e-4 2e+1
      vertex 4.388976367835188e+1 -3.7644864947128525e+1 2e+1
      vertex 5.8519404995172074e+1 2.1756020402277296e-4 2e+1
    endloop
  endfacet
endsolid