solid uShape
  facet normal 1.8588413320299467e-6 -9.999999999982724e-1 0e+0
    outer loop
      vertex 0e+0 0e+0 0e+0
      vertex 2.9259952418607927e+1 5.438960892903199e-5 0e+0
      vertex 2.9259952418607927e+1 5.438960892903199e-5 2e+1
    endloop
  endfacet
  facet normal 1.8588413320299467e-6 -9.999999999982724e-1 0e+0
    outer loop
      vertex 0e+0 0e+0 0e+0
      vertex 2.9259952418607927e+1 5.438960892903199e-5 2e+1
      vertex 0e+0 0e+0 2e+1
    endloop
  endfacet
  facet normal 9.999999999930893e-1 3.717698479240698e-6 0e+0
    outer loop
      vertex 2.9259952418607927e+1 5.438960892903199e-5 0e+0
      vertex 2.9259847454073828e+1 2.823379488376851e+1 0e+0
      vertex 2.9259847454073828e+1 2.823379488376851e+1 2e+1
    endloop
  endfacet
  facet normal 9.999999999930893e-1 3.717698479240698e-6 0e+0
    outer loop
      vertex 2.9259952418607927e+1 5.438960892903199e-5 0e+0
      vertex 2.9259847454073828e+1 2.823379488376851e+1 2e+1
      vertex 2.9259952418607927e+1 5.438960892903199e-5 2e+1
    endloop
  endfacet
  facet normal -3.252982730036371e-6 9.99999999994709e-1 0e+0
    outer loop
      vertex 2.9259847454073828e+1 2.823379488376851e+1 0e+0
      vertex 2.194488558975945e+1 2.8233771088323895e+1 0e+0
      vertex 2.194488558975945e+1 2.8233771088323895e+1 2e+1
    endloop
  endfacet
  facet normal -3.252982730036371e-6 9.99999999994709e-1 0e+0
    outer loop
      vertex 2.9259847454073828e+1 2.823379488376851e+1 0e+0
      vertex 2.194488558975945e+1 2.8233771088323895e+1 2e+1
      vertex 2.9259847454073828e+1 2.823379488376851e+1 2e+1
    endloop
  endfacet
  facet normal -9.999999999961129e-1 -2.788273987550337e-6 0e+0
    outer loop
      vertex 2.194488558975945e+1 2.8233771088323895e+1 0e+0
      vertex 2.194493807202891e+1 9.411277425859078e+0 0e+0
      vertex 2.194493807202891e+1 9.411277425859078e+0 2e+1
    endloop
  endfacet
  facet normal -9.999999999961129e-1 -2.788273987550337e-6 0e+0
    outer loop
      vertex 2.194488558975945e+1 2.8233771088323895e+1 0e+0
      vertex 2.194493807202891e+1 9.411277425859078e+0 2e+1
      vertex 2.194488558975945e+1 2.8233771088323895e+1 2e+1
    endloop
  endfacet
  facet normal -1.8588466605702454e-6 9.999999999982724e-1 0e+0
    outer loop
      vertex 2.194493807202891e+1 9.411277425859078e+0 0e+0
      vertex 7.314979358428483e+0 9.411250231009179e+0 0e+0
      vertex 7.314979358428483e+0 9.411250231009179e+0 2e+1
    endloop
  endfacet
  facet normal -1.8588466605702454e-6 9.999999999982724e-1 0e+0
    outer loop
      vertex 2.194493807202891e+1 9.411277425859078e+0 0e+0
      vertex 7.314979358428483e+0 9.411250231009179e+0 2e+1
      vertex 2.194493807202891e+1 9.411277425859078e+0 2e+1
    endloop
  endfacet
  facet normal 9.99999999999568e-1 9.294179956134904e-7 0e+0
    outer loop
      vertex 7.314979358428483e+0 9.411250231009179e+0 0e+0
      vertex 7.31496186446415e+0 2.8233743893513818e+1 0e+0
      vertex 7.31496186446415e+0 2.8233743893513818e+1 2e+1
    endloop
  endfacet
  facet normal 9.99999999999568e-1 9.294179956134904e-7 0e+0
    outer loop
      vertex 7.314979358428483e+0 9.411250231009179e+0 0e+0
      vertex 7.31496186446415e+0 2.8233743893513818e+1 2e+1
      vertex 7.314979358428483e+0 9.411250231009179e+0 2e+1
    endloop
  endfacet
  facet normal -4.6470799163757827e-7 9.99999999999892e-1 0e+0
    outer loop
      vertex 7.31496186446415e+0 2.8233743893513818e+1 0e+0
      vertex 0e+0 2.823374049419258e+1 0e+0
      vertex 0e+0 2.823374049419258e+1 2e+1
    endloop
  endfacet
  facet normal -4.6470799163757827e-7 9.99999999999892e-1 0e+0
    outer loop
      vertex 7.31496186446415e+0 2.8233743893513818e+1 0e+0
      vertex 0e+0 2.823374049419258e+1 2e+1
      vertex 7.31496186446415e+0 2.8233743893513818e+1 2e+1
    endloop
  endfacet
  facet normal -1e+0 0e+0 0e+0
    outer loop
      vertex 0e+0 2.823374049419258e+1 0e+0
      vertex 0e+0 0e+0 0e+0
      vertex 0e+0 0e+0 2e+1
    endloop
  endfacet
  facet normal -1e+0 0e+0 0e+0
    outer loop
      vertex 0e+0 2.823374049419258e+1 0e+0
      vertex 0e+0 0e+0 2e+1
      vertex 0e+0 2.823374049419258e+1 2e+1
    endloop
  endfacet
  facet normal 0e+0 0e+0 -1e+0
    outer loop
      vertex 7.314979358428483e+0 9.411250231009179e+0 0e+0
      vertex 0e+0 2.823374049419258e+1 0e+0
      vertex 7.31496186446415e+0 2.8233743893513818e+1 0e+0
    endloop
  endfacet
  facet normal 0e+0 0e+0 -1e+0
    outer loop
      vertex 7.314979358428483e+0 9.411250231009179e+0 0e+0
      vertex 0e+0 0e+0 0e+0
      vertex 0e+0 2.823374049419258e+1 0e+0
    endloop
  endfacet
  facet normal 0e+0 0e+0 -1e+0
    outer loop
      vertex 0e+0 0e+0 0e+0
      vertex 7.314979358428483e+0 9.411250231009179e+0 0e+0
      vertex 2.194493807202891e+1 9.411277425859078e+0 0e+0
    endloop
  endfacet
  facet normal 0e+0 0e+0 -1e+0
    outer loop
      vertex 0e+0 0e+0 0e+0
      vertex 2.194493807202891e+1 9.411277425859078e+0 0e+0
      vertex 2.9259952418607927e+1 5.438960892903199e-5 0e+0
    endloop
  endfacet
  facet normal 0e+0 0e+0 -1e+0
    outer loop
      vertex 2.9259952418607927e+1 5.438960892903199e-5 0e+0
      vertex 2.194493807202891e+1 9.411277425859078e+0 0e+0
      vertex 2.9259847454073828e+1 2.823379488376851e+1 0e+0
    endloop
  endfacet
  facet normal 0e+0 0e+0 -1e+0
    outer loop
      vertex 2.9259847454073828e+1 2.823379488376851e+1 0e+0
      vertex 2.194493807202891e+1 9.411277425859078e+0 0e+0
      vertex 2.194488558975945e+1 2.8233771088323895e+1 0e+0
    endloop
  endfacet
  facet normal 0e+0 0e+0 1e+0
    outer loop
      vertex 7.31496186446415e+0 2.8233743893513818e+1 2e+1
      vertex 0e+0 2.823374049419258e+1 2e+1
      vertex 7.314979358428483e+0 9.411250231009179e+0 2e+1
    endloop
  endfacet
  facet normal 0e+0 0e+0 1e+0
    outer loop
      vertex 0e+0 2.823374049419258e+1 2e+1
      vertex 0e+0 0e+0 2e+1
      vertex 7.314979358428483e+0 9.411250231009179e+0 2e+1
    endloop
  endfacet
  facet normal 0e+0 0e+0 1e+0
    outer loop
      vertex 2.194493807202891e+1 9.411277425859078e+0 2e+1
      vertex 7.314979358428483e+0 9.411250231009179e+0 2e+1
      vertex 0e+0 0e+0 2e+1
    endloop
  endfacet
  facet normal 0e+0 0e+0 1e+0
    outer loop
      vertex 2.9259952418607927e+1 5.438960892903199e-5 2e+1
      vertex 2.194493807202891e+1 9.411277425859078e+0 2e+1
      vertex 0e+0 0e+0 2e+1
    endloop
  endfacet
  facet normal 0e+0 0e+0 1e+0
    outer loop
      vertex 2.9259847454073828e+1 2.823379488376851e+1 2e+1
      vertex 2.194493807202891e+1 9.411277425859078e+0 2e+1
      vertex 2.9259952418607927e+1 5.438960892903199e-5 2e+1
    endloop
  endfacet
  facet normal 0e+0 0e+0 1e+0
    outer loop
      vertex 2.194488558975945e+1 2.8233771088323895e+1 2e+1
      vertex 2.194493807202891e+1 9.411277425859078e+0 2e+1
      vertex 2.9259847454073828e+1 2.823379488376851e+1 2e+1
    endloop
  endfacet
endsolid